<svg xmlns="http://www.w3.org/2000/svg" xmlns:xlink="http://www.w3.org/1999/xlink" width="116" height="111" viewBox="0 0 116 111"><defs><path id="8o48a" d="M1027 1732.13a13 13 0 0 1 13-13h90a13 13 0 0 1 13 13v84.27a13 13 0 0 1-13 13h-90a13 13 0 0 1-13-13z"/><path id="8o48b" d="M1129.07 1754.57c-.28.36-.57.76-.88 1.14-4.8 5.9-9.59 11.84-14.44 17.71-.86 1.03-.96 1.7-.05 2.8 4.6 5.51 9.04 11.15 13.66 16.65 1.03 1.25.85 1.82-.42 2.68a149.73 149.73 0 0 0-7.69 5.57c-.94.72-1.42.62-2.13-.28-3.86-4.82-7.82-9.57-11.65-14.41-.95-1.22-1.4-1.14-2.32.02-3.8 4.79-7.74 9.48-11.53 14.28-.83 1.05-1.38 1.06-2.41.27a178.36 178.36 0 0 0-7.83-5.68c-1.04-.7-1.09-1.2-.3-2.15 4.61-5.59 9.12-11.24 13.75-16.82.92-1.11 1-1.8.04-2.94-4.83-5.8-9.52-11.74-14.37-17.53-1.12-1.33-.9-1.94.45-2.83 2.57-1.72 5.08-3.56 7.52-5.45 1.04-.8 1.55-.6 2.28.32 4.1 5.12 8.3 10.16 12.36 15.29 1.02 1.29 1.5 1.14 2.44-.04 4.04-5.07 8.22-10.06 12.24-15.15.9-1.13 1.46-1.14 2.56-.28 2.54 1.97 5.2 3.8 7.8 5.71.39.26.95.44.92 1.12z"/><path id="8o48c" d="M1070.37 1762.89c0 7.65.07 15.3-.01 22.94-.15 11.79-6.24 20.08-17.8 24.4a43.6 43.6 0 0 1-9.5 2.36c-1.12.15-1.67.04-1.65-1.22.07-3.12.05-6.24.01-9.37 0-.9.3-1.3 1.28-1.4 1.2-.13 2.42-.37 3.59-.7 6.47-1.77 10.68-6.62 11.31-13 .1-.97.1-1.96.1-2.93.02-15.3.04-30.61-.03-45.9-.01-1.7.46-2.24 2.25-2.16 2.76.14 5.55.16 8.3 0 1.88-.1 2.2.6 2.2 2.19-.08 8.26-.04 16.52-.04 24.79h-.01z"/></defs><g><g transform="translate(-1027 -1719)"><g><use fill="#f17221" xlink:href="#8o48a"/></g><g><use fill="#191f26" xlink:href="#8o48b"/></g><g><use fill="#191f26" xlink:href="#8o48c"/></g></g></g></svg>