<svg xmlns="http://www.w3.org/2000/svg" xmlns:xlink="http://www.w3.org/1999/xlink" width="116" height="111" viewBox="0 0 116 111"><defs><path id="ol8oa" d="M778.37 1774.27c0-30.46 25.79-55.14 57.6-55.14 31.81 0 57.6 24.68 57.6 55.13 0 30.46-25.79 55.14-57.6 55.14-31.81 0-57.6-24.68-57.6-55.13z"/><path id="ol8oc" d="M888.12 1774.73L870.08 1817l-9.54-21.58 8.7-20.34h-4.7l-7.1 16.92-7.01-16.92h-4.63l8.7 20.34-9.47 21.58-18.11-42.27-9.1-20.5 9.37-21.57 18.03 42.26h5.33l-21.11-47.69h-4.36l-10.46 23.4-10.53-23.4h-4.28l-21.06 47.7h5.27l18.11-42.27 9.47 21.57-8.7 20.36h4.63l7.02-16.93 7.1 17.07 21.05 47.71H847l10.53-23.59 10.46 23.59h4.35l21.12-47.7h-5.33z"/><path id="ol8od" d="M840.18 1795.8c-1.38.31-2.8.47-4.21.47-10.05 0-18.6-7.33-19.21-18.2.15-2.07.49-4.13 1.03-6.15l-15.6-6.27a36.95 36.95 0 0 0-2.44 13.27c0 18.64 16.69 33.75 36.16 33.75 4.49-.02 8.93-.85 13.09-2.46z"/><path id="ol8of" d="M835.97 1743.26a36.47 36.47 0 0 0-14.67 3.05l8.75 14.23c1.9-.63 3.9-.95 5.92-.95 8.9 0 18.32 7.14 19.22 15.92l-25.29.1 39.44 16.06a33.16 33.16 0 0 0 2.74-14.33c0-18.57-16.63-34.08-36.11-34.08z"/><path id="ol8oh" d="M840.18 1792.12c-1.38.3-2.8.47-4.21.46-10.05 0-18.6-7.32-19.21-18.2.15-2.07.49-4.13 1.03-6.14l-15.6-6.34a36.95 36.95 0 0 0-2.44 13.26c0 18.65 16.69 33.76 36.16 33.76 4.48 0 8.93-.8 13.09-2.4zm-18.88-49.45l8.74 14.23c1.9-.63 3.91-.95 5.93-.95 8.89 0 18.32 7.14 19.22 15.92l-25.29.1 39.44 16.08a33.16 33.16 0 0 0 2.73-14.33c0-18.71-16.63-34.1-36.1-34.1a36.47 36.47 0 0 0-14.67 3.05z"/><linearGradient id="ol8ob" x1="873.39" x2="768.6" y1="1721.54" y2="1869.17" gradientUnits="userSpaceOnUse"><stop offset="0" stop-color="#1abc9c"/><stop offset="1" stop-color="#1a5daf"/></linearGradient><linearGradient id="ol8oe" x1="2599.09" x2="2159.09" y1="1923.64" y2="4743.43" gradientUnits="userSpaceOnUse"><stop offset="0" stop-color="#1abc9c"/><stop offset="1" stop-color="#1a5daf"/></linearGradient><linearGradient id="ol8og" x1="3154.53" x2="2701.73" y1="1975.63" y2="4878.78" gradientUnits="userSpaceOnUse"><stop offset="0" stop-color="#1abc9c"/><stop offset="1" stop-color="#1a5daf"/></linearGradient></defs><g><g transform="translate(-778 -1719)"><g><g><use fill="url(#ol8ob)" xlink:href="#ol8oa"/></g><g opacity=".2"><use fill="#fff" xlink:href="#ol8oc"/></g><g><use fill="url(#ol8oe)" xlink:href="#ol8od"/></g><g><use fill="url(#ol8og)" xlink:href="#ol8of"/></g><g><use fill="#fff" xlink:href="#ol8oh"/></g></g></g></g></svg>