<?xml version="1.0" encoding="UTF-8"?>
<svg width="176px" height="52px" viewBox="0 0 176 52" version="1.1" xmlns="http://www.w3.org/2000/svg" xmlns:xlink="http://www.w3.org/1999/xlink">
    <!-- Generator: Sketch 49.3 (51167) - http://www.bohemiancoding.com/sketch -->
    <title>gifto</title>
    <desc>Created with Sketch.</desc>
    <defs></defs>
    <g id="Page-1" stroke="none" stroke-width="1" fill="none" fill-rule="evenodd">
        <g id="mainPageQuartz-Copy-2" transform="translate(-452.000000, -9533.000000)" fill-rule="nonzero">
            <g id="partners" transform="translate(0.000000, 8660.000000)">
                <g id="Group-11" transform="translate(394.000000, 835.000000)">
                    <g id="gifto" transform="translate(58.739857, 38.469945)">
                        <path d="M25.882386,51.0601093 C40.176833,51.0601093 51.764772,39.6299145 51.764772,25.5300546 C51.764772,11.4301948 40.176833,0 25.882386,0 C11.5879389,0 0,11.4301948 0,25.5300546 C0,39.6299145 11.5879389,51.0601093 25.882386,51.0601093 Z M13.6645285,33.4650716 C14.4290017,36.5459282 15.7008381,37.5533304 18.8547183,37.5671304 C20.4522271,37.5671304 22.0531641,37.5291803 23.6541011,37.5671304 C24.5454151,37.5981805 24.8436624,37.2807798 24.8368062,36.3803279 C24.8025248,32.0103185 24.8025248,27.6403092 24.8368062,23.2702998 C24.8368062,22.2594476 24.466568,22.0110471 23.5341165,22.0248471 C20.2808206,22.0765973 17.0206684,22.0558972 13.7742287,22.0627972 C12.9343367,22.1628474 13.0886026,22.8114488 13.0886026,23.36 C13.0886026,26.3132063 13.0886026,29.2664126 13.0886026,32.219619 C13.071462,32.72332 12.9480493,33.2994713 13.6679567,33.4443716 L13.6645285,33.4650716 Z M26.5165901,29.8115138 C26.5165901,31.9919185 26.5440152,34.1757732 26.5165901,36.3665278 C26.5165901,37.2152297 26.6948529,37.6292305 27.6444451,37.5981805 C29.5813389,37.5360803 31.5250889,37.6292305 33.4722671,37.5567804 C35.937093,37.4636302 37.6374458,35.7627765 37.6922959,33.2546212 C37.7642866,29.9253641 37.6922959,26.5961069 37.7300053,23.2495998 C37.7300053,22.3836479 37.510605,22.0248471 36.5781534,22.0386472 C33.6071069,22.0892473 30.6360604,22.0892473 27.6650139,22.0386472 C26.7428468,22.0386472 26.4925932,22.3836479 26.5097339,23.2564998 C26.5474433,25.4300044 26.5200183,27.6000591 26.5200183,29.7908138 L26.5165901,29.8115138 Z M18.3096455,15.9459341 C18.1965172,16.0735844 18.1622359,16.1425846 18.1279546,16.1425846 C16.9863871,16.1598346 15.8482477,16.2115847 14.699824,16.1770846 C13.2702935,16.1356845 12.3721233,16.7808359 12.1938605,18.1918889 C12.0395946,19.3924915 13.177734,20.3136435 14.7478178,20.3239935 C17.6583007,20.3481436 20.5756398,20.2929434 23.4792664,20.3515936 C24.4837087,20.3722936 24.9945002,20.1376931 24.8848,19.0302407 C24.8230936,18.3988894 24.7990967,17.7295879 25.7932546,17.7916881 C26.7359905,17.8468882 26.5165901,18.5437897 26.4788807,19.0474908 C26.4377431,20.0100428 26.7394186,20.3550436 27.7404328,20.3550436 C30.8257503,20.2998435 33.9110678,20.3377935 36.9963854,20.3308935 C38.4122033,20.3308935 39.3960768,19.640892 39.3652236,18.202239 C39.3343704,16.7635859 38.2819343,16.1701846 36.8935414,16.1839846 C35.6662707,16.1839846 34.4389999,16.1839846 33.102029,16.1839846 C33.1758856,15.968843 33.2617249,15.7580587 33.3591388,15.5526333 C34.3155872,13.9035298 34.1990308,12.7684773 32.9374787,11.7576252 C31.5662265,10.6743228 30.3800933,11.226324 29.2556665,12.2026761 C28.2477961,13.075528 27.5587418,14.2071304 26.8251219,15.3076828 C25.988658,16.5565854 25.4230165,16.5496854 24.5796964,15.2697327 C23.7363762,13.9897799 22.9101968,12.6408271 21.6075071,11.7507252 C19.9311513,10.6053227 17.9154105,11.4057244 17.4491847,13.3515286 C17.1783624,14.4175809 17.8262791,15.1800325 18.3096455,15.9459341 Z" id="Shape" fill="#8029FE"></path>
                        <path d="M161.200985,10.8882233 C165.018309,10.9485492 168.6528,12.5441519 171.293471,15.3189944 C173.934142,18.093837 175.361237,21.8169981 175.25632,25.6577049 C175.071201,33.8721725 168.629744,40.1132359 160.54964,39.9096854 C152.695793,39.713035 146.628002,33.1407709 146.837118,25.0574036 C147.032521,16.9050362 153.333425,10.6950229 161.200985,10.8882233 Z M160.933591,14.3761808 C154.88294,14.4244809 150.467508,19.0957909 150.488077,25.4162044 C150.508646,31.7366179 154.9755,36.435528 160.974728,36.456228 C166.973957,36.4769281 171.547083,31.6262177 171.495661,25.2747541 C171.444239,18.9232905 166.973957,14.3278807 160.933591,14.3761808 Z" id="Shape" fill="#7C42FB"></path>
                        <path d="M87.125939,24.4398523 C88.8400043,24.4398523 90.5540696,24.5364525 92.2681349,24.4088022 C93.6119621,24.308752 93.8930688,24.8952533 93.9547752,26.0786058 C94.3798634,34.3379235 87.72929,40.5686368 79.2138136,39.8786354 C73.4130101,39.4079129 68.4783606,35.4371854 66.7457027,29.8460139 C64.9253653,23.815401 66.7971246,17.6536878 71.5930793,13.9000798 C76.2458598,10.2866002 82.6158058,9.88764584 87.6778681,12.8926776 C88.023051,13.0940855 88.3572062,13.3140544 88.6788822,13.551629 C90.5335008,14.931632 90.4203725,16.0080343 88.3703504,17.1844868 C87.7978526,17.5294875 87.5236022,17.1844868 87.2116423,16.8739861 C84.0886153,13.6999793 78.3396403,13.8552297 75.2131852,15.6561335 C71.4312017,17.8124132 69.2980701,22.0366081 69.7967389,26.3822065 C70.4172305,31.4226673 73.1357381,34.8278245 77.5237452,36.0422271 C82.9641885,37.5567804 88.5726101,34.7795244 89.9884281,29.8667139 C90.5472134,27.9243598 90.458082,27.7967095 88.5109038,27.7967095 C86.2277688,27.7967095 83.9377776,27.7208093 81.6546426,27.8208595 C80.1531214,27.8864097 80.3725218,26.9514577 80.351953,26.0303057 C80.3313842,25.1091537 80.2971029,24.3398021 81.6443582,24.4191523 C83.4646956,24.5226525 85.2953173,24.4398523 87.125939,24.4398523 Z" id="Shape" fill="#7C42FB"></path>
                        <path d="M107.036522,25.3506543 C107.036522,21.2727455 107.077659,17.1913868 107.012525,13.1169281 C106.991956,11.8990755 107.218212,11.3919244 108.586037,11.4229744 C112.9809,11.5126746 117.375763,11.5230247 121.770627,11.4229744 C123.368136,11.3850244 123.141879,12.3199764 123.141879,13.2894284 C123.141879,14.2588805 123.275576,15.0730823 121.811764,15.0144321 C118.620175,14.9109319 115.418301,15.0144321 112.212999,14.959232 C111.078287,14.938532 110.553784,15.2076326 110.608634,16.4737853 C110.697765,18.4816896 110.680624,20.4964939 110.608634,22.5043982 C110.570924,23.6187506 110.934306,24.0189514 112.065589,23.9913514 C114.859516,23.9258012 117.663726,24.0534515 120.454225,23.9361512 C121.921465,23.8740511 121.952318,24.6054527 121.96603,25.709455 C121.979743,26.8134574 121.846046,27.5172589 120.419943,27.4551588 C117.800852,27.3378585 115.164619,27.5310589 112.535243,27.3827086 C110.879456,27.2895584 110.526358,27.9174598 110.584637,29.435463 C110.690909,32.247219 110.526358,35.0693251 110.649771,37.8776311 C110.721762,39.4680845 109.813307,39.3128341 108.822578,39.2921341 C107.831848,39.2714341 106.916537,39.5612347 106.957675,37.9121311 C107.108512,33.7410722 107.036522,29.5458632 107.036522,25.3506543 Z" id="Shape" fill="#7F46FB"></path>
                        <path d="M133.131452,27.2171083 C133.131452,23.5980505 133.100598,19.9720927 133.148592,16.359935 C133.148592,15.3249328 132.833204,14.931632 131.77734,14.9799321 C130.063275,15.0489322 128.349209,14.935082 126.635144,15.0144321 C125.023923,15.0903323 125.514145,13.9518299 125.476436,13.1410781 C125.438727,12.3303264 125.205614,11.4160744 126.638572,11.4160744 C132.176146,11.4758746 137.713719,11.4758746 143.251293,11.4160744 C144.855658,11.4160744 144.344867,12.5097268 144.403145,13.3204785 C144.461423,14.1312302 144.612261,15.0765323 143.210156,14.9971821 C141.561225,14.9040319 139.895153,15.0489322 138.246222,14.952332 C137.005239,14.8798818 136.720704,15.3766829 136.727561,16.5393354 C136.772126,23.5463004 136.758414,30.5567154 136.727561,37.5671304 C136.727561,38.1329316 137.087514,39.0333835 136.275047,39.1920839 C135.321118,39.3538987 134.345479,39.3340039 133.398846,39.1334338 C132.942904,39.0471836 133.121167,38.329582 133.121167,37.8879811 C133.124595,34.3413735 133.131452,30.7775159 133.131452,27.2171083 Z" id="Shape" fill="#8048FB"></path>
                        <path d="M98.1919446,25.3506543 C98.1919446,21.2106454 98.2742197,17.0706365 98.150807,12.9306277 C98.0993851,11.2366741 99.0352647,11.4540245 100.084273,11.4229744 C101.133281,11.3919244 101.873757,11.4229744 101.863472,12.9064776 C101.790339,21.2370955 101.790339,29.5677133 101.863472,37.8983311 C101.863472,39.5025846 100.992727,39.3024841 100.022566,39.2783341 C99.0524054,39.254184 98.1130976,39.5405346 98.1542352,37.8983311 C98.2605072,33.7410722 98.1919446,29.5424132 98.1919446,25.3506543 Z" id="Shape" fill="#824BFB"></path>
                        <path d="M26.5200183,29.7908138 C26.5200183,27.6104091 26.5508714,25.4265544 26.5200183,23.2357997 C26.5028776,22.3663979 26.7531312,22.0041471 27.6752983,22.0179471 C30.6463448,22.0616472 33.6173913,22.0616472 36.5884378,22.0179471 C37.5208893,22.0179471 37.7505741,22.3629479 37.7402897,23.2288997 C37.7025803,26.5581568 37.7779991,29.887414 37.7025803,33.2339211 C37.6477302,35.7386265 35.9473774,37.4429301 33.4825515,37.5360803 C31.5456577,37.6085305 29.6019077,37.5153803 27.6547295,37.5774804 C26.7017092,37.6085305 26.5097339,37.1910796 26.5268745,36.3458278 C26.5474433,34.1550731 26.5200183,31.9746684 26.5200183,29.7908138 Z" id="Shape" fill="#FBF9FE"></path>
                        <path d="M13.493122,29.7908138 C13.493122,27.6104091 13.5239752,25.4265544 13.493122,23.2357997 C13.4759814,22.3663979 13.7262349,22.0041471 14.648402,22.0179471 C17.6194485,22.0616472 20.5904951,22.0616472 23.5615416,22.0179471 C24.4939931,22.0179471 24.7236778,22.3629479 24.7133934,23.2288997 C24.675684,26.5581568 24.7511029,29.887414 24.675684,33.2339211 C24.6208339,35.7386265 22.9204811,37.4429301 20.4556553,37.5360803 C18.5187615,37.6085305 16.5750114,37.5153803 14.6278332,37.5774804 C13.6748129,37.6085305 13.4828376,37.1910796 13.4999783,36.3458278 C13.5205471,34.1550731 13.493122,31.9746684 13.493122,29.7908138 Z" id="Shape-Copy" fill="#FBF9FE" transform="translate(19.103015, 29.798331) scale(-1, 1) translate(-19.103015, -29.798331) "></path>
                        <path d="M18.3096455,15.9459341 C17.8091384,15.1903825 17.1783624,14.4175809 17.4320441,13.3549786 C17.8982698,11.4126244 19.9140106,10.5949727 21.5903665,11.7541752 C22.8964842,12.6442771 23.7123793,13.9794299 24.5625557,15.2731827 C25.4127321,16.5669355 25.9715174,16.5600354 26.8079812,15.3111328 C27.5416012,14.2174804 28.2306554,13.085878 29.2385258,12.2061261 C30.3629527,11.233224 31.552514,10.6777729 32.9203381,11.7610752 C34.1818901,12.7615773 34.2915903,13.9000798 33.3419982,15.5560833 C33.2445842,15.7615087 33.158745,15.972293 33.0848884,16.1874346 C34.4218593,16.1874346 35.64913,16.1874346 36.8764008,16.1874346 C38.2647937,16.1874346 39.3206579,16.7532359 39.348083,18.205689 C39.375508,19.6581421 38.3916345,20.3308935 36.9792447,20.3343435 C33.8939272,20.3343435 30.8086096,20.2998435 27.7232921,20.3584936 C26.7188498,20.3757436 26.4206025,20.0134928 26.4788807,19.0543908 C26.5097339,18.5506897 26.7291342,17.8572382 25.7932546,17.7985881 C24.7956686,17.739938 24.8230936,18.4057894 24.8848,19.0371407 C24.9945002,20.1445931 24.4837087,20.3791936 23.4792664,20.3584936 C20.5687836,20.2998435 17.6514444,20.3584936 14.7478178,20.3308935 C13.177734,20.3308935 12.0395946,19.3993915 12.1938605,18.198789 C12.3755514,16.7877359 13.2702935,16.1287845 14.699824,16.1839846 C15.8379633,16.2184847 16.9795308,16.1839846 18.1279546,16.1494846 C18.1690921,16.1425846 18.1965172,16.0735844 18.3096455,15.9459341 Z M28.5323309,15.890734 C30.0612772,16.2909349 30.949163,15.4560331 31.8336207,14.6590814 C32.234712,14.3140806 32.4883936,13.8483296 32.0290241,13.3239285 C31.5696546,12.7995274 31.1171414,12.9202777 30.6577719,13.2618284 C29.7741191,13.9786103 29.0499931,14.874264 28.5323309,15.890734 Z M22.838206,15.8424339 C22.1697205,14.7108315 21.5458008,13.8310796 20.6407743,13.2031783 C20.4686418,13.0475509 20.2414802,12.9682532 20.010562,12.9831834 C19.7796438,12.9981136 19.5644326,13.1060132 19.4135036,13.2825284 C19.2394598,13.4389761 19.1428437,13.6647146 19.1494518,13.8994714 C19.15606,14.1342281 19.2652196,14.3541 19.4477849,14.500381 C20.3322426,15.3559829 21.209844,16.2805848 22.8416341,15.8424339 L22.838206,15.8424339 Z" id="Shape" fill="#FAF7FE"></path>
                        <path d="M28.5323309,15.890734 C29.0529912,14.8732801 29.7806832,13.9775499 30.6680563,13.2618284 C31.1137133,12.9168276 31.5936516,12.8340275 32.0393085,13.3239285 C32.4849655,13.8138296 32.2484245,14.2968306 31.8439051,14.6590814 C30.9525911,15.4560331 30.0647053,16.2909349 28.5323309,15.890734 Z" id="Shape" fill="#8430FE"></path>
                        <path d="M22.8416341,15.8424339 C21.209844,16.2805848 20.3322426,15.3559829 19.451213,14.496931 C19.2686477,14.35065 19.1594881,14.1307781 19.15288,13.8960213 C19.1462718,13.6612646 19.2428879,13.4355261 19.4169317,13.2790784 C19.5678608,13.1025632 19.7830719,12.9946636 20.0139901,12.9797334 C20.2449084,12.9648032 20.4720699,13.0441008 20.6442024,13.1997283 C21.5492289,13.8345296 22.1731487,14.7142815 22.8416341,15.8424339 Z" id="Shape" fill="#812BFE"></path>
                    </g>
                </g>
            </g>
        </g>
    </g>
</svg>