<?xml version="1.0" encoding="UTF-8"?>
<svg width="206px" height="50px" viewBox="0 0 206 50" version="1.1" xmlns="http://www.w3.org/2000/svg" xmlns:xlink="http://www.w3.org/1999/xlink">
    <!-- Generator: Sketch 49.3 (51167) - http://www.bohemiancoding.com/sketch -->
    <title>loopring</title>
    <desc>Created with Sketch.</desc>
    <defs></defs>
    <g id="Page-1" stroke="none" stroke-width="1" fill="none" fill-rule="evenodd">
        <g id="mainPageQuartz-Copy-2" transform="translate(-1260.000000, -9533.000000)" fill="#FFFFFF" fill-rule="nonzero">
            <g id="partners" transform="translate(0.000000, 8660.000000)">
                <g id="Group-8" transform="translate(1216.000000, 834.000000)">
                    <g id="loopring" transform="translate(44.054893, 39.169399)">
                        <path d="M205.411321,37.9804736 C204.688332,38.156357 204.815112,38.8667881 204.578684,39.3599514 C202.718099,43.1535155 199.473211,44.3640073 195.539599,44.2915847 C191.448368,44.2157134 188.200054,42.2223679 187.004208,39.0840559 C186.188703,36.9458652 186.31891,36.7596357 188.552982,36.7596357 C189.238281,36.7596357 189.923579,36.8113661 190.608877,36.7596357 C191.612839,36.6630723 192.243314,36.9286217 192.781273,37.9252945 C193.538528,39.3358106 195.748615,39.7979356 197.372772,39.1288889 C198.853016,38.5184699 199.685654,36.8217122 199.428667,35.1490953 C199.288181,34.248986 198.822178,34.5248816 198.345895,34.7249059 C196.971157,35.3052422 195.474086,35.5304873 193.990825,35.3801579 C189.070383,34.8904432 185.493125,30.6106132 186.058496,25.927286 C186.688971,20.6921676 191.119425,17.1055252 196.214618,18.191864 C198.479529,18.6746812 200.648498,18.5367335 202.865438,18.6022587 C203.718634,18.6263995 204.578684,18.6677838 205.421601,18.7022708 L205.411321,37.9804736 Z M199.445799,26.7239344 C199.445799,23.8615179 198.441837,22.7234487 195.902807,22.7096539 C193.504263,22.7096539 191.753326,24.4340012 191.756752,26.7929083 C191.756752,28.9552398 193.62419,30.7278689 195.895954,30.7278689 C198.424705,30.7313175 199.442373,29.5829022 199.442373,26.7239344 L199.445799,26.7239344 Z" id="Shape"></path>
                        <path d="M45.6648542,30.8934062 C45.6305893,31.4314026 45.2296897,31.607286 44.9281585,31.8521433 C37.9426842,37.5999676 30.9617785,43.3477919 23.9854415,49.0956163 C23.2521723,49.7060352 22.8033019,49.6336126 22.1111506,49.0680267 C15.0639994,43.3202024 7.99628934,37.588472 0.908020286,31.8728355 C0.126780191,31.245173 0.161045107,30.8382271 0.719563246,30.0898604 C7.8489502,20.3921311 14.9509252,10.6725602 22.0254883,0.931147541 C22.8855377,-0.2552034 23.2487458,-0.282792957 24.1087952,0.931147541 C31.0759949,10.6771585 38.0774595,20.3990285 45.113189,30.0967577 C45.315352,30.3657559 45.5003826,30.6519976 45.6648542,30.8934062 Z M19.5070169,16.2088646 C16.1524816,20.7990771 13.0754921,25.0271767 9.97451718,29.2380328 C9.436558,29.969156 9.99164964,30.2450516 10.4268141,30.5968185 C13.1680074,32.8315726 15.9092007,35.062878 18.650394,37.2907347 C18.9039544,37.4976563 19.1403823,37.8149362 19.500164,37.5390407 L19.5070169,16.2088646 Z M26.9699158,16.8261809 L26.6272666,16.995167 L26.6272666,37.8666667 C29.8378893,35.2422101 32.8223635,32.7936369 35.8205437,30.3588585 C36.303679,29.9657073 36.2077372,29.6449787 35.8890735,29.2035458 C32.9103101,25.0881036 29.9372575,20.9646145 26.9699158,16.8330783 L26.9699158,16.8261809 Z" id="Shape"></path>
                        <path d="M79.3164286,27.8826958 C79.2753107,20.4783485 85.8267628,16.1571342 91.9019325,18.8678081 C93.6876113,19.642856 95.3143476,20.7456792 96.6990208,22.1199271 C97.4528489,22.8751913 97.9325578,23.013139 98.7549158,22.1647602 C100.173097,20.7384405 101.856774,19.6075443 103.709623,18.8367699 C107.214975,17.2811178 111.31642,18.1640056 113.882876,21.026691 C116.391826,23.8547197 116.889236,27.9546843 115.130119,31.3072495 C113.375756,34.5214329 109.270819,36.5147784 105.673002,35.8422829 C103.319003,35.4042987 101.643448,33.7730662 99.878805,32.3177171 C97.6789974,30.5106011 97.6995563,30.5037037 95.592264,32.2797814 C94.763053,32.9695203 93.8790181,33.6247723 93.0258217,34.2869217 C90.1338628,36.5044323 87.0774322,36.3561384 84.0072957,34.7869824 C80.9371592,33.2178264 79.3952379,30.6278567 79.3164286,27.8826958 Z M111.131404,27.0722526 C111.152475,25.7589738 110.510784,24.5244461 109.426884,23.792984 C108.342984,23.0615218 106.96461,22.9328235 105.765518,23.4511233 C104.817271,23.8434156 103.929895,24.370697 103.130546,25.0168306 C100.982135,26.6894475 100.978709,26.6963449 103.003765,28.3827565 C103.791858,29.0380085 104.621069,29.6449787 105.40231,30.2898846 C106.676964,31.324493 107.965325,30.9796236 109.233127,30.3105768 C110.500929,29.6415301 111.117698,28.5103582 111.131404,27.0722526 Z M84.3705038,27.3826351 C84.31568,28.568986 84.9906988,29.6277353 86.2619272,30.2898846 C87.5331556,30.952034 88.8352224,31.2313783 90.0927449,30.2036673 C91.2406196,29.2656223 92.3816413,28.32068 93.5500749,27.4136733 C94.1599905,26.9412022 94.1531375,26.5514997 93.5911928,26.0341955 C92.3953473,24.9651002 91.1652368,23.9649787 89.6507274,23.3718033 C86.9609315,22.3613358 84.3430919,24.1960413 84.3705038,27.3860838 L84.3705038,27.3826351 Z" id="Shape"></path>
                        <path d="M123.641525,39.6599879 C123.641525,44.3157256 123.641525,44.2846873 119.019187,44.1019065 C118.018652,44.0605222 117.775371,43.6984092 117.778797,42.7672617 C117.803925,35.134151 117.803925,27.5010403 117.778797,19.8679296 C117.778797,18.7781421 118.159138,18.3815422 119.169953,18.5505282 C120.739286,18.812629 122.442253,17.943558 123.91907,19.1437037 C124.05613,19.2540619 124.518706,18.9747177 124.823664,18.8574621 C128.767556,17.367626 132.73886,18.3987857 135.144257,21.5370978 C137.584271,24.8038914 137.67807,29.2743352 135.377258,32.6418944 C133.006126,35.9836794 129.099926,37.207966 125.053239,35.7043352 C123.771731,35.2284153 123.579848,35.604323 123.641525,36.7389435 C123.696348,37.7080267 123.641525,38.687456 123.641525,39.6599879 Z M123.610686,27.1757134 C123.610686,30.0967577 123.610686,30.0967577 124.532412,30.7589071 C126.098319,31.8900789 128.520849,31.7935155 129.932563,30.534742 C131.344278,29.2759684 131.734898,26.9791378 130.833731,25.1685732 C129.932563,23.3580085 128.024007,22.5544627 125.909862,23.0993564 C123.977321,23.6063145 123.610686,24.2546691 123.610686,27.1757134 Z" id="Shape"></path>
                        <path d="M183.032904,30.1036551 C183.032904,31.6555677 182.995213,33.2074803 183.032904,34.7559441 C183.063743,35.6284639 182.796476,35.9388464 181.888456,35.9905768 C177.115353,36.259575 177.11878,36.2871645 177.115353,31.527966 C177.115353,29.8036187 177.166751,28.0792714 177.053676,26.3549241 C176.916617,24.3167456 175.707065,23.2683424 173.829348,23.3614572 C171.95163,23.4545719 170.766064,24.6892046 170.762638,26.6584092 C170.762638,29.3001093 170.72152,31.9418094 170.783197,34.5904068 C170.807182,35.6250152 170.557048,36.0733455 169.460571,35.9698846 C168.379486,35.8838724 167.293342,35.8838724 166.212257,35.9698846 C165.095221,36.0595507 164.903337,35.5560413 164.91019,34.5628172 C164.951308,29.6817648 164.951308,24.8007124 164.91019,19.91966 C164.91019,18.9091925 165.139765,18.2918761 166.222536,18.5401821 C167.778163,18.9057438 169.611337,17.5952398 170.964801,19.3264845 C171.023051,19.4023558 171.557584,19.1264602 171.855689,18.9816151 C177.338075,16.2847359 182.58746,19.298895 182.981507,25.430674 C183.080875,26.9756891 182.981507,28.5344991 182.981507,30.0795143 L183.032904,30.1036551 Z" id="Shape"></path>
                        <path d="M60.1280754,23.6442502 C60.1280754,20.1403764 60.1931788,16.6365027 60.0938105,13.1395264 C60.0561191,11.8048816 60.4981365,11.5117426 61.741953,11.51864 C66.2477895,11.5427808 66.2477895,11.4979478 66.2477895,16.1019551 C66.2477895,20.4645537 66.2854809,24.8306011 66.2203776,29.2069945 C66.2032451,30.3623072 66.5630267,30.6657923 67.6697835,30.6416515 C70.753626,30.5692289 73.8374685,30.6416515 76.921311,30.5968185 C77.9218465,30.5968185 78.2919076,30.8347784 78.3193196,31.9314633 C78.3775699,35.9836794 78.4221143,35.9836794 74.3480158,35.9836794 C70.2739172,35.9836794 66.244363,35.9043594 62.1976764,36.0216151 C60.6043578,36.0664481 60.0184277,35.7319247 60.0938105,33.9937826 C60.2342967,30.5381906 60.1280754,27.0894961 60.1280754,23.6442502 Z" id="Shape"></path>
                        <path d="M145.968544,20.292119 C147.726334,19.2299211 149.179167,18.4608622 150.882133,18.3332605 C151.697638,18.271184 152.074552,18.5298361 152.006022,19.3678689 C151.982037,19.6541105 152.006022,19.9403522 152.006022,20.2300425 C151.982037,21.31983 152.276715,22.5682574 151.844977,23.4511233 C151.413239,24.3339891 149.984392,23.9270431 149.028401,24.2477717 C146.50993,25.0823558 146.026795,25.689326 146.030221,28.4206922 C146.030221,30.545088 145.999383,32.6729326 146.030221,34.7973285 C146.05078,35.6974378 145.725263,35.9491925 144.844655,35.9905768 C140.167494,36.2009472 140.167494,36.2285367 140.167494,31.6141834 C140.167494,27.7068124 140.198332,23.8028901 140.143508,19.8886217 C140.143508,18.8333212 140.44504,18.4436187 141.514105,18.5091439 C142.540481,18.59004 143.571571,18.59004 144.597947,18.5091439 C145.673866,18.44017 146.24609,18.7781421 145.968544,20.292119 Z" id="Shape"></path>
                        <path d="M155.035041,27.2102004 C155.035041,24.7961141 155.089865,22.3820279 155.011056,19.9679417 C154.973364,18.8160777 155.353705,18.5298361 156.477594,18.5229387 C160.863503,18.4953491 160.863503,18.4574135 160.863503,22.8510504 C160.863503,26.6928962 160.801826,30.5381906 160.897768,34.3800364 C160.928607,35.7146812 160.500295,35.9974742 159.253052,35.9836794 C155.035041,35.9388464 155.035041,35.9836794 155.035041,31.6693625 C155.035041,30.1887229 155.035041,28.7023356 155.035041,27.2102004 Z" id="Shape"></path>
                        <path d="M161.308947,12.5808379 C161.286569,13.4776233 160.909802,14.328404 160.262123,14.9446752 C159.614445,15.5609464 158.749334,15.8918235 157.85847,15.8639951 C156.082161,15.7625283 154.713465,14.2485197 154.780364,12.4590895 C154.847263,10.6696592 156.325132,9.26345455 158.103995,9.2966277 C159.882857,9.32980085 161.307956,10.7901416 161.308947,12.5808379 Z" id="Shape"></path>
                    </g>
                </g>
            </g>
        </g>
    </g>
</svg>