<?xml version="1.0" encoding="UTF-8"?>
<svg width="178px" height="71px" viewBox="0 0 178 71" version="1.1" xmlns="http://www.w3.org/2000/svg" xmlns:xlink="http://www.w3.org/1999/xlink">
    <!-- Generator: Sketch 49.3 (51167) - http://www.bohemiancoding.com/sketch -->
    <title>sullivan</title>
    <desc>Created with Sketch.</desc>
    <defs>
        <filter x="-6.0%" y="-9.7%" width="111.9%" height="127.1%" filterUnits="objectBoundingBox" id="filter-1">
            <feOffset dx="0" dy="5" in="SourceAlpha" result="shadowOffsetOuter1"></feOffset>
            <feGaussianBlur stdDeviation="5" in="shadowOffsetOuter1" result="shadowBlurOuter1"></feGaussianBlur>
            <feColorMatrix values="0 0 0 0 0   0 0 0 0 0   0 0 0 0 0  0 0 0 0.5 0" type="matrix" in="shadowBlurOuter1" result="shadowMatrixOuter1"></feColorMatrix>
            <feMerge>
                <feMergeNode in="shadowMatrixOuter1"></feMergeNode>
                <feMergeNode in="SourceGraphic"></feMergeNode>
            </feMerge>
        </filter>
    </defs>
    <g id="Page-1" stroke="none" stroke-width="1" fill="none" fill-rule="evenodd">
        <g id="mainPageQuartz-Copy-2" transform="translate(-249.000000, -9112.000000)">
            <g id="partners" transform="translate(0.000000, 8660.000000)">
                <g id="Group-9" filter="url(#filter-1)" transform="translate(191.000000, 418.000000)">
                    <g id="sullivan" transform="translate(67.200000, 38.500000)">
                        <path d="M6.62676,51.23734 C6.50671,49.37142 5.37138,47.83135 4.95978,46.04775 C4.48644,43.98975 3.27908,42.18214 3.01497,40.05554 C2.67197,37.387 1.10789,35.11291 0.61397,32.50954 C0.61397,32.45466 0.3087,32.45123 0.14749,32.42722 L0.14749,31.00034 C0.489733008,31.0325672 0.834246992,31.0325672 1.17649,31.00034 C2.49018,30.75338 2.80917,31.43595 3.14188,32.59872 C4.23948,36.42317 5.51544,40.19617 6.7571,43.97603 C6.87029,44.31903 7.23044,44.57628 7.57001,45.00503 C8.66075,42.41195 9.31931,39.96979 10.05333,37.54478 C10.78735,35.11977 11.76833,32.81138 12.71501,30.21144 C15.02683,35.05803 15.55505,40.23733 17.7674,45.25199 C19.33834,41.47899 20.11695,38.0044 21.5404,34.77334 C21.91084,33.93642 22.05147,32.94515 22.26413,32.02934 C22.60713,30.53043 23.66357,30.88715 24.34957,31.13068 C25.27224,31.47368 24.43532,32.06021 24.26382,32.59186 C23.37545,35.33586 22.61742,38.12102 21.70847,40.85816 C20.69662,43.90057 19.78767,46.98757 18.43625,49.90993 C18.25446,50.30095 18.30248,50.7983 18.2476,51.2442 C17.47242,51.44657 17.10198,51.31623 16.83787,50.37641 C15.73684,46.43191 14.81074,42.43253 13.22608,38.63209 C13.034,38.1759 13.06144,37.6271 12.96883,36.98912 C11.59683,37.9015 11.64828,39.44157 11.19552,40.62149 C9.95043,43.87313 8.97288,47.2311 7.99876,50.56849 C7.74837,51.48087 7.25788,51.35053 6.62676,51.23734 Z" id="Shape" fill="#918270" fill-rule="nonzero"></path>
                        <path d="M37.19835,51.30594 L32.64674,51.30594 C29.27848,50.78801 26.07143,47.10762 25.42316,43.95545 C25.04243,42.11011 24.88808,40.42598 25.38543,38.54291 C26.27037,35.19523 28.10885,32.60901 31.12725,31.12382 C34.37203,29.52544 37.77802,29.85472 40.57004,32.19055 C43.63303,34.75276 45.60185,38.08329 44.95358,42.28161 C44.36019,46.11978 42.49427,49.24451 38.86876,51.03154 C38.3817,51.26135 37.75744,51.22019 37.19835,51.30594 Z M34.90368,49.22736 C38.50861,49.3577 40.42255,47.9857 41.32807,45.45436 C42.17185,43.09452 42.51142,40.75869 41.79455,38.07986 C40.86845,34.61213 38.47088,33.15781 35.57939,32.71534 C33.52139,32.40321 31.08266,33.08578 29.71409,35.11634 C27.99909,37.67512 27.01125,40.34023 28.13286,43.58844 C29.31964,47.05617 30.81512,49.44345 34.90368,49.23079 L34.90368,49.22736 Z" id="Shape" fill="#918371" fill-rule="nonzero"></path>
                        <path d="M111.43041,9.07921 C111.43041,13.4799 111.4064,17.47242 111.43041,21.46494 C111.43041,22.52138 111.32751,23.14907 110.00353,23.17994 C108.58351,23.22796 108.77559,22.39447 108.77559,21.5404 C108.77559,15.8237333 108.77559,10.1162133 108.77559,4.41784 C108.77559,3.9102 108.83733,3.38884 108.9025,2.4353 L122.16974,17.84972 C122.73569,17.31464 122.51274,16.65608 122.51274,16.07298 C122.53675,12.24853 122.54361,8.42408 122.51274,4.59963 C122.51274,3.72841 122.61907,3.22763 123.69266,3.22763 C124.76625,3.22763 124.86572,3.75928 124.86229,4.59963 C124.84171,10.59184 124.86229,16.58748 124.84514,22.57969 C124.84514,22.90211 124.84514,23.3926 124.67707,23.50922 C124.17286,23.83164 124.0631,23.2211 123.80585,22.97414 C120.44102,19.74651 117.72446,15.95293 114.6306,12.48863 C113.70107,11.46306 112.70294,10.43749 111.43041,9.07921 Z" id="Shape" fill="#8F7F6D" fill-rule="nonzero"></path>
                        <path d="M159.5636,50.54105 L159.5636,51.26478 C157.54676,51.53575 156.1336,50.7297 154.8645,49.12446 C153.33815,47.17965 151.34875,45.59499 150.14825,43.3895 C149.53085,42.2576 148.57045,42.72408 147.74725,42.74466 C146.87603,42.76867 147.20531,43.60216 147.19502,44.09608 C147.15729,46.03746 147.12985,47.97884 147.19502,49.92708 C147.23275,51.05898 146.67709,51.2099 145.73384,51.2442 C144.73914,51.2785 144.46131,50.9012 144.46817,49.96138 C144.49561,44.0160467 144.49561,38.07986 144.46817,32.15282 C144.46817,31.44624 144.51276,30.91459 145.44572,30.98319 C148.24803,31.18556 151.04005,30.78768 153.8698,31.61774 C156.69955,32.4478 158.07155,36.41974 157.2998,38.55663 C156.64467,40.40197 155.64311,41.93861 153.55424,42.36736 C153.0123,42.48055 152.79621,42.84756 153.09805,43.19399 C155.26924,45.64644 156.88477,48.56194 159.5636,50.54105 Z M147.19845,37.044 C147.19845,38.01126 147.19845,38.97852 147.19845,39.94578 C147.19845,40.48429 147.19845,40.97478 147.96334,40.97478 C149.7538,40.9542 151.60257,41.2286 153.22496,40.19617 C154.20937,39.57191 155.04972,38.84818 155.16291,37.49333 C155.28639,36.00814 154.88851,34.82822 153.64685,34.04618 C153.10148,33.70318 152.37775,33.65516 151.76035,33.4082 C150.3369,32.84225 148.75224,32.74621 147.49,33.30873 C146.72168,33.65173 147.30478,35.1918 147.20188,36.1865 C147.185471,36.4720684 147.184326,36.7583095 147.19845,37.044 Z" id="Shape" fill="#918371" fill-rule="nonzero"></path>
                        <path d="M62.27165,51.00067 C59.73688,52.09827 58.70102,49.97167 57.35303,48.64769 C55.8843116,47.1633665 54.5939007,45.5126534 53.508,43.72907 C53.23017,43.2866 52.86659,42.72408 52.11199,42.70007 C50.85318,42.64176 49.90993,42.62804 50.08829,44.41507 C50.27351,46.28099 50.08829,48.18807 50.13974,50.06085 C50.16032,50.97323 49.74186,51.20304 48.90494,51.2442 C47.93425,51.29222 47.76618,50.8326 47.76618,50.01626 C47.76618,44.02405 47.76618,38.03184 47.76618,32.03963 C47.76618,31.51484 47.72845,30.94203 48.51049,31.01063 C51.1413,31.22329 53.79612,30.57502 56.39949,31.60745 C59.00286,32.63988 60.66641,34.26227 60.77617,36.4609 C60.9660188,39.0521834 59.3702374,41.4409084 56.9037,42.2576 C55.61059,42.70007 55.92272,42.96075 56.49896,43.79767 C58.1728,46.22611 60.53264,48.08174 62.07957,50.60622 C62.18247,50.72284 62.3917,50.78801 62.27165,51.00067 Z M52.66765,40.98507 C53.78926,41.32807 54.98633,40.64207 56.15939,40.17216 C58.01502,39.44843 58.75933,36.17964 57.45593,34.89682 C56.23828,33.69632 52.02281,32.49582 50.56849,33.10293 C49.97167,33.35675 50.15003,33.84724 50.14317,34.26227 C50.1180167,35.7463167 50.1180167,37.23265 50.14317,38.72127 C50.16375,41.23889 49.75215,40.96106 52.66422,40.98507 L52.66765,40.98507 Z" id="Shape" fill="#918371" fill-rule="nonzero"></path>
                        <path d="M32.71877,10.84223 C32.71877,12.72873 32.78737,14.61523 32.71877,16.50173 C32.45466,22.69631 27.38169,25.07673 21.69818,23.30342 C17.94919,22.1235 16.98879,19.3452 16.91676,15.95293 C16.83787,12.23824 16.91676,8.52355 16.89275,4.80886 C16.89275,3.99595 16.74869,3.20705 18.04523,3.26193 C19.23544,3.30995 19.60245,3.77986 19.59559,4.9392 C19.56472,8.93858 19.69849,12.94139 19.62646,16.9442 C19.57844,19.53385 22.67573,22.6037 26.02341,21.58499 C28.90461,20.71034 30.54758,18.58374 30.58874,15.23949 C30.6299,11.75461 30.58874,8.2663 30.58874,4.77799 C30.58874,4.06798 30.37265,3.28937 31.61774,3.26193 C32.93829,3.23449 32.74278,4.05769 32.74278,4.84316 C32.74278,6.84399333 32.74278,8.84482667 32.74278,10.84566 L32.71877,10.84223 Z" id="Shape" fill="#918270" fill-rule="nonzero"></path>
                        <path d="M106.30256,22.9467 C103.55856,23.33429 103.15725,23.06332 102.36149,20.59029 C101.61375,18.27161 101.33249,18.05552 98.91091,18.05209 L95.65584,18.05209 C92.0612,18.05209 92.03376,18.05209 90.69263,21.48209 C90.5025313,21.8825356 90.2727124,22.262886 90.00663,22.61742 C89.38237,23.60869 88.26419,23.30342 87.57476,23.00501 C86.73784,22.64486 87.74969,22.09263 87.91776,21.69475 C89.28976,18.56659 90.77838,15.49331 92.1984,12.38573 C93.41262,9.72748 94.61655,7.06237 95.74845,4.36982 C95.99198,3.79358 96.27667,3.25164 96.8289,3.24821 C97.38113,3.24478 97.67954,3.78329 97.88877,4.38354 C99.73068,9.64516 102.41637,14.52262 104.83795,19.52013 C105.36274,20.58 105.18095,21.8834 106.30256,22.9467 Z M96.77402,8.01591 C95.20994,10.16652 94.57539,12.88651 93.1931,15.23606 C92.8501,15.8123 93.03189,16.32337 93.8791,16.31308 C95.697,16.2879267 97.5149,16.2879267 99.3328,16.31308 C100.12856,16.31308 100.49214,15.90148 100.08054,15.28408 C98.58163,13.034 98.70854,10.0499 96.77402,8.01591 Z" id="Shape" fill="#918270" fill-rule="nonzero"></path>
                        <path d="M82.76933,40.89932 C82.76933,37.98382 82.8002,35.06832 82.75218,32.15282 C82.75218,31.26102 83.01629,30.95575 83.91838,30.96947 C86.83388,31.01406 89.74938,31.00377 92.66488,30.96947 C93.4332,30.96947 93.80021,31.14783 93.79335,31.99847 C93.78649,32.84911 93.53267,33.10293 92.70947,33.08578 C90.70978,33.04119 88.70666,33.11665 86.7104,33.05491 C85.73285,33.02404 85.39671,33.34989 85.4413,34.32058 C85.50647,35.69258 85.50647,37.06458 85.4413,38.43658 C85.39671,39.36611 85.7843,39.61307 86.6418,39.58563 C88.3568,39.53418 90.0718,39.58563 91.7868,39.56162 C92.50367,39.56162 92.8158,39.78114 92.8158,40.53917 C92.8158,41.2972 92.67517,41.71909 91.7868,41.69165 C90.13011,41.64363 88.46999,41.73967 86.81673,41.65735 C85.73628,41.60247 85.35555,42.02436 85.46874,43.02935 C85.46874,43.08423 85.46874,43.14254 85.46874,43.20085 C85.54763,45.01875 84.73129,47.35458 85.76715,48.51392 C86.80301,49.67326 89.21773,48.77117 91.01848,48.90151 C91.5894476,48.9414908 92.1625124,48.9414908 92.73348,48.90151 C93.53953,48.84663 93.85852,49.16905 93.8448,49.99225 C93.83108,50.81545 93.60127,51.22705 92.66488,51.21333 C89.80769,51.16531 86.94707,51.14816 84.08988,51.21333 C82.97513,51.24077 82.75218,50.77086 82.7659,49.79674 C82.79334,46.84351 82.76933,43.8697 82.76933,40.89932 Z" id="Shape" fill="#918270" fill-rule="nonzero"></path>
                        <path d="M75.60406,51.29222 L70.38703,51.29222 C67.25201,50.53419 65.24203,48.47962 63.89404,45.66016 C62.72784,43.22829 63.20804,40.66608 63.23548,38.13817 C63.23548,36.81419 64.16501,35.86065 64.78927,34.87967 C68.03062,29.79984 73.76215,29.02123 78.50927,31.79267 C79.50054,32.36891 79.16783,33.50767 78.85227,34.2314 C78.53671,34.95513 77.98448,34.1628 77.51114,33.93642 C73.32311,31.92301 71.90995,31.99161 67.93115,34.62242 C66.94331,35.27412 66.66205,36.44375 66.29504,37.48647 C65.38952,40.0624 65.6845,45.19025 67.83168,47.56038 C69.80393,49.73843 75.4943,49.7007 77.99477,48.1229 C78.44753,47.83478 78.88314,47.15564 79.4045,47.72845 C79.87098,48.23952 79.54856,48.88779 79.13353,49.41601 C78.2880398,50.5274829 76.9983204,51.2130772 75.60406,51.29222 Z" id="Shape" fill="#918270" fill-rule="nonzero"></path>
                        <path d="M6.77082,23.84193 C5.33022,24.18493 3.86218,23.27255 2.28781,22.88839 C1.55379,22.7066 1.43374,22.20239 1.50234,21.61243 C1.56065,21.08764 1.15934,20.39478 1.81104,20.07922 C2.33583,19.8254 2.6754,20.42222 3.10415,20.61773 C4.84659,21.35175 6.51014,22.39447 8.6093,21.58156 C9.9813,21.04648 10.8731,20.33647 11.14407,18.83756 C11.48707,16.9099 10.45807,15.72998 8.98317,14.91021 C7.28875,13.97039 5.49143,13.23637 3.85875,12.16621 C1.34799,10.50266 0.85407,5.30621 3.38198,3.74213 C4.93234,2.79202 6.97319,2.13003 8.89742,2.73371 C9.74463,3.00125 10.61242,3.24478 11.47335,3.47459 C12.13191,3.65295 12.50235,3.93421 12.40631,4.6305 C12.33771,5.16558 12.69443,5.84472 12.11819,6.19801 C11.54195,6.5513 11.22639,5.92704 10.80793,5.68008 C9.49767,4.90147 8.06393,4.77113 6.57188,4.84316 C5.19988,4.91176 4.2875,5.66636 3.95136,6.82227 C3.57063,8.12224 3.88962,9.28158 5.29935,10.09106 C7.62146,11.42876 10.2557,12.27254 12.15935,14.25851 C14.28252,16.45371 14.39228,19.35892 12.84535,21.80451 C12.13534,22.981 9.48395,23.86594 6.77082,23.84193 Z" id="Shape" fill="#958675" fill-rule="nonzero"></path>
                        <path d="M130.41203,41.02966 C130.41203,38.11759 130.45662,35.19866 130.38802,32.29688 C130.36058,31.21986 130.73102,30.92488 131.76002,30.95918 C134.55547,31.02435 137.35092,30.99005 140.1498,30.95918 C140.88725,30.95918 141.45663,30.95918 141.45663,31.98818 C141.45663,33.01718 140.97986,33.08235 140.19439,33.07206 C138.13639,33.04462 136.07839,33.10293 134.02039,33.04462 C133.07714,33.01718 132.6724,33.29501 132.71699,34.28971 C132.77873,35.66171 132.77187,37.03371 132.71699,38.40571 C132.67926,39.3078 133.02226,39.60278 133.90377,39.57534 C135.49872,39.52046 137.10053,39.57534 138.70577,39.55476 C139.50496,39.55476 140.13265,39.51017 140.10178,40.66608 C140.07434,41.72938 139.48781,41.69508 138.77094,41.69508 C137.23087,41.69508 135.68394,41.7431 134.1473,41.67107 C133.1183,41.62305 132.68269,41.92832 132.72385,42.99848 C132.78216,44.53855 132.79931,46.08548 132.72385,47.61869 C132.66554,48.73344 133.16632,48.95982 134.14387,48.93238 C136.14013,48.8775 138.13982,48.93238 140.13608,48.90494 C141.01416,48.88779 141.52523,49.03185 141.48064,50.09858 C141.44291,51.02125 141.06904,51.23734 140.22183,51.22362 C137.36807,51.18246 134.51431,51.16874 131.64683,51.22362 C130.61783,51.2442 130.38116,50.83946 130.39145,49.92365 C130.43604,46.96699 130.41203,43.99661 130.41203,41.02966 Z" id="Shape" fill="#928472" fill-rule="nonzero"></path>
                        <path d="M105.4382,51.28536 L100.8763,51.33681 C97.97109,51.10357 97.05185,50.16032 97.3777,47.5055 C99.17502,49.2205 101.34621,49.2891 103.5517,49.24451 C105.75719,49.19992 106.61812,48.62711 106.85136,47.11448 C107.22866,44.6929 106.35401,43.02935 104.35432,42.40509 C102.859852,41.9596753 101.451843,41.2637894 100.1903,40.34709 C97.16847,38.09358 96.78774,34.98257 98.77371,31.98475 C99.78213,30.46183 103.94958,29.88559 106.00415,30.64362 C107.80147,31.30904 108.58008,32.27973 107.95239,34.27942 C106.99542,33.78207 106.04188,33.29158 105.0952,32.7908 C103.75064,32.07736 101.27761,32.39635 100.37895,33.40477 C98.94864,35.01001 99.44599,37.06115 101.58974,38.22392 C103.90842,39.48273 106.2957,40.57347 108.29196,42.40852 C110.14416,44.12352 109.8972,46.28099 109.34154,48.06459 C108.771703,49.8019708 107.252174,51.0557828 105.4382,51.28536 Z" id="Shape" fill="#918371" fill-rule="nonzero"></path>
                        <path d="M81.82265,18.22702 C83.23924,15.04398 84.56665,12.13191 85.82889,9.1924 C86.383254,7.92490139 86.8351732,6.61502382 87.18031,5.27534 C87.3538826,4.74715529 87.6072001,4.24861722 87.93148,3.79701 C88.48028,2.86405 89.56073,3.13845 90.22958,3.3957 C91.21056,3.773 90.1404,4.32523 89.97576,4.68881 C87.7394,9.66231 86.03469,14.85533 83.63369,19.76023 C83.16035,20.72749 82.94769,21.87654 82.33372,22.78206 C82.10048,23.12506 82.25826,23.93454 81.41105,23.75275 C80.81766,23.62584 80.85882,23.12506 80.66331,22.72375 C79.60001,20.59372 79.05807,18.26475 78.1011,16.07984 C76.46842,12.35143 74.45158,8.76022 73.34369,4.80543 C73.20649,4.31494 72.7846,3.54319 73.56664,3.3614 C74.2252,3.20705 75.16845,2.85719 75.60063,3.95136 C76.2489,5.59433 76.80113,7.29561 77.65863,8.83225 C79.03063,11.32929 79.58972,14.11445 80.71133,16.69381 C80.948,17.2529 81.3253,17.58561 81.82265,18.22702 Z" id="Shape" fill="#918371" fill-rule="nonzero"></path>
                        <path d="M120.46503,42.16842 C120.46503,44.73749 120.44102,47.31342 120.46503,49.87906 C120.46503,50.764 120.28667,51.22019 119.25081,51.25106 C118.13606,51.27164 118.08118,50.68854 118.08461,49.87906 C118.09833,45.0244667 118.09833,40.1698733 118.08461,35.31528 C118.08461,32.67075 118.14292,33.19554 115.84825,33.15781 C114.53456,33.1338 113.22087,33.12008 111.90718,33.15781 C111.04282,33.18525 110.87818,32.76679 110.87818,32.00533 C110.87818,31.24387 111.15944,31.0072 111.88317,31.01063 C116.79493,31.0266367 121.711263,31.0266367 126.63217,31.01063 C127.31817,31.01063 127.66117,31.19585 127.66117,31.98475 C127.66117,32.77365 127.44851,33.15781 126.63217,33.14752 C125.03379,33.12694 123.43198,33.20926 121.83017,33.12351 C120.76344,33.0652 120.43073,33.46651 120.45817,34.49551 C120.4959,37.02685 120.46503,39.59592 120.46503,42.16842 Z" id="Shape" fill="#8F7F6D" fill-rule="nonzero"></path>
                        <path d="M36.51578,13.12318 C36.51578,10.3243 36.56723,7.52885 36.49177,4.7334 C36.4609,3.58778 36.86907,3.27908 37.95981,3.25164 C39.10543,3.22077 39.24949,3.73527 39.24263,4.68881 C39.20833,9.65545 39.28036,14.63581 39.19461,19.58873 C39.1706,21.03962 39.61307,21.45808 41.02623,21.38262 C43.19056,21.26943 45.36175,21.34832 47.54323,21.35861 C48.19836,21.35861 48.8089,21.39977 48.75745,22.35331 C48.70943,23.24854 48.07145,23.14221 47.53294,23.14564 C44.27787,23.16279 41.01594,23.14564 37.77116,23.16965 C36.81076,23.16965 36.4952,22.82665 36.51235,21.86282 C36.55008,18.94732 36.51578,16.03525 36.51578,13.12318 Z" id="Shape" fill="#918371" fill-rule="nonzero"></path>
                        <path d="M52.24576,13.11632 C52.24576,10.31744 52.2732,7.51513 52.24576,4.71625 C52.24576,3.77986 52.3418,3.24135 53.508,3.25507 C54.6742,3.26879 54.63304,3.87933 54.62961,4.68195 C54.62961,9.65545 54.67763,14.62895 54.58845,19.59559 C54.56101,21.04991 55.01034,21.46151 56.4235,21.38605 C58.53295,21.26943 60.64926,21.35861 62.76557,21.35518 C63.41384,21.35518 64.02438,21.29687 64.01066,22.28128 C63.99694,23.26569 63.32466,23.14221 62.71755,23.14564 C59.68886,23.14564 56.65674,23.09419 53.63148,23.17651 C52.44813,23.20738 52.21489,22.75462 52.2389,21.69132 C52.28692,18.83413 52.24576,15.97351 52.24576,13.11632 Z" id="Shape" fill="#8E7E6C" fill-rule="nonzero"></path>
                        <path d="M66.98104,13.05801 C66.98104,10.25913 67.01534,7.45682 66.96389,4.66137 C66.94331,3.66667 67.16283,3.20019 68.27758,3.2585 C69.21054,3.30995 69.7319,3.42314 69.71818,4.57219 C69.6655867,10.34145 69.6655867,16.1118533 69.71818,21.8834 C69.71818,23.04617 69.18996,23.12506 68.27415,23.18337 C67.16283,23.25197 66.93988,22.80264 66.96046,21.81137 C67.01877,18.88558 66.98104,15.97008 66.98104,13.05801 Z" id="Shape" fill="#918371" fill-rule="nonzero"></path>
                        <circle id="Oval-2" fill="#9A0833" cx="142.8595" cy="12.8625" r="12.8625"></circle>
                        <text id="&amp;" font-family="Times-Roman, Times" font-size="22.295" font-weight="normal" fill="#FFFFFF">
                            <tspan x="135.485" y="24.058">&amp;</tspan>
                        </text>
                    </g>
                </g>
            </g>
        </g>
    </g>
</svg>