<?xml version="1.0" encoding="UTF-8"?>
<svg width="82px" height="41px" viewBox="0 0 82 41" version="1.1" xmlns="http://www.w3.org/2000/svg" xmlns:xlink="http://www.w3.org/1999/xlink">
    <!-- Generator: Sketch 49.1 (51147) - http://www.bohemiancoding.com/sketch -->
    <title>TC</title>
    <desc>Created with Sketch.</desc>
    <defs></defs>
    <g id="Page-1" stroke="none" stroke-width="1" fill="none" fill-rule="evenodd">
        <g id="mainPageQuartz" transform="translate(-1283.000000, -2216.000000)" fill="#949494" fill-rule="nonzero">
            <g id="mainPage">
                <g id="press" transform="translate(287.000000, 2216.000000)">
                    <g id="TC" transform="translate(996.000000, 0.000000)">
                        <path d="M0.00258754412,0.00204990479 C13.6674115,-0.000683301596 27.3322354,-0.000683301596 40.9970594,0.00204990479 C41.0025259,4.55693835 40.998426,9.11182679 40.9997926,13.6667152 C36.4448513,13.6680818 31.88991,13.663982 27.3363353,13.6680818 C27.3295022,22.7778587 27.3377019,31.8876356 27.3308688,40.9974125 C22.7581615,41.0001457 18.1840875,41.0015123 13.6100135,40.9974125 C13.5881476,31.9081346 13.6018138,22.8188568 13.6031804,13.729579 C9.07010499,13.722746 4.53566296,13.6762815 0.00258754412,13.663982 C-0.000145693989,9.11046019 -0.00151231305,4.55557174 0.00258754412,0.00204990479 Z" id="Shape"></path>
                        <path d="M53.0029047,0.00194987292 C62.0001845,-0.00064995764 70.9988143,-0.00064995764 79.9974441,0.00194987292 C80.0014938,4.33326758 80.0001439,8.66588521 79.9974441,12.9972029 C70.9988143,13.0024026 61.9988346,12.9985028 53.0002048,12.9998027 C53.0015548,8.66718512 52.997505,4.3345675 53.0029047,0.00194987292 Z" id="Shape"></path>
                        <path d="M41,13 C45.5551487,13 50.1114566,13 54.6663979,13 C54.6677646,17.6660833 54.6636647,22.3321667 54.6677646,26.99825 C63.7776472,27.0038499 72.8875298,26.9954501 81.9974125,27.0024499 C82.0001457,31.6671333 82.0015123,36.3318167 81.9974125,40.9979001 C68.3325885,41.0007 54.6677646,41.0007 41.0029406,40.9979001 C40.9974741,31.6657334 41.001574,22.3321667 41,13 Z" id="Shape"></path>
                    </g>
                </g>
            </g>
        </g>
    </g>
</svg>