<?xml version="1.0" encoding="UTF-8"?>
<svg width="226px" height="62px" viewBox="0 0 226 62" version="1.1" xmlns="http://www.w3.org/2000/svg" xmlns:xlink="http://www.w3.org/1999/xlink">
    <!-- Generator: Sketch 49.3 (51167) - http://www.bohemiancoding.com/sketch -->
    <title>Tencent</title>
    <desc>Created with Sketch.</desc>
    <defs>
        <filter x="-6.0%" y="-9.8%" width="111.9%" height="127.3%" filterUnits="objectBoundingBox" id="filter-1">
            <feOffset dx="0" dy="5" in="SourceAlpha" result="shadowOffsetOuter1"></feOffset>
            <feGaussianBlur stdDeviation="5" in="shadowOffsetOuter1" result="shadowBlurOuter1"></feGaussianBlur>
            <feColorMatrix values="0 0 0 0 0   0 0 0 0 0   0 0 0 0 0  0 0 0 0.5 0" type="matrix" in="shadowBlurOuter1" result="shadowMatrixOuter1"></feColorMatrix>
            <feMerge>
                <feMergeNode in="shadowMatrixOuter1"></feMergeNode>
                <feMergeNode in="SourceGraphic"></feMergeNode>
            </feMerge>
        </filter>
        <linearGradient x1="50%" y1="0%" x2="50%" y2="100%" id="linearGradient-2">
            <stop stop-color="#FCCD0B" offset="0%"></stop>
            <stop stop-color="#F2B719" offset="100%"></stop>
        </linearGradient>
        <linearGradient x1="50%" y1="0%" x2="50%" y2="100%" id="linearGradient-3">
            <stop stop-color="#EC2194" offset="0%"></stop>
            <stop stop-color="#DD0C86" offset="100%"></stop>
        </linearGradient>
        <linearGradient x1="50%" y1="0%" x2="50%" y2="100%" id="linearGradient-4">
            <stop stop-color="#93205F" offset="0%"></stop>
            <stop stop-color="#93205F" offset="100%"></stop>
        </linearGradient>
        <linearGradient x1="50%" y1="0%" x2="50%" y2="100%" id="linearGradient-5">
            <stop stop-color="#ED8524" offset="0%"></stop>
            <stop stop-color="#E37629" offset="100%"></stop>
        </linearGradient>
    </defs>
    <g id="Page-1" stroke="none" stroke-width="1" fill="none" fill-rule="evenodd">
        <g id="mainPageQuartz-Copy-2" transform="translate(-1049.000000, -9116.000000)">
            <g id="partners" transform="translate(0.000000, 8660.000000)">
                <g id="Group-14" filter="url(#filter-1)" transform="translate(1016.000000, 418.000000)">
                    <g id="Tencent" transform="translate(43.355609, 42.666667)">
                        <path d="M206.003891,30.0008602 C205.15265,30.0524731 204.287679,30.2176344 203.453599,30.128172 C201.308333,29.9010753 200.1722,28.6554839 200.144741,26.4808602 C200.100119,22.695914 200.144741,18.9109677 200.127579,15.1260215 C200.127579,14.5341935 200.096687,13.9182796 200.954793,13.9492473 C201.486819,13.9698925 202.097791,13.7634409 202.276277,14.6374194 C202.47879,15.6111828 201.589792,16.9978495 202.942168,17.4967742 C203.855193,17.8408602 204.977596,17.5896774 206.003891,17.6034409 L206.003891,19.667957 C205.145785,19.667957 204.287679,19.667957 203.433005,19.6301075 C202.798006,19.6129032 202.489088,19.8744086 202.495952,20.5350538 C202.516547,22.5410753 202.495952,24.5470968 202.547439,26.5531183 C202.578331,27.4787097 203.137816,28.0154839 204.122922,27.987957 L206.007324,27.9260215 L206.003891,30.0008602 Z" id="Shape" fill="#FFFFFF" fill-rule="nonzero"></path>
                        <path d="M134.643762,26.0025806 C135.735273,22.401147 136.826785,18.8008602 137.918296,15.2017204 C138.096782,14.6064516 138.148268,13.9664516 139.040699,13.9492473 C139.93313,13.932043 140.15967,14.5686022 140.351886,15.2395699 C141.381613,18.8352688 142.411341,22.4344086 143.760284,26.0163441 C144.597796,22.3827957 145.435308,18.7503943 146.27282,15.1191398 C146.38609,14.6167742 146.396387,14.1247312 147.069143,13.9630108 C148.390627,13.6498925 148.922653,14.1144086 148.596572,15.4735484 C147.508493,20.0292473 146.348333,24.5711828 145.301443,29.1337634 C145.071471,30.128172 144.549742,30.2554839 143.72596,30.2451613 C142.902178,30.2348387 142.198531,30.3036559 141.896477,29.2129032 C141.004047,25.968172 140.005211,22.7544086 138.930861,19.1449462 C137.846215,22.5858065 136.850811,25.6825806 135.934354,28.7793548 C135.635733,29.8116129 135.20668,30.2967742 134.04652,30.2864516 C132.88636,30.276129 132.673549,29.735914 132.440145,28.7724731 C131.444741,24.368172 130.35323,19.987957 129.330367,15.5939785 C129.199935,15.0331183 128.575233,14.1866667 129.77315,13.9939785 C130.658716,13.8529032 131.4722,13.9148387 131.729632,15.0778495 C132.326874,17.7548387 132.975603,20.4180645 133.610602,23.0847312 C133.847439,24.0825806 134.104871,25.0769892 134.352006,26.0713978 L134.643762,26.0025806 Z" id="Shape" fill="#FFFFFF" fill-rule="nonzero"></path>
                        <path d="M165.137431,29.9905376 C163.936082,29.9905376 162.734733,29.9389247 161.536817,29.9905376 C160.572305,30.0455914 160.393819,29.5845161 160.397252,28.7552688 C160.400684,27.9260215 160.675278,27.6335484 161.49906,27.6473118 C163.613434,27.6851613 165.727809,27.6473118 167.845615,27.6473118 C168.614479,27.6473118 169.386774,27.6473118 169.633909,26.707957 C169.881044,25.7686022 169.812395,24.8911828 168.947424,24.2477419 C167.855913,23.4494624 166.561888,23.1673118 165.302188,22.8266667 C163.735905,22.4515265 162.325779,21.5949508 161.269088,20.3767742 C160.198171,19.1105376 160.071171,17.6619355 160.647819,16.1892473 C161.224466,14.7165591 162.487599,13.9595699 163.991001,13.8873118 C166.273564,13.7806452 168.562992,13.8873118 170.855853,13.8873118 C171.810067,13.8873118 171.957661,14.4206452 171.974823,15.2189247 C171.995418,16.123871 171.514878,16.2270968 170.783772,16.2133333 C168.89937,16.1789247 167.008103,16.2133333 165.123702,16.196129 C164.214109,16.196129 163.359435,16.3406452 163.064246,17.3625806 C162.769058,18.3845161 163.229003,19.1449462 164.05965,19.7195699 C165.593944,20.7827957 167.444021,21.0511828 169.122478,21.7496774 C170.862717,22.4756989 172.173904,23.5423656 172.328363,25.5931183 C172.520579,28.1083871 170.907339,29.9217204 168.401668,29.9664516 C167.310157,30.0077419 166.222078,29.9905376 165.137431,29.9905376 Z" id="Shape" fill="#FFFFFF" fill-rule="nonzero"></path>
                        <path d="M148.311681,23.9380645 C148.311681,19.0004301 152.087349,16.0791398 156.29207,17.7445161 C156.984841,18.0168795 157.60941,18.4385891 158.121553,18.9797849 C160.45217,21.415914 159.981928,23.556129 156.858421,24.7019355 C155.341855,25.2028233 153.764644,25.49566 152.169727,25.5724731 C151.802458,25.6034409 151.291026,25.4073118 151.115973,25.895914 C150.940919,26.3845161 151.335648,26.7595699 151.654863,27.0726882 C152.883672,28.2735484 154.462588,28.1875269 155.996882,28.1737634 C156.731421,28.1737634 157.46596,27.9741935 158.203932,27.9019355 C158.547174,27.8675269 159.013984,27.3995699 159.182173,28.0636559 C159.322902,28.6210753 159.384686,29.3436559 158.711931,29.5501075 C156.223422,30.3208602 153.676562,30.7784946 151.215513,29.5501075 C148.967274,28.3905376 148.256762,26.3397849 148.311681,23.9380645 Z M154.170831,19.3513978 C152.368808,19.3513978 150.710946,21.1062366 150.704082,22.9230108 C150.704082,23.6387097 150.988973,23.876129 151.617107,23.7247312 C152.942023,23.4116129 154.342453,23.4907527 155.629612,22.9643011 C156.261179,22.7062366 157.043772,22.5926882 157.170771,21.7978495 C157.297771,21.0030108 156.631881,20.4696774 156.06553,19.9913978 C155.530923,19.5572636 154.858512,19.3301333 154.170831,19.3513978 Z" id="Shape" fill="#FFFFFF" fill-rule="nonzero"></path>
                        <path d="M59.4118559,23.8176344 C59.4496126,18.7802151 63.2870645,16.0137634 67.6153533,17.8821505 C68.8999634,18.4161746 69.8980548,19.4717485 70.3612938,20.7862366 C71.0065899,22.5066667 70.5226178,23.6627957 68.8338644,24.3750538 C67.0239684,25.097651 65.103545,25.5026991 63.1566323,25.5724731 C62.8339843,25.5896774 62.4255257,25.4623656 62.2333098,25.8305376 C62.0067697,26.264086 62.3191205,26.5909677 62.5765524,26.8937634 C63.7573068,28.3045161 65.4186009,28.16 66.9940842,28.1806452 C67.7251909,28.1806452 68.45973,27.9741935 69.1977015,27.9156989 C69.5649711,27.888172 70.1313213,27.347957 70.2651859,28.1737634 C70.3578614,28.7415054 70.3338344,29.267957 69.6885384,29.6326882 C64.927764,32.2993548 59.3809641,29.168172 59.4118559,23.8176344 Z M61.8351485,22.4929032 C61.7836621,23.2911828 61.7459054,23.8692473 62.549093,23.7350538 C64.1108467,23.4563441 65.7137895,23.4116129 67.2171919,22.8025806 C68.483757,22.2864516 68.5524055,21.5122581 67.7595152,20.5660215 C66.8293278,19.4580645 65.6382761,19.0589247 64.2378464,19.5337634 C62.7035522,20.0464516 62.065121,21.2610753 61.8351485,22.4963441 L61.8351485,22.4929032 Z" id="Shape" fill="#FFFFFF" fill-rule="nonzero"></path>
                        <path d="M101.163882,30.2313978 C98.0232123,30.252043 95.9534596,29.0890323 95.1365423,26.7630108 C94.1720307,24.0103226 94.3058953,21.3195699 96.3104319,19.0348387 C97.7657804,17.3763441 100.65245,16.9496774 102.808014,17.8408602 C104.042068,18.3350405 105.019796,19.3151717 105.512765,20.5522581 C106.278196,22.3587097 105.773629,23.7006452 103.968174,24.4369892 C102.262088,25.0890018 100.464527,25.4686711 98.6410489,25.5621505 C98.2291578,25.5931183 97.6353482,25.3866667 97.5083485,26.0266667 C97.4122405,26.5152688 97.7314561,26.9109677 98.0918608,27.2034409 C99.3343989,28.2150538 100.837801,28.2356989 102.317177,28.1806452 C103.003662,28.16 103.672985,27.9501075 104.352605,27.9397849 C104.695848,27.9397849 105.303387,27.3686022 105.437252,28.1806452 C105.540225,28.7931183 105.608873,29.4331183 104.750767,29.6980645 C103.578321,30.007434 102.375428,30.1862921 101.163882,30.2313978 Z M100.614694,19.3513978 C98.6891029,19.3273118 96.8390255,21.2954839 96.9419982,23.1810753 C96.9797549,23.7832258 97.3298623,23.8382796 97.7417534,23.7522581 C99.190237,23.4529032 100.690207,23.4701075 102.100934,22.9402151 C103.875498,22.2726882 104.071146,21.3711828 102.64669,20.1324731 C102.087463,19.6317215 101.364529,19.3538341 100.614694,19.3513978 Z" id="Shape" fill="#FFFFFF" fill-rule="nonzero"></path>
                        <path d="M190.949272,24.8292473 C190.949272,25.6894624 190.949272,26.5496774 190.949272,27.4064516 C190.949272,29.9354839 190.949272,29.9630108 188.498521,30.1901075 C186.675693,30.3960774 184.83,30.2083561 183.085585,29.6395699 C181.571886,29.1165591 180.500969,28.1290323 180.339645,26.4602151 C180.178321,24.7913978 181.197751,23.7935484 182.519235,23.0709677 C184.148981,22.2267014 185.956947,21.7865787 187.791441,21.7875269 C188.972195,21.7565591 188.841763,21.1956989 188.429872,20.4903226 C187.956197,19.6782796 187.170172,19.372043 186.264011,19.3376344 C185.008368,19.3454851 183.758556,19.5096082 182.543262,19.8262366 C182.138236,19.9122581 181.626804,20.3423656 181.383102,19.692043 C181.195642,19.1933613 181.362664,18.6305638 181.791561,18.3156989 C183.851016,16.5952688 188.906979,17.2834409 190.458436,19.4477419 C190.812979,19.9702275 190.984417,20.5959407 190.94584,21.2266667 C190.942408,22.424086 190.949272,23.6283871 190.949272,24.8292473 Z M188.828033,25.6344086 C188.419575,25.0047312 189.727329,23.3875269 187.623252,23.4494624 C184.997446,23.5286022 182.972315,24.5952688 182.917396,26.0301075 C182.862478,27.4649462 184.163367,28.2529032 186.542038,28.2494624 C188.731926,28.2494624 188.828033,28.1462366 188.828033,25.6378495 L188.828033,25.6344086 Z" id="Shape" fill="#FFFFFF" fill-rule="nonzero"></path>
                        <path d="M54.8913513,14.2176344 C56.7208342,14.2176344 58.5503171,14.2554839 60.3832324,14.2176344 C61.3065549,14.1901075 61.5433923,14.5617204 61.5536896,15.4322581 C61.5536896,16.3612903 61.18642,16.5746237 60.3283136,16.591828 C59.0342891,16.6193548 57.355833,15.9827957 56.5526454,16.8843011 C55.7494577,17.7858065 56.3055107,19.5131183 56.2814837,20.8722581 C56.2334298,23.507957 56.243727,26.1436559 56.2814837,28.7862366 C56.2814837,29.7393548 56.1098624,30.276129 54.9737295,30.2692473 C53.8375966,30.2623656 53.6762726,29.7083871 53.6831375,28.7655914 C53.7140293,25.2146237 53.6556781,21.6602151 53.7174617,18.0989247 C53.7380563,16.9393548 53.4463001,16.3991398 52.2003296,16.5230108 C51.2941692,16.6124731 50.3708467,16.492043 49.4543891,16.5539785 C48.5379314,16.615914 48.1191755,16.3303226 48.1329052,15.3152688 C48.1466349,14.3002151 48.6065799,14.1969892 49.4132,14.2107527 C51.2323856,14.2451613 53.0618684,14.2176344 54.8913513,14.2176344 Z" id="Shape" fill="#FFFFFF" fill-rule="nonzero"></path>
                        <path d="M72.1358579,24.048172 C72.1358579,23.1306093 72.1358579,22.2130466 72.1358579,21.2954839 C72.1358579,18.067957 72.1358579,18.0576344 75.3280138,17.4313978 C76.5063569,17.1834895 77.7243665,17.1952299 78.8977365,17.4658065 C81.7260552,18.1539785 82.4846213,19.1105376 82.4880537,21.9939785 C82.4880537,24.1135484 82.5258104,26.2365591 82.4674592,28.3526882 C82.4468646,29.0787097 82.9857554,30.1935484 81.4754881,30.2210753 C79.8347887,30.252043 80.4285983,29.0408602 80.3977065,28.2701075 C80.329058,26.4980645 80.3771119,24.7191398 80.3771119,22.9436559 C80.3771119,20.2529032 79.3267897,19.3341935 76.6014437,19.4408602 C75.0019333,19.5027957 74.2914212,19.9982796 74.4355831,21.7875269 C74.6243665,24.1204301 74.4596101,26.4808602 74.4939343,28.8309677 C74.4939343,29.711828 74.3326103,30.2073118 73.2891529,30.2382796 C72.2456955,30.2692473 72.0878039,29.7221505 72.1118309,28.8619355 C72.1667497,27.2550538 72.1358579,25.6516129 72.1358579,24.048172 Z" id="Shape" fill="#FFFFFF" fill-rule="nonzero"></path>
                        <path d="M117.821444,25.0529032 C117.821444,26.1987097 117.821444,27.3445161 117.821444,28.4937634 C117.821444,29.267957 118.041119,30.1350538 116.71277,30.1006452 C115.487394,30.0696774 115.717367,29.267957 115.710502,28.5625806 C115.710502,26.7286022 115.586934,24.8843011 115.734529,23.0572043 C115.957636,20.2666667 114.838666,19.4752688 111.670537,19.4649462 C110.115648,19.4649462 109.501244,20.1255914 109.611081,21.7703226 C109.758676,24.1101075 109.631676,26.4670968 109.655703,28.8172043 C109.655703,29.6292473 109.497811,30.0903226 108.5333,30.0937634 C107.568788,30.0972043 107.434923,29.5569892 107.434923,28.7862366 C107.452086,25.6344086 107.434923,22.4825806 107.434923,19.3273118 C107.434923,18.7182796 107.48641,18.1815054 108.207219,17.9956989 C110.37308,17.4348387 112.532076,16.9290323 114.776882,17.624086 C116.918716,18.288172 117.780254,19.372043 117.800849,21.612043 C117.828308,22.7578495 117.821444,23.9070968 117.821444,25.0529032 Z" id="Shape" fill="#FFFFFF" fill-rule="nonzero"></path>
                        <path d="M173.828333,20.7483871 C173.828333,18.9212903 173.859225,17.0907527 173.828333,15.2636559 C173.807739,14.3243011 174.120089,13.9354839 175.105196,13.9286022 C176.090302,13.9217204 176.134923,14.4860215 176.162383,15.2464516 C176.210437,17.5174194 176.231031,17.5208602 178.541054,17.5827957 C179.227539,17.6 179.914024,17.4417204 179.934619,18.5462366 C179.962078,19.7058065 179.279025,19.7505376 178.503297,19.6335484 C176.787084,19.372043 176.131491,19.9776344 176.330572,21.7668817 C176.488463,23.1776344 176.371761,24.6193548 176.364896,26.0473118 C176.364896,27.3341935 176.800814,28.111828 178.276757,28.0154839 C178.990701,27.963871 179.931186,27.6713978 179.934619,29.0477419 C179.938051,30.424086 178.966674,30.2141935 178.166919,30.2245161 C175.359195,30.2589247 173.975928,28.9135484 173.848928,26.0748387 C173.848928,25.9612903 173.848928,25.8477419 173.848928,25.7307527 C173.835198,24.0653763 173.828333,22.4045878 173.828333,20.7483871 Z" id="Shape" fill="#FFFFFF" fill-rule="nonzero"></path>
                        <path d="M119.180684,21.0546237 C119.180684,19.1105376 119.204711,17.1630108 119.180684,15.2051613 C119.180684,14.3690323 119.396927,13.9286022 120.320249,13.9217204 C121.243572,13.9148387 121.57995,14.2658065 121.511301,15.1501075 C121.487274,15.4356989 121.549058,15.728172 121.511301,16.0068817 C121.288194,17.3522581 121.91976,17.6929032 123.152001,17.5931183 C123.790432,17.5415054 124.573025,17.2696774 125.094754,17.8580645 C125.396807,18.2021505 125.300699,18.7389247 125.139375,19.175914 C124.89224,19.8468817 124.284701,19.6129032 123.811026,19.6197849 C121.408328,19.6541935 121.569652,19.2172043 121.559355,21.9492473 C121.559355,23.2086022 121.590247,24.467957 121.559355,25.7341935 C121.511301,27.2722581 122.057057,28.1427957 123.749243,27.9982796 C124.507809,27.9294624 125.252645,27.888172 125.269807,29.0305376 C125.286969,30.1729032 124.555863,30.1522581 123.790432,30.1969892 C120.769897,30.3621505 119.228738,28.8997849 119.218441,25.8408602 C119.177252,24.2580645 119.180684,22.6546237 119.180684,21.0546237 Z" id="Shape" fill="#FFFFFF" fill-rule="nonzero"></path>
                        <path d="M91.2338743,19.6129032 C87.7362326,19.5131183 86.5795051,20.4421505 86.4456405,23.4253763 C86.2705868,27.3341935 88.3437719,28.9651613 92.2018184,28.0670968 C92.634304,27.9673118 93.4752483,26.9901075 93.7841666,28.2632258 C94.0244364,29.2404301 93.4718159,29.7083871 92.5725203,29.9595699 C88.7968521,31.015914 85.1859403,29.5363441 84.3552933,26.4670968 C83.9189939,24.854835 83.9107111,23.1562455 84.3312663,21.5397849 C85.0349136,18.8215054 86.5795051,17.6619355 89.3940942,17.6137634 C90.4247916,17.5921859 91.4559111,17.624344 92.4832773,17.7101075 C93.1526003,17.7686022 93.8768421,17.8443011 93.8184909,18.8662366 C93.7601396,19.888172 93.0015736,19.5544086 92.4455206,19.6060215 C92.0336295,19.6129032 91.6457654,19.6129032 91.2338743,19.6129032 Z" id="Shape" fill="#FFFFFF" fill-rule="nonzero"></path>
                        <path d="M192.631161,24.7982796 C192.631161,23.483871 192.593404,22.1660215 192.631161,20.8516129 C192.720404,18.3019355 196.104776,16.3062366 198.370177,17.427957 C198.933095,17.7066667 198.751176,18.1883871 198.771771,18.6184946 C198.795798,19.1208602 198.507474,19.2550538 198.040664,19.3410753 C194.975508,19.9019355 194.97894,19.9122581 194.97894,23.088172 C194.97894,24.9737634 194.934319,26.8731183 194.996102,28.7483871 C195.026994,29.7393548 194.65286,30.0077419 193.70551,30.0146237 C192.758161,30.0215054 192.596837,29.5260215 192.617431,28.7380645 C192.651756,27.4305376 192.631161,26.1126882 192.631161,24.7982796 Z" id="Shape" fill="#FFFFFF" fill-rule="nonzero"></path>
                        <path d="M33.1229081,21.3336263 L33.0508268,20.9582796 C33.1013411,21.0370017 33.144981,21.1199554 33.1812597,21.2062151 C33.1915571,21.237207 33.1435028,21.2923038 33.1229081,21.3336263 Z" id="Shape" fill="#F5BF15" fill-rule="nonzero"></path>
                        <path d="M9.93343989,38.6408602 L10.2976495,38.9468336 L9.93343989,38.6408602 Z" id="Shape" fill="#DD0C86" fill-rule="nonzero"></path>
                        <g id="Group-2">
                            <path d="M19.940451,17.2043011 L31.1538829,17.2042894 C32.2409138,17.2042894 33.140493,18.0496888 33.2079304,19.1346258 C33.3831313,21.9532695 33.4707318,23.6509363 33.4707318,24.2276262 C33.4707318,25.1407108 33.3785414,27.2227328 33.1941607,30.4736923 L33.1941523,30.4736918 C33.1340251,31.5338415 32.2771864,32.3741976 31.2160689,32.4137237 L20.623392,32.8083038 C19.5106301,32.8497537 18.5667299,31.9986117 18.493262,30.8875043 C18.3338268,28.4762526 18.3133784,26.7954432 18.4319168,25.8450761 C18.4345671,24.9249791 18.2554296,22.8048582 17.8945043,19.4847134 L17.8945022,19.4847136 C17.7716683,18.3547673 18.5880943,17.3391883 19.7180406,17.2163544 C19.7919055,17.2083248 19.866151,17.2043011 19.940451,17.2043011 Z" id="Rectangle-10" fill="url(#linearGradient-2)"></path>
                            <g id="Group" transform="translate(0.000000, 5.505376)">
                                <path d="M6.45501823,0.773971095 C8.82937317,-0.443319 18.3079873,1.15573926 18.1508381,2.42767497 C18.2722849,3.77224094 12.0183647,8.06089635 9.32361804,18.0066069 C7.3020465,23.6524337 8.00883325,29.5753919 9.89835767,33.1062396 C6.93904133,31.91342 0.931826539,25.7810491 0.0885234051,17.1383367 C-0.489392844,11.0894024 2.94779233,3.15965279 6.45501823,0.773971095 Z" id="Path-7" fill="url(#linearGradient-3)"></path>
                                <path d="M8.17697577,23.3587858 C14.3890531,26.3486419 17.5020205,25.3403882 17.2828659,27.1992135 C17.226571,28.9791589 11.3778989,33.315076 10.4803693,33.1736242 C10.29247,33.1855897 10.0367597,33.1640622 9.9104949,33.1118634 C8.57330499,30.9252855 7.84937306,26.7368907 8.17697577,23.3587858 Z" id="Rectangle" fill="url(#linearGradient-4)"></path>
                            </g>
                            <path d="M18.2111615,37.2607301 C18.6270807,36.6103247 22.461279,37.3534496 25.0649381,36.8632697 C27.6685973,36.3730898 30.0177311,35.1254064 31.7732444,34.9365603 C33.5157589,34.9764074 30.7989957,39.9390094 29.868912,40.5097866 C29.1342191,40.856257 25.46959,42.6651469 20.2129899,42.4435015 C19.269505,42.051671 17.4932761,39.0898653 18.2111615,37.2607301 Z" id="Rectangle-2" fill="url(#linearGradient-5)"></path>
                            <path d="M37.4368885,28.6504851 C38.0237682,28.2911198 40.757009,27.4261833 41.0787313,27.6205043 C40.9288647,28.660139 38.9597326,32.93006 37.1119449,34.7675595 C37.0412,32.375894 36.8214383,28.9153697 37.4368885,28.6504851 Z" id="Rectangle-11" fill="#FCCD0B"></path>
                            <path d="M36.7358107,21.3639121 C36.6259731,19.987568 36.5058382,18.6112239 36.3925682,17.2589659 C36.3273521,16.3746648 36.6122434,15.8998261 37.5836199,16.3368153 C37.6373698,16.3549015 37.6924596,16.3687078 37.7483763,16.3781056 C41.4210718,17.35531 41.712828,17.7544497 41.5068824,21.5669229 C41.5068824,21.8525143 41.455396,22.1381056 41.4416663,22.423697 C41.3112342,24.7600411 39.7460481,25.8645573 37.4909444,25.2486433 C36.9665555,25.1414414 36.6114998,24.6494231 36.6740271,24.1166003 C36.6740271,23.2013315 36.6740271,22.2860626 36.6740271,21.3639121 L36.7358107,21.3639121 Z" id="Shape" fill="#ABD03E" fill-rule="nonzero"></path>
                            <path d="M30.2090632,12.7094149 C30.0387436,11.7383408 28.6663561,8.88887937 29.3526413,8.16683191 C30.5631307,7.53675053 35.4750526,9.20186643 35.6187858,9.42417263 C36.1811454,10.0788401 36.6214504,14.2468853 36.4757433,14.3944677 C35.8031655,14.8706807 30.4987781,14.2724753 30.2090632,12.7094149 Z" id="Shape" fill="#38ABE1" fill-rule="nonzero"></path>
                            <g id="Group-3" transform="translate(15.445916, 0.000000)">
                                <path d="M0.275870129,0.825630217 C0.688430393,0.696377179 2.8009162,0.247611731 4.62493381,0.18952663 C9.26476132,4.74285975 8.75675357,1.63126895 13.8659231,3.18388625 C16.4773671,3.97747377 19.7035238,5.6661604 19.8010149,5.75782763 C18.8054435,5.93502729 8.85443175,6.53363768 7.14673017,5.88004194 C2.8946229,4.33886094 0.542412087,1.42709079 0.275870129,0.825630217 Z" id="Rectangle-14" fill="#126FB7"></path>
                                <path d="M4.64370755,0.196253546 C13.8116425,-0.117479969 19.2332038,5.20362485 19.7340698,5.71568905 C18.9723652,5.29059972 15.6947878,3.59766126 12.551929,2.84438354 C10.3345432,2.48202446 9.605349,2.96468872 8.3808517,2.75855179 C7.37785904,2.60615363 6.0778161,1.64140402 4.64370755,0.196253546 Z" id="Rectangle-15" fill="#38ABE1"></path>
                            </g>
                        </g>
                    </g>
                </g>
            </g>
        </g>
    </g>
</svg>