<?xml version="1.0" encoding="UTF-8"?>
<svg width="70px" height="57px" viewBox="0 0 70 57" version="1.1" xmlns="http://www.w3.org/2000/svg" xmlns:xlink="http://www.w3.org/1999/xlink">
    <!-- Generator: Sketch 49 (51002) - http://www.bohemiancoding.com/sketch -->
    <title>QUARTEX twitter 2-18</title>
    <desc>Created with Sketch.</desc>
    <defs></defs>
    <g id="Page-1" stroke="none" stroke-width="1" fill="none" fill-rule="evenodd">
        <g id="mainPage-Copy" transform="translate(-1625.000000, -592.000000)">
            <g id="QUARTEX-twitter-2-18" transform="translate(1625.000000, 592.000000)">
                <path d="M11.0743942,21.0207245 C10.8296005,20.9715607 10.5999345,20.8700465 10.3409299,20.8623077 C10.1538965,20.8568451 9.95311067,20.5891753 9.9540275,20.361565 C9.9540275,20.1558053 10.0544204,19.9650678 10.2455796,19.8835833 C11.3104781,19.4283626 12.3831696,18.991806 13.4499018,18.5406824 C14.3396857,18.1642149 15.2230517,17.7731803 16.1119188,17.3944367 C17.0085789,17.0129618 17.9084479,16.6392256 18.8069417,16.2613925 C19.0966601,16.1398486 19.329535,16.198572 19.559201,16.4248167 C20.0084479,16.8682016 20.1812705,17.4436006 20.3779306,18.0089846 C20.5209561,18.4186832 20.58926,18.8506876 20.6662737,19.2776846 C20.6965291,19.3578034 20.6616896,19.4461162 20.6979044,19.5248694 C20.6979044,19.6647739 20.6979044,19.8045267 20.6979044,19.9441277 C20.6548134,20.0351718 20.7001965,20.1380517 20.6653569,20.2309167 C20.5654224,20.7703532 20.4297315,21.2929465 20.1395547,21.7741147 C19.7847413,22.3622598 19.2827767,22.6922948 18.6180747,22.8757487 C17.3193844,23.2344626 16.0376555,23.6546313 14.7462999,24.0415688 C14.4680419,24.1248742 14.1962017,24.2386794 13.8666012,24.2345824 C14.0609692,24.6688629 14.2333333,25.0958599 14.440537,25.5092002 C14.8366077,26.3021946 15.2074656,27.1079352 15.7144728,27.8444822 C16.2829077,28.6697973 17.0548788,29.2206143 17.9607073,29.6125593 C18.9137525,30.0249892 19.9149312,30.2471369 20.9468238,30.3513824 C21.1348109,30.3748202 21.3239767,30.3877385 21.513425,30.3900762 C21.621611,30.4355983 21.7394237,30.385524 21.8485265,30.4228521 L22.2872299,30.4355983 C22.9290111,30.4659463 23.5694172,30.4659463 24.2084479,30.4355983 L24.7388343,30.4223969 C24.8497708,30.3873449 24.9680419,30.4333222 25.0794368,30.3905314 L25.4264571,30.3777852 C25.5181401,30.342278 25.6226588,30.3878001 25.7157171,30.3450093 L25.9770138,30.3318079 C26.0535691,30.2990321 26.140668,30.3413676 26.2158481,30.2990321 C27.0125737,30.2566965 27.7982973,30.1315109 28.5831041,29.9981312 C31.2639162,29.543821 33.8924689,28.8505199 36.5356909,28.2168527 C38.0854399,27.8450892 39.6247981,27.4353906 41.1537656,26.987757 C42.5290111,26.5839762 43.8726261,26.0886962 45.2153242,25.5920504 C47.0994106,24.8955628 49.0174198,24.306052 50.9455141,23.7497724 C52.5357564,23.2913652 54.1356254,22.8752935 55.7643746,22.5757583 C56.4657498,22.4469309 57.1730845,22.3572524 57.8808775,22.2730366 C57.9588081,22.2393502 58.0468238,22.2798649 58.1238376,22.2398055 L58.4309758,22.2261488 C58.5419122,22.1910968 58.6601834,22.2370741 58.7715783,22.1942834 L59.2561231,22.1815372 C59.6071887,22.1584044 59.9594124,22.1584044 60.3104781,22.1815372 L60.7950229,22.1942834 C60.8899149,22.234798 60.9939751,22.1942834 61.0893255,22.2261488 L61.3084479,22.238895 C61.383628,22.282141 61.4716437,22.238895 61.5477407,22.2730366 C62.2211526,22.39367 62.8954813,22.5065648 63.5468893,22.7282572 C64.3651604,23.0077627 65.0830386,23.418827 65.7014407,24.0420241 C66.4697446,24.8190857 67.1261952,25.6648857 67.6070727,26.641334 C68.1447937,27.7338636 68.4817289,28.8873928 68.7072692,30.0796157 C68.8030779,30.5890076 68.8567125,31.1029517 68.9406025,31.6132541 C68.97315,31.6929177 68.9360183,31.7812305 68.9736084,31.8599837 L68.986444,32.1595189 C69.0258677,32.2833389 68.9722331,32.4148977 69.0194499,32.5378073 L69.0322855,33.1154823 C69.055517,33.5248561 69.055517,33.9352042 69.0322855,34.3445781 L69.0194499,34.9623125 C68.9736084,35.087043 69.0254093,35.2204226 68.9859856,35.3460635 L68.9736084,35.6510614 C68.9300589,35.7421055 68.9768173,35.8454406 68.9401441,35.9378504 C68.846169,36.6625617 68.7829077,37.3922804 68.6330059,38.1087977 C68.611002,38.2139537 68.6522593,38.3027217 68.6618861,38.3987733 C68.8017027,39.7785471 68.459725,41.0231204 67.5983628,42.1174709 C67.2682445,42.5346463 66.875538,42.8989764 66.4339882,43.1977095 C66.4761624,43.2537017 66.5412574,43.2177392 66.5939751,43.2181945 C67.5184458,43.2209258 68.4429164,43.2209258 69.367387,43.2181945 C69.6048461,43.2181945 69.8368042,43.2395898 69.9394892,43.4976999 C70.0421742,43.7558101 69.9674525,43.9756816 69.7652914,44.1741578 C68.9048461,45.0195026 67.8734119,45.5953567 66.764964,46.0405626 C65.5657498,46.5226412 64.3133595,46.7994154 63.0293386,46.9642053 C61.8434185,47.116249 60.6556647,47.0953088 59.4674525,47.0830179 C59.2263261,47.0807418 58.9815324,47.0561599 58.7385724,47.0415928 C58.3232482,47.0165557 58.1628029,46.7898558 58.2278978,46.3246203 C57.5448592,46.5704394 56.8682384,46.8117064 56.1934512,47.0566151 C55.3293386,47.3702621 54.4670596,47.6893718 53.6015717,47.9998323 C53.4942643,48.037044 53.4036604,48.1107311 53.345776,48.2078681 C52.5428572,49.452884 51.5853447,50.5926071 50.4958088,51.6001725 C49.3794515,52.6330085 48.1309999,53.5153749 46.7826457,54.2245196 C44.9311067,55.2050649 42.9622135,55.8400978 40.9085134,56.2274905 C40.0110947,56.3921864 39.1050578,56.5066275 38.1946955,56.5702717 C37.3131188,56.6415688 36.4284109,56.6673994 35.5441388,56.6476592 C34.5791749,56.6198907 33.6160445,56.5525181 32.6561231,56.4378025 C32.0523903,56.3658776 31.4573674,56.2416024 30.8513425,56.1842446 C30.5762934,56.158297 30.3347086,56.0290143 30.2884086,55.6930615 C30.2604453,55.4900331 30.3379175,55.2169007 30.5387033,55.1194834 C30.7266536,55.0284393 30.8568435,54.8713882 30.9971185,54.7416503 C31.3739358,54.3970483 31.7764244,54.0815803 32.1559921,53.7401648 C32.5891945,53.3509512 33.0476097,52.9885955 33.4853962,52.6021132 C33.7879502,52.3339882 34.1111329,52.0868034 34.4104781,51.813671 C34.4072692,51.7135224 34.3137525,51.7804399 34.2766208,51.7422014 C33.4598546,51.6099166 32.6523445,51.4263989 31.8589391,51.19275 C30.910174,50.9092819 29.9895082,50.5402296 29.1084479,50.0902056 C28.3023974,49.686292 27.5354498,49.2096425 26.8172888,48.6662753 C26.3547479,48.3157554 25.9123772,47.9438401 25.4732155,47.5650966 C25.0253343,47.1825257 24.60157,46.7729645 24.2043222,46.3387321 C23.1618861,45.1879343 22.2184676,43.9602041 21.4299935,42.6145719 C20.8495428,41.6152696 20.3247844,40.585072 19.8580878,39.528631 C19.5798297,38.9054339 19.2814014,38.2717667 19.1759659,37.6016819 C19.1117878,37.1951699 18.784021,37.1560209 18.5910282,36.9420672 C18.3980354,36.7281135 18.1440733,36.5778907 17.9263261,36.3894293 C17.5032089,36.021611 17.078258,35.6560688 16.6711853,35.2709521 C16.3800917,34.9978197 16.0697446,34.7369783 15.8364113,34.4060329 C15.7818031,34.3328178 15.7194035,34.2656639 15.6502947,34.2057358 C15.2450557,33.8351862 14.9081205,33.4045474 14.5500982,32.9916623 C14.2571709,32.6538885 13.9697446,32.3120178 13.6933202,31.9610427 C12.9668187,31.038084 12.2900154,30.0775908 11.6657498,29.0835929 C11.2443135,28.4125976 10.844881,27.7297666 10.4674525,27.0350999 C10.2808775,26.6904979 9.99024231,26.4169102 9.57308448,26.331784 C9.38013282,26.3006715 9.18339043,26.3006715 8.99043877,26.331784 C8.76425418,26.326961 8.54207135,26.3914981 8.35415848,26.5166036 C7.52442698,27.0815324 6.59796988,27.4243136 5.64171578,27.7001773 C5.20988867,27.8239973 4.77072692,27.922325 4.33431565,28.0324884 C4.22475442,28.0652643 4.10831696,28.019287 3.99967256,28.0629882 C3.92110139,28.0436136 3.838951,28.0436136 3.76037983,28.0629882 C3.64990177,28.0174661 3.53117223,28.0670852 3.41977734,28.0297571 C2.81329404,27.9723993 2.24715128,27.8021467 1.73326785,27.4648282 C1.00897184,26.9913987 0.630779306,26.2835306 0.358022266,25.5014615 C0.197239402,25.0202304 0.0988056655,24.5206306 0.0650949574,24.0147108 C0.0275049116,23.9045474 0.0756385069,23.7871005 0.0316306483,23.6764819 C0.0774721676,23.4192822 -0.000916830386,23.1575303 0.0751800917,22.8980545 C0.121527939,22.7170673 0.259723784,22.5732749 0.43962017,22.5188557 C2.2599869,21.8865542 4.11335953,21.3771623 6.01669941,21.0544108 C6.63051735,20.9501653 7.24891945,20.8859792 7.86732155,20.8208826 C8.00943026,20.7817337 8.15841519,20.8349945 8.29960707,20.7881068 L9.18068107,20.7881068 C9.30445318,20.8336288 9.43693517,20.7817337 9.5616241,20.8213379 C10.0502947,20.8668599 10.524296,20.9838516 11.0088409,21.0639705 C11.0918542,21.0671477 11.173119,21.0886051 11.2467583,21.1267909 L11.2875573,21.1418132 C11.3051839,21.1475544 11.3218651,21.1558368 11.3370661,21.1663951 C11.3214953,21.1517019 11.302402,21.1412033 11.2815979,21.1358953 C11.2077931,21.1044851 11.1307793,21.0812689 11.0743942,21.0207245 Z" id="Shape" fill="#949494" fill-rule="nonzero"></path>
                <path d="M19.7155161,37.4451694 C20.5312353,37.5726043 28.4488914,42.744134 45.503501,42.1121273 C58.5083021,41.4551668 67.9897858,38.2515525 68.1766312,38.3515845 C68.3830017,38.4719601 68.3076328,41.951734 65.9082595,43.0276489 C63.5088863,44.1035638 57.0491284,46.1542708 53.092362,47.7262212 C50.8724153,51.1974828 47.7840588,53.5458752 44.2831859,54.8158475 C39.4458954,56.8428093 31.0614702,56.2678644 30.7510611,55.6190415 C30.6708847,55.5445577 31.9846642,54.4106408 34.6923994,52.2172907 C35.6012437,51.5361094 35.8425254,51.2665897 35.4162445,51.4087316 C32.8328985,51.3218128 28.9120803,50.1271102 25.5041721,46.9574765 C21.8350503,43.7920297 19.160936,37.1691126 19.7155161,37.4451694 Z" id="Rectangle-2" fill="#FFFFFF"></path>
                <path d="M47.467518,0.523503762 C47.4794368,0.22669989 47.6554682,0.0928650151 47.9337263,0.0605443481 C48.6969876,0.0345967703 49.4602489,0.0368728736 50.2258022,0.0605443481 C50.4913774,0.106066414 50.6472386,0.260841439 50.6933857,0.524869424 C50.7199738,0.606353922 50.7071382,0.690569745 50.7071382,0.773419905 C50.7071382,7.79959909 50.7071382,14.8251713 50.7071382,21.8501366 C50.7071382,21.9329867 50.7204322,22.0167473 50.6933857,22.098687 C50.6475442,22.362715 50.491683,22.5174901 50.2258022,22.5630121 C49.4625409,22.5857732 48.6992796,22.5880493 47.9337263,22.5630121 C47.6077931,22.5224975 47.5124427,22.4109684 47.467518,22.1000527 C47.4386379,22.0190234 47.4528487,21.9348076 47.4528487,21.8519574 C47.4528487,14.8254748 47.4528487,7.79899213 47.4528487,0.772509464 C47.4528487,0.689204083 47.4386379,0.60498826 47.467518,0.523503762 Z" id="Shape" fill="#737373" fill-rule="nonzero"></path>
                <path d="M53.8454486,4.20214193 C54.1113294,4.247664 54.2671906,4.40243902 54.3130321,4.66646701 C54.3387033,4.74021276 54.3267845,4.81668983 54.3267845,4.89407734 C54.3267845,10.0993739 54.3267845,15.3040634 54.3267845,20.5081461 C54.3267845,20.5832575 54.3387033,20.6597345 54.3130321,20.7357564 C54.2671906,20.9997844 54.1113294,21.1545594 53.8454486,21.2000815 C53.097315,21.2223873 52.3491814,21.2251186 51.5992141,21.2000815 C51.2732809,21.1595668 51.1779306,21.0480378 51.1330059,20.737122 C51.1050426,20.6633763 51.1183366,20.5868992 51.1183366,20.5117878 C51.1183366,15.3222723 51.1183366,10.1318463 51.1183366,4.94050985 C51.1183366,4.86539844 51.105501,4.78892137 51.1330059,4.71517562 C51.1495088,4.39242417 51.3438769,4.24629834 51.6450557,4.20532848 C52.3791312,4.17983612 53.1125955,4.17877394 53.8454486,4.20214193 Z" id="Shape" fill="#737373" fill-rule="nonzero"></path>
                <path d="M46.4191225,11.8498491 C46.8596595,12.0146389 46.9073346,12.0833773 46.9073346,12.5604485 C46.9073346,16.113294 46.9073346,19.6659878 46.9073346,23.2185299 C46.9073346,23.6956011 46.8614931,23.7647947 46.4191225,23.9291293 C45.6709889,23.9524973 44.9222441,23.9524973 44.172888,23.9291293 C43.8845449,23.9072787 43.7300589,23.7424889 43.7053045,23.4648043 C43.6885872,23.3986353 43.6839296,23.3300295 43.6915521,23.2622311 C43.6915521,19.6811619 43.6915521,16.1000926 43.6915521,12.5190234 C43.6839296,12.451225 43.6885872,12.3826192 43.7053045,12.3164502 C43.7176817,12.0191911 43.9097577,11.9003786 44.172888,11.8521252 C44.9222441,11.8272398 45.6709889,11.8264811 46.4191225,11.8498491 Z" id="Shape" fill="#737373" fill-rule="nonzero"></path>
                <path d="M62.2353635,45.2330011 C62.5745907,45.0654799 62.9390308,44.9635105 63.2933857,44.8360487 C64.3000655,44.4743 65.3064396,44.1120961 66.3125082,43.749437 C66.4462448,43.7000589 66.5879043,43.6752253 66.7305828,43.6761464 C67.5855272,43.6797882 68.4404715,43.6761464 69.2954158,43.679333 C69.367387,43.679333 69.4444008,43.6570272 69.529666,43.7075567 C69.3742633,43.9510997 69.143222,44.1108822 68.9305174,44.2811347 C68.3934144,44.7023299 67.808833,45.0601059 67.1885396,45.3472615 C67.1598935,45.3565299 67.1301501,45.3620392 67.1000655,45.3636494 C66.9432093,45.4234163 66.7725347,45.4379346 66.6077276,45.4055297 C66.434905,45.3713882 66.2588736,45.3818583 66.0842174,45.3882313 C65.1889325,45.4210072 64.2931893,45.4137237 63.3979044,45.4337534 C63.0632613,45.4414922 62.7299935,45.4683502 62.4017682,45.3823135 C62.3247544,45.3631942 62.1996071,45.3818583 62.2353635,45.2330011 Z" id="Shape" fill="#FFFFFF" fill-rule="nonzero"></path>
                <path d="M62.2353635,45.2330011 C62.2518664,45.3313288 62.3320891,45.3026499 62.3953504,45.3181274 C62.7914211,45.4150894 63.192076,45.366836 63.5908972,45.3595524 C63.9576293,45.3531794 64.3197773,45.3568211 64.6851343,45.3331496 C64.9309783,45.3172251 65.1777445,45.3222509 65.4227243,45.3481719 C65.6817289,45.3763956 65.9489849,45.3176721 66.2125737,45.3190378 C66.5082515,45.3190378 66.8039293,45.3472615 67.0996071,45.3645599 C66.4977079,45.7055201 65.8389653,45.9039964 65.178389,46.0842637 C64.31611,46.3196128 63.4364113,46.4584551 62.5443353,46.5545067 C61.5252783,46.6646701 60.5066798,46.6296181 59.4876228,46.6291629 C59.2616241,46.6291629 59.0342502,46.5836408 58.8050426,46.5886482 C58.759201,46.5886482 58.6817289,46.6159615 58.6725606,46.5431262 C58.6652259,46.4853131 58.727112,46.4712013 58.781205,46.452082 C59.3088409,46.2658968 59.8328094,46.0696967 60.3609037,45.8857875 C60.9857236,45.6677368 61.5977079,45.4132685 62.2353635,45.2330011 Z" id="Shape" fill="#FFFFFF" fill-rule="nonzero"></path>
                <path d="M35.4121153,51.4117112 L35.916372,50.9478413 C35.9484266,50.9566895 35.9734735,50.9815618 35.9823838,51.0133931 C35.8329404,51.2023096 35.6454486,51.351622 35.4666667,51.5100388 C35.4579568,51.4718003 35.4519974,51.4326513 35.4121153,51.4117112 Z" id="Shape" fill="#949494" fill-rule="nonzero"></path>
                <path d="M47.9786509,0.530332071 C48.67315,0.527600748 49.3681074,0.530332071 50.0626064,0.520317217 C50.200131,0.520317217 50.2303864,0.57039149 50.2271775,0.693301069 C50.2198428,0.958239494 50.2271775,1.22408836 50.2271775,1.48948201 C50.2271775,5.37888734 50.2271775,9.26814094 50.2271775,13.1572428 C50.2271775,13.271048 50.2225933,13.3848531 50.2203012,13.4982031 C50.1744597,13.6010829 50.0827767,13.6347693 49.9800917,13.6393215 C49.3662737,13.6616273 48.7547479,13.6015382 48.1423052,13.5774115 C48.0675835,13.5746801 47.9905697,13.5523743 47.9589391,13.4663376 C47.9589391,12.2317792 47.9589391,10.997676 47.9589391,9.76311754 C47.9589391,6.77504912 47.9589391,3.78713243 47.9589391,0.799367483 C47.9575639,0.709233792 47.9351015,0.616823997 47.9786509,0.530332071 Z" id="Shape" fill="#949494" fill-rule="nonzero"></path>
                <path d="M50.1795023,22.0932244 L47.9791094,22.0932244 C47.9601898,22.0600835 47.9524772,22.021789 47.9571054,21.9839714 C47.9571054,21.1504624 47.9607728,20.3164982 47.9538965,19.4829891 C47.9538965,19.3204753 48.0111984,19.2672145 48.1679764,19.2767742 C48.7387033,19.3118262 49.3140144,19.2886099 49.8815324,19.3555273 C49.9929273,19.3687287 50.1153242,19.3555273 50.1927963,19.4638699 C50.1992141,20.3397144 50.2235102,21.2169246 50.1795023,22.0932244 Z" id="Shape" fill="#949494" fill-rule="nonzero"></path>
                <path d="M50.2175508,15.7242321 L50.2175508,17.1354162 C50.0644401,17.0712301 50.1125737,16.9319325 50.1144073,16.8231348 C50.1176162,16.6410465 50.048854,16.5814126 49.8618206,16.5632038 C49.3575639,16.5144952 48.8533071,16.5308831 48.3518009,16.5176817 C48.0698756,16.509943 48.0497053,16.5354353 48.0464964,16.8076573 C48.0464964,16.9214625 48.0501637,17.0352676 48.0437459,17.1490728 C48.0510806,17.3730414 48.0519974,17.5965547 48.0437459,17.820068 C48.0501637,18.0476784 48.0501637,18.2752887 48.0437459,18.502899 C48.051539,18.6881738 48.0524558,18.8734487 48.0437459,19.0587235 C48.0396202,19.140208 48.0611657,19.2444535 47.9401441,19.2749533 C47.9401441,17.8813711 47.9401441,16.4877889 47.9401441,15.0942067 C48.1235102,15.3705257 48.4256058,15.311347 48.6859856,15.3331976 C49.0623445,15.365063 49.4414538,15.3673391 49.8196464,15.3864584 C50.1694172,15.4028463 50.178127,15.4005702 50.2175508,15.7242321 Z" id="Shape" fill="#949494" fill-rule="nonzero"></path>
                <path d="M50.2175508,15.7242321 C50.1905043,15.4738608 50.0305174,15.4510997 49.8113949,15.447458 C49.2489194,15.4365327 48.6873608,15.3832718 48.1248854,15.3673391 C47.8979699,15.360966 48.0299935,15.1638555 47.9415193,15.0942067 C47.9415193,13.3179357 47.9415193,11.5415129 47.9415193,9.76493843 C47.9540493,9.74490872 47.9664265,9.74490872 47.9786509,9.76493843 C47.9786509,11.0092082 47.9786509,12.253478 47.9786509,13.4977479 C48.1024231,13.67756 48.040537,13.8805884 48.0478716,14.073602 C48.059332,14.3717715 48.0602489,14.3922565 48.3577603,14.3799655 C48.9009823,14.360391 49.440537,14.4291293 49.9823838,14.4300398 C50.0662737,14.4300398 50.151539,14.4336815 50.2175508,14.4987781 C50.2175508,14.9069593 50.2175508,15.315444 50.2175508,15.7242321 Z" id="Shape" fill="#949494" fill-rule="nonzero"></path>
                <path d="M50.2175508,14.4978677 C49.529928,14.515166 48.8473477,14.4159279 48.1606418,14.4523456 C48.0194499,14.4600843 47.9722331,14.4068235 47.9772757,14.2702573 C47.9855272,14.0126024 47.9795678,13.7544923 47.9795678,13.4963822 C48.2110675,13.5114045 48.4439424,13.549643 48.6740668,13.5368968 C49.0990177,13.5136806 49.5170923,13.627941 49.9438769,13.5769563 C50.0392364,13.5653338 50.1321,13.538591 50.218926,13.4977479 C50.2180092,13.8312729 50.2175508,14.1646461 50.2175508,14.4978677 Z" id="Shape" fill="#949494" fill-rule="nonzero"></path>
                <path d="M47.9415193,19.2740428 C48.0208251,19.0204849 47.9571054,18.7605539 47.9786509,18.5042647 C48.053831,18.4359816 48.1478062,18.4373473 48.2381139,18.4432651 C48.7927963,18.4787723 49.3483955,18.4851454 49.9035363,18.5097273 C49.9957282,18.508604 50.0867632,18.5301876 50.1685003,18.5725478 C50.1891595,18.5898634 50.2010699,18.6153506 50.2010478,18.6421966 C50.189129,18.915329 50.2285527,19.1884614 50.1790439,19.4615938 C49.6674525,19.4133404 49.1563196,19.3559826 48.6401441,19.3705496 C48.4884086,19.3746466 48.3288802,19.387848 48.1858546,19.3500647 C48.0024885,19.3013561 47.9763589,19.3719153 47.9772757,19.5253246 C47.9804846,20.3820499 47.9772757,21.23832 47.9772757,22.0950453 C47.924558,22.0695529 47.9337263,22.0203891 47.9337263,21.9766879 C47.9364768,21.074744 47.9390744,20.1738623 47.9415193,19.2740428 Z" id="Shape" fill="#949494" fill-rule="nonzero"></path>
                <path d="M47.9786509,17.1381475 C47.9786509,16.963798 47.9832351,16.7889932 47.9786509,16.615099 C47.9745252,16.4981072 48.0185331,16.4553165 48.137721,16.4534956 C48.7767518,16.4453016 49.4148657,16.4580478 50.0525213,16.4990177 C50.1744597,16.5067564 50.1753766,16.5782261 50.1817944,16.6674493 C50.1932547,16.8231348 50.1400786,16.9861038 50.218926,17.1345057 C50.218926,17.6200744 50.218926,18.1065536 50.218926,18.5939432 C50.2060904,18.6145798 50.1932547,18.6145798 50.1804191,18.5939432 C50.048854,18.3663328 50.129535,18.119148 50.1134905,17.8810676 C50.1089064,17.7608894 50.1061559,17.6398007 50.1134905,17.5196224 C50.1226588,17.3511908 50.0415193,17.2920121 49.881074,17.2956538 C49.3653569,17.3020269 48.8514735,17.2341991 48.335298,17.2501318 C48.2037328,17.2528631 48.0717092,17.2528631 47.9786509,17.1381475 Z" id="Shape" fill="#949494" fill-rule="nonzero"></path>
                <path d="M51.6464309,4.67557142 C52.3340537,4.67192966 53.0216765,4.67056399 53.7060904,4.66373568 C53.8188605,4.66373568 53.8573674,4.70925775 53.8463654,4.81213762 C53.8451888,4.83488366 53.8451888,4.85767468 53.8463654,4.88042072 C53.8463654,7.76773364 53.8463654,10.6550466 53.8463654,13.5423595 C53.8463654,13.5878815 53.8417813,13.6334036 53.8394892,13.6789257 C53.6895874,13.7904547 53.5185986,13.7513058 53.3572364,13.7330969 C52.9726261,13.689851 52.5866405,13.7039628 52.2011133,13.6912166 C51.9966601,13.6843883 51.7711198,13.7262686 51.6262606,13.5173223 C51.6222877,10.6294025 51.6222877,7.74148258 51.6262606,4.8535627 C51.624427,4.79347357 51.6092993,4.73110834 51.6464309,4.67557142 Z" id="Shape" fill="#949494" fill-rule="nonzero"></path>
                <path d="M53.8394892,19.5071158 C53.8394892,19.8617327 53.8394892,20.2168048 53.8486575,20.5714217 C53.8523248,20.7034357 53.802816,20.7380325 53.675835,20.7366668 C52.9992141,20.7298385 52.3225933,20.7293833 51.6459725,20.7271072 C51.5969221,20.3296996 51.6239686,19.930471 51.629928,19.5330634 C51.6326785,19.3559826 51.8032089,19.3992285 51.9150622,19.4019598 C52.324427,19.4119747 52.7333333,19.4379223 53.1431565,19.4383775 C53.3764898,19.4379223 53.6144073,19.4110643 53.8394892,19.5071158 Z" id="Shape" fill="#949494" fill-rule="nonzero"></path>
                <path d="M51.6464309,4.67557142 L51.6464309,13.5419043 C51.7724951,13.7608654 51.7064833,14.0003115 51.7147348,14.2306531 C51.7266536,14.5570463 51.7234447,14.5620538 52.0443353,14.5638746 C52.5307138,14.5670612 53.0143418,14.6298816 53.5016372,14.6153146 C53.6226588,14.6116728 53.7455141,14.6312473 53.8390308,14.7250228 C53.8390308,15.0588512 53.8390308,15.3926797 53.8390308,15.7265082 C53.7739358,15.7834108 53.6964637,15.7615602 53.621742,15.7615602 C53.0528487,15.7642915 52.4848723,15.7283291 51.9168959,15.7046576 C51.6395547,15.6932771 51.6285527,15.6855384 51.6239686,15.4078538 C51.6286627,15.3628308 51.6235023,15.3173323 51.6088409,15.2744741 C51.6065488,15.1911687 51.6019646,15.1078633 51.6019646,15.024558 C51.6019646,11.6595668 51.6019646,8.29442395 51.6019646,4.92912933 C51.6028815,4.84536873 51.5579568,4.74749629 51.6464309,4.67557142 Z" id="Shape" fill="#949494" fill-rule="nonzero"></path>
                <path d="M51.6083824,15.2749293 C51.7138179,15.3718913 51.5483301,15.5758302 51.7294041,15.624994 C51.8573019,15.660046 52.0044532,15.6181657 52.1387688,15.6386506 C52.7030779,15.726053 53.2756385,15.6327328 53.8390308,15.7265082 C53.8390308,16.0451627 53.8390308,16.3638171 53.8390308,16.6824716 C53.7445972,16.7694188 53.6263261,16.7471129 53.5140144,16.753486 C53.0193844,16.7812545 52.5279633,16.707964 52.0347086,16.707964 C51.7248199,16.707964 51.7193189,16.7157027 51.7170269,17.0266184 C51.7170269,17.2150798 51.7225278,17.4039964 51.7129011,17.5924577 C51.7202358,17.8933586 51.7211526,18.1942594 51.7129011,18.4947051 C51.7210403,18.6507412 51.7210403,18.807091 51.7129011,18.9631271 C51.7078585,19.0455221 51.7289456,19.1493124 51.6088409,19.181633 L51.6083824,15.2749293 Z" id="Shape" fill="#949494" fill-rule="nonzero"></path>
                <path d="M53.8390308,14.725478 C53.1752456,14.6685754 52.5096267,14.6412622 51.8444663,14.6385308 C51.6766863,14.6385308 51.6386379,14.5757104 51.643222,14.4250323 C51.6523903,14.1309598 51.6459725,13.836432 51.6459725,13.5419043 C51.8628659,13.5927889 52.0850621,13.6180014 52.307924,13.6170157 C52.6127701,13.6088217 52.9267845,13.5997173 53.2302554,13.6456946 C53.4347086,13.6766496 53.6359528,13.6675452 53.8385724,13.6780152 C53.838878,14.0279282 53.8390308,14.3770824 53.8390308,14.725478 Z" id="Shape" fill="#949494" fill-rule="nonzero"></path>
                <path d="M51.6459725,17.5933682 C51.6459725,17.3448177 51.6560576,17.095812 51.6423052,16.8477167 C51.6326785,16.6733672 51.7000655,16.6323973 51.865095,16.633763 C52.5233792,16.6396809 53.1798297,16.7161579 53.8385724,16.6824716 C53.8385724,17.0163001 53.8385724,17.3501286 53.8385724,17.6839571 C53.713425,17.7877474 53.5635232,17.7604341 53.4237066,17.747688 C52.9194499,17.7021659 52.4092338,17.6967032 51.902685,17.6643826 C51.8119188,17.6584647 51.7197773,17.6598304 51.6459725,17.5933682 Z" id="Shape" fill="#949494" fill-rule="nonzero"></path>
                <path d="M51.6088409,19.1825435 C51.6881467,18.9599406 51.6253438,18.7273228 51.6459725,18.5038095 C51.6927537,18.4643393 51.7535236,18.4451531 51.8146693,18.4505487 C52.4266536,18.4805932 53.0381794,18.5311227 53.651539,18.5279362 C53.7206877,18.5227725 53.7888058,18.546919 53.8390308,18.5943984 C53.8390308,18.8978788 53.8390308,19.2013593 53.8390308,19.5048397 C53.7601834,19.5640184 53.681336,19.5134889 53.6011133,19.5112128 C53.1472823,19.4989218 52.6929928,19.5021084 52.2387033,19.4943696 C52.1108686,19.488271 51.983422,19.4758127 51.8568435,19.4570415 C51.7051081,19.4392879 51.6372626,19.4879965 51.6423052,19.6555178 C51.6533071,20.0115003 51.6455141,20.3683933 51.6455141,20.7243759 C51.5923379,20.6993387 51.5996726,20.6501749 51.5996726,20.6069289 C51.6030343,20.1328925 51.6060904,19.6580973 51.6088409,19.1825435 Z" id="Shape" fill="#949494" fill-rule="nonzero"></path>
                <path d="M53.8394892,18.5948536 C53.2265881,18.6276295 52.6164375,18.5388615 52.0058284,18.5493315 C51.8857236,18.5493315 51.7720367,18.4856007 51.6482646,18.5038095 C51.6482646,18.200329 51.6482646,17.8968486 51.6482646,17.5933682 L53.8413229,17.6844123 C53.8397948,17.9878927 53.8391836,18.2913732 53.8394892,18.5948536 Z" id="Shape" fill="#949494" fill-rule="nonzero"></path>
                <path d="M46.4237066,19.2781398 C46.4237066,20.6134538 46.4256931,21.9487677 46.429666,23.2840817 C46.429666,23.4183717 46.394368,23.4711773 46.2499673,23.4698117 C45.615979,23.4634386 44.9819908,23.4648043 44.3480026,23.4698117 C44.2256058,23.4698117 44.1705959,23.4429537 44.1715128,23.3068427 C44.1779306,21.9338972 44.178389,20.5614069 44.1806811,19.1884614 C44.2540275,19.1179022 44.3480026,19.1133499 44.437852,19.1256409 C45.0191225,19.2039389 45.6068107,19.1461258 46.1885396,19.2103119 C46.2724296,19.2175955 46.3558612,19.2194164 46.4237066,19.2781398 Z" id="Shape" fill="#949494" fill-rule="nonzero"></path>
                <path d="M44.1811395,13.3142939 C44.1788474,13.0347884 44.1811395,12.755283 44.1715128,12.4762327 C44.1664702,12.3446739 44.2173543,12.3096219 44.3425016,12.3109876 C44.9815324,12.3161468 45.6205632,12.3161468 46.259594,12.3109876 C46.3847413,12.3109876 46.4370007,12.3451291 46.4328749,12.4766879 C46.4237066,12.786238 46.4264571,13.095788 46.424165,13.4053381 C46.1802881,13.5318894 45.9199083,13.4790838 45.6682384,13.456778 C45.3138834,13.4253678 44.9595285,13.4422109 44.6051735,13.4240021 C44.4548134,13.4162634 44.2994106,13.4403901 44.1811395,13.3142939 Z" id="Shape" fill="#949494" fill-rule="nonzero"></path>
                <path d="M46.4237066,19.2781398 L44.1806811,19.1870957 C44.1806811,18.8532672 44.1806811,18.5194387 44.1806811,18.1856102 C44.2952849,18.1027601 44.4181401,18.1710432 44.5364113,18.1687671 C45.1167649,18.1555657 45.6939096,18.242968 46.2742633,18.2329532 C46.3281367,18.2283164 46.3817179,18.2446379 46.4237066,18.2784753 L46.4237066,19.2781398 Z" id="Shape" fill="#949494" fill-rule="nonzero"></path>
                <path d="M44.1811395,15.7269634 C44.1811395,15.438657 44.1811395,15.1503506 44.1811395,14.8620442 C44.4240995,14.7204706 44.6853962,14.8165221 44.9393582,14.810149 C45.3326785,14.8019551 45.7264571,14.8383727 46.1206942,14.8401936 C46.2265881,14.8401936 46.3352325,14.8324548 46.4246234,14.9084767 L46.4246234,15.7733959 C46.3746562,15.8576118 46.2953504,15.8644401 46.2073346,15.8603431 C45.6113949,15.841679 45.010871,15.8430447 44.4140144,15.7984331 C44.3287492,15.7906943 44.2462344,15.79206 44.1811395,15.7269634 Z" id="Shape" fill="#949494" fill-rule="nonzero"></path>
                <path d="M44.1811395,15.7269634 C44.8857236,15.757008 45.591683,15.752911 46.2953504,15.8098136 C46.340186,15.8048103 46.3837874,15.7920214 46.424165,15.7720303 C46.424165,16.0603367 46.424165,16.3486431 46.424165,16.6369495 C46.390267,16.6886793 46.3294642,16.7164785 46.2678454,16.7084192 C45.591683,16.695673 44.9168959,16.6583449 44.2416503,16.6210168 C44.2191515,16.61706 44.1982021,16.6069735 44.1811395,16.5918827 C44.1811395,16.3041832 44.1811395,16.0158768 44.1811395,15.7269634 Z" id="Shape" fill="#949494" fill-rule="nonzero"></path>
                <path d="M46.424165,18.2766544 C45.9455796,18.3271839 45.470203,18.2652739 44.994368,18.2356845 C44.7234447,18.2188413 44.4483955,18.2589008 44.1811395,18.1846998 C44.1811395,17.9115674 44.1811395,17.638435 44.1811395,17.3653026 C44.3777996,17.2401169 44.5969221,17.2892808 44.8022921,17.3088552 C45.2487885,17.3511908 45.6971185,17.3543773 46.1440733,17.386698 C46.2426326,17.3939815 46.3430255,17.386698 46.4246234,17.4572572 C46.4243178,17.7303896 46.424165,18.003522 46.424165,18.2766544 Z" id="Shape" fill="#949494" fill-rule="nonzero"></path>
                <path d="M46.4246234,17.4572572 L44.1811395,17.366213 C44.1811395,17.1082547 44.1811395,16.8502963 44.1811395,16.5923379 C44.63644,16.5743626 45.0924332,16.5854625 45.5462999,16.625569 C45.8369352,16.6510614 46.1316961,16.6351287 46.4246234,16.6374048 C46.4246234,16.9105372 46.4246234,17.1838213 46.4246234,17.4572572 Z" id="Shape" fill="#949494" fill-rule="nonzero"></path>
                <path d="M44.1811395,13.3142939 C44.5267845,13.3807561 44.8770138,13.3479803 45.2254093,13.3625473 C45.6251473,13.3793905 46.0235102,13.4230917 46.424165,13.4080694 C46.424165,13.6812018 46.424165,13.9543342 46.424165,14.2274666 C46.289391,14.3289808 46.1321546,14.3075854 45.9840864,14.2889214 C45.4853307,14.2270114 44.981074,14.2734439 44.4827767,14.2083473 C44.3787164,14.1946907 44.2673215,14.2183622 44.1811395,14.135512 C44.1811395,13.8611657 44.1811395,13.5874263 44.1811395,13.3142939 Z" id="Shape" fill="#949494" fill-rule="nonzero"></path>
                <path d="M44.1811395,14.1336911 L46.424165,14.2247353 C46.424165,14.4523456 46.424165,14.6799559 46.424165,14.9075662 L44.1811395,14.8620442 C44.1811395,14.6192598 44.1811395,14.3764755 44.1811395,14.1336911 Z" id="Shape" fill="#949494" fill-rule="nonzero"></path>
                <path d="M35.9814669,51.0133931 L35.9154551,50.9478413 C36.0607728,50.7457233 36.2766863,50.6005079 36.3853307,50.3697111 L36.4265881,50.324189 C36.4708905,50.2615813 36.5202571,50.2026628 36.5741978,50.1480186 L36.5709889,50.1521156 C36.6049366,50.0819318 36.6515478,50.0185194 36.7085134,49.9650199 L36.7053045,49.9686617 C36.7732814,49.8548385 36.8499065,49.7463327 36.9345121,49.6440893 C37.0712045,49.4792458 37.1838567,49.2961207 37.2691552,49.1001006 C37.6239686,48.5538358 37.824296,47.9342805 38.0553373,47.293785 C38.1163065,47.4676793 38.1062213,47.5213954 37.9636542,47.8974076 C37.8936695,48.0810133 37.8241432,48.2647707 37.7550753,48.4486799 C37.5180747,48.9175571 37.2673215,49.3786957 36.986313,49.822991 L36.8359528,50.0337582 C36.8125737,50.1152427 36.7479371,50.1675931 36.6984283,50.2295031 L36.6984283,50.2267718 C36.4490504,50.4839714 36.2533071,50.7816858 35.9814669,51.0133931 Z" id="Shape" fill="#949494" fill-rule="nonzero"></path>
                <path d="M53.5144728,35.351071 C53.6717092,35.6669941 53.7766863,35.9883799 53.7152587,36.3525564 C53.61074,36.9721117 53.024427,37.4764962 52.3794368,37.4764962 C51.7344466,37.4764962 51.1481336,36.9721117 51.0436149,36.3525564 C50.9821873,35.9883799 51.0894565,35.6665389 51.2439424,35.351071 C51.3403516,35.1931973 51.4713396,35.058921 51.6271775,34.9582155 C52.2061559,34.5471513 53.2128356,34.7588289 53.5144728,35.351071 Z" id="Shape" fill="#737373" fill-rule="nonzero"></path>
                <path d="M53.4337917,35.1648857 C53.3567394,35.1223928 53.2932168,35.0593129 53.2504257,34.9827975 C53.675835,34.9145144 54.0916176,35.0342374 54.5133595,35.0469836 C54.7471513,35.0542671 54.9800262,35.1102592 55.2138179,35.1152667 C55.5395861,35.1289423 55.8644247,35.1593309 56.1870334,35.2063108 C56.6454486,35.2636686 57.1084479,35.2868849 57.5654879,35.351071 C58.0376555,35.4175332 58.5148657,35.4029661 58.986575,35.5067564 C59.29463,35.5741291 59.6338572,35.5413532 59.9579568,35.5750395 L62.0368697,35.7908141 C62.3545514,35.82359 62.6736084,35.7940007 62.9926654,35.8431645 C63.5003621,35.9283081 64.0124413,35.985299 64.5265226,36.0138723 C64.9390963,36.0307154 65.348461,36.0971776 65.7601179,36.1281326 C66.4532417,36.1800278 67.1413229,36.2920121 67.8390308,36.3102209 C68.0187295,36.3143179 68.197053,36.3666683 68.3762934,36.3967128 C68.3680419,36.4504289 68.3937132,36.5382865 68.2887361,36.5096076 C67.8729535,36.3962576 67.4360838,36.4577124 67.0230517,36.3807801 C66.3445972,36.2542288 65.6555992,36.2392065 64.9748527,36.1563563 C64.6599214,36.1181178 64.3257367,36.0625809 63.9979699,36.0803345 C63.7348396,36.0949015 63.4845449,35.9892903 63.2333333,35.9892903 C62.8899804,35.9892903 62.5626719,35.8281422 62.2087754,35.9296564 C61.9960707,35.990656 61.7824492,35.8572763 61.5601179,35.8417988 C60.7152587,35.7835306 59.867649,35.7270832 59.0314997,35.6037184 C58.7532417,35.5627486 58.4497708,35.5044803 58.1935167,35.5172265 C57.5764898,35.5477263 56.9933857,35.3751977 56.3928618,35.3292204 C55.7469548,35.2796013 55.0895874,35.2805118 54.4519319,35.1316546 C54.2740668,35.0902295 54.0989522,35.1940198 53.9123772,35.1316546 C53.8184021,35.0993339 53.7024231,35.105707 53.6034054,35.0665581 C53.497053,35.0201255 53.4457105,35.056088 53.4337917,35.1648857 Z" id="Shape" fill="#949494" fill-rule="nonzero"></path>
                <path d="M50.1790439,17.8665006 L50.1790439,18.5948536 C49.7554682,18.5365854 49.3263916,18.5452346 48.9018991,18.5306675 C48.5956778,18.5197422 48.2871644,18.4664814 47.9786509,18.5038095 L47.9786509,17.8209785 C48.0597904,17.7490536 48.162017,17.7526954 48.259201,17.7513297 C48.8290111,17.743591 49.397446,17.7859265 49.9667976,17.7968518 C50.0438144,17.7929938 50.1195065,17.8178322 50.1790439,17.8665006 Z" id="Shape" fill="#949494" fill-rule="nonzero"></path>
                <path d="M50.1790439,17.8665006 L47.9786509,17.8209785 C47.9786509,17.5933682 47.9786509,17.3657578 47.9786509,17.1381475 C48.1707269,17.2068858 48.3701375,17.1777517 48.5667976,17.1836696 C49.0362148,17.1986918 49.505632,17.2209977 49.9755075,17.2250946 C50.1377865,17.2250946 50.1927963,17.2783555 50.1808775,17.4349514 C50.1707924,17.5783459 50.1790439,17.7226508 50.1790439,17.8665006 Z" id="Shape" fill="#949494" fill-rule="nonzero"></path>
            </g>
        </g>
    </g>
</svg>