<?xml version="1.0" encoding="UTF-8"?>
<svg width="131px" height="41px" viewBox="0 0 131 41" version="1.1" xmlns="http://www.w3.org/2000/svg" xmlns:xlink="http://www.w3.org/1999/xlink">
    <!-- Generator: Sketch 49.1 (51147) - http://www.bohemiancoding.com/sketch -->
    <title>TNW</title>
    <desc>Created with Sketch.</desc>
    <defs></defs>
    <g id="Page-1" stroke="none" stroke-width="1" fill="none" fill-rule="evenodd">
        <g id="mainPageQuartz" transform="translate(-687.000000, -2216.000000)" fill="#949494" fill-rule="nonzero">
            <g id="mainPage">
                <g id="press" transform="translate(287.000000, 2216.000000)">
                    <g id="TNW" transform="translate(400.000000, 0.000000)">
                        <path d="M116.500035,0.00146423342 L110.019463,19.0136567 L106.025985,3.51562444 C105.120623,0 103.955957,0 103.293124,0 C103.293124,0 101.83972,0.000292846684 100.387198,0.413792365 L97.255814,14.2200493 L103.301071,41 L115.368628,41 L130.627907,0.00146423342 L116.500035,0.00146423342 Z" id="Shape"></path>
                        <path d="M86.0653808,19.0610773 L81.2432559,3.54788826 C80.2125815,0.232523589 78.7335637,0 77.8377358,0 C77.8377358,0 76.1557324,0 74.372093,0.413505425 L74.372093,24.5066391 L80.670659,40.9997071 L82.512417,41 L88.6744186,40.5864946 L86.0653808,19.0610773 Z" id="Shape"></path>
                        <path d="M103.930233,0 L92.9401085,0.00263577088 C92.1184694,0.00263577088 89.9458348,1.09755249e-10 89.3470982,3.51348243 L82.9534884,41 L92.9740606,41 L101.217023,3.51348243 C101.989948,-0.000878590146 103.684597,1.0975395e-10 103.930233,0 Z" id="Shape"></path>
                        <path d="M38.1395349,0.412342857 C38.1395349,0.412342857 36.3991162,0 34.6589876,0 L0,0 L4.29651357,11.7142857 L14.9339525,11.7142857 L14.9339525,41 L26.5367437,41 L26.5367437,11.7142857 L38.1395349,11.7142857 L38.1395349,0.412342857 Z" id="Shape"></path>
                        <path d="M67.0515281,0.000292844592 C65.1154204,0.000292844592 63.5451454,1.57491822 63.5451454,3.51559933 L63.5451454,18.2969301 L50.9396994,2.32313615 C49.7922357,0.804444095 47.9475861,0.00790680399 46.2849763,0.00790680399 L34.3255814,0.00175706755 C34.3255814,0.00175706755 37.2472748,0.00175706755 37.2472748,3.51618502 L37.2472748,41 L48.9352173,41 L48.9352173,18.6632787 L64.8413382,38.8209434 C66.0039963,40.2655458 67.7116047,41.0105424 69.4300244,40.9991215 L75.2330878,40.9991215 L75.2330878,3.51501364 C75.2330878,1.43845264 76.5541175,0 78.1860465,0 L67.0515281,0.000292844592 Z" id="Shape"></path>
                    </g>
                </g>
            </g>
        </g>
    </g>
</svg>