<svg xmlns="http://www.w3.org/2000/svg" xmlns:xlink="http://www.w3.org/1999/xlink" width="116" height="111" viewBox="0 0 116 111"><defs><path id="gcjga" d="M1339.73 1778.56c4.73-2.18 7.73-6.69 7.72-11.62 0-7.13-6.16-12.92-13.75-12.92-7.6 0-13.76 5.79-13.76 12.92 0 4.94 3 9.44 7.72 11.62v15.95h12.07v-15.95zm-50.06-4.3c0-22.8 19.75-41.34 44.03-41.34 19.8 0 36.6 12.35 42.1 29.28h15.18c-5.85-24.65-29.28-43.07-57.28-43.07-32.42 0-58.7 24.68-58.7 55.13 0 30.45 26.28 55.14 58.7 55.14 28 0 51.43-18.43 57.28-43.07h-15.17c-5.52 16.93-22.3 29.28-42.11 29.28-24.28 0-44.03-18.54-44.03-41.35z"/></defs><g><g transform="translate(-1275 -1719)"><use fill="#3ab03e" xlink:href="#gcjga"/></g></g></svg>