<svg xmlns="http://www.w3.org/2000/svg" xmlns:xlink="http://www.w3.org/1999/xlink" width="117" height="111" viewBox="0 0 117 111"><defs><path id="zw6da" d="M639.87 1795.43l-7.08 21.71-13.91-3.45z"/><path id="zw6db" d="M618.88 1813.7l13.41-16.66 7.58-1.61z"/><path id="zw6dc" d="M632.3 1797.04l-2.85-17.98 10.42 16.37zm3.86-22.19l-6.71 4.21 10.42 16.37z"/><path id="zw6dd" d="M640.2 1759.53l-.96 3.92-18.32 3.24zm-1.57 8.63l.6-4.7-18.31 3.23z"/><path id="zw6de" d="M638.63 1768.16l-2.47 6.69-15.24-8.16zm3.86-6.97l-3.25 2.26.96-3.92zm-3.86 6.97l.6-4.7 2.6 1.94z"/><path id="zw6df" d="M603.93 1808.4l4.82 1.4 10.13 3.89z"/><path id="zw6dg" d="M640.74 1769.64l-2.12-1.48-2.47 6.69zm-19.83-2.95l-4.76 2.18 20 5.98z"/><path id="zw6dh" d="M625.67 1746.19l-4.76 20.5-4.76 2.19z"/><path id="zw6di" d="M640.2 1759.53l-19.28 7.16 4.76-20.5z"/><path id="zw6dj" d="M625.68 1746.19l20.12-2.11-5.6 15.45z"/><path id="zw6dk" d="M636.15 1774.84l-6.7 4.21-13.3-10.18z"/><path id="zw6dl" d="M644.93 1729.32l.87 14.76-20.12 2.1z"/><path id="zw6dm" d="M644.92 1729.32l-40.2 26.5-.53-17.97z"/><path id="zw6dn" d="M574.29 1735.69l29.9 2.16.53 17.97z"/><path id="zw6do" d="M616.16 1768.88l-11.44-13.06 20.96-9.63z"/><path id="zw6dp" d="M616.15 1768.87l13.3 10.18-18.67 1.87z"/><path id="zw6dq" d="M610.79 1780.93l-6.07-25.11 11.44 13.05z"/><path id="zw6dr" d="M625.68 1746.19l-20.96 9.63 40.21-26.5z"/><path id="zw6ds" d="M574.56 1813.27l9.49 8.98-12.92-10.66z"/><path id="zw6dt" d="M618.88 1813.69l4.5-15.5 8.91-1.16z"/><path id="zw6du" d="M536.05 1770.09l16.43-15.66-14.31 13.79z"/><path id="zw6dv" d="M629.45 1779.06l-6.07 19.13 8.92-1.15zm-55.16-43.37l14.43 19.66 16 .47z"/><path id="zw6dw" d="M629.45 1779.06l-6.07 19.13-.49-9.34z"/><path id="zw6dx" d="M610.78 1780.93l18.67-1.87-6.56 9.79z"/><path id="zw6dy" d="M588.72 1755.35l16 .47 6.06 25.11z"/><path id="zw6dz" d="M574.29 1735.68l-28.74-16.55 43.17 36.21zm-45.03 67.7l7.49 25.91 37.51-10.52z"/><path id="zw6dA" d="M541.63 1776.56l14.17-10.08 11.87 2.5z"/><path id="zw6dB" d="M567.67 1768.98l-11.87-2.5 6.36-23.79z"/><path id="zw6dC" d="M538.17 1768.22l17.62-1.74-14.17 10.08z"/><path id="zw6dD" d="M622.89 1788.85l-7.32-3.34-4.79-4.58z"/><path id="zw6dE" d="M538.18 1768.21l-1.25-5.97 18.87 4.24z"/><path id="zw6dF" d="M614.06 1793.04l1.51-7.53 7.32 3.34z"/><path id="zw6dG" d="M623.38 1798.2l-9.32-5.17 8.83-4.18z"/><path id="zw6dH" d="M536.93 1762.24l-1.54-5.02 20.41 9.26zm25.23-19.55l-26.77 14.53 20.41 9.26zm5.51 26.3l21.05-13.64-26.56-12.66z"/><path id="zw6dI" d="M588.72 1755.35l9.38 25.97-30.43-12.34zM569 1780.77l29.09.55-30.43-12.34z"/><path id="zw6dJ" d="M569 1780.77l-1.33-11.79-26.04 7.58zm19.72-25.42l9.38 25.97 12.68-.39z"/><path id="zw6dK" d="M615.57 1785.5l-1.5 7.54-3.29-12.11z"/><path id="zw6dL" d="M545.55 1719.13l43.17 36.21-26.56-12.66z"/><path id="zw6dM" d="M529.26 1803.38l36.4-1.37 8.6 16.76z"/><path id="zw6dN" d="M574.26 1818.77l-8.59-16.76 17.88-.79z"/><path id="zw6dO" d="M614.06 1793.03l9.32 5.16 5.14 10.98zm-72.43-16.47l27.38 4.21-39.75 22.6zm24.04 25.45l3.34-21.24-39.75 22.6zm47.5-13.24l-11.5.6 9.11-8.44zm-15.07-7.45l3.57 8.06 9.11-8.45z"/><path id="zw6dP" d="M584.04 1822.24l-9.78-3.47 34.03 5.18z"/><path id="zw6dQ" d="M541.62 1776.56l-5.57-6.47 2.12-1.87z"/><path id="zw6dR" d="M612.15 1820.11l-3.86 3.84-34.03-5.18z"/><path id="zw6dS" d="M613.98 1810.7l-39.72 8.07 9.29-17.55z"/><path id="zw6dT" d="M574.26 1818.77l39.72-8.08-1.83 9.42z"/><path id="zw6dU" d="M535.39 1757.22l-1.31-20.24 28.07 5.71zm2.78 11l-3.86-3.55 2.62-2.43z"/><path id="zw6dV" d="M591.59 1786.53l6.5-5.21-.93 12.74z"/><path id="zw6dW" d="M598.1 1781.32l-6.5 5.21-9.47 4.45z"/><path id="zw6dX" d="M628.52 1809.16l-1.77-1.18-12.69-14.95z"/><path id="zw6dY" d="M582.13 1790.98l-13.12-10.21 29.09.55z"/><path id="zw6dZ" d="M597.17 1794.06l.93-12.74 3.57 8.05z"/><path id="zw6daa" d="M533.04 1759.22l2.35-2 1.54 5.03z"/><path id="zw6dab" d="M597.17 1794.06l-15.04-3.08 9.46-4.45z"/><path id="zw6dac" d="M562.15 1742.68l-28.07-5.7 11.47-17.85z"/><path id="zw6dad" d="M608.3 1823.95l1.59 3.95-25.84-5.66z"/><path id="zw6dae" d="M583.55 1801.22l-1.42-10.24 15.04 3.08z"/><path id="zw6daf" d="M569.01 1780.77l13.12 10.21 1.43 10.24z"/><path id="zw6dag" d="M626.75 1807.98l-13.58-19.21-11.5.6zm-61.08-5.97l17.88-.8-14.54-20.44z"/><path id="zw6dah" d="M601.67 1789.37l14.28 19.71-18.78-15.03z"/><path id="zw6dai" d="M597.17 1794.06l18.78 15.03-1.97 1.6z"/><path id="zw6daj" d="M613.98 1810.69l-30.43-9.48 13.62-7.16zm12.77-2.71l-10.8 1.1-14.28-19.71z"/><path id="zw6dak" d="M629.6 1817.24l-4.65 8.45-15.06 2.2zm-19.71 10.66l-1.6-3.95 3.86-3.84z"/><path id="zw6dal" d="M612.14 1820.1l2.85-1.02-5.11 8.82zm17.45-2.86l-14.6 1.84-5.11 8.82z"/><path id="zw6dam" d="M626.75 1807.98l3.57 1.97-10.86 1.19z"/><path id="zw6dan" d="M626.75 1807.98l-10.8 1.1 3.51 2.06zm2.85 9.26l1.82-6-13.2 1.45z"/><path id="zw6dao" d="M629.6 1817.25l-14.6 1.84 3.22-6.4zm-14.6 1.84l-2.85 1.03 1.83-9.42zm-1.02-8.4l1.97-1.6 3.52 2.05zm16.34-.73l1.1 1.29-13.2 1.45z"/><path id="zw6dap" d="M630.33 1809.95l-10.86 1.18-1.25 1.56zm-15.33 9.13l3.22-6.4-4.24-2z"/><path id="zw6daq" d="M619.47 1811.14l-1.25 1.55-4.24-2z"/></defs><g><g transform="translate(-529 -1719)"><g><use fill="#e3761b" xlink:href="#zw6da"/><use fill="#fff" fill-opacity="0" stroke="#e3761b" stroke-miterlimit="50" stroke-width=".5" xlink:href="#zw6da"/></g><g><use fill="#e3761b" xlink:href="#zw6db"/><use fill="#fff" fill-opacity="0" stroke="#e3761b" stroke-miterlimit="50" stroke-width=".5" xlink:href="#zw6db"/></g><g><use fill="#f6851b" xlink:href="#zw6dc"/><use fill="#fff" fill-opacity="0" stroke="#f6851b" stroke-miterlimit="50" stroke-width=".5" xlink:href="#zw6dc"/></g><g><use fill="#763c16" xlink:href="#zw6dd"/><use fill="#fff" fill-opacity="0" stroke="#763c16" stroke-miterlimit="50" stroke-width=".5" xlink:href="#zw6dd"/></g><g><use fill="#763c16" xlink:href="#zw6de"/><use fill="#fff" fill-opacity="0" stroke="#763c16" stroke-miterlimit="50" stroke-width=".5" xlink:href="#zw6de"/></g><g><use fill="#e2761b" xlink:href="#zw6df"/><use fill="#fff" fill-opacity="0" stroke="#e2761b" stroke-miterlimit="50" stroke-width=".5" xlink:href="#zw6df"/></g><g><use fill="#763c16" xlink:href="#zw6dg"/><use fill="#fff" fill-opacity="0" stroke="#763c16" stroke-miterlimit="50" stroke-width=".5" xlink:href="#zw6dg"/></g><g><use fill="#763c16" xlink:href="#zw6dh"/><use fill="#fff" fill-opacity="0" stroke="#763c16" stroke-miterlimit="50" stroke-width=".5" xlink:href="#zw6dh"/></g><g><use fill="#763c16" xlink:href="#zw6di"/><use fill="#fff" fill-opacity="0" stroke="#763c16" stroke-miterlimit="50" stroke-width=".5" xlink:href="#zw6di"/></g><g><use fill="#763c16" xlink:href="#zw6dj"/><use fill="#fff" fill-opacity="0" stroke="#763c16" stroke-miterlimit="50" stroke-width=".5" xlink:href="#zw6dj"/></g><g><use fill="#f6851b" xlink:href="#zw6dk"/><use fill="#fff" fill-opacity="0" stroke="#f6851b" stroke-miterlimit="50" stroke-width=".5" xlink:href="#zw6dk"/></g><g><use fill="#763c16" xlink:href="#zw6dl"/><use fill="#fff" fill-opacity="0" stroke="#763c16" stroke-miterlimit="50" stroke-width=".5" xlink:href="#zw6dl"/></g><g><use fill="#e2761b" xlink:href="#zw6dm"/><use fill="#fff" fill-opacity="0" stroke="#e2761b" stroke-miterlimit="50" stroke-width=".5" xlink:href="#zw6dm"/></g><g><use fill="#f6851b" xlink:href="#zw6dn"/><use fill="#fff" fill-opacity="0" stroke="#f6851b" stroke-miterlimit="50" stroke-width=".5" xlink:href="#zw6dn"/></g><g><use fill="#763c16" xlink:href="#zw6do"/><use fill="#fff" fill-opacity="0" stroke="#763c16" stroke-miterlimit="50" stroke-width=".5" xlink:href="#zw6do"/></g><g><use fill="#e3761b" xlink:href="#zw6dp"/><use fill="#fff" fill-opacity="0" stroke="#e3761b" stroke-miterlimit="50" stroke-width=".5" xlink:href="#zw6dp"/></g><g><use fill="#e3761b" xlink:href="#zw6dq"/><use fill="#fff" fill-opacity="0" stroke="#e3761b" stroke-miterlimit="50" stroke-width=".5" xlink:href="#zw6dq"/></g><g><use fill="#763c16" xlink:href="#zw6dr"/><use fill="#fff" fill-opacity="0" stroke="#763c16" stroke-miterlimit="50" stroke-width=".5" xlink:href="#zw6dr"/></g><g><use fill="#c0ad9e" xlink:href="#zw6ds"/><use fill="#fff" fill-opacity="0" stroke="#c0ad9e" stroke-miterlimit="50" stroke-width=".5" xlink:href="#zw6ds"/></g><g><use fill="#cd6116" xlink:href="#zw6dt"/><use fill="#fff" fill-opacity="0" stroke="#cd6116" stroke-miterlimit="50" stroke-width=".5" xlink:href="#zw6dt"/></g><g><use fill="#e2761b" xlink:href="#zw6du"/><use fill="#fff" fill-opacity="0" stroke="#e2761b" stroke-miterlimit="50" stroke-width=".5" xlink:href="#zw6du"/></g><g><use fill="#f6851b" xlink:href="#zw6dv"/><use fill="#fff" fill-opacity="0" stroke="#f6851b" stroke-miterlimit="50" stroke-width=".5" xlink:href="#zw6dv"/></g><g><use fill="#e3751f" xlink:href="#zw6dw"/><use fill="#fff" fill-opacity="0" stroke="#e3751f" stroke-miterlimit="50" stroke-width=".5" xlink:href="#zw6dw"/></g><g><use fill="#cd6116" xlink:href="#zw6dx"/><use fill="#fff" fill-opacity="0" stroke="#cd6116" stroke-miterlimit="50" stroke-width=".5" xlink:href="#zw6dx"/></g><g><use fill="#f6851b" xlink:href="#zw6dy"/><use fill="#fff" fill-opacity="0" stroke="#f6851b" stroke-miterlimit="50" stroke-width=".5" xlink:href="#zw6dy"/></g><g><use fill="#e3761b" xlink:href="#zw6dz"/><use fill="#fff" fill-opacity="0" stroke="#e3761b" stroke-miterlimit="50" stroke-width=".5" xlink:href="#zw6dz"/></g><g><use fill="#763c16" xlink:href="#zw6dA"/><use fill="#fff" fill-opacity="0" stroke="#763c16" stroke-miterlimit="50" stroke-width=".5" xlink:href="#zw6dA"/></g><g><use fill="#763c16" xlink:href="#zw6dB"/><use fill="#fff" fill-opacity="0" stroke="#763c16" stroke-miterlimit="50" stroke-width=".5" xlink:href="#zw6dB"/></g><g><use fill="#763c16" xlink:href="#zw6dC"/><use fill="#fff" fill-opacity="0" stroke="#763c16" stroke-miterlimit="50" stroke-width=".5" xlink:href="#zw6dC"/></g><g><use fill="#cd6116" xlink:href="#zw6dD"/><use fill="#fff" fill-opacity="0" stroke="#cd6116" stroke-miterlimit="50" stroke-width=".5" xlink:href="#zw6dD"/></g><g><use fill="#763c16" xlink:href="#zw6dE"/><use fill="#fff" fill-opacity="0" stroke="#763c16" stroke-miterlimit="50" stroke-width=".5" xlink:href="#zw6dE"/></g><g><use fill="#223447" xlink:href="#zw6dF"/><use fill="#fff" fill-opacity="0" stroke="#223447" stroke-miterlimit="50" stroke-width=".5" xlink:href="#zw6dF"/></g><g><use fill="#f6851b" xlink:href="#zw6dG"/><use fill="#fff" fill-opacity="0" stroke="#f6851b" stroke-miterlimit="50" stroke-width=".5" xlink:href="#zw6dG"/></g><g><use fill="#763c16" xlink:href="#zw6dH"/><use fill="#fff" fill-opacity="0" stroke="#763c16" stroke-miterlimit="50" stroke-width=".5" xlink:href="#zw6dH"/></g><g><use fill="#e3761b" xlink:href="#zw6dI"/><use fill="#fff" fill-opacity="0" stroke="#e3761b" stroke-miterlimit="50" stroke-width=".5" xlink:href="#zw6dI"/></g><g><use fill="#f6851b" xlink:href="#zw6dJ"/><use fill="#fff" fill-opacity="0" stroke="#f6851b" stroke-miterlimit="50" stroke-width=".5" xlink:href="#zw6dJ"/></g><g><use fill="#cd6116" xlink:href="#zw6dK"/><use fill="#fff" fill-opacity="0" stroke="#cd6116" stroke-miterlimit="50" stroke-width=".5" xlink:href="#zw6dK"/></g><g><use fill="#763c16" xlink:href="#zw6dL"/><use fill="#fff" fill-opacity="0" stroke="#763c16" stroke-miterlimit="50" stroke-width=".5" xlink:href="#zw6dL"/></g><g><use fill="#e3761b" xlink:href="#zw6dM"/><use fill="#fff" fill-opacity="0" stroke="#e3761b" stroke-miterlimit="50" stroke-width=".5" xlink:href="#zw6dM"/></g><g><use fill="#cd6116" xlink:href="#zw6dN"/><use fill="#fff" fill-opacity="0" stroke="#cd6116" stroke-miterlimit="50" stroke-width=".5" xlink:href="#zw6dN"/></g><g><use fill="#f6851b" xlink:href="#zw6dO"/><use fill="#fff" fill-opacity="0" stroke="#f6851b" stroke-miterlimit="50" stroke-width=".5" xlink:href="#zw6dO"/></g><g><use fill="#c0ad9e" xlink:href="#zw6dP"/><use fill="#fff" fill-opacity="0" stroke="#c0ad9e" stroke-miterlimit="50" stroke-width=".5" xlink:href="#zw6dP"/></g><g><use fill="#763c16" xlink:href="#zw6dQ"/><use fill="#fff" fill-opacity="0" stroke="#763c16" stroke-miterlimit="50" stroke-width=".5" xlink:href="#zw6dQ"/></g><g><use fill="#d7c1b3" xlink:href="#zw6dR"/><use fill="#fff" fill-opacity="0" stroke="#d7c1b3" stroke-miterlimit="50" stroke-width=".5" xlink:href="#zw6dR"/></g><g><use fill="#e3761b" xlink:href="#zw6dS"/><use fill="#fff" fill-opacity="0" stroke="#e3761b" stroke-miterlimit="50" stroke-width=".5" xlink:href="#zw6dS"/></g><g><use fill="#d7c1b3" xlink:href="#zw6dT"/><use fill="#fff" fill-opacity="0" stroke="#d7c1b3" stroke-miterlimit="50" stroke-width=".5" xlink:href="#zw6dT"/></g><g><use fill="#763c16" xlink:href="#zw6dU"/><use fill="#fff" fill-opacity="0" stroke="#763c16" stroke-miterlimit="50" stroke-width=".5" xlink:href="#zw6dU"/></g><g><use fill="#cd6116" xlink:href="#zw6dV"/><use fill="#fff" fill-opacity="0" stroke="#cd6116" stroke-miterlimit="50" stroke-width=".5" xlink:href="#zw6dV"/></g><g><use fill="#cd6116" xlink:href="#zw6dW"/><use fill="#fff" fill-opacity="0" stroke="#cd6116" stroke-miterlimit="50" stroke-width=".5" xlink:href="#zw6dW"/></g><g><use fill="#f6851b" xlink:href="#zw6dX"/><use fill="#fff" fill-opacity="0" stroke="#f6851b" stroke-miterlimit="50" stroke-width=".5" xlink:href="#zw6dX"/></g><g><use fill="#cd6116" xlink:href="#zw6dY"/><use fill="#fff" fill-opacity="0" stroke="#cd6116" stroke-miterlimit="50" stroke-width=".5" xlink:href="#zw6dY"/></g><g><use fill="#e3751f" xlink:href="#zw6dZ"/><use fill="#fff" fill-opacity="0" stroke="#e3751f" stroke-miterlimit="50" stroke-width=".5" xlink:href="#zw6dZ"/></g><g><use fill="#763c16" xlink:href="#zw6daa"/><use fill="#fff" fill-opacity="0" stroke="#763c16" stroke-miterlimit="50" stroke-width=".5" xlink:href="#zw6daa"/></g><g><use fill="#223447" xlink:href="#zw6dab"/><use fill="#fff" fill-opacity="0" stroke="#223447" stroke-miterlimit="50" stroke-width=".5" xlink:href="#zw6dab"/></g><g><use fill="#763c16" xlink:href="#zw6dac"/><use fill="#fff" fill-opacity="0" stroke="#763c16" stroke-miterlimit="50" stroke-width=".5" xlink:href="#zw6dac"/></g><g><use fill="#c0ad9e" xlink:href="#zw6dad"/><use fill="#fff" fill-opacity="0" stroke="#c0ad9e" stroke-miterlimit="50" stroke-width=".5" xlink:href="#zw6dad"/></g><g><use fill="#f6851b" xlink:href="#zw6dae"/><use fill="#fff" fill-opacity="0" stroke="#f6851b" stroke-miterlimit="50" stroke-width=".5" xlink:href="#zw6dae"/></g><g><use fill="#e3751f" xlink:href="#zw6daf"/><use fill="#fff" fill-opacity="0" stroke="#e3751f" stroke-miterlimit="50" stroke-width=".5" xlink:href="#zw6daf"/></g><g><use fill="#f6851b" xlink:href="#zw6dag"/><use fill="#fff" fill-opacity="0" stroke="#f6851b" stroke-miterlimit="50" stroke-width=".5" xlink:href="#zw6dag"/></g><g><use fill="#e3751f" xlink:href="#zw6dah"/><use fill="#fff" fill-opacity="0" stroke="#e3751f" stroke-miterlimit="50" stroke-width=".5" xlink:href="#zw6dah"/></g><g><use fill="#f6851b" xlink:href="#zw6dai"/><use fill="#fff" fill-opacity="0" stroke="#f6851b" stroke-miterlimit="50" stroke-width=".5" xlink:href="#zw6dai"/></g><g><use fill="#f6851b" xlink:href="#zw6daj"/><use fill="#fff" fill-opacity="0" stroke="#f6851b" stroke-miterlimit="50" stroke-width=".5" xlink:href="#zw6daj"/></g><g><use fill="#c0ad9e" xlink:href="#zw6dak"/><use fill="#fff" fill-opacity="0" stroke="#c0ad9e" stroke-miterlimit="50" stroke-width=".5" xlink:href="#zw6dak"/></g><g><use fill="#c0ad9e" xlink:href="#zw6dal"/><use fill="#fff" fill-opacity="0" stroke="#c0ad9e" stroke-miterlimit="50" stroke-width=".5" xlink:href="#zw6dal"/></g><g><use fill="#161616" xlink:href="#zw6dam"/><use fill="#fff" fill-opacity="0" stroke="#161616" stroke-miterlimit="50" stroke-width=".5" xlink:href="#zw6dam"/></g><g><use fill="#161616" xlink:href="#zw6dan"/><use fill="#fff" fill-opacity="0" stroke="#161616" stroke-miterlimit="50" stroke-width=".5" xlink:href="#zw6dan"/></g><g><use fill="#161616" xlink:href="#zw6dao"/><use fill="#fff" fill-opacity="0" stroke="#161616" stroke-miterlimit="50" stroke-width=".5" xlink:href="#zw6dao"/></g><g><use fill="#161616" xlink:href="#zw6dap"/><use fill="#fff" fill-opacity="0" stroke="#161616" stroke-miterlimit="50" stroke-width=".5" xlink:href="#zw6dap"/></g><g><use fill="#161616" xlink:href="#zw6daq"/><use fill="#fff" fill-opacity="0" stroke="#161616" stroke-miterlimit="50" stroke-width=".5" xlink:href="#zw6daq"/></g></g></g></svg>