<?xml version="1.0" encoding="UTF-8"?>
<svg width="1920px" height="2067px" viewBox="0 0 1920 2067" version="1.1" xmlns="http://www.w3.org/2000/svg" xmlns:xlink="http://www.w3.org/1999/xlink">
    <!-- Generator: Sketch 49.1 (51147) - http://www.bohemiancoding.com/sketch -->
    <title>bg</title>
    <desc>Created with Sketch.</desc>
    <defs>
        <rect id="path-1" x="0" y="0" width="1920" height="2067"></rect>
        <filter x="-0.9%" y="-0.8%" width="101.8%" height="101.7%" filterUnits="objectBoundingBox" id="filter-3">
            <feGaussianBlur stdDeviation="3.21428571" in="SourceGraphic"></feGaussianBlur>
        </filter>
        <filter x="-0.8%" y="-0.8%" width="101.6%" height="101.7%" filterUnits="objectBoundingBox" id="filter-4">
            <feGaussianBlur stdDeviation="3" in="SourceGraphic"></feGaussianBlur>
        </filter>
        <filter x="-0.7%" y="-0.6%" width="101.4%" height="101.3%" filterUnits="objectBoundingBox" id="filter-5">
            <feGaussianBlur stdDeviation="3" in="SourceGraphic"></feGaussianBlur>
        </filter>
        <filter x="-0.6%" y="-0.5%" width="101.2%" height="101.1%" filterUnits="objectBoundingBox" id="filter-6">
            <feGaussianBlur stdDeviation="3" in="SourceGraphic"></feGaussianBlur>
        </filter>
        <radialGradient cx="0%" cy="0%" fx="0%" fy="0%" r="146.934911%" gradientTransform="translate(0.000000,0.000000),scale(1.000000,0.928882),rotate(47.111529),translate(-0.000000,-0.000000)" id="radialGradient-7">
            <stop stop-color="#393794" offset="0%"></stop>
            <stop stop-color="#353388" stop-opacity="0.886691886" offset="8.57031968%"></stop>
            <stop stop-color="#2E2C70" stop-opacity="0.652281868" offset="36.8726562%"></stop>
            <stop stop-color="#292861" stop-opacity="0.504974303" offset="74.0433143%"></stop>
            <stop stop-color="#262557" stop-opacity="0.406404401" offset="89.3763652%"></stop>
            <stop stop-color="#19182D" stop-opacity="0" offset="100%"></stop>
        </radialGradient>
    </defs>
    <g id="Page-1" stroke="none" stroke-width="1" fill="none" fill-rule="evenodd">
        <g id="mainPageQuartz">
            <g id="mainPage">
                <g id="headerBlock">
                    <g id="bg">
                        <g id="echo">
                            <mask id="mask-2" fill="white">
                                <use xlink:href="#path-1"></use>
                            </mask>
                            <use id="bg2" fill="#19192E" xlink:href="#path-1"></use>
                            <g id="lines" opacity="0.35" mask="url(#mask-2)" stroke-width="5">
                                <g transform="translate(-245.000000, -221.000000)">
                                    <path d="M4,1438 C471.001095,1149.60019 794.107909,910.433519 973.320442,720.499999 C1152.53298,530.56648 1280.7595,291.399813 1358,3" id="Line-6-Copy" stroke="#2E2D67"></path>
                                    <path d="M0,1435 C467.001095,1146.60019 790.107909,907.433519 969.320442,717.499999 C1148.53298,527.56648 1276.7595,288.399813 1354,0" id="Line-6-Copy-Copy" stroke="#000000" filter="url(#filter-3)"></path>
                                    <path d="M823,2432 C1290.00109,2143.60018 1598.30604,1925.39197 1777.51858,1735.45845 C1956.73111,1545.52493 2153.81686,1327.31672 2231.05737,1038.9169" id="Line-6-Copy-4" stroke="#2E2D67"></path>
                                    <path d="M820,2428 C1287.00109,2139.60018 1595.30604,1921.39197 1774.51858,1731.45845 C1953.73111,1541.52493 2150.81686,1323.31672 2228.05737,1034.9169" id="Line-6-Copy-4-Copy" stroke="#000000" filter="url(#filter-4)"></path>
                                    <path d="M119,1886 C697.405345,1528.86657 1097.59008,1232.69991 1319.5542,997.5 C1541.51832,762.300094 1700.33358,466.133428 1796,109" id="Line-6-Copy-2" stroke="#2E2D67"></path>
                                    <path d="M116,1882 C694.405345,1524.86657 1094.59008,1228.69991 1316.5542,993.5 C1538.51832,758.300094 1697.33358,462.133428 1793,105" id="Line-6-Copy-2-Copy" stroke="#000000" filter="url(#filter-5)"></path>
                                    <path d="M280,2301 C934.284401,1878.54954 1386.96803,1528.21621 1638.05087,1250 C1889.13372,971.783793 2068.78343,621.450459 2177,199" id="Line-6-Copy-3" stroke="#2E2D67"></path>
                                    <path d="M275,2299 C929.284401,1876.54954 1381.96803,1526.21621 1633.05087,1248 C1884.13372,969.783793 2063.78343,619.450459 2172,197" id="Line-6-Copy-3-Copy" stroke="#000000" filter="url(#filter-6)"></path>
                                </g>
                            </g>
                        </g>
                        <rect id="bg1" fill="url(#radialGradient-7)" x="0" y="0" width="1920" height="2067"></rect>
                    </g>
                </g>
            </g>
        </g>
    </g>
</svg>