<svg xmlns="http://www.w3.org/2000/svg" xmlns:xlink="http://www.w3.org/1999/xlink" width="418" height="696" viewBox="0 0 627 1044"><defs><path id="j42ka" d="M1548 8667a35 35 0 0 1 35-35h111a35 35 0 0 1 35 35v110a35 35 0 0 1-35 35h-111a35 35 0 0 1-35-35z"/><path id="j42kb" d="M1536 8883a35 35 0 0 1 35-35h111a35 35 0 0 1 35 35v110a35 35 0 0 1-35 35h-111a35 35 0 0 1-35-35z"/><path id="j42kc" d="M1536 9099a35 35 0 0 1 35-35h111a35 35 0 0 1 35 35v110a35 35 0 0 1-35 35h-111a35 35 0 0 1-35-35z"/><path id="j42kd" d="M1102 8667a35 35 0 0 1 35-35h111a35 35 0 0 1 35 35v110a35 35 0 0 1-35 35h-111a35 35 0 0 1-35-35z"/><path id="j42ke" d="M1102 8883a35 35 0 0 1 35-35h111a35 35 0 0 1 35 35v110a35 35 0 0 1-35 35h-111a35 35 0 0 1-35-35z"/><path id="j42kf" d="M1102 9099a35 35 0 0 1 35-35h111a35 35 0 0 1 35 35v110a35 35 0 0 1-35 35h-111a35 35 0 0 1-35-35z"/><path id="j42kg" d="M1319 8883a35 35 0 0 1 35-35h111a35 35 0 0 1 35 35v110a35 35 0 0 1-35 35h-111a35 35 0 0 1-35-35z"/><path id="j42kh" d="M1319 9099a35 35 0 0 1 35-35h111a35 35 0 0 1 35 35v110a35 35 0 0 1-35 35h-111a35 35 0 0 1-35-35z"/><path id="j42ki" d="M1102 8235a35 35 0 0 1 35-35h111a35 35 0 0 1 35 35v110a35 35 0 0 1-35 35h-111a35 35 0 0 1-35-35z"/><path id="j42kj" d="M1319 8235a35 35 0 0 1 35-35h111a35 35 0 0 1 35 35v110a35 35 0 0 1-35 35h-111a35 35 0 0 1-35-35z"/><path id="j42kk" d="M1536 8235a35 35 0 0 1 35-35h111a35 35 0 0 1 35 35v110a35 35 0 0 1-35 35h-111a35 35 0 0 1-35-35z"/><path id="j42kl" d="M1102 8451a35 35 0 0 1 35-35h111a35 35 0 0 1 35 35v110a35 35 0 0 1-35 35h-111a35 35 0 0 1-35-35z"/><path id="j42km" d="M1319 8451a35 35 0 0 1 35-35h111a35 35 0 0 1 35 35v110a35 35 0 0 1-35 35h-111a35 35 0 0 1-35-35z"/><path id="j42kn" d="M1548 8451a35 35 0 0 1 35-35h111a35 35 0 0 1 35 35v110a35 35 0 0 1-35 35h-111a35 35 0 0 1-35-35z"/></defs><g><g transform="translate(-1102 -8200)"><g><g opacity=".07"><use fill="#777bfa" xlink:href="#j42ka"/></g><g opacity=".04"><use fill="#777bfa" xlink:href="#j42kb"/></g><g opacity=".04"><use fill="#777bfa" xlink:href="#j42kc"/></g><g opacity=".07"><use fill="#777bfa" xlink:href="#j42kd"/></g><g opacity=".04"><use fill="#777bfa" xlink:href="#j42ke"/></g><g opacity=".04"><use fill="#777bfa" xlink:href="#j42kf"/></g><g opacity=".04"><use fill="#777bfa" xlink:href="#j42kg"/></g><g opacity=".04"><use fill="#777bfa" xlink:href="#j42kh"/></g><g opacity=".02"><use fill="#777bfa" xlink:href="#j42ki"/></g><g opacity=".04"><use fill="#777bfa" xlink:href="#j42kj"/></g><g opacity=".02"><use fill="#777bfa" xlink:href="#j42kk"/></g><g opacity=".02"><use fill="#777bfa" xlink:href="#j42kl"/></g><g opacity=".04"><use fill="#777bfa" xlink:href="#j42km"/></g><g opacity=".07"><use fill="#777bfa" xlink:href="#j42kn"/></g></g><g/></g></g></svg>