<?xml version="1.0" encoding="UTF-8"?>
<svg width="495px" height="302px" viewBox="0 0 495 302" version="1.1" xmlns="http://www.w3.org/2000/svg" xmlns:xlink="http://www.w3.org/1999/xlink">
    <!-- Generator: Sketch 49 (51002) - http://www.bohemiancoding.com/sketch -->
    <title>tokenBuBBles</title>
    <desc>Created with Sketch.</desc>
    <defs></defs>
    <g id="Page-1" stroke="none" stroke-width="1" fill="none" fill-rule="evenodd">
        <g id="crowdsalePageRemastering" transform="translate(-500.000000, -4706.000000)">
            <g id="Group-2" transform="translate(500.000000, 4469.000000)">
                <g id="Group" transform="translate(0.000000, 237.000000)">
                    <g id="tokenBuBBles">
                        <g id="20%" transform="translate(345.000000, 152.000000)">
                            <circle id="Oval-5-Copy" fill="#FA4A6F" cx="75" cy="75" r="75"></circle>
                            <path d="M65.0249023,84 L53.3793945,84 L53.3793945,82.3764648 L59.2021484,75.9067383 C59.7229844,75.3289359 60.1583641,74.8162457 60.5083008,74.3686523 C60.8582374,73.921059 61.1389963,73.5080585 61.3505859,73.1296387 C61.5621755,72.7512188 61.7127274,72.3931495 61.8022461,72.0554199 C61.8917648,71.7176904 61.9365234,71.3697935 61.9365234,71.0117188 C61.9365234,70.5722634 61.8653165,70.159263 61.7229004,69.7727051 C61.5804843,69.3861472 61.3729669,69.0504572 61.1003418,68.765625 C60.8277167,68.4807928 60.4981302,68.254965 60.1115723,68.0881348 C59.7250143,67.9213045 59.2876001,67.8378906 58.7993164,67.8378906 C58.2052379,67.8378906 57.6905132,67.923339 57.255127,68.0942383 C56.8197407,68.2651376 56.4576024,68.5072413 56.1687012,68.8205566 C55.8798,69.133872 55.6641446,69.5143207 55.5217285,69.9619141 C55.3793124,70.4095074 55.3081055,70.9099907 55.3081055,71.4633789 L53.0375977,71.4633789 C53.0375977,70.7146772 53.1678047,70.008711 53.4282227,69.345459 C53.6886406,68.682207 54.0650203,68.1023788 54.557373,67.605957 C55.0497258,67.1095353 55.6519333,66.7148452 56.3640137,66.421875 C57.0760941,66.1289048 57.8878535,65.9824219 58.7993164,65.9824219 C59.6375367,65.9824219 60.3923306,66.1065255 61.0637207,66.3547363 C61.7351108,66.6029472 62.3027321,66.9467751 62.7666016,67.3862305 C63.2304711,67.8256858 63.5865059,68.3465139 63.8347168,68.9487305 C64.0829277,69.550947 64.2070312,70.2060511 64.2070312,70.9140625 C64.2070312,71.4430365 64.1175139,71.9658991 63.9384766,72.482666 C63.7594392,72.9994329 63.5173355,73.5100886 63.2121582,74.0146484 C62.9069809,74.5192083 62.5529805,75.017657 62.1501465,75.5100098 C61.7473124,76.0023625 61.3221051,76.4926733 60.8745117,76.980957 L56.1015625,82.1567383 L65.0249023,82.1567383 L65.0249023,84 Z M80.2836914,77.2006836 C80.2836914,78.3318741 80.1534844,79.3348752 79.8930664,80.2097168 C79.6326484,81.0845584 79.2583032,81.8210419 78.7700195,82.4191895 C78.2817358,83.017337 77.6835973,83.4710271 76.9755859,83.7802734 C76.2675746,84.0895198 75.4578496,84.2441406 74.5463867,84.2441406 C73.6430619,84.2441406 72.8353714,84.0895198 72.123291,83.7802734 C71.4112106,83.4710271 70.8069686,83.017337 70.3105469,82.4191895 C69.8141251,81.8210419 69.4336765,81.0845584 69.1691895,80.2097168 C68.9047025,79.3348752 68.7724609,78.3318741 68.7724609,77.2006836 L68.7724609,73.0380859 C68.7724609,71.9068954 68.902668,70.9038943 69.1630859,70.0290527 C69.4235039,69.1542111 69.7998836,68.4156931 70.2922363,67.8134766 C70.7845891,67.21126 71.3867966,66.7535009 72.098877,66.4401855 C72.8109573,66.1268702 73.6186478,65.9702148 74.5219727,65.9702148 C75.4334355,65.9702148 76.245195,66.1268702 76.9572754,66.4401855 C77.6693558,66.7535009 78.2715633,67.21126 78.763916,67.8134766 C79.2562687,68.4156931 79.6326484,69.1542111 79.8930664,70.0290527 C80.1534844,70.9038943 80.2836914,71.9068954 80.2836914,73.0380859 L80.2836914,77.2006836 Z M71.0429688,76.7490234 L77.9643555,71.4389648 C77.8341465,70.2589459 77.4903185,69.3617381 76.9328613,68.7473145 C76.3754041,68.1328908 75.5717826,67.8256836 74.5219727,67.8256836 C73.3338157,67.8256836 72.4569527,68.2264771 71.8913574,69.0280762 C71.3257621,69.8296752 71.0429688,70.999504 71.0429688,72.5375977 L71.0429688,76.7490234 Z M78.0131836,73.5996094 L71.1040039,78.8852539 C71.242351,80.0327206 71.5963513,80.9075491 72.1660156,81.5097656 C72.7356799,82.1119822 73.529129,82.4130859 74.5463867,82.4130859 C75.7426818,82.4130859 76.6195447,82.006189 77.177002,81.1923828 C77.7344592,80.3785767 78.0131836,79.2067134 78.0131836,77.6767578 L78.0131836,73.5996094 Z M82.5419922,69.4248047 C82.5419922,68.9609352 82.6131992,68.519452 82.7556152,68.1003418 C82.8980313,67.6812316 83.1055488,67.3129899 83.3781738,66.9956055 C83.6507989,66.6782211 83.9905579,66.4279794 84.3974609,66.244873 C84.804364,66.0617667 85.2722955,65.9702148 85.8012695,65.9702148 C86.3383816,65.9702148 86.8124166,66.0617667 87.2233887,66.244873 C87.6343608,66.4279794 87.9761542,66.6782211 88.2487793,66.9956055 C88.5214044,67.3129899 88.7289218,67.6812316 88.8713379,68.1003418 C89.013754,68.519452 89.0849609,68.9609352 89.0849609,69.4248047 L89.0849609,70.3647461 C89.0849609,70.8286156 89.013754,71.2680643 88.8713379,71.6831055 C88.7289218,72.0981466 88.5214044,72.4623194 88.2487793,72.7756348 C87.9761542,73.0889501 87.6363953,73.3371573 87.2294922,73.5202637 C86.8225891,73.7033701 86.3546576,73.7949219 85.8256836,73.7949219 C85.2967096,73.7949219 84.8267436,73.7033701 84.4157715,73.5202637 C84.0047994,73.3371573 83.6609714,73.0889501 83.3842773,72.7756348 C83.1075833,72.4623194 82.8980313,72.0981466 82.7556152,71.6831055 C82.6131992,71.2680643 82.5419922,70.8286156 82.5419922,70.3647461 L82.5419922,69.4248047 Z M84.2265625,70.3647461 C84.2265625,70.617026 84.2550453,70.8591297 84.3120117,71.0910645 C84.3689781,71.3229992 84.4625645,71.5305167 84.5927734,71.713623 C84.7229824,71.8967294 84.8877757,72.0432123 85.0871582,72.1530762 C85.2865407,72.26294 85.5327134,72.3178711 85.8256836,72.3178711 C86.1105157,72.3178711 86.3526194,72.26294 86.552002,72.1530762 C86.7513845,72.0432123 86.9121088,71.8967294 87.0341797,71.713623 C87.1562506,71.5305167 87.2478024,71.3229992 87.3088379,71.0910645 C87.3698734,70.8591297 87.4003906,70.617026 87.4003906,70.3647461 L87.4003906,69.4248047 C87.4003906,69.1725248 87.3698734,68.9263521 87.3088379,68.6862793 C87.2478024,68.4462065 87.1542161,68.2346201 87.0280762,68.0515137 C86.9019362,67.8684073 86.7391774,67.7219244 86.5397949,67.6120605 C86.3404124,67.5021967 86.0942397,67.4472656 85.8012695,67.4472656 C85.5164374,67.4472656 85.2743337,67.5021967 85.0749512,67.6120605 C84.8755687,67.7219244 84.7128099,67.8684073 84.5866699,68.0515137 C84.46053,68.2346201 84.3689781,68.4462065 84.3120117,68.6862793 C84.2550453,68.9263521 84.2265625,69.1725248 84.2265625,69.4248047 L84.2265625,70.3647461 Z M89.878418,79.8740234 C89.878418,79.4101539 89.9496249,78.9707052 90.092041,78.5556641 C90.2344571,78.1406229 90.444009,77.7744156 90.7207031,77.4570312 C90.9973972,77.1396469 91.3391907,76.8894052 91.7460938,76.7062988 C92.1529968,76.5231924 92.6209283,76.4316406 93.1499023,76.4316406 C93.6870144,76.4316406 94.1590149,76.5231924 94.565918,76.7062988 C94.972821,76.8894052 95.3146145,77.1396469 95.5913086,77.4570312 C95.8680027,77.7744156 96.0775546,78.1406229 96.2199707,78.5556641 C96.3623868,78.9707052 96.4335938,79.4101539 96.4335938,79.8740234 L96.4335938,80.8261719 C96.4335938,81.2900414 96.3623868,81.7294901 96.2199707,82.1445312 C96.0775546,82.5595724 95.8680027,82.9237452 95.5913086,83.2370605 C95.3146145,83.5503759 94.9748555,83.7985831 94.5720215,83.9816895 C94.1691874,84.1647958 93.7032904,84.2563477 93.1743164,84.2563477 C92.6372043,84.2563477 92.1631694,84.1647958 91.7521973,83.9816895 C91.3412252,83.7985831 90.9973972,83.5503759 90.7207031,83.2370605 C90.444009,82.9237452 90.2344571,82.5595724 90.092041,82.1445312 C89.9496249,81.7294901 89.878418,81.2900414 89.878418,80.8261719 L89.878418,79.8740234 Z M91.5629883,80.8261719 C91.5629883,81.0784518 91.5935056,81.32259 91.654541,81.5585938 C91.7155765,81.7945975 91.8091628,82.0041495 91.9353027,82.1872559 C92.0614427,82.3703622 92.226236,82.5168452 92.4296875,82.626709 C92.633139,82.7365728 92.8813462,82.7915039 93.1743164,82.7915039 C93.4591486,82.7915039 93.7012523,82.7365728 93.9006348,82.626709 C94.1000173,82.5168452 94.2607416,82.3703622 94.3828125,82.1872559 C94.5048834,82.0041495 94.5944008,81.7945975 94.6513672,81.5585938 C94.7083336,81.32259 94.7368164,81.0784518 94.7368164,80.8261719 L94.7368164,79.8740234 C94.7368164,79.6217435 94.7083336,79.3776053 94.6513672,79.1416016 C94.5944008,78.9055978 94.5028489,78.6960458 94.376709,78.5129395 C94.250569,78.3298331 94.0857758,78.1833502 93.8823242,78.0734863 C93.6788727,77.9636225 93.4347345,77.9086914 93.1499023,77.9086914 C92.8569321,77.9086914 92.6107595,77.9636225 92.411377,78.0734863 C92.2119944,78.1833502 92.0492357,78.3298331 91.9230957,78.5129395 C91.7969557,78.6960458 91.7054039,78.9055978 91.6484375,79.1416016 C91.5914711,79.3776053 91.5629883,79.6217435 91.5629883,79.8740234 L91.5629883,80.8261719 Z M86.8632812,81.7050781 L85.5083008,80.9482422 L92.4296875,68.2895508 L93.784668,69.0463867 L86.8632812,81.7050781 Z" fill="#FFFFFF"></path>
                        </g>
                        <g id="40%" transform="translate(190.000000, 89.000000)">
                            <circle id="Oval-5-Copy-2" fill="#B178EB" cx="100" cy="100" r="100"></circle>
                            <path d="M83.5351562,103.836914 L86.5087891,103.836914 L86.5087891,106.048828 L83.5351562,106.048828 L83.5351562,111 L80.8251953,111 L80.8251953,106.048828 L71.0986328,106.048828 L71.0986328,104.452148 L80.6494141,89.671875 L83.5351562,89.671875 L83.5351562,103.836914 Z M74.1015625,103.836914 L80.8251953,103.836914 L80.8251953,93.2753906 L80.3857422,94.0957031 L74.1015625,103.836914 Z M103.94043,102.84082 C103.94043,104.198249 103.784181,105.40185 103.47168,106.45166 C103.159178,107.50147 102.709964,108.38525 102.124023,109.103027 C101.538083,109.820804 100.820317,110.365233 99.9707031,110.736328 C99.1210895,111.107424 98.1494195,111.292969 97.0556641,111.292969 C95.9716743,111.292969 95.0024457,111.107424 94.1479492,110.736328 C93.2934528,110.365233 92.5683624,109.820804 91.9726562,109.103027 C91.3769501,108.38525 90.9204117,107.50147 90.6030273,106.45166 C90.2856429,105.40185 90.1269531,104.198249 90.1269531,102.84082 L90.1269531,97.8457031 C90.1269531,96.4882745 90.2832016,95.2846732 90.5957031,94.2348633 C90.9082047,93.1850533 91.3598603,92.2988317 91.9506836,91.5761719 C92.5415069,90.853512 93.2641559,90.3042011 94.1186523,89.9282227 C94.9731488,89.5522442 95.9423774,89.3642578 97.0263672,89.3642578 C98.1201227,89.3642578 99.094234,89.5522442 99.9487305,89.9282227 C100.803227,90.3042011 101.525876,90.853512 102.116699,91.5761719 C102.707522,92.2988317 103.159178,93.1850533 103.47168,94.2348633 C103.784181,95.2846732 103.94043,96.4882745 103.94043,97.8457031 L103.94043,102.84082 Z M92.8515625,102.298828 L101.157227,95.9267578 C101.000976,94.5107351 100.588382,93.4340857 99.9194336,92.6967773 C99.2504849,91.959469 98.2861391,91.5908203 97.0263672,91.5908203 C95.6005788,91.5908203 94.5483432,92.0717725 93.8696289,93.0336914 C93.1909146,93.9956103 92.8515625,95.3994048 92.8515625,97.2451172 L92.8515625,102.298828 Z M101.21582,98.5195312 L92.9248047,104.862305 C93.0908211,106.239265 93.5156216,107.289059 94.1992188,108.011719 C94.8828159,108.734379 95.8349548,109.095703 97.0556641,109.095703 C98.4912181,109.095703 99.5434537,108.607427 100.212402,107.630859 C100.881351,106.654292 101.21582,105.248056 101.21582,103.412109 L101.21582,98.5195312 Z M106.650391,93.5097656 C106.650391,92.9531222 106.735839,92.4233424 106.906738,91.9204102 C107.077638,91.417478 107.326659,90.9755878 107.653809,90.5947266 C107.980959,90.2138653 108.388669,89.9135753 108.876953,89.6938477 C109.365237,89.47412 109.926755,89.3642578 110.561523,89.3642578 C111.206058,89.3642578 111.7749,89.47412 112.268066,89.6938477 C112.761233,89.9135753 113.171385,90.2138653 113.498535,90.5947266 C113.825685,90.9755878 114.074706,91.417478 114.245605,91.9204102 C114.416505,92.4233424 114.501953,92.9531222 114.501953,93.5097656 L114.501953,94.6376953 C114.501953,95.1943387 114.416505,95.7216772 114.245605,96.2197266 C114.074706,96.7177759 113.825685,97.1547833 113.498535,97.5307617 C113.171385,97.9067402 112.763674,98.2045887 112.275391,98.4243164 C111.787107,98.6440441 111.225589,98.7539062 110.59082,98.7539062 C109.956052,98.7539062 109.392092,98.6440441 108.898926,98.4243164 C108.405759,98.2045887 107.993166,97.9067402 107.661133,97.5307617 C107.3291,97.1547833 107.077638,96.7177759 106.906738,96.2197266 C106.735839,95.7216772 106.650391,95.1943387 106.650391,94.6376953 L106.650391,93.5097656 Z M108.671875,94.6376953 C108.671875,94.9404312 108.706054,95.2309556 108.774414,95.5092773 C108.842774,95.787599 108.955077,96.03662 109.111328,96.2563477 C109.267579,96.4760753 109.465331,96.6518548 109.70459,96.7836914 C109.943849,96.915528 110.239256,96.9814453 110.59082,96.9814453 C110.932619,96.9814453 111.223143,96.915528 111.462402,96.7836914 C111.701661,96.6518548 111.894531,96.4760753 112.041016,96.2563477 C112.187501,96.03662 112.297363,95.787599 112.370605,95.5092773 C112.443848,95.2309556 112.480469,94.9404312 112.480469,94.6376953 L112.480469,93.5097656 C112.480469,93.2070297 112.443848,92.9116225 112.370605,92.6235352 C112.297363,92.3354478 112.185059,92.0815441 112.033691,91.8618164 C111.882323,91.6420887 111.687013,91.4663093 111.447754,91.3344727 C111.208495,91.2026361 110.913088,91.1367188 110.561523,91.1367188 C110.219725,91.1367188 109.9292,91.2026361 109.689941,91.3344727 C109.450682,91.4663093 109.255372,91.6420887 109.104004,91.8618164 C108.952636,92.0815441 108.842774,92.3354478 108.774414,92.6235352 C108.706054,92.9116225 108.671875,93.2070297 108.671875,93.5097656 L108.671875,94.6376953 Z M115.454102,106.048828 C115.454102,105.492185 115.53955,104.964846 115.710449,104.466797 C115.881349,103.968748 116.132811,103.529299 116.464844,103.148438 C116.796877,102.767576 117.207029,102.467286 117.695312,102.247559 C118.183596,102.027831 118.745114,101.917969 119.379883,101.917969 C120.024417,101.917969 120.590818,102.027831 121.079102,102.247559 C121.567385,102.467286 121.977537,102.767576 122.30957,103.148438 C122.641603,103.529299 122.893066,103.968748 123.063965,104.466797 C123.234864,104.964846 123.320312,105.492185 123.320312,106.048828 L123.320312,107.191406 C123.320312,107.74805 123.234864,108.275388 123.063965,108.773438 C122.893066,109.271487 122.641603,109.708494 122.30957,110.084473 C121.977537,110.460451 121.569827,110.7583 121.086426,110.978027 C120.603025,111.197755 120.043948,111.307617 119.40918,111.307617 C118.764645,111.307617 118.195803,111.197755 117.702637,110.978027 C117.20947,110.7583 116.796877,110.460451 116.464844,110.084473 C116.132811,109.708494 115.881349,109.271487 115.710449,108.773438 C115.53955,108.275388 115.454102,107.74805 115.454102,107.191406 L115.454102,106.048828 Z M117.475586,107.191406 C117.475586,107.494142 117.512207,107.787108 117.585449,108.070312 C117.658692,108.353517 117.770995,108.604979 117.922363,108.824707 C118.073731,109.044435 118.271483,109.220214 118.515625,109.352051 C118.759767,109.483887 119.057615,109.549805 119.40918,109.549805 C119.750978,109.549805 120.041503,109.483887 120.280762,109.352051 C120.520021,109.220214 120.71289,109.044435 120.859375,108.824707 C121.00586,108.604979 121.113281,108.353517 121.181641,108.070312 C121.25,107.787108 121.28418,107.494142 121.28418,107.191406 L121.28418,106.048828 C121.28418,105.746092 121.25,105.453126 121.181641,105.169922 C121.113281,104.886717 121.003419,104.635255 120.852051,104.415527 C120.700683,104.1958 120.502931,104.02002 120.258789,103.888184 C120.014647,103.756347 119.721681,103.69043 119.379883,103.69043 C119.028319,103.69043 118.732911,103.756347 118.493652,103.888184 C118.254393,104.02002 118.059083,104.1958 117.907715,104.415527 C117.756347,104.635255 117.646485,104.886717 117.578125,105.169922 C117.509765,105.453126 117.475586,105.746092 117.475586,106.048828 L117.475586,107.191406 Z M111.835938,108.246094 L110.209961,107.337891 L118.515625,92.1474609 L120.141602,93.0556641 L111.835938,108.246094 Z" fill="#FFFFFF"></path>
                        </g>
                        <g id="60%">
                            <circle id="Oval-5" fill="#38206E" cx="130" cy="130" r="130"></circle>
                            <path d="M113.046875,116.388672 L113.046875,119.306641 L112.765625,119.306641 C111.687495,119.306641 110.723637,119.417968 109.874023,119.640625 C109.02441,119.863282 108.277347,120.167967 107.632812,120.554688 C106.988278,120.941408 106.434573,121.401365 105.97168,121.93457 C105.508787,122.467776 105.125002,123.050778 104.820312,123.683594 C104.515623,124.316409 104.281251,124.978512 104.117188,125.669922 C103.953124,126.361332 103.847656,127.06445 103.800781,127.779297 C104.10547,127.416014 104.457029,127.079103 104.855469,126.768555 C105.253908,126.458006 105.684568,126.188478 106.147461,125.959961 C106.610354,125.731444 107.108396,125.549805 107.641602,125.415039 C108.174807,125.280273 108.734372,125.212891 109.320312,125.212891 C110.597663,125.212891 111.699214,125.456052 112.625,125.942383 C113.550786,126.428713 114.312497,127.070309 114.910156,127.867188 C115.507815,128.664066 115.947264,129.566401 116.228516,130.574219 C116.509767,131.582036 116.650391,132.607417 116.650391,133.650391 C116.650391,134.845709 116.4834,135.970698 116.149414,137.025391 C115.815428,138.080083 115.314456,139.002926 114.646484,139.793945 C113.978512,140.584965 113.149419,141.208982 112.15918,141.666016 C111.16894,142.123049 110.023444,142.351562 108.722656,142.351562 C107.79687,142.351562 106.950199,142.216798 106.182617,141.947266 C105.415035,141.677733 104.726566,141.311526 104.117188,140.848633 C103.507809,140.38574 102.974612,139.837894 102.517578,139.205078 C102.060545,138.572262 101.682619,137.892582 101.383789,137.166016 C101.084959,136.439449 100.859376,135.683598 100.707031,134.898438 C100.554687,134.113277 100.478516,133.328129 100.478516,132.542969 L100.478516,131.013672 C100.478516,129.841791 100.551757,128.666998 100.698242,127.489258 C100.844727,126.311518 101.093748,125.183599 101.445312,124.105469 C101.796877,123.027338 102.271481,122.016606 102.869141,121.073242 C103.4668,120.129878 104.219722,119.312503 105.12793,118.621094 C106.036137,117.929684 107.117181,117.384768 108.371094,116.986328 C109.625006,116.587889 111.089835,116.388672 112.765625,116.388672 L113.046875,116.388672 Z M108.792969,127.919922 C108.242185,127.919922 107.708987,128.007812 107.193359,128.183594 C106.677732,128.359376 106.197268,128.605467 105.751953,128.921875 C105.306638,129.238283 104.914064,129.619138 104.574219,130.064453 C104.234373,130.509768 103.964845,131.00195 103.765625,131.541016 L103.765625,132.630859 C103.765625,133.755865 103.900389,134.754878 104.169922,135.62793 C104.439454,136.500981 104.802732,137.236325 105.259766,137.833984 C105.716799,138.431644 106.244138,138.885741 106.841797,139.196289 C107.439456,139.506837 108.066403,139.662109 108.722656,139.662109 C109.484379,139.662109 110.1582,139.515626 110.744141,139.222656 C111.330081,138.929686 111.825193,138.525393 112.229492,138.009766 C112.633791,137.494138 112.938476,136.87598 113.143555,136.155273 C113.348634,135.434567 113.451172,134.652348 113.451172,133.808594 C113.451172,133.05859 113.357423,132.329105 113.169922,131.620117 C112.982421,130.911129 112.695314,130.281253 112.308594,129.730469 C111.921873,129.179685 111.43555,128.740236 110.849609,128.412109 C110.263669,128.083983 109.578129,127.919922 108.792969,127.919922 Z M138.728516,132.208984 C138.728516,133.837899 138.541018,135.28222 138.166016,136.541992 C137.791014,137.801764 137.251957,138.8623 136.548828,139.723633 C135.8457,140.584965 134.98438,141.238279 133.964844,141.683594 C132.945307,142.128908 131.779303,142.351562 130.466797,142.351562 C129.166009,142.351562 128.002935,142.128908 126.977539,141.683594 C125.952143,141.238279 125.082035,140.584965 124.367188,139.723633 C123.65234,138.8623 123.104494,137.801764 122.723633,136.541992 C122.342772,135.28222 122.152344,133.837899 122.152344,132.208984 L122.152344,126.214844 C122.152344,124.585929 122.339842,123.141608 122.714844,121.881836 C123.089846,120.622064 123.631832,119.558598 124.34082,118.691406 C125.049808,117.824214 125.916987,117.165041 126.942383,116.713867 C127.967779,116.262693 129.130853,116.037109 130.431641,116.037109 C131.744147,116.037109 132.913081,116.262693 133.938477,116.713867 C134.963872,117.165041 135.831051,117.824214 136.540039,118.691406 C137.249027,119.558598 137.791014,120.622064 138.166016,121.881836 C138.541018,123.141608 138.728516,124.585929 138.728516,126.214844 L138.728516,132.208984 Z M125.421875,131.558594 L135.388672,123.912109 C135.201171,122.212882 134.706059,120.920903 133.90332,120.036133 C133.100582,119.151363 131.943367,118.708984 130.431641,118.708984 C128.720695,118.708984 127.458012,119.286127 126.643555,120.44043 C125.829097,121.594732 125.421875,123.279286 125.421875,125.494141 L125.421875,131.558594 Z M135.458984,127.023438 L125.509766,134.634766 C125.708985,136.287118 126.218746,137.546871 127.039062,138.414062 C127.859379,139.281254 129.001946,139.714844 130.466797,139.714844 C132.189462,139.714844 133.452144,139.128912 134.254883,137.957031 C135.057621,136.78515 135.458984,135.097667 135.458984,132.894531 L135.458984,127.023438 Z M141.980469,121.011719 C141.980469,120.343747 142.083007,119.708011 142.288086,119.104492 C142.493165,118.500974 142.79199,117.970705 143.18457,117.513672 C143.57715,117.056638 144.066403,116.69629 144.652344,116.432617 C145.238284,116.168944 145.912106,116.037109 146.673828,116.037109 C147.447269,116.037109 148.12988,116.168944 148.72168,116.432617 C149.31348,116.69629 149.805662,117.056638 150.198242,117.513672 C150.590822,117.970705 150.889647,118.500974 151.094727,119.104492 C151.299806,119.708011 151.402344,120.343747 151.402344,121.011719 L151.402344,122.365234 C151.402344,123.033206 151.299806,123.666013 151.094727,124.263672 C150.889647,124.861331 150.590822,125.38574 150.198242,125.836914 C149.805662,126.288088 149.316409,126.645506 148.730469,126.90918 C148.144528,127.172853 147.470707,127.304688 146.708984,127.304688 C145.947262,127.304688 145.270511,127.172853 144.678711,126.90918 C144.086911,126.645506 143.591799,126.288088 143.193359,125.836914 C142.79492,125.38574 142.493165,124.861331 142.288086,124.263672 C142.083007,123.666013 141.980469,123.033206 141.980469,122.365234 L141.980469,121.011719 Z M144.40625,122.365234 C144.40625,122.728517 144.447265,123.077147 144.529297,123.411133 C144.611329,123.745119 144.746093,124.043944 144.933594,124.307617 C145.121095,124.57129 145.358397,124.782226 145.645508,124.94043 C145.932619,125.098634 146.287107,125.177734 146.708984,125.177734 C147.119143,125.177734 147.467772,125.098634 147.754883,124.94043 C148.041994,124.782226 148.273437,124.57129 148.449219,124.307617 C148.625001,124.043944 148.756835,123.745119 148.844727,123.411133 C148.932618,123.077147 148.976562,122.728517 148.976562,122.365234 L148.976562,121.011719 C148.976562,120.648436 148.932618,120.293947 148.844727,119.948242 C148.756835,119.602537 148.622071,119.297853 148.44043,119.03418 C148.258788,118.770506 148.024415,118.559571 147.737305,118.401367 C147.450194,118.243163 147.095705,118.164062 146.673828,118.164062 C146.26367,118.164062 145.91504,118.243163 145.62793,118.401367 C145.340819,118.559571 145.106446,118.770506 144.924805,119.03418 C144.743163,119.297853 144.611329,119.602537 144.529297,119.948242 C144.447265,120.293947 144.40625,120.648436 144.40625,121.011719 L144.40625,122.365234 Z M152.544922,136.058594 C152.544922,135.390622 152.64746,134.757815 152.852539,134.160156 C153.057618,133.562497 153.359373,133.035159 153.757812,132.578125 C154.156252,132.121091 154.648435,131.760744 155.234375,131.49707 C155.820315,131.233397 156.494137,131.101562 157.255859,131.101562 C158.029301,131.101562 158.708981,131.233397 159.294922,131.49707 C159.880862,131.760744 160.373045,132.121091 160.771484,132.578125 C161.169924,133.035159 161.471679,133.562497 161.676758,134.160156 C161.881837,134.757815 161.984375,135.390622 161.984375,136.058594 L161.984375,137.429688 C161.984375,138.09766 161.881837,138.730466 161.676758,139.328125 C161.471679,139.925784 161.169924,140.450193 160.771484,140.901367 C160.373045,141.352541 159.883792,141.70996 159.303711,141.973633 C158.72363,142.237306 158.052738,142.369141 157.291016,142.369141 C156.517574,142.369141 155.834964,142.237306 155.243164,141.973633 C154.651364,141.70996 154.156252,141.352541 153.757812,140.901367 C153.359373,140.450193 153.057618,139.925784 152.852539,139.328125 C152.64746,138.730466 152.544922,138.09766 152.544922,137.429688 L152.544922,136.058594 Z M154.970703,137.429688 C154.970703,137.792971 155.014648,138.14453 155.102539,138.484375 C155.19043,138.82422 155.325194,139.125975 155.506836,139.389648 C155.688477,139.653322 155.92578,139.864257 156.21875,140.022461 C156.51172,140.180665 156.869139,140.259766 157.291016,140.259766 C157.701174,140.259766 158.049803,140.180665 158.336914,140.022461 C158.624025,139.864257 158.855468,139.653322 159.03125,139.389648 C159.207032,139.125975 159.335937,138.82422 159.417969,138.484375 C159.5,138.14453 159.541016,137.792971 159.541016,137.429688 L159.541016,136.058594 C159.541016,135.695311 159.5,135.343752 159.417969,135.003906 C159.335937,134.664061 159.204102,134.362306 159.022461,134.098633 C158.840819,133.83496 158.603517,133.624024 158.310547,133.46582 C158.017577,133.307616 157.666018,133.228516 157.255859,133.228516 C156.833982,133.228516 156.479494,133.307616 156.192383,133.46582 C155.905272,133.624024 155.670899,133.83496 155.489258,134.098633 C155.307616,134.362306 155.175782,134.664061 155.09375,135.003906 C155.011718,135.343752 154.970703,135.695311 154.970703,136.058594 L154.970703,137.429688 Z M148.203125,138.695312 L146.251953,137.605469 L156.21875,119.376953 L158.169922,120.466797 L148.203125,138.695312 Z" fill="#FFFFFF"></path>
                        </g>
                    </g>
                </g>
            </g>
        </g>
    </g>
</svg>