<?xml version="1.0" encoding="UTF-8"?>
<svg width="190px" height="61px" viewBox="0 0 190 61" version="1.1" xmlns="http://www.w3.org/2000/svg" xmlns:xlink="http://www.w3.org/1999/xlink">
    <!-- Generator: Sketch 49 (51002) - http://www.bohemiancoding.com/sketch -->
    <title>Group 2</title>
    <desc>Created with Sketch.</desc>
    <defs></defs>
    <g id="Page-1" stroke="none" stroke-width="1" fill="none" fill-rule="evenodd">
        <g id="KAKAOTALK" transform="translate(-265.000000, -42.000000)">
            <g id="Group-2" transform="translate(265.000000, 42.000000)">
                <g id="Group" transform="translate(130.000000, 0.000000)">
                    <path d="M29.54988,0 C13.23048,0 0,13.22808 0,29.5476 C0,45.86724 13.23048,59.0976 29.54988,59.0976 C45.8682,59.0976 59.09868,45.86724 59.09868,29.5476 C59.09868,13.22808 45.86832,0 29.54988,0 Z" id="Path" fill="#FFFFFF"></path>
                    <g id="if_Kakao_Talk2_289120" transform="translate(6.000000, 8.000000)" fill="#201F44" fill-rule="nonzero">
                        <g id="Shape_5_copy" transform="translate(0.744141, 0.789474)">
                            <path d="M28.1767578,9.91033138 C28.5385879,9.91033138 28.59375,9.6045614 28.59375,9.22724366 L28.59375,9.02238986 C28.59375,8.64507212 28.5385879,8.33930214 28.1767578,8.33930214 C27.8149277,8.33930214 27.7597656,8.64507212 27.7597656,9.02238986 L27.7597656,9.22724366 C27.7597656,9.6045614 27.8149277,9.91033138 28.1767578,9.91033138 Z M25.8535156,8.46003899 C25.8248027,8.37978947 25.773334,8.21832359 25.6223828,8.21832359 C25.4714316,8.21832359 25.3985176,8.34329045 25.3769531,8.46003899 C25.3553887,8.57678752 25.2578125,9.42690058 25.2578125,9.42690058 L25.9726563,9.42690058 C25.9726563,9.42690058 25.8822285,8.5402885 25.8535156,8.46003899 Z M22.6962891,0.0016920078 C10.1615039,0.0866549708 0,8.27186355 0,18.284078 C0,24.54777 3.97715234,30.0423236 10.0241348,33.2579844 C9.75249414,36.1087758 5.86028906,40.8572749 5.71875,40.9707602 C5.55648047,41.100924 4.78992969,41.8150721 5.59960938,41.9376218 C6.44932031,42.0552164 15.1604062,38.7804561 18.4776387,35.9735361 C19.8447773,36.1695673 21.2545684,36.2686706 22.6962891,36.2588811 C35.2310742,36.174039 45.3925781,27.9885887 45.3925781,17.9763743 C45.3925781,7.9642807 35.2310742,-0.0832709552 22.6962891,0.0016920078 Z M27.0449219,8.94346979 C27.0449219,7.98470565 27.5784336,7.73489279 28.2363281,7.73489279 C28.8942227,7.73489279 29.3085938,7.99969201 29.3085938,8.94346979 L29.3085938,9.30604288 C29.3085938,10.2124756 28.8942227,10.5146199 28.2363281,10.5146199 C27.5784336,10.5146199 27.0449219,10.3020312 27.0449219,9.30604288 L27.0449219,8.94346979 Z M25.0195312,7.97660819 C25.0914922,7.77961014 25.3850547,7.73489279 25.6152344,7.73489279 C25.8454141,7.73489279 26.1535117,7.80160624 26.2109375,7.97660819 C26.2683633,8.15161014 26.8066406,10.5146199 26.8066406,10.5146199 L26.0917969,10.5146199 L25.9726562,9.91033138 L25.3265566,9.91033138 L25.1386719,10.5146199 L24.4238281,10.5146199 C24.4238281,10.5146199 24.9475703,8.17348538 25.0195312,7.97660819 Z M19.6582031,7.97660819 C19.7301641,7.77961014 20.0238457,7.73489279 20.2539062,7.73489279 C20.4839668,7.73489279 20.7920645,7.80160624 20.8496094,7.97660819 C20.9071543,8.15161014 21.4453125,10.5146199 21.4453125,10.5146199 L20.7304688,10.5146199 L20.6113281,9.91033138 L19.9653477,9.91033138 L19.7773438,10.5146199 L19.0625,10.5146199 C19.0625,10.5146199 19.5862422,8.17348538 19.6582031,7.97660819 Z M16.4414062,7.73489279 L17.15625,7.73489279 L17.15625,8.94346979 L17.9902344,7.73489279 L18.8242188,7.73489279 L17.8710938,9.06432749 L18.8242188,10.5146199 L17.9902344,10.5146199 L17.15625,9.30604288 L17.15625,10.5146199 L16.4414062,10.5146199 L16.4414062,7.73489279 Z M10.9609375,23.2046784 C10.9609375,23.8362807 10.5677734,24.6549708 9.76953125,24.6549708 C8.97128906,24.6549708 8.57860156,23.9981092 8.57860156,23.2046784 C8.57860156,22.4112476 8.57860156,15.3489279 8.57860156,15.3489279 C8.57860156,15.3489279 7.12186914,15.3489279 6.55273438,15.3489279 C5.98359961,15.3489279 5.2421875,15.0064172 5.2421875,14.1403509 C5.2421875,13.2742846 5.96489453,13.0526316 6.43359375,13.0526316 C6.90229297,13.0526316 12.6953867,13.0526316 13.1054688,13.0526316 C13.5155508,13.0526316 14.296875,13.4983548 14.296875,14.2612086 C14.296875,15.0240624 13.4215488,15.3489279 12.9863281,15.3489279 C12.5511074,15.3489279 10.9609375,15.3489279 10.9609375,15.3489279 C10.9609375,15.3489279 10.9609375,22.573076 10.9609375,23.2046784 Z M22.0410156,24.6549708 C21.0850312,25.011501 20.4995742,23.8524756 20.3730469,23.5672515 C20.2465195,23.2820273 19.9653477,22.3586745 19.9653477,22.3586745 L15.5060332,22.3586745 C15.5060332,22.3586745 15.1176348,23.6085848 14.8926973,24.0506823 C14.6677598,24.4927797 13.8854824,24.8906433 13.2247285,24.5341131 C12.5639746,24.1775828 12.5935215,23.1986355 12.748166,22.8421053 C12.9028105,22.485575 15.3892754,15.4650721 15.7266816,14.7030643 C16.0640879,13.9410565 16.6413242,13.0526316 17.7519531,13.0526316 C18.862582,13.0526316 19.3510586,13.9616023 19.6582031,14.7030643 C19.9653477,15.4445263 22.5175781,22.4285302 22.6367187,22.8421053 C22.7558594,23.2556803 22.997,24.2984405 22.0410156,24.6549708 Z M22.5175781,9.30604288 L22.5175781,10.5146199 L21.8027344,10.5146199 L21.8027344,7.73489279 L22.5175781,7.73489279 L22.5175781,8.94346979 L23.3515625,7.73489279 L24.1855469,7.73489279 L23.2324219,9.06432749 L24.1855469,10.5146199 L23.3515625,10.5146199 L22.5175781,9.30604288 Z M28.9511719,24.6549708 C28.8348906,24.6549708 26.099541,24.6549708 25.2578125,24.6549708 C25.1951445,24.6549708 25.130332,24.6497739 25.0649238,24.6417973 C25.0120254,24.6497739 24.957459,24.6549708 24.9003906,24.6549708 C24.1021484,24.6549708 23.7094609,23.9981092 23.7094609,23.2046784 C23.7094609,22.5498713 23.7094609,14.9382534 23.7094609,14.502924 C23.7094609,13.7094932 24.1021484,13.0526316 24.9003906,13.0526316 C25.6986328,13.0526316 26.0917969,13.8713216 26.0917969,14.502924 C26.0917969,14.6183431 26.0917969,19.8951111 26.0917969,22.2383002 C27.1198613,22.2383002 28.6701191,22.2383002 28.9511719,22.2383002 C29.7333301,22.2383002 30.3808594,22.6366472 30.3808594,23.4463938 C30.3808594,24.2561404 29.5738008,24.6549708 28.9511719,24.6549708 Z M39.0364258,24.4953177 C38.3993809,24.9833411 37.6958555,24.6993255 37.224416,24.0660312 C37.0781113,23.8695166 35.5672891,21.8403158 34.2120645,20.0199571 C33.887168,20.3495361 33.5952734,20.6456374 33.359375,20.8849357 C33.359375,21.9832904 33.359375,22.8770331 33.359375,23.2045575 C33.359375,23.8361598 32.9662109,24.6548499 32.1679688,24.6548499 C31.3697266,24.6548499 30.9770391,23.9979883 30.9770391,23.2045575 C30.9770391,22.5497505 30.9770391,14.9381326 30.9770391,14.5028031 C30.9770391,13.7093723 31.3697266,13.0525107 32.1679688,13.0525107 C32.9662109,13.0525107 33.359375,13.8712008 33.359375,14.5028031 C33.359375,14.5597271 33.359375,15.8712749 33.359375,17.4672008 C35.0225781,15.7800273 37.0331953,13.7404327 37.2165527,13.5543119 C37.7698418,12.9931696 38.5051777,12.8105536 39.069666,13.3830565 C39.6340352,13.9556803 39.3414258,14.8165497 38.9012012,15.2632398 C38.8509238,15.3142417 37.3958594,16.7902768 35.9130352,18.2944717 C37.3672656,20.2477739 39.0751465,22.5417739 39.125543,22.6094542 C39.5007168,23.1135517 39.6733516,24.0072943 39.0364258,24.4953177 Z M16.203125,20.0623782 L19.3007813,20.0623782 L17.7519531,15.4697856 L16.203125,20.0623782 Z M20.4921875,8.46003899 C20.4634746,8.37978947 20.4120059,8.21832359 20.2610547,8.21832359 C20.1099844,8.21832359 20.0371895,8.34329045 20.015625,8.46003899 C19.9940605,8.57678752 19.8964844,9.42690058 19.8964844,9.42690058 L20.6113281,9.42690058 C20.6113281,9.42690058 20.5209004,8.5402885 20.4921875,8.46003899 Z" id="Shape"></path>
                        </g>
                    </g>
                </g>
                <g id="telegramKor">
                    <g id="Group-2">
                        <path d="M30.042378,0 C13.450988,0 0,13.448548 0,30.04006 C0,46.631694 13.450988,60.08256 30.042378,60.08256 C46.63267,60.08256 60.083658,46.631694 60.083658,30.04006 C60.083658,13.448548 46.632792,0 30.042378,0 Z" id="Path" fill="#FFFFFF"></path>
                        <path d="M20.1124758,26.2053059 C19.1770218,27.1164694 18.2496647,28.0125188 17.3309442,28.9155854 C17.0097699,29.2319016 16.6486512,29.4067932 16.1876716,29.3825027 C15.8729747,29.3657692 15.6970036,29.2275833 15.6003814,28.9290801 C14.8964968,26.7445549 14.1823563,24.5654276 13.4822502,22.3787433 C13.4142368,22.1666063 13.3138361,22.0635067 13.0990002,21.9971126 C11.4407691,21.4907908 9.78577668,20.9725935 8.13348323,20.4473791 C7.87924272,20.3664107 7.62284305,20.2606121 7.40314902,20.1110907 C7.06362188,19.8811406 7.01396131,19.5059874 7.31840218,19.236093 C7.59963213,18.9872504 7.93538075,18.7702553 8.2840843,18.6320694 C10.3109912,17.8288637 12.3486938,17.0515679 14.3831577,16.2672548 C19.5462373,14.2738148 24.709317,12.2819942 29.8729364,10.2885543 C30.8548122,9.90908278 31.6094369,10.4434737 31.5074168,11.5052382 C31.4421024,12.1842925 31.2661313,12.852551 31.1241668,13.5229686 C30.0030255,18.8166772 28.8808047,24.1109255 27.7537257,29.4035544 C27.4859905,30.6601827 26.6034358,30.9883743 25.5692005,30.2256528 C23.8370183,28.9490523 22.1064555,27.6681335 20.3753529,26.3893739 C20.2927652,26.3294574 20.2069388,26.2717 20.1124758,26.2053059 Z M16.2243772,27.8127969 C16.2438096,27.807399 16.263242,27.8020011 16.2826744,27.797143 C16.2934702,27.7474825 16.309124,27.6989015 16.3134424,27.6497807 C16.4246388,26.4498303 16.5423128,25.2504196 16.638935,24.04831 C16.6605265,23.7805748 16.7522906,23.5905691 16.9536318,23.4102797 C18.550327,21.9825383 20.137306,20.5456206 21.7275238,19.1119416 C23.487775,17.5244228 25.248566,15.9385234 27.0023397,14.3445272 C27.1108373,14.2462856 27.1561795,14.0789511 27.2306704,13.9429243 C27.065495,13.9251113 26.8884443,13.8587173 26.738383,13.897582 C26.5338031,13.9504813 26.3400189,14.0692349 26.1575703,14.1842099 C22.2727104,16.6310724 18.3910894,19.0822532 14.5035306,21.5242577 C14.2838366,21.6624436 14.2428126,21.7795778 14.3264799,22.0208633 C14.6131077,22.8440412 14.8738257,23.6747762 15.1442599,24.5038917 C15.504299,25.60722 15.8643381,26.7100084 16.2243772,27.8127969 Z" id="Shape" fill="#201F44"></path>
                        <text id="kor" font-family="RobotoMono-Regular, Roboto Mono" font-size="13" font-weight="normal" letter-spacing="-1.72000003" fill="#201F44">
                            <tspan x="31.5166667" y="46.6916667">ko</tspan>
                            <tspan x="43.6792057" y="46.6916667">r</tspan>
                        </text>
                        <path d="M48.2916667,13.725 L15.7583333,47.275" id="Line" stroke="#201F44" stroke-linecap="round"></path>
                    </g>
                </g>
                <g id="telegramm" transform="translate(65.000000, 0.000000)" fill="#FFFFFF" fill-rule="nonzero">
                    <path d="M30,60 C13.4314575,60 0,46.5685425 0,30 C0,13.4314575 13.4314575,0 30,0 C46.5685425,0 60,13.4314575 60,30 C60,46.5685425 46.5685425,60 30,60 Z M29.050487,37.8085374 C29.1671536,37.8905374 29.2731536,37.9618708 29.3751536,38.0358708 C31.5131536,39.6152041 33.650487,41.1972041 35.7898203,42.7738708 C37.0671536,43.7158708 38.1571536,43.3105374 38.4878203,41.7585374 C39.8798203,35.2218708 41.2658203,28.6832041 42.650487,22.1452041 C42.8258203,21.3172041 43.0431536,20.4918708 43.1238203,19.6532041 C43.2498203,18.3418708 42.3178203,17.6818708 41.1051536,18.1505374 C34.7278203,20.6125374 28.3511536,23.0725374 21.974487,25.5345374 C19.4618203,26.5032041 16.9451536,27.4632041 14.4418203,28.4552041 C14.0111536,28.6258708 13.596487,28.8938708 13.2491536,29.2012041 C12.8731536,29.5345374 12.934487,29.9978708 13.3538203,30.2818708 C13.6251536,30.4665374 13.9418203,30.5972041 14.2558203,30.6972041 C16.296487,31.3458708 18.340487,31.9858708 20.388487,32.6112041 C20.6538203,32.6932041 20.7778203,32.8205374 20.8618203,33.0825374 C21.726487,35.7832041 22.608487,38.4745374 23.4778203,41.1725374 C23.5971536,41.5412041 23.814487,41.7118708 24.2031536,41.7325374 C24.772487,41.7625374 25.218487,41.5465374 25.6151536,41.1558708 C26.7498203,40.0405374 27.8951536,38.9338708 29.050487,37.8085374 Z M24.248487,39.7938708 C23.8038203,38.4318708 23.3591536,37.0698708 22.914487,35.7072041 C22.580487,34.6832041 22.258487,33.6572041 21.904487,32.6405374 C21.8011536,32.3425374 21.8518203,32.1978708 22.1231536,32.0272041 C26.924487,29.0112041 31.718487,25.9838708 36.516487,22.9618708 C36.7418203,22.8198708 36.9811536,22.6732041 37.2338203,22.6078708 C37.4191536,22.5598708 37.6378203,22.6418708 37.8418203,22.6638708 C37.7498203,22.8318708 37.6938203,23.0385374 37.5598203,23.1598708 C35.3938203,25.1285374 33.2191536,27.0872041 31.0451536,29.0478708 C29.0811536,30.8185374 27.1211536,32.5932041 25.1491536,34.3565374 C24.900487,34.5792041 24.7871536,34.8138708 24.760487,35.1445374 C24.6411536,36.6292041 24.4958203,38.1105374 24.358487,39.5925374 C24.3531536,39.6532041 24.3338203,39.7132041 24.320487,39.7745374 C24.296487,39.7805374 24.272487,39.7872041 24.248487,39.7938708 Z" id="Combined-Shape"></path>
                </g>
            </g>
        </g>
    </g>
</svg>