<?xml version="1.0" encoding="UTF-8"?>
<svg width="32px" height="26px" viewBox="0 0 32 26" version="1.1" xmlns="http://www.w3.org/2000/svg" xmlns:xlink="http://www.w3.org/1999/xlink">
    <!-- Generator: Sketch 49.3 (51167) - http://www.bohemiancoding.com/sketch -->
    <title>medium copy</title>
    <desc>Created with Sketch.</desc>
    <defs></defs>
    <g id="Page-1" stroke="none" stroke-width="1" fill="none" fill-rule="evenodd">
        <g id="Artboard" transform="translate(-461.000000, -723.000000)" fill="#FFFFFF" fill-rule="nonzero">
            <g id="Group-27" transform="translate(169.000000, 79.000000)">
                <path d="M302.660714,648.69084 L302.660714,668.133794 C302.660714,668.410051 302.58631,668.644869 302.4375,668.838249 C302.28869,669.031629 302.071429,669.128319 301.785714,669.128319 C301.583333,669.128319 301.386905,669.084117 301.196429,668.995715 L292.892857,665.133645 C292.642857,665.023143 292.431548,664.83805 292.258929,664.578369 C292.08631,664.318688 292,664.061769 292,663.807613 L292,644.911647 C292,644.690642 292.059524,644.502787 292.178571,644.348084 C292.297619,644.19338 292.470238,644.116028 292.696429,644.116028 C292.863095,644.116028 293.125,644.198905 293.482143,644.364659 L302.607143,648.607963 C302.642857,648.641114 302.660714,648.66874 302.660714,648.69084 Z M303.803571,650.364957 L313.339286,664.71926 L303.803571,660.310202 L303.803571,650.364957 Z M324,650.663314 L324,668.133794 C324,668.410051 323.916667,668.633819 323.75,668.805098 C323.583333,668.976377 323.357143,669.062017 323.071429,669.062017 C322.785714,669.062017 322.505952,668.99019 322.232143,668.846537 L314.357143,665.199947 L324,650.663314 Z M323.946429,648.674265 C323.946429,648.707416 322.419643,651.02521 319.366071,655.627649 C316.3125,660.230087 314.52381,662.923591 314,663.70816 L307.035714,653.199351 L312.821429,644.464111 C313.02381,644.154704 313.333333,644 313.75,644 C313.916667,644 314.071429,644.033151 314.214286,644.099452 L323.875,648.574813 C323.922619,648.596913 323.946429,648.630064 323.946429,648.674265 Z" id="medium-copy"></path>
            </g>
        </g>
    </g>
</svg>