<?xml version="1.0" encoding="UTF-8"?>
<svg width="368px" height="208px" viewBox="0 0 368 208" version="1.1" xmlns="http://www.w3.org/2000/svg" xmlns:xlink="http://www.w3.org/1999/xlink">
    <!-- Generator: Sketch 49.3 (51167) - http://www.bohemiancoding.com/sketch -->
    <title>quartz</title>
    <desc>Created with Sketch.</desc>
    <defs></defs>
    <g id="Page-1" stroke="none" stroke-width="1" fill="none" fill-rule="evenodd">
        <g id="crowdsalePage-Copy-4" transform="translate(-777.000000, -213.000000)" fill="#787DFC" fill-rule="nonzero">
            <g id="quartz" transform="translate(777.000000, 213.000000)">
                <path d="M333.333333,109 L260.833333,34 L72.5,34 L5.96855898e-13,109 L72.5,184 L260.833333,184 L333.333333,109 Z M69.1666667,134.833333 L20,109 L69.1666667,82.3333333 L69.1666667,134.833333 Z M79.1666667,79 L254.166667,79 L254.166667,138.166667 L79.1666667,138.166667 L79.1666667,79 Z M264.166667,82.3333333 L313.333333,109 L264.166667,134.833333 L264.166667,82.3333333 Z M264.166667,70.6666667 L264.166667,51.5 L303.333333,92.3333333 L264.166667,70.6666667 Z M254.166667,44.8333333 L254.166667,69 L79.1666667,69 L79.1666667,44.8333333 L254.166667,44.8333333 Z M69.1666667,51.5 L69.1666667,70.6666667 L30,92.3333333 L69.1666667,51.5 Z M69.1666667,147.333333 L69.1666667,166.5 L30,125.666667 L69.1666667,147.333333 Z M79.1666667,173.166667 L79.1666667,149 L254.166667,149 L254.166667,173.166667 L79.1666667,173.166667 Z M155.666667,0 L339.666667,0 C355.13064,-2.84068575e-15 367.666667,12.536027 367.666667,28 L367.666667,180 C367.666667,195.463973 355.13064,208 339.666667,208 L195.166667,208 L155.666667,144 L195.166667,73.5 L155.666667,0 Z M264.166667,166.5 L303.333333,125.666667 L264.166667,147.333333 L264.166667,166.5 Z" id="Combined-Shape"></path>
            </g>
        </g>
    </g>
</svg>