<?xml version="1.0" encoding="UTF-8"?>
<svg width="60px" height="60px" viewBox="0 0 60 60" version="1.1" xmlns="http://www.w3.org/2000/svg" xmlns:xlink="http://www.w3.org/1999/xlink">
    <!-- Generator: Sketch 49.1 (51147) - http://www.bohemiancoding.com/sketch -->
    <title>if_109-slack_710949</title>
    <desc>Created with Sketch.</desc>
    <defs></defs>
    <g id="Page-1" stroke="none" stroke-width="1" fill="none" fill-rule="evenodd">
        <g id="mainPageQuartz-Copy-3" transform="translate(-1486.000000, -96.000000)" fill="#FFFFFF" fill-rule="nonzero">
            <g id="if_109-slack_710949" transform="translate(1486.000000, 96.000000)">
                <rect id="Rectangle-path" transform="translate(30.371125, 30.119855) rotate(-108.601632) translate(-30.371125, -30.119855) " x="27.0120006" y="26.6899274" width="6.71824833" height="6.85985441"></rect>
                <path d="M30.39888,0.66048 C14.07948,0.66048 0.849,13.88856 0.849,30.20808 C0.849,46.52772 14.07948,59.75808 30.39888,59.75808 C46.7172,59.75808 59.94768,46.52772 59.94768,30.20808 C59.94768,13.88856 46.71732,0.66048 30.39888,0.66048 Z M45.3972,34.88676 L42.23532,35.95104 L43.32276,39.18204 C43.84752,40.7412 43.00896,42.43044 41.44992,42.9552 C39.89076,43.47996 38.20152,42.6414 37.67676,41.08236 L36.58932,37.85124 L30.08808,40.03944 L31.18812,43.30776 C31.71288,44.86692 30.87432,46.55616 29.31528,47.08092 C27.75612,47.60568 26.06688,46.76724 25.54212,45.20808 L24.44208,41.93976 L21.4254,42.95508 C19.86624,43.47984 18.177,42.64128 17.65224,41.08224 C17.12748,39.52308 17.96592,37.83384 19.52508,37.30908 L22.54176,36.29376 L20.3988,29.9268 L17.29968,30.96984 C15.74052,31.4946 14.05128,30.65616 13.52652,29.097 C13.00176,27.53784 13.84032,25.8486 15.39936,25.32384 L18.49848,24.2808 L17.4738,21.23628 C16.94904,19.67724 17.7876,17.98788 19.34664,17.46324 C20.9058,16.93848 22.59504,17.77692 23.1198,19.33608 L24.14448,22.38048 L30.64572,20.19228 L29.60844,17.11056 C29.08368,15.5514 29.92224,13.86216 31.48128,13.3374 C33.04044,12.81264 34.72968,13.6512 35.25444,15.21024 L36.29172,18.29196 L39.37116,17.25552 C40.93032,16.73076 42.61956,17.5692 43.14432,19.12836 C43.66908,20.68752 42.83064,22.37676 41.27148,22.90152 L38.19204,23.93796 L40.335,30.30504 L43.49688,29.24076 C45.05604,28.716 46.74528,29.55456 47.27004,31.1136 C47.7948,32.67276 46.95636,34.362 45.3972,34.88676 Z" id="Shape"></path>
            </g>
        </g>
    </g>
</svg>