<?xml version="1.0" encoding="UTF-8"?>
<svg width="303px" height="27px" viewBox="0 0 303 27" version="1.1" xmlns="http://www.w3.org/2000/svg" xmlns:xlink="http://www.w3.org/1999/xlink">
    <!-- Generator: Sketch 49 (51002) - http://www.bohemiancoding.com/sketch -->
    <title>socials-sprite</title>
    <desc>Created with Sketch.</desc>
    <defs></defs>
    <g id="Page-1" stroke="none" stroke-width="1" fill="none" fill-rule="evenodd">
        <g id="mainPage" transform="translate(-1139.000000, -14087.000000)" fill-rule="nonzero">
            <g id="bottom">
                <g transform="translate(1.000000, 12400.000000)">
                    <g id="Group-15" transform="translate(0.000000, 1652.000000)">
                        <g id="socials-sprite" transform="translate(1138.000000, 35.000000)">
                            <g id="linkedin" transform="translate(138.000000, 1.000000)" fill="#3A3956">
                                <path d="M31.9278109,21.946 C31.9157382,19.5068068 31.9043782,17.0687386 31.8823564,14.6295455 C31.8724073,13.6141477 31.69344,12.6198295 31.3504,11.6765568 C30.7253964,9.95980682 29.5577891,8.83120455 27.7786618,8.228625 C25.8163055,7.56389773 23.7474036,7.43294318 21.6352,7.83911364 C20.2900364,8.09656818 19.1330764,8.60593182 18.1806545,9.35944318 C18.1813673,9.16302273 18.1834909,8.96770455 18.1898909,8.77128409 C18.1927273,8.68139773 18.2019636,8.40506818 17.9533818,8.20643182 C17.7026764,8.00779545 17.3468509,8.00223864 17.2360582,8.01001136 C15.4498327,8.01778409 13.6671709,8.01778409 11.8837818,8.011125 C11.6891782,7.99669318 11.3873309,8.02665909 11.1664582,8.19867045 C10.9462836,8.36956818 10.9214255,8.59484091 10.9214255,8.75020455 C10.9306618,13.8915795 10.9299491,19.0329659 10.9214255,24.1754545 C10.9214255,24.3319318 10.9469964,24.5594205 11.1671709,24.7303182 C11.38592,24.9023295 11.6579345,24.9200795 11.8773964,24.9189773 C13.7438691,24.9101023 15.6096436,24.9101023 17.4761164,24.9189773 C17.4825018,24.9189773 17.4881891,24.9189773 17.4945891,24.9189773 C17.6927418,24.9189773 17.9711564,24.8978977 18.1820945,24.7336477 C18.4001309,24.5638636 18.4242764,24.3341477 18.4235782,24.1765682 C18.4115055,21.7351591 18.4079564,19.29375 18.4228655,16.8523523 C18.4271273,16.2586477 18.4740073,15.6649432 18.5620655,15.0889886 C18.6622109,14.4320341 18.9320873,13.9259886 19.3866327,13.5409205 C19.9363491,13.0748295 20.6693091,12.8972727 21.7971491,12.8995 C23.0592291,12.9183636 23.78224,13.3433864 24.1394764,14.28 C24.3908945,14.9391818 24.4122036,15.6327614 24.4129164,16.3452045 L24.4136291,24.1410568 C24.4136291,24.7258864 24.6522618,24.9134318 25.3944582,24.9134318 L30.8617891,24.9145455 C31.2332364,24.9145455 31.5017018,24.9134318 31.7211636,24.7414318 C31.9406255,24.5683182 31.9399127,24.3519205 31.9384873,24.0778182 L31.9278109,21.946 Z" id="Shape"></path>
                                <path d="M8.04853818,16.4794659 L8.04782545,14.6528523 C8.0464,12.6908523 8.04570182,10.7299545 8.05634909,8.76795455 C8.05706182,8.59151136 8.03006545,8.36622727 7.81131636,8.19644318 C7.59185455,8.02443182 7.26798545,7.99447727 7.09256727,8.00889773 C5.23674182,8.02 3.38305455,8.01888636 1.53006545,8.01001136 C1.30279273,8.01555682 1.02296727,8.02665909 0.800669091,8.19977273 C0.576945455,8.37288636 0.552087273,8.60593182 0.552087273,8.76573864 C0.562036364,13.897125 0.562036364,19.0296364 0.552087273,24.1621364 C0.552087273,24.3230455 0.578370909,24.5572045 0.801381818,24.7303182 C1.02439273,24.9023295 1.33050182,24.9045455 1.52653091,24.9189773 C3.38164364,24.907875 5.23604364,24.907875 7.08974545,24.9189773 C7.09684364,24.9189773 7.10324364,24.9189773 7.11034182,24.9189773 C7.32909091,24.9189773 7.60181818,24.8956705 7.81275636,24.7314318 C8.03079273,24.5616477 8.05778909,24.3385909 8.05707636,24.1621364 C8.04571636,22.1934773 8.04642909,20.2225909 8.04784,18.2528182 L8.04853818,16.4794659 Z" id="Shape"></path>
                                <path d="M4.32766545,0.0809886364 C4.31771636,0.0809886364 4.30849455,0.0809886364 4.29925818,0.0809886364 C1.92709818,0.0909772727 0.0656,1.55138636 0.0613381818,3.404625 C0.0613381818,3.40573864 0.0613381818,3.40573864 0.0613381818,3.40573864 C0.0613381818,4.28907955 0.525832727,5.15467045 1.33618909,5.78055682 C2.13093818,6.39535227 3.17070545,6.73270455 4.268,6.73270455 C4.28221091,6.73270455 4.29712,6.73159091 4.31133091,6.73159091 C6.74811636,6.71272727 8.58193455,5.28117045 8.57696,3.40129545 C8.57483636,2.48910227 8.13662545,1.64680682 7.34258909,1.03090909 C6.55067636,0.417238636 5.48107636,0.0809886364 4.32766545,0.0809886364 Z" id="Shape"></path>
                            </g>
                            <g id="medium-w" transform="translate(104.000000, 1.000000)" fill="#FFFFFF">
                                <path d="M10.660714,4.69084 L10.660714,24.133794 C10.660714,24.410051 10.58631,24.644869 10.4375,24.838249 C10.28869,25.031629 10.071429,25.128319 9.785714,25.128319 C9.583333,25.128319 9.386905,25.084117 9.196429,24.995715 L0.892857,21.133645 C0.642857,21.023143 0.431548,20.83805 0.258929,20.578369 C0.08631,20.318688 0,20.061769 0,19.807613 L0,0.911647 C0,0.690642 0.059524,0.502787 0.178571,0.348084 C0.297619,0.19338 0.470238,0.116028 0.696429,0.116028 C0.863095,0.116028 1.125,0.198905 1.482143,0.364659 L10.607143,4.607963 C10.642857,4.641114 10.660714,4.66874 10.660714,4.69084 Z M11.803571,6.364957 L21.339286,20.71926 L11.803571,16.310202 L11.803571,6.364957 Z M32,6.663314 L32,24.133794 C32,24.410051 31.916667,24.633819 31.75,24.805098 C31.583333,24.976377 31.357143,25.062017 31.071429,25.062017 C30.785714,25.062017 30.505952,24.99019 30.232143,24.846537 L22.357143,21.199947 L32,6.663314 Z M31.946429,4.674265 C31.946429,4.707416 30.419643,7.02521 27.366071,11.627649 C24.3125,16.230087 22.52381,18.923591 22,19.70816 L15.035714,9.199351 L20.821429,0.464111 C21.02381,0.154704 21.333333,0 21.75,0 C21.916667,0 22.071429,0.033151 22.214286,0.099452 L31.875,4.574813 C31.922619,4.596913 31.946429,4.630064 31.946429,4.674265 Z" id="medium-copy"></path>
                            </g>
                            <g id="medium" transform="translate(172.000000, 0.000000)" fill="#3A3955">
                                <path d="M10.66,5.04 L10.66,25.94 C10.66,26.23 10.59,26.48 10.44,26.69 C10.2903591,26.8973983 10.0453496,27.014249 9.79,27 C9.59,27 9.39,26.95 9.19,26.86 L0.89,22.71 C0.626026083,22.5756542 0.407055146,22.3671105 0.26,22.11 C0.0968977064,21.8633397 0.00677217358,21.5756312 4.54747351e-13,21.28 L4.54747351e-13,0.98 C4.54747351e-13,0.74 0.06,0.54 0.18,0.38 C0.296965855,0.209536188 0.493449438,0.111294396 0.7,0.12 C0.86,0.12 1.13,0.22 1.48,0.39 L10.61,4.95 L10.66,5.04 Z M11.8,6.84 L21.34,22.26 L11.8,17.53 L11.8,6.84 Z M32,7.16 L32,25.93 C32,26.23 31.92,26.47 31.75,26.65 C31.57586,26.8392526 31.3269103,26.9417612 31.07,26.93 C30.79,26.93 30.51,26.85 30.23,26.7 L22.36,22.78 L32,7.16 Z M31.95,5.02 C28.6413309,10.4082565 25.3246605,15.7915958 22,21.17 L15.04,9.88 L20.82,0.5 C21.02,0.17 21.33,0 21.75,0 C21.92,0 22.07,0.04 22.21,0.1 L31.88,4.92 C31.92,4.94 31.95,4.97 31.95,5.02 Z" id="dy90a"></path>
                            </g>
                            <g id="telegram-min" transform="translate(0.000000, 2.000000)">
                                <path d="M241.565215,11.9874092 L248.938665,14.4567811 L251.792642,22.6925192 C251.975255,23.2199885 252.694083,23.414954 253.171204,23.0649349 L257.281289,20.0584268 C257.712116,19.7434383 258.32577,19.7277415 258.776011,20.0210033 L266.189141,24.8503482 C266.699541,25.1832348 267.422636,24.9322778 267.550636,24.3788705 L272.98115,0.939841343 C273.120883,0.335323791 272.458909,-0.168983204 271.817415,0.0536431138 L241.556575,10.5284698 C240.809801,10.7868925 240.816307,11.7355907 241.565215,11.9874092 Z M251.332695,13.1422712 L265.743167,5.17835548 C266.002154,5.03564875 266.268608,5.34987154 266.046207,5.53497872 L254.153392,15.4545796 C253.735364,15.8037373 253.465711,16.2710037 253.389337,16.7781821 L252.984217,19.4720945 C252.930563,19.8317805 252.367469,19.8674812 252.256856,19.5193763 L250.698774,14.6069533 C250.52032,14.0466548 250.780374,13.4481671 251.332695,13.1422712 Z" id="XMLID_497_" fill="#3A3955"></path>
                                <path d="M0.565215093,11.9874092 L7.93866479,14.4567811 L10.7926418,22.6925192 C10.9752554,23.2199885 11.694083,23.414954 12.1712036,23.0649349 L16.281289,20.0584268 C16.7121163,19.7434383 17.3257704,19.7277415 17.776011,20.0210033 L25.1891407,24.8503482 C25.6995414,25.1832348 26.4226356,24.9322778 26.5506358,24.3788705 L31.9811496,0.939841343 C32.1208831,0.335323791 31.4589089,-0.168983204 30.8174147,0.0536431136 L0.556575093,10.5284698 C-0.190199207,10.7868925 -0.183692507,11.7355907 0.565215093,11.9874092 Z M10.3326946,13.1422712 L24.7431668,5.17835548 C25.0021538,5.03564875 25.2686075,5.34987154 25.0462072,5.53497872 L13.1533916,15.4545796 C12.7353644,15.8037373 12.4657107,16.2710037 12.3893373,16.7781821 L11.9842167,19.4720945 C11.9305633,19.8317805 11.3674693,19.8674812 11.2568558,19.5193763 L9.69877369,14.6069533 C9.52032019,14.0466548 9.78037379,13.4481671 10.3326946,13.1422712 Z" id="XMLID_497_-Copy" fill="#FFFFFF"></path>
                            </g>
                            <g id="twitter-w" transform="translate(69.000000, 1.000000)" fill="#FFFFFF">
                                <path d="M32.441488,2.904466 C31.248878,3.397839 29.96539,3.730636 28.618683,3.879567 C29.993707,3.11346 31.048024,1.899946 31.54522,0.45231 C30.259098,1.162644 28.835341,1.678081 27.318732,1.956332 C26.105049,0.752624 24.375073,0 22.460707,0 C18.785415,0 15.805537,2.773308 15.805537,6.194437 C15.805537,6.67923 15.864146,7.151765 15.978073,7.605913 C10.446366,7.347275 5.541585,4.881636 2.25878,1.133839 C1.685854,2.048264 1.357902,3.112234 1.357902,4.248524 C1.357902,6.397302 2.532732,8.293571 4.318683,9.40412 C3.228146,9.371637 2.201488,9.092774 1.303902,8.628819 C1.303244,8.654561 1.303244,8.680915 1.303244,8.707269 C1.303244,11.707958 3.597585,14.210983 6.642659,14.780967 C6.08422,14.921931 5.496146,14.997929 4.888976,14.997929 C4.45961,14.997929 4.042756,14.959317 3.636439,14.886384 C4.483976,17.34712 6.941634,19.138585 9.853683,19.188229 C7.575805,20.849763 4.706561,21.840186 1.587732,21.840186 C1.051024,21.840186 0.520902,21.810768 0,21.753156 C2.946293,23.511526 6.444439,24.536271 10.202707,24.536271 C22.445561,24.536271 29.139585,15.097829 29.139585,6.912126 C29.139585,6.643682 29.133659,6.375851 29.121146,6.109859 C30.421098,5.238335 31.549829,4.146785 32.441488,2.904466 Z" id="twitter-copy"></path>
                            </g>
                            <g id="twitter" transform="translate(206.000000, 0.000000)" fill="#3A3955">
                                <path d="M32.82,3.33 C31.62,3.86 30.35,4.22 29,4.38 C30.39116,3.5498586 31.4326435,2.24178385 31.93,0.7 C30.6221696,1.47404483 29.1915209,2.01857071 27.7,2.31 C25.6435587,0.0968385644 22.353682,-0.452021755 19.6901557,0.973692902 C17.0266295,2.39940756 15.6588374,5.441394 16.36,8.38 C11.0082325,8.11298868 6.02134164,5.58683039 2.64,1.43 C0.864344141,4.47131527 1.76766458,8.36962534 4.7,10.32 C3.64072091,10.2850342 2.60520092,9.99700876 1.68,9.48 L1.68,9.57 C1.68,12.79 3.98,15.47 7.02,16.09 C6.04195375,16.3564296 5.01620182,16.3974597 4.02,16.21 C4.89083909,18.9182443 7.38573365,20.7743495 10.23,20.83 C7.4418459,23.0177695 3.89819744,24.007113 0.38,23.58 C3.42123317,25.5390419 6.96241183,26.5805651 10.58,26.58 C22.83,26.58 29.52,16.43 29.52,7.64 C29.52,7.34 29.52,7.06 29.5,6.77 C30.8,5.84 31.93,4.67 32.82,3.33 Z" id="rfkra"></path>
                            </g>
                            <g id="linkedin-w" transform="translate(35.000000, 1.000000)" fill="#FFFFFF">
                                <path d="M31.9278109,21.946 C31.9157382,19.5068068 31.9043782,17.0687386 31.8823564,14.6295455 C31.8724073,13.6141477 31.69344,12.6198295 31.3504,11.6765568 C30.7253964,9.95980682 29.5577891,8.83120455 27.7786618,8.228625 C25.8163055,7.56389773 23.7474036,7.43294318 21.6352,7.83911364 C20.2900364,8.09656818 19.1330764,8.60593182 18.1806545,9.35944318 C18.1813673,9.16302273 18.1834909,8.96770455 18.1898909,8.77128409 C18.1927273,8.68139773 18.2019636,8.40506818 17.9533818,8.20643182 C17.7026764,8.00779545 17.3468509,8.00223864 17.2360582,8.01001136 C15.4498327,8.01778409 13.6671709,8.01778409 11.8837818,8.011125 C11.6891782,7.99669318 11.3873309,8.02665909 11.1664582,8.19867045 C10.9462836,8.36956818 10.9214255,8.59484091 10.9214255,8.75020455 C10.9306618,13.8915795 10.9299491,19.0329659 10.9214255,24.1754545 C10.9214255,24.3319318 10.9469964,24.5594205 11.1671709,24.7303182 C11.38592,24.9023295 11.6579345,24.9200795 11.8773964,24.9189773 C13.7438691,24.9101023 15.6096436,24.9101023 17.4761164,24.9189773 C17.4825018,24.9189773 17.4881891,24.9189773 17.4945891,24.9189773 C17.6927418,24.9189773 17.9711564,24.8978977 18.1820945,24.7336477 C18.4001309,24.5638636 18.4242764,24.3341477 18.4235782,24.1765682 C18.4115055,21.7351591 18.4079564,19.29375 18.4228655,16.8523523 C18.4271273,16.2586477 18.4740073,15.6649432 18.5620655,15.0889886 C18.6622109,14.4320341 18.9320873,13.9259886 19.3866327,13.5409205 C19.9363491,13.0748295 20.6693091,12.8972727 21.7971491,12.8995 C23.0592291,12.9183636 23.78224,13.3433864 24.1394764,14.28 C24.3908945,14.9391818 24.4122036,15.6327614 24.4129164,16.3452045 L24.4136291,24.1410568 C24.4136291,24.7258864 24.6522618,24.9134318 25.3944582,24.9134318 L30.8617891,24.9145455 C31.2332364,24.9145455 31.5017018,24.9134318 31.7211636,24.7414318 C31.9406255,24.5683182 31.9399127,24.3519205 31.9384873,24.0778182 L31.9278109,21.946 Z" id="Shape"></path>
                                <path d="M8.04853818,16.4794659 L8.04782545,14.6528523 C8.0464,12.6908523 8.04570182,10.7299545 8.05634909,8.76795455 C8.05706182,8.59151136 8.03006545,8.36622727 7.81131636,8.19644318 C7.59185455,8.02443182 7.26798545,7.99447727 7.09256727,8.00889773 C5.23674182,8.02 3.38305455,8.01888636 1.53006545,8.01001136 C1.30279273,8.01555682 1.02296727,8.02665909 0.800669091,8.19977273 C0.576945455,8.37288636 0.552087273,8.60593182 0.552087273,8.76573864 C0.562036364,13.897125 0.562036364,19.0296364 0.552087273,24.1621364 C0.552087273,24.3230455 0.578370909,24.5572045 0.801381818,24.7303182 C1.02439273,24.9023295 1.33050182,24.9045455 1.52653091,24.9189773 C3.38164364,24.907875 5.23604364,24.907875 7.08974545,24.9189773 C7.09684364,24.9189773 7.10324364,24.9189773 7.11034182,24.9189773 C7.32909091,24.9189773 7.60181818,24.8956705 7.81275636,24.7314318 C8.03079273,24.5616477 8.05778909,24.3385909 8.05707636,24.1621364 C8.04571636,22.1934773 8.04642909,20.2225909 8.04784,18.2528182 L8.04853818,16.4794659 Z" id="Shape"></path>
                                <path d="M4.32766545,0.0809886364 C4.31771636,0.0809886364 4.30849455,0.0809886364 4.29925818,0.0809886364 C1.92709818,0.0909772727 0.0656,1.55138636 0.0613381818,3.404625 C0.0613381818,3.40573864 0.0613381818,3.40573864 0.0613381818,3.40573864 C0.0613381818,4.28907955 0.525832727,5.15467045 1.33618909,5.78055682 C2.13093818,6.39535227 3.17070545,6.73270455 4.268,6.73270455 C4.28221091,6.73270455 4.29712,6.73159091 4.31133091,6.73159091 C6.74811636,6.71272727 8.58193455,5.28117045 8.57696,3.40129545 C8.57483636,2.48910227 8.13662545,1.64680682 7.34258909,1.03090909 C6.55067636,0.417238636 5.48107636,0.0809886364 4.32766545,0.0809886364 Z" id="Shape"></path>
                            </g>
                            <g id="github-logo" transform="translate(276.000000, 0.000000)" fill="#3A3956">
                                <path d="M25.1890657,6.63694558 C23.9818582,4.59520117 22.3443584,2.97874927 20.2761352,1.78722525 C18.2076042,0.595640463 15.949385,0 13.4998769,0 C11.0506766,0 8.79171854,0.595822783 6.7236185,1.78722525 C4.65521063,2.9786885 3.01777237,4.59520117 1.81056491,6.63694558 C0.60354216,8.67862922 0,10.9081636 0,13.3254878 C0,16.2292427 0.858245201,18.8403734 2.57516657,21.1595486 C4.29190324,23.478906 6.50967287,25.083811 9.22829076,25.9744457 C9.54474559,26.0324236 9.77900836,25.9916446 9.93132533,25.8531419 C10.0837039,25.7144569 10.1598008,25.5407665 10.1598008,25.3327998 C10.1598008,25.2980981 10.156784,24.985905 10.1509351,24.3958557 C10.1449016,23.8058064 10.1420695,23.2910553 10.1420695,22.8518457 L9.73775841,22.9208843 C9.47997701,22.9674976 9.15477966,22.9872489 8.76216634,22.9816578 C8.36973772,22.9762489 7.96234831,22.9356523 7.54055219,22.8601717 C7.11857137,22.7853596 6.72608119,22.6118514 6.3627738,22.3400118 C5.99965112,22.0681722 5.74186972,21.7123438 5.58949118,21.2730733 L5.41371715,20.8737919 C5.29655498,20.6079688 5.11209998,20.3126707 4.8601059,19.9889914 C4.60811181,19.6650082 4.35328563,19.445373 4.09550423,19.3297211 L3.97243163,19.2427543 C3.89042427,19.1849588 3.81432735,19.1152517 3.74395616,19.0343622 C3.67364655,18.9534728 3.62100669,18.8725226 3.58585188,18.7914508 C3.55063551,18.7103183 3.57981831,18.6437713 3.67370812,18.591567 C3.76759793,18.5393626 3.93727682,18.5140201 4.1834836,18.5140201 L4.53490854,18.5658598 C4.76929444,18.6122299 5.05921386,18.7507326 5.40503619,18.9822186 C5.75067382,19.2135223 6.03480593,19.5142293 6.25749408,19.884218 C6.52715793,20.3586154 6.85204745,20.7200958 7.23308615,20.9688415 C7.61381702,21.2175872 7.99768781,21.3417473 8.38432912,21.3417473 C8.77097043,21.3417473 9.10491032,21.3128192 9.38627191,21.2552667 C9.66732566,21.1974104 9.9310175,21.1104436 10.1772243,20.9948525 C10.2826887,20.219505 10.5698376,19.6238646 11.0384247,19.2075057 C10.3705449,19.138224 9.77008113,19.033876 9.23672545,18.8951303 C8.70367761,18.7562022 8.15283687,18.5307327 7.58457266,18.2181142 C7.0160006,17.905921 6.54433514,17.5182473 6.16945315,17.0557614 C5.79450958,16.5930325 5.48679728,15.9855412 5.24674721,15.2338345 C5.006574,14.481824 4.88645661,13.614344 4.88645661,12.6311513 C4.88645661,11.2312351 5.34944111,10.0399542 6.2752254,9.05664 C5.84154684,8.00416561 5.88248895,6.82431009 6.39817488,5.51719499 C6.7380252,5.41296855 7.24201338,5.49118396 7.90989315,5.75135505 C8.57789605,6.01164768 9.06698499,6.23462542 9.37765252,6.41949822 C9.68832004,6.60431024 9.93723577,6.76092339 10.1247691,6.88793988 C11.2148144,6.58729368 12.3397067,6.4369402 13.4997537,6.4369402 C14.6598008,6.4369402 15.7849393,6.58729368 16.8750462,6.88793988 L17.5429875,6.4717026 C17.9997537,6.19396799 18.539143,5.93944884 19.1598624,5.70808436 C19.7809511,5.47684143 20.2558797,5.41315087 20.5841554,5.51737731 C21.1112928,6.82455318 21.1582685,8.00434793 20.7244668,9.05682232 C21.6501895,10.0401365 22.1133587,11.2317213 22.1133587,12.6313336 C22.1133587,13.6145263 21.9928103,14.4847411 21.7530065,15.2425251 C21.5128949,16.0004307 21.2025352,16.6073142 20.8218043,17.064452 C20.4406425,17.521529 19.9659602,17.9061641 19.397696,18.2182965 C18.8293087,18.530672 18.2782832,18.7561414 17.7452354,18.8950695 C17.2119413,19.0339976 16.6114775,19.1384063 15.9435977,19.2078096 C16.5527425,19.7281518 16.8573764,20.5495048 16.8573764,21.671504 L16.8573764,25.3323136 C16.8573764,25.5402803 16.9306413,25.71391 17.0772941,25.8526557 C17.2237622,25.9911584 17.4550697,26.0319374 17.7715245,25.9738988 C20.4905118,25.0833856 22.7082815,23.4784199 24.4249566,21.1590624 C26.141447,18.8398872 27,16.2287565 27,13.3250016 C26.9993843,10.9079812 26.3955343,8.67862922 25.1890657,6.63694558 Z" id="Shape"></path>
                            </g>
                        </g>
                    </g>
                </g>
            </g>
        </g>
    </g>
</svg>