<?xml version="1.0" encoding="UTF-8"?>
<svg width="48px" height="44px" viewBox="0 0 48 44" version="1.1" xmlns="http://www.w3.org/2000/svg" xmlns:xlink="http://www.w3.org/1999/xlink">
    <!-- Generator: Sketch 49 (51002) - http://www.bohemiancoding.com/sketch -->
    <title>Shape</title>
    <desc>Created with Sketch.</desc>
    <defs></defs>
    <g id="Page-1" stroke="none" stroke-width="1" fill="none" fill-rule="evenodd">
        <g id="crowdsalePageRemastering" transform="translate(-8.000000, -2723.000000)" fill="#332C2B" fill-rule="nonzero">
            <g id="if_Kakao_Talk2_289120-(1)" transform="translate(0.000000, 2713.000000)">
                <g id="Shape_5_copy" transform="translate(8.125000, 10.125000)">
                    <path d="M29.5625,10.25 C29.942125,10.25 30,9.93375 30,9.5435 L30,9.331625 C30,8.941375 29.942125,8.625125 29.5625,8.625125 C29.182875,8.625125 29.125,8.941375 29.125,9.331625 L29.125,9.5435 C29.125,9.93375 29.182875,10.25 29.5625,10.25 Z M27.125,8.75 C27.094875,8.667 27.040875,8.5 26.8825,8.5 C26.724125,8.5 26.647625,8.62925 26.625,8.75 C26.602375,8.87075 26.5,9.75 26.5,9.75 L27.25,9.75 C27.25,9.75 27.155125,8.833 27.125,8.75 Z M23.8125,0.00175 C10.66125,0.089625 0,8.555375 0,18.91075 C0,25.389125 4.17275,31.072 10.517125,34.397875 C10.232125,37.346375 6.1485,42.257625 6,42.375 C5.82975,42.509625 5.0255,43.24825 5.875,43.375 C6.7665,43.496625 15.906,40.109625 19.386375,37.2065 C20.82075,37.40925 22.299875,37.51175 23.8125,37.501625 C36.96375,37.413875 47.625,28.947875 47.625,18.5925 C47.625,8.23725 36.96375,-0.086125 23.8125,0.00175 Z M28.375,9.25 C28.375,8.258375 28.93475,8 29.625,8 C30.31525,8 30.75,8.273875 30.75,9.25 L30.75,9.625 C30.75,10.5625 30.31525,10.875 29.625,10.875 C28.93475,10.875 28.375,10.655125 28.375,9.625 L28.375,9.25 Z M26.25,8.25 C26.3255,8.04625 26.6335,8 26.875,8 C27.1165,8 27.43975,8.069 27.5,8.25 C27.56025,8.431 28.125,10.875 28.125,10.875 L27.375,10.875 L27.25,10.25 L26.572125,10.25 L26.375,10.875 L25.625,10.875 C25.625,10.875 26.1745,8.453625 26.25,8.25 Z M20.625,8.25 C20.7005,8.04625 21.008625,8 21.25,8 C21.491375,8 21.814625,8.069 21.875,8.25 C21.935375,8.431 22.5,10.875 22.5,10.875 L21.75,10.875 L21.625,10.25 L20.94725,10.25 L20.75,10.875 L20,10.875 C20,10.875 20.5495,8.453625 20.625,8.25 Z M17.25,8 L18,8 L18,9.25 L18.875,8 L19.75,8 L18.75,9.375 L19.75,10.875 L18.875,10.875 L18,9.625 L18,10.875 L17.25,10.875 L17.25,8 Z M11.5,24 C11.5,24.65325 11.0875,25.5 10.25,25.5 C9.4125,25.5 9.0005,24.820625 9.0005,24 C9.0005,23.179375 9.0005,15.875 9.0005,15.875 C9.0005,15.875 7.472125,15.875 6.875,15.875 C6.277875,15.875 5.5,15.52075 5.5,14.625 C5.5,13.72925 6.25825,13.5 6.75,13.5 C7.24175,13.5 13.31975,13.5 13.75,13.5 C14.18025,13.5 15,13.961 15,14.75 C15,15.539 14.081625,15.875 13.625,15.875 C13.168375,15.875 11.5,15.875 11.5,15.875 C11.5,15.875 11.5,23.34675 11.5,24 Z M23.125,25.5 C22.122,25.86875 21.50775,24.67 21.375,24.375 C21.24225,24.08 20.94725,23.125 20.94725,23.125 L16.268625,23.125 C16.268625,23.125 15.861125,24.41775 15.625125,24.875 C15.389125,25.33225 14.568375,25.74375 13.875125,25.375 C13.181875,25.00625 13.212875,23.99375 13.375125,23.625 C13.537375,23.25625 16.146125,15.995125 16.500125,15.207 C16.854125,14.418875 17.45975,13.5 18.625,13.5 C19.79025,13.5 20.30275,14.440125 20.625,15.207 C20.94725,15.973875 23.625,23.19725 23.75,23.625 C23.875,24.05275 24.128,25.13125 23.125,25.5 Z M23.625,9.625 L23.625,10.875 L22.875,10.875 L22.875,8 L23.625,8 L23.625,9.25 L24.5,8 L25.375,8 L24.375,9.375 L25.375,10.875 L24.5,10.875 L23.625,9.625 Z M30.375,25.5 C30.253,25.5 27.383125,25.5 26.5,25.5 C26.43425,25.5 26.36625,25.494625 26.297625,25.486375 C26.242125,25.494625 26.184875,25.5 26.125,25.5 C25.2875,25.5 24.8755,24.820625 24.8755,24 C24.8755,23.32275 24.8755,15.45025 24.8755,15 C24.8755,14.179375 25.2875,13.5 26.125,13.5 C26.9625,13.5 27.375,14.34675 27.375,15 C27.375,15.119375 27.375,20.577 27.375,23.0005 C28.453625,23.0005 30.080125,23.0005 30.375,23.0005 C31.195625,23.0005 31.875,23.4125 31.875,24.25 C31.875,25.0875 31.02825,25.5 30.375,25.5 Z M40.95625,25.334875 C40.287875,25.839625 39.54975,25.545875 39.055125,24.890875 C38.901625,24.687625 37.3165,22.588875 35.894625,20.706125 C35.55375,21.047 35.2475,21.35325 35,21.60075 C35,22.73675 35,23.661125 35,23.999875 C35,24.653125 34.5875,25.499875 33.75,25.499875 C32.9125,25.499875 32.5005,24.8205 32.5005,23.999875 C32.5005,23.322625 32.5005,15.450125 32.5005,14.999875 C32.5005,14.17925 32.9125,13.499875 33.75,13.499875 C34.5875,13.499875 35,14.346625 35,14.999875 C35,15.05875 35,16.41525 35,18.065875 C36.745,16.320875 38.8545,14.211375 39.046875,14.018875 C39.627375,13.4385 40.398875,13.249625 40.991125,13.84175 C41.58325,14.434 41.27625,15.324375 40.814375,15.786375 C40.761625,15.839125 39.235,17.36575 37.67925,18.9215 C39.205,20.94175 40.996875,23.314375 41.04975,23.384375 C41.443375,23.90575 41.6245,24.830125 40.95625,25.334875 Z M17,20.75 L20.25,20.75 L18.625,16 L17,20.75 Z M21.5,8.75 C21.469875,8.667 21.415875,8.5 21.2575,8.5 C21.099,8.5 21.022625,8.62925 21,8.75 C20.977375,8.87075 20.875,9.75 20.875,9.75 L21.625,9.75 C21.625,9.75 21.530125,8.833 21.5,8.75 Z" id="Shape"></path>
                </g>
            </g>
        </g>
    </g>
</svg>