<?xml version="1.0" encoding="UTF-8"?>
<svg width="60px" height="60px" viewBox="0 0 60 60" version="1.1" xmlns="http://www.w3.org/2000/svg" xmlns:xlink="http://www.w3.org/1999/xlink">
    <!-- Generator: Sketch 49.1 (51147) - http://www.bohemiancoding.com/sketch -->
    <title>if_social-56_1591869 (1)</title>
    <desc>Created with Sketch.</desc>
    <defs></defs>
    <g id="Page-1" stroke="none" stroke-width="1" fill="none" fill-rule="evenodd">
        <g id="mainPageQuartz-Copy-3" transform="translate(-1576.000000, -96.000000)">
            <g id="if_social-56_1591869-(1)" transform="translate(1576.000000, 96.000000)">
                <circle id="Oval" fill="#FFFFFF" fill-rule="nonzero" cx="30" cy="30" r="30"></circle>
                <path d="M30.9826667,37.1693333 C29.8273333,38.2946667 28.682,39.4013333 27.5473333,40.5166667 C27.1506667,40.9073333 26.7046667,41.1233333 26.1353333,41.0933333 C25.7466667,41.0726667 25.5293333,40.902 25.41,40.5333333 C24.5406667,37.8353333 23.6586667,35.144 22.794,32.4433333 C22.71,32.1813333 22.586,32.054 22.3206667,31.972 C20.2726667,31.3466667 18.2286667,30.7066667 16.188,30.058 C15.874,29.958 15.5573333,29.8273333 15.286,29.6426667 C14.8666667,29.3586667 14.8053333,28.8953333 15.1813333,28.562 C15.5286667,28.2546667 15.9433333,27.9866667 16.374,27.816 C18.8773333,26.824 21.394,25.864 23.9066667,24.8953333 C30.2833333,22.4333333 36.66,19.9733333 43.0373333,17.5113333 C44.25,17.0426667 45.182,17.7026667 45.056,19.014 C44.9753333,19.8526667 44.758,20.678 44.5826667,21.506 C43.198,28.044 41.812,34.5826667 40.42,41.1193333 C40.0893333,42.6713333 38.9993333,43.0766667 37.722,42.1346667 C35.5826667,40.558 33.4453333,38.976 31.3073333,37.3966667 C31.2053333,37.3226667 31.0993333,37.2513333 30.9826667,37.1693333 Z M26.1806667,39.1546667 C26.2046667,39.148 26.2286667,39.1413333 26.2526667,39.1353333 C26.266,39.074 26.2853333,39.014 26.2906667,38.9533333 C26.428,37.4713333 26.5733333,35.99 26.6926667,34.5053333 C26.7193333,34.1746667 26.8326667,33.94 27.0813333,33.7173333 C29.0533333,31.954 31.0133333,30.1793333 32.9773333,28.4086667 C35.1513333,26.448 37.326,24.4893333 39.492,22.5206667 C39.626,22.3993333 39.682,22.1926667 39.774,22.0246667 C39.57,22.0026667 39.3513333,21.9206667 39.166,21.9686667 C38.9133333,22.034 38.674,22.1806667 38.4486667,22.3226667 C33.6506667,25.3446667 28.8566667,28.372 24.0553333,31.388 C23.784,31.5586667 23.7333333,31.7033333 23.8366667,32.0013333 C24.1906667,33.018 24.5126667,34.044 24.8466667,35.068 C25.2913333,36.4306667 25.736,37.7926667 26.1806667,39.1546667 Z" id="Shape" fill="#18184F"></path>
            </g>
        </g>
    </g>
</svg>