<?xml version="1.0" encoding="UTF-8"?>
<svg width="60px" height="60px" viewBox="0 0 60 60" version="1.1" xmlns="http://www.w3.org/2000/svg" xmlns:xlink="http://www.w3.org/1999/xlink">
    <!-- Generator: Sketch 49.3 (51167) - http://www.bohemiancoding.com/sketch -->
    <title>if_social-56_1591869 (1)</title>
    <desc>Created with Sketch.</desc>
    <defs></defs>
    <g id="Page-1" stroke="none" stroke-width="1" fill="none" fill-rule="evenodd">
        <g id="mainPageQuartz-Copy-7" transform="translate(-1576.000000, -96.000000)" fill="#FFFFFF" fill-rule="nonzero">
            <g id="if_social-56_1591869-(1)" transform="translate(1576.000000, 96.000000)">
                <path d="M30,60 C13.4314575,60 0,46.5685425 0,30 C0,13.4314575 13.4314575,0 30,0 C46.5685425,0 60,13.4314575 60,30 C60,46.5685425 46.5685425,60 30,60 Z M29.050487,37.8085374 C29.1671536,37.8905374 29.2731536,37.9618708 29.3751536,38.0358708 C31.5131536,39.6152041 33.650487,41.1972041 35.7898203,42.7738708 C37.0671536,43.7158708 38.1571536,43.3105374 38.4878203,41.7585374 C39.8798203,35.2218708 41.2658203,28.6832041 42.650487,22.1452041 C42.8258203,21.3172041 43.0431536,20.4918708 43.1238203,19.6532041 C43.2498203,18.3418708 42.3178203,17.6818708 41.1051536,18.1505374 C34.7278203,20.6125374 28.3511536,23.0725374 21.974487,25.5345374 C19.4618203,26.5032041 16.9451536,27.4632041 14.4418203,28.4552041 C14.0111536,28.6258708 13.596487,28.8938708 13.2491536,29.2012041 C12.8731536,29.5345374 12.934487,29.9978708 13.3538203,30.2818708 C13.6251536,30.4665374 13.9418203,30.5972041 14.2558203,30.6972041 C16.296487,31.3458708 18.340487,31.9858708 20.388487,32.6112041 C20.6538203,32.6932041 20.7778203,32.8205374 20.8618203,33.0825374 C21.726487,35.7832041 22.608487,38.4745374 23.4778203,41.1725374 C23.5971536,41.5412041 23.814487,41.7118708 24.2031536,41.7325374 C24.772487,41.7625374 25.218487,41.5465374 25.6151536,41.1558708 C26.7498203,40.0405374 27.8951536,38.9338708 29.050487,37.8085374 Z M24.248487,39.7938708 C23.8038203,38.4318708 23.3591536,37.0698708 22.914487,35.7072041 C22.580487,34.6832041 22.258487,33.6572041 21.904487,32.6405374 C21.8011536,32.3425374 21.8518203,32.1978708 22.1231536,32.0272041 C26.924487,29.0112041 31.718487,25.9838708 36.516487,22.9618708 C36.7418203,22.8198708 36.9811536,22.6732041 37.2338203,22.6078708 C37.4191536,22.5598708 37.6378203,22.6418708 37.8418203,22.6638708 C37.7498203,22.8318708 37.6938203,23.0385374 37.5598203,23.1598708 C35.3938203,25.1285374 33.2191536,27.0872041 31.0451536,29.0478708 C29.0811536,30.8185374 27.1211536,32.5932041 25.1491536,34.3565374 C24.900487,34.5792041 24.7871536,34.8138708 24.760487,35.1445374 C24.6411536,36.6292041 24.4958203,38.1105374 24.358487,39.5925374 C24.3531536,39.6532041 24.3338203,39.7132041 24.320487,39.7745374 C24.296487,39.7805374 24.272487,39.7872041 24.248487,39.7938708 Z" id="Combined-Shape"></path>
            </g>
        </g>
    </g>
</svg>