<?xml version="1.0" encoding="UTF-8"?>
<svg width="33px" height="25px" viewBox="0 0 33 25" version="1.1" xmlns="http://www.w3.org/2000/svg" xmlns:xlink="http://www.w3.org/1999/xlink">
    <!-- Generator: Sketch 49.3 (51167) - http://www.bohemiancoding.com/sketch -->
    <title>twitter copy</title>
    <desc>Created with Sketch.</desc>
    <defs></defs>
    <g id="Page-1" stroke="none" stroke-width="1" fill="none" fill-rule="evenodd">
        <g id="Artboard" transform="translate(-513.000000, -723.000000)" fill="#FFFFFF" fill-rule="nonzero">
            <g id="Group-27" transform="translate(169.000000, 79.000000)">
                <path d="M376.441488,646.904466 C375.248878,647.397839 373.96539,647.730636 372.618683,647.879567 C373.993707,647.11346 375.048024,645.899946 375.54522,644.45231 C374.259098,645.162644 372.835341,645.678081 371.318732,645.956332 C370.105049,644.752624 368.375073,644 366.460707,644 C362.785415,644 359.805537,646.773308 359.805537,650.194437 C359.805537,650.67923 359.864146,651.151765 359.978073,651.605913 C354.446366,651.347275 349.541585,648.881636 346.25878,645.133839 C345.685854,646.048264 345.357902,647.112234 345.357902,648.248524 C345.357902,650.397302 346.532732,652.293571 348.318683,653.40412 C347.228146,653.371637 346.201488,653.092774 345.303902,652.628819 C345.303244,652.654561 345.303244,652.680915 345.303244,652.707269 C345.303244,655.707958 347.597585,658.210983 350.642659,658.780967 C350.08422,658.921931 349.496146,658.997929 348.888976,658.997929 C348.45961,658.997929 348.042756,658.959317 347.636439,658.886384 C348.483976,661.34712 350.941634,663.138585 353.853683,663.188229 C351.575805,664.849763 348.706561,665.840186 345.587732,665.840186 C345.051024,665.840186 344.520902,665.810768 344,665.753156 C346.946293,667.511526 350.444439,668.536271 354.202707,668.536271 C366.445561,668.536271 373.139585,659.097829 373.139585,650.912126 C373.139585,650.643682 373.133659,650.375851 373.121146,650.109859 C374.421098,649.238335 375.549829,648.146785 376.441488,646.904466 Z" id="twitter-copy"></path>
            </g>
        </g>
    </g>
</svg>