<?xml version="1.0" encoding="UTF-8"?>
<svg width="273px" height="50px" viewBox="0 0 273 50" version="1.1" xmlns="http://www.w3.org/2000/svg" xmlns:xlink="http://www.w3.org/1999/xlink">
    <!-- Generator: Sketch 49 (51002) - http://www.bohemiancoding.com/sketch -->
    <title>hemophilia copy</title>
    <desc>Created with Sketch.</desc>
    <defs></defs>
    <g id="Page-1" stroke="none" stroke-width="1" fill="none" fill-rule="evenodd">
        <g id="mainPage-Copy" transform="translate(-1392.000000, -947.000000)" fill-rule="nonzero">
            <g id="hemophilia-copy" transform="translate(1392.000000, 947.000000)">
                <path d="M192.904489,7.57731959 L194.181591,8.60824742 C195.386307,8.94845361 195.319091,11.0463918 197.040852,10.6701031 L197.950852,11.5 C197.899148,12.2010309 198.421364,12.6443299 198.71608,13.1958763 C198.881534,13.4742268 199.010795,13.7731959 199.150398,14.0618557 C200.339602,15.0309278 200.66017,14.0618557 201.022102,13.2216495 C201.141023,10.3917526 200.960057,7.55154639 201.120341,4.7371134 C201.389205,3.8556701 202.082045,3.25257732 202.573239,2.51546392 C203.34733,1.70624485 204.45003,1.29423446 205.566932,1.39690722 C209.06733,1.43298969 212.572898,1.55154639 216.057784,1.34536082 C217.546875,1.25773196 218.415511,2.52061856 219.77017,2.42783505 C220.711193,1.43814433 221.729773,1.40721649 222.784545,1.40721649 C225.886818,1.40721649 228.952898,1.43298969 232.034489,1.40721649 C233.027216,1.44329897 233.585625,0.329896907 234.619716,0.422680412 C240.720852,0.340206186 246.821989,0.422680412 252.917955,0.37628866 L254.200227,1.40721649 C256.340795,2.60309278 255.59108,4.87113402 256.15983,6.6443299 C257.224943,7.67525773 258.579602,7.30927835 259.836023,7.3814433 C261.805966,7.49484536 263.796591,7.19072165 265.751023,7.62886598 C266.268068,7.79381443 266.557614,8.25773196 266.945398,8.58247423 C267.49961,9.46413197 268.170969,10.2669516 268.941193,10.9690722 C269.36517,11.628866 270.078693,12 270.600909,12.5463918 C271.262727,13.2680412 271.795284,14.0927835 272.43125,14.8350515 C272.462273,22.814433 272.400227,30.8298969 272.457102,38.8453608 C272.937955,40.7938144 270.823239,41.0051546 270.187273,42.2061856 C269.750404,42.6497611 269.282134,43.0614738 268.78608,43.4381443 C268.226326,43.6443575 267.627929,43.7253076 267.033295,43.6752577 C265.771705,43.6082474 265.021989,44.4845361 264.205057,45.2216495 C264.166036,45.7266371 263.975014,46.2081201 263.656989,46.6030928 C263.139943,47.1185567 262.622898,47.6804124 261.790455,47.5360825 C258.646818,45.9072165 255.270511,45.5103093 251.780455,45.5103093 C209.686061,45.5103093 167.591667,45.5103093 125.497273,45.5103093 C123.942506,45.523039 122.389383,45.614221 120.843864,45.7835052 C118.258636,46.0412371 116.231818,47.0618557 114.949545,49.3917526 C112.204034,50.3659794 109.360284,49.6443299 106.568239,49.8505155 C105.632386,49.9175258 104.681023,49.8505155 103.74517,49.8505155 C102.674886,50.0257732 101.992386,49.2010309 101.159943,48.8195876 C99.5053977,49.1237113 99.5622727,47.7010309 98.8642614,47.2010309 C98.5436932,46.3195876 98.9780114,45.2731959 98.2644886,44.4742268 C95.8033523,43.3814433 93.2077841,44.1030928 90.6794318,43.9175258 C89.4023295,43.8247423 88.0942045,43.9690722 86.8326136,43.8608247 C86.0771712,43.8301983 85.3465757,43.5832357 84.7282386,43.1494845 C83.9268182,42.4536082 82.9496023,42.6340206 82.0189205,42.6340206 C72.9258144,42.6340206 63.8309848,42.6340206 54.7344318,42.6340206 C53.5969318,42.6340206 52.495625,42.6340206 51.6321591,43.5257732 C46.2859091,44.3969072 40.9138068,43.8865979 35.5520455,43.8402062 C34.3938636,43.871134 33.6544886,42.8402062 32.5738636,42.6649485 C28.665,42.5824742 24.7509659,42.7061856 20.8421023,42.5979381 C20.2125703,42.4755132 19.6034023,42.2655593 19.0324432,41.9742268 C18.2517045,41.6752577 17.7605114,42.3505155 17.1245455,42.5412371 C16.2145455,42.6237113 15.3045455,42.7164948 14.389375,42.7525773 C11.2871023,42.4896907 8.18482955,42.7061856 5.04636364,42.6340206 C4.29664773,42.5773196 3.46420455,42.7628866 2.97818182,41.9278351 L0.966875,39.7525773 C-0.124090909,35.628866 0.496363636,31.4690722 0.635965909,27.3195876 C0.175795455,19.9639175 0.527386364,12.5979381 0.444659091,5.2371134 C0.428455964,4.4540304 0.752725842,3.70222109 1.33397727,3.17525773 C1.52011364,2.52061856 2.18193182,2.25257732 2.52835227,1.72680412 L2.47664773,1.55670103 C5.289375,0.62371134 8.16414773,1.32989691 11.0389205,1.15979381 C12.6461883,1.07473475 14.2571479,1.08678429 15.8629545,1.19587629 C16.7367614,1.19587629 17.5485227,1.6185567 18.4481818,1.61340206 C19.0196593,1.49217513 19.6013178,1.42486771 20.1854545,1.41237113 C24.0426136,1.41237113 27.9049432,1.41237113 31.7621023,1.41237113 C32.7151758,1.29149361 33.6580308,1.70112307 34.2180682,2.47938144 L34.9936364,2.41237113 C35.4133026,2.98614069 35.882126,3.52251741 36.3948295,4.01546392 C36.5630069,4.33708976 36.6716021,4.68632551 36.7153977,5.04639175 C36.8394886,6.15979381 36.7826136,7.38659794 38.3699432,7.54639175 C53.0902273,7.6185567 67.8001705,7.54639175 82.5049432,7.58762887 C83.4120118,7.69872578 84.3317809,7.64458173 85.2194318,7.42783505 C94.9502273,7.11340206 104.681023,7.36597938 114.406648,7.28350515 C115.957784,7.28350515 117.50892,7.3556701 119.023864,6.9742268 C120.502614,6.24742268 120.109659,4.77835052 120.368182,3.56701031 C120.432617,3.30022367 120.540939,3.04592189 120.68875,2.81443299 C121.205795,2.34536082 121.567727,1.69587629 122.193352,1.32474227 C122.85517,0.5 123.744489,0.350515464 124.742386,0.365979381 C128.790852,0.422680412 132.839318,0.257731959 136.882614,0.453608247 C137.916705,0.783505155 138.366534,1.7371134 139.049034,2.44845361 C139.928011,3.10309278 140.527784,3.85051546 141.61358,3.15979381 C142.043424,2.67365395 142.517702,2.22843648 143.030284,1.82989691 C146.184261,0.917525773 149.410625,1.64948454 152.595625,1.3814433 C153.67108,1.3814433 154.338068,0.149484536 155.506591,0.37628866 C162.347102,0.37628866 169.187614,0.283505155 176.022955,0.43814433 C176.783011,0.577319588 177.165625,1.30927835 177.837784,1.59278351 C178.35483,2.19587629 179.011477,2.71649485 179.280341,3.51546392 C179.854261,4.81443299 178.763295,6.71649485 180.74875,7.51030928 C184.812727,7.65463918 188.861193,7.60309278 192.904489,7.57731959 Z" id="Shape" fill="#FEFEFE"></path>
                <path d="M6.13215909,21.0154639 C6.13215909,16.814433 6.16835227,12.6082474 6.13215909,8.40721649 C6.13215909,6.90206186 6.33380682,5.92268041 8.20034091,6.1185567 C9.839375,6.28865979 11.8506818,5.60309278 11.8196591,8.38659794 C11.8196591,10.5309278 11.9540909,12.685567 11.7834659,14.814433 C11.6025,17.0360825 12.5176705,17.7010309 14.6013636,17.5154639 C16.2320071,17.370838 17.8723111,17.370838 19.5029545,17.5154639 C21.385,17.685567 21.8658523,16.8917526 21.7727841,15.1546392 C21.6435227,12.8453608 21.8141477,10.5154639 21.72625,8.21134021 C21.6228409,5.63402062 23.4686932,6.22680412 24.9215909,6.14948454 C26.4727273,6.06701031 27.8015341,6.03608247 27.7756818,8.30412371 C27.6895076,16.7955326 27.6895076,25.2869416 27.7756818,33.7783505 C27.7756818,36.3556701 26.0228977,35.757732 24.57,35.8402062 C23.0188636,35.9226804 21.6280114,35.9484536 21.7210795,33.6804124 C21.8451705,30.685567 21.7210795,27.6752577 21.7676136,24.6752577 C21.8038068,23.128866 21.2505682,22.5154639 19.6632386,22.6134021 C17.8592551,22.7399051 16.0485858,22.7399051 14.2446023,22.6134021 C12.341875,22.4690722 11.8248295,23.4484536 11.83,25.0618557 C11.83,27.8092784 11.7524432,30.556701 11.83,33.3092784 C11.9178977,35.8505155 10.3874432,35.8247423 8.48471591,35.9123711 C6.41653409,36.0103093 6.03909091,35.1804124 6.08045455,33.3762887 C6.20454545,29.2525773 6.13215909,25.1340206 6.13215909,21.0154639 Z" id="Shape" fill="#949494"></path>
                <path d="M75.4886364,14.2268041 C78.2393182,15.257732 79.3302841,17.5257732 79.4285227,20.1752577 C79.5888068,24.6340206 79.3871591,29.1030928 79.51125,33.5773196 C79.5732955,35.7371134 78.430625,35.8608247 76.7657386,35.8917526 C75.1008523,35.9226804 74.1805114,35.6494845 74.2684091,33.6907216 C74.3925,30.3453608 74.3097727,26.9896907 74.2942614,23.6494845 C74.2942614,22.9690722 74.4286932,22.1597938 74.1236364,21.628866 C73.4152841,20.3917526 73.880625,17.9845361 71.3057386,18.4278351 C69.0876136,18.8092784 68.1672727,20.3298969 68.1414205,22.443299 C68.1000568,25.8762887 67.9501136,29.3195876 68.1414205,32.7525773 C68.2861932,35.2783505 67.4020455,36.0412371 64.9253977,35.9381443 C63.0588636,35.8608247 62.4952841,35.0876289 62.5004545,33.4587629 C62.5004545,29.7680412 62.5728409,26.0721649 62.4642614,22.3865979 C62.4228977,20.9329897 62.6090341,19.1340206 60.7373295,18.5 C58.865625,17.8659794 57.1180114,19.2938144 56.7664205,21.4381443 C56.1149432,25.185567 56.3372727,28.9639175 56.30625,32.7319588 C56.30625,34.4175258 56.3838068,35.9020619 53.8347727,35.9484536 C51.2857386,35.9948454 51.1047727,34.5979381 51.1151136,32.7113402 C51.1461364,27.4742268 51.1151136,22.2371134 51.1151136,17 C51.1151136,16.1030928 50.7583523,14.7525773 51.8596591,14.5309278 C53.1367614,14.2731959 54.8326705,13.5 55.8150568,15.0463918 C56.5751136,16.242268 57.2110795,15.3402062 57.6919318,15.0824742 C61.0475568,13.3041237 63.4207955,13.3402062 66.0939205,15.628866 C67.0504545,16.443299 67.5261364,16.4226804 68.3999432,15.5721649 C68.9169886,15.0927835 69.3719886,14.3453608 70.240625,14.3195876 C71.9778977,13.6649485 73.7151705,13.4587629 75.4886364,14.2268041 Z" id="Shape" fill="#949494"></path>
                <path d="M126.190114,21.0927835 C126.190114,16.8865979 126.25733,12.685567 126.159091,8.48453608 C126.117727,6.66494845 126.805398,6.05154639 128.578864,6.1185567 C130.181705,6.18041237 131.789716,5.96391753 131.779375,8.29896907 C131.779375,10.0996564 131.779375,11.9020619 131.779375,13.7061856 C131.779375,15.2061856 132.099943,15.7164948 133.754489,14.7886598 C137.198011,12.8659794 141.287841,13.8762887 143.035455,16.7061856 C143.516873,17.5176813 143.755477,18.4495034 143.723125,19.3917526 C143.754148,24.1958763 143.723125,29 143.790341,33.8247423 C143.821364,35.5979381 143.030284,35.9948454 141.442955,35.8865979 C139.933182,35.7938144 138.495795,36.0309278 138.557841,33.7319588 C138.66125,29.7010309 138.557841,25.6701031 138.557841,21.6391753 C138.557841,19.8092784 138.040795,18.4175258 135.833011,18.4072165 C133.88375,18.4072165 132.6325,19.1649485 132.213693,21.2061856 C131.427784,25.0360825 131.913807,28.9020619 131.789716,32.7474227 C131.696648,35.5618557 129.468182,36.9587629 126.976023,35.7164948 C125.941932,35.2010309 126.200455,34.2731959 126.195284,33.4639175 C126.159091,29.3247423 126.190114,25.2061856 126.190114,21.0927835 Z" id="Shape" fill="#949494"></path>
                <path d="M105.477273,14.3659794 C106.966364,14.7474227 109.184489,12.9845361 109.851477,15.871134 C109.923864,16.1804124 110.368523,15.7938144 110.652898,15.6546392 C117.757102,12.2061856 122.224375,14.3298969 123.346364,22.0515464 C123.920284,25.9948454 123.863409,30.0463918 120.993807,33.4742268 C118.739928,36.3043425 114.672341,36.9103615 111.686989,34.8608247 C110.135852,34.2731959 110.135852,35.3762887 110.10483,36.3298969 C110.042784,38.1340206 110.10483,39.9381443 110.068636,41.742268 C110.032443,43.5463918 108.770852,43.6752577 107.390341,43.6752577 C106.00983,43.6752577 104.944716,43.4536082 104.944716,41.7783505 C104.944716,33.0154639 104.87233,24.2525773 104.970568,15.4896907 C104.983154,15.0629156 105.165448,14.6586454 105.477273,14.3659794 Z" id="Shape" fill="#949494"></path>
                <path d="M92.0909659,36.0463918 C85.9743182,36.0876289 82.1947159,32.0309278 82.1326705,25.3659794 C82.0654545,18.1494845 85.7261364,13.814433 92.0754545,13.7989691 C98.28,13.7989691 102.059602,18.4020619 102.126818,24.9278351 C102.183693,30.9690722 98.1869318,36.3041237 92.0909659,36.0463918 Z" id="Shape" fill="#949494"></path>
                <path d="M191.751477,25.4587629 C191.829034,27.9329897 191.606705,30.4123711 192.134091,32.8814433 C192.330568,33.7835052 192.961364,35.2319588 191.77733,35.6546392 C190.593295,36.0773196 188.675057,36.4845361 187.894318,35.3350515 C186.560341,33.371134 185.588295,34.7113402 184.518011,35.2783505 C181.245114,37 177.522386,36.1494845 175.578295,33.1752577 C173.411875,29.8608247 175.004375,24.9896907 178.737443,23.7268041 C180.273133,23.2090074 181.850814,22.8244166 183.452898,22.5773196 C184.698977,22.3865979 185.970909,22.1443299 186.301818,20.8762887 C186.518977,20.0515464 186.157045,18.814433 185.07125,18.6030928 C183.70108,18.3041237 182.175795,17.8608247 180.991761,19.1185567 C180.52642,19.6030928 180.278239,20.4226804 179.585398,20.5360825 C178.318636,20.742268 176.736477,20.943299 175.909205,20.0515464 C175.081932,19.1597938 175.821307,17.8969072 176.483125,16.7938144 C177.579261,14.9742268 179.228636,14.4948454 181.136534,14.056701 C183.505112,13.5756424 185.958398,13.7159595 188.25625,14.4639175 C189.924573,14.9345154 191.14719,16.3565385 191.358523,18.0721649 C191.693623,20.5193465 191.825056,22.9899731 191.751477,25.4587629 Z" id="Shape" fill="#949494"></path>
                <path d="M251.216875,14.2989691 C252.314494,13.909631 254.205398,13.6134021 255.803068,13.8247423 C262.19375,14.6804124 263.9,20.6185567 263.693182,25.5876289 C263.646648,26.7835052 262.840057,26.6597938 262.07483,26.6597938 C258.972557,26.6597938 255.870284,26.7319588 252.768011,26.6597938 C251.26858,26.6134021 250.901477,27.3041237 251.263409,28.5103093 C251.675589,29.9952391 252.814096,31.1710082 254.288125,31.6340206 C255.668636,32.0721649 256.630341,31.2061856 257.462784,30.1185567 C258.646818,28.5721649 261.371648,28.4845361 262.87108,29.7474227 C263.429489,30.2164948 263.227841,30.443299 263.000341,30.9793814 C261.28375,35.0206186 257.566193,36.8041237 252.488807,35.9381443 C249.128011,35.3659794 246.134318,31.9175258 245.974034,28.2061856 C245.865455,25.628866 246.015398,20.7395971 246.015398,20.5103093 C246.015398,20.2810215 246.141074,19.7688574 246.871201,18.4345861 C247.601327,17.1003147 248.652875,15.9077762 249.174545,15.443299 C249.696216,14.9788217 250.119256,14.6883071 251.216875,14.2989691 Z" id="Shape" fill="#949494"></path>
                <path d="M41.3636364,30.8659794 C42.7338068,28.6340206 44.5589773,28.2886598 46.865,29.4123711 C47.7491477,29.8453608 47.8990909,30.2319588 47.5888636,31.1752577 C46.8598295,33.3659794 44.1815341,35.6649485 41.8289773,35.9484536 C36.1931818,36.6185567 31.6380114,35.0206186 30.6297727,27.5721649 C30.1127273,23.5927835 30.2316477,19.6752577 33.10125,16.4793814 C35.5055114,13.7989691 38.5922727,13.2886598 41.9944318,14.2061856 C45.0967045,15.0360825 46.8288068,17.0927835 47.5733523,20.1082474 C47.6953874,20.5164043 47.8403899,20.9173832 48.0076705,21.3092784 C49.5588068,25.4639175 48.7780682,26.6701031 44.5434659,26.6701031 C42.4752841,26.6701031 40.4071023,26.6185567 38.3389205,26.6701031 C37.5685227,26.6958763 36.4310227,26.1546392 36.1207955,27.2989691 C35.888125,28.1597938 35.888125,29.1804124 36.8136364,29.8762887 C37.1214433,30.1492656 37.4019616,30.4513678 37.65125,30.7783505 C38.7687478,31.5171568 40.2123178,31.5512315 41.3636364,30.8659794 Z" id="Shape" fill="#949494"></path>
                <path d="M210.77875,18.8453608 C210.77875,22.1082474 210.825284,25.371134 210.77875,28.6391753 C210.747727,30.1546392 211.244091,30.7783505 212.846932,30.7010309 C215.768239,30.5876289 218.699886,30.742268 221.636705,30.6391753 C223.337784,30.5824742 224.009943,31.2216495 223.85483,32.8865979 C223.720398,34.3092784 224.035795,35.8969072 221.714261,35.8608247 C216.888504,35.7852234 212.062746,35.7852234 207.236989,35.8608247 C205.685852,35.8608247 205.21017,35.0721649 205.205,33.8402062 C205.17053,25.3453608 205.17053,16.8487973 205.205,8.35051546 C205.205,6.28865979 206.859545,6.51546392 208.219375,6.54639175 C209.579205,6.57731959 210.840795,6.59278351 210.804602,8.53608247 C210.727045,11.9742268 210.77875,15.4123711 210.77875,18.8453608 Z" id="Shape" fill="#949494"></path>
                <path d="M241.873864,18.9020619 C241.873864,23.3556701 241.71358,28.8659794 241.842841,33.314433 C241.904886,35.4742268 240.989716,35.8453608 239.092159,35.8917526 C237.194602,35.9381443 236.506932,35.3453608 236.584489,33.4381443 C236.698239,29.5 236.584489,25.556701 236.641364,21.6185567 C236.641364,20.933866 236.641364,20.0283677 236.641364,18.9020619 L233.558566,18.9020619 L233.558566,14.3453608 L236.584489,14.3453608 C236.625852,13.8573883 236.644811,13.2439863 236.641364,12.5051546 C236.641364,11.0721649 236.331136,9.55670103 237.06017,8.23195876 C238.135625,6.26804124 243.978239,4.93298969 245.896477,6.17010309 C246.987443,6.87113402 246.284261,7.84536082 246.201534,8.74742268 C246.118807,9.64948454 245.953352,10.4020619 244.696932,10.2525773 C243.440511,10.1030928 242.256477,10.0412371 241.873864,11.6958763 C241.356818,13.9175258 241.749773,14.2731959 244.976136,14.3453608 C244.976136,17.4073669 244.976136,18.4761296 244.976136,18.9020619 C244.514298,18.9020619 242.388179,18.9020619 241.873864,18.9020619 Z" id="Shape" fill="#949494"></path>
                <path d="M162.393636,20.9948454 C162.393636,25.1907216 162.32125,29.3865979 162.424659,33.5824742 C162.471193,35.3969072 161.830057,35.9536082 160.04108,35.8969072 C158.252102,35.8402062 157.130114,35.742268 157.161136,33.4536082 C157.271439,25.1477663 157.271439,16.8419244 157.161136,8.53608247 C157.130114,6.25257732 158.277955,6.14948454 160.035909,6.09278351 C161.793864,6.03608247 162.466023,6.60824742 162.419489,8.40721649 C162.32125,12.5979381 162.393636,16.7989691 162.393636,20.9948454 Z" id="Shape" fill="#949494"></path>
                <path d="M231.677727,24.8556701 C231.677727,27.8556701 231.584659,30.8608247 231.70875,33.8505155 C231.796648,35.9948454 230.504034,35.9123711 229.051136,35.8505155 C227.686136,35.814433 226.315966,36.1701031 226.35733,33.9278351 C226.467633,27.9312715 226.467633,21.9329897 226.35733,15.9329897 C226.321136,13.9072165 227.603409,14.1907216 228.725398,14.3298969 C229.847386,14.4690722 231.719091,13.3556701 231.688068,15.8762887 C231.636364,18.8556701 231.677727,21.8556701 231.677727,24.8556701 Z" id="Shape" fill="#949494"></path>
                <path d="M166.488636,24.6649485 C166.488636,21.8350515 166.597216,18.9948454 166.452443,16.1701031 C166.333523,13.8350515 167.90017,14.3350515 169.192784,14.2938144 C170.485398,14.2525773 171.778011,13.9690722 171.710795,16.0927835 C171.597045,22.0103093 171.607386,27.9484536 171.710795,33.8556701 C171.746989,36 170.500909,35.8505155 169.042841,35.871134 C167.450341,35.8969072 166.385227,35.6701031 166.457614,33.6752577 C166.597216,30.6752577 166.488636,27.6701031 166.488636,24.6649485 Z" id="Shape" fill="#949494"></path>
                <path d="M153.081648,25.0257732 C153.081648,28.0309278 153.024773,31.0360825 153.081648,34.0360825 C153.128182,35.814433 152.109602,35.9536082 150.765284,35.8505155 C149.420966,35.7474227 147.859489,36.257732 147.86983,34.0103093 C147.906023,27.9175258 147.86983,21.8247423 147.86983,15.7268041 C147.86983,13.4845361 149.674318,14.4381443 150.749773,14.3247423 C151.825227,14.2113402 153.097159,13.8659794 153.060966,15.7525773 C153.045455,18.8453608 153.081648,21.9329897 153.081648,25.0257732 Z" id="Shape" fill="#949494"></path>
                <path d="M105.477273,14.3659794 C105.45142,23.3505155 105.477273,32.3298969 105.363523,41.314433 C105.363523,43.0773196 106.226989,43.1958763 107.597159,43.2113402 C108.96733,43.2268041 109.665341,42.8556701 109.587784,41.3350515 C109.494716,39.2731959 109.587784,37.2113402 109.587784,35.1752577 C109.587784,34.6597938 109.587784,34.0721649 110.22375,33.9329897 C110.963125,33.7680412 111.614602,33.8969072 111.676648,34.8608247 C110.590852,34.9742268 110.601193,35.7628866 110.606364,36.5618557 C110.606364,37.9381443 110.606364,39.3092784 110.606364,40.685567 C110.606364,44.1391753 110.425398,44.2061856 106.961193,44.2474227 C104.841307,44.2474227 104.334602,43.3402062 104.350114,41.4329897 C104.412159,33.1030928 104.350114,24.7731959 104.401818,16.443299 C104.386307,15.6443299 103.833068,14.3814433 105.477273,14.3659794 Z" id="Shape" fill="#949494"></path>
                <path d="M226.424545,8.84020619 C225.9075,6.57216495 226.941591,6.07731959 229.164886,6.04123711 C231.543295,6 231.677727,7.07216495 231.750114,8.93814433 C231.848352,11.185567 231.103807,11.8402062 228.854659,11.8659794 C226.465909,11.8917526 226.103977,10.7938144 226.424545,8.84020619 Z" id="Shape" fill="#949494"></path>
                <path d="M153.076477,8.85051546 C153.257443,10.5773196 153.200568,11.943299 150.82733,11.8298969 C148.759148,11.742268 147.725057,11.2474227 147.802614,8.89175258 C147.864659,6.86597938 148.319659,6.08247423 150.537784,6.03608247 C152.848977,5.98453608 153.391875,6.92268041 153.076477,8.85051546 Z" id="Shape" fill="#949494"></path>
                <path d="M171.659091,8.81443299 C171.917614,10.7113402 171.659091,11.9072165 169.36858,11.8350515 C167.238352,11.757732 166.364545,11.1134021 166.400739,8.83505155 C166.436932,6.73195876 167.078068,6.09278351 169.192784,6.04123711 C171.571193,5.9742268 172.052045,6.97938144 171.659091,8.81443299 Z" id="Shape" fill="#949494"></path>
                <path d="M41.3636364,30.8659794 C40.0865341,32.6443299 38.8559659,32.1804124 37.65125,30.7835052 L41.3636364,30.8659794 Z" id="Shape" fill="#949494"></path>
                <path d="M117.96392,24.9329897 C117.956503,26.0441903 117.887458,27.154132 117.757102,28.257732 C117.493409,29.8041237 116.531705,30.9072165 114.939205,31.1082474 C113.481136,31.2938144 112.126477,31.0154639 111.200966,29.5618557 C109.841136,27.443299 109.577443,22.4536082 110.983807,20.4948454 C111.867955,19.2628866 112.95892,17.9175258 114.742727,18.4896907 C116.437921,18.9177518 117.679942,20.3623441 117.845,22.0979381 C117.892948,23.0371929 117.892948,23.978271 117.845,24.9175258 L117.96392,24.9329897 Z" id="Shape" fill="#FAFCFD"></path>
                <path d="M87.6960795,25.0412371 C87.8511932,23.6237113 87.5409659,22.1804124 88.4302841,20.8247423 C89.3196023,19.4690722 90.5501705,18.5773196 92.1323295,18.5721649 C93.7194027,18.6042473 95.1382886,19.5661384 95.7516477,21.0257732 C96.8725936,23.4644781 96.887661,26.2659464 95.7930114,28.7164948 C95.0536364,30.4381443 93.5748864,31.5051546 91.4705114,31.0670103 C89.5824644,30.7433231 88.1199396,29.2415303 87.8511932,27.3505155 C87.7412521,26.5857463 87.6894001,25.8137918 87.6960795,25.0412371 Z" id="Shape" fill="#FBFDFD"></path>
                <path d="M182.894489,31.8247423 C181.121023,31.9484536 180.133466,31.0051546 179.916307,29.371134 C179.699148,27.7371134 182.455,25.8969072 185.319432,25.7628866 C186.405227,25.7061856 186.601705,26.3298969 186.617216,27.2164948 C186.653409,29.8092784 185.102273,31.7783505 182.894489,31.8247423 Z" id="Shape" fill="#ECF6FA"></path>
                <path d="M254.639716,23.1134021 C253.619734,23.1134021 251.503557,23.2388702 251.263409,21.8556701 C250.987772,20.2680594 253.186818,18.314433 254.939602,18.3608247 C256.604489,18.4020619 258.471023,20.2628866 258.419318,21.8195876 C258.372784,23.0721649 258.264205,23.1134021 254.639716,23.1134021 Z" id="Shape" fill="#EFF0F4"></path>
                <path d="M36.1414773,20.4845361 C39.4867614,17 41.6790341,17.5979381 43.3025568,22.4329897 C41.3119318,23.943299 39.0059091,23.3762887 36.8756818,23.1443299 C35.4434659,22.9896907 35.60375,21.6082474 36.1414773,20.4845361 Z" id="Shape" fill="#EAF5F9"></path>
                <path d="M36.1414773,20.4845361 C35.8415909,22.3402062 36.570625,23.1134021 38.504375,23.0257732 C40.1278977,22.9484536 41.7410795,22.9484536 43.3025568,22.4329897 C43.3749432,23.5515464 42.599375,23.6134021 41.7927841,23.6134021 C40.3502273,23.6134021 38.9128409,23.6597938 37.4702841,23.6134021 C36.6792045,23.5824742 35.6244318,23.9639175 35.2366477,22.9329897 C34.8488636,21.9020619 35.3814205,21.1340206 36.1414773,20.4845361 Z" id="Shape" fill="#949494"></path>
            </g>
        </g>
    </g>
</svg>