<?xml version="1.0" encoding="UTF-8"?>
<svg width="90px" height="73px" viewBox="0 0 90 73" version="1.1" xmlns="http://www.w3.org/2000/svg" xmlns:xlink="http://www.w3.org/1999/xlink">
    <!-- Generator: Sketch 49 (51002) - http://www.bohemiancoding.com/sketch -->
    <title>QUARTEX twitter 2-18</title>
    <desc>Created with Sketch.</desc>
    <defs></defs>
    <g id="Page-1" stroke="none" stroke-width="1" fill="none" fill-rule="evenodd">
        <g id="mainPage-Copy" transform="translate(-1616.000000, -576.000000)">
            <g id="QUARTEX-twitter-2-18" transform="translate(1616.000000, 576.000000)">
                <path d="M14.2385069,26.9212788 C13.9237721,26.8583146 13.6284872,26.7283051 13.2954813,26.7183941 C13.0550098,26.7113981 12.7968566,26.368593 12.7980354,26.077092 C12.7980354,25.8135752 12.927112,25.5692974 13.172888,25.46494 C14.5420432,24.8819381 15.9212181,24.3228393 17.2927308,23.7450844 C18.4367387,23.2629418 19.5724951,22.7621432 20.7153242,22.2770856 C21.8681729,21.78853 23.0251473,21.3098855 24.1803536,20.8259939 C24.5528487,20.6703324 24.8522593,20.7455396 25.1475442,21.0352916 C25.7251473,21.6031354 25.9473477,22.3400498 26.2001965,23.0641382 C26.3840864,23.5888399 26.4719057,24.1421087 26.5709234,24.6889645 C26.6098232,24.7915728 26.5650295,24.9046752 26.6115914,25.0055345 C26.6115914,25.1847104 26.6115914,25.363692 26.6115914,25.5424793 C26.5561886,25.6590797 26.6145383,25.7908381 26.5697446,25.9097705 C26.4412574,26.6006277 26.2667976,27.2699139 25.8937132,27.8861469 C25.4375246,28.6393854 24.7921415,29.0620618 23.9375246,29.2970115 C22.26778,29.756417 20.6198428,30.2945278 18.9595285,30.7900794 C18.6017682,30.8967687 18.2522593,31.0425192 17.8284872,31.0372722 C18.078389,31.593456 18.3,32.1403118 18.5664047,32.6696775 C19.0756385,33.6852668 19.5524558,34.7171802 20.2043222,35.6604773 C20.935167,36.7174597 21.9277014,37.422892 23.0923379,37.9248566 C24.3176817,38.4530564 25.6049116,38.7375613 26.9316306,38.8710687 C27.1733283,38.9010855 27.4165415,38.91763 27.6601179,38.9206239 C27.7992141,38.9789241 27.9506876,38.9147939 28.0909627,38.9626 L28.6550098,38.9789241 C29.4801572,39.0177909 30.3035363,39.0177909 31.1251473,38.9789241 L31.8070727,38.962017 C31.9497053,38.9171259 32.1017682,38.9760091 32.2449902,38.9212069 L32.6911591,38.9048828 C32.8090373,38.8594087 32.9434185,38.9177089 33.0630648,38.8629067 L33.3990177,38.8459996 C33.497446,38.8040235 33.6094303,38.8582427 33.7060904,38.8040235 C34.7304519,38.7498043 35.740668,38.5894788 36.7497053,38.4186593 C40.1964637,37.8368234 43.5760314,36.9489115 46.9744597,36.1373728 C48.9669941,35.6612546 50.946169,35.1365529 52.9119843,34.5632677 C54.6801572,34.046145 56.4076621,33.4118389 58.1339882,32.7757839 C60.5563851,31.8837909 63.0223969,31.1288035 65.5013752,30.4163752 C67.5459725,29.8292923 69.602947,29.2964285 71.697053,28.9128133 C72.5988212,28.7478237 73.5082515,28.6329724 74.4182711,28.525117 C74.5184676,28.4819749 74.6316306,28.533862 74.7306483,28.4825579 L75.1255403,28.4650678 C75.2681729,28.4201767 75.4202358,28.4790598 75.5634578,28.4242577 L76.186444,28.4079336 C76.6378141,28.3783074 77.0906731,28.3783074 77.5420432,28.4079336 L78.1650295,28.4242577 C78.2870334,28.4761448 78.4208251,28.4242577 78.5434185,28.4650678 L78.8251473,28.4813919 C78.9218075,28.536777 79.0349705,28.4813919 79.1328094,28.525117 C79.9986248,28.6796125 80.8656189,28.824197 81.7031434,29.1081189 C82.7552063,29.4660821 83.6781925,29.9925328 84.4732809,30.7906624 C85.4611002,31.7858466 86.3051081,32.8690642 86.9233792,34.1196032 C87.6147348,35.5188078 88.0479371,36.9961346 88.3379175,38.5230166 C88.4611002,39.1753957 88.5300589,39.8336049 88.6379175,40.48715 C88.6797642,40.5891753 88.6320236,40.7022777 88.6803536,40.803137 L88.6968566,41.1867523 C88.7475442,41.3453288 88.6785855,41.5138163 88.7392927,41.6712269 L88.7557957,42.4110563 C88.7856647,42.9353421 88.7856647,43.4608756 88.7557957,43.9851614 L88.7392927,44.776295 C88.6803536,44.9360375 88.7469548,45.1068571 88.6962672,45.2677656 L88.6803536,45.6583769 C88.6243615,45.7749772 88.6844794,45.9073187 88.6373281,46.0256681 C88.5165029,46.9538071 88.435167,47.8883591 88.2424361,48.8060041 C88.2141454,48.9406776 88.2671906,49.0543629 88.2795678,49.1773763 C88.459332,50.9444551 88.0196464,52.5383823 86.9121807,53.9399189 C86.487743,54.4741961 85.9828345,54.9407944 85.4151277,55.3233824 C85.4693517,55.3950916 85.5530452,55.3490345 85.6208251,55.3496175 C86.8094303,55.3531155 87.9980354,55.3531155 89.1866405,55.3496175 C89.491945,55.3496175 89.7901768,55.3770185 89.9222004,55.7075806 C90.054224,56.0381427 89.9581532,56.3197326 89.6982318,56.5739214 C88.591945,57.656556 87.2658153,58.3940534 85.840668,58.9642292 C84.2988212,59.5816283 82.6886051,59.9360934 81.037721,60.1471401 C79.5129666,60.3418627 77.9858546,60.3150446 76.4581532,60.2993036 C76.1481336,60.2963886 75.8333988,60.2649065 75.5210216,60.2462504 C74.9870334,60.2141853 74.7807466,59.9238504 74.8644401,59.3280224 C73.9862475,59.6428435 73.1163065,59.9518345 72.248723,60.2654895 C71.137721,60.6671778 70.0290766,61.0758621 68.9163065,61.4734694 C68.7783398,61.5211265 68.6618491,61.6154978 68.5874263,61.7399013 C67.5551021,63.3343953 66.3240147,64.7940407 64.9231827,66.0844315 C63.4878663,67.4071863 61.8827142,68.5372346 60.1491159,69.4454374 C57.7685658,70.7012235 55.2371316,71.5145112 52.5966601,72.0106458 C51.442836,72.221572 50.2779314,72.368137 49.1074656,72.4496462 C47.9740099,72.5409565 46.8365283,72.5740378 45.6996071,72.5487565 C44.4589391,72.5131934 43.2206287,72.4269091 41.986444,72.2799927 C41.2102161,72.1878784 40.4451866,72.0287188 39.6660118,71.9552606 C39.3123772,71.9220295 39.0017682,71.7564569 38.9422397,71.3262015 C38.9062868,71.0661827 39.0058939,70.7163816 39.2640472,70.5916191 C39.5056974,70.4750188 39.6730845,70.2738831 39.8534381,70.1077276 C40.3379175,69.6663951 40.8554028,69.2623748 41.3434185,68.8251234 C41.9003929,68.3266568 42.4897839,67.8625873 43.0526523,67.3676186 C43.4416503,67.0242305 43.8571709,66.7076605 44.2420432,66.3578593 C44.2379175,66.2295989 44.1176817,66.3153002 44.0699411,66.266328 C43.019813,66.0969108 41.9815858,65.8618793 40.9614931,65.5626448 C39.7416523,65.1996066 38.5579391,64.7269607 37.4251473,64.1506141 C36.3887966,63.6333213 35.4027212,63.0228755 34.4793713,62.3269842 C33.8846758,61.8780727 33.3159136,61.4017602 32.751277,60.9167026 C32.1754298,60.4267435 31.63059,59.9022177 31.1198428,59.3460955 C29.7795678,57.8722667 28.5666012,56.2999106 27.5528487,54.5765569 C26.8065551,53.2967488 26.1318657,51.977373 25.5318271,50.624387 C25.1740668,49.8262574 24.7903733,49.0147188 24.6548134,48.15654 C24.5722986,47.6359193 24.1508841,47.5857811 23.9027505,47.3117702 C23.6546169,47.0377594 23.3280943,46.8453687 23.0481336,46.6040059 C22.5041257,46.1329404 21.9577603,45.6647899 21.4343811,45.1715703 C21.0601179,44.8217691 20.6611002,44.487709 20.3611002,44.0638667 C20.2908897,43.9701 20.2106617,43.8840959 20.1218075,43.8073458 C19.6007859,43.3327823 19.1675835,42.7812625 18.7072692,42.2524798 C18.3306483,41.8198923 17.9611002,41.3820579 17.6056974,40.9325635 C16.6716241,39.7505286 15.8014484,38.5204233 14.9988212,37.2474084 C14.4569745,36.3880636 13.9434185,35.5135608 13.4581532,34.6238999 C13.2182711,34.1825674 12.8445972,33.8321833 12.3082515,33.7231619 C12.0601708,33.6833161 11.8072163,33.6833161 11.5591356,33.7231619 C11.2683268,33.7169851 10.9826632,33.799638 10.7410609,33.9598607 C9.67426326,34.6833661 8.48310413,35.1223665 7.25363458,35.4756657 C6.69842829,35.6342422 6.13379175,35.7601706 5.57269155,35.901257 C5.43182711,35.9432332 5.28212181,35.88435 5.14243615,35.9403182 C5.04141608,35.9155052 4.93579414,35.9155052 4.83477407,35.9403182 C4.69273084,35.882018 4.54007859,35.9455652 4.39685658,35.897759 C3.61709234,35.8243008 2.8891945,35.6062581 2.22848723,35.1742537 C1.29724951,34.5679317 0.811001965,33.6613637 0.460314342,32.6597665 C0.253593517,32.043453 0.127035856,31.4036146 0.0836935167,30.7556823 C0.0353634578,30.6145958 0.0972495088,30.4641813 0.0406679764,30.3225119 C0.0996070727,29.9931158 -0.00117878193,29.6578897 0.0966601179,29.3255786 C0.156250207,29.0937879 0.33393058,28.9096328 0.565225933,28.839938 C2.90569745,28.0301484 5.28860511,27.3777693 7.73575639,26.9644209 C8.52495088,26.8309135 9.32003929,26.7487102 10.1151277,26.6653409 C10.2978389,26.6152028 10.489391,26.683414 10.6709234,26.6233648 L11.8037328,26.6233648 C11.9628684,26.681665 12.1332024,26.6152028 12.2935167,26.6659239 C12.9218075,26.7242241 13.5312377,26.8740556 14.154224,26.976664 C14.2609554,26.9807331 14.3654387,27.0082136 14.4601179,27.0571182 L14.5125737,27.0763573 C14.5352364,27.08371 14.5566836,27.0943173 14.5762279,27.1078394 C14.5562082,27.0890218 14.5316597,27.0755761 14.5049116,27.0687783 C14.4100196,27.0285511 14.311002,26.998818 14.2385069,26.9212788 Z" id="Shape" fill="#949494" fill-rule="nonzero"></path>
                <path d="M25.3485208,47.9560942 C26.3973025,48.1193002 36.5771461,54.7424874 58.5045013,53.9330754 C75.2249598,53.0917049 87.4154388,48.9888304 87.6556686,49.1169415 C87.9210022,49.2711068 87.8240993,53.7276593 84.7391908,55.1055854 C81.6542824,56.4835115 73.3488793,59.1098555 68.2616082,61.1230553 C65.4073912,65.568706 61.4366471,68.5762963 56.9355247,70.2027521 C50.7161512,72.7986856 39.9361759,72.0623527 39.5370786,71.231404 C39.4339947,71.1360125 41.1231396,69.6838031 44.6045136,66.8747758 C45.7730276,66.0023857 46.0832469,65.6572114 45.5351715,65.8392528 C42.2137266,65.7279358 37.1726747,64.1978779 32.7910784,60.1385226 C28.0736361,56.0845293 24.6354892,47.6025477 25.3485208,47.9560942 Z" id="Rectangle-2" fill="#FFFFFF"></path>
                <path d="M61.029666,0.670452186 C61.0449902,0.290334947 61.2713163,0.118932388 61.6290766,0.0775392528 C62.6104126,0.0443081445 63.5917485,0.047223154 64.5760314,0.0775392528 C64.9174853,0.135839443 65.1178782,0.334060089 65.1772102,0.672201192 C65.2113949,0.776558532 65.1948919,0.884413883 65.1948919,0.990520229 C65.1948919,9.98896023 65.1948919,18.9866229 65.1948919,27.9835082 C65.1948919,28.0896146 65.2119843,28.1968869 65.1772102,28.3018273 C65.1182711,28.6399684 64.9178782,28.838189 64.5760314,28.8964892 C63.5946955,28.9256393 62.6133595,28.9285543 61.6290766,28.8964892 C61.2100196,28.844602 61.0874263,28.7017666 61.029666,28.3035763 C60.9925344,28.1998019 61.0108055,28.0919466 61.0108055,27.9858402 C61.0108055,18.9870116 61.0108055,9.9881829 61.0108055,0.989354226 C61.0108055,0.882664878 60.9925344,0.774809526 61.029666,0.670452186 Z" id="Shape" fill="#737373" fill-rule="nonzero"></path>
                <path d="M69.2298625,5.38169055 C69.5717092,5.43999074 69.7721022,5.63821138 69.8310413,5.97635248 C69.8640472,6.07079879 69.848723,6.16874311 69.848723,6.26785343 C69.848723,12.9342858 69.848723,19.5999409 69.848723,26.2648186 C69.848723,26.3610139 69.8640472,26.4589583 69.8310413,26.5563196 C69.7721022,26.8944607 69.5717092,27.0926813 69.2298625,27.1509815 C68.2679764,27.1795486 67.3060904,27.1830466 66.3418468,27.1509815 C65.9227898,27.0990944 65.8001965,26.9562589 65.7424361,26.5580686 C65.7064833,26.4636223 65.7235756,26.365678 65.7235756,26.2694826 C65.7235756,19.623261 65.7235756,12.9758733 65.7235756,6.32731963 C65.7235756,6.23112432 65.7070727,6.13318 65.7424361,6.03873369 C65.7636542,5.62538534 66.013556,5.43824173 66.4007859,5.38577156 C67.3445972,5.35312345 68.2876228,5.35176311 69.2298625,5.38169055 Z" id="Shape" fill="#737373" fill-rule="nonzero"></path>
                <path d="M59.6817289,15.1761225 C60.2481336,15.3871692 60.3094303,15.4752025 60.3094303,16.0861884 C60.3094303,20.6363239 60.3094303,25.1862651 60.3094303,29.7360119 C60.3094303,30.3469979 60.2504912,30.4356142 59.6817289,30.6460779 C58.7198428,30.6760053 57.7571709,30.6760053 56.7937132,30.6460779 C56.4229862,30.6180938 56.2243615,30.4070471 56.1925344,30.051416 C56.1710407,29.9666733 56.1650524,29.8788097 56.1748527,29.7919801 C56.1748527,25.2056985 56.1748527,20.6194169 56.1748527,16.0331353 C56.1650524,15.9463057 56.1710407,15.8584421 56.1925344,15.7736994 C56.2084479,15.3929992 56.4554028,15.2408357 56.7937132,15.1790375 C57.7571709,15.1471667 58.7198428,15.146195 59.6817289,15.1761225 Z" id="Shape" fill="#737373" fill-rule="nonzero"></path>
                <path d="M80.0168959,57.9299839 C80.4530452,57.7154392 80.921611,57.5848467 81.3772102,57.4216062 C82.6715128,56.958314 83.9654224,56.4944389 85.2589391,56.0299807 C85.4308862,55.9667421 85.6130199,55.9349376 85.7964637,55.9361174 C86.8956778,55.9407814 87.9948919,55.9361174 89.0941061,55.9401984 C89.1866405,55.9401984 89.2856582,55.9116313 89.3952849,55.9763445 C89.1954813,56.2882505 88.8984283,56.4928842 88.6249509,56.7109269 C87.93439,57.2503523 87.1827853,57.7085567 86.3852652,58.0763173 C86.3484345,58.0881874 86.3101929,58.0952432 86.2715128,58.0973054 C86.0698406,58.1738489 85.8504017,58.1924425 85.6385069,58.1509416 C85.4163065,58.1072164 85.1899804,58.1206255 84.9654224,58.1287875 C83.8143418,58.1707637 82.6626719,58.1614356 81.5115914,58.1870877 C81.081336,58.1969987 80.6528487,58.2313959 80.2308448,58.1212085 C80.1318271,58.0967224 79.9709234,58.1206255 80.0168959,57.9299839 Z" id="Shape" fill="#FFFFFF" fill-rule="nonzero"></path>
                <path d="M80.0168959,57.9299839 C80.0381139,58.0559123 80.1412574,58.0191832 80.2225933,58.0390052 C80.7318271,58.1631846 81.2469548,58.1013864 81.759725,58.0920584 C82.2312377,58.0838964 82.6968566,58.0885604 83.1666012,58.0582443 C83.4826864,58.0378497 83.7999572,58.0442862 84.1149312,58.0774833 C84.4479371,58.1136295 84.7915521,58.0384222 85.1304519,58.0401712 C85.510609,58.0401712 85.8907662,58.0763173 86.2709234,58.0984714 C85.497053,58.5351398 84.6500982,58.7893287 83.8007859,59.0201974 C82.6921415,59.3216094 81.5611002,59.499425 80.4141454,59.6224384 C79.1039293,59.7635248 77.7943026,59.7186337 76.4840864,59.7180507 C76.1935167,59.7180507 75.9011788,59.6597505 75.6064833,59.6661635 C75.5475442,59.6661635 75.4479371,59.7011436 75.4361493,59.6078633 C75.4267191,59.5338221 75.5062868,59.515749 75.575835,59.491263 C76.254224,59.2528152 76.9278978,59.0015414 77.6068762,58.7660086 C78.4102161,58.4867507 79.197053,58.1608526 80.0168959,57.9299839 Z" id="Shape" fill="#FFFFFF" fill-rule="nonzero"></path>
                <path d="M45.5298625,65.8430687 L46.1781925,65.2489897 C46.2194056,65.2603216 46.2516088,65.2921757 46.2630648,65.332942 C46.0709234,65.5748878 45.8298625,65.7661124 45.6,65.9689971 C45.5888016,65.9200249 45.5811395,65.8698868 45.5298625,65.8430687 Z" id="Shape" fill="#949494" fill-rule="nonzero"></path>
                <path d="M61.6868369,0.679197214 C62.5797642,0.675699203 63.4732809,0.679197214 64.3662083,0.666371173 C64.5430255,0.666371173 64.5819253,0.730501382 64.5777996,0.887911895 C64.5683694,1.227219 64.5777996,1.56769211 64.5777996,1.90758222 C64.5777996,6.88875046 64.5777996,11.8697244 64.5777996,16.8505039 C64.5777996,16.9962544 64.5719057,17.1420049 64.5689587,17.2871724 C64.5100196,17.4189308 64.3921415,17.4620729 64.2601179,17.467903 C63.4709234,17.49647 62.6846758,17.4195138 61.8972495,17.3886147 C61.8011788,17.3851167 61.7021611,17.3565496 61.6614931,17.2463622 C61.6614931,15.6652611 61.6614931,14.0847429 61.6614931,12.5036418 C61.6614931,8.67681729 61.6614931,4.85018715 61.6614931,1.02375134 C61.659725,0.908316961 61.6308448,0.789967576 61.6868369,0.679197214 Z" id="Shape" fill="#949494" fill-rule="nonzero"></path>
                <path d="M64.5165029,28.2948312 L61.6874263,28.2948312 C61.6631012,28.2523877 61.653185,28.2033439 61.6591356,28.1549108 C61.6591356,27.0874343 61.6638507,26.0193748 61.6550098,24.9518984 C61.6550098,24.7437667 61.7286837,24.6755554 61.9302554,24.6877985 C62.6640472,24.7326896 63.4037328,24.7029565 64.1333988,24.7886578 C64.2766208,24.8055649 64.4339882,24.7886578 64.5335953,24.9274123 C64.5418468,26.0491079 64.5730845,27.1725526 64.5165029,28.2948312 Z" id="Shape" fill="#949494" fill-rule="nonzero"></path>
                <path d="M64.5654224,20.1380517 L64.5654224,21.9453575 C64.3685658,21.8631543 64.4304519,21.6847557 64.4328094,21.5454182 C64.4369352,21.3122175 64.3485265,21.2358442 64.108055,21.2125242 C63.459725,21.150143 62.8113949,21.171131 62.1666012,21.154224 C61.8041257,21.1443129 61.7781925,21.176961 61.7740668,21.5255962 C61.7740668,21.6713467 61.7787819,21.8170971 61.7705305,21.9628476 C61.7799607,22.2496845 61.7811395,22.5359385 61.7705305,22.8221924 C61.7787819,23.1136934 61.7787819,23.4051943 61.7705305,23.6966953 C61.7805501,23.933977 61.7817289,24.1712588 61.7705305,24.4085406 C61.7652259,24.5128979 61.7929273,24.6464054 61.6373281,24.6854665 C61.6373281,22.9007033 61.6373281,21.1159402 61.6373281,19.331177 C61.8730845,19.6850592 62.2614931,19.6092689 62.5962672,19.637253 C63.0801572,19.6780632 63.5675835,19.6809782 64.053831,19.7054642 C64.5035363,19.7264523 64.5147348,19.7235373 64.5654224,20.1380517 Z" id="Shape" fill="#949494" fill-rule="nonzero"></path>
                <path d="M64.5654224,20.1380517 C64.5306483,19.8174006 64.3249509,19.7882505 64.043222,19.7835865 C63.3200393,19.7695945 62.5980354,19.7013832 61.8748527,19.6809782 C61.5831041,19.6728161 61.7528487,19.4203763 61.6390963,19.331177 C61.6390963,17.0563036 61.6390963,14.7812359 61.6390963,12.5059738 C61.6552063,12.4803217 61.6711198,12.4803217 61.6868369,12.5059738 C61.6868369,14.0995123 61.6868369,15.6930508 61.6868369,17.2865894 C61.8459725,17.5168751 61.7664047,17.776894 61.775835,18.0240868 C61.7905697,18.405953 61.7917485,18.4321881 62.1742633,18.416447 C62.8726916,18.391378 63.5664047,18.4794112 64.2630648,18.4805773 C64.3709234,18.4805773 64.4805501,18.4852413 64.5654224,18.5686105 C64.5654224,19.0913689 64.5654224,19.6145159 64.5654224,20.1380517 Z" id="Shape" fill="#949494" fill-rule="nonzero"></path>
                <path d="M64.5654224,18.5674445 C63.681336,18.5895986 62.8037328,18.4625042 61.9208251,18.5091443 C61.7392927,18.5190554 61.6785855,18.4508442 61.6850688,18.2759436 C61.6956778,17.9459645 61.6880157,17.6154024 61.6880157,17.2848404 C61.9856582,17.3040794 62.2850688,17.3530516 62.580943,17.3367275 C63.1273084,17.3069944 63.664833,17.4533279 64.213556,17.3880317 C64.3361611,17.3731468 64.4555571,17.3388973 64.5671906,17.2865894 C64.5660118,17.7137354 64.5654224,18.1406871 64.5654224,18.5674445 Z" id="Shape" fill="#949494" fill-rule="nonzero"></path>
                <path d="M61.6390963,24.6843005 C61.7410609,24.3595684 61.6591356,24.0266743 61.6868369,23.6984443 C61.7834971,23.610994 61.9043222,23.612743 62.0204322,23.620322 C62.7335953,23.6657962 63.4479371,23.6739582 64.1616896,23.7054403 C64.2802219,23.7040016 64.397267,23.7316437 64.5023576,23.7858945 C64.5289194,23.8080707 64.5442327,23.8407122 64.5442043,23.8750938 C64.5288802,24.224895 64.5795678,24.5746961 64.5159136,24.9244973 C63.8581532,24.8626991 63.2009823,24.7892408 62.5373281,24.8078969 C62.3422397,24.8131439 62.1371316,24.830051 61.9532417,24.7816618 C61.7174853,24.7192806 61.68389,24.8096459 61.6850688,25.0061175 C61.6891945,26.1033271 61.6850688,27.1999537 61.6850688,28.2971633 C61.6172888,28.2645152 61.6290766,28.2015509 61.6290766,28.1455828 C61.632613,26.9904617 61.6359528,25.8367009 61.6390963,24.6843005 Z" id="Shape" fill="#949494" fill-rule="nonzero"></path>
                <path d="M61.6868369,21.9488556 C61.6868369,21.7255658 61.6927308,21.5016931 61.6868369,21.2789864 C61.6815324,21.1291549 61.7381139,21.0743527 61.8913556,21.0720207 C62.7129666,21.0615267 63.5333988,21.0778507 64.3532417,21.1303209 C64.5100196,21.1402319 64.5111984,21.2317632 64.5194499,21.3460316 C64.5341847,21.5454182 64.4658153,21.7541329 64.5671906,21.9441915 C64.5671906,22.5660602 64.5671906,23.1890949 64.5671906,23.8132956 C64.5506876,23.8397251 64.5341847,23.8397251 64.5176817,23.8132956 C64.3485265,23.5217947 64.4522593,23.2052247 64.4316306,22.9003147 C64.4257367,22.7464022 64.4222004,22.5913237 64.4316306,22.4374112 C64.4434185,22.2217004 64.3390963,22.1459102 64.1328094,22.1505742 C63.4697446,22.1587362 62.8090373,22.071869 62.1453831,22.092274 C61.9762279,22.095772 61.8064833,22.095772 61.6868369,21.9488556 Z" id="Shape" fill="#949494" fill-rule="nonzero"></path>
                <path d="M66.402554,5.98801252 C67.2866405,5.98334851 68.1707269,5.9815995 69.0506876,5.97285447 C69.1956778,5.97285447 69.2451866,6.03115466 69.2310413,6.16291309 C69.2295285,6.19204398 69.2295285,6.22123249 69.2310413,6.25036338 C69.2310413,9.9481501 69.2310413,13.6459368 69.2310413,17.3437235 C69.2310413,17.4020237 69.2251473,17.4603239 69.2222004,17.5186241 C69.0294695,17.6614596 68.8096267,17.6113214 68.6021611,17.5880013 C68.1076621,17.5326162 67.6113949,17.5506892 67.1157171,17.5343652 C66.8528487,17.5256201 66.5628684,17.5792563 66.3766208,17.3116584 C66.3715128,13.6130944 66.3715128,9.91453032 66.3766208,6.21596627 C66.3742633,6.13901001 66.3548134,6.05913875 66.402554,5.98801252 Z" id="Shape" fill="#949494" fill-rule="nonzero"></path>
                <path d="M69.2222004,24.9827975 C69.2222004,25.4369559 69.2222004,25.8916974 69.2339882,26.3458559 C69.2387033,26.5149264 69.1750491,26.5592346 69.0117878,26.5574856 C68.1418468,26.5487406 67.2719057,26.5481576 66.4019646,26.5452425 C66.3388998,26.0362819 66.3736739,25.5249892 66.381336,25.0160286 C66.3848723,24.7892408 66.6041257,24.844626 66.7479371,24.848124 C67.2742633,24.8609501 67.8,24.8941812 68.3269155,24.8947642 C68.6269155,24.8941812 68.9328094,24.859784 69.2222004,24.9827975 Z" id="Shape" fill="#949494" fill-rule="nonzero"></path>
                <path d="M66.402554,5.98801252 L66.402554,17.3431405 C66.5646365,17.6235645 66.4797642,17.9302235 66.4903733,18.2252224 C66.5056974,18.6432348 66.5015717,18.6496478 66.9141454,18.6519798 C67.5394892,18.6560608 68.1612967,18.7365151 68.7878193,18.717859 C68.9434185,18.713195 69.1013752,18.7382641 69.221611,18.8583625 C69.221611,19.2858972 69.221611,19.7134319 69.221611,20.1409667 C69.1379175,20.2138419 69.0383104,20.1858578 68.9422397,20.1858578 C68.2108055,20.1893558 67.4805501,20.1432987 66.7502947,20.1129826 C66.3937132,20.0984075 66.3795678,20.0884965 66.3736739,19.7328653 C66.3797091,19.6752044 66.3730744,19.6169343 66.354224,19.5620458 C66.351277,19.4553564 66.3453831,19.3486671 66.3453831,19.2419777 C66.3453831,14.9324277 66.3453831,10.6226833 66.3453831,6.31274458 C66.3465619,6.20547223 66.2888016,6.08012682 66.402554,5.98801252 Z" id="Shape" fill="#949494" fill-rule="nonzero"></path>
                <path d="M66.3536346,19.5626288 C66.4891945,19.6868082 66.2764244,19.947993 66.5092338,20.0109572 C66.6736739,20.0558484 66.8628684,20.0022122 67.0355599,20.0284473 C67.7611002,20.1403837 68.4972495,20.0208683 69.221611,20.1409667 C69.221611,20.549068 69.221611,20.9571693 69.221611,21.3652707 C69.1001965,21.476624 68.9481336,21.4480569 68.8037328,21.456219 C68.16778,21.4917821 67.5359528,21.3979188 66.9017682,21.3979188 C66.5033399,21.3979188 66.4962672,21.4078298 66.4933202,21.8060201 C66.4933202,22.0473829 66.5003929,22.2893287 66.4880157,22.5306915 C66.497446,22.9160557 66.4986248,23.30142 66.4880157,23.6862012 C66.4984804,23.8860369 66.4984804,24.0862745 66.4880157,24.2861102 C66.4815324,24.3916335 66.5086444,24.524558 66.354224,24.5659511 L66.3536346,19.5626288 Z" id="Shape" fill="#949494" fill-rule="nonzero"></path>
                <path d="M69.221611,18.8589455 C68.3681729,18.7860702 67.5123772,18.7510901 66.6571709,18.7475921 C66.4414538,18.7475921 66.3925344,18.6671379 66.3984283,18.4741642 C66.4102161,18.097545 66.4019646,17.7203428 66.4019646,17.3431405 C66.6808275,17.4083086 66.9665084,17.4405983 67.2530452,17.4393359 C67.6449902,17.4288418 68.048723,17.4171818 68.4388998,17.476065 C68.7017682,17.5157091 68.9605108,17.5040491 69.2210216,17.5174581 C69.2214145,17.9655922 69.221611,18.4127547 69.221611,18.8589455 Z" id="Shape" fill="#949494" fill-rule="nonzero"></path>
                <path d="M66.4019646,22.5318575 C66.4019646,22.2135384 66.4149312,21.8946364 66.3972495,21.5769003 C66.3848723,21.3536106 66.4715128,21.3011404 66.6836935,21.3028895 C67.5300589,21.3104685 68.3740668,21.4084128 69.2210216,21.3652707 C69.2210216,21.7928054 69.2210216,22.2203401 69.2210216,22.6478748 C69.0601179,22.7807993 68.867387,22.7458192 68.6876228,22.7294951 C68.0392927,22.6711949 67.3833006,22.6641989 66.7320236,22.6228058 C66.6153242,22.6152267 66.4968566,22.6169757 66.4019646,22.5318575 Z" id="Shape" fill="#949494" fill-rule="nonzero"></path>
                <path d="M66.354224,24.5671171 C66.4561886,24.2820292 66.375442,23.9841152 66.4019646,23.6978613 C66.4621119,23.6473118 66.5402446,23.6227399 66.6188605,23.62965 C67.4056974,23.6681282 68.191945,23.7328414 68.9805501,23.7287604 C69.0694556,23.7221472 69.1570361,23.7530718 69.221611,23.8138786 C69.221611,24.2025466 69.221611,24.5912145 69.221611,24.9798824 C69.1202358,25.0556727 69.0188605,24.9909595 68.9157171,24.9880445 C68.33222,24.9723034 67.7481336,24.9763844 67.1640472,24.9664734 C66.9996882,24.9586629 66.8358283,24.9427075 66.6730845,24.9186672 C66.4779961,24.8959302 66.3907662,24.9583114 66.3972495,25.1728561 C66.4113949,25.6287636 66.4013752,26.085837 66.4013752,26.5417445 C66.3330059,26.5096794 66.3424361,26.4467152 66.3424361,26.39133 C66.3467583,25.7842307 66.3506876,25.1761597 66.354224,24.5671171 Z" id="Shape" fill="#949494" fill-rule="nonzero"></path>
                <path d="M69.2222004,23.8144616 C68.4341847,23.8564378 67.6497053,23.7427524 66.8646365,23.7561615 C66.7102161,23.7561615 66.5640472,23.6745412 66.4049116,23.6978613 C66.4049116,23.3091933 66.4049116,22.9205254 66.4049116,22.5318575 L69.224558,22.6484578 C69.2225933,23.0371258 69.2218075,23.4257937 69.2222004,23.8144616 Z" id="Shape" fill="#949494" fill-rule="nonzero"></path>
                <path d="M59.6876228,24.6895475 C59.6876228,26.3996864 59.6901768,28.1098253 59.6952849,29.8199642 C59.6952849,29.9919498 59.6499018,30.059578 59.4642436,30.057829 C58.6491159,30.049667 57.8339882,30.051416 57.0188605,30.057829 C56.8614931,30.057829 56.7907662,30.0234319 56.791945,29.8491143 C56.8001965,28.0907806 56.8007859,26.3330299 56.8037328,24.5746961 C56.8980354,24.4843308 57.0188605,24.4785008 57.1343811,24.4942419 C57.8817289,24.5945182 58.6373281,24.5204769 59.3852652,24.6026802 C59.4931238,24.6120082 59.6003929,24.6143402 59.6876228,24.6895475 Z" id="Shape" fill="#949494" fill-rule="nonzero"></path>
                <path d="M56.8043222,17.0516396 C56.8013752,16.6936764 56.8043222,16.3357133 56.791945,15.9783331 C56.7854617,15.8098455 56.8508841,15.7649544 57.0117878,15.7667034 C57.8333988,15.7733108 58.6550098,15.7733108 59.4766208,15.7667034 C59.6375246,15.7667034 59.7047151,15.8104285 59.6994106,15.9789161 C59.6876228,16.3753574 59.6911591,16.7717987 59.6882122,17.16824 C59.3746562,17.3303145 59.0398821,17.2626863 58.7163065,17.2341192 C58.2607073,17.1938921 57.8051081,17.2154631 57.3495088,17.1921431 C57.1561886,17.182232 56.9563851,17.2131311 56.8043222,17.0516396 Z" id="Shape" fill="#949494" fill-rule="nonzero"></path>
                <path d="M59.6876228,24.6895475 L56.8037328,24.5729471 C56.8037328,24.1454124 56.8037328,23.7178777 56.8037328,23.2903429 C56.9510806,23.1842366 57.1090373,23.2716869 57.2611002,23.2687719 C58.0072692,23.2518648 58.7493124,23.3638012 59.4954813,23.3509751 C59.5647472,23.3450368 59.6336373,23.3659397 59.6876228,23.4092753 L59.6876228,24.6895475 Z" id="Shape" fill="#949494" fill-rule="nonzero"></path>
                <path d="M56.8043222,20.1415497 C56.8043222,19.7723151 56.8043222,19.4030806 56.8043222,19.0338461 C57.1166994,18.8525325 57.4526523,18.9755459 57.7791749,18.9673838 C58.2848723,18.9568898 58.7911591,19.00353 59.2980354,19.005862 C59.4341847,19.005862 59.5738703,18.9959509 59.6888016,19.0933122 L59.6888016,20.2010159 C59.624558,20.3088712 59.5225933,20.3176162 59.4094303,20.3123692 C58.643222,20.2884661 57.8711198,20.2902152 57.1037328,20.233081 C56.9941061,20.2231699 56.8880157,20.2249189 56.8043222,20.1415497 Z" id="Shape" fill="#949494" fill-rule="nonzero"></path>
                <path d="M56.8043222,20.1415497 C57.7102161,20.1800278 58.6178782,20.1747808 59.5225933,20.247656 C59.5802392,20.2412483 59.6362981,20.2248695 59.6882122,20.1992669 C59.6882122,20.5685014 59.6882122,20.9377359 59.6882122,21.3069705 C59.644629,21.3732209 59.5664539,21.4088234 59.4872299,21.3985018 C58.6178782,21.3821777 57.7502947,21.3343716 56.8821218,21.2865654 C56.8531947,21.2814979 56.8262599,21.2685801 56.8043222,21.2492533 C56.8043222,20.8807961 56.8043222,20.5115615 56.8043222,20.1415497 Z" id="Shape" fill="#949494" fill-rule="nonzero"></path>
                <path d="M59.6882122,23.4069433 C59.072888,23.4716565 58.4616896,23.3923683 57.8499018,23.3544731 C57.5015717,23.3329021 57.1479371,23.3842062 56.8043222,23.2891769 C56.8043222,22.9393758 56.8043222,22.5895746 56.8043222,22.2397735 C57.0571709,22.079448 57.3388998,22.1424122 57.602947,22.1674813 C58.1770138,22.2217004 58.7534381,22.2257815 59.3280943,22.2671746 C59.4548134,22.2765026 59.58389,22.2671746 59.6888016,22.3575399 C59.6884086,22.707341 59.6882122,23.0571422 59.6882122,23.4069433 Z" id="Shape" fill="#949494" fill-rule="nonzero"></path>
                <path d="M59.6888016,22.3575399 L56.8043222,22.2409395 C56.8043222,21.9105718 56.8043222,21.580204 56.8043222,21.2498363 C57.3897086,21.2268152 57.9759855,21.2410309 58.5595285,21.2923954 C58.9332024,21.3250435 59.3121807,21.3046385 59.6888016,21.3075535 C59.6888016,21.6573546 59.6888016,22.0073501 59.6888016,22.3575399 Z" id="Shape" fill="#949494" fill-rule="nonzero"></path>
                <path d="M56.8043222,17.0516396 C57.248723,17.1367579 57.6990177,17.0947817 58.1469548,17.1134378 C58.6609037,17.1350089 59.1730845,17.190977 59.6882122,17.171738 C59.6882122,17.5215391 59.6882122,17.8713403 59.6882122,18.2211414 C59.5149312,18.3511508 59.3127701,18.3237497 59.1223969,18.2998467 C58.4811395,18.2205584 57.8328094,18.2800246 57.1921415,18.1966553 C57.0583497,18.1791653 56.9151277,18.2094814 56.8043222,18.103375 C56.8043222,17.7520192 56.8043222,17.4014407 56.8043222,17.0516396 Z" id="Shape" fill="#949494" fill-rule="nonzero"></path>
                <path d="M56.8043222,18.101043 L59.6882122,18.2176434 C59.6882122,18.5091443 59.6882122,18.8006453 59.6882122,19.0921462 L56.8043222,19.0338461 C56.8043222,18.7229117 56.8043222,18.4119774 56.8043222,18.101043 Z" id="Shape" fill="#949494" fill-rule="nonzero"></path>
                <path d="M46.2618861,65.332942 L46.1770138,65.2489897 C46.3638507,64.9901369 46.6414538,64.8041593 46.7811395,64.5085773 L46.8341847,64.4502771 C46.8911449,64.3700953 46.9546163,64.2946383 47.0239686,64.2246554 L47.0198428,64.2299024 C47.0634899,64.1400179 47.1234186,64.0588055 47.1966601,63.9902886 L47.1925344,63.9949526 C47.2799333,63.8491791 47.3784512,63.7102155 47.4872299,63.5792723 C47.6629772,63.3681569 47.8078158,63.1336283 47.9174853,62.882585 C48.3736739,62.1829827 48.6312377,61.3895171 48.9282908,60.5692335 C49.0066798,60.7919402 48.9937132,60.8607344 48.8104126,61.342294 C48.7204322,61.5774381 48.6310413,61.8127765 48.5422397,62.0483093 C48.2375246,62.6488013 47.9151277,63.2393822 47.553831,63.808392 L47.3605108,64.0783219 C47.3304519,64.1826793 47.2473477,64.2497245 47.1836935,64.3290127 L47.1836935,64.3255147 C46.8630648,64.6549108 46.6113949,65.036194 46.2618861,65.332942 Z" id="Shape" fill="#949494" fill-rule="nonzero"></path>
                <path d="M68.8043222,45.2741786 C69.0064833,45.6787819 69.1414538,46.0903813 69.0624754,46.5567828 C68.9280943,47.3502484 68.1742633,47.9962145 67.3449902,47.9962145 C66.5157171,47.9962145 65.7618861,47.3502484 65.6275049,46.5567828 C65.5485265,46.0903813 65.686444,45.6781989 65.8850688,45.2741786 C66.0090234,45.0719895 66.1774366,44.9000217 66.3777996,44.771048 C67.1222004,44.2445972 68.4165029,44.5156931 68.8043222,45.2741786 Z" id="Shape" fill="#737373" fill-rule="nonzero"></path>
                <path d="M68.7005894,45.0357308 C68.6015221,44.9813101 68.5198501,44.9005235 68.464833,44.8025301 C69.0117878,44.7150798 69.5463654,44.8684093 70.0886051,44.8847333 C70.3891945,44.8940614 70.6886051,44.9657706 70.9891945,44.9721836 C71.4080393,44.989698 71.8256889,45.0286168 72.2404715,45.088784 C72.8298625,45.1622422 73.4251473,45.1919753 74.0127701,45.2741786 C74.6198428,45.3592969 75.2333988,45.3406408 75.8398821,45.4735653 C76.2359528,45.5598495 76.6721022,45.5178734 77.0888016,45.5610155 L79.7616896,45.8373584 C80.1701375,45.8793346 80.5803536,45.8414395 80.9905697,45.9044037 C81.6433227,46.0134473 82.3017102,46.0864356 82.9626719,46.1230294 C83.4931238,46.1446004 84.0194499,46.2297187 84.548723,46.2693629 C85.4398821,46.3358251 86.324558,46.4792435 87.221611,46.5025636 C87.4526523,46.5078106 87.6819253,46.5748558 87.9123772,46.613334 C87.9017682,46.6821282 87.9347741,46.7946476 87.7998035,46.7579184 C87.2652259,46.612751 86.7035363,46.6914562 86.1724951,46.5929289 C85.3001965,46.4308544 84.4143418,46.4116153 83.5390963,46.305509 C83.1341847,46.2565368 82.7045187,46.1854106 82.2831041,46.2081477 C81.9447937,46.2268037 81.6229862,46.0915473 81.3,46.0915473 C80.8585462,46.0915473 80.437721,45.8851646 79.9827112,46.015174 C79.7092338,46.0932963 79.4345776,45.9224767 79.148723,45.9026547 C78.0624754,45.8280304 76.9726916,45.7557382 75.8976424,45.5977447 C75.5398821,45.5452745 75.1497053,45.4706502 74.8202358,45.4869743 C74.0269155,45.5260354 73.2772102,45.3050777 72.5051081,45.2461945 C71.6746562,45.1826473 70.8294695,45.1838133 70.0096267,44.9931717 C69.780943,44.9401185 69.5557957,45.073043 69.3159136,44.9931717 C69.1950884,44.9517786 69.0459725,44.9599406 68.918664,44.9098024 C68.7819253,44.8503362 68.7159136,44.8963934 68.7005894,45.0357308 Z" id="Shape" fill="#949494" fill-rule="nonzero"></path>
                <path d="M64.5159136,22.8816586 L64.5159136,23.8144616 C63.9713163,23.7398374 63.4196464,23.7509144 62.8738703,23.7322584 C62.4801572,23.7182663 62.0834971,23.6500551 61.6868369,23.6978613 L61.6868369,22.8233584 C61.7911591,22.7312441 61.9225933,22.7359081 62.0475442,22.7341591 C62.7801572,22.7242481 63.511002,22.7784673 64.2430255,22.7924593 C64.3420471,22.7875184 64.4393654,22.819329 64.5159136,22.8816586 Z" id="Shape" fill="#949494" fill-rule="nonzero"></path>
                <path d="M64.5159136,22.8816586 L61.6868369,22.8233584 C61.6868369,22.5318575 61.6868369,22.2403565 61.6868369,21.9488556 C61.9337917,22.0368888 62.1901768,21.9995767 62.4430255,22.0071557 C63.0465619,22.0263948 63.6500982,22.0549619 64.254224,22.0602089 C64.4628684,22.0602089 64.5335953,22.1284201 64.5182711,22.3289728 C64.5053045,22.5126184 64.5159136,22.69743 64.5159136,22.8816586 Z" id="Shape" fill="#949494" fill-rule="nonzero"></path>
            </g>
        </g>
    </g>
</svg>