<?xml version="1.0" encoding="UTF-8"?>
<svg width="143px" height="41px" viewBox="0 0 143 41" version="1.1" xmlns="http://www.w3.org/2000/svg" xmlns:xlink="http://www.w3.org/1999/xlink">
    <!-- Generator: Sketch 49.1 (51147) - http://www.bohemiancoding.com/sketch -->
    <title>reuters</title>
    <desc>Created with Sketch.</desc>
    <defs></defs>
    <g id="Page-1" stroke="none" stroke-width="1" fill="none" fill-rule="evenodd">
        <g id="mainPageQuartz" transform="translate(-1491.000000, -2216.000000)" fill="#949494" fill-rule="nonzero">
            <g id="mainPage">
                <g id="press" transform="translate(287.000000, 2216.000000)">
                    <g id="reuters" transform="translate(1204.000000, 0.000000)">
                        <path d="M64.9855694,27.3287778 L62.6366111,27.3287778 C62.4259167,27.3287778 62.3473333,27.1340278 62.2522361,26.9449722 L59.48075,22.2795139 L59.055375,22.2795139 C58.553125,22.2795139 56.9979722,22.2248472 56.5555139,22.2003611 L56.5555139,26.9449722 C56.5555139,27.1550972 56.4000556,27.3287778 56.1876528,27.3287778 L54.2640694,27.3287778 C54.0526169,27.3275339 53.8815078,27.1564248 53.8802639,26.9449722 L53.8802639,14.3357639 C53.8802639,13.9496806 54.1080417,13.8152917 54.4952639,13.7583472 C55.4974861,13.6040278 57.6482778,13.5089306 59.0548056,13.5089306 C62.0170556,13.5089306 64.7538056,14.5675278 64.7538056,17.8572083 L64.7538056,18.0308889 C64.7538056,20.0683611 63.7345,21.1833333 62.1571389,21.7954861 L65.1757639,26.9449722 C65.215625,27.0030556 65.215625,27.0571528 65.215625,27.1004306 C65.2161944,27.2308333 65.1393194,27.3287778 64.9855694,27.3287778 Z M62.0990556,17.8572083 C62.0990556,16.4142361 60.9795278,15.7992361 59.055375,15.7992361 C58.6499306,15.7992361 56.8994583,15.8373889 56.5555139,15.8749722 L56.5555139,20.0478611 C56.8601667,20.0666528 58.7245278,20.1059444 59.055375,20.1059444 C61.0347639,20.1059444 62.0990556,19.7232778 62.0990556,18.0308889 L62.0990556,17.8572083 Z M70.34575,23.5385556 C70.34575,25.1523611 70.4078194,25.1945 71.86275,25.1945 L76.7332083,25.1945 C76.9457345,25.1951214 77.1180424,25.366921 77.1192917,25.5794444 L77.1192917,26.8083056 C77.1192917,27.0799306 77.0224861,27.1761667 76.7332083,27.2131806 C76.1182083,27.3099861 74.8648611,27.4813889 72.5768333,27.4813889 C69.3833889,27.4813889 67.6887222,27.5035972 67.6887222,23.5385556 L67.6887222,17.4511944 C67.6887222,13.4872917 69.3833889,13.5095 72.5768333,13.5095 C74.8648611,13.5095 76.1182083,13.6831806 76.7332083,13.7782778 C77.0224861,13.8152917 77.1192917,13.9132361 77.1192917,14.1831528 L77.1192917,15.4125833 C77.1192917,15.6227083 76.9456111,15.7998056 76.7332083,15.7998056 L71.86275,15.7998056 C70.4078194,15.7998056 70.34575,15.8425139 70.34575,17.4511944 L70.34575,19.2164722 L76.5031528,19.2164722 C76.7145774,19.2173904 76.8861813,19.3877269 76.8886667,19.5991389 L76.8886667,20.9880139 C76.8868028,21.1999651 76.7151085,21.3711521 76.5031528,21.3723889 L70.34575,21.3723889 L70.34575,23.5385556 Z M85.7577639,27.4813889 C82.6628333,27.4813889 79.996125,26.1357917 79.996125,22.0352222 L79.996125,14.0288333 C79.996125,13.8152917 80.1720833,13.6621111 80.3833472,13.6621111 L82.2847222,13.6621111 C82.4982639,13.6621111 82.6702361,13.8152917 82.6702361,14.0288333 L82.6702361,22.0352222 C82.6702361,24.2298611 83.6844167,25.2708056 85.7583333,25.2708056 C87.8379444,25.2708056 88.8515556,24.2298611 88.8515556,22.0352222 L88.8515556,14.0288333 C88.8515556,13.8152917 89.0235278,13.6621111 89.2347917,13.6621111 L91.1390139,13.6621111 C91.3525556,13.6621111 91.5262361,13.8152917 91.5262361,14.0288333 L91.5262361,22.0352222 C91.5250972,26.1352222 88.85725,27.4813889 85.7577639,27.4813889 Z M104.175875,15.892625 L100.337819,15.892625 L100.337819,26.9449722 C100.334403,27.15773 100.161104,27.3284946 99.9483194,27.3287778 L98.0440972,27.3287778 C97.8322337,27.3278513 97.6604507,27.1568295 97.6585833,26.9449722 L97.6585833,15.892625 L93.8176806,15.892625 C93.6086944,15.892625 93.4350139,15.7605139 93.4350139,15.5486806 L93.4350139,14.0288333 C93.4350139,13.8152917 93.6086944,13.6621111 93.8176806,13.6621111 L104.175306,13.6621111 C104.383153,13.6621111 104.556833,13.8152917 104.556833,14.0288333 L104.556833,15.5486806 C104.557403,15.7605139 104.384292,15.892625 104.175875,15.892625 Z M130.303694,27.3287778 L127.954736,27.3287778 C127.743472,27.3287778 127.667736,27.1340278 127.572069,26.9449722 L124.799444,22.2795139 L124.370083,22.2795139 C123.872958,22.2795139 122.316097,22.2248472 121.870792,22.2003611 L121.870792,26.9449722 C121.870792,27.1550972 121.718181,27.3287778 121.508056,27.3287778 L119.586181,27.3287778 C119.373967,27.328471 119.20166,27.1571801 119.200097,26.9449722 L119.200097,14.3357639 C119.200097,13.9496806 119.427875,13.8152917 119.813958,13.7583472 C120.813903,13.6040278 122.968111,13.5089306 124.369514,13.5089306 C127.334611,13.5089306 130.069653,14.5675278 130.069653,17.8572083 L130.069653,18.0308889 C130.069653,20.0683611 129.048639,21.1833333 127.471847,21.7954861 L130.496167,26.9449722 C130.525433,26.9912892 130.53901,27.0457975 130.534889,27.1004306 C130.534889,27.2308333 130.456306,27.3287778 130.303694,27.3287778 Z M127.41775,17.8572083 C127.41775,16.4142361 126.297653,15.7992361 124.370083,15.7992361 C123.968625,15.7992361 122.218153,15.8373889 121.870792,15.8749722 L121.870792,20.0478611 C122.182278,20.0666528 124.048347,20.1059444 124.370083,20.1059444 C126.355167,20.1059444 127.41775,19.7232778 127.41775,18.0308889 L127.41775,17.8572083 Z M137.646681,27.4899306 C135.946319,27.4899306 134.223181,27.198375 133.297833,26.9859722 C133.107639,26.94725 132.932819,26.8134306 132.932819,26.6021667 L132.932819,25.2161389 C132.932819,25.0060139 133.107639,24.8499861 133.297833,24.8499861 L133.335417,24.8499861 C134.107014,24.9467917 135.908167,25.1967778 137.686542,25.1967778 C139.397153,25.1967778 139.921042,24.5840556 139.921042,23.4696528 C139.921042,22.0261111 136.476472,21.2271806 134.794903,20.5347361 C133.121306,19.8422917 132.528514,18.516625 132.528514,17.1715972 C132.528514,15.0538333 134.232292,13.514625 137.810111,13.514625 C139.644292,13.514625 141.323583,13.863125 141.977306,14.0202917 C142.170917,14.0590139 142.321819,14.1939722 142.321819,14.3853056 L142.321819,15.8089167 C142.321819,15.9991111 142.190847,16.1545694 141.994958,16.1545694 L141.958514,16.1545694 C140.687514,16.0401111 139.370389,15.8060694 137.697931,15.8060694 C136.272042,15.8060694 135.205472,16.3060417 135.205472,17.1715972 C135.205472,17.8048194 135.928667,18.3862222 136.782833,18.7256111 C137.637,19.0621528 138.757097,19.4977778 140.037208,20.0125556 C141.657847,20.6679861 142.708472,21.6229444 142.708472,23.4696528 C142.707903,25.4114583 141.496694,27.4899306 137.646681,27.4899306 Z M109.19325,23.5385556 C109.19325,25.1523611 109.253042,25.1945 110.711389,25.1945 L115.585264,25.1945 C115.79601,25.197596 115.965575,25.3686791 115.966792,25.5794444 L115.966792,26.8083056 C115.966792,27.0799306 115.869986,27.1761667 115.585264,27.2131806 C114.965708,27.3099861 113.714639,27.4813889 111.426611,27.4813889 C108.226903,27.4813889 106.536222,27.5035972 106.536222,23.5385556 L106.536222,17.4511944 C106.536222,13.4872917 108.226903,13.5095 111.426611,13.5095 C113.714639,13.5095 114.965708,13.6831806 115.585264,13.7782778 C115.869986,13.8152917 115.966792,13.9132361 115.966792,14.1831528 L115.966792,15.4125833 C115.966792,15.6227083 115.791972,15.7998056 115.585264,15.7998056 L110.711389,15.7998056 C109.253042,15.7998056 109.19325,15.8425139 109.19325,17.4511944 L109.19325,19.2164722 L115.351222,19.2164722 C115.564764,19.2164722 115.73275,19.3912917 115.73275,19.5991389 L115.73275,20.9880139 C115.73338,21.1994482 115.562655,21.3714473 115.351222,21.3723889 L109.19325,21.3723889 L109.19325,23.5385556 Z" id="Shape"></path>
                        <path d="M19.5530139,14.4980556 C19.7750972,14.9120417 19.6241944,15.431375 19.2085,15.6557361 C18.7909765,15.8798228 18.2708508,15.7233519 18.0462639,15.3060972 C17.8184861,14.8926806 17.9756528,14.3722083 18.3902083,14.1489861 C18.5905217,14.0402098 18.8259684,14.0158916 19.0442859,14.0814297 C19.2626034,14.1469677 19.4457289,14.2969394 19.5530139,14.4980556 Z M15.3226111,21.1958611 C15.0796814,21.3308951 14.9899549,21.6358132 15.1210278,21.8809028 C15.1838467,21.9987368 15.2915731,22.0862224 15.4197888,22.1235293 C15.5480045,22.1608362 15.6858512,22.144805 15.8020833,22.0790694 C15.9211349,22.0177981 16.0101952,21.9108008 16.0488464,21.7826075 C16.0874977,21.6544142 16.0724248,21.5160199 16.0070833,21.3991528 C15.8732833,21.1551478 15.5679113,21.0644509 15.3226111,21.1958611 Z M15.2371944,19.13675 C14.9552317,19.291355 14.8503287,19.6441641 15.0020139,19.9277083 C15.15975,20.2169861 15.5139444,20.3211944 15.800375,20.1685833 C16.0833889,20.0136944 16.1915833,19.6520972 16.0384028,19.3713611 C15.9640133,19.233241 15.8373925,19.1306782 15.6868356,19.0865919 C15.5362787,19.0425056 15.3743355,19.0605706 15.2371944,19.13675 Z M15.7713333,17.1550833 C15.4464938,17.3320283 15.3235726,17.7367812 15.4951528,18.0644861 C15.6745278,18.3885 16.0816806,18.5137778 16.4062639,18.3366806 C16.5637596,18.252533 16.6812844,18.1091572 16.7328889,17.9382108 C16.7844933,17.7672644 16.7659328,17.5828079 16.6813056,17.4255694 C16.5027792,17.1019918 16.0976212,16.98156 15.7713333,17.1550833 Z M16.86125,15.4410556 C16.6829879,15.5355554 16.5500396,15.6975616 16.4921425,15.8908373 C16.4342454,16.0841131 16.4562306,16.2925307 16.5531806,16.4694722 C16.7524861,16.8333472 17.204625,16.9717222 17.5713472,16.7729861 C17.7490493,16.6797482 17.8820109,16.5192287 17.9405383,16.3272759 C17.9990658,16.1353231 17.9782837,15.9279263 17.8828333,15.7514028 C17.7890556,15.5742382 17.6284457,15.4418301 17.4366474,15.3835636 C17.2448492,15.3252971 17.037728,15.345992 16.86125,15.4410556 Z M16.0270139,23.1456389 C15.9282314,23.1987923 15.8547191,23.2891383 15.8227605,23.3966646 C15.7908019,23.5041909 15.8030349,23.6200218 15.85675,23.7185 C15.9693478,23.9212076 16.2231222,23.9970366 16.4284722,23.8893333 C16.6310305,23.7752901 16.7051818,23.5201893 16.5953194,23.3153333 C16.4838714,23.1132377 16.2310258,23.0377387 16.0270139,23.1456389 Z M25.7610972,16.1335 C25.8962918,16.3772599 26.2008017,16.4693445 26.4484167,16.3413472 C26.6925101,16.2059762 26.7833923,15.9001665 26.6528472,15.6534583 C26.5897799,15.5355907 26.482232,15.447808 26.3541196,15.409631 C26.2260073,15.3714539 26.0879516,15.3860476 25.9706528,15.4501667 C25.8521889,15.5129341 25.7635386,15.6202228 25.7242321,15.7483962 C25.6849256,15.8765696 25.6981879,16.0151115 25.7610972,16.1335 Z M24.0510556,15.0452917 C24.205375,15.3311528 24.5686806,15.4353611 24.8454306,15.2799028 C25.1375556,15.1250139 25.2417639,14.7696806 25.0857361,14.4849583 C24.9328758,14.2005298 24.5791645,14.0927127 24.2936389,14.2435139 C24.0075382,14.3998011 23.8995822,14.7566134 24.0510556,15.0452917 Z M22.0750833,14.5157083 C22.1583118,14.6720166 22.3006736,14.7884819 22.4703729,14.8390921 C22.6400722,14.8897023 22.822972,14.8702412 22.9782222,14.7850556 C23.1357975,14.7014409 23.2535393,14.5584595 23.3053762,14.3877718 C23.3572132,14.217084 23.3388679,14.0327738 23.2544028,13.8756528 C23.1705346,13.7186182 23.0271651,13.601801 22.8564265,13.5513823 C22.6856879,13.5009636 22.5018587,13.5211597 22.3461389,13.6074444 C22.1895272,13.6917224 22.0729121,13.8348834 22.0220529,14.0053045 C21.9711937,14.1757255 21.9902755,14.3593829 22.0750833,14.5157083 Z M20.0119861,14.5971389 C20.1066729,14.7744505 20.2679632,14.9068478 20.4603275,14.9651659 C20.6526917,15.023484 20.8603489,15.0029386 21.0375556,14.9080556 C21.4030049,14.706296 21.5384939,14.2483228 21.3416389,13.8802083 C21.1370288,13.5266919 20.6885306,13.3997567 20.3290026,13.5936093 C19.9694747,13.7874618 19.8290676,14.2319267 20.0119861,14.5971389 Z M27.0457639,17.6749861 C27.1539583,17.8794167 27.4102083,17.9534444 27.608375,17.8441111 C27.7068886,17.7929597 27.7806138,17.7042447 27.8128735,17.5980341 C27.8451333,17.4918234 27.8332017,17.3770916 27.7797778,17.2797917 C27.670408,17.0742742 27.4162935,16.9946416 27.2091944,17.1009861 C27.013875,17.2143056 26.9324444,17.4751111 27.0457639,17.6749861 Z M25.5936806,25.6859306 C25.4868714,25.4837282 25.3033003,25.332918 25.0842128,25.2673845 C24.8651252,25.201851 24.6288943,25.2270899 24.4285972,25.3374306 C24.2283167,25.4443535 24.079242,25.6270826 24.0147113,25.8447534 C23.9501806,26.0624241 23.9755774,26.2968771 24.0852222,26.4956806 C24.3107222,26.9102361 24.8311944,27.0617083 25.2480278,26.8430417 C25.6620139,26.614125 25.8163333,26.0919444 25.5936806,25.6859306 Z M17.8742917,24.8556806 C17.7406124,24.6139518 17.4379768,24.5237942 17.1938056,24.6529583 C17.0763511,24.7158308 16.9887671,24.8228858 16.9504072,24.9504672 C16.9120473,25.0780485 16.9260694,25.2156534 16.989375,25.332875 C17.0513648,25.4513758 17.1587274,25.5396998 17.2869548,25.5776852 C17.4151823,25.6156705 17.5533294,25.6000749 17.6698611,25.5344583 C17.7871245,25.4716974 17.8745879,25.3648468 17.9129431,25.2374949 C17.9512982,25.1101429 17.937391,24.9727622 17.8742917,24.8556806 Z M19.5866111,25.9444583 C19.4317111,25.6607514 19.07662,25.5556241 18.7922361,25.7092778 C18.6539328,25.7818166 18.5507482,25.9070901 18.5060496,26.0567287 C18.461351,26.2063673 18.4789199,26.3677112 18.5547778,26.5042222 C18.7028333,26.7906528 19.0621528,26.8999861 19.346875,26.7462361 C19.6316663,26.5887532 19.7382106,26.2324246 19.5866111,25.9444583 Z M21.5671389,26.4740417 C21.3945972,26.1488889 20.9828889,26.0332917 20.6526111,26.2018472 C20.3284913,26.3801917 20.2077424,26.7858167 20.3815556,27.1123889 C20.5603611,27.4409583 20.9675139,27.56225 21.2932361,27.3868611 C21.4517909,27.3033135 21.5701206,27.1595545 21.6216289,26.9878958 C21.6731372,26.816237 21.6535029,26.6310801 21.5671389,26.4740417 Z M23.6273889,26.3914722 C23.4277281,26.0246204 22.9693547,25.8877697 22.60125,26.0851111 C22.23225,26.2804306 22.104125,26.7376944 22.3045694,27.1095417 C22.3973434,27.2865176 22.5577212,27.4184727 22.7492537,27.4754178 C22.9407863,27.5323628 23.1472051,27.5094608 23.3215972,27.4119167 C23.6917361,27.2183056 23.8232778,26.7564861 23.6273889,26.3914722 Z M28.3082222,19.8007222 C28.5559306,19.6583611 28.6504583,19.3508611 28.5211944,19.1099861 C28.4576932,18.9927091 28.3502019,18.9054636 28.2223703,18.8674451 C28.0945387,18.8294267 27.9568397,18.8437501 27.8395694,18.9072639 C27.7202509,18.9694816 27.63109,19.0772183 27.5922852,19.2060676 C27.5534803,19.3349169 27.5683157,19.4739736 27.6334306,19.5917361 C27.7639361,19.8335131 28.0639092,19.9264162 28.3082222,19.8007222 Z M28.40275,21.8564167 C28.6886111,21.7009583 28.7911111,21.3439167 28.6356528,21.0603333 C28.562406,20.9233488 28.4375764,20.8212124 28.2888015,20.7765371 C28.1400266,20.7318619 27.9795804,20.7483337 27.8429861,20.8223056 C27.5582217,20.9791621 27.4509719,21.3348064 27.6015417,21.6229444 C27.7530139,21.9036806 28.120875,22.0073194 28.40275,21.8564167 Z M27.864625,23.836375 C28.1983194,23.657 28.3144861,23.2538333 28.1442222,22.924125 C27.9670767,22.5979273 27.5597313,22.4760544 27.2325417,22.6513611 C26.9058675,22.8294574 26.7834512,23.2373425 26.9580694,23.5658889 C27.1354603,23.888766 27.5393144,24.0092627 27.864625,23.836375 Z M26.7821111,25.543 C27.1488333,25.3528056 27.2843611,24.8864306 27.085625,24.5225556 C26.8840417,24.1569722 26.4284861,24.0151806 26.0634722,24.2167639 C25.8871495,24.3119871 25.7559104,24.4733948 25.6986612,24.6654357 C25.6414121,24.8574767 25.6628489,25.0643984 25.75825,25.240625 C25.8526123,25.4178275 26.0142256,25.5496773 26.2067656,25.6065397 C26.3993055,25.6634022 26.6066193,25.640507 26.7821111,25.543 Z" id="Shape"></path>
                        <path d="M25.3317361,12.4526111 C25.2492022,12.7320846 25.0587861,12.9671936 24.8025591,13.1059921 C24.5463321,13.2447907 24.2453843,13.2758542 23.9662083,13.1923194 C23.6850423,13.1111299 23.447986,12.9209362 23.3077808,12.6640538 C23.1675756,12.4071714 23.1358515,12.1049084 23.2196667,11.8245139 C23.3318654,11.447229 23.6368204,11.1584608 24.0196581,11.0669853 C24.4024958,10.9755098 24.8050539,11.0952245 25.0756928,11.3810339 C25.3463317,11.6668433 25.4439349,12.0753262 25.3317361,12.4526111 Z M14.7725278,15.0532639 C14.4836306,14.9728709 14.1833599,15.1376659 14.0960278,15.4245417 C14.0238061,15.7083403 14.1892812,15.9983662 14.4703427,16.0805981 C14.7514041,16.1628301 15.047111,16.0077352 15.13925,15.7297639 C15.2292222,15.4433333 15.0583889,15.1420972 14.7725278,15.0532639 Z M16.6830139,12.9520139 C16.5122717,12.9016888 16.3285095,12.9215349 16.1724492,13.0071543 C16.0163888,13.0927737 15.900918,13.2370958 15.851625,13.4081389 C15.8006972,13.5789558 15.8200322,13.7630327 15.9053413,13.9195396 C15.9906504,14.0760465 16.1348811,14.192045 16.3060417,14.2418056 C16.6620365,14.3447967 17.0344726,14.1414186 17.1402778,13.78625 C17.2424705,13.4298223 17.0384496,13.0576049 16.6830139,12.9520139 Z M19.1310556,11.4708889 C18.6790082,11.3403788 18.2060117,11.5974311 18.0696111,12.0477361 C17.9392781,12.5004501 18.1990479,12.9734296 18.6510139,13.1063333 C18.8678983,13.1711365 19.1016854,13.1465898 19.3003802,13.0381525 C19.4990751,12.9297151 19.6462028,12.7463783 19.7090417,12.5289167 C19.8366365,12.077691 19.5796853,11.607331 19.1310556,11.4708889 Z M21.8421806,10.8644306 C21.5978864,10.7912806 21.3344974,10.8186931 21.110502,10.9405809 C20.8865066,11.0624686 20.7204455,11.2687425 20.6491944,11.5135972 C20.5765471,11.7575866 20.6041435,12.0204688 20.7258751,12.244053 C20.8476066,12.4676371 21.0534325,12.6334815 21.2977917,12.704875 C21.8053773,12.8531655 22.3374182,12.5636091 22.4885,12.0568472 C22.5620627,11.8130071 22.5351708,11.549884 22.413802,11.3259665 C22.2924331,11.1020489 22.0866447,10.9358922 21.8421806,10.8644306 Z M13.5647361,17.6544861 C13.4621101,17.6240101 13.3515673,17.6357246 13.2576082,17.6870333 C13.1636492,17.738342 13.0940348,17.8250068 13.0641944,17.9278194 C13.0328223,18.0313479 13.0438788,18.1431001 13.0949299,18.2384738 C13.145981,18.3338476 13.2328414,18.4050239 13.3363889,18.4363333 C13.5539167,18.4989722 13.7782778,18.3736944 13.8414861,18.1584444 C13.8719237,18.0549119 13.8598315,17.9435169 13.8078873,17.8489272 C13.7559431,17.7543374 13.6684332,17.6843582 13.5647361,17.6544861 Z M30.0142778,20.0996806 C29.9729479,20.2381812 29.9887604,20.3874614 30.0581889,20.5142299 C30.1276175,20.6409985 30.2448878,20.7347123 30.3838472,20.7744722 C30.6719251,20.8592288 30.9741671,20.6944043 31.0589236,20.4063264 C31.1436801,20.1182485 30.9788556,19.8160065 30.6907778,19.73125 C30.4023167,19.6470064 30.0999959,19.8116542 30.0142778,20.0996806 Z M29.3856111,17.3805833 C29.3341714,17.5519309 29.3533699,17.7367323 29.4389327,17.893847 C29.5244956,18.0509618 29.6693205,18.1673485 29.8411667,18.2170972 C30.1999167,18.3230139 30.5700556,18.1180139 30.6748333,17.7615417 C30.7796111,17.4050694 30.5774583,17.0332222 30.2215556,16.9307222 C30.0510464,16.8793984 29.8671274,16.8979745 29.7103249,16.9823573 C29.5535223,17.0667401 29.4367042,17.2100049 29.3856111,17.3805833 Z M27.9050556,14.9348194 C27.8194061,15.2270652 27.8961739,15.5428048 28.1064414,15.7631023 C28.3167089,15.9833998 28.6285314,16.0747867 28.9244484,16.0028385 C29.2203654,15.9308902 29.45542,15.7065374 29.5410694,15.4142917 C29.6054222,15.1977053 29.5804844,14.9643778 29.4718111,14.7662843 C29.3631377,14.5681908 29.1797555,14.4217853 28.9625139,14.3596806 C28.5120171,14.2295882 28.040663,14.485952 27.9050556,14.9348194 Z M25.8214583,13.0351528 C25.6731737,13.543692 25.9652177,14.0761529 26.4737569,14.2244375 C26.9822961,14.3727221 27.514757,14.0806781 27.6630417,13.5721389 C27.735702,13.3284517 27.7082316,13.0658534 27.5867119,12.8424794 C27.4651922,12.6191055 27.2596478,12.4533828 27.0155833,12.382 C26.5055039,12.2329118 25.9710766,12.5252285 25.8214583,13.0351528 Z M29.7939028,22.8444028 C29.7328536,23.0585906 29.8539579,23.2823428 30.0666667,23.3483611 C30.1701293,23.3794629 30.281746,23.367739 30.3764881,23.3158181 C30.4712303,23.2638973 30.5411703,23.1761241 30.570625,23.0721806 C30.6018242,22.9689495 30.590427,22.857527 30.5389737,22.7627504 C30.4875205,22.6679737 30.4002883,22.5977212 30.2967222,22.5676528 C30.0816873,22.5073226 29.8579751,22.630453 29.7939028,22.8444028 Z M20.4185694,29.1789028 C20.5019603,28.8976856 20.4699063,28.5948348 20.3294939,28.3373052 C20.1890815,28.0797756 19.9518761,27.8887792 19.6703194,27.8065417 C19.3899364,27.7240387 19.0882526,27.7564321 18.8317768,27.8965805 C18.575301,28.0367289 18.3850921,28.2731248 18.3030833,28.5536528 C18.2198819,28.8347188 18.2520382,29.1373476 18.3924453,29.3946537 C18.5328523,29.6519598 18.769949,29.8427566 19.0513333,29.924875 C19.6355833,30.094 20.2522917,29.7580278 20.4185694,29.1789028 Z M13.6211111,20.9003194 C13.7064661,20.612402 13.5422901,20.3097983 13.2543889,20.2243889 C12.9653897,20.1425346 12.6640561,20.3071286 12.57675,20.5945278 C12.5364744,20.7327204 12.5528729,20.8812618 12.6223233,21.0073411 C12.6917738,21.1334203 12.8085612,21.2266627 12.9468889,21.2664722 C13.0848572,21.3080748 13.2337322,21.2927882 13.3603672,21.224016 C13.4870022,21.1552438 13.5808844,21.0386952 13.6211111,20.9003194 Z M14.2509167,23.6177083 C14.301551,23.4479422 14.2821193,23.2649713 14.196958,23.1096267 C14.1117967,22.9542822 13.9679934,22.839493 13.7976389,22.790875 C13.6272698,22.7375783 13.4425829,22.7555048 13.285644,22.8405715 C13.1287051,22.9256382 13.012877,23.0706019 12.9645417,23.2424444 C12.8609154,23.5976671 13.0648746,23.9696376 13.4200972,24.0732639 C13.7753199,24.1768902 14.1472904,23.972931 14.2509167,23.6177083 Z M15.73375,26.0668889 C15.8636499,25.6127871 15.6042451,25.13865 15.1517778,25.0031667 C14.6994937,24.8729227 14.2270213,25.1328334 14.0948889,25.5845694 C14.0303843,25.8013745 14.0549975,26.0349517 14.1632752,26.2335498 C14.2715529,26.432148 14.4545551,26.5793699 14.6717361,26.6425972 C14.8889156,26.70757 15.1230298,26.6833636 15.3223211,26.5753296 C15.5216124,26.4672955 15.6696658,26.2843322 15.73375,26.0668889 Z M17.8173472,27.9694028 C17.9645193,27.4598858 17.6719949,26.9272825 17.1630556,26.778125 C16.9189787,26.7061061 16.656238,26.7346702 16.4333396,26.8574569 C16.2104412,26.9802435 16.045892,27.1870578 15.9763333,27.4318472 C15.9045875,27.6753049 15.9326496,27.9373039 16.0543288,28.1600443 C16.1760081,28.3827846 16.3813057,28.5479629 16.6249306,28.6191389 C17.133382,28.7667199 17.6657103,28.4766594 17.8173472,27.9694028 Z M28.8611528,25.9450278 C29.1503072,26.0308102 29.4543043,25.8661982 29.5405,25.5771667 C29.6231153,25.2887422 29.4591201,24.9873662 29.1720694,24.9000972 C28.8837656,24.8175922 28.5826564,24.981972 28.4961389,25.2690972 C28.4116592,25.556403 28.5745791,25.8580971 28.8611528,25.9450278 Z M26.9540833,28.049125 C27.3080332,28.153555 27.6796543,27.9514319 27.7843333,27.5975556 C27.8364478,27.426892 27.8181708,27.2424765 27.7335709,27.0853625 C27.648971,26.9282484 27.5050703,26.8114765 27.3339028,26.7610417 C26.9770931,26.6564114 26.6027229,26.8593648 26.4956806,27.2154583 C26.395916,27.5718173 26.5997251,27.9424715 26.9540833,28.049125 Z M24.5060417,29.5308194 C24.723529,29.5956326 24.9578924,29.5709269 25.1570846,29.4621891 C25.3562769,29.3534513 25.5038088,29.1696827 25.5669167,28.9516944 C25.6303421,28.7349701 25.6050031,28.5019212 25.4964824,28.3038923 C25.3879617,28.1058633 25.2051634,27.9591028 24.9883611,27.8959444 C24.6963188,27.8097864 24.3804958,27.8859757 24.1598596,28.0958127 C23.9392234,28.3056498 23.8472938,28.6172552 23.9186999,28.9132502 C23.990106,29.2092453 24.2139994,29.4446614 24.5060417,29.5308194 Z M21.7971944,30.135 C22.0404343,30.2091981 22.3032693,30.182758 22.526857,30.0615989 C22.7504448,29.9404398 22.9161099,29.7346818 22.9867639,29.4903889 C23.135992,28.9816924 22.8445853,28.4483392 22.3358889,28.2991111 C21.8271924,28.149883 21.2938392,28.4412897 21.1446111,28.9499861 C20.9989779,29.4572688 21.2906325,29.986879 21.7971944,30.135 Z" id="Shape"></path>
                        <path d="M30.8137778,13.0129444 C30.276382,13.5797624 29.3814468,13.6042253 28.8138889,13.0676111 C28.5401717,12.810562 28.380346,12.4549134 28.3698692,12.0795662 C28.3593924,11.7042189 28.4991308,11.3402088 28.7580833,11.0682917 C29.0146351,10.7946919 29.3695217,10.6344368 29.7444117,10.6228985 C30.1193017,10.6113601 30.483372,10.7494871 30.7562639,11.0067917 C31.3252494,11.5452877 31.3509781,12.4427355 30.8137778,13.0129444 Z M16.7114861,9.79672222 C16.4303129,9.53361174 15.9896145,9.5463193 15.7240694,9.82519444 C15.4612198,10.1055992 15.473936,10.5455775 15.7525417,10.8103333 C16.0337851,11.0737705 16.4750062,11.060539 16.7399583,10.7807222 C17.002678,10.5007019 16.9899575,10.0610831 16.7114861,9.79672222 Z M20.2471667,8.45169444 C19.9002834,8.12752703 19.3568041,8.14405776 19.0302639,8.48870833 C18.873378,8.65534325 18.789135,8.87748914 18.7960769,9.10625145 C18.8030188,9.33501376 18.9005766,9.55164282 19.0672778,9.70845833 C19.4148146,10.0322389 19.9584907,10.014947 20.28475,9.66973611 C20.6085829,9.3221969 20.5918102,8.77860746 20.2471667,8.45169444 Z M24.0396667,8.174375 C23.5994759,7.76151249 22.9085047,7.7816107 22.4930556,8.21936111 C22.1002998,8.66228995 22.1304172,9.33710319 22.5610692,9.7432828 C22.9917211,10.1494624 23.6671411,10.1400935 24.0863611,9.722125 C24.4995314,9.28132589 24.4786585,8.58946503 24.0396667,8.174375 Z M27.6277361,9.09288889 C27.3905876,8.86815464 27.0736753,8.74716213 26.7470954,8.75667313 C26.4205155,8.76618413 26.1111816,8.90541483 25.8875139,9.14356944 C25.6633062,9.38075117 25.5425062,9.69728748 25.5516903,10.0235388 C25.5608745,10.34979 25.6992905,10.6590293 25.9364861,10.8832222 C26.4319169,11.3485846 27.2103199,11.32593 27.6778472,10.8325417 C28.1431667,10.3378425 28.1207603,9.55998278 27.6277361,9.09288889 Z M13.7139306,12.1519444 C13.5043834,11.9564048 13.1764608,11.966057 12.9787778,12.1735833 C12.8836532,12.2734611 12.8322719,12.4071411 12.8360128,12.5450188 C12.8397537,12.6828966 12.898308,12.8135938 12.9987083,12.9081667 C13.0984457,13.0036492 13.232262,13.0552214 13.3702824,13.0513697 C13.5083028,13.0475179 13.6390346,12.988563 13.7332917,12.8876667 C13.9307599,12.6790222 13.9220992,12.3499143 13.7139306,12.1519444 Z M31.821125,24.9860833 C31.5566895,25.266971 31.5694246,25.7088765 31.8495972,25.9740694 C32.1329341,26.2261356 32.5654224,26.206915 32.8252819,25.9307083 C33.0851414,25.6545016 33.0779734,25.2216457 32.8091111,24.9541944 C32.5270595,24.6912947 32.0856362,24.7055423 31.821125,24.9860833 Z M32.7151528,21.3826389 C32.3923465,21.7299895 32.4098835,22.2726205 32.7544444,22.5984028 C32.9205059,22.7556869 33.142421,22.8402755 33.3710428,22.833435 C33.5996645,22.8265945 33.8161253,22.7288895 33.9724861,22.5619583 C34.1297733,22.3960083 34.2142263,22.1740873 34.2070612,21.9455544 C34.1998962,21.7170214 34.1017072,21.5008267 33.9343333,21.3450556 C33.5866466,21.0204643 33.0421862,21.0372482 32.7151528,21.3826389 Z M32.4406806,17.5878611 C32.2414055,17.7988879 32.1343746,18.0805866 32.1432435,18.3706973 C32.1521125,18.660808 32.276151,18.9354427 32.4879444,19.1339028 C32.6990415,19.3330354 32.9807094,19.4399702 33.2707734,19.4311027 C33.5608374,19.4222352 33.8354472,19.2982945 34.0339861,19.0866389 C34.4348469,18.6449016 34.4079033,17.9634504 33.9734171,17.5547415 C33.538931,17.1460325 32.8571065,17.1607655 32.4406806,17.5878611 Z M31.1161528,14.0709722 C30.7746558,14.4336786 30.685401,14.9664397 30.8900394,15.4206415 C31.0946778,15.8748432 31.5528713,16.1609542 32.0508031,16.1454601 C32.5487349,16.129966 32.9882534,15.815921 33.1642565,15.3498748 C33.3402595,14.8838287 33.2180537,14.3576475 32.8546667,14.016875 C32.3638056,13.5510694 31.5836667,13.5778333 31.1161528,14.0709722 Z M29.89925,28.1117639 C29.7036337,28.3216923 29.7137999,28.6500606 29.9220278,28.8474861 C30.0226041,28.9416781 30.1566177,28.9918274 30.2943221,28.9868024 C30.4320264,28.9817775 30.5620285,28.9219941 30.6554722,28.8207222 C30.7510612,28.7218283 30.8026215,28.5884977 30.7984393,28.4510213 C30.7942571,28.3135449 30.7346875,28.183595 30.6332639,28.0906944 C30.5336935,27.9950274 30.3998639,27.9433729 30.2618395,27.9473348 C30.1238151,27.9512967 29.9931688,28.0105429 29.89925,28.1117639 Z M14.8795833,29.9305694 C15.4073997,29.3604143 15.3773017,28.4714676 14.8121297,27.9383188 C14.2469577,27.4051701 13.3577674,27.4269165 12.8193333,27.9870556 C12.310587,28.5596961 12.3491094,29.432999 12.9063013,29.9586197 C13.4634932,30.4842405 14.337557,30.4718157 14.8795833,29.9305694 Z M11.8159722,16.0122083 C11.9871694,15.8307373 12.0485485,15.5717185 11.9769886,15.3327218 C11.9054286,15.0937251 11.7118013,14.9110599 11.4690441,14.8535343 C11.2262869,14.7960087 10.9712805,14.8723623 10.8000833,15.0538333 C10.5324444,15.3328611 10.5483889,15.7730417 10.8314028,16.0395417 C11.1087222,16.3014861 11.5494722,16.2906667 11.8159722,16.0122083 Z M10.9185278,19.6173611 C11.2430956,19.2700529 11.2273443,18.7261245 10.8832222,18.3981806 C10.535223,18.0864921 10.0022848,18.1086904 9.6814113,18.4482391 C9.36053779,18.7877877 9.36849141,19.3211288 9.69934722,19.6509583 C10.045956,19.9766071 10.5903793,19.9616043 10.9185278,19.6173611 Z M11.1947083,23.4104306 C11.6099353,22.9694238 11.5892899,22.275379 11.1485833,21.8598333 C10.7076424,21.4459496 10.0148155,21.4673535 9.60026389,21.9076667 C9.18745937,22.3485819 9.20884405,23.0402746 9.64809722,23.4548472 C10.0899861,23.87225 10.7812917,23.8500417 11.1947083,23.4104306 Z M12.5169583,26.9284583 C12.9825078,26.4335324 12.9598413,25.6552298 12.4662778,25.1882361 C12.2291942,24.9643512 11.9126876,24.8441385 11.5867548,24.8541837 C11.2608219,24.8642288 10.9523189,25.003704 10.7294722,25.2417639 C10.5045482,25.4784375 10.3830584,25.794893 10.3918191,26.12128 C10.4005797,26.447667 10.5388704,26.7571496 10.7761667,26.9814167 C11.2728517,27.4439107 12.0493057,27.4202894 12.5169583,26.9284583 Z M26.9239028,31.2015694 C27.0584632,31.328823 27.2382002,31.397186 27.4233161,31.3915214 C27.6084319,31.3858567 27.7836527,31.3066318 27.9101806,31.1713889 C28.0371568,31.0371427 28.1053668,30.8578099 28.0997019,30.6731132 C28.094037,30.4884164 28.0149648,30.313601 27.88,30.1873889 C27.7458805,30.060162 27.5665841,29.9916365 27.3817973,29.9969802 C27.1970104,30.002324 27.0219737,30.0810962 26.8954306,30.2158611 C26.6312521,30.4959784 26.6439959,30.9371681 26.9239028,31.2015694 Z M23.3882222,32.5448889 C23.7355833,32.8723194 24.2799722,32.8506806 24.6062639,32.5067361 C24.763239,32.341163 24.8477649,32.1198629 24.841139,31.8918021 C24.834513,31.6637413 24.7372815,31.4477219 24.5709583,31.2915417 C24.2231712,30.9654937 23.6771432,30.9823024 23.3500694,31.329125 C23.026648,31.6760504 23.0436843,32.2189252 23.3882222,32.5448889 Z M19.5934444,32.8187917 C20.0376111,33.2373333 20.7255,33.2168333 21.1394861,32.7772222 C21.3392685,32.5667151 21.4470026,32.2853187 21.4388819,31.9952148 C21.4307611,31.7051109 21.3074539,31.4301819 21.0962083,31.2311806 C20.6555653,30.8168452 19.9630181,30.8361816 19.5461806,31.2744583 C19.3472916,31.4853373 19.2404956,31.7666942 19.2493629,32.0564323 C19.2582303,32.3461703 19.382032,32.6204698 19.5934444,32.8187917 Z M16.0127778,31.9054028 C16.249635,32.1294347 16.5659378,32.2499528 16.89182,32.2403366 C17.2177022,32.2307204 17.5263483,32.0917612 17.7495833,31.8541528 C18.2148794,31.3592941 18.1909142,30.580935 17.6960556,30.1156389 C17.2011969,29.6503428 16.4228377,29.674308 15.9575417,30.1691667 C15.7341924,30.4065171 15.6144872,30.722998 15.6248505,31.0487475 C15.6352138,31.374497 15.7747934,31.6827291 16.0127778,31.9054028 Z" id="Shape"></path>
                        <path d="M36.5606111,16.0087917 C35.6905537,16.3827832 34.6820159,15.9811013 34.3073194,15.1113472 C34.1269497,14.6936803 34.1202079,14.2214038 34.2885823,13.7987586 C34.4569566,13.3761134 34.7866037,13.0378482 35.2047639,12.858625 C36.0694528,12.5080475 37.0557686,12.9129998 37.4246441,13.7700426 C37.7935195,14.6270855 37.4096207,15.6217849 36.5606111,16.0087917 Z M24.523125,5.09766667 C24.4748889,4.85130592 24.3303553,4.63437119 24.1215773,4.49497209 C23.9127994,4.355573 23.6570332,4.30523124 23.411,4.35511111 C23.1644588,4.40307506 22.9472867,4.54752311 22.8077443,4.75635557 C22.6682019,4.96518803 22.6178489,5.2211051 22.667875,5.46723611 C22.7847355,5.96361979 23.2738742,6.27816275 23.7740019,6.17853633 C24.2741296,6.07890991 24.6053981,5.60094022 24.523125,5.09766667 Z M28.5838333,5.980875 C28.5092478,5.68614439 28.3203044,5.4332778 28.0588006,5.27821363 C27.7972968,5.12314946 27.4847867,5.07866865 27.1904028,5.15461111 C26.8953791,5.22881067 26.6421389,5.41762496 26.4868199,5.67919812 C26.3315008,5.94077128 26.2869344,6.25349362 26.363,6.54804167 C26.4643146,6.94475534 26.7695773,7.25728321 27.1637987,7.36789906 C27.5580201,7.4785149 27.9813085,7.37041355 28.2742154,7.08431572 C28.5671222,6.7982179 28.6851479,6.37758867 28.5838333,5.980875 Z M32.3279306,7.78772222 C32.2158913,7.42565879 31.9641569,7.12318688 31.6284561,6.94726726 C31.2927553,6.77134765 30.9007802,6.73649202 30.5393056,6.85041667 C30.1771546,6.96261863 29.8745697,7.21437629 29.6983814,7.55008489 C29.5221932,7.88579348 29.4868981,8.27783154 29.6002917,8.63961111 C29.850976,9.37230119 30.6395561,9.77208974 31.3787328,9.54123206 C32.1179094,9.31037439 32.5387941,8.53284903 32.3279306,7.78772222 Z M35.3140972,10.4493056 C35.1694957,10.0572693 34.8748346,9.73888824 34.4951436,9.56442692 C34.1154525,9.38996561 33.6819445,9.37376584 33.2902917,9.51940278 C32.8976549,9.66328545 32.5785784,9.95776008 32.4037206,10.3376161 C32.2288629,10.7174721 32.212653,11.1513643 32.3586806,11.5432083 C32.6607535,12.3593241 33.5672245,12.7760382 34.3833403,12.4739653 C35.1994561,12.1718924 35.6161701,11.2654213 35.3140972,10.4493056 Z M16.3834861,6.16195833 C16.3111588,5.99403891 16.1749581,5.86182131 16.0049664,5.79450848 C15.8349748,5.72719565 15.6451793,5.73032607 15.4775,5.80320833 C15.1287245,5.95369442 14.9679792,6.3584259 15.1184653,6.70720139 C15.2689514,7.05597688 15.6736828,7.2167222 16.0224583,7.06623611 C16.3715278,6.91590278 16.5343889,6.51045833 16.3834861,6.16195833 Z M33.5590694,28.8788056 C33.1460313,29.185975 33.0539879,29.7668172 33.3518236,30.1866355 C33.6496593,30.6064538 34.2282929,30.7114913 34.6546806,30.4231389 C34.859525,30.2778403 34.9981289,30.0569982 35.0399016,29.8093533 C35.0816743,29.5617084 35.0231817,29.3076201 34.8773333,29.1031667 C34.7323202,28.8985404 34.5119324,28.7599302 34.2646875,28.7178505 C34.0174427,28.6757708 33.7636099,28.7336713 33.5590694,28.8788056 Z M35.4405139,25.1876667 C35.085821,25.4025077 34.8748177,25.7921642 34.888742,26.2066155 C34.9026663,26.6210667 35.1393468,26.9956824 35.5076597,27.1862326 C35.8759725,27.3767828 36.3184824,27.3535527 36.6648194,27.1254861 C37.1865163,26.7819432 37.3371106,26.0839477 37.0034694,25.5558635 C36.6698282,25.0277793 35.9747975,24.8640459 35.4405139,25.1876667 Z M36.3305556,21.0341389 C35.6426861,21.4214092 35.3983375,22.2925541 35.7844583,22.9810694 C35.9700404,23.3112583 36.2793704,23.5540409 36.6441992,23.6558511 C37.009028,23.7576613 37.3993732,23.7101321 37.7291111,23.52375 C38.0601334,23.3392852 38.3039497,23.030455 38.406558,22.6656611 C38.5091663,22.3008672 38.4620979,21.9102177 38.2757778,21.5802361 C38.0905545,21.2495394 37.7813773,21.0061174 37.4164497,20.9036685 C37.051522,20.8012195 36.6608287,20.8481614 36.3305556,21.0341389 Z M36.2764583,16.8692222 C35.4984861,17.2557159 35.1800843,18.1989493 35.5646528,18.977875 C35.749361,19.3532721 36.0761219,19.6395305 36.4725573,19.7732432 C36.8689926,19.906956 37.3023797,19.8770861 37.6767222,19.69025 C38.0516031,19.5057772 38.3374886,19.1794834 38.471086,18.7836076 C38.6046834,18.3877319 38.5749713,17.9549324 38.3885278,17.5810278 C38.0013185,16.8018517 37.0563049,16.483365 36.2764583,16.8692222 Z M27.6100833,33.9349028 C27.3843634,34.0322502 27.2277239,34.2426231 27.1991693,34.486776 C27.1706147,34.7309288 27.2744831,34.9717691 27.4716484,35.1185746 C27.6688137,35.26538 27.9293218,35.2958474 28.1550417,35.1985 C28.5041111,35.0481667 28.6669722,34.6432917 28.5166389,34.2930833 C28.3650659,33.9439843 27.9593339,33.7836794 27.6100833,33.9349028 Z M8.42948611,28.1408056 C9.29813049,27.7643719 9.69751529,26.7553327 9.32180556,25.886375 C9.14252023,25.469173 8.80460971,25.1404461 8.38262727,24.9727215 C7.96064484,24.8049968 7.48926917,24.812058 7.0725,24.9923472 C6.65433941,25.1715566 6.32472063,25.509857 6.15644038,25.9325342 C5.98816014,26.3552114 5.99506319,26.827491 6.175625,27.2450694 C6.55121698,28.1142341 7.5597375,28.5150433 8.42948611,28.1408056 Z M10.0729028,12.1211944 C10.2775095,11.9764683 10.4162241,11.756372 10.4585162,11.5093479 C10.5008083,11.2623237 10.4432115,11.0086177 10.2984028,10.8040694 C10.1543413,10.598454 9.93410872,10.4589092 9.68666341,10.4164564 C9.43921811,10.3740036 9.18506686,10.432161 8.98070833,10.578 C8.77490783,10.7224722 8.63532944,10.9431537 8.59298629,11.1910107 C8.55064315,11.4388678 8.60904244,11.6933711 8.75520833,11.8979722 C9.05787913,12.322782 9.64720574,12.4226161 10.0729028,12.1211944 Z M8.19316667,15.8117639 C8.45058392,15.6490062 8.63273566,15.3905873 8.6994926,15.0934388 C8.76624954,14.7962903 8.71213452,14.4847921 8.54906944,14.2275694 C8.21020056,13.6930844 7.50220729,13.5345061 6.96772222,13.873375 C6.43323715,14.2122439 6.2746589,14.9202371 6.61352778,15.4547222 C6.95113958,15.9895205 7.65836683,16.1493732 8.19316667,15.8117639 Z M7.30027778,19.9658611 C7.76078939,19.7240782 8.05352524,19.2511361 8.06453779,18.7311278 C8.07555034,18.2111195 7.80309957,17.7262081 7.35323703,17.4651456 C6.90337449,17.2040831 6.34718012,17.2081184 5.90115278,17.4756806 C5.21640538,17.8634108 4.97430483,18.7319794 5.35975686,19.4180118 C5.74520889,20.1040443 6.61296787,20.3490306 7.30027778,19.9658611 Z M7.35551389,24.1319167 C8.13512933,23.7453853 8.45380942,22.8000527 8.06731944,22.0204167 C7.88274408,21.6447515 7.55584893,21.3583051 7.15919789,21.2246626 C6.76254684,21.09102 6.32895855,21.1212389 5.95468056,21.3086111 C5.58021389,21.4936872 5.29467338,21.8200251 5.16095005,22.2157479 C5.02722672,22.6114707 5.05628909,23.0441196 5.24173611,23.4184028 C5.62879209,24.1986986 6.5747398,24.5180069 7.35551389,24.1319167 Z M19.1088472,35.9046111 C19.1579243,36.1510891 19.3029077,36.3679747 19.5119005,36.5075524 C19.7208933,36.6471302 19.9767747,36.6979657 20.22325,36.648875 C20.7358643,36.5445279 21.0674404,36.0451265 20.9646667,35.5321944 C20.8605602,35.020732 20.3628505,34.6894344 19.8508333,34.7907778 C19.3387624,34.8940562 19.006868,35.3922799 19.1088472,35.9046111 Z M15.0504167,35.019125 C15.1247599,35.31394 15.3135128,35.5669801 15.5749143,35.7222607 C15.8363158,35.8775413 16.148817,35.9222618 16.4432778,35.8465278 C16.839788,35.7452132 17.1521279,35.440059 17.262642,35.0460138 C17.3731561,34.6519686 17.2650548,34.2288972 16.9790587,33.9361666 C16.6930626,33.6434359 16.2726213,33.5255188 15.8761111,33.6268333 C15.5819845,33.7019633 15.3297513,33.8908604 15.1749026,34.1519674 C15.0200539,34.4130743 14.9752748,34.7250015 15.0504167,35.019125 Z M11.3051806,33.2117083 C11.4164412,33.5740477 11.6678737,33.8769076 12.0035588,34.0529311 C12.3392439,34.2289546 12.7313482,34.2635466 13.0926667,34.1490139 C13.4549008,34.0374239 13.7577394,33.786095 13.9341801,33.4506332 C14.1106208,33.1151715 14.1461185,32.723231 14.0328194,32.3615278 C13.7965752,31.6082821 12.9949737,31.1886262 12.2413472,31.4236528 C11.8796252,31.5359365 11.5775276,31.7876794 11.4018495,32.1232203 C11.2261715,32.4587612 11.1913846,32.8504592 11.3051806,33.2117083 Z M8.317875,30.5484167 C8.46173005,30.9410389 8.75626851,31.260052 9.1361847,31.4347236 C9.5161009,31.6093953 9.95000128,31.6252919 10.3416806,31.4788889 C11.1396373,31.1653526 11.5402677,30.2711844 11.2431105,29.4669844 C10.9459534,28.6627845 10.0601626,28.2439573 9.25005556,28.5246111 C8.43451423,28.8268456 8.01750746,29.7321859 8.317875,30.5484167 Z M30.8570556,31.9372917 C30.5521795,32.1948644 30.5068477,32.6479531 30.7546507,32.9608217 C31.0024537,33.2736903 31.4538823,33.3333271 31.7744306,33.0955417 C31.9909948,32.9348924 32.102892,32.6690582 32.0664069,32.4018933 C32.0299219,32.1347283 31.8508446,31.9086308 31.5991357,31.8119307 C31.3474268,31.7152306 31.0630316,31.763274 30.8570556,31.9372917 Z M23.9274861,34.9245972 C23.5241183,34.9855109 23.2457363,35.3608432 23.3045139,35.7645278 C23.332801,35.9584557 23.4370621,36.1331686 23.5943065,36.2501405 C23.7515508,36.3671124 23.9488639,36.4167362 24.1427361,36.3880694 C24.3370125,36.3601835 24.5122001,36.2561169 24.6296184,36.0988468 C24.7470368,35.9415768 24.7970284,35.7440385 24.7685556,35.5498472 C24.7401321,35.3553081 24.6354898,35.1800661 24.4777076,35.062771 C24.3199254,34.945476 24.1219648,34.8957633 23.9274861,34.9245972 Z M20.3303056,5.23604167 C20.3017684,5.04171452 20.1970025,4.86675787 20.039171,4.74985355 C19.8813394,4.63294923 19.6834433,4.58372694 19.4892361,4.61306944 C19.2281171,4.65152015 19.0073465,4.82635538 18.9100863,5.0717164 C18.8128261,5.31707742 18.8538525,5.59568805 19.0177113,5.80259835 C19.18157,6.00950866 19.4433671,6.11328405 19.7044861,6.07483333 C20.1088446,6.01588383 20.3889596,5.64044312 20.3303056,5.23604167 Z M12.8967778,8.02461111 C12.6426311,7.70489153 12.1778838,7.6506795 11.8569722,7.90331944 C11.6221346,8.08907335 11.5223198,8.39800186 11.6040731,8.68604634 C11.6858264,8.97409081 11.9330472,9.18452302 12.2304521,9.21921484 C12.5278571,9.25390665 12.8168745,9.10602578 12.9627306,8.84453158 C13.1085868,8.58303739 13.0825563,8.25942923 12.8967778,8.02461111 Z" id="Shape"></path>
                        <path d="M41.4333472,22.6952083 C40.2207829,22.6936368 39.2389031,21.7097177 39.2398472,20.4971528 C39.2389355,19.9146799 39.4701524,19.355851 39.8823439,18.9443006 C40.2945355,18.5327503 40.8537236,18.3024036 41.4361944,18.3042222 C42.0186723,18.3031611 42.5775904,18.5341188 42.9894117,18.9460469 C43.4012329,19.357975 43.6320456,19.916953 43.6308333,20.4994306 C43.6302045,21.7125317 42.6464485,22.6955229 41.4333472,22.6952083 Z M32.8130972,3.75776389 C32.8807003,3.44362413 32.8202742,3.11549497 32.6452011,2.84604484 C32.470128,2.57659472 32.1948559,2.38806011 31.8803472,2.32219444 C31.5662789,2.25384001 31.2379185,2.31355341 30.9680232,2.48810355 C30.6981278,2.66265368 30.5089835,2.93762751 30.4425,3.25209722 C30.302864,3.90671957 30.7203429,4.55059317 31.3749653,4.69022917 C32.0295876,4.82986516 32.6734612,4.41238624 32.8130972,3.75776389 Z M37.1397361,6.85554167 C37.2011916,6.47118319 37.1071813,6.07816765 36.8784507,5.76322238 C36.6497201,5.44827711 36.3050702,5.23728984 35.9205556,5.17681944 C35.1293674,5.0696918 34.3974486,5.61403284 34.2723944,6.40258626 C34.1473402,7.19113969 34.6749319,7.93522254 35.4604444,8.07813889 C36.2614889,8.20305063 37.0125696,7.65623129 37.1397361,6.85554167 Z M42.7874861,15.5253333 C42.816166,14.9908748 42.6309393,14.4669797 42.2727022,14.0693183 C41.914465,13.6716569 41.4126811,13.4329355 40.8781389,13.4058611 C40.3435046,13.3763977 39.8191618,13.5611514 39.4210886,13.919257 C39.0230154,14.2773626 38.7840175,14.7793081 38.7569583,15.3140694 C38.7125163,16.0380092 39.0599741,16.7301189 39.6670804,17.1269637 C40.2741866,17.5238085 41.0475556,17.5643454 41.692823,17.2331449 C42.3380904,16.9019444 42.7560006,16.2499522 42.7874861,15.5253333 Z M22.6991944,0.880361111 C22.6991944,0.391208333 22.3034306,0 21.8159861,0 C21.3417824,0.0170531619 20.9661659,0.406420363 20.9661659,0.880930556 C20.9661659,1.35544075 21.3417824,1.74480795 21.8159861,1.76186111 C22.3034306,1.76186111 22.6991944,1.368375 22.6991944,0.880361111 Z M31.3763889,36.3089167 C30.7211376,36.4482382 30.3028938,37.0923667 30.4422153,37.7476181 C30.5815368,38.4028694 31.2256653,38.8211132 31.8809167,38.6817917 C32.536168,38.5424702 32.9544118,37.8983416 32.8150903,37.2430903 C32.6757688,36.5878389 32.0316402,36.1695952 31.3763889,36.3089167 Z M35.4604444,32.923 C34.9382442,33.0000671 34.497622,33.3515567 34.30643,33.843571 C34.115238,34.3355854 34.202915,34.8923668 34.5360609,35.3018132 C34.8692068,35.7112595 35.3965257,35.9103263 35.9171389,35.8231806 C36.7113236,35.6902415 37.2501923,34.9423717 37.1249347,34.1469393 C36.9996772,33.351507 36.2570502,32.8054357 35.4604444,32.923 Z M38.6145972,28.4893056 C37.6097842,28.594976 36.8808851,29.4952008 36.9865556,30.5000139 C37.092226,31.504827 37.9924508,32.233726 38.9972639,32.1280556 C39.4802432,32.0782709 39.9235145,31.8382011 40.2291158,31.460901 C40.5347172,31.0836009 40.6774875,30.6001346 40.625875,30.1173472 C40.5197987,29.112512 39.6194872,28.3837491 38.6145972,28.4893056 Z M40.6634583,23.5630417 C39.5521357,23.6237001 38.6994356,24.5721635 38.7569583,25.6836528 C38.7838679,26.2184686 39.0228216,26.7205051 39.4209296,27.078642 C39.8190376,27.4367789 40.3434663,27.6214791 40.8781389,27.5918611 C41.41258,27.5646406 41.9142187,27.3258558 42.2723342,26.9282108 C42.6304498,26.5305658 42.8155992,26.0067536 42.7869167,25.4723889 C42.7265617,24.3593484 41.7766323,23.5052017 40.6634583,23.5630417 Z M21.8159861,39.2375694 C21.3380284,39.2497204 20.9568889,39.6406726 20.9568889,40.1187847 C20.9568889,40.5968968 21.3380284,40.9878491 21.8159861,41 C22.3026679,41 22.6972014,40.6054665 22.6972014,40.1187847 C22.6972014,39.632103 22.3026679,39.2375694 21.8159861,39.2375694 Z M2.19748611,22.6952083 C3.40947496,22.6926953 4.39047813,21.7091441 4.38984722,20.4971528 C4.39075557,19.9153721 4.16008525,19.3571501 3.74875715,18.9457152 C3.33742904,18.5342802 2.77926696,18.303465 2.19748611,18.3042222 C1.61474114,18.3034661 1.05562158,18.5345089 0.643398108,18.9464119 C0.231174639,19.3583149 -0.000302901242,19.9172546 5.29395592e-23,20.5 C0.00250979677,21.712228 0.985256137,22.6939557 2.19748611,22.6952083 Z M12.2555833,4.689375 C12.9105189,4.55020887 13.3286342,3.9064642 13.1894722,3.25152778 C13.1229614,2.93712428 12.9339511,2.66216508 12.6642345,2.48744766 C12.3945178,2.31273025 12.0663142,2.25264805 11.7521944,2.32048611 C11.3290332,2.41040787 10.9859888,2.71925284 10.8522827,3.13068211 C10.7185766,3.54211139 10.814522,3.99361906 11.1039771,4.31512657 C11.3934323,4.63663408 11.8324221,4.77929677 12.2555833,4.689375 Z M8.17266667,8.077 C8.97415893,7.94958879 9.52100917,7.19709636 9.39469444,6.39543056 C9.33382656,6.01054758 9.12232221,5.66569865 8.80684813,5.43697193 C8.49137406,5.20824521 8.09785759,5.11443868 7.713125,5.17625 C7.32871464,5.23685517 6.98420654,5.44789918 6.75559411,5.76282882 C6.52698169,6.07775845 6.43304817,6.47069852 6.49451389,6.85497222 C6.62052686,7.6557998 7.37181973,8.20288989 8.17266667,8.077 Z M5.01623611,12.5095556 C6.00185036,12.3819254 6.70563283,11.4912603 6.60189032,10.5028462 C6.49814781,9.51443215 5.62477394,8.78930312 4.63413889,8.86909722 C4.15093319,8.91900784 3.70752478,9.15938035 3.40199497,9.53704469 C3.09646517,9.91470903 2.95399448,10.3985396 3.00609722,10.8815139 C3.05646528,11.3640946 3.2966319,11.8068504 3.67368063,12.1122279 C4.05072937,12.4176053 4.53372072,12.560546 5.01623611,12.5095556 Z M2.967375,17.43525 C4.08029875,17.3761086 4.93486582,16.4264763 4.87672222,15.3135 C4.84952564,14.7782249 4.61010635,14.2758643 4.21146069,13.9176176 C3.81281502,13.5593709 3.28782333,13.3747863 2.75269444,13.4047222 C2.2183119,13.4323869 1.71685484,13.671383 1.35881634,14.0690493 C1.00077783,14.4667156 0.815539201,14.9904187 0.843916667,15.5247639 C0.903054934,16.6385504 1.85355308,17.4937184 2.967375,17.43525 Z M10.8194444,37.2416667 C10.7294209,37.6651331 10.8721524,38.1044592 11.1938734,38.394155 C11.5155943,38.6838508 11.9674276,38.7799048 12.379172,38.6461342 C12.7909164,38.5123636 13.1000182,38.1690914 13.1900417,37.745625 C13.328514,37.0909447 12.9106244,36.4478024 12.2561528,36.3083472 C11.6019716,36.1708663 10.9597304,36.5880813 10.8194444,37.2416667 Z M6.49508333,34.14275 C6.43297973,34.5271776 6.52664899,34.9205045 6.75535936,35.235676 C6.98406973,35.5508474 7.32895948,35.7618712 7.71369444,35.8220417 C8.29990173,35.9153592 8.88459407,35.6463306 9.19508621,35.1404237 C9.50557835,34.6345168 9.48071189,33.9913814 9.1320839,33.510959 C8.78345592,33.0305366 8.1797365,32.8074572 7.60248465,32.9457592 C7.0252328,33.0840613 6.58815121,33.556503 6.49508333,34.14275 Z M3.00609722,30.1184861 C2.95416536,30.601094 3.0966829,31.0845023 3.40211652,31.4617523 C3.70755014,31.8390024 4.15071957,32.0789934 4.63356944,32.128625 C5.11624039,32.1802551 5.59961315,32.0376548 5.9769715,31.7323065 C6.35432986,31.4269582 6.59463984,30.9839738 6.64484722,30.5011528 C6.69552555,30.0183962 6.55234927,29.5352807 6.24681695,29.1580909 C5.94128462,28.780901 5.49842508,28.5405357 5.01566667,28.489875 C4.53309369,28.4387407 4.05000584,28.5817172 3.67299542,28.8872569 C3.295985,29.1927967 3.05603765,29.6357881 3.00609722,30.1184861 Z M0.843916667,25.4718194 C0.81523415,26.0061841 1.00038355,26.5299963 1.3584991,26.9276413 C1.71661465,27.3252863 2.21825329,27.5640711 2.75269444,27.5912917 C3.28784432,27.6216947 3.81301095,27.4373483 4.21174491,27.0791291 C4.61047886,26.72091 4.84982898,26.2184211 4.87672222,25.6830833 C4.93389505,24.5706543 4.07968436,23.6219276 2.967375,23.5624722 C1.8545401,23.5055895 0.905187598,24.3592175 0.843916667,25.4718194 Z M26.6482917,38.5360139 C26.1434069,38.6719108 25.8436521,39.1906878 25.9780556,39.6959722 C26.1141543,40.2005554 26.6332873,40.4994965 27.1380139,40.3639306 C27.3810709,40.2998209 27.5885835,40.1415422 27.7146763,39.9240857 C27.8407691,39.7066291 27.8750564,39.4479052 27.8099583,39.2051111 C27.6738489,38.6996289 27.1538284,38.4001073 26.6482917,38.5360139 Z M16.9825417,38.5360139 C16.4826487,38.4137285 15.9766603,38.7133032 15.8434805,39.2104046 C15.7103007,39.707506 15.998747,40.2199199 16.4928194,40.3639306 C16.8221672,40.4599278 17.1776774,40.3701864 17.422005,40.1293764 C17.6663326,39.8885665 17.7612197,39.5343949 17.6700083,39.2036898 C17.5787969,38.8729846 17.3157694,38.6175291 16.9825417,38.5360139 Z M27.8105278,1.79431944 C27.8752893,1.55145926 27.8407846,1.2928127 27.7146235,1.07542251 C27.5884624,0.858032319 27.3810083,0.699755882 27.1380139,0.6355 C26.642858,0.525485986 26.1489444,0.82515334 26.0178226,1.3151427 C25.8867008,1.80513205 26.1649377,2.31142782 26.6488611,2.46341667 C26.8916445,2.52899888 27.1505437,2.49531683 27.3684655,2.36979818 C27.5863872,2.24427952 27.7454323,2.03723385 27.8105278,1.79431944 Z M17.6544861,1.30288889 C17.5892906,1.06012129 17.4301407,0.85329062 17.2121808,0.728070549 C16.994221,0.602850478 16.7353809,0.569541819 16.4928194,0.6355 C16.2503747,0.699865662 16.0434823,0.858010858 15.9177544,1.07507049 C15.7920264,1.29213013 15.7577865,1.55028122 15.8225833,1.79261111 C15.9100638,2.11984902 16.1654784,2.37555906 16.492615,2.46341773 C16.8197515,2.55127639 17.1689102,2.45793586 17.4085664,2.21855662 C17.6482225,1.97917737 17.7419666,1.6301268 17.6544861,1.30288889 Z" id="Shape"></path>
                    </g>
                </g>
            </g>
        </g>
    </g>
</svg>