<?xml version="1.0" encoding="UTF-8"?>
<svg width="1920px" height="2777px" viewBox="0 0 1920 2777" version="1.1" xmlns="http://www.w3.org/2000/svg" xmlns:xlink="http://www.w3.org/1999/xlink">
    <!-- Generator: Sketch 49.2 (51160) - http://www.bohemiancoding.com/sketch -->
    <title>bg</title>
    <desc>Created with Sketch.</desc>
    <defs>
        <rect id="path-1" x="0" y="0" width="1920" height="2777"></rect>
        <filter x="-0.9%" y="-0.6%" width="101.8%" height="101.3%" filterUnits="objectBoundingBox" id="filter-3">
            <feGaussianBlur stdDeviation="3.21428571" in="SourceGraphic"></feGaussianBlur>
        </filter>
        <filter x="-0.8%" y="-0.6%" width="101.6%" height="101.2%" filterUnits="objectBoundingBox" id="filter-4">
            <feGaussianBlur stdDeviation="3" in="SourceGraphic"></feGaussianBlur>
        </filter>
        <filter x="-0.7%" y="-0.5%" width="101.4%" height="101.0%" filterUnits="objectBoundingBox" id="filter-5">
            <feGaussianBlur stdDeviation="3" in="SourceGraphic"></feGaussianBlur>
        </filter>
        <filter x="-0.6%" y="-0.4%" width="101.2%" height="100.8%" filterUnits="objectBoundingBox" id="filter-6">
            <feGaussianBlur stdDeviation="3" in="SourceGraphic"></feGaussianBlur>
        </filter>
        <radialGradient cx="0%" cy="0%" fx="0%" fy="0%" r="175.839142%" gradientTransform="translate(0.000000,0.000000),scale(1.000000,0.691394),rotate(55.340267),translate(-0.000000,-0.000000)" id="radialGradient-7">
            <stop stop-color="#393794" offset="0%"></stop>
            <stop stop-color="#353388" stop-opacity="0.886691886" offset="8.57031968%"></stop>
            <stop stop-color="#2E2C70" stop-opacity="0.652281868" offset="36.8726562%"></stop>
            <stop stop-color="#292861" stop-opacity="0.504974303" offset="74.0433143%"></stop>
            <stop stop-color="#262557" stop-opacity="0.406404401" offset="89.3763652%"></stop>
            <stop stop-color="#19182D" stop-opacity="0" offset="100%"></stop>
        </radialGradient>
    </defs>
    <g id="Page-1" stroke="none" stroke-width="1" fill="none" fill-rule="evenodd">
        <g id="crowdsalePage-Copy-3">
            <g id="firstPage">
                <g id="bg">
                    <g id="echo">
                        <mask id="mask-2" fill="white">
                            <use xlink:href="#path-1"></use>
                        </mask>
                        <use id="bg2" fill="#19192E" xlink:href="#path-1"></use>
                        <g id="lines" opacity="0.35" mask="url(#mask-2)" stroke-width="5">
                            <g transform="translate(-245.000000, -296.911950)">
                                <path d="M4,1931.94291 C471.001095,1544.47979 794.107909,1223.16105 973.320442,967.986695 C1152.53298,712.812344 1280.7595,391.493605 1358,4.03047896" id="Line-6-Copy" stroke="#2E2D67"></path>
                                <path d="M0,1927.91243 C467.001095,1540.44931 790.107909,1219.13057 969.320442,963.956216 C1148.53298,708.781865 1276.7595,387.463126 1354,0" id="Line-6-Copy-Copy" stroke="#000000" filter="url(#filter-3)"></path>
                                <path d="M823,3267.37494 C1290.00109,2879.91181 1598.30604,2586.75061 1777.51858,2331.57625 C1956.73111,2076.4019 2153.81686,1783.2407 2231.05737,1395.77757" id="Line-6-Copy-4" stroke="#2E2D67"></path>
                                <path d="M820,3262.00097 C1287.00109,2874.53784 1595.30604,2581.37663 1774.51858,2326.20228 C1953.73111,2071.02793 2150.81686,1777.86673 2228.05737,1390.4036" id="Line-6-Copy-4-Copy" stroke="#000000" filter="url(#filter-4)"></path>
                                <path d="M119,2533.82777 C697.405345,2054.02151 1097.59008,1656.12368 1319.5542,1340.13425 C1541.51832,1024.14483 1700.33358,626.24699 1796,146.440735" id="Line-6-Copy-2" stroke="#2E2D67"></path>
                                <path d="M116,2528.4538 C694.405345,2048.64754 1094.59008,1650.7497 1316.5542,1334.76028 C1538.51832,1018.77086 1697.33358,620.873019 1793,141.066763" id="Line-6-Copy-2-Copy" stroke="#000000" filter="url(#filter-5)"></path>
                                <path d="M280,3091.37736 C934.284401,2523.81813 1386.96803,2053.14775 1638.05087,1679.36623 C1889.13372,1305.58471 2068.78343,834.914332 2177,267.355104" id="Line-6-Copy-3" stroke="#2E2D67"></path>
                                <path d="M275,3088.69037 C929.284401,2521.13115 1381.96803,2050.46077 1633.05087,1676.67925 C1884.13372,1302.89772 2063.78343,832.227346 2172,264.668118" id="Line-6-Copy-3-Copy" stroke="#000000" filter="url(#filter-6)"></path>
                            </g>
                        </g>
                    </g>
                    <rect id="bg1" fill="url(#radialGradient-7)" x="0" y="0" width="1920" height="2777"></rect>
                </g>
            </g>
        </g>
    </g>
</svg>