<?xml version="1.0" encoding="UTF-8"?>
<svg width="298px" height="496px" viewBox="0 0 298 496" version="1.1" xmlns="http://www.w3.org/2000/svg" xmlns:xlink="http://www.w3.org/1999/xlink">
    <!-- Generator: Sketch 49.2 (51160) - http://www.bohemiancoding.com/sketch -->
    <title>grid copy</title>
    <desc>Created with Sketch.</desc>
    <defs>
        <rect id="path-1" x="0" y="0" width="85.975" height="85.5" rx="16.625"></rect>
        <filter x="-8.7%" y="-8.8%" width="117.4%" height="135.1%" filterUnits="objectBoundingBox" id="filter-2">
            <feMorphology radius="5" operator="erode" in="SourceAlpha" result="shadowSpreadOuter1"></feMorphology>
            <feOffset dx="0" dy="15" in="shadowSpreadOuter1" result="shadowOffsetOuter1"></feOffset>
            <feGaussianBlur stdDeviation="5" in="shadowOffsetOuter1" result="shadowBlurOuter1"></feGaussianBlur>
            <feColorMatrix values="0 0 0 0 0.466666667   0 0 0 0 0.482352941   0 0 0 0 0.980392157  0 0 0 0.5 0" type="matrix" in="shadowBlurOuter1"></feColorMatrix>
        </filter>
    </defs>
    <g id="Page-1" stroke="none" stroke-width="1" fill="none" fill-rule="evenodd">
        <g id="iPhone-8-Copy" transform="translate(-44.000000, -4353.000000)">
            <g id="fieldBlock" transform="translate(0.000000, 4149.000000)">
                <g id="grid-copy" transform="translate(44.000000, 204.000000)">
                    <g id="bg" fill="#777BFA">
                        <rect id="Rectangle-5" opacity="0.07" x="211.974482" y="205.241379" width="86.0255183" height="85.5172414" rx="16.625"></rect>
                        <rect id="Rectangle-5" opacity="0.04" x="206.271132" y="307.862069" width="86.0255183" height="85.5172414" rx="16.625"></rect>
                        <rect id="Rectangle-5" opacity="0.04" x="206.271132" y="410.482759" width="86.0255183" height="85.5172414" rx="16.625"></rect>
                        <rect id="Rectangle-5" opacity="0.07" x="0" y="205.241379" width="86.0255183" height="85.5172414" rx="16.625"></rect>
                        <rect id="Rectangle-5" opacity="0.04" x="0" y="307.862069" width="86.0255183" height="85.5172414" rx="16.625"></rect>
                        <rect id="Rectangle-5" opacity="0.04" x="0" y="410.482759" width="86.0255183" height="85.5172414" rx="16.625"></rect>
                        <rect id="Rectangle-5" opacity="0.04" x="103.135566" y="307.862069" width="86.0255183" height="85.5172414" rx="16.625"></rect>
                        <rect id="Rectangle-5" opacity="0.04" x="103.135566" y="410.482759" width="86.0255183" height="85.5172414" rx="16.625"></rect>
                        <rect id="Rectangle-5" opacity="0.02" x="0" y="0" width="86.0255183" height="85.5172414" rx="16.625"></rect>
                        <rect id="Rectangle-5" opacity="0.04" x="103.135566" y="0" width="86.0255183" height="85.5172414" rx="16.625"></rect>
                        <rect id="Rectangle-5" opacity="0.02" x="206.271132" y="0" width="86.0255183" height="85.5172414" rx="16.625"></rect>
                        <rect id="Rectangle-5" opacity="0.02" x="0" y="102.62069" width="86.0255183" height="85.5172414" rx="16.625"></rect>
                        <rect id="Rectangle-5" opacity="0.04" x="103.135566" y="102.62069" width="86.0255183" height="85.5172414" rx="16.625"></rect>
                        <rect id="Rectangle-5" opacity="0.07" x="211.974482" y="102.62069" width="86.0255183" height="85.5172414" rx="16.625"></rect>
                    </g>
                    <g id="appIcon" transform="translate(105.987241, 205.241379)">
                        <g>
                            <g id="center">
                                <use fill="black" fill-opacity="1" filter="url(#filter-2)" xlink:href="#path-1"></use>
                                <use fill="#777BFA" fill-rule="evenodd" xlink:href="#path-1"></use>
                            </g>
                            <path d="M43.225,14.25 C27.455,14.25 14.725,26.98 14.725,42.75 C14.725,58.52 27.455,71.25 43.225,71.25 C58.995,71.25 71.725,58.52 71.725,42.75 C71.725,26.98 58.995,14.25 43.225,14.25 Z M43.225,69.35 C28.5,69.35 16.625,57.475 16.625,42.75 C16.625,28.025 28.5,16.15 43.225,16.15 C57.95,16.15 69.825,28.025 69.825,42.75 C69.825,57.475 57.95,69.35 43.225,69.35 Z M62.225,42.75 L53.96,34.2 L32.49,34.2 L24.225,42.75 L32.49,51.3 L53.96,51.3 L62.225,42.75 Z M32.11,45.695 L26.505,42.75 L32.11,39.71 L32.11,45.695 Z M33.25,39.33 L53.2,39.33 L53.2,46.075 L33.25,46.075 L33.25,39.33 Z M54.34,39.71 L59.945,42.75 L54.34,45.695 L54.34,39.71 Z M54.34,38.38 L54.34,36.195 L58.805,40.85 L54.34,38.38 Z M53.2,35.435 L53.2,38.19 L33.25,38.19 L33.25,35.435 L53.2,35.435 Z M32.11,36.195 L32.11,38.38 L27.645,40.85 L32.11,36.195 Z M32.11,47.12 L32.11,49.305 L27.645,44.65 L32.11,47.12 Z M33.25,50.065 L33.25,47.31 L53.2,47.31 L53.2,50.065 L33.25,50.065 Z M54.34,49.305 L54.34,47.12 L58.805,44.65 L54.34,49.305 Z" id="quartz" fill="#FFFFFF" fill-rule="nonzero"></path>
                        </g>
                    </g>
                </g>
            </g>
        </g>
    </g>
</svg>