<?xml version="1.0" encoding="UTF-8"?>
<svg width="124px" height="60px" viewBox="0 0 124 60" version="1.1" xmlns="http://www.w3.org/2000/svg" xmlns:xlink="http://www.w3.org/1999/xlink">
    <!-- Generator: Sketch 49 (51002) - http://www.bohemiancoding.com/sketch -->
    <title>Group 2</title>
    <desc>Created with Sketch.</desc>
    <defs></defs>
    <g id="Page-1" stroke="none" stroke-width="1" fill="none" fill-rule="evenodd">
        <g id="KAKAOTALK" transform="translate(-305.000000, -34.000000)">
            <g id="Group-2" transform="translate(305.000000, 34.000000)">
                <g id="Group">
                    <path d="M29.54988,0 C13.23048,0 0,13.22808 0,29.5476 C0,45.86724 13.23048,59.0976 29.54988,59.0976 C45.8682,59.0976 59.09868,45.86724 59.09868,29.5476 C59.09868,13.22808 45.86832,0 29.54988,0 Z" id="Path" fill="#FFFFFF"></path>
                    <g id="if_Kakao_Talk2_289120" transform="translate(6.000000, 8.000000)"></g>
                    <g id="Shape_5_copy" transform="translate(6.744141, 8.789474)" fill="#201F44" fill-rule="nonzero">
                        <path d="M33.1779539,11.0631118 C33.8789782,11.0631118 33.9858515,10.4233388 33.9858515,9.6338639 L33.9858515,9.20524126 C33.9858515,8.41576639 33.8789782,7.77599336 33.1779539,7.77599336 C32.4769296,7.77599336 32.3700562,8.41576639 32.3700562,9.20524126 L32.3700562,9.6338639 C32.3700562,10.4233388 32.4769296,11.0631118 33.1779539,11.0631118 Z M28.6768099,8.0286152 C28.6211804,7.86070639 28.5214628,7.52286577 28.2290038,7.52286577 C27.9365449,7.52286577 27.7952782,7.78433823 27.7534984,8.0286152 C27.7117185,8.27289218 27.5226705,10.0516129 27.5226705,10.0516129 L28.9076378,10.0516129 C28.9076378,10.0516129 28.7324395,8.19652402 28.6768099,8.0286152 Z M22.6962891,0.0016920078 C10.1615039,0.0866549708 0,8.27186355 0,18.284078 C0,24.54777 3.97715234,30.0423236 10.0241348,33.2579844 C9.75249414,36.1087758 5.86028906,40.8572749 5.71875,40.9707602 C5.55648047,41.100924 4.78992969,41.8150721 5.59960938,41.9376218 C6.44932031,42.0552164 15.1604062,38.7804561 18.4776387,35.9735361 C19.8447773,36.1695673 21.2545684,36.2686706 22.6962891,36.2588811 C35.2310742,36.174039 45.3925781,27.9885887 45.3925781,17.9763743 C45.3925781,7.9642807 35.2310742,-0.0832709552 22.6962891,0.0016920078 Z M30.9850889,9.04011407 C30.9850889,7.03405895 32.0187362,6.51136691 33.2933678,6.51136691 C34.5679995,6.51136691 35.3708189,7.06541541 35.3708189,9.04011407 L35.3708189,9.79873822 C35.3708189,11.6952986 34.5679995,12.3274854 33.2933678,12.3274854 C32.0187362,12.3274854 30.9850889,11.8826788 30.9850889,9.79873822 L30.9850889,9.04011407 Z M27.0610147,7.01711634 C27.2004347,6.60493055 27.7691947,6.51136691 28.2151541,6.51136691 C28.6611136,6.51136691 29.2580346,6.65095375 29.3692936,7.01711634 C29.4805527,7.38327893 30.5234331,12.3274854 30.5234331,12.3274854 L29.1384657,12.3274854 L28.9076378,11.0631118 L27.6558582,11.0631118 L27.2918426,12.3274854 L25.9068752,12.3274854 C25.9068752,12.3274854 26.9215946,7.42904925 27.0610147,7.01711634 Z M16.6737594,7.01711634 C16.8131795,6.60493055 17.3821702,6.51136691 17.8278989,6.51136691 C18.2736275,6.51136691 18.8705485,6.65095375 18.9820384,7.01711634 C19.0935282,7.38327893 20.1361778,12.3274854 20.1361778,12.3274854 L18.7512105,12.3274854 L18.5203826,11.0631118 L17.2688337,11.0631118 L16.9045873,12.3274854 L15.5196199,12.3274854 C15.5196199,12.3274854 16.5343394,7.42904925 16.6737594,7.01711634 Z M10.4414062,6.51136691 L11.8263736,6.51136691 L11.8263736,9.04011407 L13.4421689,6.51136691 L15.0579641,6.51136691 L13.211341,9.29298879 L15.0579641,12.3274854 L13.4421689,12.3274854 L11.8263736,9.79873822 L11.8263736,12.3274854 L10.4414062,12.3274854 L10.4414062,6.51136691 Z M10.9609375,23.2046784 C10.9609375,23.8362807 10.5677734,24.6549708 9.76953125,24.6549708 C8.97128906,24.6549708 8.57860156,23.9981092 8.57860156,23.2046784 C8.57860156,22.4112476 8.57860156,15.3489279 8.57860156,15.3489279 C8.57860156,15.3489279 7.12186914,15.3489279 6.55273438,15.3489279 C5.98359961,15.3489279 5.2421875,15.0064172 5.2421875,14.1403509 C5.2421875,13.2742846 5.96489453,13.0526316 6.43359375,13.0526316 C6.90229297,13.0526316 12.6953867,13.0526316 13.1054688,13.0526316 C13.5155508,13.0526316 14.296875,13.4983548 14.296875,14.2612086 C14.296875,15.0240624 13.4215488,15.3489279 12.9863281,15.3489279 C12.5511074,15.3489279 10.9609375,15.3489279 10.9609375,15.3489279 C10.9609375,15.3489279 10.9609375,22.573076 10.9609375,23.2046784 Z M22.0410156,24.6549708 C21.0850312,25.011501 20.4995742,23.8524756 20.3730469,23.5672515 C20.2465195,23.2820273 19.9653477,22.3586745 19.9653477,22.3586745 L15.5060332,22.3586745 C15.5060332,22.3586745 15.1176348,23.6085848 14.8926973,24.0506823 C14.6677598,24.4927797 13.8854824,24.8906433 13.2247285,24.5341131 C12.5639746,24.1775828 12.5935215,23.1986355 12.748166,22.8421053 C12.9028105,22.485575 15.3892754,15.4650721 15.7266816,14.7030643 C16.0640879,13.9410565 16.6413242,13.0526316 17.7519531,13.0526316 C18.862582,13.0526316 19.3510586,13.9616023 19.6582031,14.7030643 C19.9653477,15.4445263 22.5175781,22.4285302 22.6367187,22.8421053 C22.7558594,23.2556803 22.997,24.2984405 22.0410156,24.6549708 Z M22.2136289,9.79873822 L22.2136289,12.3274854 L20.8286615,12.3274854 L20.8286615,6.51136691 L22.2136289,6.51136691 L22.2136289,9.04011407 L23.8294241,6.51136691 L25.4452194,6.51136691 L23.5985962,9.29298879 L25.4452194,12.3274854 L23.8294241,12.3274854 L22.2136289,9.79873822 Z M28.9511719,24.6549708 C28.8348906,24.6549708 26.099541,24.6549708 25.2578125,24.6549708 C25.1951445,24.6549708 25.130332,24.6497739 25.0649238,24.6417973 C25.0120254,24.6497739 24.957459,24.6549708 24.9003906,24.6549708 C24.1021484,24.6549708 23.7094609,23.9981092 23.7094609,23.2046784 C23.7094609,22.5498713 23.7094609,14.9382534 23.7094609,14.502924 C23.7094609,13.7094932 24.1021484,13.0526316 24.9003906,13.0526316 C25.6986328,13.0526316 26.0917969,13.8713216 26.0917969,14.502924 C26.0917969,14.6183431 26.0917969,19.8951111 26.0917969,22.2383002 C27.1198613,22.2383002 28.6701191,22.2383002 28.9511719,22.2383002 C29.7333301,22.2383002 30.3808594,22.6366472 30.3808594,23.4463938 C30.3808594,24.2561404 29.5738008,24.6549708 28.9511719,24.6549708 Z M39.0364258,24.4953177 C38.3993809,24.9833411 37.6958555,24.6993255 37.224416,24.0660312 C37.0781113,23.8695166 35.5672891,21.8403158 34.2120645,20.0199571 C33.887168,20.3495361 33.5952734,20.6456374 33.359375,20.8849357 C33.359375,21.9832904 33.359375,22.8770331 33.359375,23.2045575 C33.359375,23.8361598 32.9662109,24.6548499 32.1679688,24.6548499 C31.3697266,24.6548499 30.9770391,23.9979883 30.9770391,23.2045575 C30.9770391,22.5497505 30.9770391,14.9381326 30.9770391,14.5028031 C30.9770391,13.7093723 31.3697266,13.0525107 32.1679688,13.0525107 C32.9662109,13.0525107 33.359375,13.8712008 33.359375,14.5028031 C33.359375,14.5597271 33.359375,15.8712749 33.359375,17.4672008 C35.0225781,15.7800273 37.0331953,13.7404327 37.2165527,13.5543119 C37.7698418,12.9931696 38.5051777,12.8105536 39.069666,13.3830565 C39.6340352,13.9556803 39.3414258,14.8165497 38.9012012,15.2632398 C38.8509238,15.3142417 37.3958594,16.7902768 35.9130352,18.2944717 C37.3672656,20.2477739 39.0751465,22.5417739 39.125543,22.6094542 C39.5007168,23.1135517 39.6733516,24.0072943 39.0364258,24.4953177 Z M16.203125,20.0623782 L19.3007813,20.0623782 L17.7519531,15.4697856 L16.203125,20.0623782 Z M18.2895547,8.0286152 C18.2339251,7.86070639 18.1342075,7.52286577 17.8417486,7.52286577 C17.5490588,7.52286577 17.4080229,7.78433823 17.3662431,8.0286152 C17.3244632,8.27289218 17.1354152,10.0516129 17.1354152,10.0516129 L18.5203826,10.0516129 C18.5203826,10.0516129 18.3451842,8.19652402 18.2895547,8.0286152 Z" id="Shape"></path>
                    </g>
                </g>
                <g id="Group-Copy" transform="translate(64.000000, 0.000000)">
                    <path d="M29.54988,0 C13.23048,0 0,13.22808 0,29.5476 C0,45.86724 13.23048,59.0976 29.54988,59.0976 C45.8682,59.0976 59.09868,45.86724 59.09868,29.5476 C59.09868,13.22808 45.86832,0 29.54988,0 Z" id="Path" fill="#FFFFFF"></path>
                    <path d="M19.782763,25.7757108 C18.8626444,26.6719371 17.9504899,27.5532971 17.0468304,28.4415594 C16.7309212,28.7526901 16.3757225,28.9247146 15.9222999,28.9008223 C15.612762,28.8843632 15.4396756,28.7484426 15.3446374,28.4548329 C14.652292,26.3061196 13.9498586,24.1627157 13.2612297,22.0118787 C13.1943313,21.8032193 13.0955765,21.7018098 12.8842625,21.6365042 C11.2532155,21.1384827 9.62535411,20.6287805 8.00014744,20.1121761 C7.75007481,20.0325352 7.49787841,19.928471 7.28178592,19.7814006 C6.9478248,19.5552203 6.89897834,19.1862172 7.19842838,18.9207473 C7.475048,18.675984 7.80529254,18.4625462 8.14827964,18.3266256 C10.1419585,17.5365873 12.1462562,16.772034 14.1473682,16.0005785 C19.2258072,14.0398179 24.3042462,12.0806501 29.3832162,10.1198895 C30.3489956,9.7466388 31.0912494,10.2722692 30.9909018,11.3166277 C30.9266581,11.98455 30.7535717,12.6418534 30.6139346,13.3012806 C29.5111726,18.5082071 28.4073488,23.7156644 27.2987466,28.921529 C27.0354004,30.1575568 26.1673139,30.4803682 25.1500333,29.7301502 C23.4462475,28.4744777 21.7440546,27.2145576 20.0413307,25.9567612 C19.9600969,25.8978269 19.8756775,25.8410164 19.782763,25.7757108 Z M15.9584038,27.3568494 C15.9775176,27.35154 15.9966315,27.3462306 16.0157453,27.3414522 C16.0263641,27.2926057 16.0417614,27.2448211 16.0460089,27.1965056 C16.1553825,26.0162265 16.2711273,24.8364783 16.3661656,23.6540754 C16.3874032,23.3907293 16.4776629,23.2038385 16.6757035,23.0265046 C18.2462233,21.6221689 19.8071863,20.2088072 21.3713349,18.7986311 C23.1027295,17.2371372 24.8346551,15.6772361 26.5596784,14.109371 C26.6663973,14.0127399 26.7109962,13.8481486 26.7842659,13.7143518 C26.6217984,13.6968308 26.4476501,13.6315252 26.3000488,13.6697528 C26.0988227,13.7217849 25.9082153,13.8385917 25.7287576,13.9516819 C21.907584,16.3584319 18.0895961,18.7694294 14.2657678,21.171401 C14.0496753,21.3073216 14.0093239,21.4225355 14.0916195,21.6598656 C14.3735486,22.4695488 14.6299925,23.2866651 14.8959933,24.1021886 C15.2501301,25.1874295 15.604267,26.2721395 15.9584038,27.3568494 Z" id="Shape" fill="#201F44"></path>
                    <text id="kor" font-family="RobotoMono-Regular, Roboto Mono" font-size="13" font-weight="normal" letter-spacing="-1.72000003" fill="#201F44">
                        <tspan x="31" y="46">ko</tspan>
                        <tspan x="43.162539" y="46">r</tspan>
                    </text>
                    <path d="M47.5,13.5 L15.5,46.5" id="Line" stroke="#201F44" stroke-linecap="round"></path>
                </g>
            </g>
        </g>
    </g>
</svg>