<?xml version="1.0" encoding="UTF-8"?>
<svg width="32px" height="25px" viewBox="0 0 32 25" version="1.1" xmlns="http://www.w3.org/2000/svg" xmlns:xlink="http://www.w3.org/1999/xlink">
    <!-- Generator: Sketch 49.3 (51167) - http://www.bohemiancoding.com/sketch -->
    <title>if_Sed-14_2232592 Copy</title>
    <desc>Created with Sketch.</desc>
    <defs></defs>
    <g id="Page-1" stroke="none" stroke-width="1" fill="none" fill-rule="evenodd">
        <g id="Artboard" transform="translate(-409.000000, -723.000000)" fill="#FFFFFF" fill-rule="nonzero">
            <g id="Group-27" transform="translate(169.000000, 79.000000)">
                <g id="if_Sed-14_2232592-Copy" transform="translate(240.000000, 644.000000)">
                    <path d="M31.9278109,21.946 C31.9157382,19.5068068 31.9043782,17.0687386 31.8823564,14.6295455 C31.8724073,13.6141477 31.69344,12.6198295 31.3504,11.6765568 C30.7253964,9.95980682 29.5577891,8.83120455 27.7786618,8.228625 C25.8163055,7.56389773 23.7474036,7.43294318 21.6352,7.83911364 C20.2900364,8.09656818 19.1330764,8.60593182 18.1806545,9.35944318 C18.1813673,9.16302273 18.1834909,8.96770455 18.1898909,8.77128409 C18.1927273,8.68139773 18.2019636,8.40506818 17.9533818,8.20643182 C17.7026764,8.00779545 17.3468509,8.00223864 17.2360582,8.01001136 C15.4498327,8.01778409 13.6671709,8.01778409 11.8837818,8.011125 C11.6891782,7.99669318 11.3873309,8.02665909 11.1664582,8.19867045 C10.9462836,8.36956818 10.9214255,8.59484091 10.9214255,8.75020455 C10.9306618,13.8915795 10.9299491,19.0329659 10.9214255,24.1754545 C10.9214255,24.3319318 10.9469964,24.5594205 11.1671709,24.7303182 C11.38592,24.9023295 11.6579345,24.9200795 11.8773964,24.9189773 C13.7438691,24.9101023 15.6096436,24.9101023 17.4761164,24.9189773 C17.4825018,24.9189773 17.4881891,24.9189773 17.4945891,24.9189773 C17.6927418,24.9189773 17.9711564,24.8978977 18.1820945,24.7336477 C18.4001309,24.5638636 18.4242764,24.3341477 18.4235782,24.1765682 C18.4115055,21.7351591 18.4079564,19.29375 18.4228655,16.8523523 C18.4271273,16.2586477 18.4740073,15.6649432 18.5620655,15.0889886 C18.6622109,14.4320341 18.9320873,13.9259886 19.3866327,13.5409205 C19.9363491,13.0748295 20.6693091,12.8972727 21.7971491,12.8995 C23.0592291,12.9183636 23.78224,13.3433864 24.1394764,14.28 C24.3908945,14.9391818 24.4122036,15.6327614 24.4129164,16.3452045 L24.4136291,24.1410568 C24.4136291,24.7258864 24.6522618,24.9134318 25.3944582,24.9134318 L30.8617891,24.9145455 C31.2332364,24.9145455 31.5017018,24.9134318 31.7211636,24.7414318 C31.9406255,24.5683182 31.9399127,24.3519205 31.9384873,24.0778182 L31.9278109,21.946 Z" id="Shape"></path>
                    <path d="M8.04853818,16.4794659 L8.04782545,14.6528523 C8.0464,12.6908523 8.04570182,10.7299545 8.05634909,8.76795455 C8.05706182,8.59151136 8.03006545,8.36622727 7.81131636,8.19644318 C7.59185455,8.02443182 7.26798545,7.99447727 7.09256727,8.00889773 C5.23674182,8.02 3.38305455,8.01888636 1.53006545,8.01001136 C1.30279273,8.01555682 1.02296727,8.02665909 0.800669091,8.19977273 C0.576945455,8.37288636 0.552087273,8.60593182 0.552087273,8.76573864 C0.562036364,13.897125 0.562036364,19.0296364 0.552087273,24.1621364 C0.552087273,24.3230455 0.578370909,24.5572045 0.801381818,24.7303182 C1.02439273,24.9023295 1.33050182,24.9045455 1.52653091,24.9189773 C3.38164364,24.907875 5.23604364,24.907875 7.08974545,24.9189773 C7.09684364,24.9189773 7.10324364,24.9189773 7.11034182,24.9189773 C7.32909091,24.9189773 7.60181818,24.8956705 7.81275636,24.7314318 C8.03079273,24.5616477 8.05778909,24.3385909 8.05707636,24.1621364 C8.04571636,22.1934773 8.04642909,20.2225909 8.04784,18.2528182 L8.04853818,16.4794659 Z" id="Shape"></path>
                    <path d="M4.32766545,0.0809886364 C4.31771636,0.0809886364 4.30849455,0.0809886364 4.29925818,0.0809886364 C1.92709818,0.0909772727 0.0656,1.55138636 0.0613381818,3.404625 C0.0613381818,3.40573864 0.0613381818,3.40573864 0.0613381818,3.40573864 C0.0613381818,4.28907955 0.525832727,5.15467045 1.33618909,5.78055682 C2.13093818,6.39535227 3.17070545,6.73270455 4.268,6.73270455 C4.28221091,6.73270455 4.29712,6.73159091 4.31133091,6.73159091 C6.74811636,6.71272727 8.58193455,5.28117045 8.57696,3.40129545 C8.57483636,2.48910227 8.13662545,1.64680682 7.34258909,1.03090909 C6.55067636,0.417238636 5.48107636,0.0809886364 4.32766545,0.0809886364 Z" id="Shape"></path>
                </g>
            </g>
        </g>
    </g>
</svg>