<?xml version="1.0" encoding="UTF-8"?>
<svg width="510px" height="510px" viewBox="0 0 510 510" version="1.1" xmlns="http://www.w3.org/2000/svg" xmlns:xlink="http://www.w3.org/1999/xlink">
    <!-- Generator: Sketch 49.3 (51167) - http://www.bohemiancoding.com/sketch -->
    <title>DistribMon</title>
    <desc>Created with Sketch.</desc>
    <defs>
        <path d="M255.36,254.52 L105.756898,48.6089946 C149.24103,17.0159231 201.610656,0 255.36,0 L255.36,254.52 Z" id="path-1"></path>
        <path d="M255.36,254.52 L13.2970955,333.171005 C-20.7765856,228.302998 16.5508425,113.420987 105.756898,48.6089946 L255.36,254.52 Z" id="path-2"></path>
        <path d="M255.36,254.52 L404.963102,460.431005 C291.241594,543.054517 132.072507,517.844611 49.4489946,404.123102 C33.7503019,382.515706 21.5503866,358.572024 13.2970955,333.171005 L255.36,254.52 Z" id="path-3"></path>
        <path d="M255.36,254.52 L255.36,0 C395.927515,0 509.88,113.952485 509.88,254.52 C509.88,335.993128 470.876247,412.542302 404.963102,460.431005 L255.36,254.52 Z" id="path-4"></path>
    </defs>
    <g id="Page-1" stroke="none" stroke-width="1" fill="none" fill-rule="evenodd">
        <g id="mainPageQuartz-Copy-2" transform="translate(-191.000000, -5237.000000)">
            <g id="DistribMon" transform="translate(191.000000, 5237.000000)">
                <g id="Pie-chart">
                    <g id="pie_4">
                        <use fill="#498FE1" fill-rule="evenodd" xlink:href="#path-1"></use>
                        <path stroke="#333333" stroke-width="0.84" d="M254.94,253.227373 L254.94,0.420346555 C201.566572,0.508515955 149.575593,17.4014088 106.343758,48.7021926 L254.94,253.227373 Z"></path>
                    </g>
                    <g id="pie_3">
                        <use fill="#FA4A6F" fill-rule="evenodd" xlink:href="#path-2"></use>
                        <path stroke="#333333" stroke-width="0.84" d="M254.680426,254.299193 L105.664178,49.1959236 C16.9633426,113.863111 -20.1829919,228.187774 13.5670792,332.641668 L254.680426,254.299193 Z"></path>
                    </g>
                    <g id="pie_2">
                        <use fill="#B178EB" fill-rule="evenodd" xlink:href="#path-3"></use>
                        <path stroke="#333333" stroke-width="0.84" d="M255.199574,255.01374 L13.8266564,333.440555 C22.0642115,358.651282 34.1982871,382.417758 49.7887817,403.876233 C132.193646,517.296798 290.865347,542.528074 404.376246,460.337813 L255.199574,255.01374 Z"></path>
                    </g>
                    <g id="pie_1">
                        <use fill="#38206E" fill-rule="evenodd" xlink:href="#path-4"></use>
                        <path stroke="#333333" stroke-width="0.84" d="M255.78,254.383534 L405.055818,459.84407 C470.654553,412.01842 509.46,335.718669 509.46,254.52 C509.46,114.324472 395.922469,0.647054243 255.78,0.420339705 L255.78,254.383534 Z"></path>
                    </g>
                </g>
                <path d="M386.224453,219.900176 L389.138613,219.900176 L389.138613,222.067852 L386.224453,222.067852 L386.224453,226.92 L383.568691,226.92 L383.568691,222.067852 L374.03666,222.067852 L374.03666,220.503105 L383.396426,206.018437 L386.224453,206.018437 L386.224453,219.900176 Z M376.979531,219.900176 L383.568691,219.900176 L383.568691,209.549883 L383.138027,210.353789 L376.979531,219.900176 Z M406.221621,218.924004 C406.221621,220.254284 406.068498,221.433813 405.762246,222.462627 C405.455995,223.491441 405.015765,224.357545 404.441543,225.060967 C403.867321,225.764388 403.16391,226.297928 402.331289,226.661602 C401.498668,227.025275 400.546431,227.207109 399.474551,227.207109 C398.412241,227.207109 397.462397,227.025275 396.62499,226.661602 C395.787584,226.297928 395.076995,225.764388 394.493203,225.060967 C393.909411,224.357545 393.462004,223.491441 393.150967,222.462627 C392.83993,221.433813 392.684414,220.254284 392.684414,218.924004 L392.684414,214.028789 C392.684414,212.698509 392.837538,211.51898 393.143789,210.490166 C393.450041,209.461352 393.892663,208.592855 394.47167,207.884648 C395.050677,207.176442 395.758873,206.638117 396.596279,206.269658 C397.433686,205.901199 398.38353,205.716973 399.44584,205.716973 C400.51772,205.716973 401.472349,205.901199 402.309756,206.269658 C403.147162,206.638117 403.855358,207.176442 404.434365,207.884648 C405.013372,208.592855 405.455995,209.461352 405.762246,210.490166 C406.068498,211.51898 406.221621,212.698509 406.221621,214.028789 L406.221621,218.924004 Z M395.354531,218.392852 L403.494082,212.148223 C403.340956,210.76052 402.936615,209.705404 402.281045,208.982842 C401.625475,208.26028 400.680416,207.899004 399.44584,207.899004 C398.048567,207.899004 397.017376,208.370337 396.352236,209.313018 C395.687096,210.255698 395.354531,211.631417 395.354531,213.440215 L395.354531,218.392852 Z M403.551504,214.689141 L395.426309,220.905059 C395.589005,222.254479 396.005309,223.283278 396.675234,223.991484 C397.34516,224.699691 398.278256,225.053789 399.474551,225.053789 C400.881394,225.053789 401.912585,224.575278 402.568154,223.618242 C403.223724,222.661206 403.551504,221.283095 403.551504,219.483867 L403.551504,214.689141 Z M408.877383,209.77957 C408.877383,209.23406 408.961122,208.714876 409.128604,208.222002 C409.296085,207.729128 409.540125,207.296076 409.860732,206.922832 C410.181339,206.549588 410.580896,206.255304 411.059414,206.039971 C411.537932,205.824638 412.08822,205.716973 412.710293,205.716973 C413.341937,205.716973 413.899402,205.824638 414.382705,206.039971 C414.866008,206.255304 415.267957,206.549588 415.588564,206.922832 C415.909172,207.296076 416.153212,207.729128 416.320693,208.222002 C416.488175,208.714876 416.571914,209.23406 416.571914,209.77957 L416.571914,210.884941 C416.571914,211.430452 416.488175,211.947244 416.320693,212.435332 C416.153212,212.92342 415.909172,213.351688 415.588564,213.720146 C415.267957,214.088605 414.868401,214.380497 414.389883,214.59583 C413.911365,214.811163 413.361077,214.918828 412.739004,214.918828 C412.11693,214.918828 411.56425,214.811163 411.080947,214.59583 C410.597644,214.380497 410.193302,214.088605 409.86791,213.720146 C409.542518,213.351688 409.296085,212.92342 409.128604,212.435332 C408.961122,211.947244 408.877383,211.430452 408.877383,210.884941 L408.877383,209.77957 Z M410.858437,210.884941 C410.858437,211.181623 410.891933,211.466337 410.958926,211.739092 C411.025918,212.011847 411.135976,212.255888 411.289102,212.471221 C411.442227,212.686554 411.636024,212.858818 411.870498,212.988018 C412.104972,213.117217 412.394471,213.181816 412.739004,213.181816 C413.073967,213.181816 413.35868,213.117217 413.593154,212.988018 C413.827628,212.858818 414.01664,212.686554 414.160195,212.471221 C414.303751,212.255888 414.411416,212.011847 414.483193,211.739092 C414.554971,211.466337 414.590859,211.181623 414.590859,210.884941 L414.590859,209.77957 C414.590859,209.482889 414.554971,209.19339 414.483193,208.911064 C414.411416,208.628739 414.301358,208.379913 414.153018,208.16458 C414.004677,207.949247 413.813273,207.776983 413.578799,207.647783 C413.344325,207.518583 413.054826,207.453984 412.710293,207.453984 C412.37533,207.453984 412.090616,207.518583 411.856143,207.647783 C411.621669,207.776983 411.430264,207.949247 411.281924,208.16458 C411.133583,208.379913 411.025918,208.628739 410.958926,208.911064 C410.891933,209.19339 410.858437,209.482889 410.858437,209.77957 L410.858437,210.884941 Z M417.50502,222.067852 C417.50502,221.522341 417.588759,221.005549 417.75624,220.517461 C417.923722,220.029373 418.170155,219.598713 418.495547,219.225469 C418.820939,218.852225 419.222888,218.557941 419.701406,218.342607 C420.179924,218.127274 420.730212,218.019609 421.352285,218.019609 C421.983929,218.019609 422.539002,218.127274 423.01752,218.342607 C423.496038,218.557941 423.897987,218.852225 424.223379,219.225469 C424.548771,219.598713 424.795204,220.029373 424.962686,220.517461 C425.130167,221.005549 425.213906,221.522341 425.213906,222.067852 L425.213906,223.187578 C425.213906,223.733089 425.130167,224.24988 424.962686,224.737969 C424.795204,225.226057 424.548771,225.654324 424.223379,226.022783 C423.897987,226.391242 423.49843,226.683134 423.024697,226.898467 C422.550964,227.1138 422.00307,227.221465 421.380996,227.221465 C420.749352,227.221465 420.191887,227.1138 419.708584,226.898467 C419.225281,226.683134 418.820939,226.391242 418.495547,226.022783 C418.170155,225.654324 417.923722,225.226057 417.75624,224.737969 C417.588759,224.24988 417.50502,223.733089 417.50502,223.187578 L417.50502,222.067852 Z M419.486074,223.187578 C419.486074,223.484259 419.521963,223.771366 419.59374,224.048906 C419.665518,224.326447 419.775575,224.57288 419.923916,224.788213 C420.072257,225.003546 420.266053,225.17581 420.505312,225.30501 C420.744572,225.43421 421.036463,225.498809 421.380996,225.498809 C421.715959,225.498809 422.000673,225.43421 422.235146,225.30501 C422.46962,225.17581 422.658632,225.003546 422.802187,224.788213 C422.945743,224.57288 423.051015,224.326447 423.118008,224.048906 C423.185,223.771366 423.218496,223.484259 423.218496,223.187578 L423.218496,222.067852 C423.218496,221.77117 423.185,221.484064 423.118008,221.206523 C423.051015,220.928983 422.94335,220.68255 422.79501,220.467217 C422.646669,220.251884 422.452872,220.07962 422.213613,219.95042 C421.974354,219.82122 421.687248,219.756621 421.352285,219.756621 C421.007752,219.756621 420.718253,219.82122 420.483779,219.95042 C420.249305,220.07962 420.057901,220.251884 419.909561,220.467217 C419.76122,220.68255 419.653555,220.928983 419.586562,221.206523 C419.51957,221.484064 419.486074,221.77117 419.486074,222.067852 L419.486074,223.187578 Z M413.959219,224.221172 L412.365762,223.331133 L420.505312,208.444512 L422.09877,209.334551 L413.959219,224.221172 Z" id="40%" fill="#FFFFFF"></path>
                <path d="M196.278633,384.871582 L198.173555,384.871582 C198.84348,384.871582 199.434441,384.780665 199.946455,384.598828 C200.458469,384.416991 200.889129,384.168166 201.238447,383.852344 C201.587765,383.536522 201.853339,383.158498 202.035176,382.718262 C202.217013,382.278025 202.30793,381.794729 202.30793,381.268359 C202.30793,380.052924 201.996898,379.136575 201.374824,378.519287 C200.752751,377.901999 199.84358,377.593359 198.647285,377.593359 C198.082634,377.593359 197.568235,377.677099 197.104072,377.84458 C196.63991,378.012061 196.242746,378.253709 195.912568,378.569531 C195.582391,378.885353 195.326388,379.263377 195.144551,379.703613 C194.962714,380.14385 194.871797,380.636716 194.871797,381.182227 L192.20168,381.182227 C192.20168,380.387887 192.357196,379.639017 192.668232,378.935596 C192.979269,378.232174 193.417107,377.61968 193.981758,377.098096 C194.546409,376.576511 195.223502,376.164992 196.013057,375.863525 C196.802611,375.562059 197.680679,375.411328 198.647285,375.411328 C199.58518,375.411328 200.441715,375.538133 201.216914,375.791748 C201.992113,376.045363 202.657243,376.420994 203.212324,376.918652 C203.767405,377.416311 204.198065,378.03359 204.504316,378.770508 C204.810568,379.507426 204.963691,380.359175 204.963691,381.325781 C204.963691,381.727736 204.901485,382.144041 204.77707,382.574707 C204.652656,383.005373 204.461251,383.42407 204.202852,383.830811 C203.944452,384.237551 203.611887,384.62036 203.205146,384.979248 C202.798406,385.338137 202.312718,385.637206 201.748066,385.876465 C202.427562,386.096583 202.994597,386.38369 203.449189,386.737793 C203.903782,387.091896 204.26745,387.48906 204.540205,387.929297 C204.81296,388.369533 205.004365,388.833689 205.114424,389.321777 C205.224483,389.809866 205.279512,390.293162 205.279512,390.77168 C205.279512,391.747856 205.112033,392.613961 204.77707,393.37002 C204.442108,394.126078 203.977952,394.76489 203.38459,395.286475 C202.791228,395.808059 202.090209,396.205223 201.281514,396.477979 C200.472818,396.750734 199.599536,396.887109 198.661641,396.887109 C197.742886,396.887109 196.879174,396.757911 196.070479,396.499512 C195.261783,396.241112 194.560765,395.863088 193.967402,395.36543 C193.37404,394.867771 192.902707,394.260062 192.553389,393.542285 C192.204071,392.824508 192.029414,392.006255 192.029414,391.0875 L194.685176,391.0875 C194.685176,391.633011 194.778485,392.130662 194.965107,392.580469 C195.151729,393.030276 195.417303,393.413084 195.761836,393.728906 C196.106369,394.044728 196.525066,394.288769 197.017939,394.461035 C197.510813,394.633302 198.058708,394.719434 198.661641,394.719434 C199.264573,394.719434 199.810076,394.640479 200.298164,394.482568 C200.786252,394.324657 201.202557,394.083009 201.54709,393.757617 C201.891623,393.432225 202.157196,393.027883 202.343818,392.54458 C202.53044,392.061277 202.62375,391.489456 202.62375,390.829102 C202.62375,390.178317 202.516085,389.616067 202.300752,389.142334 C202.085419,388.668601 201.783957,388.27383 201.396357,387.958008 C201.008758,387.642186 200.539817,387.407716 199.989521,387.25459 C199.439226,387.101464 198.83391,387.024902 198.173555,387.024902 L196.278633,387.024902 L196.278633,384.871582 Z M223.941621,388.604004 C223.941621,389.934284 223.788498,391.113813 223.482246,392.142627 C223.175995,393.171441 222.735765,394.037545 222.161543,394.740967 C221.587321,395.444388 220.88391,395.977928 220.051289,396.341602 C219.218668,396.705275 218.266431,396.887109 217.194551,396.887109 C216.132241,396.887109 215.182397,396.705275 214.34499,396.341602 C213.507584,395.977928 212.796995,395.444388 212.213203,394.740967 C211.629411,394.037545 211.182004,393.171441 210.870967,392.142627 C210.55993,391.113813 210.404414,389.934284 210.404414,388.604004 L210.404414,383.708789 C210.404414,382.378509 210.557538,381.19898 210.863789,380.170166 C211.170041,379.141352 211.612663,378.272855 212.19167,377.564648 C212.770677,376.856442 213.478873,376.318117 214.316279,375.949658 C215.153686,375.581199 216.10353,375.396973 217.16584,375.396973 C218.23772,375.396973 219.192349,375.581199 220.029756,375.949658 C220.867162,376.318117 221.575358,376.856442 222.154365,377.564648 C222.733372,378.272855 223.175995,379.141352 223.482246,380.170166 C223.788498,381.19898 223.941621,382.378509 223.941621,383.708789 L223.941621,388.604004 Z M213.074531,388.072852 L221.214082,381.828223 C221.060956,380.44052 220.656615,379.385404 220.001045,378.662842 C219.345475,377.94028 218.400416,377.579004 217.16584,377.579004 C215.768567,377.579004 214.737376,378.050337 214.072236,378.993018 C213.407096,379.935698 213.074531,381.311417 213.074531,383.120215 L213.074531,388.072852 Z M221.271504,384.369141 L213.146309,390.585059 C213.309005,391.934479 213.725309,392.963278 214.395234,393.671484 C215.06516,394.379691 215.998256,394.733789 217.194551,394.733789 C218.601394,394.733789 219.632585,394.255278 220.288154,393.298242 C220.943724,392.341206 221.271504,390.963095 221.271504,389.163867 L221.271504,384.369141 Z M226.597383,379.45957 C226.597383,378.91406 226.681122,378.394876 226.848604,377.902002 C227.016085,377.409128 227.260125,376.976076 227.580732,376.602832 C227.901339,376.229588 228.300896,375.935304 228.779414,375.719971 C229.257932,375.504638 229.80822,375.396973 230.430293,375.396973 C231.061937,375.396973 231.619402,375.504638 232.102705,375.719971 C232.586008,375.935304 232.987957,376.229588 233.308564,376.602832 C233.629172,376.976076 233.873212,377.409128 234.040693,377.902002 C234.208175,378.394876 234.291914,378.91406 234.291914,379.45957 L234.291914,380.564941 C234.291914,381.110452 234.208175,381.627244 234.040693,382.115332 C233.873212,382.60342 233.629172,383.031688 233.308564,383.400146 C232.987957,383.768605 232.588401,384.060497 232.109883,384.27583 C231.631365,384.491163 231.081077,384.598828 230.459004,384.598828 C229.83693,384.598828 229.28425,384.491163 228.800947,384.27583 C228.317644,384.060497 227.913302,383.768605 227.58791,383.400146 C227.262518,383.031688 227.016085,382.60342 226.848604,382.115332 C226.681122,381.627244 226.597383,381.110452 226.597383,380.564941 L226.597383,379.45957 Z M228.578438,380.564941 C228.578438,380.861623 228.611933,381.146337 228.678926,381.419092 C228.745918,381.691847 228.855976,381.935888 229.009102,382.151221 C229.162227,382.366554 229.356024,382.538818 229.590498,382.668018 C229.824972,382.797217 230.114471,382.861816 230.459004,382.861816 C230.793967,382.861816 231.07868,382.797217 231.313154,382.668018 C231.547628,382.538818 231.73664,382.366554 231.880195,382.151221 C232.023751,381.935888 232.131416,381.691847 232.203193,381.419092 C232.274971,381.146337 232.310859,380.861623 232.310859,380.564941 L232.310859,379.45957 C232.310859,379.162889 232.274971,378.87339 232.203193,378.591064 C232.131416,378.308739 232.021358,378.059913 231.873018,377.84458 C231.724677,377.629247 231.533273,377.456983 231.298799,377.327783 C231.064325,377.198583 230.774826,377.133984 230.430293,377.133984 C230.09533,377.133984 229.810616,377.198583 229.576143,377.327783 C229.341669,377.456983 229.150264,377.629247 229.001924,377.84458 C228.853583,378.059913 228.745918,378.308739 228.678926,378.591064 C228.611933,378.87339 228.578438,379.162889 228.578438,379.45957 L228.578438,380.564941 Z M235.22502,391.747852 C235.22502,391.202341 235.308759,390.685549 235.47624,390.197461 C235.643722,389.709373 235.890155,389.278713 236.215547,388.905469 C236.540939,388.532225 236.942888,388.237941 237.421406,388.022607 C237.899924,387.807274 238.450212,387.699609 239.072285,387.699609 C239.703929,387.699609 240.259002,387.807274 240.73752,388.022607 C241.216038,388.237941 241.617987,388.532225 241.943379,388.905469 C242.268771,389.278713 242.515204,389.709373 242.682686,390.197461 C242.850167,390.685549 242.933906,391.202341 242.933906,391.747852 L242.933906,392.867578 C242.933906,393.413089 242.850167,393.92988 242.682686,394.417969 C242.515204,394.906057 242.268771,395.334324 241.943379,395.702783 C241.617987,396.071242 241.21843,396.363134 240.744697,396.578467 C240.270964,396.7938 239.72307,396.901465 239.100996,396.901465 C238.469352,396.901465 237.911887,396.7938 237.428584,396.578467 C236.945281,396.363134 236.540939,396.071242 236.215547,395.702783 C235.890155,395.334324 235.643722,394.906057 235.47624,394.417969 C235.308759,393.92988 235.22502,393.413089 235.22502,392.867578 L235.22502,391.747852 Z M237.206074,392.867578 C237.206074,393.164259 237.241963,393.451366 237.31374,393.728906 C237.385518,394.006447 237.495575,394.25288 237.643916,394.468213 C237.792257,394.683546 237.986053,394.85581 238.225313,394.98501 C238.464572,395.11421 238.756463,395.178809 239.100996,395.178809 C239.435959,395.178809 239.720673,395.11421 239.955146,394.98501 C240.18962,394.85581 240.378632,394.683546 240.522188,394.468213 C240.665743,394.25288 240.771015,394.006447 240.838008,393.728906 C240.905,393.451366 240.938496,393.164259 240.938496,392.867578 L240.938496,391.747852 C240.938496,391.45117 240.905,391.164064 240.838008,390.886523 C240.771015,390.608983 240.66335,390.36255 240.51501,390.147217 C240.366669,389.931884 240.172872,389.75962 239.933613,389.63042 C239.694354,389.50122 239.407248,389.436621 239.072285,389.436621 C238.727752,389.436621 238.438253,389.50122 238.203779,389.63042 C237.969305,389.75962 237.777901,389.931884 237.629561,390.147217 C237.48122,390.36255 237.373555,390.608983 237.306563,390.886523 C237.23957,391.164064 237.206074,391.45117 237.206074,391.747852 L237.206074,392.867578 Z M231.679219,393.901172 L230.085762,393.011133 L238.225313,378.124512 L239.81877,379.014551 L231.679219,393.901172 Z" id="30%" fill="#FFFFFF"></path>
                <path d="M99.3172852,210.96 L85.622168,210.96 L85.622168,209.050723 L92.4697266,201.442324 C93.0822296,200.762829 93.5942362,200.159905 94.0057617,199.633535 C94.4172872,199.107165 94.7474597,198.621477 94.9962891,198.176455 C95.2451184,197.731433 95.4221674,197.310344 95.5274414,196.913174 C95.6327154,196.516004 95.6853516,196.106877 95.6853516,195.685781 C95.6853516,195.168982 95.6016122,194.683293 95.4341309,194.228701 C95.2666496,193.774109 95.022609,193.379338 94.702002,193.044375 C94.3813949,192.709412 93.9938011,192.443839 93.539209,192.247646 C93.0846169,192.051454 92.5702177,191.953359 91.9959961,191.953359 C91.2973598,191.953359 90.6920436,192.053847 90.1800293,192.254824 C89.668015,192.455802 89.2421404,192.740516 88.9023926,193.108975 C88.5626448,193.477433 88.309034,193.924841 88.1415527,194.451211 C87.9740714,194.977581 87.890332,195.566149 87.890332,196.216934 L85.2202148,196.216934 C85.2202148,195.33646 85.3733383,194.506244 85.6795898,193.72626 C85.9858414,192.946275 86.4284639,192.264397 87.0074707,191.680605 C87.5864775,191.096813 88.2946735,190.632658 89.1320801,190.288125 C89.9694866,189.943592 90.9241157,189.771328 91.9959961,189.771328 C92.9817432,189.771328 93.8693808,189.917274 94.6589355,190.20917 C95.4484903,190.501066 96.1160129,190.905408 96.6615234,191.422207 C97.207034,191.939006 97.625731,192.5515 97.917627,193.259707 C98.2095229,193.967914 98.3554688,194.738316 98.3554688,195.570938 C98.3554688,196.193011 98.2501964,196.807897 98.0396484,197.415615 C97.8291005,198.023333 97.5443866,198.623864 97.185498,199.217227 C96.8266095,199.810589 96.4103051,200.396765 95.9365723,200.975771 C95.4628394,201.554778 94.9627956,202.131384 94.4364258,202.705605 L88.8234375,208.792324 L99.3172852,208.792324 L99.3172852,210.96 Z M117.261621,202.964004 C117.261621,204.294284 117.108498,205.473813 116.802246,206.502627 C116.495995,207.531441 116.055765,208.397545 115.481543,209.100967 C114.907321,209.804388 114.20391,210.337928 113.371289,210.701602 C112.538668,211.065275 111.586431,211.247109 110.514551,211.247109 C109.452241,211.247109 108.502397,211.065275 107.66499,210.701602 C106.827584,210.337928 106.116995,209.804388 105.533203,209.100967 C104.949411,208.397545 104.502004,207.531441 104.190967,206.502627 C103.87993,205.473813 103.724414,204.294284 103.724414,202.964004 L103.724414,198.068789 C103.724414,196.738509 103.877538,195.55898 104.183789,194.530166 C104.490041,193.501352 104.932663,192.632855 105.51167,191.924648 C106.090677,191.216442 106.798873,190.678117 107.636279,190.309658 C108.473686,189.941199 109.42353,189.756973 110.48584,189.756973 C111.55772,189.756973 112.512349,189.941199 113.349756,190.309658 C114.187162,190.678117 114.895358,191.216442 115.474365,191.924648 C116.053372,192.632855 116.495995,193.501352 116.802246,194.530166 C117.108498,195.55898 117.261621,196.738509 117.261621,198.068789 L117.261621,202.964004 Z M106.394531,202.432852 L114.534082,196.188223 C114.380956,194.80052 113.976615,193.745404 113.321045,193.022842 C112.665475,192.30028 111.720416,191.939004 110.48584,191.939004 C109.088567,191.939004 108.057376,192.410337 107.392236,193.353018 C106.727096,194.295698 106.394531,195.671417 106.394531,197.480215 L106.394531,202.432852 Z M114.591504,198.729141 L106.466309,204.945059 C106.629005,206.294479 107.045309,207.323278 107.715234,208.031484 C108.38516,208.739691 109.318256,209.093789 110.514551,209.093789 C111.921394,209.093789 112.952585,208.615278 113.608154,207.658242 C114.263724,206.701206 114.591504,205.323095 114.591504,203.523867 L114.591504,198.729141 Z M119.917383,193.81957 C119.917383,193.27406 120.001122,192.754876 120.168604,192.262002 C120.336085,191.769128 120.580125,191.336076 120.900732,190.962832 C121.221339,190.589588 121.620896,190.295304 122.099414,190.079971 C122.577932,189.864638 123.12822,189.756973 123.750293,189.756973 C124.381937,189.756973 124.939402,189.864638 125.422705,190.079971 C125.906008,190.295304 126.307957,190.589588 126.628564,190.962832 C126.949172,191.336076 127.193212,191.769128 127.360693,192.262002 C127.528175,192.754876 127.611914,193.27406 127.611914,193.81957 L127.611914,194.924941 C127.611914,195.470452 127.528175,195.987244 127.360693,196.475332 C127.193212,196.96342 126.949172,197.391688 126.628564,197.760146 C126.307957,198.128605 125.908401,198.420497 125.429883,198.63583 C124.951365,198.851163 124.401077,198.958828 123.779004,198.958828 C123.15693,198.958828 122.60425,198.851163 122.120947,198.63583 C121.637644,198.420497 121.233302,198.128605 120.90791,197.760146 C120.582518,197.391688 120.336085,196.96342 120.168604,196.475332 C120.001122,195.987244 119.917383,195.470452 119.917383,194.924941 L119.917383,193.81957 Z M121.898438,194.924941 C121.898438,195.221623 121.931933,195.506337 121.998926,195.779092 C122.065918,196.051847 122.175976,196.295888 122.329102,196.511221 C122.482227,196.726554 122.676024,196.898818 122.910498,197.028018 C123.144972,197.157217 123.434471,197.221816 123.779004,197.221816 C124.113967,197.221816 124.39868,197.157217 124.633154,197.028018 C124.867628,196.898818 125.05664,196.726554 125.200195,196.511221 C125.343751,196.295888 125.451416,196.051847 125.523193,195.779092 C125.594971,195.506337 125.630859,195.221623 125.630859,194.924941 L125.630859,193.81957 C125.630859,193.522889 125.594971,193.23339 125.523193,192.951064 C125.451416,192.668739 125.341358,192.419913 125.193018,192.20458 C125.044677,191.989247 124.853273,191.816983 124.618799,191.687783 C124.384325,191.558583 124.094826,191.493984 123.750293,191.493984 C123.41533,191.493984 123.130616,191.558583 122.896143,191.687783 C122.661669,191.816983 122.470264,191.989247 122.321924,192.20458 C122.173583,192.419913 122.065918,192.668739 121.998926,192.951064 C121.931933,193.23339 121.898438,193.522889 121.898438,193.81957 L121.898438,194.924941 Z M128.54502,206.107852 C128.54502,205.562341 128.628759,205.045549 128.79624,204.557461 C128.963722,204.069373 129.210155,203.638713 129.535547,203.265469 C129.860939,202.892225 130.262888,202.597941 130.741406,202.382607 C131.219924,202.167274 131.770212,202.059609 132.392285,202.059609 C133.023929,202.059609 133.579002,202.167274 134.05752,202.382607 C134.536038,202.597941 134.937987,202.892225 135.263379,203.265469 C135.588771,203.638713 135.835204,204.069373 136.002686,204.557461 C136.170167,205.045549 136.253906,205.562341 136.253906,206.107852 L136.253906,207.227578 C136.253906,207.773089 136.170167,208.28988 136.002686,208.777969 C135.835204,209.266057 135.588771,209.694324 135.263379,210.062783 C134.937987,210.431242 134.53843,210.723134 134.064697,210.938467 C133.590964,211.1538 133.04307,211.261465 132.420996,211.261465 C131.789352,211.261465 131.231887,211.1538 130.748584,210.938467 C130.265281,210.723134 129.860939,210.431242 129.535547,210.062783 C129.210155,209.694324 128.963722,209.266057 128.79624,208.777969 C128.628759,208.28988 128.54502,207.773089 128.54502,207.227578 L128.54502,206.107852 Z M130.526074,207.227578 C130.526074,207.524259 130.561963,207.811366 130.63374,208.088906 C130.705518,208.366447 130.815575,208.61288 130.963916,208.828213 C131.112257,209.043546 131.306053,209.21581 131.545312,209.34501 C131.784572,209.47421 132.076463,209.538809 132.420996,209.538809 C132.755959,209.538809 133.040673,209.47421 133.275146,209.34501 C133.50962,209.21581 133.698632,209.043546 133.842187,208.828213 C133.985743,208.61288 134.091015,208.366447 134.158008,208.088906 C134.225,207.811366 134.258496,207.524259 134.258496,207.227578 L134.258496,206.107852 C134.258496,205.81117 134.225,205.524064 134.158008,205.246523 C134.091015,204.968983 133.98335,204.72255 133.83501,204.507217 C133.686669,204.291884 133.492872,204.11962 133.253613,203.99042 C133.014354,203.86122 132.727248,203.796621 132.392285,203.796621 C132.047752,203.796621 131.758253,203.86122 131.523779,203.99042 C131.289305,204.11962 131.097901,204.291884 130.949561,204.507217 C130.80122,204.72255 130.693555,204.968983 130.626563,205.246523 C130.55957,205.524064 130.526074,205.81117 130.526074,206.107852 L130.526074,207.227578 Z M124.999219,208.261172 L123.405762,207.371133 L131.545312,192.484512 L133.13877,193.374551 L124.999219,208.261172 Z" id="20%" fill="#FFFFFF"></path>
                <path d="M194.231133,107.64 L191.575371,107.64 L191.575371,90.1263281 L186.105938,92.2078711 L186.105938,89.7817969 L194.015801,86.7384375 L194.231133,86.7384375 L194.231133,107.64 Z M216.381621,99.6440039 C216.381621,100.974284 216.228498,102.153813 215.922246,103.182627 C215.615995,104.211441 215.175765,105.077545 214.601543,105.780967 C214.027321,106.484388 213.32391,107.017928 212.491289,107.381602 C211.658668,107.745275 210.706431,107.927109 209.634551,107.927109 C208.572241,107.927109 207.622397,107.745275 206.78499,107.381602 C205.947584,107.017928 205.236995,106.484388 204.653203,105.780967 C204.069411,105.077545 203.622004,104.211441 203.310967,103.182627 C202.99993,102.153813 202.844414,100.974284 202.844414,99.6440039 L202.844414,94.7487891 C202.844414,93.418509 202.997538,92.2389798 203.303789,91.210166 C203.610041,90.1813523 204.052663,89.3128551 204.63167,88.6046484 C205.210677,87.8964418 205.918873,87.3581171 206.756279,86.9896582 C207.593686,86.6211993 208.54353,86.4369727 209.60584,86.4369727 C210.67772,86.4369727 211.632349,86.6211993 212.469756,86.9896582 C213.307162,87.3581171 214.015358,87.8964418 214.594365,88.6046484 C215.173372,89.3128551 215.615995,90.1813523 215.922246,91.210166 C216.228498,92.2389798 216.381621,93.418509 216.381621,94.7487891 L216.381621,99.6440039 Z M205.514531,99.1128516 L213.654082,92.8682227 C213.500956,91.4805204 213.096615,90.425404 212.441045,89.7028418 C211.785475,88.9802796 210.840416,88.6190039 209.60584,88.6190039 C208.208567,88.6190039 207.177376,89.0903371 206.512236,90.0330176 C205.847096,90.9756981 205.514531,92.3514167 205.514531,94.1602148 L205.514531,99.1128516 Z M213.711504,95.4091406 L205.586309,101.625059 C205.749005,102.974479 206.165309,104.003278 206.835234,104.711484 C207.50516,105.419691 208.438256,105.773789 209.634551,105.773789 C211.041394,105.773789 212.072585,105.295278 212.728154,104.338242 C213.383724,103.381206 213.711504,102.003095 213.711504,100.203867 L213.711504,95.4091406 Z M219.037383,90.4995703 C219.037383,89.9540598 219.121122,89.4348755 219.288604,88.942002 C219.456085,88.4491284 219.700125,88.0160761 220.020732,87.642832 C220.341339,87.269588 220.740896,86.9753038 221.219414,86.7599707 C221.697932,86.5446376 222.24822,86.4369727 222.870293,86.4369727 C223.501937,86.4369727 224.059402,86.5446376 224.542705,86.7599707 C225.026008,86.9753038 225.427957,87.269588 225.748564,87.642832 C226.069172,88.0160761 226.313212,88.4491284 226.480693,88.942002 C226.648175,89.4348755 226.731914,89.9540598 226.731914,90.4995703 L226.731914,91.6049414 C226.731914,92.1504519 226.648175,92.6672437 226.480693,93.155332 C226.313212,93.6434204 226.069172,94.0716876 225.748564,94.4401465 C225.427957,94.8086054 225.028401,95.100497 224.549883,95.3158301 C224.071365,95.5311632 223.521077,95.6388281 222.899004,95.6388281 C222.27693,95.6388281 221.72425,95.5311632 221.240947,95.3158301 C220.757644,95.100497 220.353302,94.8086054 220.02791,94.4401465 C219.702518,94.0716876 219.456085,93.6434204 219.288604,93.155332 C219.121122,92.6672437 219.037383,92.1504519 219.037383,91.6049414 L219.037383,90.4995703 Z M221.018438,91.6049414 C221.018438,91.9016226 221.051933,92.1863365 221.118926,92.4590918 C221.185918,92.7318471 221.295976,92.9758876 221.449102,93.1912207 C221.602227,93.4065538 221.796024,93.5788177 222.030498,93.7080176 C222.264972,93.8372174 222.554471,93.9018164 222.899004,93.9018164 C223.233967,93.9018164 223.51868,93.8372174 223.753154,93.7080176 C223.987628,93.5788177 224.17664,93.4065538 224.320195,93.1912207 C224.463751,92.9758876 224.571416,92.7318471 224.643193,92.4590918 C224.714971,92.1863365 224.750859,91.9016226 224.750859,91.6049414 L224.750859,90.4995703 C224.750859,90.2028891 224.714971,89.9133901 224.643193,89.6310645 C224.571416,89.3487388 224.461358,89.0999132 224.313018,88.8845801 C224.164677,88.669247 223.973273,88.4969831 223.738799,88.3677832 C223.504325,88.2385833 223.214826,88.1739844 222.870293,88.1739844 C222.53533,88.1739844 222.250616,88.2385833 222.016143,88.3677832 C221.781669,88.4969831 221.590264,88.669247 221.441924,88.8845801 C221.293583,89.0999132 221.185918,89.3487388 221.118926,89.6310645 C221.051933,89.9133901 221.018438,90.2028891 221.018438,90.4995703 L221.018438,91.6049414 Z M227.66502,102.787852 C227.66502,102.242341 227.748759,101.725549 227.91624,101.237461 C228.083722,100.749373 228.330155,100.318713 228.655547,99.9454687 C228.980939,99.5722247 229.382888,99.2779405 229.861406,99.0626074 C230.339924,98.8472743 230.890212,98.7396094 231.512285,98.7396094 C232.143929,98.7396094 232.699002,98.8472743 233.17752,99.0626074 C233.656038,99.2779405 234.057987,99.5722247 234.383379,99.9454687 C234.708771,100.318713 234.955204,100.749373 235.122686,101.237461 C235.290167,101.725549 235.373906,102.242341 235.373906,102.787852 L235.373906,103.907578 C235.373906,104.453089 235.290167,104.96988 235.122686,105.457969 C234.955204,105.946057 234.708771,106.374324 234.383379,106.742783 C234.057987,107.111242 233.65843,107.403134 233.184697,107.618467 C232.710964,107.8338 232.16307,107.941465 231.540996,107.941465 C230.909352,107.941465 230.351887,107.8338 229.868584,107.618467 C229.385281,107.403134 228.980939,107.111242 228.655547,106.742783 C228.330155,106.374324 228.083722,105.946057 227.91624,105.457969 C227.748759,104.96988 227.66502,104.453089 227.66502,103.907578 L227.66502,102.787852 Z M229.646074,103.907578 C229.646074,104.204259 229.681963,104.491366 229.75374,104.768906 C229.825518,105.046447 229.935575,105.29288 230.083916,105.508213 C230.232257,105.723546 230.426053,105.89581 230.665312,106.02501 C230.904572,106.15421 231.196463,106.218809 231.540996,106.218809 C231.875959,106.218809 232.160673,106.15421 232.395146,106.02501 C232.62962,105.89581 232.818632,105.723546 232.962187,105.508213 C233.105743,105.29288 233.211015,105.046447 233.278008,104.768906 C233.345,104.491366 233.378496,104.204259 233.378496,103.907578 L233.378496,102.787852 C233.378496,102.49117 233.345,102.204064 233.278008,101.926523 C233.211015,101.648983 233.10335,101.40255 232.95501,101.187217 C232.806669,100.971884 232.612872,100.79962 232.373613,100.67042 C232.134354,100.54122 231.847248,100.476621 231.512285,100.476621 C231.167752,100.476621 230.878253,100.54122 230.643779,100.67042 C230.409305,100.79962 230.217901,100.971884 230.069561,101.187217 C229.92122,101.40255 229.813555,101.648983 229.746563,101.926523 C229.67957,102.204064 229.646074,102.49117 229.646074,102.787852 L229.646074,103.907578 Z M224.119219,104.941172 L222.525762,104.051133 L230.665312,89.1645117 L232.25877,90.0545508 L224.119219,104.941172 Z" id="10%" fill="#FFFFFF"></path>
            </g>
        </g>
    </g>
</svg>