<?xml version="1.0" encoding="UTF-8"?>
<svg width="510px" height="509px" viewBox="0 0 510 509" version="1.1" xmlns="http://www.w3.org/2000/svg" xmlns:xlink="http://www.w3.org/1999/xlink">
    <!-- Generator: Sketch 49.3 (51167) - http://www.bohemiancoding.com/sketch -->
    <title>DistributTok</title>
    <desc>Created with Sketch.</desc>
    <defs>
        <path d="M255.179577,254.341549 L105.681366,48.5749135 C149.13501,17.0039927 201.467919,0 255.179577,0 L255.179577,254.341549 Z" id="path-1"></path>
        <path d="M255.179577,254.341549 L81.070806,439.748559 C-21.3266582,343.59094 -26.3850519,182.630242 69.7725674,80.2327778 C80.720249,68.574681 92.7430881,57.9751225 105.681366,48.5749135 L255.179577,254.341549 Z" id="path-2"></path>
        <path d="M255.179577,254.341549 L491.660369,347.970918 C439.950297,478.575653 292.154943,542.532414 161.550208,490.822341 C131.744853,479.021566 104.438969,461.692725 81.070806,439.748559 L255.179577,254.341549 Z" id="path-3"></path>
        <path d="M255.179577,254.341549 L255.179577,0 C395.648536,0 509.521127,113.87259 509.521127,254.341549 C509.521127,286.398023 503.461144,318.165563 491.660369,347.970918 L255.179577,254.341549 Z" id="path-4"></path>
    </defs>
    <g id="Page-1" stroke="none" stroke-width="1" fill="none" fill-rule="evenodd">
        <g id="mainPageQuartz-Copy-2" transform="translate(-191.000000, -5924.000000)">
            <g id="DistributTok" transform="translate(191.000000, 5924.000000)">
                <g id="Pie-chart">
                    <g id="pie_4">
                        <use fill="#498FE1" fill-rule="evenodd" xlink:href="#path-1"></use>
                        <path stroke="#333333" stroke-width="0.838028169" d="M254.760563,253.051957 L254.760563,0.419359255 C201.423938,0.507322463 149.468789,17.3885737 106.266849,48.6678923 L254.760563,253.051957 Z"></path>
                    </g>
                    <g id="pie_3">
                        <use fill="#B178EB" fill-rule="evenodd" xlink:href="#path-2"></use>
                        <path stroke="#333333" stroke-width="0.838028169" d="M254.636839,254.307403 L105.58887,49.160473 C92.8007685,58.4838528 80.9120479,68.98254 70.0780155,80.5196127 C-25.8255596,182.646547 -20.88109,343.123811 81.0524243,439.15603 L254.636839,254.307403 Z"></path>
                    </g>
                    <g id="pie_2">
                        <use fill="#38206E" fill-rule="evenodd" xlink:href="#path-3"></use>
                        <path stroke="#333333" stroke-width="0.838028169" d="M255.290093,254.835967 L81.6633256,439.729694 C104.925309,461.502031 132.078074,478.702836 161.704458,490.432752 C291.964141,542.006209 439.351946,478.333336 491.116216,348.206134 L255.290093,254.835967 Z"></path>
                    </g>
                    <g id="pie_1">
                        <use fill="#FA4A6F" fill-rule="evenodd" xlink:href="#path-4"></use>
                        <path stroke="#333333" stroke-width="0.838028169" d="M255.598592,254.056788 L491.424708,347.426952 C503.104808,317.783575 509.102113,286.205534 509.102113,254.341549 C509.102113,114.243703 395.643503,0.645535221 255.598592,0.419352433 L255.598592,254.056788 Z"></path>
                    </g>
                </g>
                <path d="M358.929216,174.549296 L345.266247,174.549296 L345.266247,172.6445 L352.097732,165.053962 C352.708797,164.376061 353.219602,163.774553 353.630161,163.249419 C354.040721,162.724285 354.370118,162.239736 354.618364,161.795759 C354.866609,161.351782 355.043242,160.931681 355.148269,160.535443 C355.253296,160.139206 355.305808,159.731039 355.305808,159.310932 C355.305808,158.795346 355.222266,158.310797 355.055178,157.857272 C354.888089,157.403747 354.644622,157.009903 354.324767,156.675726 C354.004913,156.34155 353.618229,156.0766 353.164704,155.880868 C352.711179,155.685136 352.197987,155.587272 351.625113,155.587272 C350.928117,155.587272 350.324222,155.687523 349.81341,155.888029 C349.302597,156.088535 348.877722,156.37258 348.538772,156.740174 C348.199822,157.107768 347.946806,157.554126 347.779718,158.07926 C347.61263,158.604394 347.529087,159.191581 347.529087,159.840838 L344.865238,159.840838 C344.865238,158.962431 345.018002,158.134164 345.323534,157.35601 C345.629067,156.577857 346.070651,155.89758 346.648298,155.315158 C347.225946,154.732736 347.932479,154.269671 348.76792,153.925946 C349.603361,153.582222 350.555749,153.410363 351.625113,153.410363 C352.608547,153.410363 353.494101,153.555966 354.281802,153.847177 C355.069503,154.138387 355.735459,154.54178 356.279689,155.057366 C356.823919,155.572952 357.241633,156.184009 357.532844,156.890553 C357.824055,157.597097 357.969658,158.365691 357.969658,159.196358 C357.969658,159.816971 357.864633,160.430414 357.654579,161.036705 C357.444525,161.642997 357.16048,162.242118 356.802433,162.834088 C356.444387,163.426057 356.02906,164.010857 355.556439,164.588504 C355.083819,165.166152 354.584949,165.741404 354.059814,166.314278 L348.460002,172.386708 L358.929216,172.386708 L358.929216,174.549296 Z M376.831429,166.57207 C376.831429,167.899227 376.678665,169.075987 376.373133,170.102386 C376.0676,171.128785 375.628404,171.992856 375.05553,172.694626 C374.482656,173.396397 373.780897,173.928684 372.95023,174.291504 C372.119563,174.654324 371.169562,174.835731 370.100197,174.835731 C369.040381,174.835731 368.092767,174.654324 367.257326,174.291504 C366.421885,173.928684 365.712965,173.396397 365.130543,172.694626 C364.548121,171.992856 364.101764,171.128785 363.791457,170.102386 C363.481151,169.075987 363.326,167.899227 363.326,166.57207 L363.326,161.688346 C363.326,160.361189 363.478764,159.184428 363.784297,158.158029 C364.089829,157.131631 364.531413,156.265172 365.10906,155.558628 C365.686708,154.852084 366.393242,154.315023 367.228682,153.947429 C368.064123,153.579835 369.011738,153.396041 370.071554,153.396041 C371.140918,153.396041 372.093306,153.579835 372.928747,153.947429 C373.764188,154.315023 374.470721,154.852084 375.048369,155.558628 C375.626017,156.265172 376.0676,157.131631 376.373133,158.158029 C376.678665,159.184428 376.831429,160.361189 376.831429,161.688346 L376.831429,166.57207 Z M365.989849,166.042164 L374.110293,159.812194 C373.957527,158.427749 373.554134,157.37511 372.900104,156.654244 C372.246073,155.933378 371.303232,155.57295 370.071554,155.57295 C368.677561,155.57295 367.648791,156.043177 366.985212,156.983644 C366.321634,157.924112 365.989849,159.296601 365.989849,161.101153 L365.989849,166.042164 Z M374.16758,162.347147 L366.061458,168.548474 C366.223772,169.894727 366.6391,170.92111 367.307452,171.627655 C367.975805,172.334199 368.906711,172.687466 370.100197,172.687466 C371.503738,172.687466 372.532508,172.210078 373.186539,171.255289 C373.84057,170.300499 374.16758,168.925623 374.16758,167.130619 L374.16758,162.347147 Z M379.480957,157.449102 C379.480957,156.904872 379.5645,156.386906 379.731588,155.89519 C379.898676,155.403473 380.142144,154.971437 380.461998,154.59907 C380.781853,154.226702 381.180471,153.933108 381.657866,153.718281 C382.135261,153.503453 382.684257,153.396041 383.30487,153.396041 C383.935031,153.396041 384.491187,153.503453 384.973356,153.718281 C385.455525,153.933108 385.85653,154.226702 386.176385,154.59907 C386.496239,154.971437 386.739707,155.403473 386.906795,155.89519 C387.073883,156.386906 387.157426,156.904872 387.157426,157.449102 L387.157426,158.551878 C387.157426,159.096108 387.073883,159.611687 386.906795,160.098629 C386.739707,160.585572 386.496239,161.012834 386.176385,161.380428 C385.85653,161.748022 385.457912,162.039228 384.980517,162.254056 C384.503122,162.468883 383.954126,162.576296 383.333513,162.576296 C382.7129,162.576296 382.161517,162.468883 381.679349,162.254056 C381.19718,162.039228 380.793788,161.748022 380.469159,161.380428 C380.144531,161.012834 379.898676,160.585572 379.731588,160.098629 C379.5645,159.611687 379.480957,159.096108 379.480957,158.551878 L379.480957,157.449102 Z M381.457361,158.551878 C381.457361,158.847863 381.490778,159.131909 381.557614,159.404024 C381.624449,159.676139 381.734248,159.919606 381.887014,160.134434 C382.039781,160.349261 382.233123,160.521121 382.467046,160.650018 C382.70097,160.778914 382.989789,160.843361 383.333513,160.843361 C383.66769,160.843361 383.951735,160.778914 384.185659,160.650018 C384.419582,160.521121 384.60815,160.349261 384.751369,160.134434 C384.894587,159.919606 385.001999,159.676139 385.073608,159.404024 C385.145218,159.131909 385.181022,158.847863 385.181022,158.551878 L385.181022,157.449102 C385.181022,157.153117 385.145218,156.864298 385.073608,156.582635 C385.001999,156.300972 384.8922,156.05273 384.744208,155.837903 C384.596215,155.623075 384.40526,155.451216 384.171337,155.322319 C383.937413,155.193422 383.648594,155.128975 383.30487,155.128975 C382.970693,155.128975 382.686648,155.193422 382.452724,155.322319 C382.218801,155.451216 382.027846,155.623075 381.879854,155.837903 C381.731861,156.05273 381.624449,156.300972 381.557614,156.582635 C381.490778,156.864298 381.457361,157.153117 381.457361,157.449102 L381.457361,158.551878 Z M388.088341,169.708537 C388.088341,169.164307 388.171884,168.648729 388.338972,168.161786 C388.50606,167.674844 388.751915,167.245195 389.076543,166.872827 C389.401172,166.500459 389.802177,166.206866 390.279572,165.992038 C390.756967,165.77721 391.305962,165.669798 391.926576,165.669798 C392.556737,165.669798 393.110506,165.77721 393.587901,165.992038 C394.065296,166.206866 394.466301,166.500459 394.79093,166.872827 C395.115558,167.245195 395.361413,167.674844 395.528501,168.161786 C395.695589,168.648729 395.779132,169.164307 395.779132,169.708537 L395.779132,170.825635 C395.779132,171.369865 395.695589,171.885444 395.528501,172.372387 C395.361413,172.859329 395.115558,173.286591 394.79093,173.654185 C394.466301,174.021779 394.067683,174.312985 393.595062,174.527813 C393.122441,174.742641 392.575832,174.850053 391.955219,174.850053 C391.325058,174.850053 390.768902,174.742641 390.286733,174.527813 C389.804564,174.312985 389.401172,174.021779 389.076543,173.654185 C388.751915,173.286591 388.50606,172.859329 388.338972,172.372387 C388.171884,171.885444 388.088341,171.369865 388.088341,170.825635 L388.088341,169.708537 Z M390.064745,170.825635 C390.064745,171.12162 390.100549,171.408053 390.172159,171.684942 C390.243768,171.961831 390.353567,172.207685 390.501559,172.422513 C390.649552,172.63734 390.842894,172.8092 391.081591,172.938097 C391.320288,173.066993 391.611495,173.13144 391.955219,173.13144 C392.289395,173.13144 392.573441,173.066993 392.807364,172.938097 C393.041288,172.8092 393.229856,172.63734 393.373074,172.422513 C393.516293,172.207685 393.621318,171.961831 393.688153,171.684942 C393.754989,171.408053 393.788406,171.12162 393.788406,170.825635 L393.788406,169.708537 C393.788406,169.412553 393.754989,169.12612 393.688153,168.849231 C393.621318,168.572342 393.513906,168.326488 393.365913,168.11166 C393.217921,167.896832 393.024579,167.724973 392.785882,167.596076 C392.547184,167.46718 392.260752,167.402732 391.926576,167.402732 C391.582851,167.402732 391.294032,167.46718 391.060108,167.596076 C390.826185,167.724973 390.63523,167.896832 390.487238,168.11166 C390.339245,168.326488 390.231833,168.572342 390.164998,168.849231 C390.098163,169.12612 390.064745,169.412553 390.064745,169.708537 L390.064745,170.825635 Z M384.550864,171.856803 L382.961147,170.968853 L391.081591,156.117177 L392.671308,157.005127 L384.550864,171.856803 Z" id="20%" fill="#FFFFFF"></path>
                <path d="M261.233316,399.996654 L264.140635,399.996654 L264.140635,402.159242 L261.233316,402.159242 L261.233316,407 L258.583788,407 L258.583788,402.159242 L249.074133,402.159242 L249.074133,400.598169 L258.411927,386.147502 L261.233316,386.147502 L261.233316,399.996654 Z M252.010096,399.996654 L258.583788,399.996654 L258.583788,389.670658 L258.154135,390.472677 L252.010096,399.996654 Z M281.298116,387.636966 L272.662089,407 L269.883665,407 L278.491049,388.467629 L267.205494,388.467629 L267.205494,386.147502 L281.298116,386.147502 L281.298116,387.636966 Z M290.30651,405.281388 C290.30651,404.994951 290.351862,404.727614 290.442567,404.479368 C290.533272,404.231123 290.664553,404.013912 290.836415,403.827728 C291.008278,403.641544 291.223102,403.495941 291.480895,403.390914 C291.738688,403.285887 292.039442,403.233374 292.383167,403.233374 C292.726891,403.233374 293.030032,403.285887 293.292599,403.390914 C293.555166,403.495941 293.774764,403.641544 293.951401,403.827728 C294.128037,404.013912 294.261705,404.231123 294.35241,404.479368 C294.443115,404.727614 294.488467,404.994951 294.488467,405.281388 C294.488467,405.558276 294.443115,405.818453 294.35241,406.061924 C294.261705,406.305395 294.128037,406.517833 293.951401,406.699243 C293.774764,406.880653 293.555166,407.021482 293.292599,407.121735 C293.030032,407.221988 292.726891,407.272114 292.383167,407.272114 C292.039442,407.272114 291.738688,407.221988 291.480895,407.121735 C291.223102,407.021482 291.008278,406.880653 290.836415,406.699243 C290.664553,406.517833 290.533272,406.305395 290.442567,406.061924 C290.351862,405.818453 290.30651,405.558276 290.30651,405.281388 Z M306.146388,404.65123 C307.09163,404.65123 307.922284,404.567687 308.638376,404.400599 C309.354468,404.233511 309.977459,403.997204 310.507367,403.691671 C311.037275,403.386138 311.478859,403.025711 311.832131,402.610377 C312.185403,402.195044 312.474223,401.736752 312.698598,401.235487 C312.922974,400.734223 313.087672,400.204323 313.192699,399.645771 C313.297726,399.087219 313.36456,398.516741 313.393204,397.934319 C313.164054,398.220756 312.901491,398.49048 312.605507,398.743499 C312.309522,398.996519 311.975351,399.218504 311.602983,399.409462 C311.230615,399.60042 310.817674,399.750797 310.364149,399.860597 C309.910624,399.970398 309.416528,400.025298 308.881846,400.025298 C307.850674,400.025298 306.960346,399.822408 306.210836,399.416623 C305.461326,399.010837 304.843109,398.47855 304.356167,397.819745 C303.869224,397.16094 303.511183,396.416216 303.282034,395.585549 C303.052885,394.754882 302.938312,393.919454 302.938312,393.079239 C302.938312,392.095806 303.074367,391.167287 303.346482,390.293655 C303.618597,389.420022 304.024376,388.656202 304.563832,388.002171 C305.103289,387.348141 305.776405,386.827788 306.583202,386.441098 C307.389999,386.054409 308.328066,385.861067 309.39743,385.861067 C310.199453,385.861067 310.922695,385.973253 311.567178,386.197628 C312.211661,386.422004 312.779752,386.732306 313.271469,387.128543 C313.763185,387.524781 314.185673,387.992621 314.538946,388.532077 C314.892218,389.071533 315.181037,389.653946 315.405413,390.279333 C315.629788,390.90472 315.794487,391.558741 315.899514,392.241416 C316.004541,392.92409 316.057053,393.609141 316.057053,394.29659 L316.057053,395.256148 C316.057053,396.144102 316.014088,397.053526 315.928157,397.984445 C315.842226,398.915365 315.672754,399.815241 315.419734,400.684099 C315.166715,401.552958 314.811062,402.371677 314.352763,403.140283 C313.894464,403.908888 313.297729,404.579618 312.562541,405.152492 C311.827353,405.725365 310.934639,406.178883 309.88437,406.51306 C308.834102,406.847236 307.58812,407.014322 306.146388,407.014322 L305.874274,407.014322 L305.874274,404.65123 L306.146388,404.65123 Z M309.311499,397.834067 C309.76025,397.834067 310.19706,397.760072 310.621941,397.612079 C311.046823,397.464087 311.43828,397.254037 311.796327,396.981922 C312.154373,396.709807 312.474222,396.389957 312.755885,396.022363 C313.037548,395.654769 313.259533,395.246603 313.421847,394.797852 L313.421847,393.938545 C313.421847,393.0124 313.314435,392.186519 313.099608,391.460879 C312.88478,390.735239 312.593574,390.121796 312.22598,389.620532 C311.858386,389.119267 311.433511,388.73497 310.951342,388.467629 C310.469173,388.200288 309.955982,388.066619 309.411752,388.066619 C308.791139,388.066619 308.242143,388.19074 307.764748,388.438985 C307.287353,388.687231 306.883961,389.028563 306.554559,389.462992 C306.225156,389.897421 305.974528,390.413 305.802666,391.009743 C305.630803,391.606487 305.544874,392.248573 305.544874,392.936021 C305.544874,393.547087 305.621256,394.146208 305.774022,394.733404 C305.926788,395.320599 306.158321,395.843339 306.468628,396.301637 C306.778935,396.759936 307.170392,397.129912 307.643013,397.411575 C308.115634,397.693238 308.67179,397.834067 309.311499,397.834067 Z M319.035982,389.899806 C319.035982,389.355576 319.119524,388.837611 319.286612,388.345894 C319.453701,387.854177 319.697168,387.422142 320.017023,387.049774 C320.336877,386.677406 320.735496,386.383812 321.212891,386.168985 C321.690285,385.954157 322.239281,385.846745 322.859894,385.846745 C323.490055,385.846745 324.046212,385.954157 324.52838,386.168985 C325.010549,386.383812 325.411555,386.677406 325.731409,387.049774 C326.051264,387.422142 326.294731,387.854177 326.46182,388.345894 C326.628908,388.837611 326.71245,389.355576 326.71245,389.899806 L326.71245,391.002582 C326.71245,391.546812 326.628908,392.062391 326.46182,392.549334 C326.294731,393.036276 326.051264,393.463538 325.731409,393.831132 C325.411555,394.198726 325.012936,394.489932 324.535541,394.70476 C324.058147,394.919588 323.509151,395.027 322.888538,395.027 C322.267925,395.027 321.716542,394.919588 321.234373,394.70476 C320.752205,394.489932 320.348812,394.198726 320.024184,393.831132 C319.699555,393.463538 319.453701,393.036276 319.286612,392.549334 C319.119524,392.062391 319.035982,391.546812 319.035982,391.002582 L319.035982,389.899806 Z M321.012386,391.002582 C321.012386,391.298567 321.045803,391.582613 321.112638,391.854728 C321.179473,392.126843 321.289273,392.37031 321.442039,392.585138 C321.594805,392.799966 321.788147,392.971825 322.022071,393.100722 C322.255994,393.229618 322.544814,393.294066 322.888538,393.294066 C323.222714,393.294066 323.50676,393.229618 323.740683,393.100722 C323.974607,392.971825 324.163175,392.799966 324.306393,392.585138 C324.449611,392.37031 324.557024,392.126843 324.628633,391.854728 C324.700242,391.582613 324.736046,391.298567 324.736046,391.002582 L324.736046,389.899806 C324.736046,389.603821 324.700242,389.315002 324.628633,389.033339 C324.557024,388.751676 324.447225,388.503435 324.299232,388.288607 C324.15124,388.073779 323.960285,387.90192 323.726361,387.773023 C323.492438,387.644127 323.203618,387.579679 322.859894,387.579679 C322.525718,387.579679 322.241672,387.644127 322.007749,387.773023 C321.773825,387.90192 321.58287,388.073779 321.434878,388.288607 C321.286886,388.503435 321.179473,388.751676 321.112638,389.033339 C321.045803,389.315002 321.012386,389.603821 321.012386,389.899806 L321.012386,391.002582 Z M327.643366,402.159242 C327.643366,401.615012 327.726908,401.099433 327.893997,400.61249 C328.061085,400.125548 328.306939,399.695899 328.631568,399.323531 C328.956196,398.951163 329.357202,398.65757 329.834596,398.442742 C330.311991,398.227915 330.860987,398.120502 331.4816,398.120502 C332.111761,398.120502 332.665531,398.227915 333.142925,398.442742 C333.62032,398.65757 334.021326,398.951163 334.345954,399.323531 C334.670583,399.695899 334.916437,400.125548 335.083525,400.61249 C335.250613,401.099433 335.334156,401.615012 335.334156,402.159242 L335.334156,403.27634 C335.334156,403.82057 335.250613,404.336148 335.083525,404.823091 C334.916437,405.310034 334.670583,405.737295 334.345954,406.104889 C334.021326,406.472483 333.622707,406.76369 333.150086,406.978517 C332.677466,407.193345 332.130857,407.300757 331.510244,407.300757 C330.880083,407.300757 330.323926,407.193345 329.841757,406.978517 C329.359589,406.76369 328.956196,406.472483 328.631568,406.104889 C328.306939,405.737295 328.061085,405.310034 327.893997,404.823091 C327.726908,404.336148 327.643366,403.82057 327.643366,403.27634 L327.643366,402.159242 Z M329.61977,403.27634 C329.61977,403.572324 329.655574,403.858757 329.727183,404.135646 C329.798792,404.412535 329.908592,404.658389 330.056584,404.873217 C330.204576,405.088045 330.397918,405.259904 330.636616,405.388801 C330.875313,405.517697 331.166519,405.582145 331.510244,405.582145 C331.84442,405.582145 332.128466,405.517697 332.362389,405.388801 C332.596312,405.259904 332.78488,405.088045 332.928099,404.873217 C333.071317,404.658389 333.176343,404.412535 333.243178,404.135646 C333.310013,403.858757 333.34343,403.572324 333.34343,403.27634 L333.34343,402.159242 C333.34343,401.863257 333.310013,401.576824 333.243178,401.299935 C333.176343,401.023046 333.06893,400.777192 332.920938,400.562364 C332.772946,400.347537 332.579604,400.175677 332.340906,400.04678 C332.102209,399.917884 331.815776,399.853437 331.4816,399.853437 C331.137876,399.853437 330.849056,399.917884 330.615133,400.04678 C330.38121,400.175677 330.190254,400.347537 330.042262,400.562364 C329.89427,400.777192 329.786858,401.023046 329.720022,401.299935 C329.653187,401.576824 329.61977,401.863257 329.61977,402.159242 L329.61977,403.27634 Z M324.105888,404.307507 L322.516172,403.419557 L330.636616,388.567881 L332.226332,389.455831 L324.105888,404.307507 Z" id="47.9%" fill="#FFFFFF"></path>
                <path d="M99.140484,254.591549 L85.477515,254.591549 L85.477515,252.686754 L92.3089995,245.096215 C92.9200648,244.418315 93.4308695,243.816807 93.8414289,243.291672 C94.2519884,242.766538 94.5813858,242.28199 94.8296311,241.838013 C95.0778764,241.394036 95.2545098,240.973935 95.3595366,240.577697 C95.4645635,240.181459 95.5170761,239.773293 95.5170761,239.353186 C95.5170761,238.837599 95.4335333,238.353051 95.2664451,237.899526 C95.0993569,237.446001 94.8558893,237.052156 94.5360348,236.71798 C94.2161803,236.383803 93.8294964,236.118853 93.3759714,235.923121 C92.9224464,235.72739 92.4092548,235.629525 91.8363811,235.629525 C91.1393848,235.629525 90.5354895,235.729777 90.0246771,235.930282 C89.5138647,236.130788 89.0889898,236.414834 88.7500395,236.782428 C88.4110893,237.150022 88.1580739,237.596379 87.9909857,238.121513 C87.8238976,238.646647 87.7403547,239.233834 87.7403547,239.883091 L85.0765054,239.883091 C85.0765054,239.004685 85.2292694,238.176417 85.5348021,237.398264 C85.8403347,236.62011 86.2819182,235.939833 86.8595658,235.357412 C87.4372135,234.77499 88.1437471,234.311924 88.9791879,233.9682 C89.8146287,233.624476 90.7670169,233.452616 91.8363811,233.452616 C92.8198142,233.452616 93.7053682,233.598219 94.4930695,233.88943 C95.2807708,234.180641 95.9467265,234.584033 96.4909565,235.09962 C97.0351865,235.615206 97.4529006,236.226262 97.7441114,236.932806 C98.0353222,237.639351 98.1809254,238.407945 98.1809254,239.238611 C98.1809254,239.859225 98.0759001,240.472668 97.8658464,241.078959 C97.6557928,241.68525 97.3717472,242.284372 97.0137011,242.876341 C96.6556551,243.468311 96.2403279,244.05311 95.7677071,244.630758 C95.2950863,245.208406 94.7962163,245.783658 94.2710821,246.356531 L88.6712698,252.428962 L99.140484,252.428962 L99.140484,254.591549 Z M117.157271,235.228516 L108.521244,254.591549 L105.74282,254.591549 L114.350204,236.059178 L103.064649,236.059178 L103.064649,233.739051 L117.157271,233.739051 L117.157271,235.228516 Z M126.165665,252.872937 C126.165665,252.5865 126.211017,252.319163 126.301722,252.070918 C126.392427,251.822672 126.523708,251.605461 126.69557,251.419277 C126.867432,251.233093 127.082257,251.08749 127.34005,250.982463 C127.597843,250.877436 127.898597,250.824924 128.242322,250.824924 C128.586046,250.824924 128.889187,250.877436 129.151754,250.982463 C129.414321,251.08749 129.633919,251.233093 129.810555,251.419277 C129.987192,251.605461 130.12086,251.822672 130.211565,252.070918 C130.30227,252.319163 130.347622,252.5865 130.347622,252.872937 C130.347622,253.149826 130.30227,253.410002 130.211565,253.653473 C130.12086,253.896945 129.987192,254.109382 129.810555,254.290792 C129.633919,254.472202 129.414321,254.613031 129.151754,254.713284 C128.889187,254.813537 128.586046,254.863663 128.242322,254.863663 C127.898597,254.863663 127.597843,254.813537 127.34005,254.713284 C127.082257,254.613031 126.867432,254.472202 126.69557,254.290792 C126.523708,254.109382 126.392427,253.896945 126.301722,253.653473 C126.211017,253.410002 126.165665,253.149826 126.165665,252.872937 Z M147.748573,254.591549 L145.099045,254.591549 L145.099045,237.118989 L139.642451,239.195646 L139.642451,236.775267 L147.533746,233.739051 L147.748573,233.739051 L147.748573,254.591549 Z M154.895136,237.491355 C154.895136,236.947125 154.978679,236.42916 155.145767,235.937443 C155.312856,235.445727 155.556323,235.013691 155.876178,234.641323 C156.196032,234.268955 156.594651,233.975362 157.072046,233.760534 C157.54944,233.545707 158.098436,233.438294 158.719049,233.438294 C159.34921,233.438294 159.905367,233.545707 160.387535,233.760534 C160.869704,233.975362 161.27071,234.268955 161.590564,234.641323 C161.910419,235.013691 162.153886,235.445727 162.320974,235.937443 C162.488063,236.42916 162.571605,236.947125 162.571605,237.491355 L162.571605,238.594132 C162.571605,239.138362 162.488063,239.65394 162.320974,240.140883 C162.153886,240.627826 161.910419,241.055087 161.590564,241.422681 C161.27071,241.790275 160.872091,242.081482 160.394696,242.296309 C159.917302,242.511137 159.368306,242.618549 158.747693,242.618549 C158.12708,242.618549 157.575697,242.511137 157.093528,242.296309 C156.61136,242.081482 156.207967,241.790275 155.883339,241.422681 C155.55871,241.055087 155.312856,240.627826 155.145767,240.140883 C154.978679,239.65394 154.895136,239.138362 154.895136,238.594132 L154.895136,237.491355 Z M156.871541,238.594132 C156.871541,238.890116 156.904958,239.174162 156.971793,239.446277 C157.038628,239.718392 157.148428,239.96186 157.301194,240.176687 C157.45396,240.391515 157.647302,240.563374 157.881226,240.692271 C158.115149,240.821168 158.403968,240.885615 158.747693,240.885615 C159.081869,240.885615 159.365915,240.821168 159.599838,240.692271 C159.833761,240.563374 160.02233,240.391515 160.165548,240.176687 C160.308766,239.96186 160.416179,239.718392 160.487788,239.446277 C160.559397,239.174162 160.595201,238.890116 160.595201,238.594132 L160.595201,237.491355 C160.595201,237.195371 160.559397,236.906551 160.487788,236.624888 C160.416179,236.343225 160.306379,236.094984 160.158387,235.880156 C160.010395,235.665329 159.81944,235.493469 159.585516,235.364572 C159.351593,235.235676 159.062773,235.171229 158.719049,235.171229 C158.384873,235.171229 158.100827,235.235676 157.866904,235.364572 C157.63298,235.493469 157.442025,235.665329 157.294033,235.880156 C157.146041,236.094984 157.038628,236.343225 156.971793,236.624888 C156.904958,236.906551 156.871541,237.195371 156.871541,237.491355 L156.871541,238.594132 Z M163.50252,249.750791 C163.50252,249.206561 163.586063,248.690982 163.753151,248.20404 C163.92024,247.717097 164.166094,247.287448 164.490723,246.91508 C164.815351,246.542712 165.216357,246.249119 165.693751,246.034291 C166.171146,245.819464 166.720142,245.712052 167.340755,245.712052 C167.970916,245.712052 168.524686,245.819464 169.00208,246.034291 C169.479475,246.249119 169.880481,246.542712 170.205109,246.91508 C170.529737,247.287448 170.775592,247.717097 170.94268,248.20404 C171.109768,248.690982 171.193311,249.206561 171.193311,249.750791 L171.193311,250.867889 C171.193311,251.412119 171.109768,251.927698 170.94268,252.41464 C170.775592,252.901583 170.529737,253.328845 170.205109,253.696439 C169.880481,254.064033 169.481862,254.355239 169.009241,254.570067 C168.53662,254.784894 167.990012,254.892306 167.369399,254.892306 C166.739237,254.892306 166.183081,254.784894 165.700912,254.570067 C165.218744,254.355239 164.815351,254.064033 164.490723,253.696439 C164.166094,253.328845 163.92024,252.901583 163.753151,252.41464 C163.586063,251.927698 163.50252,251.412119 163.50252,250.867889 L163.50252,249.750791 Z M165.478925,250.867889 C165.478925,251.163874 165.514729,251.450306 165.586338,251.727195 C165.657947,252.004084 165.767746,252.249939 165.915739,252.464766 C166.063731,252.679594 166.257073,252.851454 166.495771,252.98035 C166.734468,253.109247 167.025674,253.173694 167.369399,253.173694 C167.703575,253.173694 167.98762,253.109247 168.221544,252.98035 C168.455467,252.851454 168.644035,252.679594 168.787254,252.464766 C168.930472,252.249939 169.035497,252.004084 169.102333,251.727195 C169.169168,251.450306 169.202585,251.163874 169.202585,250.867889 L169.202585,249.750791 C169.202585,249.454806 169.169168,249.168374 169.102333,248.891485 C169.035497,248.614596 168.928085,248.368741 168.780093,248.153913 C168.632101,247.939086 168.438759,247.767226 168.200061,247.63833 C167.961364,247.509433 167.674931,247.444986 167.340755,247.444986 C166.997031,247.444986 166.708211,247.509433 166.474288,247.63833 C166.240364,247.767226 166.049409,247.939086 165.901417,248.153913 C165.753425,248.368741 165.646012,248.614596 165.579177,248.891485 C165.512342,249.168374 165.478925,249.454806 165.478925,249.750791 L165.478925,250.867889 Z M159.965043,251.899056 L158.375327,251.011107 L166.495771,236.159431 L168.085487,237.04738 L159.965043,251.899056 Z" id="27.1%" fill="#FFFFFF"></path>
                <path d="M191.775253,94.1577836 L192.820742,83.7601783 L203.519105,83.7601783 L203.519105,86.3380969 L195.054939,86.3380969 L194.467746,91.8949439 C194.878305,91.6562465 195.370015,91.446196 195.942888,91.264786 C196.515762,91.083376 197.179331,90.9926723 197.933614,90.9926723 C198.897952,90.9926723 199.762023,91.159758 200.525855,91.4939343 C201.289686,91.8281106 201.938934,92.2983374 202.473616,92.9046287 C203.008298,93.51092 203.418851,94.2437099 203.705288,95.1030205 C203.991725,95.962331 204.134941,96.9171061 204.134941,97.9673746 C204.134941,98.9603556 204.001272,99.8817136 203.733931,100.731476 C203.46659,101.581239 203.063198,102.314029 202.523742,102.929868 C201.984286,103.545707 201.304008,104.027869 200.48289,104.376367 C199.661771,104.724865 198.697448,104.899111 197.589892,104.899111 C196.740129,104.899111 195.938118,104.779765 195.183834,104.541067 C194.429551,104.30237 193.758821,103.944329 193.171626,103.466934 C192.58443,102.98954 192.102269,102.388031 191.725127,101.662391 C191.347985,100.936751 191.111678,100.091775 191.016199,99.127438 L193.536831,99.127438 C193.699145,100.311377 194.135955,101.208866 194.847273,101.819931 C195.558591,102.430996 196.472788,102.736524 197.589892,102.736524 C198.220053,102.736524 198.778596,102.624338 199.265539,102.399963 C199.752482,102.175587 200.160648,101.855737 200.49005,101.440404 C200.819453,101.02507 201.067694,100.5262 201.234782,99.9437789 C201.401871,99.3613573 201.485413,98.7121102 201.485413,97.9960181 C201.485413,97.3467613 201.392323,96.740479 201.206139,96.1771533 C201.019955,95.6138275 200.750231,95.1245052 200.396959,94.7091718 C200.043687,94.2938384 199.609264,93.9668279 199.093678,93.7281305 C198.578091,93.4894331 197.986131,93.3700862 197.317778,93.3700862 C196.878575,93.3700862 196.499052,93.4011164 196.179197,93.4631777 C195.859343,93.5252391 195.570524,93.6135558 195.31273,93.7281305 C195.054937,93.8427052 194.813857,93.9811476 194.589481,94.1434618 C194.365105,94.3057761 194.133572,94.4919572 193.894875,94.7020109 L191.775253,94.1577836 Z M206.569642,87.5124821 C206.569642,86.9682521 206.653185,86.4502866 206.820273,85.95857 C206.987361,85.4668534 207.230829,85.0348177 207.550683,84.6624498 C207.870538,84.2900819 208.269156,83.9964885 208.746551,83.7816609 C209.223946,83.5668333 209.772942,83.4594211 210.393555,83.4594211 C211.023716,83.4594211 211.579872,83.5668333 212.062041,83.7816609 C212.54421,83.9964885 212.945215,84.2900819 213.26507,84.6624498 C213.584924,85.0348177 213.828392,85.4668534 213.99548,85.95857 C214.162568,86.4502866 214.246111,86.9682521 214.246111,87.5124821 L214.246111,88.6152584 C214.246111,89.1594884 214.162568,89.675067 213.99548,90.1620097 C213.828392,90.6489523 213.584924,91.0762142 213.26507,91.4438081 C212.945215,91.8114021 212.546597,92.1026085 212.069202,92.3174361 C211.591807,92.5322637 211.042811,92.6396759 210.422198,92.6396759 C209.801585,92.6396759 209.250202,92.5322637 208.768034,92.3174361 C208.285865,92.1026085 207.882473,91.8114021 207.557844,91.4438081 C207.233216,91.0762142 206.987361,90.6489523 206.820273,90.1620097 C206.653185,89.675067 206.569642,89.1594884 206.569642,88.6152584 L206.569642,87.5124821 Z M208.546046,88.6152584 C208.546046,88.9112432 208.579463,89.1952888 208.646299,89.4674038 C208.713134,89.7395188 208.822933,89.9829865 208.975699,90.1978141 C209.128466,90.4126417 209.321808,90.5845012 209.555731,90.7133978 C209.789655,90.8422944 210.078474,90.9067417 210.422198,90.9067417 C210.756375,90.9067417 211.04042,90.8422944 211.274344,90.7133978 C211.508267,90.5845012 211.696835,90.4126417 211.840054,90.1978141 C211.983272,89.9829865 212.090684,89.7395188 212.162293,89.4674038 C212.233903,89.1952888 212.269707,88.9112432 212.269707,88.6152584 L212.269707,87.5124821 C212.269707,87.2164974 212.233903,86.9276779 212.162293,86.646015 C212.090684,86.3643521 211.980885,86.1161106 211.832893,85.9012829 C211.6849,85.6864553 211.493945,85.5145958 211.260022,85.3856992 C211.026098,85.2568026 210.737279,85.1923553 210.393555,85.1923553 C210.059378,85.1923553 209.775333,85.2568026 209.541409,85.3856992 C209.307486,85.5145958 209.116531,85.6864553 208.968539,85.9012829 C208.820546,86.1161106 208.713134,86.3643521 208.646299,86.646015 C208.579463,86.9276779 208.546046,87.2164974 208.546046,87.5124821 L208.546046,88.6152584 Z M215.177026,99.7719176 C215.177026,99.2276876 215.260569,98.7121091 215.427657,98.2251664 C215.594745,97.7382238 215.8406,97.308575 216.165228,96.9362071 C216.489857,96.5638392 216.890862,96.2702458 217.368257,96.0554182 C217.845652,95.8405906 218.394647,95.7331784 219.015261,95.7331784 C219.645422,95.7331784 220.199191,95.8405906 220.676586,96.0554182 C221.153981,96.2702458 221.554986,96.5638392 221.879615,96.9362071 C222.204243,97.308575 222.450098,97.7382238 222.617186,98.2251664 C222.784274,98.7121091 222.867817,99.2276876 222.867817,99.7719176 L222.867817,100.889016 C222.867817,101.433246 222.784274,101.948824 222.617186,102.435767 C222.450098,102.92271 222.204243,103.349971 221.879615,103.717565 C221.554986,104.085159 221.156368,104.376366 220.683747,104.591193 C220.211126,104.806021 219.664517,104.913433 219.043904,104.913433 C218.413743,104.913433 217.857586,104.806021 217.375418,104.591193 C216.893249,104.376366 216.489857,104.085159 216.165228,103.717565 C215.8406,103.349971 215.594745,102.92271 215.427657,102.435767 C215.260569,101.948824 215.177026,101.433246 215.177026,100.889016 L215.177026,99.7719176 Z M217.15343,100.889016 C217.15343,101.185 217.189234,101.471433 217.260844,101.748322 C217.332453,102.025211 217.442252,102.271066 217.590244,102.485893 C217.738237,102.700721 217.931579,102.87258 218.170276,103.001477 C218.408973,103.130373 218.70018,103.194821 219.043904,103.194821 C219.37808,103.194821 219.662126,103.130373 219.896049,103.001477 C220.129973,102.87258 220.318541,102.700721 220.461759,102.485893 C220.604978,102.271066 220.710003,102.025211 220.776838,101.748322 C220.843674,101.471433 220.877091,101.185 220.877091,100.889016 L220.877091,99.7719176 C220.877091,99.4759329 220.843674,99.1895004 220.776838,98.9126114 C220.710003,98.6357225 220.602591,98.3898679 220.454598,98.1750402 C220.306606,97.9602126 220.113264,97.7883531 219.874567,97.6594565 C219.635869,97.5305599 219.349437,97.4661126 219.015261,97.4661126 C218.671536,97.4661126 218.382717,97.5305599 218.148793,97.6594565 C217.91487,97.7883531 217.723915,97.9602126 217.575923,98.1750402 C217.42793,98.3898679 217.320518,98.6357225 217.253683,98.9126114 C217.186847,99.1895004 217.15343,99.4759329 217.15343,99.7719176 L217.15343,100.889016 Z M211.639549,101.920183 L210.049832,101.032233 L218.170276,86.1805575 L219.759993,87.0685072 L211.639549,101.920183 Z" id="5%" fill="#FFFFFF"></path>
            </g>
        </g>
    </g>
</svg>