<?xml version="1.0" encoding="UTF-8"?>
<svg width="1120px" height="672px" viewBox="0 0 1120 672" version="1.1" xmlns="http://www.w3.org/2000/svg" xmlns:xlink="http://www.w3.org/1999/xlink">
    <!-- Generator: Sketch 49 (51002) - http://www.bohemiancoding.com/sketch -->
    <title>QUARTEX baner 2.0-08</title>
    <desc>Created with Sketch.</desc>
    <defs>
        <rect id="path-1" x="0" y="0" width="1120" height="672" rx="8.67768595"></rect>
    </defs>
    <g id="Page-1" stroke="none" stroke-width="1" fill="none" fill-rule="evenodd">
        <g id="competition-copy" transform="translate(-400.000000, -368.000000)">
            <g id="QUARTEX-baner-2.0-08" transform="translate(400.000000, 368.000000)">
                <mask id="mask-2" fill="white">
                    <use xlink:href="#path-1"></use>
                </mask>
                <use id="Mask" fill="#777BFA" xlink:href="#path-1"></use>
                <g id="QUARTEX-baner-2.0-10-(3)" mask="url(#mask-2)" fill-rule="nonzero">
                    <rect id="Rectangle-path" fill="#FF911A" x="0.653152904" y="0" width="1121.82744" height="672.455394"></rect>
                    <polygon id="Shape" fill="#FFD300" points="603.709229 0 563.064457 323.469724 561.739489 333.976839 561.702166 334.322407 561.702166 334.331746 561.62752 334.901466 561.61819 334.938824 561.590197 335.190995 561.580867 335.293731 561.543544 335.545902 561.543544 335.555242 561.49689 335.900809 561.49689 335.910149 561.487559 336.012885 561.478228 336.068923 561.478228 336.106282 561.468897 336.1343 561.468897 336.190338 561.459567 336.209018 561.459567 336.265056 561.450236 336.293075 561.450236 336.311754 561.440905 336.349113 561.440905 336.41449 561.431574 336.41449 561.422244 336.535906 561.384921 336.853454 561.37559 336.862794 561.347598 337.124304 561.347598 337.152323 561.338267 337.180342 561.319605 337.320437 561.319605 337.357796 561.263621 337.759401 561.263621 337.768741 561.114329 338.945538 561.114329 338.954877 561.049013 339.496577 561.00236 339.15101 560.88106 338.132987 560.862398 337.983553 560.862398 337.974213 560.806414 337.600627 560.806414 337.581948 560.769091 337.255059 560.769091 337.23638 560.741099 337.012228 560.731768 337.012228 560.731768 336.95619 560.713106 336.816096 560.713106 336.806756 560.694445 336.647982 560.685114 336.591944 560.675783 336.498547 560.666452 336.479868 560.647791 336.293075 560.63846 336.209018 560.629129 336.180999 560.610468 336.031564 560.610468 335.994206 560.591806 335.891469 560.591806 335.87279 560.563814 335.676657 560.563814 335.639299 560.535822 335.424486 560.535822 335.396467 560.498499 335.088259 560.489168 335.069579 560.423853 334.546559 560.395861 334.331746 560.330545 333.762027 560.330545 333.752688 560.302553 333.528536 559.061562 323.675196 518.388798 0"></polygon>
                    <polygon id="Shape" fill="#FFD300" points="719.289301 0 566.93672 324.534445 562.411304 334.163633 562.271342 334.462502 562.028743 334.985523 562.019412 335.013542 561.907443 335.247033 561.860789 335.34043 561.860789 335.349769 561.758151 335.564581 561.608859 335.88213 561.552874 335.994206 561.524882 336.050244 561.515551 336.087602 561.506221 336.106282 561.487559 336.124961 561.478228 336.15298 561.468897 336.190338 561.459567 336.209018 561.440905 336.227697 561.440905 336.246376 561.422244 336.274395 561.403582 336.311754 561.384921 336.367792 561.37559 336.367792 561.328936 336.479868 561.188975 336.778737 561.179644 336.788077 561.077006 337.002889 561.058344 337.040247 561.049013 337.068266 561.00236 337.180342 560.974367 337.227041 560.806414 337.581948 560.806414 337.600627 560.797083 337.600627 560.293222 338.684027 560.059953 339.179029 560.125269 338.842801 560.321215 337.824779 560.349207 337.675344 560.423853 337.292418 560.423853 337.283078 560.479837 336.95619 560.489168 336.95619 560.489168 336.937511 560.535822 336.70402 560.535822 336.666661 560.563814 336.517226 560.573145 336.517226 560.601137 336.339773 560.610468 336.302414 560.629129 336.209018 560.629129 336.180999 560.666452 336.003545 560.685114 335.928828 560.685114 335.891469 560.713106 335.760714 560.722437 335.714016 560.741099 335.5926 560.750429 335.5926 560.787752 335.387128 560.787752 335.359109 560.834406 335.144297 560.834406 335.125617 560.899721 334.808069 560.899721 334.798729 560.993029 334.275709 561.039683 334.042217 561.151652 333.472498 561.188975 333.257686 563.064457 323.469724 624.890044 0"></polygon>
                    <polygon id="Shape" fill="#FFD300" points="876.512535 0 570.155831 326.897378 562.999141 334.527879 562.784534 334.761371 562.383312 335.190995 562.36465 335.200335 562.36465 335.209674 562.196696 335.387128 562.11272 335.471185 562.11272 335.480524 561.954097 335.639299 561.954097 335.648638 561.711497 335.900809 561.62752 335.994206 561.580867 336.040904 561.552874 336.068923 561.534213 336.096942 561.515551 336.106282 561.506221 336.124961 561.450236 336.180999 561.431574 336.209018 561.338267 336.302414 561.263621 336.386471 561.25429 336.386471 561.01169 336.657321 561.00236 336.666661 560.853068 336.816096 560.834406 336.834775 560.815745 336.862794 560.731768 336.95619 560.685114 337.002889 560.423853 337.283078 560.405191 337.301758 559.593416 338.170346 559.584085 338.170346 559.220185 338.562612 559.378808 338.263743 559.388139 338.263743 559.873338 337.367135 559.882669 337.367135 559.947984 337.23638 560.134599 336.890813 560.14393 336.890813 560.311884 336.582604 560.311884 336.573264 560.321215 336.573264 560.423853 336.367792 560.451845 336.330433 560.526491 336.180999 560.610468 336.031564 560.629129 335.994206 560.666452 335.928828 560.685114 335.891469 560.769091 335.742035 560.815745 335.667318 560.815745 335.657978 560.890391 335.517883 560.918383 335.480524 560.974367 335.377788 560.974367 335.368449 561.067675 335.190995 561.077006 335.190995 561.095667 335.153636 561.198306 334.976183 561.216967 334.938824 561.366259 334.667974 561.37559 334.649295 561.62752 334.182312 561.739489 333.976839 562.019412 333.472498 562.12205 333.285705 562.12205 333.276365 566.93672 324.534445 745.415417 0"></polygon>
                    <polygon id="Shape" fill="#FFD300" points="1122.48059 0 1122.48059 27.0476503 572.74045 329.951447 563.47501 335.0509 563.167095 335.219014 563.167095 335.228354 562.663234 335.499204 562.635242 335.517883 562.420635 335.629959 562.411304 335.639299 562.336658 335.685997 562.317996 335.685997 562.103389 335.807412 562.094058 335.816752 561.795474 335.975526 561.692836 336.031564 561.646182 336.059583 561.599528 336.087602 561.580867 336.096942 561.562205 336.106282 561.552874 336.115621 561.534213 336.124961 561.478228 336.15298 561.468897 336.162319 561.450236 336.171659 561.422244 336.190338 561.394251 336.199678 561.328936 336.237037 561.235629 336.293075 561.226298 336.293075 560.937044 336.451849 560.713106 336.573264 560.685114 336.591944 560.657122 336.610623 560.535822 336.666661 560.50783 336.68534 560.14393 336.890813 560.134599 336.890813 559.108216 337.460532 559.098886 337.460532 558.613686 337.731382 558.865617 337.488551 558.874947 337.488551 559.612077 336.797416 559.733377 336.676001 559.742708 336.676001 560.0133 336.41449 560.02263 336.41449 560.255899 336.190338 560.274561 336.171659 560.451845 336.012885 560.479837 335.975526 560.582476 335.88213 560.591806 335.87279 560.713106 335.760714 560.750429 335.723356 560.815745 335.667318 560.815745 335.657978 560.965037 335.527223 561.021021 335.471185 561.049013 335.452505 561.151652 335.34043 561.179644 335.32175 561.272952 335.237693 561.272952 335.228354 561.422244 335.097598 561.599528 334.920145 561.62752 334.901466 561.860789 334.677314 561.87012 334.677314 562.252681 334.313067 562.411304 334.163633 562.831188 333.771367 562.999141 333.612593 570.155831 326.897378 918.314321 0"></polygon>
                    <polygon id="Shape" fill="#FFD300" points="1122.48059 71.3736684 1122.48059 228.700212 574.09341 333.715329 563.71761 335.704676 563.400364 335.760714 562.831188 335.87279 562.803196 335.87279 562.803196 335.88213 562.560596 335.928828 562.541934 335.928828 562.457958 335.947507 562.206027 335.994206 561.87012 336.059583 561.74882 336.078263 561.692836 336.087602 561.655513 336.096942 561.61819 336.106282 561.590197 336.106282 561.590197 336.115621 561.552874 336.115621 561.534213 336.124961 561.487559 336.124961 561.468897 336.1343 561.440905 336.1343 561.394251 336.14364 561.347598 336.162319 561.216967 336.180999 560.890391 336.246376 560.88106 336.246376 560.647791 336.293075 560.610468 336.302414 560.582476 336.302414 560.451845 336.330433 560.405191 336.339773 560.02263 336.41449 560.003969 336.41449 558.828294 336.638642 558.818963 336.638642 558.296441 336.741378 558.595025 336.601283 559.537431 336.15298 559.668062 336.096942 559.677392 336.096942 560.02263 335.928828 560.031961 335.919488 560.339876 335.779393 560.349207 335.779393 560.563814 335.676657 560.601137 335.657978 560.741099 335.5926 560.750429 335.5926 560.890391 335.517883 560.937044 335.499204 561.021021 335.461845 561.049013 335.452505 561.207636 335.368449 561.291613 335.33109 561.310275 335.32175 561.431574 335.265712 561.440905 335.265712 561.487559 335.237693 561.590197 335.190995 561.776812 335.106938 561.814135 335.088259 562.010081 334.994862 562.028743 334.985523 562.327327 334.845428 562.803196 334.621276 562.999141 334.527879 563.521664 334.285048 563.530995 334.275709 563.736271 334.182312 572.74045 329.951447"></polygon>
                    <polygon id="Shape" fill="#FFD300" points="1122.48059 264.676575 1122.48059 406.732777 574.168056 337.703363 574.158725 337.703363 563.773594 336.395811 563.447018 336.349113 563.437687 336.349113 562.877842 336.283735 562.85918 336.274395 562.60725 336.246376 562.597919 336.246376 562.495281 336.237037 562.234019 336.199678 561.907443 336.162319 561.786143 336.14364 561.720828 336.1343 561.683505 336.1343 561.655513 336.124961 561.599528 336.124961 561.590197 336.115621 561.552874 336.115621 561.515551 336.106282 561.478228 336.106282 561.431574 336.096942 561.366259 336.087602 561.25429 336.078263 560.899721 336.031564 560.666452 336.003545 560.629129 335.994206 560.610468 335.994206 560.479837 335.975526 560.433184 335.975526 560.031961 335.919488 560.0133 335.919488 558.837624 335.770054 558.296441 335.704676 558.641678 335.657978 559.6494 335.536562 559.798692 335.517883 560.190584 335.471185 560.190584 335.461845 560.535822 335.424486 560.554483 335.424486 560.787752 335.387128 560.825075 335.387128 560.965037 335.368449 560.974367 335.368449 561.151652 335.34043 561.198306 335.34043 561.291613 335.33109 561.310275 335.32175 561.49689 335.303071 561.571536 335.293731 561.580867 335.293731 561.730159 335.275052 561.739489 335.275052 561.907443 335.247033 562.11272 335.228354 562.150043 335.219014 562.36465 335.190995 562.383312 335.190995 562.709888 335.153636 562.709888 335.144297 562.719219 335.144297 563.241741 335.078919 563.47501 335.0509 564.044186 334.985523 564.053517 334.976183 564.268124 334.957504 564.277455 334.948164 574.09341 333.715329"></polygon>
                    <polygon id="Shape" fill="#FFD300" points="1122.48059 442.709141 1122.48059 599.942287 573.178996 341.579321 563.624302 337.077606 563.307056 336.928171 562.812526 336.69468 562.765873 336.676001 562.541934 336.573264 562.448627 336.526566 562.439296 336.526566 562.196696 336.41449 561.898112 336.265056 561.795474 336.218357 561.739489 336.190338 561.702166 336.180999 561.683505 336.162319 561.664843 336.162319 561.636851 336.14364 561.599528 336.124961 561.580867 336.115621 561.562205 336.115621 561.562205 336.106282 561.534213 336.096942 561.515551 336.087602 561.478228 336.068923 561.422244 336.050244 561.310275 335.994206 561.021021 335.854111 560.769091 335.742035 560.750429 335.723356 560.722437 335.714016 560.601137 335.657978 560.563814 335.639299 560.190584 335.471185 560.190584 335.461845 559.108216 334.957504 558.613686 334.724012 558.949593 334.78939 559.966646 334.985523 560.125269 335.013542 560.498499 335.088259 560.834406 335.144297 560.853068 335.153636 561.067675 335.190995 561.12366 335.200335 561.272952 335.228354 561.272952 335.237693 561.440905 335.265712 561.49689 335.275052 561.580867 335.293731 561.786143 335.33109 561.860789 335.34043 561.860789 335.349769 561.879451 335.349769 562.028743 335.377788 562.075397 335.387128 562.178035 335.405807 562.206027 335.415147 562.401973 335.452505 562.429965 335.452505 562.644573 335.499204 562.663234 335.499204 562.98048 335.564581 562.989811 335.564581 563.512333 335.657978 563.71761 335.704676 564.277455 335.807412 564.510724 335.854111 574.168056 337.703363"></polygon>
                    <polygon id="Shape" fill="#FFD300" points="1122.48059 644.230947 1122.48059 672.455394 919.816573 672.455394 570.948945 344.8949 563.279064 337.694023 563.008472 337.441853 562.597919 337.058927 562.569927 337.021568 562.383312 336.853454 562.308665 336.788077 562.12205 336.610623 561.87012 336.367792 561.776812 336.283735 561.739489 336.246376 561.711497 336.218357 561.692836 336.199678 561.674174 336.190338 561.664843 336.180999 561.646182 336.162319 561.636851 336.14364 561.599528 336.124961 561.590197 336.106282 561.580867 336.096942 561.552874 336.068923 561.524882 336.050244 561.487559 336.012885 561.403582 335.938168 561.151652 335.695337 560.965037 335.527223 560.937044 335.499204 560.825075 335.387128 560.787752 335.359109 560.498499 335.088259 560.498499 335.078919 559.630739 334.266369 559.220185 333.883443 559.5281 334.051557 560.423853 334.546559 560.554483 334.621276 560.899721 334.808069 561.198306 334.976183 561.226298 334.985523 561.422244 335.097598 561.459567 335.116278 561.590197 335.190995 561.739489 335.275052 561.786143 335.303071 561.860789 335.34043 561.879451 335.349769 562.047404 335.443166 562.11272 335.471185 562.11272 335.480524 562.280673 335.564581 562.308665 335.583261 562.411304 335.639299 562.420635 335.648638 562.588588 335.742035 562.625911 335.760714 562.812526 335.86345 562.831188 335.87279 563.120441 336.031564 563.586979 336.293075 563.773594 336.395811 564.286786 336.676001 564.482732 336.788077 573.178996 341.579321"></polygon>
                    <polygon id="Shape" fill="#FFD300" points="877.921479 672.455394 746.591092 672.455394 567.869796 347.472646 562.73788 338.142327 562.560596 337.824779 562.290004 337.329777 562.271342 337.301758 562.150043 337.077606 562.103389 336.984209 561.963428 336.741378 561.814135 336.461189 561.74882 336.358452 561.720828 336.302414 561.702166 336.265056 561.692836 336.246376 561.683505 336.227697 561.674174 336.218357 561.674174 336.209018 561.646182 336.162319 561.636851 336.14364 561.62752 336.124961 561.61819 336.106282 561.599528 336.087602 561.580867 336.040904 561.552874 335.994206 561.49689 335.900809 561.338267 335.60194 561.207636 335.368449 561.198306 335.34043 561.179644 335.32175 561.12366 335.200335 561.095667 335.153636 560.899721 334.808069 560.899721 334.798729 560.330545 333.762027 560.059953 333.276365 560.302553 333.528536 560.993029 334.275709 561.114329 334.397124 561.366259 334.667974 561.384921 334.686653 561.599528 334.920145 561.61819 334.938824 561.776812 335.106938 561.804805 335.144297 561.907443 335.247033 562.028743 335.377788 562.066066 335.415147 562.11272 335.471185 562.131381 335.489864 562.262012 335.629959 562.317996 335.685997 562.345989 335.723356 562.448627 335.826092 562.467288 335.844771 562.541934 335.928828 562.551265 335.938168 562.691226 336.087602 562.719219 336.106282 562.868511 336.265056 562.877842 336.283735 563.10178 336.517226 563.10178 336.526566 563.465679 336.909492 563.624302 337.077606 564.016194 337.497891 564.174817 337.666004 570.948945 344.8949"></polygon>
                    <polygon id="Shape" fill="#FFD300" points="720.427653 672.455394 625.94442 672.455394 564.072178 348.761518 562.084727 338.385158 562.028743 338.076949 561.916774 337.497891 561.916774 337.460532 561.87012 337.227041 561.860789 337.208361 561.842128 337.114965 561.842128 337.105625 561.804805 336.881473 561.730159 336.526566 561.711497 336.41449 561.702166 336.349113 561.692836 336.302414 561.683505 336.283735 561.683505 336.255716 561.674174 336.246376 561.674174 336.209018 561.664843 336.180999 561.664843 336.162319 561.655513 336.124961 561.655513 336.096942 561.646182 336.059583 561.62752 335.994206 561.608859 335.88213 561.543544 335.545902 561.49689 335.303071 561.49689 335.275052 561.487559 335.237693 561.459567 335.116278 561.450236 335.069579 561.384921 334.686653 561.37559 334.649295 561.151652 333.472498 561.049013 332.949477 561.188975 333.257686 561.62752 334.182312 561.702166 334.331746 561.860789 334.677314 561.87012 334.686653 562.010081 334.994862 562.019412 335.013542 562.11272 335.228354 562.131381 335.256373 562.196696 335.387128 562.206027 335.415147 562.280673 335.564581 562.290004 335.60194 562.336658 335.685997 562.345989 335.723356 562.420635 335.87279 562.457958 335.947507 562.467288 335.966187 562.523273 336.096942 562.551265 336.14364 562.597919 336.246376 562.597919 336.255716 562.681896 336.43317 562.700557 336.470528 562.793865 336.666661 562.812526 336.69468 562.943157 336.97487 562.952488 336.993549 563.176426 337.479211 563.279064 337.694023 563.512333 338.189025 563.605641 338.394498 567.869796 347.472646"></polygon>
                    <polygon id="Shape" fill="#FFD300" points="604.744943 672.455394 519.424512 672.455394 560.087946 348.864255 561.394251 338.450536 561.431574 338.114308 561.506221 337.544589 561.506221 337.51657 561.543544 337.264399 561.543544 337.24572 561.552874 337.161663 561.552874 337.152323 561.590197 336.900152 561.62752 336.573264 561.646182 336.442509 561.655513 336.386471 561.655513 336.339773 561.664843 336.311754 561.664843 336.274395 561.674174 336.246376 561.674174 336.190338 561.683505 336.162319 561.683505 336.1343 561.692836 336.087602 561.692836 336.031564 561.711497 335.900809 561.758151 335.564581 561.786143 335.33109 561.786143 335.303071 561.795474 335.265712 561.804805 335.144297 561.814135 335.088259 561.87012 334.686653 561.87012 334.677314 562.019412 333.472498 562.084727 332.949477 562.12205 333.276365 562.252681 334.313067 562.271342 334.462502 562.327327 334.845428 562.327327 334.854767 562.36465 335.190995 562.36465 335.200335 562.401973 335.452505 562.401973 335.480524 562.420635 335.629959 562.420635 335.648638 562.448627 335.826092 562.448627 335.86345 562.457958 335.947507 562.467288 335.966187 562.48595 336.15298 562.495281 336.237037 562.523273 336.405151 562.523273 336.451849 562.541934 336.573264 562.560596 336.769397 562.569927 336.816096 562.597919 337.021568 562.597919 337.058927 562.644573 337.376475 562.709888 337.899496 562.73788 338.142327 562.812526 338.712046 562.840519 338.936198 564.072178 348.761518"></polygon>
                    <polygon id="Shape" fill="#FFD300" points="563.064457 333.276365 562.999141 333.612593 562.803196 334.621276 562.784534 334.761371 562.709888 335.153636 562.700557 335.162976 562.644573 335.499204 562.635242 335.517883 562.588588 335.742035 562.588588 335.788733 562.560596 335.928828 562.551265 335.938168 562.523273 336.096942 562.513942 336.14364 562.495281 336.237037 562.457958 336.442509 562.448627 336.526566 562.439296 336.526566 562.439296 336.545245 562.411304 336.69468 562.401973 336.741378 562.383312 336.853454 562.345989 337.058927 562.336658 337.086946 562.290004 337.311097 562.290004 337.329777 562.234019 337.637985 562.224689 337.656665 562.131381 338.179686 562.084727 338.385158 561.982089 338.945538 561.935435 339.179029 560.087946 348.864255 498.234366 672.455394 403.83511 672.455394 556.215682 347.855572 560.713106 338.291762 560.862398 337.974213 561.104998 337.460532 561.114329 337.432513 561.216967 337.208361 561.226298 337.199022 561.263621 337.105625 561.37559 336.862794 561.524882 336.554585 561.571536 336.461189 561.599528 336.395811 561.608859 336.367792 561.62752 336.339773 561.636851 336.311754 561.646182 336.302414 561.646182 336.283735 561.674174 336.246376 561.674174 336.237037 561.683505 336.227697 561.692836 336.199678 561.702166 336.180999 561.720828 336.1343 561.74882 336.078263 561.795474 335.975526 561.954097 335.648638 562.047404 335.443166 562.066066 335.415147 562.075397 335.387128 562.131381 335.256373 562.150043 335.219014 562.327327 334.854767 562.327327 334.845428 562.831188 333.771367"></polygon>
                    <polygon id="Shape" fill="#FFD300" points="563.904225 333.883443 563.736271 334.182312 563.241741 335.078919 563.167095 335.219014 562.98048 335.564581 562.812526 335.86345 562.803196 335.87279 562.691226 336.087602 562.672565 336.115621 562.60725 336.246376 562.597919 336.246376 562.597919 336.255716 562.523273 336.405151 562.495281 336.451849 562.448627 336.526566 562.439296 336.545245 562.345989 336.713359 562.308665 336.788077 562.299335 336.797416 562.234019 336.928171 562.206027 336.96553 562.150043 337.077606 562.047404 337.255059 562.028743 337.292418 561.926105 337.469872 561.916774 337.497891 561.758151 337.78742 561.49689 338.254403 561.394251 338.450536 561.114329 338.954877 561.00236 339.15101 556.215682 347.855572 377.708993 672.455394 246.602544 672.455394 552.893933 345.623393 560.125269 337.918175 560.349207 337.675344 560.741099 337.255059 560.769091 337.23638 560.937044 337.049587 561.00236 336.97487 561.01169 336.96553 561.179644 336.788077 561.422244 336.535906 561.506221 336.442509 561.571536 336.377132 561.590197 336.358452 561.608859 336.339773 561.61819 336.321094 561.636851 336.311754 561.646182 336.302414 561.646182 336.283735 561.664843 336.274395 561.692836 336.246376 561.711497 336.218357 561.87012 336.059583 562.094058 335.816752 562.262012 335.629959 562.290004 335.60194 562.308665 335.583261 562.401973 335.480524 562.429965 335.452505 562.700557 335.162976 562.719219 335.144297 563.530995 334.275709"></polygon>
                    <polygon id="Shape" fill="#FFD300" points="564.510724 334.724012 564.268124 334.957504 563.512333 335.657978 563.400364 335.760714 563.120441 336.031564 562.868511 336.265056 562.85918 336.274395 562.681896 336.43317 562.653903 336.470528 562.541934 336.573264 562.411304 336.69468 562.373981 336.732039 562.308665 336.788077 562.299335 336.797416 562.159373 336.928171 562.103389 336.984209 561.982089 337.096285 561.944766 337.133644 561.860789 337.208361 561.851458 337.217701 561.711497 337.357796 561.683505 337.385815 561.524882 337.535249 561.506221 337.544589 561.272952 337.768741 561.263621 337.768741 560.88106 338.132987 560.713106 338.291762 560.293222 338.684027 560.125269 338.842801 552.893933 345.623393 204.810089 672.455394 0.653152904 672.455394 0.653152904 645.389065 550.495929 342.447909 559.668062 337.395154 559.947984 337.23638 560.461176 336.95619 560.489168 336.937511 560.713106 336.816096 560.722437 336.806756 560.806414 336.769397 561.01169 336.657321 561.328936 336.479868 561.431574 336.41449 561.487559 336.386471 561.524882 336.367792 561.552874 336.358452 561.562205 336.349113 561.590197 336.330433 561.61819 336.321094 561.636851 336.311754 561.646182 336.302414 561.664843 336.293075 561.683505 336.283735 561.702166 336.265056 561.739489 336.246376 561.795474 336.218357 561.907443 336.162319 562.206027 335.994206 562.420635 335.87279 562.448627 335.86345 562.467288 335.844771 562.588588 335.788733 562.625911 335.760714 562.98048 335.564581 562.989811 335.564581 564.044186 334.985523"></polygon>
                    <polygon id="Shape" fill="#FFD300" points="564.82797 335.704676 564.510724 335.854111 563.586979 336.293075 563.447018 336.349113 563.10178 336.517226 563.092449 336.526566 562.793865 336.666661 562.765873 336.676001 562.560596 336.769397 562.513942 336.788077 562.234019 336.928171 562.187366 336.946851 562.103389 336.984209 561.907443 337.077606 561.842128 337.105625 561.842128 337.114965 561.814135 337.124304 561.674174 337.189682 561.646182 337.199022 561.543544 337.24572 561.534213 337.255059 561.347598 337.339116 561.319605 337.357796 561.12366 337.451192 561.104998 337.451192 561.104998 337.460532 560.806414 337.591287 560.806414 337.600627 560.321215 337.824779 560.125269 337.918175 559.593416 338.170346 559.388139 338.263743 550.523921 342.42923 550.495929 342.447909 0.653152904 601.063046 0.653152904 443.745843 549.031 338.730725 559.378808 336.750718 559.733377 336.676001 560.293222 336.573264 560.321215 336.573264 560.563814 336.517226 560.573145 336.517226 560.675783 336.498547 560.937044 336.451849 561.25429 336.386471 561.384921 336.367792 561.440905 336.349113 561.478228 336.349113 561.506221 336.339773 561.534213 336.339773 561.543544 336.330433 561.562205 336.330433 561.61819 336.321094 561.636851 336.311754 561.664843 336.311754 561.692836 336.302414 561.720828 336.302414 561.776812 336.283735 561.786143 336.283735 561.898112 336.265056 562.234019 336.199678 562.48595 336.15298 562.513942 336.14364 562.551265 336.14364 562.672565 336.115621 562.719219 336.106282 563.120441 336.031564 564.277455 335.807412 564.286786 335.807412"></polygon>
                    <polygon id="Shape" fill="#FFD300" points="564.82797 336.741378 564.482732 336.788077 563.465679 336.909492 563.316387 336.928171 563.307056 336.928171 562.943157 336.97487 562.915165 336.984209 562.597919 337.021568 562.569927 337.021568 562.345989 337.049587 562.345989 337.058927 562.299335 337.058927 562.150043 337.077606 561.982089 337.096285 561.926105 337.105625 561.842128 337.114965 561.814135 337.124304 561.636851 337.142984 561.552874 337.152323 561.515551 337.161663 561.384921 337.171003 561.338267 337.180342 561.226298 337.199022 561.207636 337.199022 561.021021 337.217701 560.974367 337.227041 560.769091 337.255059 560.741099 337.255059 560.423853 337.292418 560.405191 337.301758 559.882669 337.367135 559.677392 337.385815 559.668062 337.395154 559.098886 337.460532 558.865617 337.488551 549.031 338.730725 0.653152904 407.769479 0.653152904 265.713277 548.816393 334.724012 559.341485 336.050244 559.677392 336.096942 560.237238 336.162319 560.274561 336.171659 560.51716 336.199678 560.535822 336.199678 560.629129 336.209018 560.63846 336.209018 560.890391 336.246376 561.235629 336.293075 561.338267 336.302414 561.403582 336.311754 561.450236 336.311754 561.478228 336.321094 561.524882 336.321094 561.543544 336.330433 561.590197 336.330433 561.608859 336.339773 561.655513 336.339773 561.702166 336.349113 561.74882 336.349113 561.74882 336.358452 561.87012 336.367792 562.187366 336.405151 562.196696 336.41449 562.457958 336.442509 562.495281 336.451849 562.523273 336.451849 562.653903 336.470528 562.700557 336.470528 563.092449 336.526566 563.10178 336.526566 564.277455 336.676001 564.286786 336.676001"></polygon>
                    <polygon id="Shape" fill="#FFD300" points="564.510724 337.731382 564.174817 337.666004 563.176426 337.479211 563.008472 337.441853 562.644573 337.376475 562.635242 337.376475 562.290004 337.311097 562.290004 337.301758 562.271342 337.301758 562.047404 337.255059 562.000751 337.255059 561.87012 337.227041 561.851458 337.217701 561.674174 337.189682 561.646182 337.180342 561.552874 337.161663 561.515551 337.161663 561.347598 337.124304 561.272952 337.114965 561.263621 337.105625 561.095667 337.077606 561.049013 337.068266 560.937044 337.049587 560.731768 337.012228 560.685114 337.002889 560.479837 336.95619 560.461176 336.95619 560.14393 336.890813 560.134599 336.890813 559.612077 336.797416 559.378808 336.750718 558.818963 336.638642 558.595025 336.601283 548.816393 334.724012 0.653152904 229.746253 0.653152904 72.5224463 550.057383 330.932111 559.500108 335.377788 559.798692 335.517883 560.330545 335.770054 560.349207 335.779393 560.582476 335.88213 560.591806 335.891469 560.666452 335.928828 560.685114 335.928828 560.899721 336.031564 561.216967 336.180999 561.328936 336.237037 561.422244 336.274395 561.450236 336.293075 561.478228 336.302414 561.487559 336.311754 561.524882 336.321094 561.543544 336.330433 561.562205 336.349113 561.590197 336.358452 561.608859 336.367792 561.655513 336.386471 561.711497 336.41449 561.814135 336.461189 562.11272 336.601283 562.12205 336.610623 562.345989 336.713359 562.373981 336.732039 562.401973 336.741378 562.513942 336.788077 562.569927 336.816096 562.915165 336.984209 562.952488 336.993549 562.952488 337.002889 564.016194 337.497891"></polygon>
                    <polygon id="Shape" fill="#FFD300" points="563.605641 338.403837 563.605641 338.394498 562.709888 337.908836 562.709888 337.899496 562.560596 337.824779 562.234019 337.637985 562.215358 337.628646 561.926105 337.469872 561.916774 337.469872 561.916774 337.460532 561.711497 337.357796 561.674174 337.329777 561.543544 337.264399 561.534213 337.255059 561.384921 337.171003 561.37559 337.171003 561.347598 337.152323 561.282282 337.114965 561.263621 337.105625 561.25429 337.105625 561.077006 337.002889 561.01169 336.96553 560.974367 336.946851 560.862398 336.881473 560.815745 336.862794 560.722437 336.806756 560.713106 336.806756 560.535822 336.70402 560.50783 336.68534 560.311884 336.582604 560.293222 336.573264 560.0133 336.41449 560.003969 336.41449 559.537431 336.15298 559.341485 336.050244 558.837624 335.770054 558.641678 335.657978 550.057383 330.932111 550.038722 330.922771 0.653152904 28.2244472 0.653152904 0 203.317168 0 552.100819 327.485777 559.864007 334.77071 560.125269 335.013542 560.535822 335.396467 560.554483 335.424486 560.741099 335.5926 560.750429 335.5926 560.815745 335.657978 560.815745 335.667318 561.021021 335.854111 561.25429 336.078263 561.347598 336.162319 561.394251 336.199678 561.412913 336.227697 561.440905 336.246376 561.459567 336.265056 561.468897 336.274395 561.468897 336.283735 561.515551 336.321094 561.524882 336.321094 561.534213 336.339773 561.552874 336.358452 561.571536 336.377132 561.599528 336.395811 561.646182 336.442509 561.730159 336.517226 561.730159 336.526566 561.963428 336.741378 562.159373 336.928171 562.187366 336.946851 562.299335 337.058927 562.336658 337.086946 562.635242 337.376475 562.644573 337.376475 563.512333 338.189025 563.512333 338.198365 563.904225 338.562612"></polygon>
                    <polygon id="Shape" fill="#FFD300" points="563.064457 339.179029 562.840519 338.936198 562.131381 338.179686 562.028743 338.076949 561.758151 337.78742 561.524882 337.535249 561.506221 337.51657 561.347598 337.339116 561.319605 337.320437 561.216967 337.208361 561.207636 337.199022 561.095667 337.077606 561.058344 337.040247 561.00236 336.97487 560.974367 336.946851 560.853068 336.816096 560.806414 336.769397 560.694445 336.647982 560.657122 336.610623 560.573145 336.517226 560.563814 336.517226 560.423853 336.367792 560.405191 336.339773 560.255899 336.190338 560.237238 336.162319 560.02263 335.928828 560.0133 335.919488 559.6494 335.536562 559.500108 335.377788 559.108216 334.957504 558.949593 334.78939 552.100819 327.485777 245.212262 0 376.533318 0 555.347922 325.150862 560.395861 334.331746 560.554483 334.621276 560.563814 334.621276 560.834406 335.125617 560.853068 335.153636 560.965037 335.368449 560.974367 335.368449 560.974367 335.377788 561.021021 335.461845 561.021021 335.471185 561.142321 335.685997 561.151652 335.695337 561.310275 335.994206 561.366259 336.087602 561.394251 336.14364 561.422244 336.190338 561.440905 336.227697 561.459567 336.255716 561.459567 336.265056 561.468897 336.274395 561.468897 336.283735 561.478228 336.302414 561.49689 336.321094 561.506221 336.339773 561.515551 336.367792 561.524882 336.367792 561.543544 336.405151 561.571536 336.461189 561.62752 336.563925 561.62752 336.573264 561.804805 336.881473 561.804805 336.890813 561.907443 337.077606 561.926105 337.105625 561.944766 337.133644 562.000751 337.255059 562.010081 337.255059 562.028743 337.292418 562.215358 337.628646 562.224689 337.656665 562.812526 338.712046 562.812526 338.721386"></polygon>
                    <polygon id="Shape" fill="#FFD300" points="562.084727 339.496577 561.935435 339.179029 561.49689 338.254403 561.431574 338.114308 561.431574 338.104968 561.272952 337.768741 561.263621 337.759401 561.12366 337.451192 561.114329 337.432513 561.021021 337.217701 561.01169 337.217701 561.00236 337.180342 560.937044 337.049587 560.862398 336.881473 560.834406 336.834775 560.806414 336.769397 560.713106 336.573264 560.675783 336.498547 560.666452 336.479868 560.601137 336.339773 560.582476 336.302414 560.535822 336.199678 560.526491 336.180999 560.451845 336.012885 560.433184 335.975526 560.339876 335.779393 560.330545 335.770054 560.199915 335.471185 560.190584 335.471185 560.190584 335.461845 559.966646 334.985523 559.864007 334.77071 559.630739 334.266369 559.5281 334.051557 555.347922 325.150862 402.706088 0 497.189321 0 559.061562 323.675196 561.039683 334.042217 561.104998 334.387784 561.114329 334.397124 561.216967 334.938824 561.226298 334.985523 561.272952 335.228354 561.272952 335.237693 561.291613 335.33109 561.338267 335.60194 561.338267 335.61128 561.403582 335.938168 561.422244 336.050244 561.431574 336.096942 561.440905 336.1343 561.450236 336.171659 561.450236 336.180999 561.459567 336.209018 561.459567 336.227697 561.468897 336.274395 561.468897 336.283735 561.478228 336.302414 561.478228 336.349113 561.487559 336.386471 561.506221 336.442509 561.506221 336.451849 561.524882 336.554585 561.590197 336.900152 561.590197 336.909492 561.636851 337.142984 561.646182 337.180342 561.646182 337.199022 561.674174 337.329777 561.683505 337.385815 561.758151 337.78742 561.982089 338.945538 561.982089 338.954877"></polygon>
                    <polygon id="Shape" fill="#FFD300" points="603.709229 0 563.064457 323.469724 561.739489 333.976839 561.702166 334.322407 561.702166 334.331746 561.62752 334.901466 561.61819 334.938824 561.590197 335.190995 561.580867 335.293731 561.543544 335.545902 561.543544 335.555242 561.49689 335.900809 561.49689 335.910149 561.487559 336.012885 561.478228 336.068923 561.478228 336.106282 561.468897 336.1343 561.468897 336.190338 561.459567 336.209018 561.459567 336.265056 561.450236 336.293075 561.450236 336.311754 561.440905 336.349113 561.440905 336.41449 561.431574 336.41449 561.422244 336.535906 561.384921 336.853454 561.37559 336.862794 561.347598 337.124304 561.347598 337.152323 561.338267 337.180342 561.319605 337.320437 561.319605 337.357796 561.263621 337.759401 561.263621 337.768741 561.114329 338.945538 561.114329 338.954877 561.049013 339.496577 561.00236 339.15101 560.88106 338.132987 560.862398 337.983553 560.862398 337.974213 560.806414 337.600627 560.806414 337.581948 560.769091 337.255059 560.769091 337.23638 560.741099 337.012228 560.731768 337.012228 560.731768 336.95619 560.713106 336.816096 560.713106 336.806756 560.694445 336.647982 560.685114 336.591944 560.675783 336.498547 560.666452 336.479868 560.647791 336.293075 560.63846 336.209018 560.629129 336.180999 560.610468 336.031564 560.610468 335.994206 560.591806 335.891469 560.591806 335.87279 560.563814 335.676657 560.563814 335.639299 560.535822 335.424486 560.535822 335.396467 560.498499 335.088259 560.489168 335.069579 560.423853 334.546559 560.395861 334.331746 560.330545 333.762027 560.330545 333.752688 560.302553 333.528536 559.061562 323.675196 518.388798 0"></polygon>
                </g>
            </g>
        </g>
    </g>
</svg>