<?xml version="1.0" encoding="UTF-8"?>
<svg width="335px" height="27px" viewBox="0 0 335 27" version="1.1" xmlns="http://www.w3.org/2000/svg" xmlns:xlink="http://www.w3.org/1999/xlink">
    <!-- Generator: Sketch 49 (51002) - http://www.bohemiancoding.com/sketch -->
    <title>socials-sprite</title>
    <desc>Created with Sketch.</desc>
    <defs></defs>
    <g id="Page-1" stroke="none" stroke-width="1" fill="none" fill-rule="evenodd">
        <g id="socials-sprite" fill-rule="nonzero">
            <g id="linkedin" transform="translate(138.000000, 1.000000)" fill="#3A3956">
                <path d="M31.9278109,21.946 C31.9157382,19.5068068 31.9043782,17.0687386 31.8823564,14.6295455 C31.8724073,13.6141477 31.69344,12.6198295 31.3504,11.6765568 C30.7253964,9.95980682 29.5577891,8.83120455 27.7786618,8.228625 C25.8163055,7.56389773 23.7474036,7.43294318 21.6352,7.83911364 C20.2900364,8.09656818 19.1330764,8.60593182 18.1806545,9.35944318 C18.1813673,9.16302273 18.1834909,8.96770455 18.1898909,8.77128409 C18.1927273,8.68139773 18.2019636,8.40506818 17.9533818,8.20643182 C17.7026764,8.00779545 17.3468509,8.00223864 17.2360582,8.01001136 C15.4498327,8.01778409 13.6671709,8.01778409 11.8837818,8.011125 C11.6891782,7.99669318 11.3873309,8.02665909 11.1664582,8.19867045 C10.9462836,8.36956818 10.9214255,8.59484091 10.9214255,8.75020455 C10.9306618,13.8915795 10.9299491,19.0329659 10.9214255,24.1754545 C10.9214255,24.3319318 10.9469964,24.5594205 11.1671709,24.7303182 C11.38592,24.9023295 11.6579345,24.9200795 11.8773964,24.9189773 C13.7438691,24.9101023 15.6096436,24.9101023 17.4761164,24.9189773 C17.4825018,24.9189773 17.4881891,24.9189773 17.4945891,24.9189773 C17.6927418,24.9189773 17.9711564,24.8978977 18.1820945,24.7336477 C18.4001309,24.5638636 18.4242764,24.3341477 18.4235782,24.1765682 C18.4115055,21.7351591 18.4079564,19.29375 18.4228655,16.8523523 C18.4271273,16.2586477 18.4740073,15.6649432 18.5620655,15.0889886 C18.6622109,14.4320341 18.9320873,13.9259886 19.3866327,13.5409205 C19.9363491,13.0748295 20.6693091,12.8972727 21.7971491,12.8995 C23.0592291,12.9183636 23.78224,13.3433864 24.1394764,14.28 C24.3908945,14.9391818 24.4122036,15.6327614 24.4129164,16.3452045 L24.4136291,24.1410568 C24.4136291,24.7258864 24.6522618,24.9134318 25.3944582,24.9134318 L30.8617891,24.9145455 C31.2332364,24.9145455 31.5017018,24.9134318 31.7211636,24.7414318 C31.9406255,24.5683182 31.9399127,24.3519205 31.9384873,24.0778182 L31.9278109,21.946 Z" id="Shape"></path>
                <path d="M8.04853818,16.4794659 L8.04782545,14.6528523 C8.0464,12.6908523 8.04570182,10.7299545 8.05634909,8.76795455 C8.05706182,8.59151136 8.03006545,8.36622727 7.81131636,8.19644318 C7.59185455,8.02443182 7.26798545,7.99447727 7.09256727,8.00889773 C5.23674182,8.02 3.38305455,8.01888636 1.53006545,8.01001136 C1.30279273,8.01555682 1.02296727,8.02665909 0.800669091,8.19977273 C0.576945455,8.37288636 0.552087273,8.60593182 0.552087273,8.76573864 C0.562036364,13.897125 0.562036364,19.0296364 0.552087273,24.1621364 C0.552087273,24.3230455 0.578370909,24.5572045 0.801381818,24.7303182 C1.02439273,24.9023295 1.33050182,24.9045455 1.52653091,24.9189773 C3.38164364,24.907875 5.23604364,24.907875 7.08974545,24.9189773 C7.09684364,24.9189773 7.10324364,24.9189773 7.11034182,24.9189773 C7.32909091,24.9189773 7.60181818,24.8956705 7.81275636,24.7314318 C8.03079273,24.5616477 8.05778909,24.3385909 8.05707636,24.1621364 C8.04571636,22.1934773 8.04642909,20.2225909 8.04784,18.2528182 L8.04853818,16.4794659 Z" id="Shape"></path>
                <path d="M4.32766545,0.0809886364 C4.31771636,0.0809886364 4.30849455,0.0809886364 4.29925818,0.0809886364 C1.92709818,0.0909772727 0.0656,1.55138636 0.0613381818,3.404625 C0.0613381818,3.40573864 0.0613381818,3.40573864 0.0613381818,3.40573864 C0.0613381818,4.28907955 0.525832727,5.15467045 1.33618909,5.78055682 C2.13093818,6.39535227 3.17070545,6.73270455 4.268,6.73270455 C4.28221091,6.73270455 4.29712,6.73159091 4.31133091,6.73159091 C6.74811636,6.71272727 8.58193455,5.28117045 8.57696,3.40129545 C8.57483636,2.48910227 8.13662545,1.64680682 7.34258909,1.03090909 C6.55067636,0.417238636 5.48107636,0.0809886364 4.32766545,0.0809886364 Z" id="Shape"></path>
            </g>
            <g id="medium-w" transform="translate(104.000000, 1.000000)" fill="#FFFFFF">
                <path d="M10.660714,4.69084 L10.660714,24.133794 C10.660714,24.410051 10.58631,24.644869 10.4375,24.838249 C10.28869,25.031629 10.071429,25.128319 9.785714,25.128319 C9.583333,25.128319 9.386905,25.084117 9.196429,24.995715 L0.892857,21.133645 C0.642857,21.023143 0.431548,20.83805 0.258929,20.578369 C0.08631,20.318688 0,20.061769 0,19.807613 L0,0.911647 C0,0.690642 0.059524,0.502787 0.178571,0.348084 C0.297619,0.19338 0.470238,0.116028 0.696429,0.116028 C0.863095,0.116028 1.125,0.198905 1.482143,0.364659 L10.607143,4.607963 C10.642857,4.641114 10.660714,4.66874 10.660714,4.69084 Z M11.803571,6.364957 L21.339286,20.71926 L11.803571,16.310202 L11.803571,6.364957 Z M32,6.663314 L32,24.133794 C32,24.410051 31.916667,24.633819 31.75,24.805098 C31.583333,24.976377 31.357143,25.062017 31.071429,25.062017 C30.785714,25.062017 30.505952,24.99019 30.232143,24.846537 L22.357143,21.199947 L32,6.663314 Z M31.946429,4.674265 C31.946429,4.707416 30.419643,7.02521 27.366071,11.627649 C24.3125,16.230087 22.52381,18.923591 22,19.70816 L15.035714,9.199351 L20.821429,0.464111 C21.02381,0.154704 21.333333,0 21.75,0 C21.916667,0 22.071429,0.033151 22.214286,0.099452 L31.875,4.574813 C31.922619,4.596913 31.946429,4.630064 31.946429,4.674265 Z" id="medium-copy"></path>
            </g>
            <g id="medium" transform="translate(172.000000, 0.000000)" fill="#3A3955">
                <path d="M10.66,5.04 L10.66,25.94 C10.66,26.23 10.59,26.48 10.44,26.69 C10.2903591,26.8973983 10.0453496,27.014249 9.79,27 C9.59,27 9.39,26.95 9.19,26.86 L0.89,22.71 C0.626026083,22.5756542 0.407055146,22.3671105 0.26,22.11 C0.0968977064,21.8633397 0.00677217358,21.5756312 4.54747351e-13,21.28 L4.54747351e-13,0.98 C4.54747351e-13,0.74 0.06,0.54 0.18,0.38 C0.296965855,0.209536188 0.493449438,0.111294396 0.7,0.12 C0.86,0.12 1.13,0.22 1.48,0.39 L10.61,4.95 L10.66,5.04 Z M11.8,6.84 L21.34,22.26 L11.8,17.53 L11.8,6.84 Z M32,7.16 L32,25.93 C32,26.23 31.92,26.47 31.75,26.65 C31.57586,26.8392526 31.3269103,26.9417612 31.07,26.93 C30.79,26.93 30.51,26.85 30.23,26.7 L22.36,22.78 L32,7.16 Z M31.95,5.02 C28.6413309,10.4082565 25.3246605,15.7915958 22,21.17 L15.04,9.88 L20.82,0.5 C21.02,0.17 21.33,0 21.75,0 C21.92,0 22.07,0.04 22.21,0.1 L31.88,4.92 C31.92,4.94 31.95,4.97 31.95,5.02 Z" id="dy90a"></path>
            </g>
            <g id="telegram-min" transform="translate(0.000000, 2.000000)">
                <path d="M241.565215,11.9874092 L248.938665,14.4567811 L251.792642,22.6925192 C251.975255,23.2199885 252.694083,23.414954 253.171204,23.0649349 L257.281289,20.0584268 C257.712116,19.7434383 258.32577,19.7277415 258.776011,20.0210033 L266.189141,24.8503482 C266.699541,25.1832348 267.422636,24.9322778 267.550636,24.3788705 L272.98115,0.939841343 C273.120883,0.335323791 272.458909,-0.168983204 271.817415,0.0536431138 L241.556575,10.5284698 C240.809801,10.7868925 240.816307,11.7355907 241.565215,11.9874092 Z M251.332695,13.1422712 L265.743167,5.17835548 C266.002154,5.03564875 266.268608,5.34987154 266.046207,5.53497872 L254.153392,15.4545796 C253.735364,15.8037373 253.465711,16.2710037 253.389337,16.7781821 L252.984217,19.4720945 C252.930563,19.8317805 252.367469,19.8674812 252.256856,19.5193763 L250.698774,14.6069533 C250.52032,14.0466548 250.780374,13.4481671 251.332695,13.1422712 Z" id="XMLID_497_" fill="#3A3955"></path>
                <path d="M0.565215093,11.9874092 L7.93866479,14.4567811 L10.7926418,22.6925192 C10.9752554,23.2199885 11.694083,23.414954 12.1712036,23.0649349 L16.281289,20.0584268 C16.7121163,19.7434383 17.3257704,19.7277415 17.776011,20.0210033 L25.1891407,24.8503482 C25.6995414,25.1832348 26.4226356,24.9322778 26.5506358,24.3788705 L31.9811496,0.939841343 C32.1208831,0.335323791 31.4589089,-0.168983204 30.8174147,0.0536431136 L0.556575093,10.5284698 C-0.190199207,10.7868925 -0.183692507,11.7355907 0.565215093,11.9874092 Z M10.3326946,13.1422712 L24.7431668,5.17835548 C25.0021538,5.03564875 25.2686075,5.34987154 25.0462072,5.53497872 L13.1533916,15.4545796 C12.7353644,15.8037373 12.4657107,16.2710037 12.3893373,16.7781821 L11.9842167,19.4720945 C11.9305633,19.8317805 11.3674693,19.8674812 11.2568558,19.5193763 L9.69877369,14.6069533 C9.52032019,14.0466548 9.78037379,13.4481671 10.3326946,13.1422712 Z" id="XMLID_497_-Copy" fill="#FFFFFF"></path>
            </g>
            <g id="twitter-w" transform="translate(69.000000, 1.000000)" fill="#FFFFFF">
                <path d="M32.441488,2.904466 C31.248878,3.397839 29.96539,3.730636 28.618683,3.879567 C29.993707,3.11346 31.048024,1.899946 31.54522,0.45231 C30.259098,1.162644 28.835341,1.678081 27.318732,1.956332 C26.105049,0.752624 24.375073,0 22.460707,0 C18.785415,0 15.805537,2.773308 15.805537,6.194437 C15.805537,6.67923 15.864146,7.151765 15.978073,7.605913 C10.446366,7.347275 5.541585,4.881636 2.25878,1.133839 C1.685854,2.048264 1.357902,3.112234 1.357902,4.248524 C1.357902,6.397302 2.532732,8.293571 4.318683,9.40412 C3.228146,9.371637 2.201488,9.092774 1.303902,8.628819 C1.303244,8.654561 1.303244,8.680915 1.303244,8.707269 C1.303244,11.707958 3.597585,14.210983 6.642659,14.780967 C6.08422,14.921931 5.496146,14.997929 4.888976,14.997929 C4.45961,14.997929 4.042756,14.959317 3.636439,14.886384 C4.483976,17.34712 6.941634,19.138585 9.853683,19.188229 C7.575805,20.849763 4.706561,21.840186 1.587732,21.840186 C1.051024,21.840186 0.520902,21.810768 0,21.753156 C2.946293,23.511526 6.444439,24.536271 10.202707,24.536271 C22.445561,24.536271 29.139585,15.097829 29.139585,6.912126 C29.139585,6.643682 29.133659,6.375851 29.121146,6.109859 C30.421098,5.238335 31.549829,4.146785 32.441488,2.904466 Z" id="twitter-copy"></path>
            </g>
            <g id="twitter" transform="translate(206.000000, 0.000000)" fill="#3A3955">
                <path d="M32.82,3.33 C31.62,3.86 30.35,4.22 29,4.38 C30.39116,3.5498586 31.4326435,2.24178385 31.93,0.7 C30.6221696,1.47404483 29.1915209,2.01857071 27.7,2.31 C25.6435587,0.0968385644 22.353682,-0.452021755 19.6901557,0.973692902 C17.0266295,2.39940756 15.6588374,5.441394 16.36,8.38 C11.0082325,8.11298868 6.02134164,5.58683039 2.64,1.43 C0.864344141,4.47131527 1.76766458,8.36962534 4.7,10.32 C3.64072091,10.2850342 2.60520092,9.99700876 1.68,9.48 L1.68,9.57 C1.68,12.79 3.98,15.47 7.02,16.09 C6.04195375,16.3564296 5.01620182,16.3974597 4.02,16.21 C4.89083909,18.9182443 7.38573365,20.7743495 10.23,20.83 C7.4418459,23.0177695 3.89819744,24.007113 0.38,23.58 C3.42123317,25.5390419 6.96241183,26.5805651 10.58,26.58 C22.83,26.58 29.52,16.43 29.52,7.64 C29.52,7.34 29.52,7.06 29.5,6.77 C30.8,5.84 31.93,4.67 32.82,3.33 Z" id="rfkra"></path>
            </g>
            <g id="linkedin-w" transform="translate(35.000000, 1.000000)" fill="#FFFFFF">
                <path d="M31.9278109,21.946 C31.9157382,19.5068068 31.9043782,17.0687386 31.8823564,14.6295455 C31.8724073,13.6141477 31.69344,12.6198295 31.3504,11.6765568 C30.7253964,9.95980682 29.5577891,8.83120455 27.7786618,8.228625 C25.8163055,7.56389773 23.7474036,7.43294318 21.6352,7.83911364 C20.2900364,8.09656818 19.1330764,8.60593182 18.1806545,9.35944318 C18.1813673,9.16302273 18.1834909,8.96770455 18.1898909,8.77128409 C18.1927273,8.68139773 18.2019636,8.40506818 17.9533818,8.20643182 C17.7026764,8.00779545 17.3468509,8.00223864 17.2360582,8.01001136 C15.4498327,8.01778409 13.6671709,8.01778409 11.8837818,8.011125 C11.6891782,7.99669318 11.3873309,8.02665909 11.1664582,8.19867045 C10.9462836,8.36956818 10.9214255,8.59484091 10.9214255,8.75020455 C10.9306618,13.8915795 10.9299491,19.0329659 10.9214255,24.1754545 C10.9214255,24.3319318 10.9469964,24.5594205 11.1671709,24.7303182 C11.38592,24.9023295 11.6579345,24.9200795 11.8773964,24.9189773 C13.7438691,24.9101023 15.6096436,24.9101023 17.4761164,24.9189773 C17.4825018,24.9189773 17.4881891,24.9189773 17.4945891,24.9189773 C17.6927418,24.9189773 17.9711564,24.8978977 18.1820945,24.7336477 C18.4001309,24.5638636 18.4242764,24.3341477 18.4235782,24.1765682 C18.4115055,21.7351591 18.4079564,19.29375 18.4228655,16.8523523 C18.4271273,16.2586477 18.4740073,15.6649432 18.5620655,15.0889886 C18.6622109,14.4320341 18.9320873,13.9259886 19.3866327,13.5409205 C19.9363491,13.0748295 20.6693091,12.8972727 21.7971491,12.8995 C23.0592291,12.9183636 23.78224,13.3433864 24.1394764,14.28 C24.3908945,14.9391818 24.4122036,15.6327614 24.4129164,16.3452045 L24.4136291,24.1410568 C24.4136291,24.7258864 24.6522618,24.9134318 25.3944582,24.9134318 L30.8617891,24.9145455 C31.2332364,24.9145455 31.5017018,24.9134318 31.7211636,24.7414318 C31.9406255,24.5683182 31.9399127,24.3519205 31.9384873,24.0778182 L31.9278109,21.946 Z" id="Shape"></path>
                <path d="M8.04853818,16.4794659 L8.04782545,14.6528523 C8.0464,12.6908523 8.04570182,10.7299545 8.05634909,8.76795455 C8.05706182,8.59151136 8.03006545,8.36622727 7.81131636,8.19644318 C7.59185455,8.02443182 7.26798545,7.99447727 7.09256727,8.00889773 C5.23674182,8.02 3.38305455,8.01888636 1.53006545,8.01001136 C1.30279273,8.01555682 1.02296727,8.02665909 0.800669091,8.19977273 C0.576945455,8.37288636 0.552087273,8.60593182 0.552087273,8.76573864 C0.562036364,13.897125 0.562036364,19.0296364 0.552087273,24.1621364 C0.552087273,24.3230455 0.578370909,24.5572045 0.801381818,24.7303182 C1.02439273,24.9023295 1.33050182,24.9045455 1.52653091,24.9189773 C3.38164364,24.907875 5.23604364,24.907875 7.08974545,24.9189773 C7.09684364,24.9189773 7.10324364,24.9189773 7.11034182,24.9189773 C7.32909091,24.9189773 7.60181818,24.8956705 7.81275636,24.7314318 C8.03079273,24.5616477 8.05778909,24.3385909 8.05707636,24.1621364 C8.04571636,22.1934773 8.04642909,20.2225909 8.04784,18.2528182 L8.04853818,16.4794659 Z" id="Shape"></path>
                <path d="M4.32766545,0.0809886364 C4.31771636,0.0809886364 4.30849455,0.0809886364 4.29925818,0.0809886364 C1.92709818,0.0909772727 0.0656,1.55138636 0.0613381818,3.404625 C0.0613381818,3.40573864 0.0613381818,3.40573864 0.0613381818,3.40573864 C0.0613381818,4.28907955 0.525832727,5.15467045 1.33618909,5.78055682 C2.13093818,6.39535227 3.17070545,6.73270455 4.268,6.73270455 C4.28221091,6.73270455 4.29712,6.73159091 4.31133091,6.73159091 C6.74811636,6.71272727 8.58193455,5.28117045 8.57696,3.40129545 C8.57483636,2.48910227 8.13662545,1.64680682 7.34258909,1.03090909 C6.55067636,0.417238636 5.48107636,0.0809886364 4.32766545,0.0809886364 Z" id="Shape"></path>
            </g>
            <g id="github-logo" transform="translate(276.000000, 0.000000)" fill="#3A3956">
                <path d="M26.1219941,6.88275838 C24.8700752,4.76539381 23.1719272,3.08907332 21.0271032,1.85341878 C18.8819599,0.617701221 16.540103,0 13.9998723,0 C11.4599609,0 9.11733775,0.617890293 6.97264141,1.85341878 C4.82762584,3.0890103 3.12954172,4.76539381 1.87762287,6.88275838 C0.625895573,9.00005993 0,11.3121697 0,13.8190244 C0,16.8303258 0.89003206,19.538165 2.67054311,21.9432356 C4.45086262,24.3484951 6.75077187,26.012841 9.57007931,26.9364622 C9.89825469,26.9965874 10.1411939,26.9542981 10.2991522,26.8106657 C10.4571744,26.6668442 10.5360897,26.4867208 10.5360897,26.2710516 C10.5360897,26.2350647 10.5329612,25.9113089 10.5268957,25.2994059 C10.5206387,24.6875029 10.5177017,24.153687 10.5177017,23.6982104 L10.0984161,23.7698059 C9.83108727,23.8181457 9.49384557,23.8386285 9.08669102,23.8328303 C8.67972801,23.8272211 8.2572501,23.7851209 7.8198319,23.7068447 C7.38222216,23.6292618 6.97519531,23.4493274 6.59843209,23.1674196 C6.22186042,22.8855119 5.95453156,22.5165047 5.79650937,22.0609649 L5.61422519,21.6468953 C5.49272368,21.3712269 5.30143702,21.0649918 5.04010982,20.7293244 C4.77878262,20.3933418 4.51451843,20.165572 4.24718957,20.0456367 L4.11955873,19.9554489 C4.03451406,19.8955128 3.95559873,19.823224 3.8826212,19.7393386 C3.80970753,19.6554533 3.75511805,19.5715049 3.71866121,19.4874305 C3.68214053,19.4032931 3.71240417,19.3342813 3.80977138,19.2801436 C3.90713859,19.2260057 4.08310189,19.1997245 4.33842744,19.1997245 L4.70286812,19.2534842 C4.94593497,19.3015717 5.24659215,19.4452042 5.60522272,19.6852637 C5.96366174,19.9251342 6.25831726,20.2369785 6.48925312,20.6206705 C6.76890452,21.1126382 7.10582699,21.4875068 7.50097823,21.7454653 C7.89581024,22.0034238 8.29389847,22.1321824 8.69485983,22.1321824 C9.09582119,22.1321824 9.44212922,22.1021829 9.73391161,22.0424988 C10.0253748,21.9824997 10.298833,21.8923119 10.5541585,21.7724396 C10.663529,20.9683756 10.9613131,20.3506744 11.4472552,19.9188948 C10.7546392,19.8470471 10.131936,19.7388344 9.57882639,19.5949499 C9.02603604,19.4508764 8.45479379,19.2170561 7.86548276,18.8928592 C7.27585247,18.5691033 6.78671792,18.1670713 6.39795141,17.6874563 C6.00912105,17.2075893 5.69001199,16.5775983 5.44107118,15.7980506 C5.19200267,15.0181879 5.06743648,14.118579 5.06743648,13.0989717 C5.06743648,11.6472068 5.54756856,10.4118044 6.50764116,9.39207111 C6.05790043,8.30061619 6.10035891,7.07706232 6.63514432,5.72153555 C6.98758169,5.61344887 7.5102361,5.69456114 8.20285216,5.9643682 C8.8955959,6.2343013 9.40279925,6.46553747 9.72497298,6.65725741 C10.0471467,6.84891432 10.3052815,7.01132796 10.4997605,7.14304876 C11.6301779,6.83126752 12.7967329,6.67534539 13.9997446,6.67534539 C15.2027564,6.67534539 16.3695667,6.83126752 17.5000479,7.14304876 L18.1927278,6.71139529 C18.6664112,6.42337421 19.2257779,6.15942843 19.8694869,5.91949489 C20.5135789,5.67968741 21.0060975,5.61363794 21.3465315,5.72172462 C21.8931925,7.07731441 21.9419081,8.30080526 21.4920396,9.39226018 C22.4520484,10.4119934 22.932372,11.647711 22.932372,13.0991608 C22.932372,14.118768 22.8073588,15.021213 22.5586734,15.8070631 C22.3096688,16.5930392 21.9878143,17.2223999 21.5929822,17.6964687 C21.1977033,18.1704745 20.7054402,18.5693554 20.1161292,18.8930482 C19.5266905,19.2169932 18.9552567,19.4508133 18.4024663,19.5948869 C17.8494206,19.7389605 17.2267174,19.8472362 16.5341013,19.91921 C17.165807,20.4588241 17.4817237,21.3105976 17.4817237,22.4741523 L17.4817237,26.2705474 C17.4817237,26.4862166 17.5577021,26.666277 17.7097865,26.8101615 C17.8616793,26.9537939 18.1015538,26.9960832 18.4297291,26.9358951 C21.2494196,26.0123999 23.549329,24.347991 25.3295846,21.9427314 C27.1096487,19.5376608 28,16.8298216 28,13.8185202 C27.9993615,11.3119805 27.3731467,9.00005993 26.1219941,6.88275838 Z" id="Shape"></path>
            </g>
            <path d="M333.391189,17.2084123 L330.88444,18.0521771 L331.746566,20.6137247 C332.162598,21.849832 331.497785,23.1890671 330.261773,23.6050986 C329.025665,24.0211301 327.68643,23.3563169 327.270399,22.1203048 L326.408273,19.558662 L321.254068,21.2934743 L322.126183,23.8846093 C322.542215,25.1207166 321.877401,26.4599518 320.641389,26.8759832 C319.405282,27.2920147 318.066047,26.6272967 317.650015,25.3911894 L316.7779,22.8000544 L314.386266,23.6050035 C313.150159,24.0210349 311.810924,23.3562218 311.394892,22.1202096 C310.978861,20.8841024 311.643579,19.5448672 312.879686,19.1288357 L315.27132,18.3238866 L313.572374,13.2761394 L311.115381,14.103065 C309.879274,14.5190965 308.540039,13.8543784 308.124007,12.6182712 C307.707976,11.3821639 308.372789,10.0429288 309.608801,9.62689727 L312.065794,8.79997166 L311.253424,6.386266 C310.837393,5.15025386 311.502206,3.81092359 312.738218,3.39498724 C313.974325,2.97895575 315.313561,3.64367379 315.729592,4.87978107 L316.541962,7.2933916 L321.696167,5.5585793 L320.873808,3.11538135 C320.457776,1.87927408 321.122589,0.54003894 322.358601,0.124007453 C323.594709,-0.292024034 324.933944,0.372789145 325.349975,1.60880128 L326.172334,4.05199923 L328.613725,3.23030613 C329.849832,2.81427464 331.189067,3.47899268 331.605099,4.71509996 C332.02113,5.95120723 331.356412,7.29044237 330.120305,7.70647386 L327.678914,8.52816696 L329.37786,13.5760093 L331.884609,12.7322446 C333.120717,12.3162131 334.459952,12.9810263 334.875983,14.2170384 C335.292015,15.4531457 334.627297,16.7923808 333.391189,17.2084123 Z M319.928067,16.6668641 L324.666864,15.0719325 L323.071933,10.3331359 L318.333136,11.9280675 L319.928067,16.6668641 Z" id="Combined-Shape" fill="#3A3956"></path>
        </g>
    </g>
</svg>