<?xml version="1.0" encoding="UTF-8"?>
<svg width="274px" height="27px" viewBox="0 0 274 27" version="1.1" xmlns="http://www.w3.org/2000/svg" xmlns:xlink="http://www.w3.org/1999/xlink">
    <!-- Generator: Sketch 49.3 (51167) - http://www.bohemiancoding.com/sketch -->
    <title>socials-sprite</title>
    <desc>Created with Sketch.</desc>
    <defs></defs>
    <g id="Page-1" stroke="none" stroke-width="1" fill="none" fill-rule="evenodd">
        <g id="socials-sprite" fill-rule="nonzero">
            <g id="linkedin" transform="translate(103.000000, 1.000000)" fill="#3A3956">
                <path d="M31.9278109,21.946 C31.9157382,19.5068068 31.9043782,17.0687386 31.8823564,14.6295455 C31.8724073,13.6141477 31.69344,12.6198295 31.3504,11.6765568 C30.7253964,9.95980682 29.5577891,8.83120455 27.7786618,8.228625 C25.8163055,7.56389773 23.7474036,7.43294318 21.6352,7.83911364 C20.2900364,8.09656818 19.1330764,8.60593182 18.1806545,9.35944318 C18.1813673,9.16302273 18.1834909,8.96770455 18.1898909,8.77128409 C18.1927273,8.68139773 18.2019636,8.40506818 17.9533818,8.20643182 C17.7026764,8.00779545 17.3468509,8.00223864 17.2360582,8.01001136 C15.4498327,8.01778409 13.6671709,8.01778409 11.8837818,8.011125 C11.6891782,7.99669318 11.3873309,8.02665909 11.1664582,8.19867045 C10.9462836,8.36956818 10.9214255,8.59484091 10.9214255,8.75020455 C10.9306618,13.8915795 10.9299491,19.0329659 10.9214255,24.1754545 C10.9214255,24.3319318 10.9469964,24.5594205 11.1671709,24.7303182 C11.38592,24.9023295 11.6579345,24.9200795 11.8773964,24.9189773 C13.7438691,24.9101023 15.6096436,24.9101023 17.4761164,24.9189773 C17.4825018,24.9189773 17.4881891,24.9189773 17.4945891,24.9189773 C17.6927418,24.9189773 17.9711564,24.8978977 18.1820945,24.7336477 C18.4001309,24.5638636 18.4242764,24.3341477 18.4235782,24.1765682 C18.4115055,21.7351591 18.4079564,19.29375 18.4228655,16.8523523 C18.4271273,16.2586477 18.4740073,15.6649432 18.5620655,15.0889886 C18.6622109,14.4320341 18.9320873,13.9259886 19.3866327,13.5409205 C19.9363491,13.0748295 20.6693091,12.8972727 21.7971491,12.8995 C23.0592291,12.9183636 23.78224,13.3433864 24.1394764,14.28 C24.3908945,14.9391818 24.4122036,15.6327614 24.4129164,16.3452045 L24.4136291,24.1410568 C24.4136291,24.7258864 24.6522618,24.9134318 25.3944582,24.9134318 L30.8617891,24.9145455 C31.2332364,24.9145455 31.5017018,24.9134318 31.7211636,24.7414318 C31.9406255,24.5683182 31.9399127,24.3519205 31.9384873,24.0778182 L31.9278109,21.946 Z" id="Shape"></path>
                <path d="M8.04853818,16.4794659 L8.04782545,14.6528523 C8.0464,12.6908523 8.04570182,10.7299545 8.05634909,8.76795455 C8.05706182,8.59151136 8.03006545,8.36622727 7.81131636,8.19644318 C7.59185455,8.02443182 7.26798545,7.99447727 7.09256727,8.00889773 C5.23674182,8.02 3.38305455,8.01888636 1.53006545,8.01001136 C1.30279273,8.01555682 1.02296727,8.02665909 0.800669091,8.19977273 C0.576945455,8.37288636 0.552087273,8.60593182 0.552087273,8.76573864 C0.562036364,13.897125 0.562036364,19.0296364 0.552087273,24.1621364 C0.552087273,24.3230455 0.578370909,24.5572045 0.801381818,24.7303182 C1.02439273,24.9023295 1.33050182,24.9045455 1.52653091,24.9189773 C3.38164364,24.907875 5.23604364,24.907875 7.08974545,24.9189773 C7.09684364,24.9189773 7.10324364,24.9189773 7.11034182,24.9189773 C7.32909091,24.9189773 7.60181818,24.8956705 7.81275636,24.7314318 C8.03079273,24.5616477 8.05778909,24.3385909 8.05707636,24.1621364 C8.04571636,22.1934773 8.04642909,20.2225909 8.04784,18.2528182 L8.04853818,16.4794659 Z" id="Shape"></path>
                <path d="M4.32766545,0.0809886364 C4.31771636,0.0809886364 4.30849455,0.0809886364 4.29925818,0.0809886364 C1.92709818,0.0909772727 0.0656,1.55138636 0.0613381818,3.404625 C0.0613381818,3.40573864 0.0613381818,3.40573864 0.0613381818,3.40573864 C0.0613381818,4.28907955 0.525832727,5.15467045 1.33618909,5.78055682 C2.13093818,6.39535227 3.17070545,6.73270455 4.268,6.73270455 C4.28221091,6.73270455 4.29712,6.73159091 4.31133091,6.73159091 C6.74811636,6.71272727 8.58193455,5.28117045 8.57696,3.40129545 C8.57483636,2.48910227 8.13662545,1.64680682 7.34258909,1.03090909 C6.55067636,0.417238636 5.48107636,0.0809886364 4.32766545,0.0809886364 Z" id="Shape"></path>
            </g>
            <g id="medium-w" transform="translate(69.000000, 1.000000)" fill="#FFFFFF">
                <path d="M10.660714,4.69084 L10.660714,24.133794 C10.660714,24.410051 10.58631,24.644869 10.4375,24.838249 C10.28869,25.031629 10.071429,25.128319 9.785714,25.128319 C9.583333,25.128319 9.386905,25.084117 9.196429,24.995715 L0.892857,21.133645 C0.642857,21.023143 0.431548,20.83805 0.258929,20.578369 C0.08631,20.318688 0,20.061769 0,19.807613 L0,0.911647 C0,0.690642 0.059524,0.502787 0.178571,0.348084 C0.297619,0.19338 0.470238,0.116028 0.696429,0.116028 C0.863095,0.116028 1.125,0.198905 1.482143,0.364659 L10.607143,4.607963 C10.642857,4.641114 10.660714,4.66874 10.660714,4.69084 Z M11.803571,6.364957 L21.339286,20.71926 L11.803571,16.310202 L11.803571,6.364957 Z M32,6.663314 L32,24.133794 C32,24.410051 31.916667,24.633819 31.75,24.805098 C31.583333,24.976377 31.357143,25.062017 31.071429,25.062017 C30.785714,25.062017 30.505952,24.99019 30.232143,24.846537 L22.357143,21.199947 L32,6.663314 Z M31.946429,4.674265 C31.946429,4.707416 30.419643,7.02521 27.366071,11.627649 C24.3125,16.230087 22.52381,18.923591 22,19.70816 L15.035714,9.199351 L20.821429,0.464111 C21.02381,0.154704 21.333333,0 21.75,0 C21.916667,0 22.071429,0.033151 22.214286,0.099452 L31.875,4.574813 C31.922619,4.596913 31.946429,4.630064 31.946429,4.674265 Z" id="medium-copy"></path>
            </g>
            <g id="medium" transform="translate(137.000000, 0.000000)" fill="#3A3955">
                <path d="M10.66,5.04 L10.66,25.94 C10.66,26.23 10.59,26.48 10.44,26.69 C10.2903591,26.8973983 10.0453496,27.014249 9.79,27 C9.59,27 9.39,26.95 9.19,26.86 L0.89,22.71 C0.626026083,22.5756542 0.407055146,22.3671105 0.26,22.11 C0.0968977064,21.8633397 0.00677217358,21.5756312 4.54747351e-13,21.28 L4.54747351e-13,0.98 C4.54747351e-13,0.74 0.06,0.54 0.18,0.38 C0.296965855,0.209536188 0.493449438,0.111294396 0.7,0.12 C0.86,0.12 1.13,0.22 1.48,0.39 L10.61,4.95 L10.66,5.04 Z M11.8,6.84 L21.34,22.26 L11.8,17.53 L11.8,6.84 Z M32,7.16 L32,25.93 C32,26.23 31.92,26.47 31.75,26.65 C31.57586,26.8392526 31.3269103,26.9417612 31.07,26.93 C30.79,26.93 30.51,26.85 30.23,26.7 L22.36,22.78 L32,7.16 Z M31.95,5.02 C28.6413309,10.4082565 25.3246605,15.7915958 22,21.17 L15.04,9.88 L20.82,0.5 C21.02,0.17 21.33,0 21.75,0 C21.92,0 22.07,0.04 22.21,0.1 L31.88,4.92 C31.92,4.94 31.95,4.97 31.95,5.02 Z" id="dy90a"></path>
            </g>
            <g id="telegram-min" transform="translate(206.000000, 2.000000)">
                <path d="M0.56521512,11.9874092 L7.93866477,14.4567811 L10.7926418,22.6925192 C10.9752554,23.2199885 11.694083,23.414954 12.1712036,23.0649349 L16.281289,20.0584268 C16.7121163,19.7434383 17.3257704,19.7277415 17.776011,20.0210033 L25.1891407,24.8503482 C25.6995414,25.1832348 26.4226356,24.9322778 26.5506358,24.3788705 L31.9811496,0.939841343 C32.1208831,0.335323791 31.4589089,-0.168983204 30.8174147,0.0536431138 L0.556575109,10.5284698 C-0.190199202,10.7868925 -0.183692527,11.7355907 0.56521512,11.9874092 Z M10.3326946,13.1422712 L24.7431668,5.17835548 C25.0021538,5.03564875 25.2686075,5.34987154 25.0462072,5.53497872 L13.1533916,15.4545796 C12.7353644,15.8037373 12.4657107,16.2710037 12.3893373,16.7781821 L11.9842167,19.4720945 C11.9305633,19.8317805 11.3674693,19.8674812 11.2568558,19.5193763 L9.69877375,14.6069533 C9.52032018,14.0466548 9.78037385,13.4481671 10.3326946,13.1422712 Z" id="XMLID_497_" fill="#3A3955"></path>
                <path d="M36.5652151,11.9874092 L43.9386648,14.4567811 L46.7926418,22.6925192 C46.9752554,23.2199885 47.694083,23.414954 48.1712036,23.0649349 L52.281289,20.0584268 C52.7121163,19.7434383 53.3257704,19.7277415 53.776011,20.0210033 L61.1891407,24.8503482 C61.6995414,25.1832348 62.4226356,24.9322778 62.5506358,24.3788705 L67.9811496,0.939841343 C68.1208831,0.335323791 67.4589089,-0.168983204 66.8174147,0.0536431137 L36.5565751,10.5284698 C35.8098008,10.7868925 35.8163075,11.7355907 36.5652151,11.9874092 Z M46.3326946,13.1422712 L60.7431668,5.17835548 C61.0021538,5.03564875 61.2686075,5.34987154 61.0462072,5.53497872 L49.1533916,15.4545796 C48.7353644,15.8037373 48.4657107,16.2710037 48.3893373,16.7781821 L47.9842167,19.4720945 C47.9305633,19.8317805 47.3674693,19.8674812 47.2568558,19.5193763 L45.6987737,14.6069533 C45.5203202,14.0466548 45.7803738,13.4481671 46.3326946,13.1422712 Z" id="XMLID_497_-Copy" fill="#FFFFFF"></path>
            </g>
            <g id="twitter-w" transform="translate(34.000000, 1.000000)" fill="#FFFFFF">
                <path d="M32.441488,2.904466 C31.248878,3.397839 29.96539,3.730636 28.618683,3.879567 C29.993707,3.11346 31.048024,1.899946 31.54522,0.45231 C30.259098,1.162644 28.835341,1.678081 27.318732,1.956332 C26.105049,0.752624 24.375073,0 22.460707,0 C18.785415,0 15.805537,2.773308 15.805537,6.194437 C15.805537,6.67923 15.864146,7.151765 15.978073,7.605913 C10.446366,7.347275 5.541585,4.881636 2.25878,1.133839 C1.685854,2.048264 1.357902,3.112234 1.357902,4.248524 C1.357902,6.397302 2.532732,8.293571 4.318683,9.40412 C3.228146,9.371637 2.201488,9.092774 1.303902,8.628819 C1.303244,8.654561 1.303244,8.680915 1.303244,8.707269 C1.303244,11.707958 3.597585,14.210983 6.642659,14.780967 C6.08422,14.921931 5.496146,14.997929 4.888976,14.997929 C4.45961,14.997929 4.042756,14.959317 3.636439,14.886384 C4.483976,17.34712 6.941634,19.138585 9.853683,19.188229 C7.575805,20.849763 4.706561,21.840186 1.587732,21.840186 C1.051024,21.840186 0.520902,21.810768 0,21.753156 C2.946293,23.511526 6.444439,24.536271 10.202707,24.536271 C22.445561,24.536271 29.139585,15.097829 29.139585,6.912126 C29.139585,6.643682 29.133659,6.375851 29.121146,6.109859 C30.421098,5.238335 31.549829,4.146785 32.441488,2.904466 Z" id="twitter-copy"></path>
            </g>
            <g id="twitter" transform="translate(171.000000, 0.000000)" fill="#3A3955">
                <path d="M32.82,3.33 C31.62,3.86 30.35,4.22 29,4.38 C30.39116,3.5498586 31.4326435,2.24178385 31.93,0.7 C30.6221696,1.47404483 29.1915209,2.01857071 27.7,2.31 C25.6435587,0.0968385644 22.353682,-0.452021755 19.6901557,0.973692902 C17.0266295,2.39940756 15.6588374,5.441394 16.36,8.38 C11.0082325,8.11298868 6.02134164,5.58683039 2.64,1.43 C0.864344141,4.47131527 1.76766458,8.36962534 4.7,10.32 C3.64072091,10.2850342 2.60520092,9.99700876 1.68,9.48 L1.68,9.57 C1.68,12.79 3.98,15.47 7.02,16.09 C6.04195375,16.3564296 5.01620182,16.3974597 4.02,16.21 C4.89083909,18.9182443 7.38573365,20.7743495 10.23,20.83 C7.4418459,23.0177695 3.89819744,24.007113 0.38,23.58 C3.42123317,25.5390419 6.96241183,26.5805651 10.58,26.58 C22.83,26.58 29.52,16.43 29.52,7.64 C29.52,7.34 29.52,7.06 29.5,6.77 C30.8,5.84 31.93,4.67 32.82,3.33 Z" id="rfkra"></path>
            </g>
            <g id="linkedin-w" transform="translate(0.000000, 1.000000)" fill="#FFFFFF">
                <path d="M31.9278109,21.946 C31.9157382,19.5068068 31.9043782,17.0687386 31.8823564,14.6295455 C31.8724073,13.6141477 31.69344,12.6198295 31.3504,11.6765568 C30.7253964,9.95980682 29.5577891,8.83120455 27.7786618,8.228625 C25.8163055,7.56389773 23.7474036,7.43294318 21.6352,7.83911364 C20.2900364,8.09656818 19.1330764,8.60593182 18.1806545,9.35944318 C18.1813673,9.16302273 18.1834909,8.96770455 18.1898909,8.77128409 C18.1927273,8.68139773 18.2019636,8.40506818 17.9533818,8.20643182 C17.7026764,8.00779545 17.3468509,8.00223864 17.2360582,8.01001136 C15.4498327,8.01778409 13.6671709,8.01778409 11.8837818,8.011125 C11.6891782,7.99669318 11.3873309,8.02665909 11.1664582,8.19867045 C10.9462836,8.36956818 10.9214255,8.59484091 10.9214255,8.75020455 C10.9306618,13.8915795 10.9299491,19.0329659 10.9214255,24.1754545 C10.9214255,24.3319318 10.9469964,24.5594205 11.1671709,24.7303182 C11.38592,24.9023295 11.6579345,24.9200795 11.8773964,24.9189773 C13.7438691,24.9101023 15.6096436,24.9101023 17.4761164,24.9189773 C17.4825018,24.9189773 17.4881891,24.9189773 17.4945891,24.9189773 C17.6927418,24.9189773 17.9711564,24.8978977 18.1820945,24.7336477 C18.4001309,24.5638636 18.4242764,24.3341477 18.4235782,24.1765682 C18.4115055,21.7351591 18.4079564,19.29375 18.4228655,16.8523523 C18.4271273,16.2586477 18.4740073,15.6649432 18.5620655,15.0889886 C18.6622109,14.4320341 18.9320873,13.9259886 19.3866327,13.5409205 C19.9363491,13.0748295 20.6693091,12.8972727 21.7971491,12.8995 C23.0592291,12.9183636 23.78224,13.3433864 24.1394764,14.28 C24.3908945,14.9391818 24.4122036,15.6327614 24.4129164,16.3452045 L24.4136291,24.1410568 C24.4136291,24.7258864 24.6522618,24.9134318 25.3944582,24.9134318 L30.8617891,24.9145455 C31.2332364,24.9145455 31.5017018,24.9134318 31.7211636,24.7414318 C31.9406255,24.5683182 31.9399127,24.3519205 31.9384873,24.0778182 L31.9278109,21.946 Z" id="Shape"></path>
                <path d="M8.04853818,16.4794659 L8.04782545,14.6528523 C8.0464,12.6908523 8.04570182,10.7299545 8.05634909,8.76795455 C8.05706182,8.59151136 8.03006545,8.36622727 7.81131636,8.19644318 C7.59185455,8.02443182 7.26798545,7.99447727 7.09256727,8.00889773 C5.23674182,8.02 3.38305455,8.01888636 1.53006545,8.01001136 C1.30279273,8.01555682 1.02296727,8.02665909 0.800669091,8.19977273 C0.576945455,8.37288636 0.552087273,8.60593182 0.552087273,8.76573864 C0.562036364,13.897125 0.562036364,19.0296364 0.552087273,24.1621364 C0.552087273,24.3230455 0.578370909,24.5572045 0.801381818,24.7303182 C1.02439273,24.9023295 1.33050182,24.9045455 1.52653091,24.9189773 C3.38164364,24.907875 5.23604364,24.907875 7.08974545,24.9189773 C7.09684364,24.9189773 7.10324364,24.9189773 7.11034182,24.9189773 C7.32909091,24.9189773 7.60181818,24.8956705 7.81275636,24.7314318 C8.03079273,24.5616477 8.05778909,24.3385909 8.05707636,24.1621364 C8.04571636,22.1934773 8.04642909,20.2225909 8.04784,18.2528182 L8.04853818,16.4794659 Z" id="Shape"></path>
                <path d="M4.32766545,0.0809886364 C4.31771636,0.0809886364 4.30849455,0.0809886364 4.29925818,0.0809886364 C1.92709818,0.0909772727 0.0656,1.55138636 0.0613381818,3.404625 C0.0613381818,3.40573864 0.0613381818,3.40573864 0.0613381818,3.40573864 C0.0613381818,4.28907955 0.525832727,5.15467045 1.33618909,5.78055682 C2.13093818,6.39535227 3.17070545,6.73270455 4.268,6.73270455 C4.28221091,6.73270455 4.29712,6.73159091 4.31133091,6.73159091 C6.74811636,6.71272727 8.58193455,5.28117045 8.57696,3.40129545 C8.57483636,2.48910227 8.13662545,1.64680682 7.34258909,1.03090909 C6.55067636,0.417238636 5.48107636,0.0809886364 4.32766545,0.0809886364 Z" id="Shape"></path>
            </g>
        </g>
    </g>
</svg>