<?xml version="1.0" encoding="UTF-8"?>
<svg width="615px" height="489px" viewBox="0 0 615 489" version="1.1" xmlns="http://www.w3.org/2000/svg" xmlns:xlink="http://www.w3.org/1999/xlink">
    <!-- Generator: Sketch 49.3 (51167) - http://www.bohemiancoding.com/sketch -->
    <title>exchangeDashboard Copy</title>
    <desc>Created with Sketch.</desc>
    <defs>
        <rect id="path-1" x="0" y="0" width="615" height="437" rx="28"></rect>
        <filter x="-23.6%" y="-12.7%" width="147.3%" height="147.3%" filterUnits="objectBoundingBox" id="filter-3">
            <feOffset dx="0" dy="4" in="SourceAlpha" result="shadowOffsetOuter1"></feOffset>
            <feGaussianBlur stdDeviation="2" in="shadowOffsetOuter1" result="shadowBlurOuter1"></feGaussianBlur>
            <feColorMatrix values="0 0 0 0 0   0 0 0 0 0   0 0 0 0 0  0 0 0 0.5 0" type="matrix" in="shadowBlurOuter1" result="shadowMatrixOuter1"></feColorMatrix>
            <feMerge>
                <feMergeNode in="shadowMatrixOuter1"></feMergeNode>
                <feMergeNode in="SourceGraphic"></feMergeNode>
            </feMerge>
        </filter>
        <circle id="path-4" cx="28" cy="28" r="10"></circle>
        <filter x="-35.0%" y="-25.0%" width="170.0%" height="170.0%" filterUnits="objectBoundingBox" id="filter-5">
            <feOffset dx="0" dy="2" in="SourceAlpha" result="shadowOffsetOuter1"></feOffset>
            <feGaussianBlur stdDeviation="2" in="shadowOffsetOuter1" result="shadowBlurOuter1"></feGaussianBlur>
            <feColorMatrix values="0 0 0 0 0   0 0 0 0 0   0 0 0 0 0  0 0 0 0.5 0" type="matrix" in="shadowBlurOuter1"></feColorMatrix>
        </filter>
        <circle id="path-6" cx="27.5" cy="27.5" r="18.5"></circle>
        <filter x="-19.6%" y="-14.2%" width="139.2%" height="139.2%" filterUnits="objectBoundingBox" id="filter-7">
            <feMorphology radius="0.25" operator="dilate" in="SourceAlpha" result="shadowSpreadOuter1"></feMorphology>
            <feOffset dx="0" dy="2" in="shadowSpreadOuter1" result="shadowOffsetOuter1"></feOffset>
            <feMorphology radius="1" operator="erode" in="SourceAlpha" result="shadowInner"></feMorphology>
            <feOffset dx="0" dy="2" in="shadowInner" result="shadowInner"></feOffset>
            <feComposite in="shadowOffsetOuter1" in2="shadowInner" operator="out" result="shadowOffsetOuter1"></feComposite>
            <feGaussianBlur stdDeviation="2" in="shadowOffsetOuter1" result="shadowBlurOuter1"></feGaussianBlur>
            <feColorMatrix values="0 0 0 0 0   0 0 0 0 0   0 0 0 0 0  0 0 0 0.5 0" type="matrix" in="shadowBlurOuter1"></feColorMatrix>
        </filter>
        <circle id="path-8" cx="27.5" cy="27.5" r="27.5"></circle>
        <filter x="-13.2%" y="-9.5%" width="126.4%" height="126.4%" filterUnits="objectBoundingBox" id="filter-9">
            <feMorphology radius="0.25" operator="dilate" in="SourceAlpha" result="shadowSpreadOuter1"></feMorphology>
            <feOffset dx="0" dy="2" in="shadowSpreadOuter1" result="shadowOffsetOuter1"></feOffset>
            <feMorphology radius="1" operator="erode" in="SourceAlpha" result="shadowInner"></feMorphology>
            <feOffset dx="0" dy="2" in="shadowInner" result="shadowInner"></feOffset>
            <feComposite in="shadowOffsetOuter1" in2="shadowInner" operator="out" result="shadowOffsetOuter1"></feComposite>
            <feGaussianBlur stdDeviation="2" in="shadowOffsetOuter1" result="shadowBlurOuter1"></feGaussianBlur>
            <feColorMatrix values="0 0 0 0 0   0 0 0 0 0   0 0 0 0 0  0 0 0 0.5 0" type="matrix" in="shadowBlurOuter1"></feColorMatrix>
        </filter>
        <filter x="-23.6%" y="-12.7%" width="147.3%" height="147.3%" filterUnits="objectBoundingBox" id="filter-10">
            <feOffset dx="0" dy="4" in="SourceAlpha" result="shadowOffsetOuter1"></feOffset>
            <feGaussianBlur stdDeviation="2" in="shadowOffsetOuter1" result="shadowBlurOuter1"></feGaussianBlur>
            <feColorMatrix values="0 0 0 0 0   0 0 0 0 0   0 0 0 0 0  0 0 0 0.5 0" type="matrix" in="shadowBlurOuter1" result="shadowMatrixOuter1"></feColorMatrix>
            <feMerge>
                <feMergeNode in="shadowMatrixOuter1"></feMergeNode>
                <feMergeNode in="SourceGraphic"></feMergeNode>
            </feMerge>
        </filter>
        <circle id="path-11" cx="28" cy="28" r="10"></circle>
        <filter x="-35.0%" y="-25.0%" width="170.0%" height="170.0%" filterUnits="objectBoundingBox" id="filter-12">
            <feOffset dx="0" dy="2" in="SourceAlpha" result="shadowOffsetOuter1"></feOffset>
            <feGaussianBlur stdDeviation="2" in="shadowOffsetOuter1" result="shadowBlurOuter1"></feGaussianBlur>
            <feColorMatrix values="0 0 0 0 0   0 0 0 0 0   0 0 0 0 0  0 0 0 0.5 0" type="matrix" in="shadowBlurOuter1"></feColorMatrix>
        </filter>
        <circle id="path-13" cx="27.5" cy="27.5" r="18.5"></circle>
        <filter x="-19.6%" y="-14.2%" width="139.2%" height="139.2%" filterUnits="objectBoundingBox" id="filter-14">
            <feMorphology radius="0.25" operator="dilate" in="SourceAlpha" result="shadowSpreadOuter1"></feMorphology>
            <feOffset dx="0" dy="2" in="shadowSpreadOuter1" result="shadowOffsetOuter1"></feOffset>
            <feMorphology radius="1" operator="erode" in="SourceAlpha" result="shadowInner"></feMorphology>
            <feOffset dx="0" dy="2" in="shadowInner" result="shadowInner"></feOffset>
            <feComposite in="shadowOffsetOuter1" in2="shadowInner" operator="out" result="shadowOffsetOuter1"></feComposite>
            <feGaussianBlur stdDeviation="2" in="shadowOffsetOuter1" result="shadowBlurOuter1"></feGaussianBlur>
            <feColorMatrix values="0 0 0 0 0   0 0 0 0 0   0 0 0 0 0  0 0 0 0.5 0" type="matrix" in="shadowBlurOuter1"></feColorMatrix>
        </filter>
        <circle id="path-15" cx="27.5" cy="27.5" r="27.5"></circle>
        <filter x="-13.2%" y="-9.5%" width="126.4%" height="126.4%" filterUnits="objectBoundingBox" id="filter-16">
            <feMorphology radius="0.25" operator="dilate" in="SourceAlpha" result="shadowSpreadOuter1"></feMorphology>
            <feOffset dx="0" dy="2" in="shadowSpreadOuter1" result="shadowOffsetOuter1"></feOffset>
            <feMorphology radius="1" operator="erode" in="SourceAlpha" result="shadowInner"></feMorphology>
            <feOffset dx="0" dy="2" in="shadowInner" result="shadowInner"></feOffset>
            <feComposite in="shadowOffsetOuter1" in2="shadowInner" operator="out" result="shadowOffsetOuter1"></feComposite>
            <feGaussianBlur stdDeviation="2" in="shadowOffsetOuter1" result="shadowBlurOuter1"></feGaussianBlur>
            <feColorMatrix values="0 0 0 0 0   0 0 0 0 0   0 0 0 0 0  0 0 0 0.5 0" type="matrix" in="shadowBlurOuter1"></feColorMatrix>
        </filter>
        <filter x="-22.9%" y="-12.0%" width="145.8%" height="145.8%" filterUnits="objectBoundingBox" id="filter-17">
            <feOffset dx="0" dy="6" in="SourceAlpha" result="shadowOffsetOuter1"></feOffset>
            <feGaussianBlur stdDeviation="3" in="shadowOffsetOuter1" result="shadowBlurOuter1"></feGaussianBlur>
            <feColorMatrix values="0 0 0 0 0   0 0 0 0 0   0 0 0 0 0  0 0 0 0.5 0" type="matrix" in="shadowBlurOuter1" result="shadowMatrixOuter1"></feColorMatrix>
            <feMerge>
                <feMergeNode in="shadowMatrixOuter1"></feMergeNode>
                <feMergeNode in="SourceGraphic"></feMergeNode>
            </feMerge>
        </filter>
        <circle id="path-18" cx="42.2545455" cy="42.2545455" r="15.0909091"></circle>
        <filter x="-34.8%" y="-24.8%" width="169.6%" height="169.6%" filterUnits="objectBoundingBox" id="filter-19">
            <feOffset dx="0" dy="3" in="SourceAlpha" result="shadowOffsetOuter1"></feOffset>
            <feGaussianBlur stdDeviation="3" in="shadowOffsetOuter1" result="shadowBlurOuter1"></feGaussianBlur>
            <feColorMatrix values="0 0 0 0 0   0 0 0 0 0   0 0 0 0 0  0 0 0 0.5 0" type="matrix" in="shadowBlurOuter1"></feColorMatrix>
        </filter>
        <circle id="path-20" cx="41.5" cy="41.5" r="27.9181818"></circle>
        <filter x="-19.5%" y="-14.1%" width="139.0%" height="139.0%" filterUnits="objectBoundingBox" id="filter-21">
            <feMorphology radius="0.375" operator="dilate" in="SourceAlpha" result="shadowSpreadOuter1"></feMorphology>
            <feOffset dx="0" dy="3" in="shadowSpreadOuter1" result="shadowOffsetOuter1"></feOffset>
            <feMorphology radius="1" operator="erode" in="SourceAlpha" result="shadowInner"></feMorphology>
            <feOffset dx="0" dy="3" in="shadowInner" result="shadowInner"></feOffset>
            <feComposite in="shadowOffsetOuter1" in2="shadowInner" operator="out" result="shadowOffsetOuter1"></feComposite>
            <feGaussianBlur stdDeviation="3" in="shadowOffsetOuter1" result="shadowBlurOuter1"></feGaussianBlur>
            <feColorMatrix values="0 0 0 0 0   0 0 0 0 0   0 0 0 0 0  0 0 0 0.5 0" type="matrix" in="shadowBlurOuter1"></feColorMatrix>
        </filter>
        <circle id="path-22" cx="41.5" cy="41.5" r="41.5"></circle>
        <filter x="-13.1%" y="-9.5%" width="126.2%" height="126.2%" filterUnits="objectBoundingBox" id="filter-23">
            <feMorphology radius="0.375" operator="dilate" in="SourceAlpha" result="shadowSpreadOuter1"></feMorphology>
            <feOffset dx="0" dy="3" in="shadowSpreadOuter1" result="shadowOffsetOuter1"></feOffset>
            <feMorphology radius="1" operator="erode" in="SourceAlpha" result="shadowInner"></feMorphology>
            <feOffset dx="0" dy="3" in="shadowInner" result="shadowInner"></feOffset>
            <feComposite in="shadowOffsetOuter1" in2="shadowInner" operator="out" result="shadowOffsetOuter1"></feComposite>
            <feGaussianBlur stdDeviation="3" in="shadowOffsetOuter1" result="shadowBlurOuter1"></feGaussianBlur>
            <feColorMatrix values="0 0 0 0 0   0 0 0 0 0   0 0 0 0 0  0 0 0 0.5 0" type="matrix" in="shadowBlurOuter1"></feColorMatrix>
        </filter>
        <circle id="path-24" cx="307.5" cy="97.5" r="97.5"></circle>
        <filter x="-0.8%" y="-0.8%" width="101.5%" height="101.5%" filterUnits="objectBoundingBox" id="filter-25">
            <feOffset dx="0" dy="0" in="SourceAlpha" result="shadowOffsetOuter1"></feOffset>
            <feGaussianBlur stdDeviation="0.5" in="shadowOffsetOuter1" result="shadowBlurOuter1"></feGaussianBlur>
            <feColorMatrix values="0 0 0 0 0   0 0 0 0 0   0 0 0 0 0  0 0 0 0.5 0" type="matrix" in="shadowBlurOuter1"></feColorMatrix>
        </filter>
    </defs>
    <g id="Page-1" stroke="none" stroke-width="1" fill="none" fill-rule="evenodd">
        <g id="Cards" transform="translate(-93.000000, -124.000000)">
            <g id="exchangeDashboard-Copy" transform="translate(93.000000, 125.000000)">
                <g id="qtzRate" transform="translate(0.000000, 51.000000)">
                    <mask id="mask-2" fill="white">
                        <use xlink:href="#path-1"></use>
                    </mask>
                    <use id="Rectangle1" fill="#696EFB" xlink:href="#path-1"></use>
                    <g id="live" mask="url(#mask-2)">
                        <g transform="translate(51.000000, 247.000000)">
                            <rect id="Rectangle-10" fill="#333333" x="0" y="0" width="150" height="45" rx="11"></rect>
                            <path d="M19.675293,29.0834961 L28.3666992,29.0834961 L28.3666992,31 L17.4169922,31 L17.4169922,13.2265625 L19.675293,13.2265625 L19.675293,29.0834961 Z M32.1264648,13.2265625 L42.8686523,13.2265625 L42.8686523,15.1918945 L38.6083984,15.1918945 L38.6083984,29.046875 L42.8686523,29.046875 L42.8686523,31 L32.1264648,31 L32.1264648,29.046875 L36.2890625,29.046875 L36.2890625,15.1918945 L32.1264648,15.1918945 L32.1264648,13.2265625 Z M52.4511719,27.3623047 L56.6503906,13.2265625 L59.0551758,13.2265625 L53.4521484,31 L51.4868164,31 L45.871582,13.2265625 L48.2885742,13.2265625 L52.4511719,27.3623047 Z M71.9091797,22.784668 L64.4873047,22.784668 L64.4873047,29.0834961 L73.1420898,29.0834961 L73.1420898,31 L62.2290039,31 L62.2290039,13.2265625 L73.0322266,13.2265625 L73.0322266,15.1552734 L64.4873047,15.1552734 L64.4873047,20.8681641 L71.9091797,20.8681641 L71.9091797,22.784668 Z M103.269043,31 L100.974121,31 L94.0771484,17.71875 L94.0405273,31 L91.7578125,31 L91.7578125,13.2265625 L94.0527344,13.2265625 L100.949707,26.4833984 L100.986328,13.2265625 L103.269043,13.2265625 L103.269043,31 Z M118.69873,23.1386719 C118.690592,23.7734407 118.635661,24.4143034 118.533936,25.0612793 C118.43221,25.7082552 118.275554,26.332842 118.063965,26.9350586 C117.852375,27.5372751 117.581789,28.098793 117.252197,28.6196289 C116.922606,29.1404648 116.52995,29.5961895 116.074219,29.9868164 C115.618487,30.3774434 115.095625,30.6846506 114.505615,30.9084473 C113.915606,31.132244 113.254398,31.2441406 112.521973,31.2441406 C111.789547,31.2441406 111.12834,31.132244 110.53833,30.9084473 C109.948321,30.6846506 109.425458,30.3774434 108.969727,29.9868164 C108.513995,29.5961895 108.119305,29.1384304 107.785645,28.6135254 C107.451984,28.0886204 107.177329,27.5250681 106.96167,26.9228516 C106.746011,26.320635 106.585287,25.6980826 106.479492,25.0551758 C106.373697,24.4122689 106.316732,23.7734407 106.308594,23.1386719 L106.308594,21.1123047 C106.316732,20.4775359 106.371663,19.8366732 106.473389,19.1896973 C106.575114,18.5427214 106.733804,17.9181345 106.949463,17.315918 C107.165122,16.7137014 107.437742,16.1501491 107.767334,15.6252441 C108.096925,15.1003392 108.489581,14.6405456 108.945312,14.2458496 C109.401044,13.8511536 109.923907,13.5419119 110.513916,13.3181152 C111.103925,13.0943185 111.765133,12.9824219 112.497559,12.9824219 C113.229984,12.9824219 113.893226,13.0943185 114.487305,13.3181152 C115.081383,13.5419119 115.60628,13.8491191 116.062012,14.2397461 C116.517743,14.630373 116.910399,15.0881321 117.23999,15.6130371 C117.569582,16.1379421 117.842203,16.7014944 118.057861,17.3037109 C118.27352,17.9059275 118.43221,18.5325488 118.533936,19.1835938 C118.635661,19.8346387 118.690592,20.4775359 118.69873,21.1123047 L118.69873,23.1386719 Z M116.464844,21.0878906 C116.456706,20.6647114 116.428223,20.2232282 116.379395,19.7634277 C116.330566,19.3036273 116.247152,18.8479026 116.12915,18.3962402 C116.011148,17.9445778 115.854493,17.513267 115.65918,17.1022949 C115.463866,16.6913228 115.219728,16.3291845 114.926758,16.0158691 C114.633788,15.7025538 114.287925,15.4543466 113.88916,15.2712402 C113.490395,15.0881339 113.026533,14.996582 112.497559,14.996582 C111.976723,14.996582 111.516929,15.0901683 111.118164,15.2773438 C110.719399,15.4645192 110.373537,15.7147608 110.080566,16.0280762 C109.787596,16.3413915 109.543458,16.7035298 109.348145,17.114502 C109.152831,17.5254741 108.996176,17.9567849 108.878174,18.4084473 C108.760172,18.8601097 108.674724,19.3158343 108.621826,19.7756348 C108.568929,20.2354352 108.538411,20.6728495 108.530273,21.0878906 L108.530273,23.1386719 C108.538411,23.553713 108.568929,23.9931617 108.621826,24.4570312 C108.674724,24.9209008 108.762206,25.3786599 108.884277,25.8303223 C109.006348,26.2819847 109.165038,26.71533 109.360352,27.1303711 C109.555665,27.5454122 109.799803,27.909585 110.092773,28.2229004 C110.385744,28.5362158 110.731606,28.7864574 111.130371,28.9736328 C111.529136,29.1608082 111.992999,29.2543945 112.521973,29.2543945 C113.050947,29.2543945 113.516844,29.1608082 113.919678,28.9736328 C114.322512,28.7864574 114.668374,28.5362158 114.957275,28.2229004 C115.246177,27.909585 115.486246,27.5474467 115.67749,27.1364746 C115.868735,26.7255025 116.023356,26.2941917 116.141357,25.8425293 C116.259359,25.3908669 116.340739,24.9331078 116.385498,24.4692383 C116.430257,24.0053688 116.456706,23.5618511 116.464844,23.1386719 L116.464844,21.0878906 Z M130.95459,26.1904297 L132.30957,13.2265625 L134.445801,13.2265625 L132.285156,31 L129.978027,31 L127.695312,17.6088867 L125.388184,31 L123.068848,31 L120.908203,13.2265625 L123.056641,13.2265625 L124.411621,26.1904297 L126.694336,13.2265625 L128.659668,13.2265625 L130.95459,26.1904297 Z" id="LIVE-NOW" fill="#FFFFFF"></path>
                        </g>
                    </g>
                    <path d="M-53,393 C-14.3333333,378.333333 46,371 128,371 C251,371 212.5,268.75 344.5,262.25 C476.5,255.75 388,160.5 539.5,156 C640.5,153 667.666667,144.833333 621,131.5" id="Path-4" stroke="#FFFFFF" stroke-width="7" stroke-linejoin="round" mask="url(#mask-2)"></path>
                    <g id="icon/point" mask="url(#mask-2)">
                        <g transform="translate(496.000000, 128.000000)" id="Group-Copy-2">
                            <g filter="url(#filter-3)">
                                <g id="Oval-2">
                                    <use fill="black" fill-opacity="1" filter="url(#filter-5)" xlink:href="#path-4"></use>
                                    <use fill="#FFFFFF" fill-rule="evenodd" xlink:href="#path-4"></use>
                                </g>
                                <g id="Oval-2" opacity="0.3">
                                    <use fill="black" fill-opacity="1" filter="url(#filter-7)" xlink:href="#path-6"></use>
                                    <use stroke="#333333" stroke-width="0.5" xlink:href="#path-6"></use>
                                </g>
                                <g id="Oval-2" opacity="0.3">
                                    <use fill="black" fill-opacity="1" filter="url(#filter-9)" xlink:href="#path-8"></use>
                                    <use stroke="#333333" stroke-width="0.5" xlink:href="#path-8"></use>
                                </g>
                            </g>
                        </g>
                    </g>
                    <g id="icon/point" mask="url(#mask-2)">
                        <g transform="translate(295.000000, 236.000000)" id="Group-Copy-2">
                            <g filter="url(#filter-10)">
                                <g id="Oval-2">
                                    <use fill="black" fill-opacity="1" filter="url(#filter-12)" xlink:href="#path-11"></use>
                                    <use fill="#FFFFFF" fill-rule="evenodd" xlink:href="#path-11"></use>
                                </g>
                                <g id="Oval-2" opacity="0.3">
                                    <use fill="black" fill-opacity="1" filter="url(#filter-14)" xlink:href="#path-13"></use>
                                    <use stroke="#333333" stroke-width="0.5" xlink:href="#path-13"></use>
                                </g>
                                <g id="Oval-2" opacity="0.3">
                                    <use fill="black" fill-opacity="1" filter="url(#filter-16)" xlink:href="#path-15"></use>
                                    <use stroke="#333333" stroke-width="0.5" xlink:href="#path-15"></use>
                                </g>
                            </g>
                        </g>
                    </g>
                    <path d="M125.5,366.5 L125.5,307.997863" id="Line-3" stroke="#FFFFFF" stroke-width="4" stroke-linecap="square"></path>
                    <circle id="Oval-2-Copy" fill="#FFFFFF" mask="url(#mask-2)" cx="125.5" cy="302.5" r="6.5"></circle>
                    <g id="icon/point" mask="url(#mask-2)">
                        <g transform="translate(84.000000, 328.000000)" id="Group-Copy-2">
                            <g filter="url(#filter-17)">
                                <g id="Oval-2">
                                    <use fill="black" fill-opacity="1" filter="url(#filter-19)" xlink:href="#path-18"></use>
                                    <use fill="#FFFFFF" fill-rule="evenodd" xlink:href="#path-18"></use>
                                </g>
                                <g id="Oval-2" opacity="0.3">
                                    <use fill="black" fill-opacity="1" filter="url(#filter-21)" xlink:href="#path-20"></use>
                                    <use stroke="#333333" stroke-width="0.75" xlink:href="#path-20"></use>
                                </g>
                                <g id="Oval-2" opacity="0.3">
                                    <use fill="black" fill-opacity="1" filter="url(#filter-23)" xlink:href="#path-22"></use>
                                    <use stroke="#333333" stroke-width="0.75" xlink:href="#path-22"></use>
                                </g>
                            </g>
                        </g>
                    </g>
                </g>
                <g id="ovalbgLogo">
                    <use fill="black" fill-opacity="1" filter="url(#filter-25)" xlink:href="#path-24"></use>
                    <use fill="#333333" fill-rule="evenodd" xlink:href="#path-24"></use>
                </g>
                <g id="binanceLogo" transform="translate(242.000000, 32.000000)" fill="#F3BA2F" fill-rule="nonzero">
                    <path d="M40.3644229,55.46772 L65.998746,29.83398 L91.6462691,55.48092 L106.562224,40.56492 L65.998746,0 L25.4491277,40.55172 L40.3644229,55.46772 Z M0,65.997954 L14.9164173,51.081492 L29.8318445,65.99703 L14.9155593,80.91336 L0,65.997954 Z M40.3644229,76.53228 L65.998746,102.16602 L91.6456091,76.51974 L106.569484,91.42782 L106.562224,91.43574 L65.998746,132 L25.4478077,91.4496 L25.4266877,91.42848 L40.3644229,76.53228 Z M102.168155,66.006138 L117.084573,51.089742 L132,66.005214 L117.083649,80.921676 L102.168155,66.006138 Z" id="Shape"></path>
                    <polyline id="Shape" points="80.9862709 65.9921552 80.9928086 65.9921552 66 51 54.9199791 62.079538 54.9193253 62.079538 53.6464435 63.3530181 51.0209205 65.9790804 51 65.9993463 51.0209205 66.0209196 66 81 80.9928086 66.0078448 81 65.9993463 80.9862709 65.9921552"></polyline>
                </g>
                <path d="M91.4541016,105.194824 C91.4361978,106.645027 91.3108736,108.104159 91.078125,109.572266 C90.8453764,111.040372 90.491783,112.454746 90.017334,113.81543 C89.542885,115.176114 88.9341671,116.451736 88.1911621,117.642334 C87.4481571,118.832932 86.5574596,119.866858 85.519043,120.744141 L92.2597656,126.356934 L88.8491211,129.606445 L81.1147461,123.053711 C80.0047145,123.375978 78.8051822,123.537109 77.5161133,123.537109 C75.8510659,123.537109 74.3561264,123.281985 73.03125,122.771729 C71.7063736,122.261472 70.5292206,121.567713 69.4997559,120.69043 C68.4702911,119.813147 67.5795936,118.779221 66.8276367,117.588623 C66.0756798,116.398025 65.4580102,115.122403 64.9746094,113.761719 C64.4912085,112.401035 64.1331392,110.991137 63.9003906,109.531982 C63.6676421,108.072828 63.5423178,106.627123 63.5244141,105.194824 L63.5244141,101.757324 C63.5423178,100.325025 63.6676421,98.8748446 63.9003906,97.4067383 C64.1331392,95.938632 64.4912085,94.5242581 64.9746094,93.1635742 C65.4580102,91.8028903 66.0667281,90.5272683 66.8007812,89.3366699 C67.5348344,88.1460715 68.4165801,87.1076704 69.4460449,86.2214355 C70.4755097,85.3352006 71.6571385,84.6369654 72.9909668,84.126709 C74.3247951,83.6164525 75.8242104,83.3613281 77.4892578,83.3613281 C79.1543052,83.3613281 80.6537205,83.6164525 81.9875488,84.126709 C83.3213771,84.6369654 84.5030059,85.3307248 85.5324707,86.2080078 C86.5619355,87.0852908 87.4481571,88.1192161 88.1911621,89.3098145 C88.9341671,90.5004129 89.542885,91.7760349 90.017334,93.1367188 C90.491783,94.4974026 90.8453764,95.9162524 91.078125,97.3933105 C91.3108736,98.8703687 91.4361978,100.325025 91.4541016,101.757324 L91.4541016,105.194824 Z M86.5126953,101.703613 C86.4947916,100.718908 86.4366053,99.6939344 86.3381348,98.6286621 C86.2396642,97.5633899 86.0606296,96.516037 85.8010254,95.4865723 C85.5414212,94.4571075 85.1923036,93.4768927 84.7536621,92.5458984 C84.3150206,91.6149042 83.764489,90.7958206 83.1020508,90.088623 C82.4396126,89.3814255 81.6473842,88.8219422 80.7253418,88.4101562 C79.8032994,87.9983703 78.7246156,87.7924805 77.4892578,87.7924805 C76.2718038,87.7924805 75.2065475,88.0028462 74.293457,88.423584 C73.3803665,88.8443218 72.592614,89.408281 71.9301758,90.1154785 C71.2677376,90.8226761 70.717206,91.6417597 70.2785645,92.5727539 C69.8399229,93.5037481 69.4863295,94.483963 69.2177734,95.5134277 C68.9492174,96.5428925 68.7567551,97.5902453 68.6403809,98.6555176 C68.5240066,99.7207898 68.4658203,100.736812 68.4658203,101.703613 L68.4658203,105.194824 C68.4658203,106.161626 68.5240066,107.177648 68.6403809,108.24292 C68.7567551,109.308192 68.9492174,110.360021 69.2177734,111.398438 C69.4863295,112.436854 69.8399229,113.421545 70.2785645,114.352539 C70.717206,115.283533 71.2677376,116.107093 71.9301758,116.823242 C72.592614,117.539392 73.3848424,118.107827 74.3068848,118.528564 C75.2289271,118.949302 76.2986593,119.159668 77.5161133,119.159668 C78.751471,119.159668 79.8301549,118.949302 80.7521973,118.528564 C81.6742396,118.107827 82.466468,117.543867 83.1289062,116.83667 C83.7913445,116.129472 84.3374002,115.310389 84.7670898,114.379395 C85.1967795,113.4484 85.5414212,112.46371 85.8010254,111.425293 C86.0606296,110.386876 86.2396642,109.335048 86.3381348,108.269775 C86.4366053,107.204503 86.4947916,106.17953 86.5126953,105.194824 L86.5126953,101.703613 Z M125.050293,88.1416016 L112.965332,88.1416016 L112.965332,123 L108.131348,123 L108.131348,88.1416016 L96.0463867,88.1416016 L96.0463867,83.8984375 L125.050293,83.8984375 L125.050293,88.1416016 Z M143.79541,99.2329102 L152.228027,83.8984375 L158.08252,83.8984375 L146.722656,103.288086 L158.351074,123 L152.550293,123 L143.902832,107.370117 L135.228516,123 L129.347168,123 L141.002441,103.288086 L129.642578,83.8984375 L135.470215,83.8984375 L143.79541,99.2329102 Z" id="QTX" fill="#FFFFFF"></path>
                <path d="M432.939453,117 L432.939453,92.1171875 L440.339355,92.1171875 C441.364751,92.1285808 442.367345,92.2624499 443.347168,92.5187988 C444.326991,92.7751478 445.198564,93.1710585 445.961914,93.706543 C446.725264,94.2420274 447.334796,94.9256143 447.790527,95.7573242 C448.246259,96.5890341 448.468425,97.5859317 448.457031,98.7480469 C448.445638,99.3974642 448.340252,99.9899062 448.140869,100.525391 C447.941487,101.060875 447.668052,101.542234 447.320557,101.969482 C446.973061,102.396731 446.565758,102.769855 446.098633,103.088867 C445.631508,103.407879 445.135908,103.681314 444.611816,103.90918 C445.272627,104.102866 445.87931,104.379149 446.431885,104.738037 C446.984459,105.096926 447.460122,105.529864 447.858887,106.036865 C448.257652,106.543866 448.568114,107.116371 448.790283,107.754395 C449.012452,108.392419 449.123535,109.081702 449.123535,109.822266 C449.134928,110.984381 448.912763,112.009761 448.457031,112.898438 C448.0013,113.787114 447.391768,114.530515 446.628418,115.128662 C445.865068,115.72681 444.98495,116.185383 443.988037,116.504395 C442.991125,116.823407 441.962896,116.988607 440.90332,117 L432.939453,117 Z M436.118164,105.361816 L436.118164,114.316895 L440.98877,114.316895 C441.64958,114.305501 442.276201,114.194418 442.868652,113.983643 C443.461103,113.772867 443.985187,113.479494 444.440918,113.103516 C444.896649,112.727537 445.258381,112.266116 445.526123,111.719238 C445.793865,111.172361 445.927734,110.551436 445.927734,109.856445 C445.939128,109.150062 445.822348,108.52344 445.577393,107.976562 C445.332437,107.429685 444.993492,106.965415 444.560547,106.58374 C444.127602,106.202065 443.620608,105.908692 443.039551,105.703613 C442.458493,105.498534 441.831872,105.384603 441.159668,105.361816 L436.118164,105.361816 Z M436.118164,102.72998 L440.527344,102.72998 C441.119795,102.718587 441.700844,102.624594 442.270508,102.447998 C442.840172,102.271402 443.347166,102.015057 443.791504,101.678955 C444.235842,101.342853 444.594725,100.929853 444.868164,100.439941 C445.141603,99.9500301 445.27832,99.3803743 445.27832,98.730957 C445.27832,98.0359666 445.144451,97.4435246 444.876709,96.9536133 C444.608967,96.463702 444.250084,96.0620947 443.800049,95.7487793 C443.350014,95.4354639 442.831627,95.2047533 442.244873,95.0566406 C441.658119,94.9085279 441.057132,94.8287761 440.441895,94.8173828 L436.118164,94.8173828 L436.118164,102.72998 Z M454.472656,98.5087891 L463.92334,98.5087891 L463.92334,114.265625 L469.956055,114.265625 L469.956055,117 L454.472656,117 L454.472656,114.265625 L460.761719,114.265625 L460.761719,101.260254 L454.472656,101.260254 L454.472656,98.5087891 Z M460.351562,93.6552734 C460.351562,93.1311823 460.508218,92.6896991 460.821533,92.3308105 C461.134849,91.971922 461.610511,91.7924805 462.248535,91.7924805 C462.875166,91.7924805 463.34798,91.971922 463.666992,92.3308105 C463.986004,92.6896991 464.145508,93.1311823 464.145508,93.6552734 C464.145508,94.1679713 463.986004,94.5952131 463.666992,94.9370117 C463.34798,95.2788103 462.875166,95.449707 462.248535,95.449707 C461.610511,95.449707 461.134849,95.2788103 460.821533,94.9370117 C460.508218,94.5952131 460.351562,94.1679713 460.351562,93.6552734 Z M477.817383,98.5087891 L478.039551,101.243164 C478.711755,100.286128 479.537756,99.5370307 480.517578,98.9958496 C481.497401,98.4546685 482.59114,98.1783855 483.798828,98.1669922 C484.767257,98.1669922 485.647376,98.3037096 486.439209,98.5771484 C487.231042,98.8505873 487.906084,99.2778291 488.464355,99.8588867 C489.022626,100.439944 489.452717,101.177649 489.754639,102.072021 C490.056561,102.966394 490.20752,104.028802 490.20752,105.259277 L490.20752,117 L487.045898,117 L487.045898,105.327637 C487.045898,104.50732 486.954754,103.81234 486.772461,103.242676 C486.590168,102.673011 486.319582,102.21159 485.960693,101.858398 C485.601805,101.505207 485.16317,101.248861 484.644775,101.089355 C484.126381,100.929849 483.531091,100.850098 482.858887,100.850098 C481.799311,100.850098 480.867924,101.114988 480.064697,101.644775 C479.261471,102.174563 478.620608,102.872392 478.14209,103.738281 L478.14209,117 L474.980469,117 L474.980469,98.5087891 L477.817383,98.5087891 Z M508.134766,117 C508.009439,116.760741 507.90975,116.461672 507.835693,116.102783 C507.761637,115.743895 507.70752,115.37077 507.67334,114.983398 C507.354328,115.30241 506.998293,115.604328 506.605225,115.88916 C506.212156,116.173992 505.779218,116.424641 505.306396,116.641113 C504.833575,116.857586 504.32943,117.028482 503.793945,117.153809 C503.258461,117.279135 502.688805,117.341797 502.084961,117.341797 C501.105138,117.341797 500.219324,117.199383 499.42749,116.914551 C498.635657,116.629719 497.963463,116.245201 497.410889,115.760986 C496.858314,115.276772 496.431072,114.701419 496.12915,114.034912 C495.827228,113.368405 495.67627,112.64779 495.67627,111.873047 C495.67627,110.859044 495.878497,109.970381 496.282959,109.207031 C496.687421,108.443681 497.259925,107.808515 498.000488,107.301514 C498.741052,106.794512 499.632563,106.415691 500.675049,106.165039 C501.717535,105.914387 502.882481,105.789062 504.169922,105.789062 L507.62207,105.789062 L507.62207,104.336426 C507.62207,103.778155 507.519532,103.276858 507.314453,102.83252 C507.109374,102.388181 506.81885,102.00936 506.442871,101.696045 C506.066893,101.38273 505.60832,101.140626 505.067139,100.969727 C504.525958,100.798827 503.919274,100.713379 503.24707,100.713379 C502.62044,100.713379 502.059329,100.793131 501.563721,100.952637 C501.068113,101.112143 500.649416,101.322915 500.307617,101.584961 C499.965819,101.847007 499.700929,102.157469 499.512939,102.516357 C499.32495,102.875246 499.230957,103.24837 499.230957,103.635742 L496.052246,103.635742 C496.063639,102.963538 496.237384,102.302738 496.573486,101.65332 C496.909588,101.003903 497.393796,100.420006 498.026123,99.9016113 C498.65845,99.3832168 499.427486,98.9645198 500.333252,98.6455078 C501.239018,98.3264958 502.267247,98.1669922 503.417969,98.1669922 C504.466151,98.1669922 505.440262,98.2951647 506.340332,98.5515137 C507.240402,98.8078626 508.017982,99.1952285 508.673096,99.713623 C509.32821,100.232018 509.843748,100.878577 510.219727,101.65332 C510.595705,102.428064 510.783691,103.333816 510.783691,104.370605 L510.783691,112.966797 C510.783691,113.582034 510.840657,114.23429 510.95459,114.923584 C511.068523,115.612878 511.228026,116.213865 511.433105,116.726562 L511.433105,117 L508.134766,117 Z M502.546387,114.590332 C503.161624,114.590332 503.736976,114.51058 504.272461,114.351074 C504.807945,114.191568 505.295001,113.980796 505.733643,113.71875 C506.172284,113.456704 506.551105,113.157635 506.870117,112.821533 C507.189129,112.485431 507.439778,112.135093 507.62207,111.770508 L507.62207,108.027832 L504.682617,108.027832 C502.836905,108.027832 501.401372,108.301267 500.375977,108.848145 C499.350581,109.395022 498.837891,110.255202 498.837891,111.428711 C498.837891,111.884442 498.914794,112.305988 499.068604,112.693359 C499.222413,113.080731 499.453123,113.41398 499.760742,113.693115 C500.068361,113.972251 500.455727,114.191568 500.922852,114.351074 C501.389976,114.51058 501.931149,114.590332 502.546387,114.590332 Z M519.824219,98.5087891 L520.046387,101.243164 C520.718591,100.286128 521.544591,99.5370307 522.524414,98.9958496 C523.504237,98.4546685 524.597976,98.1783855 525.805664,98.1669922 C526.774093,98.1669922 527.654212,98.3037096 528.446045,98.5771484 C529.237878,98.8505873 529.91292,99.2778291 530.471191,99.8588867 C531.029462,100.439944 531.459553,101.177649 531.761475,102.072021 C532.063397,102.966394 532.214355,104.028802 532.214355,105.259277 L532.214355,117 L529.052734,117 L529.052734,105.327637 C529.052734,104.50732 528.961589,103.81234 528.779297,103.242676 C528.597004,102.673011 528.326418,102.21159 527.967529,101.858398 C527.608641,101.505207 527.170006,101.248861 526.651611,101.089355 C526.133217,100.929849 525.537927,100.850098 524.865723,100.850098 C523.806147,100.850098 522.87476,101.114988 522.071533,101.644775 C521.268307,102.174563 520.627444,102.872392 520.148926,103.738281 L520.148926,117 L516.987305,117 L516.987305,98.5087891 L519.824219,98.5087891 Z M545.869141,114.77832 C546.438805,114.77832 546.994219,114.687175 547.5354,114.504883 C548.076581,114.32259 548.557941,114.069093 548.979492,113.744385 C549.401044,113.419676 549.739989,113.038007 549.996338,112.599365 C550.252687,112.160724 550.386556,111.685061 550.397949,111.172363 L553.388672,111.172363 C553.377279,111.99268 553.163658,112.775957 552.747803,113.522217 C552.331948,114.268477 551.776533,114.923581 551.081543,115.487549 C550.386553,116.051516 549.589034,116.501545 548.688965,116.837646 C547.788895,117.173748 546.848963,117.341797 545.869141,117.341797 C544.467766,117.341797 543.243007,117.091148 542.194824,116.589844 C541.146642,116.088539 540.27222,115.413497 539.571533,114.564697 C538.870846,113.715897 538.343915,112.73609 537.990723,111.625244 C537.637531,110.514399 537.460938,109.343756 537.460938,108.113281 L537.460938,107.395508 C537.460938,106.176426 537.637531,105.008632 537.990723,103.89209 C538.343915,102.775548 538.870846,101.792892 539.571533,100.944092 C540.27222,100.095292 541.146642,99.4202499 542.194824,98.9189453 C543.243007,98.4176407 544.467766,98.1669922 545.869141,98.1669922 C546.962896,98.1669922 547.968339,98.3407372 548.885498,98.6882324 C549.802658,99.0357276 550.594479,99.5085419 551.260986,100.106689 C551.927494,100.704837 552.448729,101.414058 552.824707,102.234375 C553.200685,103.054692 553.388672,103.931961 553.388672,104.866211 L550.397949,104.866211 C550.386556,104.30794 550.26408,103.781008 550.030518,103.2854 C549.796955,102.789792 549.480796,102.354006 549.082031,101.978027 C548.683266,101.602049 548.207604,101.305828 547.655029,101.089355 C547.102455,100.872883 546.507165,100.764648 545.869141,100.764648 C544.889318,100.764648 544.066165,100.96118 543.399658,101.354248 C542.733151,101.747316 542.194826,102.260007 541.784668,102.892334 C541.37451,103.524661 541.081137,104.233883 540.904541,105.02002 C540.727945,105.806156 540.639648,106.597978 540.639648,107.395508 L540.639648,108.113281 C540.639648,108.922205 540.727945,109.722571 540.904541,110.514404 C541.081137,111.306238 541.371661,112.018307 541.776123,112.650635 C542.180585,113.282962 542.716061,113.795652 543.382568,114.188721 C544.049076,114.581789 544.877925,114.77832 545.869141,114.77832 Z M567.163086,117.341797 C565.864251,117.341797 564.670822,117.119631 563.582764,116.675293 C562.494705,116.230955 561.563318,115.61003 560.788574,114.8125 C560.013831,114.01497 559.409996,113.069341 558.977051,111.975586 C558.544106,110.88183 558.327637,109.69125 558.327637,108.403809 L558.327637,107.686035 C558.327637,106.193515 558.566892,104.857672 559.04541,103.678467 C559.523928,102.499262 560.159094,101.502364 560.950928,100.687744 C561.742761,99.8731242 562.642817,99.2493511 563.651123,98.8164062 C564.659429,98.3834614 565.693354,98.1669922 566.75293,98.1669922 C568.085944,98.1669922 569.25089,98.3977028 570.247803,98.8591309 C571.244715,99.3205589 572.073564,99.9585734 572.734375,100.773193 C573.395186,101.587813 573.887938,102.547683 574.212646,103.652832 C574.537355,104.757981 574.699707,105.954258 574.699707,107.241699 L574.699707,108.660156 L561.489258,108.660156 C561.523438,109.503259 561.68579,110.295081 561.976318,111.035645 C562.266847,111.776208 562.665606,112.422767 563.172607,112.975342 C563.679609,113.527916 564.286292,113.963703 564.992676,114.282715 C565.69906,114.601727 566.479488,114.76123 567.333984,114.76123 C568.46192,114.76123 569.464514,114.533368 570.341797,114.077637 C571.21908,113.621905 571.948239,113.01807 572.529297,112.266113 L574.460449,113.77002 C574.15283,114.237144 573.768313,114.684324 573.306885,115.111572 C572.845457,115.53882 572.312829,115.917642 571.708984,116.248047 C571.10514,116.578452 570.421553,116.843342 569.658203,117.042725 C568.894853,117.242107 568.063156,117.341797 567.163086,117.341797 Z M566.75293,100.764648 C566.114906,100.764648 565.511071,100.881428 564.941406,101.11499 C564.371742,101.348553 563.859052,101.690346 563.40332,102.140381 C562.947589,102.590416 562.563071,103.142982 562.249756,103.798096 C561.93644,104.45321 561.717123,105.208004 561.591797,106.0625 L571.538086,106.0625 L571.538086,105.823242 C571.503906,105.208005 571.387127,104.598473 571.187744,103.994629 C570.988362,103.390785 570.694989,102.849612 570.307617,102.371094 C569.920245,101.892576 569.43319,101.50521 568.846436,101.208984 C568.259681,100.912759 567.561853,100.764648 566.75293,100.764648 Z" id="Binance" fill="#FFFFFF"></path>
                <path d="M478.39209,253.784668 L470.970215,253.784668 L470.970215,260.083496 L479.625,260.083496 L479.625,262 L468.711914,262 L468.711914,244.226562 L479.515137,244.226562 L479.515137,246.155273 L470.970215,246.155273 L470.970215,251.868164 L478.39209,251.868164 L478.39209,253.784668 Z M489.12207,251.196777 L492.955078,244.226562 L495.616211,244.226562 L490.452637,253.040039 L495.738281,262 L493.101562,262 L489.170898,254.895508 L485.228027,262 L482.554688,262 L487.852539,253.040039 L482.688965,244.226562 L485.337891,244.226562 L489.12207,251.196777 Z M510.130371,256.65332 C510.024576,257.475265 509.81299,258.230058 509.495605,258.917725 C509.178221,259.605391 508.765221,260.195391 508.256592,260.687744 C507.747963,261.180097 507.145755,261.56258 506.449951,261.835205 C505.754147,262.10783 504.979008,262.244141 504.124512,262.244141 C503.392086,262.244141 502.72681,262.140382 502.128662,261.932861 C501.530515,261.725341 500.99748,261.438478 500.529541,261.072266 C500.061602,260.706053 499.658774,260.274742 499.321045,259.77832 C498.983315,259.281899 498.702556,258.740726 498.47876,258.154785 C498.254963,257.568845 498.088135,256.95443 497.978271,256.311523 C497.868408,255.668617 497.809408,255.017581 497.80127,254.358398 L497.80127,251.880371 C497.809408,251.221188 497.868408,250.570153 497.978271,249.927246 C498.088135,249.284339 498.254963,248.669925 498.47876,248.083984 C498.702556,247.498044 498.983315,246.954836 499.321045,246.454346 C499.658774,245.953855 500.061602,245.52051 500.529541,245.154297 C500.99748,244.788084 501.52848,244.501222 502.122559,244.293701 C502.716637,244.086181 503.383948,243.982422 504.124512,243.982422 C505.01156,243.982422 505.80501,244.118732 506.504883,244.391357 C507.204756,244.663982 507.806964,245.050535 508.311523,245.551025 C508.816083,246.051516 509.220946,246.651689 509.526123,247.351562 C509.8313,248.051436 510.032714,248.82454 510.130371,249.670898 L507.87207,249.670898 C507.798828,249.133786 507.67269,248.633303 507.493652,248.169434 C507.314615,247.705564 507.074546,247.298667 506.773438,246.94873 C506.472329,246.598794 506.104087,246.324138 505.668701,246.124756 C505.233315,245.925373 504.71859,245.825684 504.124512,245.825684 C503.5874,245.825684 503.113365,245.913166 502.702393,246.088135 C502.29142,246.263103 501.93742,246.501138 501.640381,246.802246 C501.343342,247.103354 501.095134,247.453286 500.895752,247.852051 C500.696369,248.250816 500.535645,248.673989 500.413574,249.121582 C500.291503,249.569175 500.20402,250.026935 500.151123,250.494873 C500.098226,250.962812 500.071777,251.416502 500.071777,251.855957 L500.071777,254.358398 C500.071777,254.797854 500.098226,255.251544 500.151123,255.719482 C500.20402,256.187421 500.291503,256.647215 500.413574,257.098877 C500.535645,257.550539 500.694335,257.975747 500.889648,258.374512 C501.084962,258.773277 501.333169,259.125243 501.634277,259.43042 C501.935386,259.735597 502.289386,259.975666 502.696289,260.150635 C503.103192,260.325603 503.579262,260.413086 504.124512,260.413086 C504.71859,260.413086 505.233315,260.3195 505.668701,260.132324 C506.104087,259.945149 506.472329,259.6827 506.773438,259.344971 C507.074546,259.007241 507.314615,258.608482 507.493652,258.148682 C507.67269,257.688881 507.798828,257.190432 507.87207,256.65332 L510.130371,256.65332 Z M524.766602,262 L522.630371,262 L522.630371,253.784668 L515.342773,253.784668 L515.342773,262 L513.21875,262 L513.21875,244.226562 L515.342773,244.226562 L515.342773,251.868164 L522.630371,251.868164 L522.630371,244.226562 L524.766602,244.226562 L524.766602,262 Z M537.10791,257.397949 L531.175293,257.397949 L529.74707,262 L527.48877,262 L533.226074,244.226562 L535.118164,244.226562 L540.757812,262 L538.511719,262 L537.10791,257.397949 Z M531.785645,255.432617 L536.509766,255.432617 L534.166016,247.717773 L531.785645,255.432617 Z M554.759277,262 L552.464355,262 L545.567383,248.71875 L545.530762,262 L543.248047,262 L543.248047,244.226562 L545.542969,244.226562 L552.439941,257.483398 L552.476562,244.226562 L554.759277,244.226562 L554.759277,262 Z M570.12793,259.668457 C569.379228,260.547368 568.520675,261.198403 567.552246,261.621582 C566.583817,262.044761 565.521816,262.252279 564.366211,262.244141 C563.633785,262.236003 562.960371,262.124106 562.345947,261.908447 C561.731524,261.692789 561.180178,261.395754 560.691895,261.017334 C560.203611,260.638914 559.776369,260.193362 559.410156,259.680664 C559.043943,259.167966 558.736736,258.612552 558.488525,258.014404 C558.240315,257.416257 558.053142,256.789635 557.927002,256.134521 C557.800862,255.479408 557.733724,254.8182 557.725586,254.150879 L557.725586,252.087891 C557.733724,251.428708 557.792724,250.771569 557.902588,250.116455 C558.012452,249.461341 558.181314,248.832685 558.40918,248.230469 C558.637045,247.628252 558.921873,247.068769 559.263672,246.552002 C559.60547,246.035235 560.014402,245.587648 560.490479,245.209229 C560.966555,244.830809 561.505694,244.531739 562.10791,244.312012 C562.710127,244.092284 563.385576,243.982422 564.134277,243.982422 C564.96436,243.982422 565.729326,244.110594 566.429199,244.366943 C567.129073,244.623292 567.739418,244.9895 568.260254,245.465576 C568.78109,245.941653 569.200194,246.515378 569.517578,247.186768 C569.834963,247.858158 570.030273,248.608883 570.103516,249.438965 L567.869629,249.438965 C567.78011,248.926267 567.641765,248.452232 567.45459,248.016846 C567.267414,247.581459 567.021242,247.209149 566.716064,246.899902 C566.410887,246.590656 566.046714,246.348552 565.623535,246.173584 C565.200356,245.998616 564.708011,245.911133 564.146484,245.911133 C563.609372,245.911133 563.133303,246.002685 562.718262,246.185791 C562.303221,246.368897 561.941082,246.61507 561.631836,246.924316 C561.32259,247.233563 561.066245,247.593667 560.862793,248.004639 C560.659341,248.415611 560.492514,248.848956 560.362305,249.304688 C560.232096,249.760419 560.138509,250.224281 560.081543,250.696289 C560.024577,251.168297 559.996094,251.624021 559.996094,252.063477 L559.996094,254.150879 C560.004232,254.598472 560.042887,255.0603 560.112061,255.536377 C560.181234,256.012454 560.289062,256.478351 560.435547,256.934082 C560.582032,257.389813 560.769205,257.821124 560.99707,258.228027 C561.224936,258.63493 561.499591,258.993 561.821045,259.302246 C562.142498,259.611492 562.514809,259.857665 562.937988,260.040771 C563.361167,260.223878 563.841306,260.319499 564.378418,260.327637 C564.687664,260.335775 565.011147,260.323568 565.348877,260.291016 C565.686607,260.258463 566.014159,260.19336 566.331543,260.095703 C566.648927,259.998046 566.945962,259.865805 567.222656,259.698975 C567.49935,259.532144 567.731282,259.314454 567.918457,259.045898 L567.942871,255.054199 L564.32959,255.054199 L564.32959,253.149902 L570.091309,253.149902 L570.12793,259.668457 Z M583.40918,253.784668 L575.987305,253.784668 L575.987305,260.083496 L584.64209,260.083496 L584.64209,262 L573.729004,262 L573.729004,244.226562 L584.532227,244.226562 L584.532227,246.155273 L575.987305,246.155273 L575.987305,251.868164 L583.40918,251.868164 L583.40918,253.784668 Z M522.569336,286.422363 C522.577474,285.6818 522.306888,285.04704 521.757568,284.518066 C521.208249,283.989092 520.335455,283.529299 519.13916,283.138672 C518.38232,282.902668 517.698734,282.630047 517.088379,282.320801 C516.478024,282.011554 515.955162,281.643313 515.519775,281.216064 C515.084389,280.788816 514.748699,280.298505 514.512695,279.745117 C514.276692,279.191729 514.158691,278.552901 514.158691,277.828613 C514.158691,277.145016 514.26245,276.526533 514.469971,275.973145 C514.677491,275.419756 514.970457,274.937583 515.348877,274.526611 C515.727297,274.115639 516.18709,273.784018 516.728271,273.531738 C517.269453,273.279458 517.869626,273.112631 518.528809,273.03125 L518.528809,270.345703 L520.347656,270.345703 L520.347656,273.03125 C521.714851,273.218425 522.776852,273.794185 523.533691,274.758545 C524.290531,275.722905 524.673014,277.035148 524.681152,278.695312 L522.435059,278.695312 C522.435059,278.150062 522.367921,277.647545 522.233643,277.187744 C522.099365,276.727944 521.904054,276.333254 521.647705,276.003662 C521.391356,275.674071 521.076011,275.415691 520.70166,275.228516 C520.327309,275.04134 519.900068,274.947754 519.419922,274.947754 C518.435216,274.947754 517.690595,275.204099 517.186035,275.716797 C516.681475,276.229495 516.42513,276.92122 516.416992,277.791992 C516.416992,278.198895 516.482096,278.561034 516.612305,278.878418 C516.742514,279.195802 516.947997,279.484699 517.22876,279.745117 C517.509523,280.005535 517.871661,280.247639 518.315186,280.471436 C518.75871,280.695232 519.293779,280.912922 519.92041,281.124512 C520.685388,281.376792 521.373044,281.657551 521.983398,281.966797 C522.593753,282.276043 523.110512,282.638182 523.533691,283.053223 C523.956871,283.468264 524.280354,283.948402 524.50415,284.493652 C524.727947,285.038902 524.839844,285.673662 524.839844,286.397949 C524.839844,287.105961 524.727947,287.74072 524.50415,288.302246 C524.280354,288.863772 523.965009,289.345945 523.558105,289.748779 C523.151202,290.151613 522.656823,290.475096 522.074951,290.719238 C521.49308,290.96338 520.848148,291.12207 520.140137,291.195312 L520.140137,293.539062 L518.321289,293.539062 L518.321289,291.20752 C517.68652,291.142415 517.078209,290.995932 516.496338,290.768066 C515.914466,290.540201 515.399742,290.20858 514.952148,289.773193 C514.504555,289.337807 514.146486,288.790531 513.87793,288.131348 C513.609374,287.472165 513.475098,286.682785 513.475098,285.763184 L515.733398,285.763184 C515.733398,286.446781 515.835123,287.014402 516.038574,287.466064 C516.242026,287.917727 516.504474,288.277831 516.825928,288.546387 C517.147381,288.814943 517.511554,289.006184 517.918457,289.120117 C518.32536,289.23405 518.736326,289.291016 519.151367,289.291016 C519.680341,289.291016 520.156411,289.225912 520.57959,289.095703 C521.002769,288.965494 521.360838,288.776287 521.653809,288.528076 C521.946779,288.279865 522.172607,287.978762 522.331299,287.624756 C522.489991,287.27075 522.569336,286.869957 522.569336,286.422363 Z M535.948242,291 L533.689941,291 L533.689941,276.107422 L529.039062,277.877441 L529.039062,275.814453 L535.765137,273.226562 L535.948242,273.226562 L535.948242,291 Z" id="EXCHANGE-$1" fill="#FFFFFF"></path>
                <g id="TGE" transform="translate(278.000000, 343.000000)" fill="#FFFFFF">
                    <path d="M35.1113281,7.15527344 L29.6181641,7.15527344 L29.6181641,23 L27.4208984,23 L27.4208984,7.15527344 L21.9277344,7.15527344 L21.9277344,5.2265625 L35.1113281,5.2265625 L35.1113281,7.15527344 Z M49.6254883,20.668457 C48.8767866,21.5473677 48.018234,22.1984028 47.0498047,22.621582 C46.0813754,23.0447612 45.0193743,23.2522787 43.8637695,23.2441406 C43.131344,23.2360026 42.4579295,23.1241059 41.8435059,22.9084473 C41.2290822,22.6927886 40.6777368,22.3957538 40.1894531,22.017334 C39.7011694,21.6389141 39.2739276,21.1933619 38.9077148,20.6806641 C38.5415021,20.1679662 38.2342949,19.6125518 37.986084,19.0144043 C37.7378731,18.4162568 37.5507005,17.7896354 37.4245605,17.1345215 C37.2984206,16.4794075 37.2312826,15.8182 37.2231445,15.1508789 L37.2231445,13.0878906 C37.2312826,12.4287076 37.2902827,11.771569 37.4001465,11.1164551 C37.5100103,10.4613411 37.6788726,9.8326853 37.9067383,9.23046875 C38.134604,8.6282522 38.4194319,8.06876886 38.7612305,7.55200195 C39.1030291,7.03523505 39.5119605,6.58764838 39.9880371,6.20922852 C40.4641137,5.83080865 41.0032522,5.53173938 41.6054688,5.31201172 C42.2076853,5.09228406 42.8831343,4.98242188 43.6318359,4.98242188 C44.4619182,4.98242188 45.2268845,5.11059442 45.9267578,5.36694336 C46.6266311,5.6232923 47.2369766,5.98949957 47.7578125,6.46557617 C48.2786484,6.94165277 48.6977523,7.5153775 49.0151367,8.18676758 C49.3325211,8.85815765 49.5278317,9.60888257 49.6010742,10.4389648 L47.3671875,10.4389648 C47.2776688,9.92626697 47.1393239,9.45223199 46.9521484,9.0168457 C46.764973,8.58145941 46.5188004,8.20914868 46.213623,7.89990234 C45.9084457,7.59065601 45.5442729,7.34855231 45.1210938,7.17358398 C44.6979146,6.99861566 44.2055692,6.91113281 43.644043,6.91113281 C43.1069309,6.91113281 42.6308615,7.00268463 42.2158203,7.18579102 C41.8007792,7.3688974 41.4386409,7.61507007 41.1293945,7.92431641 C40.8201482,8.23356274 40.5638031,8.59366656 40.3603516,9.00463867 C40.1569,9.41561078 39.9900723,9.84895605 39.8598633,10.3046875 C39.7296543,10.7604189 39.636068,11.2242815 39.5791016,11.6962891 C39.5221351,12.1682966 39.4936523,12.6240212 39.4936523,13.0634766 L39.4936523,15.1508789 C39.5017904,15.5984723 39.5404456,16.0603004 39.6096191,16.536377 C39.6787927,17.0124536 39.7866204,17.4783506 39.9331055,17.934082 C40.0795906,18.3898135 40.2667632,18.8211243 40.4946289,19.2280273 C40.7224946,19.6349304 40.9971501,19.9929998 41.3186035,20.3022461 C41.6400569,20.6114924 42.0123677,20.8576651 42.4355469,21.0407715 C42.8587261,21.2238779 43.3388645,21.3194987 43.8759766,21.3276367 C44.1852229,21.3357748 44.508706,21.3235679 44.8464355,21.2910156 C45.1841651,21.2584634 45.5117172,21.1933599 45.8291016,21.0957031 C46.146486,20.9980464 46.4435208,20.8658049 46.7202148,20.6989746 C46.9969089,20.5321443 47.2288402,20.3144545 47.4160156,20.0458984 L47.4404297,16.0541992 L43.8271484,16.0541992 L43.8271484,14.1499023 L49.5888672,14.1499023 L49.6254883,20.668457 Z M62.9067383,14.784668 L55.4848633,14.784668 L55.4848633,21.0834961 L64.1396484,21.0834961 L64.1396484,23 L53.2265625,23 L53.2265625,5.2265625 L64.0297852,5.2265625 L64.0297852,7.15527344 L55.4848633,7.15527344 L55.4848633,12.8681641 L62.9067383,12.8681641 L62.9067383,14.784668 Z"></path>
                    <path d="M10.0717773,47.4223633 C10.0799154,46.6817997 9.80932892,46.0470404 9.26000977,45.5180664 C8.71069061,44.9890924 7.83789661,44.5292988 6.64160156,44.1386719 C5.88476184,43.9026681 5.20117493,43.6300471 4.59082031,43.3208008 C3.9804657,43.0115544 3.45760309,42.6433127 3.0222168,42.2160645 C2.58683051,41.7888162 2.2511405,41.2985054 2.01513672,40.7451172 C1.77913293,40.191729 1.66113281,39.5529008 1.66113281,38.8286133 C1.66113281,38.1450161 1.76489154,37.5265327 1.97241211,36.9731445 C2.17993268,36.4197563 2.4728985,35.9375834 2.85131836,35.5266113 C3.22973822,35.1156392 3.6895318,34.7840182 4.23071289,34.5317383 C4.77189398,34.2794584 5.37206702,34.1126306 6.03125,34.03125 L6.03125,31.3457031 L7.85009766,31.3457031 L7.85009766,34.03125 C9.21729199,34.2184254 10.2792931,34.7941846 11.0361328,35.7585449 C11.7929725,36.7229052 12.1754557,38.0351479 12.1835938,39.6953125 L9.9375,39.6953125 C9.9375,39.1500624 9.870362,38.6475446 9.73608398,38.1877441 C9.60180597,37.7279437 9.40649542,37.3332536 9.15014648,37.0036621 C8.89379755,36.6740706 8.57845239,36.415691 8.20410156,36.2285156 C7.82975073,36.0413402 7.40250891,35.9477539 6.92236328,35.9477539 C5.93765784,35.9477539 5.19303638,36.204099 4.68847656,36.7167969 C4.18391675,37.2294948 3.92757166,37.9212196 3.91943359,38.7919922 C3.91943359,39.1988953 3.98453711,39.5610336 4.11474609,39.878418 C4.24495508,40.1958024 4.45043805,40.4846992 4.73120117,40.7451172 C5.01196429,41.0055352 5.3741026,41.2476389 5.81762695,41.4714355 C6.26115131,41.6952322 6.79622083,41.9129221 7.42285156,42.1245117 C8.18782935,42.3767916 8.87548523,42.6575505 9.48583984,42.9667969 C10.0961945,43.2760432 10.6129536,43.6381815 11.0361328,44.0532227 C11.459312,44.4682638 11.7827951,44.9484022 12.0065918,45.4936523 C12.2303885,46.0389025 12.3422852,46.6736617 12.3422852,47.3979492 C12.3422852,48.1059606 12.2303885,48.7407198 12.0065918,49.3022461 C11.7827951,49.8637723 11.46745,50.3459453 11.0605469,50.7487793 C10.6536438,51.1516133 10.159264,51.4750964 9.57739258,51.7192383 C8.99552118,51.9633801 8.35058948,52.1220699 7.64257812,52.1953125 L7.64257812,54.5390625 L5.82373047,54.5390625 L5.82373047,52.2075195 C5.18896167,52.142415 4.5806507,51.9959321 3.9987793,51.7680664 C3.4169079,51.5402007 2.90218323,51.2085797 2.45458984,50.7731934 C2.00699646,50.3378071 1.64892712,49.7905306 1.38037109,49.1313477 C1.11181506,48.4721647 0.977539062,47.6827845 0.977539062,46.7631836 L3.23583984,46.7631836 C3.23583984,47.4467808 3.33756409,48.014402 3.54101562,48.4660645 C3.74446716,48.9177269 4.00691571,49.2778307 4.32836914,49.5463867 C4.64982257,49.8149427 5.01399536,50.0061843 5.42089844,50.1201172 C5.82780151,50.23405 6.23876746,50.2910156 6.65380859,50.2910156 C7.18278259,50.2910156 7.65885205,50.2259121 8.08203125,50.0957031 C8.50521045,49.9654941 8.86327979,49.776287 9.15625,49.5280762 C9.44922021,49.2798653 9.67504803,48.9787615 9.83374023,48.6247559 C9.99243243,48.2707502 10.0717773,47.8699567 10.0717773,47.4223633 Z M27.2836914,45.2006836 C27.2836914,46.3318741 27.1534844,47.3348752 26.8930664,48.2097168 C26.6326484,49.0845584 26.2583032,49.8210419 25.7700195,50.4191895 C25.2817358,51.017337 24.6835973,51.4710271 23.9755859,51.7802734 C23.2675746,52.0895198 22.4578496,52.2441406 21.5463867,52.2441406 C20.6430619,52.2441406 19.8353714,52.0895198 19.123291,51.7802734 C18.4112106,51.4710271 17.8069686,51.017337 17.3105469,50.4191895 C16.8141251,49.8210419 16.4336765,49.0845584 16.1691895,48.2097168 C15.9047025,47.3348752 15.7724609,46.3318741 15.7724609,45.2006836 L15.7724609,41.0380859 C15.7724609,39.9068954 15.902668,38.9038943 16.1630859,38.0290527 C16.4235039,37.1542111 16.7998836,36.4156931 17.2922363,35.8134766 C17.7845891,35.21126 18.3867966,34.7535009 19.098877,34.4401855 C19.8109573,34.1268702 20.6186478,33.9702148 21.5219727,33.9702148 C22.4334355,33.9702148 23.245195,34.1268702 23.9572754,34.4401855 C24.6693558,34.7535009 25.2715633,35.21126 25.763916,35.8134766 C26.2562687,36.4156931 26.6326484,37.1542111 26.8930664,38.0290527 C27.1534844,38.9038943 27.2836914,39.9068954 27.2836914,41.0380859 L27.2836914,45.2006836 Z M18.0429688,44.7490234 L24.9643555,39.4389648 C24.8341465,38.2589459 24.4903185,37.3617381 23.9328613,36.7473145 C23.3754041,36.1328908 22.5717826,35.8256836 21.5219727,35.8256836 C20.3338157,35.8256836 19.4569527,36.2264771 18.8913574,37.0280762 C18.3257621,37.8296752 18.0429688,38.999504 18.0429688,40.5375977 L18.0429688,44.7490234 Z M25.0131836,41.5996094 L18.1040039,46.8852539 C18.242351,48.0327206 18.5963513,48.9075491 19.1660156,49.5097656 C19.7356799,50.1119822 20.529129,50.4130859 21.5463867,50.4130859 C22.7426818,50.4130859 23.6195447,50.006189 24.177002,49.1923828 C24.7344592,48.3785767 25.0131836,47.2067134 25.0131836,45.6767578 L25.0131836,41.5996094 Z M35.0595703,50.5351562 C35.0595703,50.2910144 35.0982255,50.0631521 35.1755371,49.8515625 C35.2528487,49.6399729 35.3647454,49.4548348 35.5112305,49.2961426 C35.6577156,49.1374504 35.8408192,49.0133468 36.0605469,48.9238281 C36.2802745,48.8343094 36.5366196,48.7895508 36.8295898,48.7895508 C37.1225601,48.7895508 37.3809396,48.8343094 37.6047363,48.9238281 C37.828533,49.0133468 38.0157056,49.1374504 38.1662598,49.2961426 C38.3168139,49.4548348 38.4307451,49.6399729 38.5080566,49.8515625 C38.5853682,50.0631521 38.6240234,50.2910144 38.6240234,50.5351562 C38.6240234,50.77116 38.5853682,50.9929189 38.5080566,51.2004395 C38.4307451,51.40796 38.3168139,51.5890292 38.1662598,51.7436523 C38.0157056,51.8982755 37.828533,52.0183101 37.6047363,52.1037598 C37.3809396,52.1892094 37.1225601,52.2319336 36.8295898,52.2319336 C36.5366196,52.2319336 36.2802745,52.1892094 36.0605469,52.1037598 C35.8408192,52.0183101 35.6577156,51.8982755 35.5112305,51.7436523 C35.3647454,51.5890292 35.2528487,51.40796 35.1755371,51.2004395 C35.0982255,50.9929189 35.0595703,50.77116 35.0595703,50.5351562 Z M57.2885742,45.2006836 C57.2885742,46.3318741 57.1583672,47.3348752 56.8979492,48.2097168 C56.6375312,49.0845584 56.263186,49.8210419 55.7749023,50.4191895 C55.2866187,51.017337 54.6884801,51.4710271 53.9804688,51.7802734 C53.2724574,52.0895198 52.4627324,52.2441406 51.5512695,52.2441406 C50.6479447,52.2441406 49.8402542,52.0895198 49.1281738,51.7802734 C48.4160934,51.4710271 47.8118514,51.017337 47.3154297,50.4191895 C46.8190079,49.8210419 46.4385593,49.0845584 46.1740723,48.2097168 C45.9095853,47.3348752 45.7773438,46.3318741 45.7773438,45.2006836 L45.7773438,41.0380859 C45.7773438,39.9068954 45.9075508,38.9038943 46.1679688,38.0290527 C46.4283867,37.1542111 46.8047664,36.4156931 47.2971191,35.8134766 C47.7894719,35.21126 48.3916794,34.7535009 49.1037598,34.4401855 C49.8158401,34.1268702 50.6235306,33.9702148 51.5268555,33.9702148 C52.4383184,33.9702148 53.2500778,34.1268702 53.9621582,34.4401855 C54.6742386,34.7535009 55.2764461,35.21126 55.7687988,35.8134766 C56.2611516,36.4156931 56.6375312,37.1542111 56.8979492,38.0290527 C57.1583672,38.9038943 57.2885742,39.9068954 57.2885742,41.0380859 L57.2885742,45.2006836 Z M48.0478516,44.7490234 L54.9692383,39.4389648 C54.8390293,38.2589459 54.4952014,37.3617381 53.9377441,36.7473145 C53.3802869,36.1328908 52.5766654,35.8256836 51.5268555,35.8256836 C50.3386985,35.8256836 49.4618355,36.2264771 48.8962402,37.0280762 C48.330645,37.8296752 48.0478516,38.999504 48.0478516,40.5375977 L48.0478516,44.7490234 Z M55.0180664,41.5996094 L48.1088867,46.8852539 C48.2472338,48.0327206 48.6012341,48.9075491 49.1708984,49.5097656 C49.7405627,50.1119822 50.5340118,50.4130859 51.5512695,50.4130859 C52.7475646,50.4130859 53.6244276,50.006189 54.1818848,49.1923828 C54.739342,48.3785767 55.0180664,47.2067134 55.0180664,45.6767578 L55.0180664,41.5996094 Z M72.0712891,38.8652344 C72.063151,39.7522831 71.8230818,40.5416632 71.3510742,41.2333984 C70.8790667,41.9251337 70.2483763,42.4663066 69.4589844,42.8569336 C69.9147158,43.0522471 70.3277162,43.2943508 70.697998,43.583252 C71.0682798,43.8721531 71.3856595,44.2037742 71.6501465,44.578125 C71.9146335,44.9524758 72.118082,45.3593728 72.260498,45.7988281 C72.4029141,46.2382834 72.4741211,46.706215 72.4741211,47.2026367 C72.4741211,48.0083048 72.3256037,48.7244435 72.0285645,49.3510742 C71.7315252,49.977705 71.3286972,50.5046365 70.8200684,50.9318848 C70.3114395,51.359133 69.7153354,51.6846506 69.0317383,51.9084473 C68.3481411,52.132244 67.6157266,52.2441406 66.8344727,52.2441406 C66.0369426,52.2441406 65.2943557,52.1342784 64.6066895,51.9145508 C63.9190233,51.6948231 63.3208847,51.37134 62.8122559,50.9440918 C62.303627,50.5168436 61.9028335,49.989912 61.6098633,49.3632812 C61.3168931,48.7366505 61.1704102,48.0164429 61.1704102,47.2026367 C61.1704102,46.706215 61.2395826,46.236249 61.3779297,45.7927246 C61.5162767,45.3492003 61.7156562,44.9423033 61.9760742,44.5720215 C62.2364922,44.2017397 62.5498029,43.8701187 62.9160156,43.5771484 C63.2822284,43.2841782 63.6931943,43.04004 64.1489258,42.8447266 C63.7582988,42.6494131 63.4042985,42.4154473 63.0869141,42.1428223 C62.7695297,41.8701972 62.5009777,41.5650245 62.28125,41.2272949 C62.0615223,40.8895654 61.8906256,40.5213236 61.7685547,40.1225586 C61.6464838,39.7237936 61.5854492,39.3046897 61.5854492,38.8652344 C61.5854492,38.0921185 61.7156562,37.4024282 61.9760742,36.7961426 C62.2364922,36.189857 62.596596,35.6792013 63.0563965,35.2641602 C63.516197,34.849119 64.0655079,34.5317394 64.7043457,34.3120117 C65.3431835,34.0922841 66.0410118,33.9824219 66.7978516,33.9824219 C67.5465532,33.9824219 68.242347,34.0922841 68.8852539,34.3120117 C69.5281608,34.5317394 70.0856096,34.849119 70.5576172,35.2641602 C71.0296248,35.6792013 71.399901,36.189857 71.668457,36.7961426 C71.9370131,37.4024282 72.0712891,38.0921185 72.0712891,38.8652344 Z M70.2158203,47.1538086 C70.2158203,46.6573868 70.1324064,46.2016622 69.9655762,45.7866211 C69.7987459,45.37158 69.5647802,45.0155451 69.2636719,44.7185059 C68.9625636,44.4214666 68.6024598,44.1915698 68.1833496,44.0288086 C67.7642394,43.8660474 67.3064803,43.784668 66.8100586,43.784668 C66.2973607,43.784668 65.8334982,43.8660474 65.418457,44.0288086 C65.0034159,44.1915698 64.6494155,44.4214666 64.3564453,44.7185059 C64.0634751,45.0155451 63.8376473,45.37158 63.6789551,45.7866211 C63.5202629,46.2016622 63.440918,46.6573868 63.440918,47.1538086 C63.440918,47.6665065 63.5202629,48.1242656 63.6789551,48.5270996 C63.8376473,48.9299337 64.0634751,49.2696926 64.3564453,49.5463867 C64.6494155,49.8230808 65.0054504,50.0346672 65.4245605,50.1811523 C65.8436707,50.3276375 66.3136367,50.4008789 66.8344727,50.4008789 C67.3308944,50.4008789 67.786619,50.3276375 68.2016602,50.1811523 C68.6167013,50.0346672 68.9727361,49.8230808 69.2697754,49.5463867 C69.5668146,49.2696926 69.7987459,48.9299337 69.9655762,48.5270996 C70.1324064,48.1242656 70.2158203,47.6665065 70.2158203,47.1538086 Z M69.8007812,38.9018555 C69.8007812,38.4542621 69.7255053,38.0432961 69.5749512,37.6689453 C69.424397,37.2945945 69.2168796,36.9711114 68.9523926,36.6984863 C68.6879056,36.4258613 68.3725604,36.2142748 68.0063477,36.0637207 C67.6401349,35.9131666 67.2373069,35.8378906 66.7978516,35.8378906 C66.3583962,35.8378906 65.9596372,35.9090976 65.6015625,36.0515137 C65.2434878,36.1939297 64.9342461,36.3994127 64.6738281,36.6679688 C64.4134102,36.9365248 64.2119962,37.2600079 64.0695801,37.6384277 C63.927164,38.0168476 63.855957,38.437986 63.855957,38.9018555 C63.855957,39.365725 63.927164,39.7827944 64.0695801,40.1530762 C64.2119962,40.523358 64.4154446,40.8407376 64.6799316,41.1052246 C64.9444186,41.3697116 65.2577293,41.5731601 65.619873,41.7155762 C65.9820168,41.8579922 66.3828103,41.9291992 66.8222656,41.9291992 C67.2535829,41.9291992 67.6523419,41.8579922 68.0185547,41.7155762 C68.3847675,41.5731601 68.7001126,41.3697116 68.9645996,41.1052246 C69.2290866,40.8407376 69.4345696,40.5213235 69.5810547,40.1469727 C69.7275398,39.7726218 69.8007812,39.3575869 69.8007812,38.9018555 Z M85.2915039,46.0307617 L87.7695312,46.0307617 L87.7695312,47.8740234 L85.2915039,47.8740234 L85.2915039,52 L83.0332031,52 L83.0332031,47.8740234 L74.9277344,47.8740234 L74.9277344,46.543457 L82.8867188,34.2265625 L85.2915039,34.2265625 L85.2915039,46.0307617 Z M77.4301758,46.0307617 L83.0332031,46.0307617 L83.0332031,37.2294922 L82.6669922,37.9130859 L77.4301758,46.0307617 Z" id="$0.084"></path>
                </g>
                <path d="M47.9035645,232.019531 L47.9035645,242 L44.7419434,242 L44.7419434,217.117188 L52.8083496,217.117188 C53.9248917,217.139974 54.9816031,217.316567 55.9785156,217.646973 C56.9754282,217.977378 57.8498498,218.455889 58.6018066,219.08252 C59.3537635,219.70915 59.9490538,220.483882 60.3876953,221.406738 C60.8263368,222.329594 61.0456543,223.389154 61.0456543,224.585449 C61.0456543,225.781744 60.8263368,226.838456 60.3876953,227.755615 C59.9490538,228.672775 59.3537635,229.444658 58.6018066,230.071289 C57.8498498,230.69792 56.9754282,231.176431 55.9785156,231.506836 C54.9816031,231.837241 53.9248917,232.008138 52.8083496,232.019531 L47.9035645,232.019531 Z M47.9035645,229.421875 L52.8083496,229.421875 C53.5375199,229.410482 54.2097137,229.293702 54.8249512,229.071533 C55.4401886,228.849364 55.975665,228.533205 56.4313965,228.123047 C56.8871279,227.712889 57.2431628,227.21444 57.4995117,226.627686 C57.7558607,226.040931 57.8840332,225.371586 57.8840332,224.619629 C57.8840332,223.867672 57.7558607,223.189782 57.4995117,222.585938 C57.2431628,221.982093 56.8899762,221.469403 56.4399414,221.047852 C55.9899066,220.6263 55.4544302,220.301596 54.8334961,220.07373 C54.212562,219.845865 53.5375199,219.726237 52.8083496,219.714844 L47.9035645,219.714844 L47.9035645,229.421875 Z M73.6921387,231.848633 L68.7189941,231.848633 L68.7189941,242 L65.5744629,242 L65.5744629,217.117188 L72.8718262,217.117188 C74.0339414,217.139974 75.1276804,217.305174 76.1530762,217.612793 C77.1784719,217.920412 78.0756797,218.381833 78.8447266,218.99707 C79.6137734,219.612308 80.2176085,220.384191 80.65625,221.312744 C81.0948915,222.241297 81.314209,223.332188 81.314209,224.585449 C81.314209,225.394373 81.1974296,226.134925 80.9638672,226.807129 C80.7303048,227.479333 80.4084493,228.088864 79.998291,228.635742 C79.5881327,229.18262 79.0982288,229.666827 78.5285645,230.088379 C77.9589001,230.50993 77.3322788,230.868814 76.6486816,231.165039 L81.9294434,241.794922 L81.9123535,242 L78.579834,242 L73.6921387,231.848633 Z M68.7189941,229.250977 L72.9572754,229.250977 C73.6636591,229.239583 74.3301564,229.1285 74.9567871,228.917725 C75.5834178,228.706949 76.1331357,228.402183 76.605957,228.003418 C77.0787784,227.604653 77.4519029,227.117597 77.7253418,226.542236 C77.9987807,225.966875 78.135498,225.303226 78.135498,224.55127 C78.135498,223.75374 78.0044772,223.055911 77.7424316,222.457764 C77.4803861,221.859616 77.1158064,221.358319 76.6486816,220.953857 C76.1815569,220.549396 75.6261425,220.24463 74.9824219,220.039551 C74.3387012,219.834472 73.6351763,219.726237 72.8718262,219.714844 L68.7189941,219.714844 L68.7189941,229.250977 Z M100.147217,230.498535 L89.7565918,230.498535 L89.7565918,239.316895 L101.873291,239.316895 L101.873291,242 L86.5949707,242 L86.5949707,217.117188 L101.719482,217.117188 L101.719482,219.817383 L89.7565918,219.817383 L89.7565918,227.81543 L100.147217,227.81543 L100.147217,230.498535 Z M121.287354,232.412598 L108.213623,232.412598 L108.213623,229.814941 L121.287354,229.814941 L121.287354,232.412598 Z M141.504639,235.710938 C141.504639,234.947587 141.330894,234.303876 140.983398,233.779785 C140.635903,233.255694 140.188723,232.814211 139.641846,232.455322 C139.094968,232.096434 138.493981,231.797364 137.838867,231.558105 C137.183753,231.318846 136.554284,231.102377 135.950439,230.908691 C135.073156,230.623859 134.181645,230.282066 133.275879,229.883301 C132.370113,229.484536 131.544112,228.994632 130.797852,228.413574 C130.051591,227.832517 129.44206,227.146081 128.969238,226.354248 C128.496417,225.562415 128.26001,224.631027 128.26001,223.560059 C128.26001,222.48909 128.496417,221.532068 128.969238,220.688965 C129.44206,219.845862 130.060136,219.133792 130.823486,218.552734 C131.586836,217.971677 132.452713,217.530194 133.421143,217.228271 C134.389572,216.926349 135.363683,216.775391 136.343506,216.775391 C137.425868,216.775391 138.468338,216.954832 139.470947,217.313721 C140.473556,217.672609 141.362219,218.176755 142.136963,218.826172 C142.911706,219.475589 143.532631,220.261714 143.999756,221.18457 C144.466881,222.107426 144.711833,223.138503 144.734619,224.277832 L141.487549,224.277832 C141.396403,223.560055 141.219809,222.907799 140.957764,222.321045 C140.695718,221.734291 140.348228,221.230145 139.915283,220.808594 C139.482338,220.387042 138.9668,220.05949 138.368652,219.825928 C137.770505,219.592365 137.095463,219.475586 136.343506,219.475586 C135.739662,219.475586 135.150068,219.561034 134.574707,219.731934 C133.999346,219.902833 133.486656,220.159178 133.036621,220.500977 C132.586586,220.842775 132.227703,221.26432 131.959961,221.765625 C131.692219,222.26693 131.55835,222.847978 131.55835,223.508789 C131.569743,224.226566 131.752033,224.833249 132.105225,225.328857 C132.458416,225.824465 132.905596,226.243162 133.446777,226.584961 C133.987958,226.92676 134.574704,227.211587 135.207031,227.439453 C135.839359,227.667319 136.434649,227.866698 136.99292,228.037598 C137.608157,228.231284 138.229082,228.450601 138.855713,228.695557 C139.482344,228.940512 140.086179,229.222492 140.667236,229.541504 C141.248294,229.860516 141.789467,230.219399 142.290771,230.618164 C142.792076,231.016929 143.230711,231.469805 143.606689,231.976807 C143.982668,232.483808 144.276041,233.042071 144.486816,233.651611 C144.697592,234.261152 144.802979,234.936194 144.802979,235.676758 C144.802979,236.7933 144.555178,237.767411 144.05957,238.599121 C143.563962,239.430831 142.9231,240.122963 142.136963,240.675537 C141.350826,241.228111 140.462163,241.64396 139.470947,241.923096 C138.479731,242.202231 137.48853,242.341797 136.497314,242.341797 C135.392166,242.341797 134.30982,242.1709 133.250244,241.829102 C132.190669,241.487303 131.242192,240.994551 130.404785,240.35083 C129.567379,239.707109 128.88664,238.920984 128.362549,237.992432 C127.838458,237.063879 127.559326,236.007167 127.525146,234.822266 L130.755127,234.822266 C130.857667,235.597009 131.068439,236.283444 131.387451,236.881592 C131.706463,237.479739 132.116615,237.986733 132.61792,238.402588 C133.119225,238.818443 133.697425,239.131754 134.352539,239.342529 C135.007653,239.553305 135.722571,239.658691 136.497314,239.658691 C137.112552,239.658691 137.719235,239.581788 138.317383,239.427979 C138.91553,239.274169 139.448158,239.034914 139.915283,238.710205 C140.382408,238.385496 140.764077,237.975344 141.060303,237.479736 C141.356528,236.984128 141.504639,236.394535 141.504639,235.710938 Z M161.363037,235.557129 L153.057373,235.557129 L151.057861,242 L147.89624,242 L155.928467,217.117188 L158.577393,217.117188 L166.4729,242 L163.328369,242 L161.363037,235.557129 Z M153.911865,232.805664 L160.525635,232.805664 L157.244385,222.004883 L153.911865,232.805664 Z M174.060791,239.316895 L186.22876,239.316895 L186.22876,242 L170.89917,242 L170.89917,217.117188 L174.060791,217.117188 L174.060791,239.316895 Z M205.181396,230.498535 L194.790771,230.498535 L194.790771,239.316895 L206.907471,239.316895 L206.907471,242 L191.62915,242 L191.62915,217.117188 L206.753662,217.117188 L206.753662,219.817383 L194.790771,219.817383 L194.790771,227.81543 L205.181396,227.81543 L205.181396,230.498535 Z M77.9902344,276.591309 C78.0016277,275.55452 77.6228066,274.665857 76.8537598,273.925293 C76.084713,273.184729 74.8628013,272.541018 73.1879883,271.994141 C72.1284127,271.663735 71.171391,271.282066 70.3168945,270.849121 C69.4623981,270.416176 68.7303904,269.900638 68.1208496,269.30249 C67.5113088,268.704343 67.0413428,268.017908 66.7109375,267.243164 C66.3805322,266.468421 66.215332,265.574061 66.215332,264.560059 C66.215332,263.603023 66.3605943,262.737146 66.651123,261.962402 C66.9416518,261.187659 67.351804,260.512617 67.8815918,259.937256 C68.4113796,259.361895 69.0550906,258.897625 69.8127441,258.544434 C70.5703977,258.191242 71.4106399,257.957683 72.3334961,257.84375 L72.3334961,254.083984 L74.8798828,254.083984 L74.8798828,257.84375 C76.7939549,258.105796 78.2807564,258.911858 79.340332,260.261963 C80.3999076,261.612067 80.9353841,263.449207 80.9467773,265.773438 L77.8022461,265.773438 C77.8022461,265.010087 77.7082529,264.306562 77.5202637,263.662842 C77.3322745,263.019121 77.0588397,262.466555 76.6999512,262.005127 C76.3410627,261.543699 75.8995794,261.181967 75.3754883,260.919922 C74.8513971,260.657876 74.2532586,260.526855 73.5810547,260.526855 C72.2024671,260.526855 71.159997,260.885739 70.4536133,261.603516 C69.7472295,262.321293 69.3883464,263.289707 69.3769531,264.508789 C69.3769531,265.078453 69.468098,265.585447 69.6503906,266.029785 C69.8326832,266.474123 70.1203594,266.878579 70.5134277,267.243164 C70.9064961,267.607749 71.4134897,267.946694 72.0344238,268.26001 C72.6553579,268.573325 73.4044552,268.878091 74.2817383,269.174316 C75.3527072,269.527508 76.3154254,269.920571 77.1699219,270.353516 C78.0244183,270.78646 78.7478812,271.293454 79.340332,271.874512 C79.9327829,272.455569 80.3856592,273.127763 80.6989746,273.891113 C81.01229,274.654463 81.1689453,275.543126 81.1689453,276.557129 C81.1689453,277.548345 81.01229,278.437008 80.6989746,279.223145 C80.3856592,280.009281 79.944176,280.684323 79.3745117,281.248291 C78.8048474,281.812259 78.1127157,282.265135 77.2980957,282.606934 C76.4834757,282.948732 75.5805714,283.170898 74.5893555,283.273438 L74.5893555,286.554688 L72.0429688,286.554688 L72.0429688,283.290527 C71.1542924,283.199381 70.3026571,282.994305 69.4880371,282.675293 C68.6734172,282.356281 67.9528026,281.892012 67.3261719,281.282471 C66.6995411,280.67293 66.1982441,279.906743 65.8222656,278.983887 C65.4462872,278.061031 65.2583008,276.955898 65.2583008,275.668457 L68.4199219,275.668457 C68.4199219,276.625493 68.5623358,277.420163 68.847168,278.05249 C69.1320001,278.684818 69.4994281,279.188963 69.9494629,279.564941 C70.3994977,279.94092 70.9093396,280.208658 71.4790039,280.368164 C72.0486682,280.52767 72.6240205,280.607422 73.2050781,280.607422 C73.9456417,280.607422 74.612139,280.516277 75.2045898,280.333984 C75.7970407,280.151692 76.2983378,279.886802 76.7084961,279.539307 C77.1186544,279.191811 77.4348133,278.770266 77.6569824,278.274658 C77.8791515,277.77905 77.9902344,277.217939 77.9902344,276.591309 Z M102.086914,273.480957 C102.086914,275.064624 101.904624,276.468825 101.540039,277.693604 C101.175454,278.918382 100.651371,279.949459 99.9677734,280.786865 C99.2841763,281.624272 98.4467823,282.259438 97.4555664,282.692383 C96.4643505,283.125328 95.3307355,283.341797 94.0546875,283.341797 C92.7900327,283.341797 91.6592661,283.125328 90.6623535,282.692383 C89.665441,282.259438 88.8195022,281.624272 88.1245117,280.786865 C87.4295213,279.949459 86.8968931,278.918382 86.5266113,277.693604 C86.1563295,276.468825 85.9711914,275.064624 85.9711914,273.480957 L85.9711914,267.65332 C85.9711914,266.069654 86.1534812,264.665452 86.5180664,263.440674 C86.8826516,262.215896 87.4095831,261.18197 88.098877,260.338867 C88.7881708,259.495764 89.6312613,258.854901 90.6281738,258.41626 C91.6250864,257.977618 92.7558531,257.758301 94.0205078,257.758301 C95.2965559,257.758301 96.4330191,257.977618 97.4299316,258.41626 C98.4268442,258.854901 99.2699347,259.495764 99.9592285,260.338867 C100.648522,261.18197 101.175454,262.215896 101.540039,263.440674 C101.904624,264.665452 102.086914,266.069654 102.086914,267.65332 L102.086914,273.480957 Z M89.1499023,272.848633 L98.8398438,265.414551 C98.6575512,263.762524 98.1761921,262.506433 97.395752,261.64624 C96.6153119,260.786047 95.4902417,260.355957 94.0205078,260.355957 C92.357088,260.355957 91.1294799,260.917068 90.3376465,262.039307 C89.5458131,263.161545 89.1499023,264.799306 89.1499023,266.952637 L89.1499023,272.848633 Z M98.9082031,268.439453 L89.2353516,275.839355 C89.4290374,277.445809 89.9246379,278.670569 90.722168,279.513672 C91.519698,280.356775 92.6305267,280.77832 94.0546875,280.77832 C95.7295006,280.77832 96.9571087,280.208665 97.7375488,279.069336 C98.5179889,277.930007 98.9082031,276.289399 98.9082031,274.147461 L98.9082031,268.439453 Z M112.973145,280.949219 C112.973145,280.60742 113.027262,280.288413 113.135498,279.992188 C113.243734,279.695962 113.40039,279.436769 113.605469,279.2146 C113.810548,278.992431 114.066893,278.818686 114.374512,278.693359 C114.68213,278.568033 115.041014,278.505371 115.451172,278.505371 C115.86133,278.505371 116.223062,278.568033 116.536377,278.693359 C116.849692,278.818686 117.111734,278.992431 117.32251,279.2146 C117.533286,279.436769 117.692789,279.695962 117.801025,279.992188 C117.909262,280.288413 117.963379,280.60742 117.963379,280.949219 C117.963379,281.279624 117.909262,281.590086 117.801025,281.880615 C117.692789,282.171144 117.533286,282.424641 117.32251,282.641113 C117.111734,282.857586 116.849692,283.025634 116.536377,283.145264 C116.223062,283.264893 115.86133,283.324707 115.451172,283.324707 C115.041014,283.324707 114.68213,283.264893 114.374512,283.145264 C114.066893,283.025634 113.810548,282.857586 113.605469,282.641113 C113.40039,282.424641 113.243734,282.171144 113.135498,281.880615 C113.027262,281.590086 112.973145,281.279624 112.973145,280.949219 Z M144.09375,273.480957 C144.09375,275.064624 143.91146,276.468825 143.546875,277.693604 C143.18229,278.918382 142.658207,279.949459 141.974609,280.786865 C141.291012,281.624272 140.453618,282.259438 139.462402,282.692383 C138.471186,283.125328 137.337571,283.341797 136.061523,283.341797 C134.796869,283.341797 133.666102,283.125328 132.669189,282.692383 C131.672277,282.259438 130.826338,281.624272 130.131348,280.786865 C129.436357,279.949459 128.903729,278.918382 128.533447,277.693604 C128.163165,276.468825 127.978027,275.064624 127.978027,273.480957 L127.978027,267.65332 C127.978027,266.069654 128.160317,264.665452 128.524902,263.440674 C128.889487,262.215896 129.416419,261.18197 130.105713,260.338867 C130.795007,259.495764 131.638097,258.854901 132.63501,258.41626 C133.631922,257.977618 134.762689,257.758301 136.027344,257.758301 C137.303392,257.758301 138.439855,257.977618 139.436768,258.41626 C140.43368,258.854901 141.276771,259.495764 141.966064,260.338867 C142.655358,261.18197 143.18229,262.215896 143.546875,263.440674 C143.91146,264.665452 144.09375,266.069654 144.09375,267.65332 L144.09375,273.480957 Z M131.156738,272.848633 L140.84668,265.414551 C140.664387,263.762524 140.183028,262.506433 139.402588,261.64624 C138.622148,260.786047 137.497078,260.355957 136.027344,260.355957 C134.363924,260.355957 133.136316,260.917068 132.344482,262.039307 C131.552649,263.161545 131.156738,264.799306 131.156738,266.952637 L131.156738,272.848633 Z M140.915039,268.439453 L131.242188,275.839355 C131.435873,277.445809 131.931474,278.670569 132.729004,279.513672 C133.526534,280.356775 134.637363,280.77832 136.061523,280.77832 C137.736336,280.77832 138.963945,280.208665 139.744385,279.069336 C140.524825,277.930007 140.915039,276.289399 140.915039,274.147461 L140.915039,268.439453 Z M150.60498,270.524414 L151.852539,258.117188 L164.618652,258.117188 L164.618652,261.193359 L154.518555,261.193359 L153.817871,267.824219 C154.307782,267.539387 154.894528,267.288738 155.578125,267.072266 C156.261722,266.855793 157.053544,266.747559 157.953613,266.747559 C159.104335,266.747559 160.135412,266.946938 161.046875,267.345703 C161.958338,267.744468 162.73307,268.305579 163.371094,269.029053 C164.009118,269.752526 164.499022,270.626948 164.84082,271.652344 C165.182619,272.67774 165.353516,273.817051 165.353516,275.070312 C165.353516,276.255214 165.194012,277.35465 164.875,278.368652 C164.555988,279.382655 164.074629,280.257076 163.430908,280.991943 C162.787188,281.72681 161.975428,282.302163 160.995605,282.718018 C160.015783,283.133873 158.865078,283.341797 157.543457,283.341797 C156.529455,283.341797 155.572433,283.199383 154.672363,282.914551 C153.772294,282.629719 152.971927,282.202477 152.27124,281.632812 C151.570553,281.063148 150.995201,280.345382 150.545166,279.479492 C150.095131,278.613602 149.813152,277.605312 149.699219,276.45459 L152.707031,276.45459 C152.900717,277.867357 153.421952,278.93831 154.270752,279.66748 C155.119552,280.396651 156.210443,280.76123 157.543457,280.76123 C158.295414,280.76123 158.961911,280.627361 159.542969,280.359619 C160.124026,280.091877 160.611082,279.710208 161.00415,279.2146 C161.397219,278.718992 161.69344,278.123701 161.892822,277.428711 C162.092205,276.73372 162.191895,275.958989 162.191895,275.104492 C162.191895,274.329749 162.080812,273.606286 161.858643,272.934082 C161.636473,272.261878 161.314618,271.677981 160.893066,271.182373 C160.471515,270.686765 159.953128,270.296551 159.337891,270.011719 C158.722653,269.726887 158.01628,269.584473 157.21875,269.584473 C156.694659,269.584473 156.241783,269.6215 155.860107,269.695557 C155.478432,269.769613 155.133791,269.874999 154.826172,270.011719 C154.518553,270.148438 154.230877,270.313638 153.963135,270.507324 C153.695393,270.70101 153.419109,270.923176 153.134277,271.173828 L150.60498,270.524414 Z M185.741699,283 L169.437988,283 L169.437988,280.727051 L177.589844,271.669434 C178.319014,270.86051 178.928546,270.142744 179.418457,269.516113 C179.908368,268.889483 180.301431,268.311282 180.597656,267.781494 C180.893882,267.251706 181.104654,266.750409 181.22998,266.277588 C181.355307,265.804767 181.417969,265.317711 181.417969,264.816406 C181.417969,264.201169 181.318279,263.622968 181.118896,263.081787 C180.919514,262.540606 180.62899,262.07064 180.247314,261.671875 C179.865639,261.27311 179.404218,260.956951 178.863037,260.723389 C178.321856,260.489826 177.709476,260.373047 177.025879,260.373047 C176.194169,260.373047 175.473554,260.492675 174.864014,260.731934 C174.254473,260.971193 173.747479,261.310138 173.343018,261.748779 C172.938556,262.187421 172.636638,262.720049 172.437256,263.34668 C172.237873,263.97331 172.138184,264.673987 172.138184,265.44873 L168.959473,265.44873 C168.959473,264.400548 169.141762,263.412195 169.506348,262.483643 C169.870933,261.55509 170.397864,260.74333 171.087158,260.04834 C171.776452,259.353349 172.619543,258.800783 173.616455,258.390625 C174.613368,257.980467 175.749831,257.775391 177.025879,257.775391 C178.199387,257.775391 179.256099,257.949136 180.196045,258.296631 C181.135991,258.644126 181.930661,259.125485 182.580078,259.740723 C183.229495,260.35596 183.727944,261.085119 184.075439,261.928223 C184.422935,262.771326 184.59668,263.688472 184.59668,264.679688 C184.59668,265.420251 184.471355,266.152259 184.220703,266.875732 C183.970051,267.599206 183.631106,268.314124 183.203857,269.020508 C182.776609,269.726892 182.281009,270.42472 181.717041,271.114014 C181.153073,271.803307 180.557783,272.489743 179.931152,273.17334 L173.249023,280.419434 L185.741699,280.419434 L185.741699,283 Z" id="PRE-SALE-$0.052" fill="#FFFFFF"></path>
            </g>
        </g>
    </g>
</svg>