<?xml version="1.0" encoding="UTF-8"?>
<svg width="615px" height="489px" viewBox="0 0 615 489" version="1.1" xmlns="http://www.w3.org/2000/svg" xmlns:xlink="http://www.w3.org/1999/xlink">
    <!-- Generator: Sketch 49.3 (51167) - http://www.bohemiancoding.com/sketch -->
    <title>exchangeDashboard Copy 2</title>
    <desc>Created with Sketch.</desc>
    <defs>
        <rect id="path-1" x="0" y="0" width="615" height="437" rx="28"></rect>
        <filter x="-23.6%" y="-12.7%" width="147.3%" height="147.3%" filterUnits="objectBoundingBox" id="filter-3">
            <feOffset dx="0" dy="4" in="SourceAlpha" result="shadowOffsetOuter1"></feOffset>
            <feGaussianBlur stdDeviation="2" in="shadowOffsetOuter1" result="shadowBlurOuter1"></feGaussianBlur>
            <feColorMatrix values="0 0 0 0 0   0 0 0 0 0   0 0 0 0 0  0 0 0 0.5 0" type="matrix" in="shadowBlurOuter1" result="shadowMatrixOuter1"></feColorMatrix>
            <feMerge>
                <feMergeNode in="shadowMatrixOuter1"></feMergeNode>
                <feMergeNode in="SourceGraphic"></feMergeNode>
            </feMerge>
        </filter>
        <circle id="path-4" cx="28" cy="28" r="10"></circle>
        <filter x="-35.0%" y="-25.0%" width="170.0%" height="170.0%" filterUnits="objectBoundingBox" id="filter-5">
            <feOffset dx="0" dy="2" in="SourceAlpha" result="shadowOffsetOuter1"></feOffset>
            <feGaussianBlur stdDeviation="2" in="shadowOffsetOuter1" result="shadowBlurOuter1"></feGaussianBlur>
            <feColorMatrix values="0 0 0 0 0   0 0 0 0 0   0 0 0 0 0  0 0 0 0.5 0" type="matrix" in="shadowBlurOuter1"></feColorMatrix>
        </filter>
        <circle id="path-6" cx="27.5" cy="27.5" r="18.5"></circle>
        <filter x="-19.6%" y="-14.2%" width="139.2%" height="139.2%" filterUnits="objectBoundingBox" id="filter-7">
            <feMorphology radius="0.25" operator="dilate" in="SourceAlpha" result="shadowSpreadOuter1"></feMorphology>
            <feOffset dx="0" dy="2" in="shadowSpreadOuter1" result="shadowOffsetOuter1"></feOffset>
            <feMorphology radius="1" operator="erode" in="SourceAlpha" result="shadowInner"></feMorphology>
            <feOffset dx="0" dy="2" in="shadowInner" result="shadowInner"></feOffset>
            <feComposite in="shadowOffsetOuter1" in2="shadowInner" operator="out" result="shadowOffsetOuter1"></feComposite>
            <feGaussianBlur stdDeviation="2" in="shadowOffsetOuter1" result="shadowBlurOuter1"></feGaussianBlur>
            <feColorMatrix values="0 0 0 0 0   0 0 0 0 0   0 0 0 0 0  0 0 0 0.5 0" type="matrix" in="shadowBlurOuter1"></feColorMatrix>
        </filter>
        <circle id="path-8" cx="27.5" cy="27.5" r="27.5"></circle>
        <filter x="-13.2%" y="-9.5%" width="126.4%" height="126.4%" filterUnits="objectBoundingBox" id="filter-9">
            <feMorphology radius="0.25" operator="dilate" in="SourceAlpha" result="shadowSpreadOuter1"></feMorphology>
            <feOffset dx="0" dy="2" in="shadowSpreadOuter1" result="shadowOffsetOuter1"></feOffset>
            <feMorphology radius="1" operator="erode" in="SourceAlpha" result="shadowInner"></feMorphology>
            <feOffset dx="0" dy="2" in="shadowInner" result="shadowInner"></feOffset>
            <feComposite in="shadowOffsetOuter1" in2="shadowInner" operator="out" result="shadowOffsetOuter1"></feComposite>
            <feGaussianBlur stdDeviation="2" in="shadowOffsetOuter1" result="shadowBlurOuter1"></feGaussianBlur>
            <feColorMatrix values="0 0 0 0 0   0 0 0 0 0   0 0 0 0 0  0 0 0 0.5 0" type="matrix" in="shadowBlurOuter1"></feColorMatrix>
        </filter>
        <filter x="-23.6%" y="-12.7%" width="147.3%" height="147.3%" filterUnits="objectBoundingBox" id="filter-10">
            <feOffset dx="0" dy="4" in="SourceAlpha" result="shadowOffsetOuter1"></feOffset>
            <feGaussianBlur stdDeviation="2" in="shadowOffsetOuter1" result="shadowBlurOuter1"></feGaussianBlur>
            <feColorMatrix values="0 0 0 0 0   0 0 0 0 0   0 0 0 0 0  0 0 0 0.5 0" type="matrix" in="shadowBlurOuter1" result="shadowMatrixOuter1"></feColorMatrix>
            <feMerge>
                <feMergeNode in="shadowMatrixOuter1"></feMergeNode>
                <feMergeNode in="SourceGraphic"></feMergeNode>
            </feMerge>
        </filter>
        <circle id="path-11" cx="28" cy="28" r="10"></circle>
        <filter x="-35.0%" y="-25.0%" width="170.0%" height="170.0%" filterUnits="objectBoundingBox" id="filter-12">
            <feOffset dx="0" dy="2" in="SourceAlpha" result="shadowOffsetOuter1"></feOffset>
            <feGaussianBlur stdDeviation="2" in="shadowOffsetOuter1" result="shadowBlurOuter1"></feGaussianBlur>
            <feColorMatrix values="0 0 0 0 0   0 0 0 0 0   0 0 0 0 0  0 0 0 0.5 0" type="matrix" in="shadowBlurOuter1"></feColorMatrix>
        </filter>
        <circle id="path-13" cx="27.5" cy="27.5" r="18.5"></circle>
        <filter x="-19.6%" y="-14.2%" width="139.2%" height="139.2%" filterUnits="objectBoundingBox" id="filter-14">
            <feMorphology radius="0.25" operator="dilate" in="SourceAlpha" result="shadowSpreadOuter1"></feMorphology>
            <feOffset dx="0" dy="2" in="shadowSpreadOuter1" result="shadowOffsetOuter1"></feOffset>
            <feMorphology radius="1" operator="erode" in="SourceAlpha" result="shadowInner"></feMorphology>
            <feOffset dx="0" dy="2" in="shadowInner" result="shadowInner"></feOffset>
            <feComposite in="shadowOffsetOuter1" in2="shadowInner" operator="out" result="shadowOffsetOuter1"></feComposite>
            <feGaussianBlur stdDeviation="2" in="shadowOffsetOuter1" result="shadowBlurOuter1"></feGaussianBlur>
            <feColorMatrix values="0 0 0 0 0   0 0 0 0 0   0 0 0 0 0  0 0 0 0.5 0" type="matrix" in="shadowBlurOuter1"></feColorMatrix>
        </filter>
        <circle id="path-15" cx="27.5" cy="27.5" r="27.5"></circle>
        <filter x="-13.2%" y="-9.5%" width="126.4%" height="126.4%" filterUnits="objectBoundingBox" id="filter-16">
            <feMorphology radius="0.25" operator="dilate" in="SourceAlpha" result="shadowSpreadOuter1"></feMorphology>
            <feOffset dx="0" dy="2" in="shadowSpreadOuter1" result="shadowOffsetOuter1"></feOffset>
            <feMorphology radius="1" operator="erode" in="SourceAlpha" result="shadowInner"></feMorphology>
            <feOffset dx="0" dy="2" in="shadowInner" result="shadowInner"></feOffset>
            <feComposite in="shadowOffsetOuter1" in2="shadowInner" operator="out" result="shadowOffsetOuter1"></feComposite>
            <feGaussianBlur stdDeviation="2" in="shadowOffsetOuter1" result="shadowBlurOuter1"></feGaussianBlur>
            <feColorMatrix values="0 0 0 0 0   0 0 0 0 0   0 0 0 0 0  0 0 0 0.5 0" type="matrix" in="shadowBlurOuter1"></feColorMatrix>
        </filter>
        <filter x="-23.0%" y="-12.1%" width="145.5%" height="145.5%" filterUnits="objectBoundingBox" id="filter-17">
            <feOffset dx="0" dy="6" in="SourceAlpha" result="shadowOffsetOuter1"></feOffset>
            <feGaussianBlur stdDeviation="3" in="shadowOffsetOuter1" result="shadowBlurOuter1"></feGaussianBlur>
            <feColorMatrix values="0 0 0 0 0   0 0 0 0 0   0 0 0 0 0  0 0 0 0.5 0" type="matrix" in="shadowBlurOuter1" result="shadowMatrixOuter1"></feColorMatrix>
            <feMerge>
                <feMergeNode in="shadowMatrixOuter1"></feMergeNode>
                <feMergeNode in="SourceGraphic"></feMergeNode>
            </feMerge>
        </filter>
        <circle id="path-18" cx="42" cy="42" r="15"></circle>
        <filter x="-35.0%" y="-25.0%" width="170.0%" height="170.0%" filterUnits="objectBoundingBox" id="filter-19">
            <feOffset dx="0" dy="3" in="SourceAlpha" result="shadowOffsetOuter1"></feOffset>
            <feGaussianBlur stdDeviation="3" in="shadowOffsetOuter1" result="shadowBlurOuter1"></feGaussianBlur>
            <feColorMatrix values="0 0 0 0 0   0 0 0 0 0   0 0 0 0 0  0 0 0 0.5 0" type="matrix" in="shadowBlurOuter1"></feColorMatrix>
        </filter>
        <circle id="path-20" cx="41.25" cy="41.25" r="27.75"></circle>
        <filter x="-19.6%" y="-14.2%" width="139.2%" height="139.2%" filterUnits="objectBoundingBox" id="filter-21">
            <feMorphology radius="0.375" operator="dilate" in="SourceAlpha" result="shadowSpreadOuter1"></feMorphology>
            <feOffset dx="0" dy="3" in="shadowSpreadOuter1" result="shadowOffsetOuter1"></feOffset>
            <feMorphology radius="1" operator="erode" in="SourceAlpha" result="shadowInner"></feMorphology>
            <feOffset dx="0" dy="3" in="shadowInner" result="shadowInner"></feOffset>
            <feComposite in="shadowOffsetOuter1" in2="shadowInner" operator="out" result="shadowOffsetOuter1"></feComposite>
            <feGaussianBlur stdDeviation="3" in="shadowOffsetOuter1" result="shadowBlurOuter1"></feGaussianBlur>
            <feColorMatrix values="0 0 0 0 0   0 0 0 0 0   0 0 0 0 0  0 0 0 0.5 0" type="matrix" in="shadowBlurOuter1"></feColorMatrix>
        </filter>
        <circle id="path-22" cx="41.25" cy="41.25" r="41.25"></circle>
        <filter x="-13.2%" y="-9.5%" width="126.4%" height="126.4%" filterUnits="objectBoundingBox" id="filter-23">
            <feMorphology radius="0.375" operator="dilate" in="SourceAlpha" result="shadowSpreadOuter1"></feMorphology>
            <feOffset dx="0" dy="3" in="shadowSpreadOuter1" result="shadowOffsetOuter1"></feOffset>
            <feMorphology radius="1" operator="erode" in="SourceAlpha" result="shadowInner"></feMorphology>
            <feOffset dx="0" dy="3" in="shadowInner" result="shadowInner"></feOffset>
            <feComposite in="shadowOffsetOuter1" in2="shadowInner" operator="out" result="shadowOffsetOuter1"></feComposite>
            <feGaussianBlur stdDeviation="3" in="shadowOffsetOuter1" result="shadowBlurOuter1"></feGaussianBlur>
            <feColorMatrix values="0 0 0 0 0   0 0 0 0 0   0 0 0 0 0  0 0 0 0.5 0" type="matrix" in="shadowBlurOuter1"></feColorMatrix>
        </filter>
        <circle id="path-24" cx="307.5" cy="97.5" r="97.5"></circle>
        <filter x="-0.8%" y="-0.8%" width="101.5%" height="101.5%" filterUnits="objectBoundingBox" id="filter-25">
            <feOffset dx="0" dy="0" in="SourceAlpha" result="shadowOffsetOuter1"></feOffset>
            <feGaussianBlur stdDeviation="0.5" in="shadowOffsetOuter1" result="shadowBlurOuter1"></feGaussianBlur>
            <feColorMatrix values="0 0 0 0 0   0 0 0 0 0   0 0 0 0 0  0 0 0 0.5 0" type="matrix" in="shadowBlurOuter1"></feColorMatrix>
        </filter>
    </defs>
    <g id="Page-1" stroke="none" stroke-width="1" fill="none" fill-rule="evenodd">
        <g id="Cards" transform="translate(-1471.000000, -124.000000)">
            <g id="exchangeDashboard-Copy-2" transform="translate(1471.000000, 125.000000)">
                <g id="qtzRate" transform="translate(0.000000, 51.000000)">
                    <mask id="mask-2" fill="white">
                        <use xlink:href="#path-1"></use>
                    </mask>
                    <use id="Rectangle1" fill="#696EFB" xlink:href="#path-1"></use>
                    <path d="M-53,393 C-14.3333333,378.333333 46,371 128,371 C251,371 212.5,268.75 344.5,262.25 C476.5,255.75 388,160.5 539.5,156 C640.5,153 667.666667,144.833333 621,131.5" id="Path-4" stroke="#FFFFFF" stroke-width="7" stroke-linejoin="round" mask="url(#mask-2)"></path>
                    <g id="icon/point" mask="url(#mask-2)">
                        <g transform="translate(496.000000, 128.000000)" id="Group-Copy-2">
                            <g filter="url(#filter-3)">
                                <g id="Oval-2">
                                    <use fill="black" fill-opacity="1" filter="url(#filter-5)" xlink:href="#path-4"></use>
                                    <use fill="#FFFFFF" fill-rule="evenodd" xlink:href="#path-4"></use>
                                </g>
                                <g id="Oval-2" opacity="0.3">
                                    <use fill="black" fill-opacity="1" filter="url(#filter-7)" xlink:href="#path-6"></use>
                                    <use stroke="#333333" stroke-width="0.5" xlink:href="#path-6"></use>
                                </g>
                                <g id="Oval-2" opacity="0.3">
                                    <use fill="black" fill-opacity="1" filter="url(#filter-9)" xlink:href="#path-8"></use>
                                    <use stroke="#333333" stroke-width="0.5" xlink:href="#path-8"></use>
                                </g>
                            </g>
                        </g>
                    </g>
                    <g id="icon/point" mask="url(#mask-2)">
                        <g transform="translate(295.000000, 236.000000)" id="Group-Copy-2">
                            <g filter="url(#filter-10)">
                                <g id="Oval-2">
                                    <use fill="black" fill-opacity="1" filter="url(#filter-12)" xlink:href="#path-11"></use>
                                    <use fill="#FFFFFF" fill-rule="evenodd" xlink:href="#path-11"></use>
                                </g>
                                <g id="Oval-2" opacity="0.3">
                                    <use fill="black" fill-opacity="1" filter="url(#filter-14)" xlink:href="#path-13"></use>
                                    <use stroke="#333333" stroke-width="0.5" xlink:href="#path-13"></use>
                                </g>
                                <g id="Oval-2" opacity="0.3">
                                    <use fill="black" fill-opacity="1" filter="url(#filter-16)" xlink:href="#path-15"></use>
                                    <use stroke="#333333" stroke-width="0.5" xlink:href="#path-15"></use>
                                </g>
                            </g>
                        </g>
                    </g>
                    <g id="live-copy-3" mask="url(#mask-2)">
                        <g transform="translate(51.000000, 247.000000)">
                            <rect id="Rectangle-10" fill="#333333" x="0" y="0" width="150" height="45" rx="11"></rect>
                            <path d="M19.675293,29.0834961 L28.3666992,29.0834961 L28.3666992,31 L17.4169922,31 L17.4169922,13.2265625 L19.675293,13.2265625 L19.675293,29.0834961 Z M32.1264648,13.2265625 L42.8686523,13.2265625 L42.8686523,15.1918945 L38.6083984,15.1918945 L38.6083984,29.046875 L42.8686523,29.046875 L42.8686523,31 L32.1264648,31 L32.1264648,29.046875 L36.2890625,29.046875 L36.2890625,15.1918945 L32.1264648,15.1918945 L32.1264648,13.2265625 Z M52.4511719,27.3623047 L56.6503906,13.2265625 L59.0551758,13.2265625 L53.4521484,31 L51.4868164,31 L45.871582,13.2265625 L48.2885742,13.2265625 L52.4511719,27.3623047 Z M71.9091797,22.784668 L64.4873047,22.784668 L64.4873047,29.0834961 L73.1420898,29.0834961 L73.1420898,31 L62.2290039,31 L62.2290039,13.2265625 L73.0322266,13.2265625 L73.0322266,15.1552734 L64.4873047,15.1552734 L64.4873047,20.8681641 L71.9091797,20.8681641 L71.9091797,22.784668 Z M103.269043,31 L100.974121,31 L94.0771484,17.71875 L94.0405273,31 L91.7578125,31 L91.7578125,13.2265625 L94.0527344,13.2265625 L100.949707,26.4833984 L100.986328,13.2265625 L103.269043,13.2265625 L103.269043,31 Z M118.69873,23.1386719 C118.690592,23.7734407 118.635661,24.4143034 118.533936,25.0612793 C118.43221,25.7082552 118.275554,26.332842 118.063965,26.9350586 C117.852375,27.5372751 117.581789,28.098793 117.252197,28.6196289 C116.922606,29.1404648 116.52995,29.5961895 116.074219,29.9868164 C115.618487,30.3774434 115.095625,30.6846506 114.505615,30.9084473 C113.915606,31.132244 113.254398,31.2441406 112.521973,31.2441406 C111.789547,31.2441406 111.12834,31.132244 110.53833,30.9084473 C109.948321,30.6846506 109.425458,30.3774434 108.969727,29.9868164 C108.513995,29.5961895 108.119305,29.1384304 107.785645,28.6135254 C107.451984,28.0886204 107.177329,27.5250681 106.96167,26.9228516 C106.746011,26.320635 106.585287,25.6980826 106.479492,25.0551758 C106.373697,24.4122689 106.316732,23.7734407 106.308594,23.1386719 L106.308594,21.1123047 C106.316732,20.4775359 106.371663,19.8366732 106.473389,19.1896973 C106.575114,18.5427214 106.733804,17.9181345 106.949463,17.315918 C107.165122,16.7137014 107.437742,16.1501491 107.767334,15.6252441 C108.096925,15.1003392 108.489581,14.6405456 108.945312,14.2458496 C109.401044,13.8511536 109.923907,13.5419119 110.513916,13.3181152 C111.103925,13.0943185 111.765133,12.9824219 112.497559,12.9824219 C113.229984,12.9824219 113.893226,13.0943185 114.487305,13.3181152 C115.081383,13.5419119 115.60628,13.8491191 116.062012,14.2397461 C116.517743,14.630373 116.910399,15.0881321 117.23999,15.6130371 C117.569582,16.1379421 117.842203,16.7014944 118.057861,17.3037109 C118.27352,17.9059275 118.43221,18.5325488 118.533936,19.1835938 C118.635661,19.8346387 118.690592,20.4775359 118.69873,21.1123047 L118.69873,23.1386719 Z M116.464844,21.0878906 C116.456706,20.6647114 116.428223,20.2232282 116.379395,19.7634277 C116.330566,19.3036273 116.247152,18.8479026 116.12915,18.3962402 C116.011148,17.9445778 115.854493,17.513267 115.65918,17.1022949 C115.463866,16.6913228 115.219728,16.3291845 114.926758,16.0158691 C114.633788,15.7025538 114.287925,15.4543466 113.88916,15.2712402 C113.490395,15.0881339 113.026533,14.996582 112.497559,14.996582 C111.976723,14.996582 111.516929,15.0901683 111.118164,15.2773438 C110.719399,15.4645192 110.373537,15.7147608 110.080566,16.0280762 C109.787596,16.3413915 109.543458,16.7035298 109.348145,17.114502 C109.152831,17.5254741 108.996176,17.9567849 108.878174,18.4084473 C108.760172,18.8601097 108.674724,19.3158343 108.621826,19.7756348 C108.568929,20.2354352 108.538411,20.6728495 108.530273,21.0878906 L108.530273,23.1386719 C108.538411,23.553713 108.568929,23.9931617 108.621826,24.4570312 C108.674724,24.9209008 108.762206,25.3786599 108.884277,25.8303223 C109.006348,26.2819847 109.165038,26.71533 109.360352,27.1303711 C109.555665,27.5454122 109.799803,27.909585 110.092773,28.2229004 C110.385744,28.5362158 110.731606,28.7864574 111.130371,28.9736328 C111.529136,29.1608082 111.992999,29.2543945 112.521973,29.2543945 C113.050947,29.2543945 113.516844,29.1608082 113.919678,28.9736328 C114.322512,28.7864574 114.668374,28.5362158 114.957275,28.2229004 C115.246177,27.909585 115.486246,27.5474467 115.67749,27.1364746 C115.868735,26.7255025 116.023356,26.2941917 116.141357,25.8425293 C116.259359,25.3908669 116.340739,24.9331078 116.385498,24.4692383 C116.430257,24.0053688 116.456706,23.5618511 116.464844,23.1386719 L116.464844,21.0878906 Z M130.95459,26.1904297 L132.30957,13.2265625 L134.445801,13.2265625 L132.285156,31 L129.978027,31 L127.695312,17.6088867 L125.388184,31 L123.068848,31 L120.908203,13.2265625 L123.056641,13.2265625 L124.411621,26.1904297 L126.694336,13.2265625 L128.659668,13.2265625 L130.95459,26.1904297 Z" id="LIVE-NOW" fill="#FFFFFF"></path>
                        </g>
                    </g>
                    <g id="Group-Copy-3" mask="url(#mask-2)">
                        <g transform="translate(119.000000, 296.000000)">
                            <path d="M6.5,70.5 L6.5,11.9978633" id="Line-3-Copy" stroke="#FFFFFF" stroke-width="4" fill="none" stroke-linecap="square"></path>
                            <circle id="Oval-2" stroke="none" fill="#FFFFFF" fill-rule="evenodd" cx="6.5" cy="6.5" r="6.5"></circle>
                        </g>
                    </g>
                    <g id="icon/point" mask="url(#mask-2)">
                        <g transform="translate(84.000000, 328.000000)" id="Group-Copy-2">
                            <g filter="url(#filter-17)">
                                <g id="Oval-2">
                                    <use fill="black" fill-opacity="1" filter="url(#filter-19)" xlink:href="#path-18"></use>
                                    <use fill="#FFFFFF" fill-rule="evenodd" xlink:href="#path-18"></use>
                                </g>
                                <g id="Oval-2" opacity="0.3">
                                    <use fill="black" fill-opacity="1" filter="url(#filter-21)" xlink:href="#path-20"></use>
                                    <use stroke="#333333" stroke-width="0.75" xlink:href="#path-20"></use>
                                </g>
                                <g id="Oval-2" opacity="0.3">
                                    <use fill="black" fill-opacity="1" filter="url(#filter-23)" xlink:href="#path-22"></use>
                                    <use stroke="#333333" stroke-width="0.75" xlink:href="#path-22"></use>
                                </g>
                            </g>
                        </g>
                    </g>
                </g>
                <g id="ovalbgLogo">
                    <use fill="black" fill-opacity="1" filter="url(#filter-25)" xlink:href="#path-24"></use>
                    <use fill="#333333" fill-rule="evenodd" xlink:href="#path-24"></use>
                </g>
                <g id="logoHitBTC" transform="translate(248.000000, 42.000000)" fill-rule="nonzero">
                    <polygon id="Shape" fill="#00ABE7" points="107.562 13.26 112.762 12.428 116.064 14.326 97.5 25.376 100.698 17.888"></polygon>
                    <path d="M37.206,44.902 L35.672,57.798 L27.534,65.546 C18.382,60.32 9.074,55.198 0,49.842 L20.618,42.536 L37.206,44.902 Z" id="Shape" fill="#34AEE3"></path>
                    <path d="M42.77,23.218 L43.03,34.138 L37.206,44.902 L54.08,32.708 L73.398,27.3 L72.28,38.168 L63.206,44.85 L50.674,48.022 L37.206,44.902 L0,49.842 C14.17,40.924 28.444,31.824 42.77,23.218 Z" id="Shape" fill="#56B9E4"></path>
                    <path d="M37.206,44.902 L63.206,44.85 L58.864,57.928 L50.154,66.222 L40.508,57.486 L37.206,44.902 Z M63.206,44.85 L76.388,45.136 L85.878,50.466 L85.878,50.518 L89.31,73.866 L85.982,96.252 L68.094,65.052 L63.206,44.85 Z" id="Shape" fill="#008DBD"></path>
                    <polygon id="Shape" fill="#56B9E4" points="85.878 50.466 89.7 56.758 97.11 65.546 104.52 81.198 98.332 82.264 89.752 69.862"></polygon>
                    <path d="M88.192,36.53 L89.232,44.512 L85.878,50.466 L63.206,44.85 L77.142,36.998 L88.192,36.53 Z M85.878,50.466 L98.332,82.264 L85.982,96.252 L85.878,50.466 Z" id="Shape" fill="#08A0CA"></path>
                    <polygon id="Shape" fill="#56B9E4" points="76.596 21.866 89.466 15.002 92.43 24.076 88.192 36.53 79.144 30.446"></polygon>
                    <path d="M89.7,56.758 C92.508,56.758 95.342,56.732 98.15,56.758 C100.282,64.896 102.414,73.034 104.52,81.198 L89.7,56.758 Z" id="Shape" fill="#79CDF1"></path>
                    <path d="M73.398,27.3 L76.596,21.866 C80.34,26.598 84.11,31.33 87.854,36.036 L88.192,36.53 L63.206,44.85 L73.398,27.3 L40.898,43.108 L37.206,44.902 L42.77,23.218 L73.398,27.3 Z" id="Shape" fill="#79CDF1"></path>
                    <polygon id="Shape" fill="#79CDF1" points="89.466 15.002 107.536 13.312 88.192 36.53"></polygon>
                    <polygon id="Shape" fill="#79CDF1" points="107.562 13.26 118.404 0 116.064 14.326"></polygon>
                    <polygon id="Shape" fill="#0076A7" points="98.332 82.264 103.428 85.176 85.982 96.252 91.312 84.968"></polygon>
                    <polygon id="Shape" fill="#8ADAFF" points="88.192 36.53 99.684 55.588 85.878 50.466"></polygon>
                    <polygon id="Shape" fill="#0076A7" points="63.206 44.85 65.78 60.45 62.166 71.318 55.042 72.228 50.154 66.222 53.95 84.11 52.988 110.864 27.534 65.546 37.622 61.698 50.154 66.222"></polygon>
                    <path d="M37.206,44.902 C41.574,51.948 45.838,59.176 50.154,66.222 L27.534,65.546 L37.206,44.902 Z" id="Shape" fill="#009DE1"></path>
                    <polygon id="Shape" fill="#00698D" points="63.206 44.85 85.982 96.252 62.166 71.318"></polygon>
                    <polygon id="Shape" fill="#005371" points="50.154 66.222 62.166 71.318 52.988 110.864"></polygon>
                </g>
                <path d="M91.4541016,105.194824 C91.4361978,106.645027 91.3108736,108.104159 91.078125,109.572266 C90.8453764,111.040372 90.491783,112.454746 90.017334,113.81543 C89.542885,115.176114 88.9341671,116.451736 88.1911621,117.642334 C87.4481571,118.832932 86.5574596,119.866858 85.519043,120.744141 L92.2597656,126.356934 L88.8491211,129.606445 L81.1147461,123.053711 C80.0047145,123.375978 78.8051822,123.537109 77.5161133,123.537109 C75.8510659,123.537109 74.3561264,123.281985 73.03125,122.771729 C71.7063736,122.261472 70.5292206,121.567713 69.4997559,120.69043 C68.4702911,119.813147 67.5795936,118.779221 66.8276367,117.588623 C66.0756798,116.398025 65.4580102,115.122403 64.9746094,113.761719 C64.4912085,112.401035 64.1331392,110.991137 63.9003906,109.531982 C63.6676421,108.072828 63.5423178,106.627123 63.5244141,105.194824 L63.5244141,101.757324 C63.5423178,100.325025 63.6676421,98.8748446 63.9003906,97.4067383 C64.1331392,95.938632 64.4912085,94.5242581 64.9746094,93.1635742 C65.4580102,91.8028903 66.0667281,90.5272683 66.8007812,89.3366699 C67.5348344,88.1460715 68.4165801,87.1076704 69.4460449,86.2214355 C70.4755097,85.3352006 71.6571385,84.6369654 72.9909668,84.126709 C74.3247951,83.6164525 75.8242104,83.3613281 77.4892578,83.3613281 C79.1543052,83.3613281 80.6537205,83.6164525 81.9875488,84.126709 C83.3213771,84.6369654 84.5030059,85.3307248 85.5324707,86.2080078 C86.5619355,87.0852908 87.4481571,88.1192161 88.1911621,89.3098145 C88.9341671,90.5004129 89.542885,91.7760349 90.017334,93.1367188 C90.491783,94.4974026 90.8453764,95.9162524 91.078125,97.3933105 C91.3108736,98.8703687 91.4361978,100.325025 91.4541016,101.757324 L91.4541016,105.194824 Z M86.5126953,101.703613 C86.4947916,100.718908 86.4366053,99.6939344 86.3381348,98.6286621 C86.2396642,97.5633899 86.0606296,96.516037 85.8010254,95.4865723 C85.5414212,94.4571075 85.1923036,93.4768927 84.7536621,92.5458984 C84.3150206,91.6149042 83.764489,90.7958206 83.1020508,90.088623 C82.4396126,89.3814255 81.6473842,88.8219422 80.7253418,88.4101562 C79.8032994,87.9983703 78.7246156,87.7924805 77.4892578,87.7924805 C76.2718038,87.7924805 75.2065475,88.0028462 74.293457,88.423584 C73.3803665,88.8443218 72.592614,89.408281 71.9301758,90.1154785 C71.2677376,90.8226761 70.717206,91.6417597 70.2785645,92.5727539 C69.8399229,93.5037481 69.4863295,94.483963 69.2177734,95.5134277 C68.9492174,96.5428925 68.7567551,97.5902453 68.6403809,98.6555176 C68.5240066,99.7207898 68.4658203,100.736812 68.4658203,101.703613 L68.4658203,105.194824 C68.4658203,106.161626 68.5240066,107.177648 68.6403809,108.24292 C68.7567551,109.308192 68.9492174,110.360021 69.2177734,111.398438 C69.4863295,112.436854 69.8399229,113.421545 70.2785645,114.352539 C70.717206,115.283533 71.2677376,116.107093 71.9301758,116.823242 C72.592614,117.539392 73.3848424,118.107827 74.3068848,118.528564 C75.2289271,118.949302 76.2986593,119.159668 77.5161133,119.159668 C78.751471,119.159668 79.8301549,118.949302 80.7521973,118.528564 C81.6742396,118.107827 82.466468,117.543867 83.1289062,116.83667 C83.7913445,116.129472 84.3374002,115.310389 84.7670898,114.379395 C85.1967795,113.4484 85.5414212,112.46371 85.8010254,111.425293 C86.0606296,110.386876 86.2396642,109.335048 86.3381348,108.269775 C86.4366053,107.204503 86.4947916,106.17953 86.5126953,105.194824 L86.5126953,101.703613 Z M125.050293,88.1416016 L112.965332,88.1416016 L112.965332,123 L108.131348,123 L108.131348,88.1416016 L96.0463867,88.1416016 L96.0463867,83.8984375 L125.050293,83.8984375 L125.050293,88.1416016 Z M143.79541,99.2329102 L152.228027,83.8984375 L158.08252,83.8984375 L146.722656,103.288086 L158.351074,123 L152.550293,123 L143.902832,107.370117 L135.228516,123 L129.347168,123 L141.002441,103.288086 L129.642578,83.8984375 L135.470215,83.8984375 L143.79541,99.2329102 Z" id="QTX" fill="#FFFFFF"></path>
                <path d="M448.57666,117 L445.585938,117 L445.585938,105.498535 L435.383301,105.498535 L435.383301,117 L432.409668,117 L432.409668,92.1171875 L435.383301,92.1171875 L435.383301,102.81543 L445.585938,102.81543 L445.585938,92.1171875 L448.57666,92.1171875 L448.57666,117 Z M454.472656,98.5087891 L463.92334,98.5087891 L463.92334,114.265625 L469.956055,114.265625 L469.956055,117 L454.472656,117 L454.472656,114.265625 L460.761719,114.265625 L460.761719,101.260254 L454.472656,101.260254 L454.472656,98.5087891 Z M460.351562,93.6552734 C460.351562,93.1311823 460.508218,92.6896991 460.821533,92.3308105 C461.134849,91.971922 461.610511,91.7924805 462.248535,91.7924805 C462.875166,91.7924805 463.34798,91.971922 463.666992,92.3308105 C463.986004,92.6896991 464.145508,93.1311823 464.145508,93.6552734 C464.145508,94.1679713 463.986004,94.5952131 463.666992,94.9370117 C463.34798,95.2788103 462.875166,95.449707 462.248535,95.449707 C461.610511,95.449707 461.134849,95.2788103 460.821533,94.9370117 C460.508218,94.5952131 460.351562,94.1679713 460.351562,93.6552734 Z M482.46582,94.03125 L482.46582,98.5087891 L489.506836,98.5087891 L489.506836,100.952637 L482.46582,100.952637 L482.46582,111.001465 C482.46582,111.719242 482.556965,112.311684 482.739258,112.778809 C482.92155,113.245933 483.172199,113.619058 483.491211,113.898193 C483.810223,114.177329 484.177651,114.37386 484.593506,114.487793 C485.009361,114.601726 485.450844,114.658691 485.917969,114.658691 C486.259767,114.658691 486.612954,114.638753 486.977539,114.598877 C487.342124,114.559 487.698159,114.51058 488.045654,114.453613 C488.39315,114.396647 488.717853,114.336833 489.019775,114.27417 C489.321697,114.211507 489.569498,114.15739 489.763184,114.111816 L490.20752,116.350586 C489.945474,116.510092 489.626467,116.649658 489.250488,116.769287 C488.87451,116.888917 488.464358,116.991455 488.02002,117.076904 C487.575681,117.162354 487.105715,117.227864 486.610107,117.273438 C486.114499,117.319011 485.621747,117.341797 485.131836,117.341797 C484.311519,117.341797 483.545332,117.225017 482.833252,116.991455 C482.121172,116.757893 481.503095,116.387616 480.979004,115.880615 C480.454913,115.373614 480.041912,114.71851 479.73999,113.915283 C479.438068,113.112057 479.287109,112.140793 479.287109,111.001465 L479.287109,100.952637 L474.433594,100.952637 L474.433594,98.5087891 L479.287109,98.5087891 L479.287109,94.03125 L482.46582,94.03125 Z M495.949707,117 L495.949707,92.1171875 L503.349609,92.1171875 C504.375005,92.1285808 505.377599,92.2624499 506.357422,92.5187988 C507.337244,92.7751478 508.208818,93.1710585 508.972168,93.706543 C509.735518,94.2420274 510.34505,94.9256143 510.800781,95.7573242 C511.256513,96.5890341 511.478678,97.5859317 511.467285,98.7480469 C511.455892,99.3974642 511.350506,99.9899062 511.151123,100.525391 C510.951741,101.060875 510.678306,101.542234 510.330811,101.969482 C509.983315,102.396731 509.576011,102.769855 509.108887,103.088867 C508.641762,103.407879 508.146161,103.681314 507.62207,103.90918 C508.282881,104.102866 508.889564,104.379149 509.442139,104.738037 C509.994713,105.096926 510.470376,105.529864 510.869141,106.036865 C511.267906,106.543866 511.578368,107.116371 511.800537,107.754395 C512.022706,108.392419 512.133789,109.081702 512.133789,109.822266 C512.145182,110.984381 511.923017,112.009761 511.467285,112.898438 C511.011554,113.787114 510.402022,114.530515 509.638672,115.128662 C508.875322,115.72681 507.995204,116.185383 506.998291,116.504395 C506.001378,116.823407 504.97315,116.988607 503.913574,117 L495.949707,117 Z M499.128418,105.361816 L499.128418,114.316895 L503.999023,114.316895 C504.659834,114.305501 505.286455,114.194418 505.878906,113.983643 C506.471357,113.772867 506.99544,113.479494 507.451172,113.103516 C507.906903,112.727537 508.268635,112.266116 508.536377,111.719238 C508.804119,111.172361 508.937988,110.551436 508.937988,109.856445 C508.949382,109.150062 508.832602,108.52344 508.587646,107.976562 C508.342691,107.429685 508.003746,106.965415 507.570801,106.58374 C507.137856,106.202065 506.630862,105.908692 506.049805,105.703613 C505.468747,105.498534 504.842126,105.384603 504.169922,105.361816 L499.128418,105.361816 Z M499.128418,102.72998 L503.537598,102.72998 C504.130049,102.718587 504.711097,102.624594 505.280762,102.447998 C505.850426,102.271402 506.35742,102.015057 506.801758,101.678955 C507.246096,101.342853 507.604979,100.929853 507.878418,100.439941 C508.151857,99.9500301 508.288574,99.3803743 508.288574,98.730957 C508.288574,98.0359666 508.154705,97.4435246 507.886963,96.9536133 C507.619221,96.463702 507.260338,96.0620947 506.810303,95.7487793 C506.360268,95.4354639 505.841881,95.2047533 505.255127,95.0566406 C504.668373,94.9085279 504.067386,94.8287761 503.452148,94.8173828 L499.128418,94.8173828 L499.128418,102.72998 Z M533.769531,94.8173828 L526.079102,94.8173828 L526.079102,117 L523.00293,117 L523.00293,94.8173828 L515.3125,94.8173828 L515.3125,92.1171875 L533.769531,92.1171875 L533.769531,94.8173828 Z M554.106445,109.514648 C553.958333,110.66537 553.662112,111.722082 553.217773,112.684814 C552.773435,113.647547 552.195235,114.473548 551.483154,115.162842 C550.771074,115.852136 549.927983,116.387612 548.953857,116.769287 C547.979731,117.150962 546.894537,117.341797 545.698242,117.341797 C544.672846,117.341797 543.741459,117.196535 542.904053,116.906006 C542.066646,116.615477 541.320397,116.21387 540.665283,115.701172 C540.010169,115.188474 539.44621,114.584639 538.973389,113.889648 C538.500567,113.194658 538.107505,112.437016 537.794189,111.616699 C537.480874,110.796383 537.247315,109.936202 537.093506,109.036133 C536.939696,108.136063 536.857096,107.224614 536.845703,106.301758 L536.845703,102.83252 C536.857096,101.909663 536.939696,100.998214 537.093506,100.098145 C537.247315,99.1980749 537.480874,98.3378947 537.794189,97.5175781 C538.107505,96.6972615 538.500567,95.9367711 538.973389,95.236084 C539.44621,94.5353969 540.010169,93.9287135 540.665283,93.4160156 C541.320397,92.9033177 542.063798,92.5017104 542.895508,92.2111816 C543.727218,91.9206528 544.661453,91.7753906 545.698242,91.7753906 C546.94011,91.7753906 548.050939,91.9662253 549.030762,92.3479004 C550.010584,92.7295755 550.853675,93.2707484 551.560059,93.9714355 C552.266442,94.6721226 552.83325,95.5123649 553.260498,96.4921875 C553.687746,97.4720101 553.969726,98.5543561 554.106445,99.7392578 L550.944824,99.7392578 C550.842285,98.9873009 550.665691,98.2866243 550.415039,97.637207 C550.164387,96.9877897 549.82829,96.418134 549.406738,95.9282227 C548.985187,95.4383114 548.469648,95.0537937 547.860107,94.7746582 C547.250567,94.4955227 546.529952,94.355957 545.698242,94.355957 C544.946285,94.355957 544.282636,94.478433 543.707275,94.7233887 C543.131914,94.9683443 542.636314,95.3015929 542.220459,95.7231445 C541.804604,96.1446961 541.457114,96.6346001 541.177979,97.1928711 C540.898843,97.7511421 540.673829,98.3435841 540.50293,98.9702148 C540.33203,99.5968456 540.209554,100.237708 540.135498,100.892822 C540.061442,101.547936 540.024414,102.183102 540.024414,102.79834 L540.024414,106.301758 C540.024414,106.916995 540.061442,107.552161 540.135498,108.207275 C540.209554,108.862389 540.33203,109.5061 540.50293,110.138428 C540.673829,110.770755 540.895995,111.366045 541.169434,111.924316 C541.442872,112.482587 541.790362,112.97534 542.211914,113.402588 C542.633466,113.829836 543.129066,114.165933 543.69873,114.410889 C544.268395,114.655844 544.934892,114.77832 545.698242,114.77832 C546.529952,114.77832 547.250567,114.647299 547.860107,114.385254 C548.469648,114.123208 548.985187,113.75578 549.406738,113.282959 C549.82829,112.810138 550.164387,112.251875 550.415039,111.608154 C550.665691,110.964434 550.842285,110.266605 550.944824,109.514648 L554.106445,109.514648 Z" id="HitBTC" fill="#FFFFFF"></path>
                <path d="M478.39209,253.784668 L470.970215,253.784668 L470.970215,260.083496 L479.625,260.083496 L479.625,262 L468.711914,262 L468.711914,244.226562 L479.515137,244.226562 L479.515137,246.155273 L470.970215,246.155273 L470.970215,251.868164 L478.39209,251.868164 L478.39209,253.784668 Z M489.12207,251.196777 L492.955078,244.226562 L495.616211,244.226562 L490.452637,253.040039 L495.738281,262 L493.101562,262 L489.170898,254.895508 L485.228027,262 L482.554688,262 L487.852539,253.040039 L482.688965,244.226562 L485.337891,244.226562 L489.12207,251.196777 Z M510.130371,256.65332 C510.024576,257.475265 509.81299,258.230058 509.495605,258.917725 C509.178221,259.605391 508.765221,260.195391 508.256592,260.687744 C507.747963,261.180097 507.145755,261.56258 506.449951,261.835205 C505.754147,262.10783 504.979008,262.244141 504.124512,262.244141 C503.392086,262.244141 502.72681,262.140382 502.128662,261.932861 C501.530515,261.725341 500.99748,261.438478 500.529541,261.072266 C500.061602,260.706053 499.658774,260.274742 499.321045,259.77832 C498.983315,259.281899 498.702556,258.740726 498.47876,258.154785 C498.254963,257.568845 498.088135,256.95443 497.978271,256.311523 C497.868408,255.668617 497.809408,255.017581 497.80127,254.358398 L497.80127,251.880371 C497.809408,251.221188 497.868408,250.570153 497.978271,249.927246 C498.088135,249.284339 498.254963,248.669925 498.47876,248.083984 C498.702556,247.498044 498.983315,246.954836 499.321045,246.454346 C499.658774,245.953855 500.061602,245.52051 500.529541,245.154297 C500.99748,244.788084 501.52848,244.501222 502.122559,244.293701 C502.716637,244.086181 503.383948,243.982422 504.124512,243.982422 C505.01156,243.982422 505.80501,244.118732 506.504883,244.391357 C507.204756,244.663982 507.806964,245.050535 508.311523,245.551025 C508.816083,246.051516 509.220946,246.651689 509.526123,247.351562 C509.8313,248.051436 510.032714,248.82454 510.130371,249.670898 L507.87207,249.670898 C507.798828,249.133786 507.67269,248.633303 507.493652,248.169434 C507.314615,247.705564 507.074546,247.298667 506.773438,246.94873 C506.472329,246.598794 506.104087,246.324138 505.668701,246.124756 C505.233315,245.925373 504.71859,245.825684 504.124512,245.825684 C503.5874,245.825684 503.113365,245.913166 502.702393,246.088135 C502.29142,246.263103 501.93742,246.501138 501.640381,246.802246 C501.343342,247.103354 501.095134,247.453286 500.895752,247.852051 C500.696369,248.250816 500.535645,248.673989 500.413574,249.121582 C500.291503,249.569175 500.20402,250.026935 500.151123,250.494873 C500.098226,250.962812 500.071777,251.416502 500.071777,251.855957 L500.071777,254.358398 C500.071777,254.797854 500.098226,255.251544 500.151123,255.719482 C500.20402,256.187421 500.291503,256.647215 500.413574,257.098877 C500.535645,257.550539 500.694335,257.975747 500.889648,258.374512 C501.084962,258.773277 501.333169,259.125243 501.634277,259.43042 C501.935386,259.735597 502.289386,259.975666 502.696289,260.150635 C503.103192,260.325603 503.579262,260.413086 504.124512,260.413086 C504.71859,260.413086 505.233315,260.3195 505.668701,260.132324 C506.104087,259.945149 506.472329,259.6827 506.773438,259.344971 C507.074546,259.007241 507.314615,258.608482 507.493652,258.148682 C507.67269,257.688881 507.798828,257.190432 507.87207,256.65332 L510.130371,256.65332 Z M524.766602,262 L522.630371,262 L522.630371,253.784668 L515.342773,253.784668 L515.342773,262 L513.21875,262 L513.21875,244.226562 L515.342773,244.226562 L515.342773,251.868164 L522.630371,251.868164 L522.630371,244.226562 L524.766602,244.226562 L524.766602,262 Z M537.10791,257.397949 L531.175293,257.397949 L529.74707,262 L527.48877,262 L533.226074,244.226562 L535.118164,244.226562 L540.757812,262 L538.511719,262 L537.10791,257.397949 Z M531.785645,255.432617 L536.509766,255.432617 L534.166016,247.717773 L531.785645,255.432617 Z M554.759277,262 L552.464355,262 L545.567383,248.71875 L545.530762,262 L543.248047,262 L543.248047,244.226562 L545.542969,244.226562 L552.439941,257.483398 L552.476562,244.226562 L554.759277,244.226562 L554.759277,262 Z M570.12793,259.668457 C569.379228,260.547368 568.520675,261.198403 567.552246,261.621582 C566.583817,262.044761 565.521816,262.252279 564.366211,262.244141 C563.633785,262.236003 562.960371,262.124106 562.345947,261.908447 C561.731524,261.692789 561.180178,261.395754 560.691895,261.017334 C560.203611,260.638914 559.776369,260.193362 559.410156,259.680664 C559.043943,259.167966 558.736736,258.612552 558.488525,258.014404 C558.240315,257.416257 558.053142,256.789635 557.927002,256.134521 C557.800862,255.479408 557.733724,254.8182 557.725586,254.150879 L557.725586,252.087891 C557.733724,251.428708 557.792724,250.771569 557.902588,250.116455 C558.012452,249.461341 558.181314,248.832685 558.40918,248.230469 C558.637045,247.628252 558.921873,247.068769 559.263672,246.552002 C559.60547,246.035235 560.014402,245.587648 560.490479,245.209229 C560.966555,244.830809 561.505694,244.531739 562.10791,244.312012 C562.710127,244.092284 563.385576,243.982422 564.134277,243.982422 C564.96436,243.982422 565.729326,244.110594 566.429199,244.366943 C567.129073,244.623292 567.739418,244.9895 568.260254,245.465576 C568.78109,245.941653 569.200194,246.515378 569.517578,247.186768 C569.834963,247.858158 570.030273,248.608883 570.103516,249.438965 L567.869629,249.438965 C567.78011,248.926267 567.641765,248.452232 567.45459,248.016846 C567.267414,247.581459 567.021242,247.209149 566.716064,246.899902 C566.410887,246.590656 566.046714,246.348552 565.623535,246.173584 C565.200356,245.998616 564.708011,245.911133 564.146484,245.911133 C563.609372,245.911133 563.133303,246.002685 562.718262,246.185791 C562.303221,246.368897 561.941082,246.61507 561.631836,246.924316 C561.32259,247.233563 561.066245,247.593667 560.862793,248.004639 C560.659341,248.415611 560.492514,248.848956 560.362305,249.304688 C560.232096,249.760419 560.138509,250.224281 560.081543,250.696289 C560.024577,251.168297 559.996094,251.624021 559.996094,252.063477 L559.996094,254.150879 C560.004232,254.598472 560.042887,255.0603 560.112061,255.536377 C560.181234,256.012454 560.289062,256.478351 560.435547,256.934082 C560.582032,257.389813 560.769205,257.821124 560.99707,258.228027 C561.224936,258.63493 561.499591,258.993 561.821045,259.302246 C562.142498,259.611492 562.514809,259.857665 562.937988,260.040771 C563.361167,260.223878 563.841306,260.319499 564.378418,260.327637 C564.687664,260.335775 565.011147,260.323568 565.348877,260.291016 C565.686607,260.258463 566.014159,260.19336 566.331543,260.095703 C566.648927,259.998046 566.945962,259.865805 567.222656,259.698975 C567.49935,259.532144 567.731282,259.314454 567.918457,259.045898 L567.942871,255.054199 L564.32959,255.054199 L564.32959,253.149902 L570.091309,253.149902 L570.12793,259.668457 Z M583.40918,253.784668 L575.987305,253.784668 L575.987305,260.083496 L584.64209,260.083496 L584.64209,262 L573.729004,262 L573.729004,244.226562 L584.532227,244.226562 L584.532227,246.155273 L575.987305,246.155273 L575.987305,251.868164 L583.40918,251.868164 L583.40918,253.784668 Z M522.569336,286.422363 C522.577474,285.6818 522.306888,285.04704 521.757568,284.518066 C521.208249,283.989092 520.335455,283.529299 519.13916,283.138672 C518.38232,282.902668 517.698734,282.630047 517.088379,282.320801 C516.478024,282.011554 515.955162,281.643313 515.519775,281.216064 C515.084389,280.788816 514.748699,280.298505 514.512695,279.745117 C514.276692,279.191729 514.158691,278.552901 514.158691,277.828613 C514.158691,277.145016 514.26245,276.526533 514.469971,275.973145 C514.677491,275.419756 514.970457,274.937583 515.348877,274.526611 C515.727297,274.115639 516.18709,273.784018 516.728271,273.531738 C517.269453,273.279458 517.869626,273.112631 518.528809,273.03125 L518.528809,270.345703 L520.347656,270.345703 L520.347656,273.03125 C521.714851,273.218425 522.776852,273.794185 523.533691,274.758545 C524.290531,275.722905 524.673014,277.035148 524.681152,278.695312 L522.435059,278.695312 C522.435059,278.150062 522.367921,277.647545 522.233643,277.187744 C522.099365,276.727944 521.904054,276.333254 521.647705,276.003662 C521.391356,275.674071 521.076011,275.415691 520.70166,275.228516 C520.327309,275.04134 519.900068,274.947754 519.419922,274.947754 C518.435216,274.947754 517.690595,275.204099 517.186035,275.716797 C516.681475,276.229495 516.42513,276.92122 516.416992,277.791992 C516.416992,278.198895 516.482096,278.561034 516.612305,278.878418 C516.742514,279.195802 516.947997,279.484699 517.22876,279.745117 C517.509523,280.005535 517.871661,280.247639 518.315186,280.471436 C518.75871,280.695232 519.293779,280.912922 519.92041,281.124512 C520.685388,281.376792 521.373044,281.657551 521.983398,281.966797 C522.593753,282.276043 523.110512,282.638182 523.533691,283.053223 C523.956871,283.468264 524.280354,283.948402 524.50415,284.493652 C524.727947,285.038902 524.839844,285.673662 524.839844,286.397949 C524.839844,287.105961 524.727947,287.74072 524.50415,288.302246 C524.280354,288.863772 523.965009,289.345945 523.558105,289.748779 C523.151202,290.151613 522.656823,290.475096 522.074951,290.719238 C521.49308,290.96338 520.848148,291.12207 520.140137,291.195312 L520.140137,293.539062 L518.321289,293.539062 L518.321289,291.20752 C517.68652,291.142415 517.078209,290.995932 516.496338,290.768066 C515.914466,290.540201 515.399742,290.20858 514.952148,289.773193 C514.504555,289.337807 514.146486,288.790531 513.87793,288.131348 C513.609374,287.472165 513.475098,286.682785 513.475098,285.763184 L515.733398,285.763184 C515.733398,286.446781 515.835123,287.014402 516.038574,287.466064 C516.242026,287.917727 516.504474,288.277831 516.825928,288.546387 C517.147381,288.814943 517.511554,289.006184 517.918457,289.120117 C518.32536,289.23405 518.736326,289.291016 519.151367,289.291016 C519.680341,289.291016 520.156411,289.225912 520.57959,289.095703 C521.002769,288.965494 521.360838,288.776287 521.653809,288.528076 C521.946779,288.279865 522.172607,287.978762 522.331299,287.624756 C522.489991,287.27075 522.569336,286.869957 522.569336,286.422363 Z M535.948242,291 L533.689941,291 L533.689941,276.107422 L529.039062,277.877441 L529.039062,275.814453 L535.765137,273.226562 L535.948242,273.226562 L535.948242,291 Z" id="EXCHANGE-$1" fill="#FFFFFF"></path>
                <g id="TGE" transform="translate(277.000000, 347.000000)" fill="#FFFFFF">
                    <path d="M36.1113281,3.15527344 L30.6181641,3.15527344 L30.6181641,19 L28.4208984,19 L28.4208984,3.15527344 L22.9277344,3.15527344 L22.9277344,1.2265625 L36.1113281,1.2265625 L36.1113281,3.15527344 Z M50.6254883,16.668457 C49.8767866,17.5473677 49.018234,18.1984028 48.0498047,18.621582 C47.0813754,19.0447612 46.0193743,19.2522787 44.8637695,19.2441406 C44.131344,19.2360026 43.4579295,19.1241059 42.8435059,18.9084473 C42.2290822,18.6927886 41.6777368,18.3957538 41.1894531,18.017334 C40.7011694,17.6389141 40.2739276,17.1933619 39.9077148,16.6806641 C39.5415021,16.1679662 39.2342949,15.6125518 38.986084,15.0144043 C38.7378731,14.4162568 38.5507005,13.7896354 38.4245605,13.1345215 C38.2984206,12.4794075 38.2312826,11.8182 38.2231445,11.1508789 L38.2231445,9.08789062 C38.2312826,8.42870764 38.2902827,7.77156903 38.4001465,7.11645508 C38.5100103,6.46134113 38.6788726,5.8326853 38.9067383,5.23046875 C39.134604,4.6282522 39.4194319,4.06876886 39.7612305,3.55200195 C40.1030291,3.03523505 40.5119605,2.58764838 40.9880371,2.20922852 C41.4641137,1.83080865 42.0032522,1.53173938 42.6054688,1.31201172 C43.2076853,1.09228406 43.8831343,0.982421875 44.6318359,0.982421875 C45.4619182,0.982421875 46.2268845,1.11059442 46.9267578,1.36694336 C47.6266311,1.6232923 48.2369766,1.98949957 48.7578125,2.46557617 C49.2786484,2.94165277 49.6977523,3.5153775 50.0151367,4.18676758 C50.3325211,4.85815765 50.5278317,5.60888257 50.6010742,6.43896484 L48.3671875,6.43896484 C48.2776688,5.92626697 48.1393239,5.45223199 47.9521484,5.0168457 C47.764973,4.58145941 47.5188004,4.20914868 47.213623,3.89990234 C46.9084457,3.59065601 46.5442729,3.34855231 46.1210938,3.17358398 C45.6979146,2.99861566 45.2055692,2.91113281 44.644043,2.91113281 C44.1069309,2.91113281 43.6308615,3.00268463 43.2158203,3.18579102 C42.8007792,3.3688974 42.4386409,3.61507007 42.1293945,3.92431641 C41.8201482,4.23356274 41.5638031,4.59366656 41.3603516,5.00463867 C41.1569,5.41561078 40.9900723,5.84895605 40.8598633,6.3046875 C40.7296543,6.76041895 40.636068,7.22428149 40.5791016,7.69628906 C40.5221351,8.16829663 40.4936523,8.62402124 40.4936523,9.06347656 L40.4936523,11.1508789 C40.5017904,11.5984723 40.5404456,12.0603004 40.6096191,12.536377 C40.6787927,13.0124536 40.7866204,13.4783506 40.9331055,13.934082 C41.0795906,14.3898135 41.2667632,14.8211243 41.4946289,15.2280273 C41.7224946,15.6349304 41.9971501,15.9929998 42.3186035,16.3022461 C42.6400569,16.6114924 43.0123677,16.8576651 43.4355469,17.0407715 C43.8587261,17.2238779 44.3388645,17.3194987 44.8759766,17.3276367 C45.1852229,17.3357748 45.508706,17.3235679 45.8464355,17.2910156 C46.1841651,17.2584634 46.5117172,17.1933599 46.8291016,17.0957031 C47.146486,16.9980464 47.4435208,16.8658049 47.7202148,16.6989746 C47.9969089,16.5321443 48.2288402,16.3144545 48.4160156,16.0458984 L48.4404297,12.0541992 L44.8271484,12.0541992 L44.8271484,10.1499023 L50.5888672,10.1499023 L50.6254883,16.668457 Z M63.9067383,10.784668 L56.4848633,10.784668 L56.4848633,17.0834961 L65.1396484,17.0834961 L65.1396484,19 L54.2265625,19 L54.2265625,1.2265625 L65.0297852,1.2265625 L65.0297852,3.15527344 L56.4848633,3.15527344 L56.4848633,8.86816406 L63.9067383,8.86816406 L63.9067383,10.784668 Z"></path>
                    <path d="M11.0717773,43.4223633 C11.0799154,42.6817997 10.8093289,42.0470404 10.2600098,41.5180664 C9.71069061,40.9890924 8.83789661,40.5292988 7.64160156,40.1386719 C6.88476184,39.9026681 6.20117493,39.6300471 5.59082031,39.3208008 C4.9804657,39.0115544 4.45760309,38.6433127 4.0222168,38.2160645 C3.58683051,37.7888162 3.2511405,37.2985054 3.01513672,36.7451172 C2.77913293,36.191729 2.66113281,35.5529008 2.66113281,34.8286133 C2.66113281,34.1450161 2.76489154,33.5265327 2.97241211,32.9731445 C3.17993268,32.4197563 3.4728985,31.9375834 3.85131836,31.5266113 C4.22973822,31.1156392 4.6895318,30.7840182 5.23071289,30.5317383 C5.77189398,30.2794584 6.37206702,30.1126306 7.03125,30.03125 L7.03125,27.3457031 L8.85009766,27.3457031 L8.85009766,30.03125 C10.217292,30.2184254 11.2792931,30.7941846 12.0361328,31.7585449 C12.7929725,32.7229052 13.1754557,34.0351479 13.1835938,35.6953125 L10.9375,35.6953125 C10.9375,35.1500624 10.870362,34.6475446 10.736084,34.1877441 C10.601806,33.7279437 10.4064954,33.3332536 10.1501465,33.0036621 C9.89379755,32.6740706 9.57845239,32.415691 9.20410156,32.2285156 C8.82975073,32.0413402 8.40250891,31.9477539 7.92236328,31.9477539 C6.93765784,31.9477539 6.19303638,32.204099 5.68847656,32.7167969 C5.18391675,33.2294948 4.92757166,33.9212196 4.91943359,34.7919922 C4.91943359,35.1988953 4.98453711,35.5610336 5.11474609,35.878418 C5.24495508,36.1958024 5.45043805,36.4846992 5.73120117,36.7451172 C6.01196429,37.0055352 6.3741026,37.2476389 6.81762695,37.4714355 C7.26115131,37.6952322 7.79622083,37.9129221 8.42285156,38.1245117 C9.18782935,38.3767916 9.87548523,38.6575505 10.4858398,38.9667969 C11.0961945,39.2760432 11.6129536,39.6381815 12.0361328,40.0532227 C12.459312,40.4682638 12.7827951,40.9484022 13.0065918,41.4936523 C13.2303885,42.0389025 13.3422852,42.6736617 13.3422852,43.3979492 C13.3422852,44.1059606 13.2303885,44.7407198 13.0065918,45.3022461 C12.7827951,45.8637723 12.46745,46.3459453 12.0605469,46.7487793 C11.6536438,47.1516133 11.159264,47.4750964 10.5773926,47.7192383 C9.99552118,47.9633801 9.35058948,48.1220699 8.64257812,48.1953125 L8.64257812,50.5390625 L6.82373047,50.5390625 L6.82373047,48.2075195 C6.18896167,48.142415 5.5806507,47.9959321 4.9987793,47.7680664 C4.4169079,47.5402007 3.90218323,47.2085797 3.45458984,46.7731934 C3.00699646,46.3378071 2.64892712,45.7905306 2.38037109,45.1313477 C2.11181506,44.4721647 1.97753906,43.6827845 1.97753906,42.7631836 L4.23583984,42.7631836 C4.23583984,43.4467808 4.33756409,44.014402 4.54101562,44.4660645 C4.74446716,44.9177269 5.00691571,45.2778307 5.32836914,45.5463867 C5.64982257,45.8149427 6.01399536,46.0061843 6.42089844,46.1201172 C6.82780151,46.23405 7.23876746,46.2910156 7.65380859,46.2910156 C8.18278259,46.2910156 8.65885205,46.2259121 9.08203125,46.0957031 C9.50521045,45.9654941 9.86327979,45.776287 10.15625,45.5280762 C10.4492202,45.2798653 10.675048,44.9787615 10.8337402,44.6247559 C10.9924324,44.2707502 11.0717773,43.8699567 11.0717773,43.4223633 Z M28.2836914,41.2006836 C28.2836914,42.3318741 28.1534844,43.3348752 27.8930664,44.2097168 C27.6326484,45.0845584 27.2583032,45.8210419 26.7700195,46.4191895 C26.2817358,47.017337 25.6835973,47.4710271 24.9755859,47.7802734 C24.2675746,48.0895198 23.4578496,48.2441406 22.5463867,48.2441406 C21.6430619,48.2441406 20.8353714,48.0895198 20.123291,47.7802734 C19.4112106,47.4710271 18.8069686,47.017337 18.3105469,46.4191895 C17.8141251,45.8210419 17.4336765,45.0845584 17.1691895,44.2097168 C16.9047025,43.3348752 16.7724609,42.3318741 16.7724609,41.2006836 L16.7724609,37.0380859 C16.7724609,35.9068954 16.902668,34.9038943 17.1630859,34.0290527 C17.4235039,33.1542111 17.7998836,32.4156931 18.2922363,31.8134766 C18.7845891,31.21126 19.3867966,30.7535009 20.098877,30.4401855 C20.8109573,30.1268702 21.6186478,29.9702148 22.5219727,29.9702148 C23.4334355,29.9702148 24.245195,30.1268702 24.9572754,30.4401855 C25.6693558,30.7535009 26.2715633,31.21126 26.763916,31.8134766 C27.2562687,32.4156931 27.6326484,33.1542111 27.8930664,34.0290527 C28.1534844,34.9038943 28.2836914,35.9068954 28.2836914,37.0380859 L28.2836914,41.2006836 Z M19.0429688,40.7490234 L25.9643555,35.4389648 C25.8341465,34.2589459 25.4903185,33.3617381 24.9328613,32.7473145 C24.3754041,32.1328908 23.5717826,31.8256836 22.5219727,31.8256836 C21.3338157,31.8256836 20.4569527,32.2264771 19.8913574,33.0280762 C19.3257621,33.8296752 19.0429688,34.999504 19.0429688,36.5375977 L19.0429688,40.7490234 Z M26.0131836,37.5996094 L19.1040039,42.8852539 C19.242351,44.0327206 19.5963513,44.9075491 20.1660156,45.5097656 C20.7356799,46.1119822 21.529129,46.4130859 22.5463867,46.4130859 C23.7426818,46.4130859 24.6195447,46.006189 25.177002,45.1923828 C25.7344592,44.3785767 26.0131836,43.2067134 26.0131836,41.6767578 L26.0131836,37.5996094 Z M36.0595703,46.5351562 C36.0595703,46.2910144 36.0982255,46.0631521 36.1755371,45.8515625 C36.2528487,45.6399729 36.3647454,45.4548348 36.5112305,45.2961426 C36.6577156,45.1374504 36.8408192,45.0133468 37.0605469,44.9238281 C37.2802745,44.8343094 37.5366196,44.7895508 37.8295898,44.7895508 C38.1225601,44.7895508 38.3809396,44.8343094 38.6047363,44.9238281 C38.828533,45.0133468 39.0157056,45.1374504 39.1662598,45.2961426 C39.3168139,45.4548348 39.4307451,45.6399729 39.5080566,45.8515625 C39.5853682,46.0631521 39.6240234,46.2910144 39.6240234,46.5351562 C39.6240234,46.77116 39.5853682,46.9929189 39.5080566,47.2004395 C39.4307451,47.40796 39.3168139,47.5890292 39.1662598,47.7436523 C39.0157056,47.8982755 38.828533,48.0183101 38.6047363,48.1037598 C38.3809396,48.1892094 38.1225601,48.2319336 37.8295898,48.2319336 C37.5366196,48.2319336 37.2802745,48.1892094 37.0605469,48.1037598 C36.8408192,48.0183101 36.6577156,47.8982755 36.5112305,47.7436523 C36.3647454,47.5890292 36.2528487,47.40796 36.1755371,47.2004395 C36.0982255,46.9929189 36.0595703,46.77116 36.0595703,46.5351562 Z M58.2885742,41.2006836 C58.2885742,42.3318741 58.1583672,43.3348752 57.8979492,44.2097168 C57.6375312,45.0845584 57.263186,45.8210419 56.7749023,46.4191895 C56.2866187,47.017337 55.6884801,47.4710271 54.9804688,47.7802734 C54.2724574,48.0895198 53.4627324,48.2441406 52.5512695,48.2441406 C51.6479447,48.2441406 50.8402542,48.0895198 50.1281738,47.7802734 C49.4160934,47.4710271 48.8118514,47.017337 48.3154297,46.4191895 C47.8190079,45.8210419 47.4385593,45.0845584 47.1740723,44.2097168 C46.9095853,43.3348752 46.7773438,42.3318741 46.7773438,41.2006836 L46.7773438,37.0380859 C46.7773438,35.9068954 46.9075508,34.9038943 47.1679688,34.0290527 C47.4283867,33.1542111 47.8047664,32.4156931 48.2971191,31.8134766 C48.7894719,31.21126 49.3916794,30.7535009 50.1037598,30.4401855 C50.8158401,30.1268702 51.6235306,29.9702148 52.5268555,29.9702148 C53.4383184,29.9702148 54.2500778,30.1268702 54.9621582,30.4401855 C55.6742386,30.7535009 56.2764461,31.21126 56.7687988,31.8134766 C57.2611516,32.4156931 57.6375312,33.1542111 57.8979492,34.0290527 C58.1583672,34.9038943 58.2885742,35.9068954 58.2885742,37.0380859 L58.2885742,41.2006836 Z M49.0478516,40.7490234 L55.9692383,35.4389648 C55.8390293,34.2589459 55.4952014,33.3617381 54.9377441,32.7473145 C54.3802869,32.1328908 53.5766654,31.8256836 52.5268555,31.8256836 C51.3386985,31.8256836 50.4618355,32.2264771 49.8962402,33.0280762 C49.330645,33.8296752 49.0478516,34.999504 49.0478516,36.5375977 L49.0478516,40.7490234 Z M56.0180664,37.5996094 L49.1088867,42.8852539 C49.2472338,44.0327206 49.6012341,44.9075491 50.1708984,45.5097656 C50.7405627,46.1119822 51.5340118,46.4130859 52.5512695,46.4130859 C53.7475646,46.4130859 54.6244276,46.006189 55.1818848,45.1923828 C55.739342,44.3785767 56.0180664,43.2067134 56.0180664,41.6767578 L56.0180664,37.5996094 Z M73.0712891,34.8652344 C73.063151,35.7522831 72.8230818,36.5416632 72.3510742,37.2333984 C71.8790667,37.9251337 71.2483763,38.4663066 70.4589844,38.8569336 C70.9147158,39.0522471 71.3277162,39.2943508 71.697998,39.583252 C72.0682798,39.8721531 72.3856595,40.2037742 72.6501465,40.578125 C72.9146335,40.9524758 73.118082,41.3593728 73.260498,41.7988281 C73.4029141,42.2382834 73.4741211,42.706215 73.4741211,43.2026367 C73.4741211,44.0083048 73.3256037,44.7244435 73.0285645,45.3510742 C72.7315252,45.977705 72.3286972,46.5046365 71.8200684,46.9318848 C71.3114395,47.359133 70.7153354,47.6846506 70.0317383,47.9084473 C69.3481411,48.132244 68.6157266,48.2441406 67.8344727,48.2441406 C67.0369426,48.2441406 66.2943557,48.1342784 65.6066895,47.9145508 C64.9190233,47.6948231 64.3208847,47.37134 63.8122559,46.9440918 C63.303627,46.5168436 62.9028335,45.989912 62.6098633,45.3632812 C62.3168931,44.7366505 62.1704102,44.0164429 62.1704102,43.2026367 C62.1704102,42.706215 62.2395826,42.236249 62.3779297,41.7927246 C62.5162767,41.3492003 62.7156562,40.9423033 62.9760742,40.5720215 C63.2364922,40.2017397 63.5498029,39.8701187 63.9160156,39.5771484 C64.2822284,39.2841782 64.6931943,39.04004 65.1489258,38.8447266 C64.7582988,38.6494131 64.4042985,38.4154473 64.0869141,38.1428223 C63.7695297,37.8701972 63.5009777,37.5650245 63.28125,37.2272949 C63.0615223,36.8895654 62.8906256,36.5213236 62.7685547,36.1225586 C62.6464838,35.7237936 62.5854492,35.3046897 62.5854492,34.8652344 C62.5854492,34.0921185 62.7156562,33.4024282 62.9760742,32.7961426 C63.2364922,32.189857 63.596596,31.6792013 64.0563965,31.2641602 C64.516197,30.849119 65.0655079,30.5317394 65.7043457,30.3120117 C66.3431835,30.0922841 67.0410118,29.9824219 67.7978516,29.9824219 C68.5465532,29.9824219 69.242347,30.0922841 69.8852539,30.3120117 C70.5281608,30.5317394 71.0856096,30.849119 71.5576172,31.2641602 C72.0296248,31.6792013 72.399901,32.189857 72.668457,32.7961426 C72.9370131,33.4024282 73.0712891,34.0921185 73.0712891,34.8652344 Z M71.2158203,43.1538086 C71.2158203,42.6573868 71.1324064,42.2016622 70.9655762,41.7866211 C70.7987459,41.37158 70.5647802,41.0155451 70.2636719,40.7185059 C69.9625636,40.4214666 69.6024598,40.1915698 69.1833496,40.0288086 C68.7642394,39.8660474 68.3064803,39.784668 67.8100586,39.784668 C67.2973607,39.784668 66.8334982,39.8660474 66.418457,40.0288086 C66.0034159,40.1915698 65.6494155,40.4214666 65.3564453,40.7185059 C65.0634751,41.0155451 64.8376473,41.37158 64.6789551,41.7866211 C64.5202629,42.2016622 64.440918,42.6573868 64.440918,43.1538086 C64.440918,43.6665065 64.5202629,44.1242656 64.6789551,44.5270996 C64.8376473,44.9299337 65.0634751,45.2696926 65.3564453,45.5463867 C65.6494155,45.8230808 66.0054504,46.0346672 66.4245605,46.1811523 C66.8436707,46.3276375 67.3136367,46.4008789 67.8344727,46.4008789 C68.3308944,46.4008789 68.786619,46.3276375 69.2016602,46.1811523 C69.6167013,46.0346672 69.9727361,45.8230808 70.2697754,45.5463867 C70.5668146,45.2696926 70.7987459,44.9299337 70.9655762,44.5270996 C71.1324064,44.1242656 71.2158203,43.6665065 71.2158203,43.1538086 Z M70.8007812,34.9018555 C70.8007812,34.4542621 70.7255053,34.0432961 70.5749512,33.6689453 C70.424397,33.2945945 70.2168796,32.9711114 69.9523926,32.6984863 C69.6879056,32.4258613 69.3725604,32.2142748 69.0063477,32.0637207 C68.6401349,31.9131666 68.2373069,31.8378906 67.7978516,31.8378906 C67.3583962,31.8378906 66.9596372,31.9090976 66.6015625,32.0515137 C66.2434878,32.1939297 65.9342461,32.3994127 65.6738281,32.6679688 C65.4134102,32.9365248 65.2119962,33.2600079 65.0695801,33.6384277 C64.927164,34.0168476 64.855957,34.437986 64.855957,34.9018555 C64.855957,35.365725 64.927164,35.7827944 65.0695801,36.1530762 C65.2119962,36.523358 65.4154446,36.8407376 65.6799316,37.1052246 C65.9444186,37.3697116 66.2577293,37.5731601 66.619873,37.7155762 C66.9820168,37.8579922 67.3828103,37.9291992 67.8222656,37.9291992 C68.2535829,37.9291992 68.6523419,37.8579922 69.0185547,37.7155762 C69.3847675,37.5731601 69.7001126,37.3697116 69.9645996,37.1052246 C70.2290866,36.8407376 70.4345696,36.5213235 70.5810547,36.1469727 C70.7275398,35.7726218 70.8007812,35.3575869 70.8007812,34.9018555 Z M86.2915039,42.0307617 L88.7695312,42.0307617 L88.7695312,43.8740234 L86.2915039,43.8740234 L86.2915039,48 L84.0332031,48 L84.0332031,43.8740234 L75.9277344,43.8740234 L75.9277344,42.543457 L83.8867188,30.2265625 L86.2915039,30.2265625 L86.2915039,42.0307617 Z M78.4301758,42.0307617 L84.0332031,42.0307617 L84.0332031,33.2294922 L83.6669922,33.9130859 L78.4301758,42.0307617 Z" id="$0.084"></path>
                </g>
                <path d="M47.9035645,232.019531 L47.9035645,242 L44.7419434,242 L44.7419434,217.117188 L52.8083496,217.117188 C53.9248917,217.139974 54.9816031,217.316567 55.9785156,217.646973 C56.9754282,217.977378 57.8498498,218.455889 58.6018066,219.08252 C59.3537635,219.70915 59.9490538,220.483882 60.3876953,221.406738 C60.8263368,222.329594 61.0456543,223.389154 61.0456543,224.585449 C61.0456543,225.781744 60.8263368,226.838456 60.3876953,227.755615 C59.9490538,228.672775 59.3537635,229.444658 58.6018066,230.071289 C57.8498498,230.69792 56.9754282,231.176431 55.9785156,231.506836 C54.9816031,231.837241 53.9248917,232.008138 52.8083496,232.019531 L47.9035645,232.019531 Z M47.9035645,229.421875 L52.8083496,229.421875 C53.5375199,229.410482 54.2097137,229.293702 54.8249512,229.071533 C55.4401886,228.849364 55.975665,228.533205 56.4313965,228.123047 C56.8871279,227.712889 57.2431628,227.21444 57.4995117,226.627686 C57.7558607,226.040931 57.8840332,225.371586 57.8840332,224.619629 C57.8840332,223.867672 57.7558607,223.189782 57.4995117,222.585938 C57.2431628,221.982093 56.8899762,221.469403 56.4399414,221.047852 C55.9899066,220.6263 55.4544302,220.301596 54.8334961,220.07373 C54.212562,219.845865 53.5375199,219.726237 52.8083496,219.714844 L47.9035645,219.714844 L47.9035645,229.421875 Z M73.6921387,231.848633 L68.7189941,231.848633 L68.7189941,242 L65.5744629,242 L65.5744629,217.117188 L72.8718262,217.117188 C74.0339414,217.139974 75.1276804,217.305174 76.1530762,217.612793 C77.1784719,217.920412 78.0756797,218.381833 78.8447266,218.99707 C79.6137734,219.612308 80.2176085,220.384191 80.65625,221.312744 C81.0948915,222.241297 81.314209,223.332188 81.314209,224.585449 C81.314209,225.394373 81.1974296,226.134925 80.9638672,226.807129 C80.7303048,227.479333 80.4084493,228.088864 79.998291,228.635742 C79.5881327,229.18262 79.0982288,229.666827 78.5285645,230.088379 C77.9589001,230.50993 77.3322788,230.868814 76.6486816,231.165039 L81.9294434,241.794922 L81.9123535,242 L78.579834,242 L73.6921387,231.848633 Z M68.7189941,229.250977 L72.9572754,229.250977 C73.6636591,229.239583 74.3301564,229.1285 74.9567871,228.917725 C75.5834178,228.706949 76.1331357,228.402183 76.605957,228.003418 C77.0787784,227.604653 77.4519029,227.117597 77.7253418,226.542236 C77.9987807,225.966875 78.135498,225.303226 78.135498,224.55127 C78.135498,223.75374 78.0044772,223.055911 77.7424316,222.457764 C77.4803861,221.859616 77.1158064,221.358319 76.6486816,220.953857 C76.1815569,220.549396 75.6261425,220.24463 74.9824219,220.039551 C74.3387012,219.834472 73.6351763,219.726237 72.8718262,219.714844 L68.7189941,219.714844 L68.7189941,229.250977 Z M100.147217,230.498535 L89.7565918,230.498535 L89.7565918,239.316895 L101.873291,239.316895 L101.873291,242 L86.5949707,242 L86.5949707,217.117188 L101.719482,217.117188 L101.719482,219.817383 L89.7565918,219.817383 L89.7565918,227.81543 L100.147217,227.81543 L100.147217,230.498535 Z M121.287354,232.412598 L108.213623,232.412598 L108.213623,229.814941 L121.287354,229.814941 L121.287354,232.412598 Z M141.504639,235.710938 C141.504639,234.947587 141.330894,234.303876 140.983398,233.779785 C140.635903,233.255694 140.188723,232.814211 139.641846,232.455322 C139.094968,232.096434 138.493981,231.797364 137.838867,231.558105 C137.183753,231.318846 136.554284,231.102377 135.950439,230.908691 C135.073156,230.623859 134.181645,230.282066 133.275879,229.883301 C132.370113,229.484536 131.544112,228.994632 130.797852,228.413574 C130.051591,227.832517 129.44206,227.146081 128.969238,226.354248 C128.496417,225.562415 128.26001,224.631027 128.26001,223.560059 C128.26001,222.48909 128.496417,221.532068 128.969238,220.688965 C129.44206,219.845862 130.060136,219.133792 130.823486,218.552734 C131.586836,217.971677 132.452713,217.530194 133.421143,217.228271 C134.389572,216.926349 135.363683,216.775391 136.343506,216.775391 C137.425868,216.775391 138.468338,216.954832 139.470947,217.313721 C140.473556,217.672609 141.362219,218.176755 142.136963,218.826172 C142.911706,219.475589 143.532631,220.261714 143.999756,221.18457 C144.466881,222.107426 144.711833,223.138503 144.734619,224.277832 L141.487549,224.277832 C141.396403,223.560055 141.219809,222.907799 140.957764,222.321045 C140.695718,221.734291 140.348228,221.230145 139.915283,220.808594 C139.482338,220.387042 138.9668,220.05949 138.368652,219.825928 C137.770505,219.592365 137.095463,219.475586 136.343506,219.475586 C135.739662,219.475586 135.150068,219.561034 134.574707,219.731934 C133.999346,219.902833 133.486656,220.159178 133.036621,220.500977 C132.586586,220.842775 132.227703,221.26432 131.959961,221.765625 C131.692219,222.26693 131.55835,222.847978 131.55835,223.508789 C131.569743,224.226566 131.752033,224.833249 132.105225,225.328857 C132.458416,225.824465 132.905596,226.243162 133.446777,226.584961 C133.987958,226.92676 134.574704,227.211587 135.207031,227.439453 C135.839359,227.667319 136.434649,227.866698 136.99292,228.037598 C137.608157,228.231284 138.229082,228.450601 138.855713,228.695557 C139.482344,228.940512 140.086179,229.222492 140.667236,229.541504 C141.248294,229.860516 141.789467,230.219399 142.290771,230.618164 C142.792076,231.016929 143.230711,231.469805 143.606689,231.976807 C143.982668,232.483808 144.276041,233.042071 144.486816,233.651611 C144.697592,234.261152 144.802979,234.936194 144.802979,235.676758 C144.802979,236.7933 144.555178,237.767411 144.05957,238.599121 C143.563962,239.430831 142.9231,240.122963 142.136963,240.675537 C141.350826,241.228111 140.462163,241.64396 139.470947,241.923096 C138.479731,242.202231 137.48853,242.341797 136.497314,242.341797 C135.392166,242.341797 134.30982,242.1709 133.250244,241.829102 C132.190669,241.487303 131.242192,240.994551 130.404785,240.35083 C129.567379,239.707109 128.88664,238.920984 128.362549,237.992432 C127.838458,237.063879 127.559326,236.007167 127.525146,234.822266 L130.755127,234.822266 C130.857667,235.597009 131.068439,236.283444 131.387451,236.881592 C131.706463,237.479739 132.116615,237.986733 132.61792,238.402588 C133.119225,238.818443 133.697425,239.131754 134.352539,239.342529 C135.007653,239.553305 135.722571,239.658691 136.497314,239.658691 C137.112552,239.658691 137.719235,239.581788 138.317383,239.427979 C138.91553,239.274169 139.448158,239.034914 139.915283,238.710205 C140.382408,238.385496 140.764077,237.975344 141.060303,237.479736 C141.356528,236.984128 141.504639,236.394535 141.504639,235.710938 Z M161.363037,235.557129 L153.057373,235.557129 L151.057861,242 L147.89624,242 L155.928467,217.117188 L158.577393,217.117188 L166.4729,242 L163.328369,242 L161.363037,235.557129 Z M153.911865,232.805664 L160.525635,232.805664 L157.244385,222.004883 L153.911865,232.805664 Z M174.060791,239.316895 L186.22876,239.316895 L186.22876,242 L170.89917,242 L170.89917,217.117188 L174.060791,217.117188 L174.060791,239.316895 Z M205.181396,230.498535 L194.790771,230.498535 L194.790771,239.316895 L206.907471,239.316895 L206.907471,242 L191.62915,242 L191.62915,217.117188 L206.753662,217.117188 L206.753662,219.817383 L194.790771,219.817383 L194.790771,227.81543 L205.181396,227.81543 L205.181396,230.498535 Z M77.9902344,276.591309 C78.0016277,275.55452 77.6228066,274.665857 76.8537598,273.925293 C76.084713,273.184729 74.8628013,272.541018 73.1879883,271.994141 C72.1284127,271.663735 71.171391,271.282066 70.3168945,270.849121 C69.4623981,270.416176 68.7303904,269.900638 68.1208496,269.30249 C67.5113088,268.704343 67.0413428,268.017908 66.7109375,267.243164 C66.3805322,266.468421 66.215332,265.574061 66.215332,264.560059 C66.215332,263.603023 66.3605943,262.737146 66.651123,261.962402 C66.9416518,261.187659 67.351804,260.512617 67.8815918,259.937256 C68.4113796,259.361895 69.0550906,258.897625 69.8127441,258.544434 C70.5703977,258.191242 71.4106399,257.957683 72.3334961,257.84375 L72.3334961,254.083984 L74.8798828,254.083984 L74.8798828,257.84375 C76.7939549,258.105796 78.2807564,258.911858 79.340332,260.261963 C80.3999076,261.612067 80.9353841,263.449207 80.9467773,265.773438 L77.8022461,265.773438 C77.8022461,265.010087 77.7082529,264.306562 77.5202637,263.662842 C77.3322745,263.019121 77.0588397,262.466555 76.6999512,262.005127 C76.3410627,261.543699 75.8995794,261.181967 75.3754883,260.919922 C74.8513971,260.657876 74.2532586,260.526855 73.5810547,260.526855 C72.2024671,260.526855 71.159997,260.885739 70.4536133,261.603516 C69.7472295,262.321293 69.3883464,263.289707 69.3769531,264.508789 C69.3769531,265.078453 69.468098,265.585447 69.6503906,266.029785 C69.8326832,266.474123 70.1203594,266.878579 70.5134277,267.243164 C70.9064961,267.607749 71.4134897,267.946694 72.0344238,268.26001 C72.6553579,268.573325 73.4044552,268.878091 74.2817383,269.174316 C75.3527072,269.527508 76.3154254,269.920571 77.1699219,270.353516 C78.0244183,270.78646 78.7478812,271.293454 79.340332,271.874512 C79.9327829,272.455569 80.3856592,273.127763 80.6989746,273.891113 C81.01229,274.654463 81.1689453,275.543126 81.1689453,276.557129 C81.1689453,277.548345 81.01229,278.437008 80.6989746,279.223145 C80.3856592,280.009281 79.944176,280.684323 79.3745117,281.248291 C78.8048474,281.812259 78.1127157,282.265135 77.2980957,282.606934 C76.4834757,282.948732 75.5805714,283.170898 74.5893555,283.273438 L74.5893555,286.554688 L72.0429688,286.554688 L72.0429688,283.290527 C71.1542924,283.199381 70.3026571,282.994305 69.4880371,282.675293 C68.6734172,282.356281 67.9528026,281.892012 67.3261719,281.282471 C66.6995411,280.67293 66.1982441,279.906743 65.8222656,278.983887 C65.4462872,278.061031 65.2583008,276.955898 65.2583008,275.668457 L68.4199219,275.668457 C68.4199219,276.625493 68.5623358,277.420163 68.847168,278.05249 C69.1320001,278.684818 69.4994281,279.188963 69.9494629,279.564941 C70.3994977,279.94092 70.9093396,280.208658 71.4790039,280.368164 C72.0486682,280.52767 72.6240205,280.607422 73.2050781,280.607422 C73.9456417,280.607422 74.612139,280.516277 75.2045898,280.333984 C75.7970407,280.151692 76.2983378,279.886802 76.7084961,279.539307 C77.1186544,279.191811 77.4348133,278.770266 77.6569824,278.274658 C77.8791515,277.77905 77.9902344,277.217939 77.9902344,276.591309 Z M102.086914,273.480957 C102.086914,275.064624 101.904624,276.468825 101.540039,277.693604 C101.175454,278.918382 100.651371,279.949459 99.9677734,280.786865 C99.2841763,281.624272 98.4467823,282.259438 97.4555664,282.692383 C96.4643505,283.125328 95.3307355,283.341797 94.0546875,283.341797 C92.7900327,283.341797 91.6592661,283.125328 90.6623535,282.692383 C89.665441,282.259438 88.8195022,281.624272 88.1245117,280.786865 C87.4295213,279.949459 86.8968931,278.918382 86.5266113,277.693604 C86.1563295,276.468825 85.9711914,275.064624 85.9711914,273.480957 L85.9711914,267.65332 C85.9711914,266.069654 86.1534812,264.665452 86.5180664,263.440674 C86.8826516,262.215896 87.4095831,261.18197 88.098877,260.338867 C88.7881708,259.495764 89.6312613,258.854901 90.6281738,258.41626 C91.6250864,257.977618 92.7558531,257.758301 94.0205078,257.758301 C95.2965559,257.758301 96.4330191,257.977618 97.4299316,258.41626 C98.4268442,258.854901 99.2699347,259.495764 99.9592285,260.338867 C100.648522,261.18197 101.175454,262.215896 101.540039,263.440674 C101.904624,264.665452 102.086914,266.069654 102.086914,267.65332 L102.086914,273.480957 Z M89.1499023,272.848633 L98.8398438,265.414551 C98.6575512,263.762524 98.1761921,262.506433 97.395752,261.64624 C96.6153119,260.786047 95.4902417,260.355957 94.0205078,260.355957 C92.357088,260.355957 91.1294799,260.917068 90.3376465,262.039307 C89.5458131,263.161545 89.1499023,264.799306 89.1499023,266.952637 L89.1499023,272.848633 Z M98.9082031,268.439453 L89.2353516,275.839355 C89.4290374,277.445809 89.9246379,278.670569 90.722168,279.513672 C91.519698,280.356775 92.6305267,280.77832 94.0546875,280.77832 C95.7295006,280.77832 96.9571087,280.208665 97.7375488,279.069336 C98.5179889,277.930007 98.9082031,276.289399 98.9082031,274.147461 L98.9082031,268.439453 Z M112.973145,280.949219 C112.973145,280.60742 113.027262,280.288413 113.135498,279.992188 C113.243734,279.695962 113.40039,279.436769 113.605469,279.2146 C113.810548,278.992431 114.066893,278.818686 114.374512,278.693359 C114.68213,278.568033 115.041014,278.505371 115.451172,278.505371 C115.86133,278.505371 116.223062,278.568033 116.536377,278.693359 C116.849692,278.818686 117.111734,278.992431 117.32251,279.2146 C117.533286,279.436769 117.692789,279.695962 117.801025,279.992188 C117.909262,280.288413 117.963379,280.60742 117.963379,280.949219 C117.963379,281.279624 117.909262,281.590086 117.801025,281.880615 C117.692789,282.171144 117.533286,282.424641 117.32251,282.641113 C117.111734,282.857586 116.849692,283.025634 116.536377,283.145264 C116.223062,283.264893 115.86133,283.324707 115.451172,283.324707 C115.041014,283.324707 114.68213,283.264893 114.374512,283.145264 C114.066893,283.025634 113.810548,282.857586 113.605469,282.641113 C113.40039,282.424641 113.243734,282.171144 113.135498,281.880615 C113.027262,281.590086 112.973145,281.279624 112.973145,280.949219 Z M144.09375,273.480957 C144.09375,275.064624 143.91146,276.468825 143.546875,277.693604 C143.18229,278.918382 142.658207,279.949459 141.974609,280.786865 C141.291012,281.624272 140.453618,282.259438 139.462402,282.692383 C138.471186,283.125328 137.337571,283.341797 136.061523,283.341797 C134.796869,283.341797 133.666102,283.125328 132.669189,282.692383 C131.672277,282.259438 130.826338,281.624272 130.131348,280.786865 C129.436357,279.949459 128.903729,278.918382 128.533447,277.693604 C128.163165,276.468825 127.978027,275.064624 127.978027,273.480957 L127.978027,267.65332 C127.978027,266.069654 128.160317,264.665452 128.524902,263.440674 C128.889487,262.215896 129.416419,261.18197 130.105713,260.338867 C130.795007,259.495764 131.638097,258.854901 132.63501,258.41626 C133.631922,257.977618 134.762689,257.758301 136.027344,257.758301 C137.303392,257.758301 138.439855,257.977618 139.436768,258.41626 C140.43368,258.854901 141.276771,259.495764 141.966064,260.338867 C142.655358,261.18197 143.18229,262.215896 143.546875,263.440674 C143.91146,264.665452 144.09375,266.069654 144.09375,267.65332 L144.09375,273.480957 Z M131.156738,272.848633 L140.84668,265.414551 C140.664387,263.762524 140.183028,262.506433 139.402588,261.64624 C138.622148,260.786047 137.497078,260.355957 136.027344,260.355957 C134.363924,260.355957 133.136316,260.917068 132.344482,262.039307 C131.552649,263.161545 131.156738,264.799306 131.156738,266.952637 L131.156738,272.848633 Z M140.915039,268.439453 L131.242188,275.839355 C131.435873,277.445809 131.931474,278.670569 132.729004,279.513672 C133.526534,280.356775 134.637363,280.77832 136.061523,280.77832 C137.736336,280.77832 138.963945,280.208665 139.744385,279.069336 C140.524825,277.930007 140.915039,276.289399 140.915039,274.147461 L140.915039,268.439453 Z M150.60498,270.524414 L151.852539,258.117188 L164.618652,258.117188 L164.618652,261.193359 L154.518555,261.193359 L153.817871,267.824219 C154.307782,267.539387 154.894528,267.288738 155.578125,267.072266 C156.261722,266.855793 157.053544,266.747559 157.953613,266.747559 C159.104335,266.747559 160.135412,266.946938 161.046875,267.345703 C161.958338,267.744468 162.73307,268.305579 163.371094,269.029053 C164.009118,269.752526 164.499022,270.626948 164.84082,271.652344 C165.182619,272.67774 165.353516,273.817051 165.353516,275.070312 C165.353516,276.255214 165.194012,277.35465 164.875,278.368652 C164.555988,279.382655 164.074629,280.257076 163.430908,280.991943 C162.787188,281.72681 161.975428,282.302163 160.995605,282.718018 C160.015783,283.133873 158.865078,283.341797 157.543457,283.341797 C156.529455,283.341797 155.572433,283.199383 154.672363,282.914551 C153.772294,282.629719 152.971927,282.202477 152.27124,281.632812 C151.570553,281.063148 150.995201,280.345382 150.545166,279.479492 C150.095131,278.613602 149.813152,277.605312 149.699219,276.45459 L152.707031,276.45459 C152.900717,277.867357 153.421952,278.93831 154.270752,279.66748 C155.119552,280.396651 156.210443,280.76123 157.543457,280.76123 C158.295414,280.76123 158.961911,280.627361 159.542969,280.359619 C160.124026,280.091877 160.611082,279.710208 161.00415,279.2146 C161.397219,278.718992 161.69344,278.123701 161.892822,277.428711 C162.092205,276.73372 162.191895,275.958989 162.191895,275.104492 C162.191895,274.329749 162.080812,273.606286 161.858643,272.934082 C161.636473,272.261878 161.314618,271.677981 160.893066,271.182373 C160.471515,270.686765 159.953128,270.296551 159.337891,270.011719 C158.722653,269.726887 158.01628,269.584473 157.21875,269.584473 C156.694659,269.584473 156.241783,269.6215 155.860107,269.695557 C155.478432,269.769613 155.133791,269.874999 154.826172,270.011719 C154.518553,270.148438 154.230877,270.313638 153.963135,270.507324 C153.695393,270.70101 153.419109,270.923176 153.134277,271.173828 L150.60498,270.524414 Z M185.741699,283 L169.437988,283 L169.437988,280.727051 L177.589844,271.669434 C178.319014,270.86051 178.928546,270.142744 179.418457,269.516113 C179.908368,268.889483 180.301431,268.311282 180.597656,267.781494 C180.893882,267.251706 181.104654,266.750409 181.22998,266.277588 C181.355307,265.804767 181.417969,265.317711 181.417969,264.816406 C181.417969,264.201169 181.318279,263.622968 181.118896,263.081787 C180.919514,262.540606 180.62899,262.07064 180.247314,261.671875 C179.865639,261.27311 179.404218,260.956951 178.863037,260.723389 C178.321856,260.489826 177.709476,260.373047 177.025879,260.373047 C176.194169,260.373047 175.473554,260.492675 174.864014,260.731934 C174.254473,260.971193 173.747479,261.310138 173.343018,261.748779 C172.938556,262.187421 172.636638,262.720049 172.437256,263.34668 C172.237873,263.97331 172.138184,264.673987 172.138184,265.44873 L168.959473,265.44873 C168.959473,264.400548 169.141762,263.412195 169.506348,262.483643 C169.870933,261.55509 170.397864,260.74333 171.087158,260.04834 C171.776452,259.353349 172.619543,258.800783 173.616455,258.390625 C174.613368,257.980467 175.749831,257.775391 177.025879,257.775391 C178.199387,257.775391 179.256099,257.949136 180.196045,258.296631 C181.135991,258.644126 181.930661,259.125485 182.580078,259.740723 C183.229495,260.35596 183.727944,261.085119 184.075439,261.928223 C184.422935,262.771326 184.59668,263.688472 184.59668,264.679688 C184.59668,265.420251 184.471355,266.152259 184.220703,266.875732 C183.970051,267.599206 183.631106,268.314124 183.203857,269.020508 C182.776609,269.726892 182.281009,270.42472 181.717041,271.114014 C181.153073,271.803307 180.557783,272.489743 179.931152,273.17334 L173.249023,280.419434 L185.741699,280.419434 L185.741699,283 Z" id="PRE-SALE-$0.052" fill="#FFFFFF"></path>
            </g>
        </g>
    </g>
</svg>