<?xml version="1.0" encoding="UTF-8"?>
<svg width="615px" height="489px" viewBox="0 0 615 489" version="1.1" xmlns="http://www.w3.org/2000/svg" xmlns:xlink="http://www.w3.org/1999/xlink">
    <!-- Generator: Sketch 49.3 (51167) - http://www.bohemiancoding.com/sketch -->
    <title>exchangeDashboard Copy</title>
    <desc>Created with Sketch.</desc>
    <defs>
        <rect id="path-1" x="0" y="0" width="615" height="437" rx="28"></rect>
        <filter x="-23.6%" y="-12.7%" width="147.3%" height="147.3%" filterUnits="objectBoundingBox" id="filter-3">
            <feOffset dx="0" dy="4" in="SourceAlpha" result="shadowOffsetOuter1"></feOffset>
            <feGaussianBlur stdDeviation="2" in="shadowOffsetOuter1" result="shadowBlurOuter1"></feGaussianBlur>
            <feColorMatrix values="0 0 0 0 0   0 0 0 0 0   0 0 0 0 0  0 0 0 0.5 0" type="matrix" in="shadowBlurOuter1" result="shadowMatrixOuter1"></feColorMatrix>
            <feMerge>
                <feMergeNode in="shadowMatrixOuter1"></feMergeNode>
                <feMergeNode in="SourceGraphic"></feMergeNode>
            </feMerge>
        </filter>
        <circle id="path-4" cx="28" cy="28" r="10"></circle>
        <filter x="-35.0%" y="-25.0%" width="170.0%" height="170.0%" filterUnits="objectBoundingBox" id="filter-5">
            <feOffset dx="0" dy="2" in="SourceAlpha" result="shadowOffsetOuter1"></feOffset>
            <feGaussianBlur stdDeviation="2" in="shadowOffsetOuter1" result="shadowBlurOuter1"></feGaussianBlur>
            <feColorMatrix values="0 0 0 0 0   0 0 0 0 0   0 0 0 0 0  0 0 0 0.5 0" type="matrix" in="shadowBlurOuter1"></feColorMatrix>
        </filter>
        <circle id="path-6" cx="27.5" cy="27.5" r="18.5"></circle>
        <filter x="-19.6%" y="-14.2%" width="139.2%" height="139.2%" filterUnits="objectBoundingBox" id="filter-7">
            <feMorphology radius="0.25" operator="dilate" in="SourceAlpha" result="shadowSpreadOuter1"></feMorphology>
            <feOffset dx="0" dy="2" in="shadowSpreadOuter1" result="shadowOffsetOuter1"></feOffset>
            <feMorphology radius="1" operator="erode" in="SourceAlpha" result="shadowInner"></feMorphology>
            <feOffset dx="0" dy="2" in="shadowInner" result="shadowInner"></feOffset>
            <feComposite in="shadowOffsetOuter1" in2="shadowInner" operator="out" result="shadowOffsetOuter1"></feComposite>
            <feGaussianBlur stdDeviation="2" in="shadowOffsetOuter1" result="shadowBlurOuter1"></feGaussianBlur>
            <feColorMatrix values="0 0 0 0 0   0 0 0 0 0   0 0 0 0 0  0 0 0 0.5 0" type="matrix" in="shadowBlurOuter1"></feColorMatrix>
        </filter>
        <circle id="path-8" cx="27.5" cy="27.5" r="27.5"></circle>
        <filter x="-13.2%" y="-9.5%" width="126.4%" height="126.4%" filterUnits="objectBoundingBox" id="filter-9">
            <feMorphology radius="0.25" operator="dilate" in="SourceAlpha" result="shadowSpreadOuter1"></feMorphology>
            <feOffset dx="0" dy="2" in="shadowSpreadOuter1" result="shadowOffsetOuter1"></feOffset>
            <feMorphology radius="1" operator="erode" in="SourceAlpha" result="shadowInner"></feMorphology>
            <feOffset dx="0" dy="2" in="shadowInner" result="shadowInner"></feOffset>
            <feComposite in="shadowOffsetOuter1" in2="shadowInner" operator="out" result="shadowOffsetOuter1"></feComposite>
            <feGaussianBlur stdDeviation="2" in="shadowOffsetOuter1" result="shadowBlurOuter1"></feGaussianBlur>
            <feColorMatrix values="0 0 0 0 0   0 0 0 0 0   0 0 0 0 0  0 0 0 0.5 0" type="matrix" in="shadowBlurOuter1"></feColorMatrix>
        </filter>
        <filter x="-23.6%" y="-12.7%" width="147.3%" height="147.3%" filterUnits="objectBoundingBox" id="filter-10">
            <feOffset dx="0" dy="4" in="SourceAlpha" result="shadowOffsetOuter1"></feOffset>
            <feGaussianBlur stdDeviation="2" in="shadowOffsetOuter1" result="shadowBlurOuter1"></feGaussianBlur>
            <feColorMatrix values="0 0 0 0 0   0 0 0 0 0   0 0 0 0 0  0 0 0 0.5 0" type="matrix" in="shadowBlurOuter1" result="shadowMatrixOuter1"></feColorMatrix>
            <feMerge>
                <feMergeNode in="shadowMatrixOuter1"></feMergeNode>
                <feMergeNode in="SourceGraphic"></feMergeNode>
            </feMerge>
        </filter>
        <circle id="path-11" cx="28" cy="28" r="10"></circle>
        <filter x="-35.0%" y="-25.0%" width="170.0%" height="170.0%" filterUnits="objectBoundingBox" id="filter-12">
            <feOffset dx="0" dy="2" in="SourceAlpha" result="shadowOffsetOuter1"></feOffset>
            <feGaussianBlur stdDeviation="2" in="shadowOffsetOuter1" result="shadowBlurOuter1"></feGaussianBlur>
            <feColorMatrix values="0 0 0 0 0   0 0 0 0 0   0 0 0 0 0  0 0 0 0.5 0" type="matrix" in="shadowBlurOuter1"></feColorMatrix>
        </filter>
        <circle id="path-13" cx="27.5" cy="27.5" r="18.5"></circle>
        <filter x="-19.6%" y="-14.2%" width="139.2%" height="139.2%" filterUnits="objectBoundingBox" id="filter-14">
            <feMorphology radius="0.25" operator="dilate" in="SourceAlpha" result="shadowSpreadOuter1"></feMorphology>
            <feOffset dx="0" dy="2" in="shadowSpreadOuter1" result="shadowOffsetOuter1"></feOffset>
            <feMorphology radius="1" operator="erode" in="SourceAlpha" result="shadowInner"></feMorphology>
            <feOffset dx="0" dy="2" in="shadowInner" result="shadowInner"></feOffset>
            <feComposite in="shadowOffsetOuter1" in2="shadowInner" operator="out" result="shadowOffsetOuter1"></feComposite>
            <feGaussianBlur stdDeviation="2" in="shadowOffsetOuter1" result="shadowBlurOuter1"></feGaussianBlur>
            <feColorMatrix values="0 0 0 0 0   0 0 0 0 0   0 0 0 0 0  0 0 0 0.5 0" type="matrix" in="shadowBlurOuter1"></feColorMatrix>
        </filter>
        <circle id="path-15" cx="27.5" cy="27.5" r="27.5"></circle>
        <filter x="-13.2%" y="-9.5%" width="126.4%" height="126.4%" filterUnits="objectBoundingBox" id="filter-16">
            <feMorphology radius="0.25" operator="dilate" in="SourceAlpha" result="shadowSpreadOuter1"></feMorphology>
            <feOffset dx="0" dy="2" in="shadowSpreadOuter1" result="shadowOffsetOuter1"></feOffset>
            <feMorphology radius="1" operator="erode" in="SourceAlpha" result="shadowInner"></feMorphology>
            <feOffset dx="0" dy="2" in="shadowInner" result="shadowInner"></feOffset>
            <feComposite in="shadowOffsetOuter1" in2="shadowInner" operator="out" result="shadowOffsetOuter1"></feComposite>
            <feGaussianBlur stdDeviation="2" in="shadowOffsetOuter1" result="shadowBlurOuter1"></feGaussianBlur>
            <feColorMatrix values="0 0 0 0 0   0 0 0 0 0   0 0 0 0 0  0 0 0 0.5 0" type="matrix" in="shadowBlurOuter1"></feColorMatrix>
        </filter>
        <filter x="-23.6%" y="-12.7%" width="147.3%" height="147.3%" filterUnits="objectBoundingBox" id="filter-17">
            <feOffset dx="0" dy="4" in="SourceAlpha" result="shadowOffsetOuter1"></feOffset>
            <feGaussianBlur stdDeviation="2" in="shadowOffsetOuter1" result="shadowBlurOuter1"></feGaussianBlur>
            <feColorMatrix values="0 0 0 0 0   0 0 0 0 0   0 0 0 0 0  0 0 0 0.5 0" type="matrix" in="shadowBlurOuter1" result="shadowMatrixOuter1"></feColorMatrix>
            <feMerge>
                <feMergeNode in="shadowMatrixOuter1"></feMergeNode>
                <feMergeNode in="SourceGraphic"></feMergeNode>
            </feMerge>
        </filter>
        <circle id="path-18" cx="28" cy="28" r="10"></circle>
        <filter x="-35.0%" y="-25.0%" width="170.0%" height="170.0%" filterUnits="objectBoundingBox" id="filter-19">
            <feOffset dx="0" dy="2" in="SourceAlpha" result="shadowOffsetOuter1"></feOffset>
            <feGaussianBlur stdDeviation="2" in="shadowOffsetOuter1" result="shadowBlurOuter1"></feGaussianBlur>
            <feColorMatrix values="0 0 0 0 0   0 0 0 0 0   0 0 0 0 0  0 0 0 0.5 0" type="matrix" in="shadowBlurOuter1"></feColorMatrix>
        </filter>
        <circle id="path-20" cx="27.5" cy="27.5" r="18.5"></circle>
        <filter x="-19.6%" y="-14.2%" width="139.2%" height="139.2%" filterUnits="objectBoundingBox" id="filter-21">
            <feMorphology radius="0.25" operator="dilate" in="SourceAlpha" result="shadowSpreadOuter1"></feMorphology>
            <feOffset dx="0" dy="2" in="shadowSpreadOuter1" result="shadowOffsetOuter1"></feOffset>
            <feMorphology radius="1" operator="erode" in="SourceAlpha" result="shadowInner"></feMorphology>
            <feOffset dx="0" dy="2" in="shadowInner" result="shadowInner"></feOffset>
            <feComposite in="shadowOffsetOuter1" in2="shadowInner" operator="out" result="shadowOffsetOuter1"></feComposite>
            <feGaussianBlur stdDeviation="2" in="shadowOffsetOuter1" result="shadowBlurOuter1"></feGaussianBlur>
            <feColorMatrix values="0 0 0 0 0   0 0 0 0 0   0 0 0 0 0  0 0 0 0.5 0" type="matrix" in="shadowBlurOuter1"></feColorMatrix>
        </filter>
        <circle id="path-22" cx="27.5" cy="27.5" r="27.5"></circle>
        <filter x="-13.2%" y="-9.5%" width="126.4%" height="126.4%" filterUnits="objectBoundingBox" id="filter-23">
            <feMorphology radius="0.25" operator="dilate" in="SourceAlpha" result="shadowSpreadOuter1"></feMorphology>
            <feOffset dx="0" dy="2" in="shadowSpreadOuter1" result="shadowOffsetOuter1"></feOffset>
            <feMorphology radius="1" operator="erode" in="SourceAlpha" result="shadowInner"></feMorphology>
            <feOffset dx="0" dy="2" in="shadowInner" result="shadowInner"></feOffset>
            <feComposite in="shadowOffsetOuter1" in2="shadowInner" operator="out" result="shadowOffsetOuter1"></feComposite>
            <feGaussianBlur stdDeviation="2" in="shadowOffsetOuter1" result="shadowBlurOuter1"></feGaussianBlur>
            <feColorMatrix values="0 0 0 0 0   0 0 0 0 0   0 0 0 0 0  0 0 0 0.5 0" type="matrix" in="shadowBlurOuter1"></feColorMatrix>
        </filter>
        <circle id="path-24" cx="97.5" cy="97.5" r="97.5"></circle>
        <filter x="-0.8%" y="-0.8%" width="101.5%" height="101.5%" filterUnits="objectBoundingBox" id="filter-25">
            <feOffset dx="0" dy="0" in="SourceAlpha" result="shadowOffsetOuter1"></feOffset>
            <feGaussianBlur stdDeviation="0.5" in="shadowOffsetOuter1" result="shadowBlurOuter1"></feGaussianBlur>
            <feColorMatrix values="0 0 0 0 0   0 0 0 0 0   0 0 0 0 0  0 0 0 0.5 0" type="matrix" in="shadowBlurOuter1"></feColorMatrix>
        </filter>
    </defs>
    <g id="Page-1" stroke="none" stroke-width="1" fill="none" fill-rule="evenodd">
        <g id="Artboard-Copy" transform="translate(-803.000000, -124.000000)">
            <g id="exchangeDashboard-Copy" transform="translate(803.000000, 125.000000)">
                <g id="qtzRate" transform="translate(0.000000, 51.000000)">
                    <mask id="mask-2" fill="white">
                        <use xlink:href="#path-1"></use>
                    </mask>
                    <use id="Rectangle1" fill="#696EFB" xlink:href="#path-1"></use>
                    <path d="M-53,393 C-14.3333333,378.333333 46,371 128,371 C251,371 212.5,268.75 344.5,262.25 C476.5,255.75 388,160.5 539.5,156 C640.5,153 667.666667,144.833333 621,131.5" id="Path-4" stroke="#FFFFFF" stroke-width="7" stroke-linejoin="round" mask="url(#mask-2)"></path>
                    <g id="icon/point" mask="url(#mask-2)">
                        <g transform="translate(496.000000, 128.000000)" id="Group-Copy-2">
                            <g filter="url(#filter-3)">
                                <g id="Oval-2">
                                    <use fill="black" fill-opacity="1" filter="url(#filter-5)" xlink:href="#path-4"></use>
                                    <use fill="#FFFFFF" fill-rule="evenodd" xlink:href="#path-4"></use>
                                </g>
                                <g id="Oval-2" opacity="0.3">
                                    <use fill="black" fill-opacity="1" filter="url(#filter-7)" xlink:href="#path-6"></use>
                                    <use stroke="#333333" stroke-width="0.5" xlink:href="#path-6"></use>
                                </g>
                                <g id="Oval-2" opacity="0.3">
                                    <use fill="black" fill-opacity="1" filter="url(#filter-9)" xlink:href="#path-8"></use>
                                    <use stroke="#333333" stroke-width="0.5" xlink:href="#path-8"></use>
                                </g>
                            </g>
                        </g>
                    </g>
                    <g id="icon/point" mask="url(#mask-2)">
                        <g transform="translate(295.000000, 236.000000)" id="Group-Copy-2">
                            <g filter="url(#filter-10)">
                                <g id="Oval-2">
                                    <use fill="black" fill-opacity="1" filter="url(#filter-12)" xlink:href="#path-11"></use>
                                    <use fill="#FFFFFF" fill-rule="evenodd" xlink:href="#path-11"></use>
                                </g>
                                <g id="Oval-2" opacity="0.3">
                                    <use fill="black" fill-opacity="1" filter="url(#filter-14)" xlink:href="#path-13"></use>
                                    <use stroke="#333333" stroke-width="0.5" xlink:href="#path-13"></use>
                                </g>
                                <g id="Oval-2" opacity="0.3">
                                    <use fill="black" fill-opacity="1" filter="url(#filter-16)" xlink:href="#path-15"></use>
                                    <use stroke="#333333" stroke-width="0.5" xlink:href="#path-15"></use>
                                </g>
                            </g>
                        </g>
                    </g>
                    <g id="icon/point" mask="url(#mask-2)">
                        <g transform="translate(98.000000, 342.000000)" id="Group-Copy-2">
                            <g filter="url(#filter-17)">
                                <g id="Oval-2">
                                    <use fill="black" fill-opacity="1" filter="url(#filter-19)" xlink:href="#path-18"></use>
                                    <use fill="#FFFFFF" fill-rule="evenodd" xlink:href="#path-18"></use>
                                </g>
                                <g id="Oval-2" opacity="0.3">
                                    <use fill="black" fill-opacity="1" filter="url(#filter-21)" xlink:href="#path-20"></use>
                                    <use stroke="#333333" stroke-width="0.5" xlink:href="#path-20"></use>
                                </g>
                                <g id="Oval-2" opacity="0.3">
                                    <use fill="black" fill-opacity="1" filter="url(#filter-23)" xlink:href="#path-22"></use>
                                    <use stroke="#333333" stroke-width="0.5" xlink:href="#path-22"></use>
                                </g>
                            </g>
                        </g>
                    </g>
                </g>
                <g id="logoLivecoin" transform="translate(210.000000, 0.000000)">
                    <g id="ovalbgLogo-Copy">
                        <use fill="black" fill-opacity="1" filter="url(#filter-25)" xlink:href="#path-24"></use>
                        <use fill="#333333" fill-rule="evenodd" xlink:href="#path-24"></use>
                    </g>
                    <path d="M98.1670616,18.4341534 C142.086915,18.4341534 177.667062,54.0143005 177.667062,97.9341534 C177.667062,141.854006 142.086915,177.434153 98.1670616,177.434153 C54.2472087,177.434153 18.6670616,141.854006 18.6670616,97.9341534 C18.6670616,54.0143005 54.2472087,18.4341534 98.1670616,18.4341534 Z M98.1670616,30.5540063 C135.383973,30.5540063 165.547209,60.7172416 165.547209,97.9341534 C165.547209,135.151065 135.383973,165.3143 98.1670616,165.3143 C60.9501498,165.3143 30.7869146,135.151065 30.7869146,97.9341534 C30.7869146,60.7172416 60.9501498,30.5540063 98.1670616,30.5540063 Z" id="Shape" fill="#1D88CA"></path>
                    <polygon id="Shape" fill="#1D88CA" points="85.6670616 90.4341534 85.6670616 122.434153 72.6670616 122.434153 72.6670616 97.5409961"></polygon>
                    <polygon id="Shape" fill="#1D88CA" points="104.667062 80.4341534 104.667062 122.434153 91.6670616 122.434153 91.6670616 87.5822675"></polygon>
                    <polygon id="Shape" fill="#1D88CA" points="123.667062 69.4341534 123.667062 121.434153 110.667062 121.434153 110.667062 76.6025588"></polygon>
                </g>
                <path d="M91.4541016,105.194824 C91.4361978,106.645027 91.3108736,108.104159 91.078125,109.572266 C90.8453764,111.040372 90.491783,112.454746 90.017334,113.81543 C89.542885,115.176114 88.9341671,116.451736 88.1911621,117.642334 C87.4481571,118.832932 86.5574596,119.866858 85.519043,120.744141 L92.2597656,126.356934 L88.8491211,129.606445 L81.1147461,123.053711 C80.0047145,123.375978 78.8051822,123.537109 77.5161133,123.537109 C75.8510659,123.537109 74.3561264,123.281985 73.03125,122.771729 C71.7063736,122.261472 70.5292206,121.567713 69.4997559,120.69043 C68.4702911,119.813147 67.5795936,118.779221 66.8276367,117.588623 C66.0756798,116.398025 65.4580102,115.122403 64.9746094,113.761719 C64.4912085,112.401035 64.1331392,110.991137 63.9003906,109.531982 C63.6676421,108.072828 63.5423178,106.627123 63.5244141,105.194824 L63.5244141,101.757324 C63.5423178,100.325025 63.6676421,98.8748446 63.9003906,97.4067383 C64.1331392,95.938632 64.4912085,94.5242581 64.9746094,93.1635742 C65.4580102,91.8028903 66.0667281,90.5272683 66.8007812,89.3366699 C67.5348344,88.1460715 68.4165801,87.1076704 69.4460449,86.2214355 C70.4755097,85.3352006 71.6571385,84.6369654 72.9909668,84.126709 C74.3247951,83.6164525 75.8242104,83.3613281 77.4892578,83.3613281 C79.1543052,83.3613281 80.6537205,83.6164525 81.9875488,84.126709 C83.3213771,84.6369654 84.5030059,85.3307248 85.5324707,86.2080078 C86.5619355,87.0852908 87.4481571,88.1192161 88.1911621,89.3098145 C88.9341671,90.5004129 89.542885,91.7760349 90.017334,93.1367188 C90.491783,94.4974026 90.8453764,95.9162524 91.078125,97.3933105 C91.3108736,98.8703687 91.4361978,100.325025 91.4541016,101.757324 L91.4541016,105.194824 Z M86.5126953,101.703613 C86.4947916,100.718908 86.4366053,99.6939344 86.3381348,98.6286621 C86.2396642,97.5633899 86.0606296,96.516037 85.8010254,95.4865723 C85.5414212,94.4571075 85.1923036,93.4768927 84.7536621,92.5458984 C84.3150206,91.6149042 83.764489,90.7958206 83.1020508,90.088623 C82.4396126,89.3814255 81.6473842,88.8219422 80.7253418,88.4101562 C79.8032994,87.9983703 78.7246156,87.7924805 77.4892578,87.7924805 C76.2718038,87.7924805 75.2065475,88.0028462 74.293457,88.423584 C73.3803665,88.8443218 72.592614,89.408281 71.9301758,90.1154785 C71.2677376,90.8226761 70.717206,91.6417597 70.2785645,92.5727539 C69.8399229,93.5037481 69.4863295,94.483963 69.2177734,95.5134277 C68.9492174,96.5428925 68.7567551,97.5902453 68.6403809,98.6555176 C68.5240066,99.7207898 68.4658203,100.736812 68.4658203,101.703613 L68.4658203,105.194824 C68.4658203,106.161626 68.5240066,107.177648 68.6403809,108.24292 C68.7567551,109.308192 68.9492174,110.360021 69.2177734,111.398438 C69.4863295,112.436854 69.8399229,113.421545 70.2785645,114.352539 C70.717206,115.283533 71.2677376,116.107093 71.9301758,116.823242 C72.592614,117.539392 73.3848424,118.107827 74.3068848,118.528564 C75.2289271,118.949302 76.2986593,119.159668 77.5161133,119.159668 C78.751471,119.159668 79.8301549,118.949302 80.7521973,118.528564 C81.6742396,118.107827 82.466468,117.543867 83.1289062,116.83667 C83.7913445,116.129472 84.3374002,115.310389 84.7670898,114.379395 C85.1967795,113.4484 85.5414212,112.46371 85.8010254,111.425293 C86.0606296,110.386876 86.2396642,109.335048 86.3381348,108.269775 C86.4366053,107.204503 86.4947916,106.17953 86.5126953,105.194824 L86.5126953,101.703613 Z M125.050293,88.1416016 L112.965332,88.1416016 L112.965332,123 L108.131348,123 L108.131348,88.1416016 L96.0463867,88.1416016 L96.0463867,83.8984375 L125.050293,83.8984375 L125.050293,88.1416016 Z M143.79541,99.2329102 L152.228027,83.8984375 L158.08252,83.8984375 L146.722656,103.288086 L158.351074,123 L152.550293,123 L143.902832,107.370117 L135.228516,123 L129.347168,123 L141.002441,103.288086 L129.642578,83.8984375 L135.470215,83.8984375 L143.79541,99.2329102 Z" id="QTX" fill="#FFFFFF"></path>
                <path d="M436.54541,114.316895 L448.713379,114.316895 L448.713379,117 L433.383789,117 L433.383789,92.1171875 L436.54541,92.1171875 L436.54541,114.316895 Z M454.472656,98.5087891 L463.92334,98.5087891 L463.92334,114.265625 L469.956055,114.265625 L469.956055,117 L454.472656,117 L454.472656,114.265625 L460.761719,114.265625 L460.761719,101.260254 L454.472656,101.260254 L454.472656,98.5087891 Z M460.351562,93.6552734 C460.351562,93.1311823 460.508218,92.6896991 460.821533,92.3308105 C461.134849,91.971922 461.610511,91.7924805 462.248535,91.7924805 C462.875166,91.7924805 463.34798,91.971922 463.666992,92.3308105 C463.986004,92.6896991 464.145508,93.1311823 464.145508,93.6552734 C464.145508,94.1679713 463.986004,94.5952131 463.666992,94.9370117 C463.34798,95.2788103 462.875166,95.449707 462.248535,95.449707 C461.610511,95.449707 461.134849,95.2788103 460.821533,94.9370117 C460.508218,94.5952131 460.351562,94.1679713 460.351562,93.6552734 Z M482.226562,112.454102 L482.51709,113.599121 L482.824707,112.454102 L488.00293,98.5087891 L491.23291,98.5087891 L483.696289,117 L481.286621,117 L473.681641,98.5087891 L476.928711,98.5087891 L482.226562,112.454102 Z M504.152832,117.341797 C502.853997,117.341797 501.660569,117.119631 500.57251,116.675293 C499.484451,116.230955 498.553064,115.61003 497.77832,114.8125 C497.003577,114.01497 496.399742,113.069341 495.966797,111.975586 C495.533852,110.88183 495.317383,109.69125 495.317383,108.403809 L495.317383,107.686035 C495.317383,106.193515 495.556638,104.857672 496.035156,103.678467 C496.513674,102.499262 497.14884,101.502364 497.940674,100.687744 C498.732507,99.8731242 499.632563,99.2493511 500.640869,98.8164062 C501.649175,98.3834614 502.6831,98.1669922 503.742676,98.1669922 C505.07569,98.1669922 506.240636,98.3977028 507.237549,98.8591309 C508.234461,99.3205589 509.06331,99.9585734 509.724121,100.773193 C510.384932,101.587813 510.877684,102.547683 511.202393,103.652832 C511.527101,104.757981 511.689453,105.954258 511.689453,107.241699 L511.689453,108.660156 L498.479004,108.660156 C498.513184,109.503259 498.675536,110.295081 498.966064,111.035645 C499.256593,111.776208 499.655352,112.422767 500.162354,112.975342 C500.669355,113.527916 501.276038,113.963703 501.982422,114.282715 C502.688806,114.601727 503.469234,114.76123 504.32373,114.76123 C505.451666,114.76123 506.45426,114.533368 507.331543,114.077637 C508.208826,113.621905 508.937985,113.01807 509.519043,112.266113 L511.450195,113.77002 C511.142577,114.237144 510.758059,114.684324 510.296631,115.111572 C509.835203,115.53882 509.302575,115.917642 508.69873,116.248047 C508.094886,116.578452 507.411299,116.843342 506.647949,117.042725 C505.884599,117.242107 505.052902,117.341797 504.152832,117.341797 Z M503.742676,100.764648 C503.104652,100.764648 502.500817,100.881428 501.931152,101.11499 C501.361488,101.348553 500.848798,101.690346 500.393066,102.140381 C499.937335,102.590416 499.552817,103.142982 499.239502,103.798096 C498.926187,104.45321 498.706869,105.208004 498.581543,106.0625 L508.527832,106.0625 L508.527832,105.823242 C508.493652,105.208005 508.376873,104.598473 508.17749,103.994629 C507.978108,103.390785 507.684735,102.849612 507.297363,102.371094 C506.909992,101.892576 506.422936,101.50521 505.836182,101.208984 C505.249427,100.912759 504.551599,100.764648 503.742676,100.764648 Z M524.865723,114.77832 C525.435387,114.77832 525.990801,114.687175 526.531982,114.504883 C527.073164,114.32259 527.554523,114.069093 527.976074,113.744385 C528.397626,113.419676 528.736571,113.038007 528.99292,112.599365 C529.249269,112.160724 529.383138,111.685061 529.394531,111.172363 L532.385254,111.172363 C532.373861,111.99268 532.16024,112.775957 531.744385,113.522217 C531.32853,114.268477 530.773115,114.923581 530.078125,115.487549 C529.383135,116.051516 528.585616,116.501545 527.685547,116.837646 C526.785477,117.173748 525.845545,117.341797 524.865723,117.341797 C523.464348,117.341797 522.239589,117.091148 521.191406,116.589844 C520.143224,116.088539 519.268802,115.413497 518.568115,114.564697 C517.867428,113.715897 517.340497,112.73609 516.987305,111.625244 C516.634113,110.514399 516.45752,109.343756 516.45752,108.113281 L516.45752,107.395508 C516.45752,106.176426 516.634113,105.008632 516.987305,103.89209 C517.340497,102.775548 517.867428,101.792892 518.568115,100.944092 C519.268802,100.095292 520.143224,99.4202499 521.191406,98.9189453 C522.239589,98.4176407 523.464348,98.1669922 524.865723,98.1669922 C525.959478,98.1669922 526.964921,98.3407372 527.88208,98.6882324 C528.79924,99.0357276 529.591061,99.5085419 530.257568,100.106689 C530.924076,100.704837 531.445311,101.414058 531.821289,102.234375 C532.197268,103.054692 532.385254,103.931961 532.385254,104.866211 L529.394531,104.866211 C529.383138,104.30794 529.260662,103.781008 529.0271,103.2854 C528.793537,102.789792 528.477378,102.354006 528.078613,101.978027 C527.679848,101.602049 527.204186,101.305828 526.651611,101.089355 C526.099037,100.872883 525.503747,100.764648 524.865723,100.764648 C523.8859,100.764648 523.062747,100.96118 522.39624,101.354248 C521.729733,101.747316 521.191408,102.260007 520.78125,102.892334 C520.371092,103.524661 520.077719,104.233883 519.901123,105.02002 C519.724527,105.806156 519.63623,106.597978 519.63623,107.395508 L519.63623,108.113281 C519.63623,108.922205 519.724527,109.722571 519.901123,110.514404 C520.077719,111.306238 520.368243,112.018307 520.772705,112.650635 C521.177167,113.282962 521.712643,113.795652 522.37915,114.188721 C523.045658,114.581789 523.874507,114.77832 524.865723,114.77832 Z M537.102051,107.583496 C537.102051,106.250482 537.295734,105.01148 537.683105,103.866455 C538.070477,102.72143 538.625892,101.727381 539.349365,100.884277 C540.072839,100.041174 540.952957,99.3775252 541.989746,98.8933105 C543.026535,98.4090959 544.194329,98.1669922 545.493164,98.1669922 C546.803392,98.1669922 547.979731,98.4090959 549.022217,98.8933105 C550.064702,99.3775252 550.947669,100.041174 551.671143,100.884277 C552.394616,101.727381 552.950031,102.72143 553.337402,103.866455 C553.724774,105.01148 553.918457,106.250482 553.918457,107.583496 L553.918457,107.959473 C553.918457,109.292487 553.724774,110.52864 553.337402,111.667969 C552.950031,112.807297 552.394616,113.798498 551.671143,114.641602 C550.947669,115.484705 550.067551,116.145505 549.030762,116.624023 C547.993973,117.102541 546.826178,117.341797 545.527344,117.341797 C544.217116,117.341797 543.040777,117.102541 541.998291,116.624023 C540.955805,116.145505 540.072839,115.484705 539.349365,114.641602 C538.625892,113.798498 538.070477,112.807297 537.683105,111.667969 C537.295734,110.52864 537.102051,109.292487 537.102051,107.959473 L537.102051,107.583496 Z M540.263672,107.959473 C540.263672,108.870936 540.371906,109.739661 540.588379,110.565674 C540.804851,111.391687 541.132403,112.117998 541.571045,112.744629 C542.009686,113.37126 542.559404,113.86686 543.220215,114.231445 C543.881025,114.59603 544.650061,114.77832 545.527344,114.77832 C546.393233,114.77832 547.153724,114.59603 547.808838,114.231445 C548.463952,113.86686 549.010821,113.37126 549.449463,112.744629 C549.888104,112.117998 550.215656,111.391687 550.432129,110.565674 C550.648601,109.739661 550.756836,108.870936 550.756836,107.959473 L550.756836,107.583496 C550.756836,106.683426 550.645753,105.820398 550.423584,104.994385 C550.201415,104.168372 549.871015,103.44206 549.432373,102.81543 C548.993732,102.188799 548.446862,101.69035 547.791748,101.320068 C547.136634,100.949787 546.370447,100.764648 545.493164,100.764648 C544.615881,100.764648 543.852542,100.949787 543.203125,101.320068 C542.553708,101.69035 542.009686,102.188799 541.571045,102.81543 C541.132403,103.44206 540.804851,104.168372 540.588379,104.994385 C540.371906,105.820398 540.263672,106.683426 540.263672,107.583496 L540.263672,107.959473 Z M559.489746,98.5087891 L568.94043,98.5087891 L568.94043,114.265625 L574.973145,114.265625 L574.973145,117 L559.489746,117 L559.489746,114.265625 L565.778809,114.265625 L565.778809,101.260254 L559.489746,101.260254 L559.489746,98.5087891 Z M565.368652,93.6552734 C565.368652,93.1311823 565.525308,92.6896991 565.838623,92.3308105 C566.151938,91.971922 566.627601,91.7924805 567.265625,91.7924805 C567.892256,91.7924805 568.36507,91.971922 568.684082,92.3308105 C569.003094,92.6896991 569.162598,93.1311823 569.162598,93.6552734 C569.162598,94.1679713 569.003094,94.5952131 568.684082,94.9370117 C568.36507,95.2788103 567.892256,95.449707 567.265625,95.449707 C566.627601,95.449707 566.151938,95.2788103 565.838623,94.9370117 C565.525308,94.5952131 565.368652,94.1679713 565.368652,93.6552734 Z M582.834473,98.5087891 L583.056641,101.243164 C583.728845,100.286128 584.554845,99.5370307 585.534668,98.9958496 C586.514491,98.4546685 587.60823,98.1783855 588.815918,98.1669922 C589.784347,98.1669922 590.664465,98.3037096 591.456299,98.5771484 C592.248132,98.8505873 592.923174,99.2778291 593.481445,99.8588867 C594.039716,100.439944 594.469806,101.177649 594.771729,102.072021 C595.073651,102.966394 595.224609,104.028802 595.224609,105.259277 L595.224609,117 L592.062988,117 L592.062988,105.327637 C592.062988,104.50732 591.971843,103.81234 591.789551,103.242676 C591.607258,102.673011 591.336672,102.21159 590.977783,101.858398 C590.618895,101.505207 590.18026,101.248861 589.661865,101.089355 C589.143471,100.929849 588.54818,100.850098 587.875977,100.850098 C586.816401,100.850098 585.885014,101.114988 585.081787,101.644775 C584.27856,102.174563 583.637698,102.872392 583.15918,103.738281 L583.15918,117 L579.997559,117 L579.997559,98.5087891 L582.834473,98.5087891 Z" id="Livecoin" fill="#FFFFFF"></path>
                <path d="M478.39209,253.784668 L470.970215,253.784668 L470.970215,260.083496 L479.625,260.083496 L479.625,262 L468.711914,262 L468.711914,244.226562 L479.515137,244.226562 L479.515137,246.155273 L470.970215,246.155273 L470.970215,251.868164 L478.39209,251.868164 L478.39209,253.784668 Z M489.12207,251.196777 L492.955078,244.226562 L495.616211,244.226562 L490.452637,253.040039 L495.738281,262 L493.101562,262 L489.170898,254.895508 L485.228027,262 L482.554688,262 L487.852539,253.040039 L482.688965,244.226562 L485.337891,244.226562 L489.12207,251.196777 Z M510.130371,256.65332 C510.024576,257.475265 509.81299,258.230058 509.495605,258.917725 C509.178221,259.605391 508.765221,260.195391 508.256592,260.687744 C507.747963,261.180097 507.145755,261.56258 506.449951,261.835205 C505.754147,262.10783 504.979008,262.244141 504.124512,262.244141 C503.392086,262.244141 502.72681,262.140382 502.128662,261.932861 C501.530515,261.725341 500.99748,261.438478 500.529541,261.072266 C500.061602,260.706053 499.658774,260.274742 499.321045,259.77832 C498.983315,259.281899 498.702556,258.740726 498.47876,258.154785 C498.254963,257.568845 498.088135,256.95443 497.978271,256.311523 C497.868408,255.668617 497.809408,255.017581 497.80127,254.358398 L497.80127,251.880371 C497.809408,251.221188 497.868408,250.570153 497.978271,249.927246 C498.088135,249.284339 498.254963,248.669925 498.47876,248.083984 C498.702556,247.498044 498.983315,246.954836 499.321045,246.454346 C499.658774,245.953855 500.061602,245.52051 500.529541,245.154297 C500.99748,244.788084 501.52848,244.501222 502.122559,244.293701 C502.716637,244.086181 503.383948,243.982422 504.124512,243.982422 C505.01156,243.982422 505.80501,244.118732 506.504883,244.391357 C507.204756,244.663982 507.806964,245.050535 508.311523,245.551025 C508.816083,246.051516 509.220946,246.651689 509.526123,247.351562 C509.8313,248.051436 510.032714,248.82454 510.130371,249.670898 L507.87207,249.670898 C507.798828,249.133786 507.67269,248.633303 507.493652,248.169434 C507.314615,247.705564 507.074546,247.298667 506.773438,246.94873 C506.472329,246.598794 506.104087,246.324138 505.668701,246.124756 C505.233315,245.925373 504.71859,245.825684 504.124512,245.825684 C503.5874,245.825684 503.113365,245.913166 502.702393,246.088135 C502.29142,246.263103 501.93742,246.501138 501.640381,246.802246 C501.343342,247.103354 501.095134,247.453286 500.895752,247.852051 C500.696369,248.250816 500.535645,248.673989 500.413574,249.121582 C500.291503,249.569175 500.20402,250.026935 500.151123,250.494873 C500.098226,250.962812 500.071777,251.416502 500.071777,251.855957 L500.071777,254.358398 C500.071777,254.797854 500.098226,255.251544 500.151123,255.719482 C500.20402,256.187421 500.291503,256.647215 500.413574,257.098877 C500.535645,257.550539 500.694335,257.975747 500.889648,258.374512 C501.084962,258.773277 501.333169,259.125243 501.634277,259.43042 C501.935386,259.735597 502.289386,259.975666 502.696289,260.150635 C503.103192,260.325603 503.579262,260.413086 504.124512,260.413086 C504.71859,260.413086 505.233315,260.3195 505.668701,260.132324 C506.104087,259.945149 506.472329,259.6827 506.773438,259.344971 C507.074546,259.007241 507.314615,258.608482 507.493652,258.148682 C507.67269,257.688881 507.798828,257.190432 507.87207,256.65332 L510.130371,256.65332 Z M524.766602,262 L522.630371,262 L522.630371,253.784668 L515.342773,253.784668 L515.342773,262 L513.21875,262 L513.21875,244.226562 L515.342773,244.226562 L515.342773,251.868164 L522.630371,251.868164 L522.630371,244.226562 L524.766602,244.226562 L524.766602,262 Z M537.10791,257.397949 L531.175293,257.397949 L529.74707,262 L527.48877,262 L533.226074,244.226562 L535.118164,244.226562 L540.757812,262 L538.511719,262 L537.10791,257.397949 Z M531.785645,255.432617 L536.509766,255.432617 L534.166016,247.717773 L531.785645,255.432617 Z M554.759277,262 L552.464355,262 L545.567383,248.71875 L545.530762,262 L543.248047,262 L543.248047,244.226562 L545.542969,244.226562 L552.439941,257.483398 L552.476562,244.226562 L554.759277,244.226562 L554.759277,262 Z M570.12793,259.668457 C569.379228,260.547368 568.520675,261.198403 567.552246,261.621582 C566.583817,262.044761 565.521816,262.252279 564.366211,262.244141 C563.633785,262.236003 562.960371,262.124106 562.345947,261.908447 C561.731524,261.692789 561.180178,261.395754 560.691895,261.017334 C560.203611,260.638914 559.776369,260.193362 559.410156,259.680664 C559.043943,259.167966 558.736736,258.612552 558.488525,258.014404 C558.240315,257.416257 558.053142,256.789635 557.927002,256.134521 C557.800862,255.479408 557.733724,254.8182 557.725586,254.150879 L557.725586,252.087891 C557.733724,251.428708 557.792724,250.771569 557.902588,250.116455 C558.012452,249.461341 558.181314,248.832685 558.40918,248.230469 C558.637045,247.628252 558.921873,247.068769 559.263672,246.552002 C559.60547,246.035235 560.014402,245.587648 560.490479,245.209229 C560.966555,244.830809 561.505694,244.531739 562.10791,244.312012 C562.710127,244.092284 563.385576,243.982422 564.134277,243.982422 C564.96436,243.982422 565.729326,244.110594 566.429199,244.366943 C567.129073,244.623292 567.739418,244.9895 568.260254,245.465576 C568.78109,245.941653 569.200194,246.515378 569.517578,247.186768 C569.834963,247.858158 570.030273,248.608883 570.103516,249.438965 L567.869629,249.438965 C567.78011,248.926267 567.641765,248.452232 567.45459,248.016846 C567.267414,247.581459 567.021242,247.209149 566.716064,246.899902 C566.410887,246.590656 566.046714,246.348552 565.623535,246.173584 C565.200356,245.998616 564.708011,245.911133 564.146484,245.911133 C563.609372,245.911133 563.133303,246.002685 562.718262,246.185791 C562.303221,246.368897 561.941082,246.61507 561.631836,246.924316 C561.32259,247.233563 561.066245,247.593667 560.862793,248.004639 C560.659341,248.415611 560.492514,248.848956 560.362305,249.304688 C560.232096,249.760419 560.138509,250.224281 560.081543,250.696289 C560.024577,251.168297 559.996094,251.624021 559.996094,252.063477 L559.996094,254.150879 C560.004232,254.598472 560.042887,255.0603 560.112061,255.536377 C560.181234,256.012454 560.289062,256.478351 560.435547,256.934082 C560.582032,257.389813 560.769205,257.821124 560.99707,258.228027 C561.224936,258.63493 561.499591,258.993 561.821045,259.302246 C562.142498,259.611492 562.514809,259.857665 562.937988,260.040771 C563.361167,260.223878 563.841306,260.319499 564.378418,260.327637 C564.687664,260.335775 565.011147,260.323568 565.348877,260.291016 C565.686607,260.258463 566.014159,260.19336 566.331543,260.095703 C566.648927,259.998046 566.945962,259.865805 567.222656,259.698975 C567.49935,259.532144 567.731282,259.314454 567.918457,259.045898 L567.942871,255.054199 L564.32959,255.054199 L564.32959,253.149902 L570.091309,253.149902 L570.12793,259.668457 Z M583.40918,253.784668 L575.987305,253.784668 L575.987305,260.083496 L584.64209,260.083496 L584.64209,262 L573.729004,262 L573.729004,244.226562 L584.532227,244.226562 L584.532227,246.155273 L575.987305,246.155273 L575.987305,251.868164 L583.40918,251.868164 L583.40918,253.784668 Z M522.569336,286.422363 C522.577474,285.6818 522.306888,285.04704 521.757568,284.518066 C521.208249,283.989092 520.335455,283.529299 519.13916,283.138672 C518.38232,282.902668 517.698734,282.630047 517.088379,282.320801 C516.478024,282.011554 515.955162,281.643313 515.519775,281.216064 C515.084389,280.788816 514.748699,280.298505 514.512695,279.745117 C514.276692,279.191729 514.158691,278.552901 514.158691,277.828613 C514.158691,277.145016 514.26245,276.526533 514.469971,275.973145 C514.677491,275.419756 514.970457,274.937583 515.348877,274.526611 C515.727297,274.115639 516.18709,273.784018 516.728271,273.531738 C517.269453,273.279458 517.869626,273.112631 518.528809,273.03125 L518.528809,270.345703 L520.347656,270.345703 L520.347656,273.03125 C521.714851,273.218425 522.776852,273.794185 523.533691,274.758545 C524.290531,275.722905 524.673014,277.035148 524.681152,278.695312 L522.435059,278.695312 C522.435059,278.150062 522.367921,277.647545 522.233643,277.187744 C522.099365,276.727944 521.904054,276.333254 521.647705,276.003662 C521.391356,275.674071 521.076011,275.415691 520.70166,275.228516 C520.327309,275.04134 519.900068,274.947754 519.419922,274.947754 C518.435216,274.947754 517.690595,275.204099 517.186035,275.716797 C516.681475,276.229495 516.42513,276.92122 516.416992,277.791992 C516.416992,278.198895 516.482096,278.561034 516.612305,278.878418 C516.742514,279.195802 516.947997,279.484699 517.22876,279.745117 C517.509523,280.005535 517.871661,280.247639 518.315186,280.471436 C518.75871,280.695232 519.293779,280.912922 519.92041,281.124512 C520.685388,281.376792 521.373044,281.657551 521.983398,281.966797 C522.593753,282.276043 523.110512,282.638182 523.533691,283.053223 C523.956871,283.468264 524.280354,283.948402 524.50415,284.493652 C524.727947,285.038902 524.839844,285.673662 524.839844,286.397949 C524.839844,287.105961 524.727947,287.74072 524.50415,288.302246 C524.280354,288.863772 523.965009,289.345945 523.558105,289.748779 C523.151202,290.151613 522.656823,290.475096 522.074951,290.719238 C521.49308,290.96338 520.848148,291.12207 520.140137,291.195312 L520.140137,293.539062 L518.321289,293.539062 L518.321289,291.20752 C517.68652,291.142415 517.078209,290.995932 516.496338,290.768066 C515.914466,290.540201 515.399742,290.20858 514.952148,289.773193 C514.504555,289.337807 514.146486,288.790531 513.87793,288.131348 C513.609374,287.472165 513.475098,286.682785 513.475098,285.763184 L515.733398,285.763184 C515.733398,286.446781 515.835123,287.014402 516.038574,287.466064 C516.242026,287.917727 516.504474,288.277831 516.825928,288.546387 C517.147381,288.814943 517.511554,289.006184 517.918457,289.120117 C518.32536,289.23405 518.736326,289.291016 519.151367,289.291016 C519.680341,289.291016 520.156411,289.225912 520.57959,289.095703 C521.002769,288.965494 521.360838,288.776287 521.653809,288.528076 C521.946779,288.279865 522.172607,287.978762 522.331299,287.624756 C522.489991,287.27075 522.569336,286.869957 522.569336,286.422363 Z M535.948242,291 L533.689941,291 L533.689941,276.107422 L529.039062,277.877441 L529.039062,275.814453 L535.765137,273.226562 L535.948242,273.226562 L535.948242,291 Z" id="EXCHANGE-$1-Copy-2" fill="#FFFFFF"></path>
                <g id="TGE-Copy" transform="translate(279.000000, 343.000000)" fill="#FFFFFF">
                    <path d="M10.0717773,46.4223633 C10.0799154,45.6817997 9.80932892,45.0470404 9.26000977,44.5180664 C8.71069061,43.9890924 7.83789661,43.5292988 6.64160156,43.1386719 C5.88476184,42.9026681 5.20117493,42.6300471 4.59082031,42.3208008 C3.9804657,42.0115544 3.45760309,41.6433127 3.0222168,41.2160645 C2.58683051,40.7888162 2.2511405,40.2985054 2.01513672,39.7451172 C1.77913293,39.191729 1.66113281,38.5529008 1.66113281,37.8286133 C1.66113281,37.1450161 1.76489154,36.5265327 1.97241211,35.9731445 C2.17993268,35.4197563 2.4728985,34.9375834 2.85131836,34.5266113 C3.22973822,34.1156392 3.6895318,33.7840182 4.23071289,33.5317383 C4.77189398,33.2794584 5.37206702,33.1126306 6.03125,33.03125 L6.03125,30.3457031 L7.85009766,30.3457031 L7.85009766,33.03125 C9.21729199,33.2184254 10.2792931,33.7941846 11.0361328,34.7585449 C11.7929725,35.7229052 12.1754557,37.0351479 12.1835938,38.6953125 L9.9375,38.6953125 C9.9375,38.1500624 9.870362,37.6475446 9.73608398,37.1877441 C9.60180597,36.7279437 9.40649542,36.3332536 9.15014648,36.0036621 C8.89379755,35.6740706 8.57845239,35.415691 8.20410156,35.2285156 C7.82975073,35.0413402 7.40250891,34.9477539 6.92236328,34.9477539 C5.93765784,34.9477539 5.19303638,35.204099 4.68847656,35.7167969 C4.18391675,36.2294948 3.92757166,36.9212196 3.91943359,37.7919922 C3.91943359,38.1988953 3.98453711,38.5610336 4.11474609,38.878418 C4.24495508,39.1958024 4.45043805,39.4846992 4.73120117,39.7451172 C5.01196429,40.0055352 5.3741026,40.2476389 5.81762695,40.4714355 C6.26115131,40.6952322 6.79622083,40.9129221 7.42285156,41.1245117 C8.18782935,41.3767916 8.87548523,41.6575505 9.48583984,41.9667969 C10.0961945,42.2760432 10.6129536,42.6381815 11.0361328,43.0532227 C11.459312,43.4682638 11.7827951,43.9484022 12.0065918,44.4936523 C12.2303885,45.0389025 12.3422852,45.6736617 12.3422852,46.3979492 C12.3422852,47.1059606 12.2303885,47.7407198 12.0065918,48.3022461 C11.7827951,48.8637723 11.46745,49.3459453 11.0605469,49.7487793 C10.6536438,50.1516133 10.159264,50.4750964 9.57739258,50.7192383 C8.99552118,50.9633801 8.35058948,51.1220699 7.64257812,51.1953125 L7.64257812,53.5390625 L5.82373047,53.5390625 L5.82373047,51.2075195 C5.18896167,51.142415 4.5806507,50.9959321 3.9987793,50.7680664 C3.4169079,50.5402007 2.90218323,50.2085797 2.45458984,49.7731934 C2.00699646,49.3378071 1.64892712,48.7905306 1.38037109,48.1313477 C1.11181506,47.4721647 0.977539062,46.6827845 0.977539062,45.7631836 L3.23583984,45.7631836 C3.23583984,46.4467808 3.33756409,47.014402 3.54101562,47.4660645 C3.74446716,47.9177269 4.00691571,48.2778307 4.32836914,48.5463867 C4.64982257,48.8149427 5.01399536,49.0061843 5.42089844,49.1201172 C5.82780151,49.23405 6.23876746,49.2910156 6.65380859,49.2910156 C7.18278259,49.2910156 7.65885205,49.2259121 8.08203125,49.0957031 C8.50521045,48.9654941 8.86327979,48.776287 9.15625,48.5280762 C9.44922021,48.2798653 9.67504803,47.9787615 9.83374023,47.6247559 C9.99243243,47.2707502 10.0717773,46.8699567 10.0717773,46.4223633 Z M27.2836914,44.2006836 C27.2836914,45.3318741 27.1534844,46.3348752 26.8930664,47.2097168 C26.6326484,48.0845584 26.2583032,48.8210419 25.7700195,49.4191895 C25.2817358,50.017337 24.6835973,50.4710271 23.9755859,50.7802734 C23.2675746,51.0895198 22.4578496,51.2441406 21.5463867,51.2441406 C20.6430619,51.2441406 19.8353714,51.0895198 19.123291,50.7802734 C18.4112106,50.4710271 17.8069686,50.017337 17.3105469,49.4191895 C16.8141251,48.8210419 16.4336765,48.0845584 16.1691895,47.2097168 C15.9047025,46.3348752 15.7724609,45.3318741 15.7724609,44.2006836 L15.7724609,40.0380859 C15.7724609,38.9068954 15.902668,37.9038943 16.1630859,37.0290527 C16.4235039,36.1542111 16.7998836,35.4156931 17.2922363,34.8134766 C17.7845891,34.21126 18.3867966,33.7535009 19.098877,33.4401855 C19.8109573,33.1268702 20.6186478,32.9702148 21.5219727,32.9702148 C22.4334355,32.9702148 23.245195,33.1268702 23.9572754,33.4401855 C24.6693558,33.7535009 25.2715633,34.21126 25.763916,34.8134766 C26.2562687,35.4156931 26.6326484,36.1542111 26.8930664,37.0290527 C27.1534844,37.9038943 27.2836914,38.9068954 27.2836914,40.0380859 L27.2836914,44.2006836 Z M18.0429688,43.7490234 L24.9643555,38.4389648 C24.8341465,37.2589459 24.4903185,36.3617381 23.9328613,35.7473145 C23.3754041,35.1328908 22.5717826,34.8256836 21.5219727,34.8256836 C20.3338157,34.8256836 19.4569527,35.2264771 18.8913574,36.0280762 C18.3257621,36.8296752 18.0429688,37.999504 18.0429688,39.5375977 L18.0429688,43.7490234 Z M25.0131836,40.5996094 L18.1040039,45.8852539 C18.242351,47.0327206 18.5963513,47.9075491 19.1660156,48.5097656 C19.7356799,49.1119822 20.529129,49.4130859 21.5463867,49.4130859 C22.7426818,49.4130859 23.6195447,49.006189 24.177002,48.1923828 C24.7344592,47.3785767 25.0131836,46.2067134 25.0131836,44.6767578 L25.0131836,40.5996094 Z M35.0595703,49.5351562 C35.0595703,49.2910144 35.0982255,49.0631521 35.1755371,48.8515625 C35.2528487,48.6399729 35.3647454,48.4548348 35.5112305,48.2961426 C35.6577156,48.1374504 35.8408192,48.0133468 36.0605469,47.9238281 C36.2802745,47.8343094 36.5366196,47.7895508 36.8295898,47.7895508 C37.1225601,47.7895508 37.3809396,47.8343094 37.6047363,47.9238281 C37.828533,48.0133468 38.0157056,48.1374504 38.1662598,48.2961426 C38.3168139,48.4548348 38.4307451,48.6399729 38.5080566,48.8515625 C38.5853682,49.0631521 38.6240234,49.2910144 38.6240234,49.5351562 C38.6240234,49.77116 38.5853682,49.9929189 38.5080566,50.2004395 C38.4307451,50.40796 38.3168139,50.5890292 38.1662598,50.7436523 C38.0157056,50.8982755 37.828533,51.0183101 37.6047363,51.1037598 C37.3809396,51.1892094 37.1225601,51.2319336 36.8295898,51.2319336 C36.5366196,51.2319336 36.2802745,51.1892094 36.0605469,51.1037598 C35.8408192,51.0183101 35.6577156,50.8982755 35.5112305,50.7436523 C35.3647454,50.5890292 35.2528487,50.40796 35.1755371,50.2004395 C35.0982255,49.9929189 35.0595703,49.77116 35.0595703,49.5351562 Z M57.2885742,44.2006836 C57.2885742,45.3318741 57.1583672,46.3348752 56.8979492,47.2097168 C56.6375312,48.0845584 56.263186,48.8210419 55.7749023,49.4191895 C55.2866187,50.017337 54.6884801,50.4710271 53.9804688,50.7802734 C53.2724574,51.0895198 52.4627324,51.2441406 51.5512695,51.2441406 C50.6479447,51.2441406 49.8402542,51.0895198 49.1281738,50.7802734 C48.4160934,50.4710271 47.8118514,50.017337 47.3154297,49.4191895 C46.8190079,48.8210419 46.4385593,48.0845584 46.1740723,47.2097168 C45.9095853,46.3348752 45.7773438,45.3318741 45.7773438,44.2006836 L45.7773438,40.0380859 C45.7773438,38.9068954 45.9075508,37.9038943 46.1679688,37.0290527 C46.4283867,36.1542111 46.8047664,35.4156931 47.2971191,34.8134766 C47.7894719,34.21126 48.3916794,33.7535009 49.1037598,33.4401855 C49.8158401,33.1268702 50.6235306,32.9702148 51.5268555,32.9702148 C52.4383184,32.9702148 53.2500778,33.1268702 53.9621582,33.4401855 C54.6742386,33.7535009 55.2764461,34.21126 55.7687988,34.8134766 C56.2611516,35.4156931 56.6375312,36.1542111 56.8979492,37.0290527 C57.1583672,37.9038943 57.2885742,38.9068954 57.2885742,40.0380859 L57.2885742,44.2006836 Z M48.0478516,43.7490234 L54.9692383,38.4389648 C54.8390293,37.2589459 54.4952014,36.3617381 53.9377441,35.7473145 C53.3802869,35.1328908 52.5766654,34.8256836 51.5268555,34.8256836 C50.3386985,34.8256836 49.4618355,35.2264771 48.8962402,36.0280762 C48.330645,36.8296752 48.0478516,37.999504 48.0478516,39.5375977 L48.0478516,43.7490234 Z M55.0180664,40.5996094 L48.1088867,45.8852539 C48.2472338,47.0327206 48.6012341,47.9075491 49.1708984,48.5097656 C49.7405627,49.1119822 50.5340118,49.4130859 51.5512695,49.4130859 C52.7475646,49.4130859 53.6244276,49.006189 54.1818848,48.1923828 C54.739342,47.3785767 55.0180664,46.2067134 55.0180664,44.6767578 L55.0180664,40.5996094 Z M72.0712891,37.8652344 C72.063151,38.7522831 71.8230818,39.5416632 71.3510742,40.2333984 C70.8790667,40.9251337 70.2483763,41.4663066 69.4589844,41.8569336 C69.9147158,42.0522471 70.3277162,42.2943508 70.697998,42.583252 C71.0682798,42.8721531 71.3856595,43.2037742 71.6501465,43.578125 C71.9146335,43.9524758 72.118082,44.3593728 72.260498,44.7988281 C72.4029141,45.2382834 72.4741211,45.706215 72.4741211,46.2026367 C72.4741211,47.0083048 72.3256037,47.7244435 72.0285645,48.3510742 C71.7315252,48.977705 71.3286972,49.5046365 70.8200684,49.9318848 C70.3114395,50.359133 69.7153354,50.6846506 69.0317383,50.9084473 C68.3481411,51.132244 67.6157266,51.2441406 66.8344727,51.2441406 C66.0369426,51.2441406 65.2943557,51.1342784 64.6066895,50.9145508 C63.9190233,50.6948231 63.3208847,50.37134 62.8122559,49.9440918 C62.303627,49.5168436 61.9028335,48.989912 61.6098633,48.3632812 C61.3168931,47.7366505 61.1704102,47.0164429 61.1704102,46.2026367 C61.1704102,45.706215 61.2395826,45.236249 61.3779297,44.7927246 C61.5162767,44.3492003 61.7156562,43.9423033 61.9760742,43.5720215 C62.2364922,43.2017397 62.5498029,42.8701187 62.9160156,42.5771484 C63.2822284,42.2841782 63.6931943,42.04004 64.1489258,41.8447266 C63.7582988,41.6494131 63.4042985,41.4154473 63.0869141,41.1428223 C62.7695297,40.8701972 62.5009777,40.5650245 62.28125,40.2272949 C62.0615223,39.8895654 61.8906256,39.5213236 61.7685547,39.1225586 C61.6464838,38.7237936 61.5854492,38.3046897 61.5854492,37.8652344 C61.5854492,37.0921185 61.7156562,36.4024282 61.9760742,35.7961426 C62.2364922,35.189857 62.596596,34.6792013 63.0563965,34.2641602 C63.516197,33.849119 64.0655079,33.5317394 64.7043457,33.3120117 C65.3431835,33.0922841 66.0410118,32.9824219 66.7978516,32.9824219 C67.5465532,32.9824219 68.242347,33.0922841 68.8852539,33.3120117 C69.5281608,33.5317394 70.0856096,33.849119 70.5576172,34.2641602 C71.0296248,34.6792013 71.399901,35.189857 71.668457,35.7961426 C71.9370131,36.4024282 72.0712891,37.0921185 72.0712891,37.8652344 Z M70.2158203,46.1538086 C70.2158203,45.6573868 70.1324064,45.2016622 69.9655762,44.7866211 C69.7987459,44.37158 69.5647802,44.0155451 69.2636719,43.7185059 C68.9625636,43.4214666 68.6024598,43.1915698 68.1833496,43.0288086 C67.7642394,42.8660474 67.3064803,42.784668 66.8100586,42.784668 C66.2973607,42.784668 65.8334982,42.8660474 65.418457,43.0288086 C65.0034159,43.1915698 64.6494155,43.4214666 64.3564453,43.7185059 C64.0634751,44.0155451 63.8376473,44.37158 63.6789551,44.7866211 C63.5202629,45.2016622 63.440918,45.6573868 63.440918,46.1538086 C63.440918,46.6665065 63.5202629,47.1242656 63.6789551,47.5270996 C63.8376473,47.9299337 64.0634751,48.2696926 64.3564453,48.5463867 C64.6494155,48.8230808 65.0054504,49.0346672 65.4245605,49.1811523 C65.8436707,49.3276375 66.3136367,49.4008789 66.8344727,49.4008789 C67.3308944,49.4008789 67.786619,49.3276375 68.2016602,49.1811523 C68.6167013,49.0346672 68.9727361,48.8230808 69.2697754,48.5463867 C69.5668146,48.2696926 69.7987459,47.9299337 69.9655762,47.5270996 C70.1324064,47.1242656 70.2158203,46.6665065 70.2158203,46.1538086 Z M69.8007812,37.9018555 C69.8007812,37.4542621 69.7255053,37.0432961 69.5749512,36.6689453 C69.424397,36.2945945 69.2168796,35.9711114 68.9523926,35.6984863 C68.6879056,35.4258613 68.3725604,35.2142748 68.0063477,35.0637207 C67.6401349,34.9131666 67.2373069,34.8378906 66.7978516,34.8378906 C66.3583962,34.8378906 65.9596372,34.9090976 65.6015625,35.0515137 C65.2434878,35.1939297 64.9342461,35.3994127 64.6738281,35.6679688 C64.4134102,35.9365248 64.2119962,36.2600079 64.0695801,36.6384277 C63.927164,37.0168476 63.855957,37.437986 63.855957,37.9018555 C63.855957,38.365725 63.927164,38.7827944 64.0695801,39.1530762 C64.2119962,39.523358 64.4154446,39.8407376 64.6799316,40.1052246 C64.9444186,40.3697116 65.2577293,40.5731601 65.619873,40.7155762 C65.9820168,40.8579922 66.3828103,40.9291992 66.8222656,40.9291992 C67.2535829,40.9291992 67.6523419,40.8579922 68.0185547,40.7155762 C68.3847675,40.5731601 68.7001126,40.3697116 68.9645996,40.1052246 C69.2290866,39.8407376 69.4345696,39.5213235 69.5810547,39.1469727 C69.7275398,38.7726218 69.8007812,38.3575869 69.8007812,37.9018555 Z M85.2915039,45.0307617 L87.7695312,45.0307617 L87.7695312,46.8740234 L85.2915039,46.8740234 L85.2915039,51 L83.0332031,51 L83.0332031,46.8740234 L74.9277344,46.8740234 L74.9277344,45.543457 L82.8867188,33.2265625 L85.2915039,33.2265625 L85.2915039,45.0307617 Z M77.4301758,45.0307617 L83.0332031,45.0307617 L83.0332031,36.2294922 L82.6669922,36.9130859 L77.4301758,45.0307617 Z" id="$0.084"></path>
                    <path d="M36.1113281,3.15527344 L30.6181641,3.15527344 L30.6181641,19 L28.4208984,19 L28.4208984,3.15527344 L22.9277344,3.15527344 L22.9277344,1.2265625 L36.1113281,1.2265625 L36.1113281,3.15527344 Z M50.6254883,16.668457 C49.8767866,17.5473677 49.018234,18.1984028 48.0498047,18.621582 C47.0813754,19.0447612 46.0193743,19.2522787 44.8637695,19.2441406 C44.131344,19.2360026 43.4579295,19.1241059 42.8435059,18.9084473 C42.2290822,18.6927886 41.6777368,18.3957538 41.1894531,18.017334 C40.7011694,17.6389141 40.2739276,17.1933619 39.9077148,16.6806641 C39.5415021,16.1679662 39.2342949,15.6125518 38.986084,15.0144043 C38.7378731,14.4162568 38.5507005,13.7896354 38.4245605,13.1345215 C38.2984206,12.4794075 38.2312826,11.8182 38.2231445,11.1508789 L38.2231445,9.08789062 C38.2312826,8.42870764 38.2902827,7.77156903 38.4001465,7.11645508 C38.5100103,6.46134113 38.6788726,5.8326853 38.9067383,5.23046875 C39.134604,4.6282522 39.4194319,4.06876886 39.7612305,3.55200195 C40.1030291,3.03523505 40.5119605,2.58764838 40.9880371,2.20922852 C41.4641137,1.83080865 42.0032522,1.53173938 42.6054688,1.31201172 C43.2076853,1.09228406 43.8831343,0.982421875 44.6318359,0.982421875 C45.4619182,0.982421875 46.2268845,1.11059442 46.9267578,1.36694336 C47.6266311,1.6232923 48.2369766,1.98949957 48.7578125,2.46557617 C49.2786484,2.94165277 49.6977523,3.5153775 50.0151367,4.18676758 C50.3325211,4.85815765 50.5278317,5.60888257 50.6010742,6.43896484 L48.3671875,6.43896484 C48.2776688,5.92626697 48.1393239,5.45223199 47.9521484,5.0168457 C47.764973,4.58145941 47.5188004,4.20914868 47.213623,3.89990234 C46.9084457,3.59065601 46.5442729,3.34855231 46.1210938,3.17358398 C45.6979146,2.99861566 45.2055692,2.91113281 44.644043,2.91113281 C44.1069309,2.91113281 43.6308615,3.00268463 43.2158203,3.18579102 C42.8007792,3.3688974 42.4386409,3.61507007 42.1293945,3.92431641 C41.8201482,4.23356274 41.5638031,4.59366656 41.3603516,5.00463867 C41.1569,5.41561078 40.9900723,5.84895605 40.8598633,6.3046875 C40.7296543,6.76041895 40.636068,7.22428149 40.5791016,7.69628906 C40.5221351,8.16829663 40.4936523,8.62402124 40.4936523,9.06347656 L40.4936523,11.1508789 C40.5017904,11.5984723 40.5404456,12.0603004 40.6096191,12.536377 C40.6787927,13.0124536 40.7866204,13.4783506 40.9331055,13.934082 C41.0795906,14.3898135 41.2667632,14.8211243 41.4946289,15.2280273 C41.7224946,15.6349304 41.9971501,15.9929998 42.3186035,16.3022461 C42.6400569,16.6114924 43.0123677,16.8576651 43.4355469,17.0407715 C43.8587261,17.2238779 44.3388645,17.3194987 44.8759766,17.3276367 C45.1852229,17.3357748 45.508706,17.3235679 45.8464355,17.2910156 C46.1841651,17.2584634 46.5117172,17.1933599 46.8291016,17.0957031 C47.146486,16.9980464 47.4435208,16.8658049 47.7202148,16.6989746 C47.9969089,16.5321443 48.2288402,16.3144545 48.4160156,16.0458984 L48.4404297,12.0541992 L44.8271484,12.0541992 L44.8271484,10.1499023 L50.5888672,10.1499023 L50.6254883,16.668457 Z M63.9067383,10.784668 L56.4848633,10.784668 L56.4848633,17.0834961 L65.1396484,17.0834961 L65.1396484,19 L54.2265625,19 L54.2265625,1.2265625 L65.0297852,1.2265625 L65.0297852,3.15527344 L56.4848633,3.15527344 L56.4848633,8.86816406 L63.9067383,8.86816406 L63.9067383,10.784668 Z" id="TGE"></path>
                </g>
                <path d="M47.9035645,278.019531 L47.9035645,288 L44.7419434,288 L44.7419434,263.117188 L52.8083496,263.117188 C53.9248917,263.139974 54.9816031,263.316567 55.9785156,263.646973 C56.9754282,263.977378 57.8498498,264.455889 58.6018066,265.08252 C59.3537635,265.70915 59.9490538,266.483882 60.3876953,267.406738 C60.8263368,268.329594 61.0456543,269.389154 61.0456543,270.585449 C61.0456543,271.781744 60.8263368,272.838456 60.3876953,273.755615 C59.9490538,274.672775 59.3537635,275.444658 58.6018066,276.071289 C57.8498498,276.69792 56.9754282,277.176431 55.9785156,277.506836 C54.9816031,277.837241 53.9248917,278.008138 52.8083496,278.019531 L47.9035645,278.019531 Z M47.9035645,275.421875 L52.8083496,275.421875 C53.5375199,275.410482 54.2097137,275.293702 54.8249512,275.071533 C55.4401886,274.849364 55.975665,274.533205 56.4313965,274.123047 C56.8871279,273.712889 57.2431628,273.21444 57.4995117,272.627686 C57.7558607,272.040931 57.8840332,271.371586 57.8840332,270.619629 C57.8840332,269.867672 57.7558607,269.189782 57.4995117,268.585938 C57.2431628,267.982093 56.8899762,267.469403 56.4399414,267.047852 C55.9899066,266.6263 55.4544302,266.301596 54.8334961,266.07373 C54.212562,265.845865 53.5375199,265.726237 52.8083496,265.714844 L47.9035645,265.714844 L47.9035645,275.421875 Z M73.6921387,277.848633 L68.7189941,277.848633 L68.7189941,288 L65.5744629,288 L65.5744629,263.117188 L72.8718262,263.117188 C74.0339414,263.139974 75.1276804,263.305174 76.1530762,263.612793 C77.1784719,263.920412 78.0756797,264.381833 78.8447266,264.99707 C79.6137734,265.612308 80.2176085,266.384191 80.65625,267.312744 C81.0948915,268.241297 81.314209,269.332188 81.314209,270.585449 C81.314209,271.394373 81.1974296,272.134925 80.9638672,272.807129 C80.7303048,273.479333 80.4084493,274.088864 79.998291,274.635742 C79.5881327,275.18262 79.0982288,275.666827 78.5285645,276.088379 C77.9589001,276.50993 77.3322788,276.868814 76.6486816,277.165039 L81.9294434,287.794922 L81.9123535,288 L78.579834,288 L73.6921387,277.848633 Z M68.7189941,275.250977 L72.9572754,275.250977 C73.6636591,275.239583 74.3301564,275.1285 74.9567871,274.917725 C75.5834178,274.706949 76.1331357,274.402183 76.605957,274.003418 C77.0787784,273.604653 77.4519029,273.117597 77.7253418,272.542236 C77.9987807,271.966875 78.135498,271.303226 78.135498,270.55127 C78.135498,269.75374 78.0044772,269.055911 77.7424316,268.457764 C77.4803861,267.859616 77.1158064,267.358319 76.6486816,266.953857 C76.1815569,266.549396 75.6261425,266.24463 74.9824219,266.039551 C74.3387012,265.834472 73.6351763,265.726237 72.8718262,265.714844 L68.7189941,265.714844 L68.7189941,275.250977 Z M100.147217,276.498535 L89.7565918,276.498535 L89.7565918,285.316895 L101.873291,285.316895 L101.873291,288 L86.5949707,288 L86.5949707,263.117188 L101.719482,263.117188 L101.719482,265.817383 L89.7565918,265.817383 L89.7565918,273.81543 L100.147217,273.81543 L100.147217,276.498535 Z M121.287354,278.412598 L108.213623,278.412598 L108.213623,275.814941 L121.287354,275.814941 L121.287354,278.412598 Z M141.504639,281.710938 C141.504639,280.947587 141.330894,280.303876 140.983398,279.779785 C140.635903,279.255694 140.188723,278.814211 139.641846,278.455322 C139.094968,278.096434 138.493981,277.797364 137.838867,277.558105 C137.183753,277.318846 136.554284,277.102377 135.950439,276.908691 C135.073156,276.623859 134.181645,276.282066 133.275879,275.883301 C132.370113,275.484536 131.544112,274.994632 130.797852,274.413574 C130.051591,273.832517 129.44206,273.146081 128.969238,272.354248 C128.496417,271.562415 128.26001,270.631027 128.26001,269.560059 C128.26001,268.48909 128.496417,267.532068 128.969238,266.688965 C129.44206,265.845862 130.060136,265.133792 130.823486,264.552734 C131.586836,263.971677 132.452713,263.530194 133.421143,263.228271 C134.389572,262.926349 135.363683,262.775391 136.343506,262.775391 C137.425868,262.775391 138.468338,262.954832 139.470947,263.313721 C140.473556,263.672609 141.362219,264.176755 142.136963,264.826172 C142.911706,265.475589 143.532631,266.261714 143.999756,267.18457 C144.466881,268.107426 144.711833,269.138503 144.734619,270.277832 L141.487549,270.277832 C141.396403,269.560055 141.219809,268.907799 140.957764,268.321045 C140.695718,267.734291 140.348228,267.230145 139.915283,266.808594 C139.482338,266.387042 138.9668,266.05949 138.368652,265.825928 C137.770505,265.592365 137.095463,265.475586 136.343506,265.475586 C135.739662,265.475586 135.150068,265.561034 134.574707,265.731934 C133.999346,265.902833 133.486656,266.159178 133.036621,266.500977 C132.586586,266.842775 132.227703,267.26432 131.959961,267.765625 C131.692219,268.26693 131.55835,268.847978 131.55835,269.508789 C131.569743,270.226566 131.752033,270.833249 132.105225,271.328857 C132.458416,271.824465 132.905596,272.243162 133.446777,272.584961 C133.987958,272.92676 134.574704,273.211587 135.207031,273.439453 C135.839359,273.667319 136.434649,273.866698 136.99292,274.037598 C137.608157,274.231284 138.229082,274.450601 138.855713,274.695557 C139.482344,274.940512 140.086179,275.222492 140.667236,275.541504 C141.248294,275.860516 141.789467,276.219399 142.290771,276.618164 C142.792076,277.016929 143.230711,277.469805 143.606689,277.976807 C143.982668,278.483808 144.276041,279.042071 144.486816,279.651611 C144.697592,280.261152 144.802979,280.936194 144.802979,281.676758 C144.802979,282.7933 144.555178,283.767411 144.05957,284.599121 C143.563962,285.430831 142.9231,286.122963 142.136963,286.675537 C141.350826,287.228111 140.462163,287.64396 139.470947,287.923096 C138.479731,288.202231 137.48853,288.341797 136.497314,288.341797 C135.392166,288.341797 134.30982,288.1709 133.250244,287.829102 C132.190669,287.487303 131.242192,286.994551 130.404785,286.35083 C129.567379,285.707109 128.88664,284.920984 128.362549,283.992432 C127.838458,283.063879 127.559326,282.007167 127.525146,280.822266 L130.755127,280.822266 C130.857667,281.597009 131.068439,282.283444 131.387451,282.881592 C131.706463,283.479739 132.116615,283.986733 132.61792,284.402588 C133.119225,284.818443 133.697425,285.131754 134.352539,285.342529 C135.007653,285.553305 135.722571,285.658691 136.497314,285.658691 C137.112552,285.658691 137.719235,285.581788 138.317383,285.427979 C138.91553,285.274169 139.448158,285.034914 139.915283,284.710205 C140.382408,284.385496 140.764077,283.975344 141.060303,283.479736 C141.356528,282.984128 141.504639,282.394535 141.504639,281.710938 Z M161.363037,281.557129 L153.057373,281.557129 L151.057861,288 L147.89624,288 L155.928467,263.117188 L158.577393,263.117188 L166.4729,288 L163.328369,288 L161.363037,281.557129 Z M153.911865,278.805664 L160.525635,278.805664 L157.244385,268.004883 L153.911865,278.805664 Z M174.060791,285.316895 L186.22876,285.316895 L186.22876,288 L170.89917,288 L170.89917,263.117188 L174.060791,263.117188 L174.060791,285.316895 Z M205.181396,276.498535 L194.790771,276.498535 L194.790771,285.316895 L206.907471,285.316895 L206.907471,288 L191.62915,288 L191.62915,263.117188 L206.753662,263.117188 L206.753662,265.817383 L194.790771,265.817383 L194.790771,273.81543 L205.181396,273.81543 L205.181396,276.498535 Z M77.9902344,322.591309 C78.0016277,321.55452 77.6228066,320.665857 76.8537598,319.925293 C76.084713,319.184729 74.8628013,318.541018 73.1879883,317.994141 C72.1284127,317.663735 71.171391,317.282066 70.3168945,316.849121 C69.4623981,316.416176 68.7303904,315.900638 68.1208496,315.30249 C67.5113088,314.704343 67.0413428,314.017908 66.7109375,313.243164 C66.3805322,312.468421 66.215332,311.574061 66.215332,310.560059 C66.215332,309.603023 66.3605943,308.737146 66.651123,307.962402 C66.9416518,307.187659 67.351804,306.512617 67.8815918,305.937256 C68.4113796,305.361895 69.0550906,304.897625 69.8127441,304.544434 C70.5703977,304.191242 71.4106399,303.957683 72.3334961,303.84375 L72.3334961,300.083984 L74.8798828,300.083984 L74.8798828,303.84375 C76.7939549,304.105796 78.2807564,304.911858 79.340332,306.261963 C80.3999076,307.612067 80.9353841,309.449207 80.9467773,311.773438 L77.8022461,311.773438 C77.8022461,311.010087 77.7082529,310.306562 77.5202637,309.662842 C77.3322745,309.019121 77.0588397,308.466555 76.6999512,308.005127 C76.3410627,307.543699 75.8995794,307.181967 75.3754883,306.919922 C74.8513971,306.657876 74.2532586,306.526855 73.5810547,306.526855 C72.2024671,306.526855 71.159997,306.885739 70.4536133,307.603516 C69.7472295,308.321293 69.3883464,309.289707 69.3769531,310.508789 C69.3769531,311.078453 69.468098,311.585447 69.6503906,312.029785 C69.8326832,312.474123 70.1203594,312.878579 70.5134277,313.243164 C70.9064961,313.607749 71.4134897,313.946694 72.0344238,314.26001 C72.6553579,314.573325 73.4044552,314.878091 74.2817383,315.174316 C75.3527072,315.527508 76.3154254,315.920571 77.1699219,316.353516 C78.0244183,316.78646 78.7478812,317.293454 79.340332,317.874512 C79.9327829,318.455569 80.3856592,319.127763 80.6989746,319.891113 C81.01229,320.654463 81.1689453,321.543126 81.1689453,322.557129 C81.1689453,323.548345 81.01229,324.437008 80.6989746,325.223145 C80.3856592,326.009281 79.944176,326.684323 79.3745117,327.248291 C78.8048474,327.812259 78.1127157,328.265135 77.2980957,328.606934 C76.4834757,328.948732 75.5805714,329.170898 74.5893555,329.273438 L74.5893555,332.554688 L72.0429688,332.554688 L72.0429688,329.290527 C71.1542924,329.199381 70.3026571,328.994305 69.4880371,328.675293 C68.6734172,328.356281 67.9528026,327.892012 67.3261719,327.282471 C66.6995411,326.67293 66.1982441,325.906743 65.8222656,324.983887 C65.4462872,324.061031 65.2583008,322.955898 65.2583008,321.668457 L68.4199219,321.668457 C68.4199219,322.625493 68.5623358,323.420163 68.847168,324.05249 C69.1320001,324.684818 69.4994281,325.188963 69.9494629,325.564941 C70.3994977,325.94092 70.9093396,326.208658 71.4790039,326.368164 C72.0486682,326.52767 72.6240205,326.607422 73.2050781,326.607422 C73.9456417,326.607422 74.612139,326.516277 75.2045898,326.333984 C75.7970407,326.151692 76.2983378,325.886802 76.7084961,325.539307 C77.1186544,325.191811 77.4348133,324.770266 77.6569824,324.274658 C77.8791515,323.77905 77.9902344,323.217939 77.9902344,322.591309 Z M102.086914,319.480957 C102.086914,321.064624 101.904624,322.468825 101.540039,323.693604 C101.175454,324.918382 100.651371,325.949459 99.9677734,326.786865 C99.2841763,327.624272 98.4467823,328.259438 97.4555664,328.692383 C96.4643505,329.125328 95.3307355,329.341797 94.0546875,329.341797 C92.7900327,329.341797 91.6592661,329.125328 90.6623535,328.692383 C89.665441,328.259438 88.8195022,327.624272 88.1245117,326.786865 C87.4295213,325.949459 86.8968931,324.918382 86.5266113,323.693604 C86.1563295,322.468825 85.9711914,321.064624 85.9711914,319.480957 L85.9711914,313.65332 C85.9711914,312.069654 86.1534812,310.665452 86.5180664,309.440674 C86.8826516,308.215896 87.4095831,307.18197 88.098877,306.338867 C88.7881708,305.495764 89.6312613,304.854901 90.6281738,304.41626 C91.6250864,303.977618 92.7558531,303.758301 94.0205078,303.758301 C95.2965559,303.758301 96.4330191,303.977618 97.4299316,304.41626 C98.4268442,304.854901 99.2699347,305.495764 99.9592285,306.338867 C100.648522,307.18197 101.175454,308.215896 101.540039,309.440674 C101.904624,310.665452 102.086914,312.069654 102.086914,313.65332 L102.086914,319.480957 Z M89.1499023,318.848633 L98.8398438,311.414551 C98.6575512,309.762524 98.1761921,308.506433 97.395752,307.64624 C96.6153119,306.786047 95.4902417,306.355957 94.0205078,306.355957 C92.357088,306.355957 91.1294799,306.917068 90.3376465,308.039307 C89.5458131,309.161545 89.1499023,310.799306 89.1499023,312.952637 L89.1499023,318.848633 Z M98.9082031,314.439453 L89.2353516,321.839355 C89.4290374,323.445809 89.9246379,324.670569 90.722168,325.513672 C91.519698,326.356775 92.6305267,326.77832 94.0546875,326.77832 C95.7295006,326.77832 96.9571087,326.208665 97.7375488,325.069336 C98.5179889,323.930007 98.9082031,322.289399 98.9082031,320.147461 L98.9082031,314.439453 Z M112.973145,326.949219 C112.973145,326.60742 113.027262,326.288413 113.135498,325.992188 C113.243734,325.695962 113.40039,325.436769 113.605469,325.2146 C113.810548,324.992431 114.066893,324.818686 114.374512,324.693359 C114.68213,324.568033 115.041014,324.505371 115.451172,324.505371 C115.86133,324.505371 116.223062,324.568033 116.536377,324.693359 C116.849692,324.818686 117.111734,324.992431 117.32251,325.2146 C117.533286,325.436769 117.692789,325.695962 117.801025,325.992188 C117.909262,326.288413 117.963379,326.60742 117.963379,326.949219 C117.963379,327.279624 117.909262,327.590086 117.801025,327.880615 C117.692789,328.171144 117.533286,328.424641 117.32251,328.641113 C117.111734,328.857586 116.849692,329.025634 116.536377,329.145264 C116.223062,329.264893 115.86133,329.324707 115.451172,329.324707 C115.041014,329.324707 114.68213,329.264893 114.374512,329.145264 C114.066893,329.025634 113.810548,328.857586 113.605469,328.641113 C113.40039,328.424641 113.243734,328.171144 113.135498,327.880615 C113.027262,327.590086 112.973145,327.279624 112.973145,326.949219 Z M144.09375,319.480957 C144.09375,321.064624 143.91146,322.468825 143.546875,323.693604 C143.18229,324.918382 142.658207,325.949459 141.974609,326.786865 C141.291012,327.624272 140.453618,328.259438 139.462402,328.692383 C138.471186,329.125328 137.337571,329.341797 136.061523,329.341797 C134.796869,329.341797 133.666102,329.125328 132.669189,328.692383 C131.672277,328.259438 130.826338,327.624272 130.131348,326.786865 C129.436357,325.949459 128.903729,324.918382 128.533447,323.693604 C128.163165,322.468825 127.978027,321.064624 127.978027,319.480957 L127.978027,313.65332 C127.978027,312.069654 128.160317,310.665452 128.524902,309.440674 C128.889487,308.215896 129.416419,307.18197 130.105713,306.338867 C130.795007,305.495764 131.638097,304.854901 132.63501,304.41626 C133.631922,303.977618 134.762689,303.758301 136.027344,303.758301 C137.303392,303.758301 138.439855,303.977618 139.436768,304.41626 C140.43368,304.854901 141.276771,305.495764 141.966064,306.338867 C142.655358,307.18197 143.18229,308.215896 143.546875,309.440674 C143.91146,310.665452 144.09375,312.069654 144.09375,313.65332 L144.09375,319.480957 Z M131.156738,318.848633 L140.84668,311.414551 C140.664387,309.762524 140.183028,308.506433 139.402588,307.64624 C138.622148,306.786047 137.497078,306.355957 136.027344,306.355957 C134.363924,306.355957 133.136316,306.917068 132.344482,308.039307 C131.552649,309.161545 131.156738,310.799306 131.156738,312.952637 L131.156738,318.848633 Z M140.915039,314.439453 L131.242188,321.839355 C131.435873,323.445809 131.931474,324.670569 132.729004,325.513672 C133.526534,326.356775 134.637363,326.77832 136.061523,326.77832 C137.736336,326.77832 138.963945,326.208665 139.744385,325.069336 C140.524825,323.930007 140.915039,322.289399 140.915039,320.147461 L140.915039,314.439453 Z M150.60498,316.524414 L151.852539,304.117188 L164.618652,304.117188 L164.618652,307.193359 L154.518555,307.193359 L153.817871,313.824219 C154.307782,313.539387 154.894528,313.288738 155.578125,313.072266 C156.261722,312.855793 157.053544,312.747559 157.953613,312.747559 C159.104335,312.747559 160.135412,312.946938 161.046875,313.345703 C161.958338,313.744468 162.73307,314.305579 163.371094,315.029053 C164.009118,315.752526 164.499022,316.626948 164.84082,317.652344 C165.182619,318.67774 165.353516,319.817051 165.353516,321.070312 C165.353516,322.255214 165.194012,323.35465 164.875,324.368652 C164.555988,325.382655 164.074629,326.257076 163.430908,326.991943 C162.787188,327.72681 161.975428,328.302163 160.995605,328.718018 C160.015783,329.133873 158.865078,329.341797 157.543457,329.341797 C156.529455,329.341797 155.572433,329.199383 154.672363,328.914551 C153.772294,328.629719 152.971927,328.202477 152.27124,327.632812 C151.570553,327.063148 150.995201,326.345382 150.545166,325.479492 C150.095131,324.613602 149.813152,323.605312 149.699219,322.45459 L152.707031,322.45459 C152.900717,323.867357 153.421952,324.93831 154.270752,325.66748 C155.119552,326.396651 156.210443,326.76123 157.543457,326.76123 C158.295414,326.76123 158.961911,326.627361 159.542969,326.359619 C160.124026,326.091877 160.611082,325.710208 161.00415,325.2146 C161.397219,324.718992 161.69344,324.123701 161.892822,323.428711 C162.092205,322.73372 162.191895,321.958989 162.191895,321.104492 C162.191895,320.329749 162.080812,319.606286 161.858643,318.934082 C161.636473,318.261878 161.314618,317.677981 160.893066,317.182373 C160.471515,316.686765 159.953128,316.296551 159.337891,316.011719 C158.722653,315.726887 158.01628,315.584473 157.21875,315.584473 C156.694659,315.584473 156.241783,315.6215 155.860107,315.695557 C155.478432,315.769613 155.133791,315.874999 154.826172,316.011719 C154.518553,316.148438 154.230877,316.313638 153.963135,316.507324 C153.695393,316.70101 153.419109,316.923176 153.134277,317.173828 L150.60498,316.524414 Z M185.741699,329 L169.437988,329 L169.437988,326.727051 L177.589844,317.669434 C178.319014,316.86051 178.928546,316.142744 179.418457,315.516113 C179.908368,314.889483 180.301431,314.311282 180.597656,313.781494 C180.893882,313.251706 181.104654,312.750409 181.22998,312.277588 C181.355307,311.804767 181.417969,311.317711 181.417969,310.816406 C181.417969,310.201169 181.318279,309.622968 181.118896,309.081787 C180.919514,308.540606 180.62899,308.07064 180.247314,307.671875 C179.865639,307.27311 179.404218,306.956951 178.863037,306.723389 C178.321856,306.489826 177.709476,306.373047 177.025879,306.373047 C176.194169,306.373047 175.473554,306.492675 174.864014,306.731934 C174.254473,306.971193 173.747479,307.310138 173.343018,307.748779 C172.938556,308.187421 172.636638,308.720049 172.437256,309.34668 C172.237873,309.97331 172.138184,310.673987 172.138184,311.44873 L168.959473,311.44873 C168.959473,310.400548 169.141762,309.412195 169.506348,308.483643 C169.870933,307.55509 170.397864,306.74333 171.087158,306.04834 C171.776452,305.353349 172.619543,304.800783 173.616455,304.390625 C174.613368,303.980467 175.749831,303.775391 177.025879,303.775391 C178.199387,303.775391 179.256099,303.949136 180.196045,304.296631 C181.135991,304.644126 181.930661,305.125485 182.580078,305.740723 C183.229495,306.35596 183.727944,307.085119 184.075439,307.928223 C184.422935,308.771326 184.59668,309.688472 184.59668,310.679688 C184.59668,311.420251 184.471355,312.152259 184.220703,312.875732 C183.970051,313.599206 183.631106,314.314124 183.203857,315.020508 C182.776609,315.726892 182.281009,316.42472 181.717041,317.114014 C181.153073,317.803307 180.557783,318.489743 179.931152,319.17334 L173.249023,326.419434 L185.741699,326.419434 L185.741699,329 Z" id="PRE-SALE-$0.052" fill="#FFFFFF"></path>
            </g>
        </g>
    </g>
</svg>