<?xml version="1.0" encoding="UTF-8"?>
<svg width="52px" height="53px" viewBox="0 0 52 53" version="1.1" xmlns="http://www.w3.org/2000/svg" xmlns:xlink="http://www.w3.org/1999/xlink">
    <!-- Generator: Sketch 49.3 (51167) - http://www.bohemiancoding.com/sketch -->
    <title>500</title>
    <desc>Created with Sketch.</desc>
    <defs></defs>
    <g id="Page-1" stroke="none" stroke-width="1" fill="none" fill-rule="evenodd">
        <g id="mainPageQuartz-Copy-2" transform="translate(-725.000000, -9324.000000)" fill="#FFFFFF" fill-rule="nonzero">
            <g id="partners" transform="translate(0.000000, 8660.000000)">
                <g id="Group-6" transform="translate(604.000000, 626.000000)">
                    <g id="500" transform="translate(120.976134, 38.469945)">
                        <path d="M51.5928037,0.222806065 L51.5928037,51.6395903 L0.188482511,51.6395903 C0.204474967,39.909708 0.220467422,28.1798256 0.236459878,16.4499432 C0.236459878,11.0408975 0.205617285,5.63185177 0.188482511,0.222806065 L51.5928037,0.222806065 Z M48.1898377,3.71229182 L3.67712245,3.71229182 L3.67712245,48.1706713 L48.1898377,48.1706713 L48.1898377,3.71229182 Z" id="Shape"></path>
                        <path d="M31.1510187,25.9928983 C31.2229847,33.1912481 28.8892285,32.3925741 23.4986287,32.3171628 C21.7851513,32.2931683 20.6302676,31.2888271 20.5171781,29.5749343 C20.3092159,27.1410726 20.3092159,24.6939016 20.5171781,22.2600398 C20.750211,20.0594014 21.88796,19.4972446 24.8522758,19.4835335 C29.46153,19.4629667 30.21546,19.778323 30.746638,22.2531842 C31.0139405,23.4803315 31.0242213,24.7486122 31.1510187,25.9928983 Z M27.9810855,26.0717374 L28.0564785,26.0717374 C27.9845125,25.0434017 27.9879394,24.015066 27.8234456,23.0210082 C27.5595701,21.3859545 26.202496,21.9926725 25.2258139,21.8864112 C24.30739,21.7972887 23.4437974,21.9789614 23.4232357,23.1478363 C23.3889662,25.0125517 23.3718314,26.8841226 23.4814939,28.7454102 C23.5979021,29.2563624 23.9559872,29.6784936 24.4410413,29.8765795 C26.9906956,30.5621366 27.867996,29.8765795 27.9810855,27.2646068 C27.9947933,26.8669837 27.9810855,26.4693605 27.9810855,26.0717374 Z" id="Shape"></path>
                        <path d="M31.733601,25.8557869 C31.6856236,20.0731126 32.3984302,19.3704165 38.1934107,19.4801057 C41.1508726,19.5349502 42.1309817,20.3199131 42.3708685,23.2506699 C42.532152,25.2357676 42.5046127,27.2316993 42.2886216,29.211589 C42.0418809,31.4533608 40.9966597,32.2451793 38.7417234,32.3411573 C37.943243,32.3754352 37.1447625,32.3411573 36.3428551,32.3411573 C33.015282,32.3651518 31.9220835,31.3608106 31.733601,28.0529975 C31.6993314,27.3400181 31.733601,26.5961886 31.733601,25.8557869 Z M39.4648109,25.9140593 L39.5367769,25.9140593 C39.4750918,25.0605407 39.4065527,24.2001665 39.3551483,23.3569312 C39.2420588,21.4339435 37.7787492,21.985817 36.6718428,21.8829834 C35.4587008,21.7630109 34.8418489,22.3114566 34.834995,23.5351761 C34.834995,25.0194072 34.834995,26.5036384 34.8007255,27.9912974 C34.7664559,29.4789563 35.4072965,30.0068353 36.8568983,29.9828408 C39.0981267,29.9519907 39.2866092,29.8560127 39.4511031,27.6348077 C39.4990804,27.0555119 39.4648109,26.4830717 39.4648109,25.9140593 Z" id="Shape"></path>
                        <path d="M11.9292295,28.1935367 C12.4741153,29.948563 13.6427069,30.4661586 15.6200597,29.9657019 C17.0079764,29.6229233 16.5453375,28.4540484 16.586461,27.5662519 C16.6275844,26.6784555 16.1512377,26.174571 15.2156791,26.2808323 C14.3163413,26.3297381 13.4224245,26.4512486 12.5426544,26.6441776 C10.6612562,27.1754844 9.48238379,26.318538 9.62974284,24.4538226 C9.75311322,22.8770412 9.82850622,21.2934043 9.92788791,19.6069337 L18.9819024,19.6069337 L18.9819024,21.84185 L12.5186657,21.84185 L12.2102398,24.303 C13.3205731,24.1727442 14.3212439,23.9602215 15.3219147,23.9602215 C16.7166853,23.9327992 18.406174,23.6174429 19.0607223,25.2764912 C19.8283602,27.2200456 19.9585845,29.3452727 18.8688128,31.2065603 C18.5021287,31.8304173 17.3746606,32.169768 16.5419106,32.313735 C15.4350042,32.5022632 14.2698396,32.3685796 13.1149558,32.3754352 C10.0958087,32.3754352 9.43440642,31.7481504 9.32131692,28.4163428 L11.9292295,28.1935367 Z" id="Shape"></path>
                    </g>
                </g>
            </g>
        </g>
    </g>
</svg>