<?xml version="1.0" encoding="UTF-8"?>
<svg width="205px" height="29px" viewBox="0 0 205 29" version="1.1" xmlns="http://www.w3.org/2000/svg" xmlns:xlink="http://www.w3.org/1999/xlink">
    <!-- Generator: Sketch 49.3 (51167) - http://www.bohemiancoding.com/sketch -->
    <title>bitsclub</title>
    <desc>Created with Sketch.</desc>
    <defs></defs>
    <g id="Page-1" stroke="none" stroke-width="1" fill="none" fill-rule="evenodd">
        <g id="mainPageQuartz-Copy-2" transform="translate(-1472.000000, -9127.000000)" fill-rule="nonzero">
            <g id="partners" transform="translate(0.000000, 8660.000000)">
                <g id="Group-4" transform="translate(1428.000000, 418.000000)">
                    <g id="bitsclub" transform="translate(44.054893, 49.661202)">
                        <path d="M204.609731,15.5575956 C203.607513,18.6814052 201.8733,21.1394848 198.504071,21.9963986 C195.025384,22.8806245 191.786134,22.3651106 189.227572,19.698777 C186.867401,17.2406974 186.54245,14.2739318 187.797787,11.1637783 C189.053125,8.05362477 192.873865,6.00863908 196.633037,6.38417903 C200.679533,6.79727296 203.539102,9.1802446 204.281359,12.7615301 C204.336088,13.03465 204.312144,13.331668 204.623413,13.4921259 L204.609731,15.5575956 Z M199.174496,14.4480458 C199.19844,12.2357741 197.758393,10.5526724 195.812107,10.5219464 C193.865821,10.4912204 192.33,12.2289461 192.33342,14.3865938 C192.336841,16.5442415 193.893186,18.2409992 195.839472,18.2205152 C197.727609,18.2034452 199.150552,16.5920375 199.174496,14.4480458 Z" id="Shape" fill="#F9D13D"></path>
                        <path d="M0.0376259159,13.9973979 C0.0376259159,9.8493885 0.071831294,5.69796513 0.0136821512,1.54995576 C0.0136821512,0.443819932 0.321530554,0.085349987 1.45030803,0.102419984 C5.5549534,0.163871975 9.65959877,0.102419984 13.7642441,0.143387978 C21.3373149,0.235565964 25.0520189,7.99558678 21.2894273,13.328254 C20.8600476,13.8165585 20.8600476,14.5469492 21.2894273,15.0352537 C24.9391412,20.2757429 21.5049212,27.6397398 14.1370828,28.1006297 C9.82720513,28.3703357 5.48312211,28.1279417 1.13903909,28.1859797 C0.017102689,28.1859797 0.00342053781,27.6090138 0.00684107562,26.7964819 C0.0444669915,22.5323966 0.0376259159,18.2785532 0.0376259159,13.9973979 Z M10.8396843,10.9964923 L10.8396843,10.9555243 C11.9144305,11.0118474 12.9916174,11.0027265 14.0652515,10.9282123 C15.3479532,10.7711684 16.4185815,10.0610565 16.3741145,8.65448868 C16.3296475,7.2479209 15.2658602,6.44563102 13.8634397,6.39100703 C11.8795278,6.31589904 9.89219535,6.39100703 7.90828342,6.36028103 C7.22417585,6.36028103 6.93685068,6.60950299 6.85817831,7.33668488 C6.48191915,10.9247983 6.53664775,11.0135623 10.1555768,11.0135623 L10.8396843,10.9964923 Z M10.945721,17.2850794 L10.0803249,17.2850794 C6.63926389,17.2850794 6.65978712,17.2850794 6.85133723,20.6649388 C6.89922476,21.5935467 7.26522231,21.8086287 8.08957192,21.7915587 C10.0187552,21.7540047 11.9479386,21.8120427 13.8771219,21.7608327 C15.3000656,21.7232787 16.510936,20.6683528 16.3877966,19.524663 C16.2407135,18.1590632 15.3308505,17.4182253 13.9934202,17.3123914 C12.9775204,17.2202134 11.9513591,17.2850794 10.945721,17.2850794 Z" id="Shape" fill="#FED43C"></path>
                        <path d="M45.2845001,28.1723237 C43.3553167,28.0186937 41.0156689,28.4215457 38.6965442,27.9265157 C35.3204734,27.2027479 33.021872,25.2977361 31.7357498,22.0646786 C29.0472071,15.3186157 26.871745,8.39161072 24.3097622,1.60116576 C23.8958771,0.501857923 23.9916522,0.136559979 25.288036,0.116075982 C30.7061679,0.0238979964 30.6924858,-0.00682799896 32.5327351,5.11417122 C34.243004,9.91425449 36.0353658,14.6972678 37.7456347,19.500765 C38.3202851,21.1121728 39.3293437,21.8291127 41.073818,21.7881447 C44.374637,21.7096227 47.6788765,21.8086287 50.9933777,21.7437627 C52.1153141,21.7232787 52.5120965,22.0646786 52.426583,23.1947125 C52.3068642,24.7719802 52.9054583,26.8135519 52.1187346,27.8138538 C51.2738618,28.8892636 49.1360256,28.0494197 47.5659988,28.1552537 C46.9331993,28.2098777 46.3038203,28.1723237 45.2845001,28.1723237 Z" id="Shape" fill="#FED53E"></path>
                        <path d="M168.738551,13.9803279 C171.399729,15.8034036 172.080416,17.7630393 170.852443,19.784127 C169.884431,21.3682227 168.245993,21.8598387 166.604135,21.9486027 C163.481184,22.1124746 160.34113,22.0168826 157.207918,22.0578506 C156.386989,22.0578506 156.304896,21.6106167 156.304896,20.9721988 C156.304896,16.5954515 156.304896,12.2175661 156.304896,7.83854281 C156.304896,7.2479209 156.280952,6.66754098 157.149769,6.70168098 C160.385597,6.82799896 163.64879,6.40466302 166.864096,6.96114494 C168.591468,7.25816289 170.021252,8.00924278 170.544595,9.8289045 C171.067937,11.6485662 170.202541,12.884434 168.738551,13.9803279 Z M163.405932,15.9433776 C162.721825,16.2472235 161.528057,15.3288577 161.298881,16.8753994 C161.018397,18.7769971 162.325042,18.5619152 163.436717,18.4663232 C164.486822,18.3775592 166.12868,18.7769971 166.077372,17.1382774 C166.036326,15.6839136 164.483402,16.0731095 163.405932,15.9433776 Z M163.207541,12.5635181 C163.997685,12.4030601 165.290649,12.870778 165.287228,11.5188342 C165.287228,9.93815249 163.867705,10.4946344 162.961262,10.3888004 C162.188221,10.3136924 161.374133,10.2010304 161.394656,11.4846942 C161.42202,12.973198 162.475546,12.4235441 163.210962,12.5635181 L163.207541,12.5635181 Z" id="Shape" fill="#F9D13D"></path>
                        <path d="M68.123431,13.9973979 C69.4916461,14.7518918 70.5178075,15.6292896 70.7914505,17.1041374 C71.1916534,19.2208171 69.8679053,21.0507208 67.4256413,21.6754827 C64.8465558,22.3377986 62.2093211,21.9827426 59.5994508,22.0168826 C55.7479252,22.0715066 55.7479252,22.0168826 55.7479252,18.2614832 C55.7479252,14.8474837 55.7479252,11.4334843 55.7479252,8.01948478 C55.7479252,7.44934686 55.5119081,6.65388499 56.5346489,6.67095498 C59.8286268,6.76996097 63.1397074,6.35003903 66.4165826,6.94407494 C68.1542159,7.25816289 69.5463747,8.07410877 70.0115679,9.90401249 C70.4630789,11.6485662 69.6353087,12.894676 68.123431,13.9973979 Z M62.7189813,18.5243612 C63.3380986,18.4492532 63.964057,18.3946292 64.5797538,18.2922092 C65.1954507,18.1897892 65.6709054,17.7562113 65.5751303,17.1212074 C65.4246267,16.1174915 64.548969,15.8819256 63.7451426,15.9980016 C62.7395045,16.1448035 61.4533823,15.2605777 60.7624337,16.7046995 C60.7498488,16.7595451 60.7441043,16.8157331 60.745331,16.8719854 C60.4409031,18.5960552 61.5423163,18.5823992 62.7189813,18.5380172 L62.7189813,18.5243612 Z M62.6368884,12.5566901 C63.3209959,12.3040541 64.7131548,12.969784 64.726837,11.4676243 C64.7405191,9.96546448 63.3996683,10.4434244 62.5308517,10.3785584 C61.7338664,10.3239344 60.7932185,10.0951965 60.8205828,11.5154202 C60.885573,12.86395 61.7851745,12.4679261 62.6368884,12.5703461 L62.6368884,12.5566901 Z" id="Shape" fill="#F9D13D"></path>
                        <path d="M153.996033,12.3245381 C153.893417,13.9700859 154.228629,15.9126516 153.626615,17.7869373 C152.638079,20.8902628 149.935854,22.5050846 145.926984,22.3582826 C142.475661,22.2319646 139.944463,20.3713349 139.304823,17.2987354 C138.620715,14.0451939 139.103011,10.7336144 138.993554,7.44934686 C138.993554,7.39130887 138.993554,7.31278689 138.993554,7.28206089 C140.259153,5.99839709 141.842862,6.94066094 143.258965,6.69485298 C144.155145,6.534395 144.254341,7.1864689 144.257762,7.8692688 C144.257762,10.4229404 144.288546,12.990268 144.319331,15.5336976 C144.319331,16.3428155 144.445891,17.1348634 145.157363,17.6674473 C145.789522,18.183105 146.658818,18.2993179 147.404656,17.9678793 C148.430818,17.5411293 148.800236,16.6603175 148.817338,15.6497736 C148.865226,13.150726 148.919955,10.6516784 148.837862,8.15604476 C148.796815,6.93041894 149.217541,6.64364299 150.387365,6.65047099 C153.982351,6.67436898 153.982351,6.62657299 153.982351,10.1668905 C153.996033,10.8018944 153.996033,11.4266563 153.996033,12.3245381 Z" id="Shape" fill="#F9D13D"></path>
                        <path d="M100.190973,22.3855946 C98.3697125,22.3698843 96.565987,22.0287912 94.8651956,21.3784647 C94.0169022,21.0575488 93.6543252,20.6342129 94.1810881,19.760229 C94.3531386,19.4650278 94.4908522,19.1511828 94.5915526,18.8247931 C95.0225404,17.4421233 95.6998068,16.8822274 97.1672176,17.7323133 C98.4328165,18.4629092 99.9036478,18.4321832 101.333433,18.3263492 C101.791785,18.2922092 102.287763,18.2171012 102.311706,17.6094093 C102.33223,17.1177934 101.932027,16.9266094 101.545506,16.8276034 C100.396205,16.5101015 99.2400635,16.2301535 98.0907628,15.9160656 C95.2961834,15.1513297 94.0887335,13.8403539 94.0682103,11.5802862 C94.0476871,9.25193859 95.5185183,7.46300286 98.0873422,6.74947697 C100.656166,6.03595108 103.149738,6.30224304 105.64331,7.09087692 C106.669472,7.41179287 107.032049,7.94096279 106.440296,8.95150664 C106.181159,9.39280359 105.979977,9.86553906 105.841701,10.3580744 C105.588582,11.2661983 105.061819,11.3413063 104.299039,11.0033203 C103.146908,10.497913 101.886177,10.2889754 100.632222,10.3956284 C100.071254,10.4365964 99.3871466,10.3956284 99.2640072,11.1398803 C99.1408679,11.8841322 99.8489192,12.0036222 100.385944,12.1435961 C101.702851,12.4849961 103.047122,12.7478741 104.343506,13.167796 C106.012728,13.6969659 107.250963,14.6904398 107.480139,16.5817955 C107.726418,18.5994692 106.949956,20.1289409 105.26021,21.2043508 C103.714127,22.1705126 101.983335,22.4129066 100.190973,22.3855946 Z" id="Shape" fill="#F9D13D"></path>
                        <path d="M117.064486,22.3924226 C113.873124,22.2626906 110.907518,20.9756128 109.453789,17.5650273 C108.147144,14.5094978 108.574711,11.5427322 110.873313,8.99588863 C113.818396,5.72527713 120.0814,5.47264117 123.330911,8.44282071 C124.052645,9.10513661 124.357073,9.62406453 123.330911,10.2556544 C122.948211,10.5092621 122.602829,10.8149157 122.30475,11.1637783 C121.531708,12.0070362 120.916012,12.3723341 119.818019,11.3754463 C118.466906,10.1498205 116.099894,10.4365964 114.98822,11.6588082 C113.804713,12.962956 113.78419,15.6907416 114.947173,17.0392714 C115.997278,18.2546552 118.347188,18.6916472 119.592263,17.5445433 C120.919432,16.3223315 121.617222,16.8788134 122.609178,17.8449753 C124.415222,19.603185 124.449427,19.685121 122.297909,21.0404788 C120.816816,21.9725007 119.178378,22.3685246 117.064486,22.3924226 Z" id="Shape" fill="#F9D13D"></path>
                        <path d="M37.7593169,17.0699974 C36.2702428,12.973198 34.7811686,8.88891664 33.2920945,4.81715327 C33.0389747,4.13435337 33.2920945,3.63590945 33.7675493,3.14429352 C35.3923047,1.41339578 37.3727961,0.290189956 39.7363877,0.211667968 C43.605016,0.0819359875 47.4839059,0.167285974 51.3662163,0.122903981 C52.197407,0.122903981 52.4539473,0.423335935 52.426583,1.21879781 C52.382116,2.58439761 52.3650133,3.9499974 52.426583,5.31559719 C52.4744705,6.27834504 52.019539,6.43197502 51.2020305,6.42514702 C47.9559401,6.39442103 44.7030086,6.40124902 41.4603388,6.42514702 C38.853889,6.42514702 38.1492582,7.17281291 38.1458377,9.78793651 C38.1458377,12.2141521 38.1458377,14.6415058 38.1458377,17.0699974 L37.7593169,17.0699974 Z" id="Shape" fill="#AF953E"></path>
                        <path d="M83.6013646,16.3871975 C83.6013646,14.9089357 83.5671592,13.430674 83.6013646,11.9489982 C83.6287289,11.0852563 83.3516653,10.6653344 82.4383818,10.7575124 C82.0450199,10.7984804 81.6345554,10.7097164 81.2446141,10.7575124 C79.5753916,11.0238043 79.0007413,10.4707364 79.0315261,8.67155868 C79.0623109,6.99528493 79.5240835,6.582191 81.148839,6.64022899 C84.6754135,6.76654697 88.2122496,6.75289097 91.7525062,6.64022899 C93.1720294,6.59584699 93.5824939,7.10111892 93.404626,8.38478272 C93.3595818,8.72470257 93.3595818,9.06906272 93.404626,9.40898257 C93.5380269,10.4570804 93.0967776,10.7745824 92.0569341,10.7745824 C88.9100393,10.8053084 88.9134598,10.8496903 88.9134598,14.0383659 C88.9134598,16.3120895 88.8860955,18.5858132 88.9134598,20.8663648 C88.9134598,21.7301067 88.6637606,22.0305386 87.7538975,22.0749206 C83.5876825,22.2729326 83.5876825,22.3036586 83.5876825,18.2512412 C83.5968039,17.6253413 83.6013646,17.0039934 83.6013646,16.3871975 Z" id="Shape" fill="#F9D241"></path>
                        <path d="M125.533738,14.2466198 C125.533738,12.1470101 125.571364,10.0439865 125.516635,7.94437679 C125.492691,6.98845693 125.807381,6.69485298 126.775393,6.66754098 C130.70217,6.554879 130.69875,6.52073901 130.69875,10.3683164 C130.69875,12.4679261 130.750058,14.5709498 130.678226,16.6705595 C130.640601,17.7323133 131.02028,18.0634712 132.046442,18.0088473 C133.465965,17.9371533 134.892329,18.0361593 136.311852,17.9747073 C137.242239,17.9371533 137.707432,18.2034452 137.601395,19.2071611 C137.541754,19.7152474 137.541754,20.2285465 137.601395,20.7366328 C137.738217,21.8086287 137.279864,22.1022326 136.250283,22.0646786 C133.121631,22.0055026 129.992979,22.0055026 126.864327,22.0646786 C125.817642,22.0851626 125.479009,21.7574187 125.496112,20.6990788 C125.574784,18.5619152 125.533738,16.3871975 125.533738,14.2466198 Z" id="Shape" fill="#F9D13D"></path>
                        <path d="M78.0190469,14.3797658 C78.0190469,16.5408275 77.9882621,18.7053031 78.0190469,20.8663648 C78.0361496,21.7301067 77.7830298,22.0339526 76.8697462,22.0749206 C72.8369321,22.2524486 72.8369321,22.2865886 72.8369321,18.2922092 C72.8369321,14.8782097 72.867717,11.4642103 72.8198294,8.05021077 C72.8198294,7.02601093 73.0763698,6.68461098 74.1504186,6.66412698 C78.0053647,6.59926099 78.0053647,6.558293 78.0053647,10.4536664 C78.0144862,11.7623662 78.0190469,13.071066 78.0190469,14.3797658 Z" id="Shape" fill="#F9D13D"></path>
                        <path d="M185.423934,14.4753578 C185.423934,16.5817955 185.382888,18.6848192 185.441037,20.7912568 C185.468401,21.7471767 185.167394,22.0441946 184.18912,22.0715066 C180.255501,22.1807546 180.255501,22.2148946 180.255501,18.3604892 C180.255501,14.9464897 180.296548,11.5324902 180.231558,8.11849076 C180.211035,7.00894093 180.535986,6.66754098 181.664763,6.66071298 C185.427355,6.64364299 185.427355,6.59926099 185.427355,10.3785584 C185.425074,11.7464342 185.423934,13.112034 185.423934,14.4753578 Z" id="Shape" fill="#F9D13D"></path>
                        <path d="M32.6285102,25.3421181 L21.5938552,25.3421181 C22.5037182,23.8160604 23.3041241,22.3855946 23.4648894,20.7263908 C23.4639714,20.4935155 23.5723177,20.273636 23.7576788,20.1321997 C23.9430399,19.9907633 24.1840447,19.944077 24.4089578,20.006037 C24.5218356,20.006037 24.6381338,20.006037 24.7510116,20.006037 C26.5878404,20.1938069 28.855657,19.2174031 30.1657229,20.4464429 C31.349229,21.5525787 31.5134148,23.6931564 32.6285102,25.3421181 Z" id="Shape" fill="#AF953E"></path>
                        <path d="M23.6256547,19.360791 C23.475151,18.7496851 23.4341045,18.6404372 23.4238429,18.5311892 C23.2938625,16.9573354 22.0556278,15.6634296 21.9119652,14.2910018 C21.7683026,12.918574 23.2117696,11.6622222 23.3998992,10.0815405 C23.604453,8.62001053 23.4602987,7.13092386 22.979173,5.73551913 C22.2403368,3.65980744 22.2300752,3.66322144 23.1946669,1.2973198 C24.2208282,2.97359355 24.4705275,4.85470726 25.3051387,6.47635701 C26.7212414,9.2075566 26.8443807,11.8943742 25.3803905,14.6699558 C24.6826008,15.9980016 24.3097622,17.4933333 23.6256547,19.360791 Z" id="Shape" fill="#AF953E"></path>
                        <path d="M175.47359,22.2831746 C173.862423,22.2795744 172.552483,20.9858215 172.531927,19.377861 C172.602883,17.8371873 173.870214,16.6217943 175.41544,16.6125215 C176.430956,16.602154 177.374873,17.1333095 177.891626,18.0059071 C178.40838,18.8785046 178.419463,19.9599757 177.920701,20.8429406 C177.421939,21.7259056 176.489105,22.2762211 175.47359,22.2865886 L175.47359,22.2831746 Z" id="Shape" fill="#F9D241"></path>
                    </g>
                </g>
            </g>
        </g>
    </g>
</svg>