<?xml version="1.0" encoding="UTF-8"?>
<svg width="127px" height="70px" viewBox="0 0 127 70" version="1.1" xmlns="http://www.w3.org/2000/svg" xmlns:xlink="http://www.w3.org/1999/xlink">
    <!-- Generator: Sketch 49.3 (51167) - http://www.bohemiancoding.com/sketch -->
    <title>BPSA</title>
    <desc>Created with Sketch.</desc>
    <defs>
        <filter x="-6.0%" y="-9.8%" width="111.9%" height="127.3%" filterUnits="objectBoundingBox" id="filter-1">
            <feOffset dx="0" dy="5" in="SourceAlpha" result="shadowOffsetOuter1"></feOffset>
            <feGaussianBlur stdDeviation="5" in="shadowOffsetOuter1" result="shadowBlurOuter1"></feGaussianBlur>
            <feColorMatrix values="0 0 0 0 0   0 0 0 0 0   0 0 0 0 0  0 0 0 0.5 0" type="matrix" in="shadowBlurOuter1" result="shadowMatrixOuter1"></feColorMatrix>
            <feMerge>
                <feMergeNode in="shadowMatrixOuter1"></feMergeNode>
                <feMergeNode in="SourceGraphic"></feMergeNode>
            </feMerge>
        </filter>
        <linearGradient x1="50%" y1="0%" x2="50%" y2="100%" id="linearGradient-2">
            <stop stop-color="#D520F4" offset="0%"></stop>
            <stop stop-color="#740DE2" offset="100%"></stop>
        </linearGradient>
        <linearGradient x1="25.6877301%" y1="51.5618771%" x2="96.3696817%" y2="64.0669591%" id="linearGradient-3">
            <stop stop-color="#830ACB" offset="0%"></stop>
            <stop stop-color="#400B8B" offset="100%"></stop>
        </linearGradient>
        <linearGradient x1="50%" y1="0%" x2="50%" y2="100%" id="linearGradient-4">
            <stop stop-color="#C240EE" offset="0%"></stop>
            <stop stop-color="#6113CE" offset="100%"></stop>
        </linearGradient>
        <linearGradient x1="50%" y1="0%" x2="50%" y2="100%" id="linearGradient-5">
            <stop stop-color="#53C4FA" offset="0%"></stop>
            <stop stop-color="#365DE6" offset="100%"></stop>
        </linearGradient>
        <linearGradient x1="25.6877301%" y1="51.5618771%" x2="96.3696817%" y2="64.0669591%" id="linearGradient-6">
            <stop stop-color="#50C7FC" offset="0%"></stop>
            <stop stop-color="#315AAE" offset="100%"></stop>
        </linearGradient>
        <linearGradient x1="50%" y1="0%" x2="50%" y2="100%" id="linearGradient-7">
            <stop stop-color="#4AB2F8" offset="0%"></stop>
            <stop stop-color="#527DEC" offset="100%"></stop>
        </linearGradient>
    </defs>
    <g id="Page-1" stroke="none" stroke-width="1" fill="none" fill-rule="evenodd">
        <g id="mainPageQuartz-Copy-2" transform="translate(-888.000000, -9528.000000)">
            <g id="partners" transform="translate(0.000000, 8660.000000)">
                <g id="Group-13" filter="url(#filter-1)" transform="translate(805.000000, 834.000000)">
                    <g id="BPSA" transform="translate(91.305489, 37.469945)">
                        <path d="M56.8442932,27.3905666 C58.8613978,29.212367 59.3793957,31.0341674 58.5012005,33.2611907 C57.5955618,35.5665344 55.6848012,36.2169341 53.4207043,36.2612022 C52.9636891,36.2350944 52.5055396,36.2350944 52.0485243,36.2612022 C50.9370586,36.4144377 50.8993236,35.7742537 50.8821714,34.936566 C50.8650191,34.0988783 51.0296807,33.6493874 51.9936371,33.7549497 C52.6207518,33.795288 53.2498394,33.795288 53.8769541,33.7549497 C55.4069348,33.7243026 56.1925078,32.9308829 56.2302427,31.4257693 C56.2679777,29.9206557 55.3657694,29.0421053 53.8049147,28.9195168 C53.3478616,28.8947488 52.8897878,28.8947488 52.4327347,28.9195168 C51.5476787,28.9501639 50.8272842,29.0557262 50.8444364,27.673201 C50.8615887,26.2906759 51.5305264,26.4132643 52.4395956,26.4132643 C55.2765777,26.4132643 56.4875265,25.391694 56.1684946,23.2940696 C55.9695285,22.0034858 55.2697168,21.250929 53.8941064,21.2270923 C52.5802441,21.2270923 51.2595209,21.2849813 49.9525195,21.1998504 C48.8925105,21.1283405 48.5974918,21.4790797 48.614644,22.5347023 C48.6763921,26.6209836 48.614644,30.7072649 48.6558094,34.7935462 C48.6558094,35.7674432 48.6215049,36.3395226 47.3282253,36.3156859 C46.0349457,36.2918493 46.1481506,35.6346391 46.151581,34.8105723 C46.151581,29.9308714 46.1996073,25.0511705 46.1309983,20.1680644 C46.1309983,19.000069 46.494626,18.7344607 47.59237,18.782134 C49.5305741,18.8672649 51.4790697,18.782134 53.4241347,18.8093759 C56.0861638,18.8332125 57.6984753,19.8002991 58.4840483,21.8059822 C59.2696213,23.8116652 58.7481929,25.6164395 56.8442932,27.3905666 Z" id="Shape" fill="#FFFDFD" fill-rule="nonzero"></path>
                        <path d="M63.0705597,27.455266 C63.0705597,25.0171182 63.1117251,22.5755651 63.049977,20.1374173 C63.0259639,19.1567098 63.2009168,18.6867875 64.3398262,18.7514869 C66.2197127,18.8570492 68.113321,18.724245 69.9932075,18.840023 C73.4236574,19.0545528 75.6362976,21.9660282 75.1628955,25.5108772 C74.960046,27.0532022 74.1372581,28.4484682 72.8817773,29.3791488 C71.6262964,30.3098293 70.044921,30.6967553 68.4975314,30.4518723 C67.4409529,30.2952315 67.8114414,29.6005637 67.7737065,29.0591314 C67.7359715,28.5176992 67.6502103,27.8604889 68.5558491,27.9115674 C68.7822587,27.9115674 69.0120989,27.9115674 69.241939,27.9115674 C71.3791093,27.8332471 72.6723889,26.655036 72.7101238,24.724268 C72.7615806,22.7253955 71.4237051,21.3905436 69.279674,21.3190336 C65.6159535,21.1726086 65.6159535,21.1726086 65.6159535,24.8570722 C65.6159535,28.2623066 65.5782186,31.667541 65.6399667,35.0727754 C65.6399667,36.0568881 65.3552393,36.3429278 64.3809916,36.3122807 C63.5027964,36.2850388 63.0088116,36.1965027 63.049977,35.1272591 C63.118586,32.5597124 63.0705597,30.0057866 63.0705597,27.455266 Z" id="Shape" fill="#FFFDFD" fill-rule="nonzero"></path>
                        <path d="M99.3715801,24.359908 C101.086805,26.1510613 100.678582,27.9728617 99.4127455,29.9002243 L104.489811,29.9002243 C103.560159,27.8332471 102.774586,25.8139431 101.745451,23.8865804 C100.808939,22.1431004 100.51735,20.5494507 102.088496,18.7787288 L109.885909,36.0160253 C108.030036,36.5676733 106.822517,36.1556399 106.404002,34.2487087 C106.08154,32.7810526 105.172471,32.2430256 103.687086,32.4507449 C102.950054,32.5580839 102.201187,32.5580839 101.464155,32.4507449 C99.172614,32.0931953 97.6906597,32.7912683 97.1452182,35.2021743 C96.8021732,36.7856083 95.4299932,36.1590452 94.4626064,36.1147771 C93.9617607,36.0909405 94.2567794,35.6108024 94.3871365,35.3213575 L99.3715801,24.359908 Z" id="Shape" fill="#FFFDFD" fill-rule="nonzero"></path>
                        <path d="M84.9465385,36.3940063 C82.5452236,36.244176 80.5178277,35.4167041 79.1765218,33.2918378 C78.7237024,32.5733333 78.751146,32.0761691 79.605328,31.6947829 C80.2433917,31.4087432 80.6893502,30.795801 81.3582879,31.8514236 C82.6961634,33.9694794 85.3341793,34.4938855 87.5056541,33.2782169 C88.4696105,32.7367846 89.1111046,31.9706068 89.0013302,30.8128271 C88.8984167,29.7435835 88.1299959,29.2055565 87.1660395,29.0727524 C85.5708804,28.8514121 86.0374215,27.6425539 86.17807,26.85935 C86.3495925,25.9126949 87.2072049,26.5188266 87.6874679,26.6618464 C90.14367,27.2815991 91.3649102,28.5789934 91.5364327,30.6289445 C91.7182465,32.801484 90.5930589,34.6471211 88.4490278,35.6346391 C87.35725,36.1556774 86.1577427,36.41574 84.9465385,36.3940063 Z" id="Shape" fill="#FFFDFD" fill-rule="nonzero"></path>
                        <path d="M85.5228541,18.5914409 C87.4885018,18.7310555 89.4198451,19.4427495 90.6410852,21.5539948 C91.2619967,22.6266437 90.6650984,22.9569514 89.8760949,23.4813575 C88.915569,24.1215416 88.7852119,23.4813575 88.4284451,22.8718205 C87.1969136,20.7878171 83.677272,20.423457 82.0203647,22.1907737 C80.9191903,23.3587691 81.1730436,25.1703538 82.7064547,25.6573023 C84.0546215,26.0795513 83.8933904,26.9070233 83.8899599,27.8604889 C83.8899599,28.5415358 83.5469149,28.5415358 83.0049039,28.4564049 C81.0598388,28.1771757 79.4509578,26.8968076 78.9878471,25.1975956 C78.4372231,23.2874062 79.1171028,21.2371141 80.703072,20.0250446 C81.8797163,19.115847 83.577789,18.57782 85.5228541,18.5914409 Z" id="Shape" fill="#FFFDFD" fill-rule="nonzero"></path>
                        <g id="Group" transform="translate(16.093979, 9.172563)">
                            <path d="M5.12097822,0.153346681 C8.77692241,0.301968341 18.7995444,9.53487348 21.1329166,16.1472608 C19.395539,16.1472608 15.7195499,16.1470731 10.1049492,16.1466975 C9.43963675,7.53349617 7.7783131,2.20237922 5.12097822,0.153346681 Z" id="Rectangle" fill="url(#linearGradient-2)"></path>
                            <path d="M2.65916605,1.69978159 C3.40027716,0.570966999 3.78675609,0.0438310625 5.13490202,0.155884456 C7.36909894,1.84927031 9.46146005,6.567897 10.1159534,16.3427492 C8.69211538,16.5189393 2.45851903,17.6448874 0.701144253,14.4936692 C-0.96565047,11.8202538 0.739597748,4.92735029 2.65916605,1.69978159 Z" id="Rectangle-3" fill="url(#linearGradient-3)"></path>
                            <path d="M10.1035846,16.144867 C11.5774035,16.144867 17.9599366,16.144867 21.1327091,16.144867 C25.3400425,26.8111241 8.16890603,41.4353029 4.28858947,43.2488364 C3.92963492,43.2488364 3.45580079,43.2488364 2.91399084,43.2488364 C3.23906473,39.2620661 5.76045298,39.0618785 8.45694651,30.4358982 C10.2627539,24.3691263 10.1259095,16.227826 10.1035846,16.144867 Z" id="Rectangle-2" fill="url(#linearGradient-4)"></path>
                        </g>
                        <g id="Group-Copy" transform="translate(11.954879, 22.587000) scale(-1, -1) translate(-11.954879, -22.587000) translate(0.954879, 0.587000)">
                            <path d="M5.12097822,0.153346681 C8.77692241,0.301968341 18.7995444,9.53487348 21.1329166,16.1472608 C19.395539,16.1472608 15.7195499,16.1470731 10.1049492,16.1466975 C9.43963675,7.53349617 7.7783131,2.20237922 5.12097822,0.153346681 Z" id="Rectangle" fill="url(#linearGradient-5)"></path>
                            <path d="M2.65916605,1.69978159 C3.40027716,0.570966999 3.78675609,0.0438310625 5.13490202,0.155884456 C7.36909894,1.84927031 9.46146005,6.567897 10.1159534,16.3427492 C8.69211538,16.5189393 2.45851903,17.6448874 0.701144253,14.4936692 C-0.96565047,11.8202538 0.739597748,4.92735029 2.65916605,1.69978159 Z" id="Rectangle-3" fill="url(#linearGradient-6)"></path>
                            <path d="M10.1035846,16.144867 C11.5774035,16.144867 17.9599366,16.144867 21.1327091,16.144867 C25.3400425,26.8111241 8.16890603,41.4353029 4.28858947,43.2488364 C3.92963492,43.2488364 3.45580079,43.2488364 2.91399084,43.2488364 C3.23906473,39.2620661 5.76045298,39.0618785 8.45694651,30.4358982 C10.2627539,24.3691263 10.1259095,16.227826 10.1035846,16.144867 Z" id="Rectangle-2" fill="url(#linearGradient-7)"></path>
                        </g>
                    </g>
                </g>
            </g>
        </g>
    </g>
</svg>