<?xml version="1.0" encoding="UTF-8"?>
<svg width="231px" height="41px" viewBox="0 0 231 41" version="1.1" xmlns="http://www.w3.org/2000/svg" xmlns:xlink="http://www.w3.org/1999/xlink">
    <!-- Generator: Sketch 49.1 (51147) - http://www.bohemiancoding.com/sketch -->
    <title>buzzFeed</title>
    <desc>Created with Sketch.</desc>
    <defs></defs>
    <g id="Page-1" stroke="none" stroke-width="1" fill="none" fill-rule="evenodd">
        <g id="mainPageQuartz" transform="translate(-287.000000, -2216.000000)" fill="#949494" fill-rule="nonzero">
            <g id="mainPage">
                <g id="press" transform="translate(287.000000, 2216.000000)">
                    <g id="buzzFeed">
                        <path d="M0,0.0235923247 C6.49234081,0.0320497238 12.9872556,-0.0653942224 19.4764709,0.0833456879 C24.4786547,0.198072145 28.3979238,3.59574031 29.2416413,8.23664614 C30.1965919,13.4901618 27.4707354,17.9758928 23.2655695,19.1796013 C23.1587489,19.2101215 23.0717848,19.3092201 22.9281928,19.4094219 C26.9364484,20.5568704 29.3289731,23.2099197 30.0026233,27.1847134 C31.1134843,33.7428748 27.4962915,39.1317089 20.6621614,39.8941618 C19.1464484,40.0629421 17.6073857,40.0587134 16.0788027,40.0666192 C10.7193857,40.095117 5.3596009,40.0941977 0,40.1044937 L0,0.0235923247 Z M8.6311435,32.452386 C8.74256054,32.4906282 8.85379372,32.5621484 8.96465919,32.5621484 C11.6548475,32.5665609 14.3498161,32.6619825 17.0341211,32.5347538 C19.8118251,32.4029286 21.4635919,30.695821 21.5371345,28.1801125 C21.6112287,25.6524533 20.0855874,23.8293322 17.3652466,23.5028031 C15.6456368,23.2963322 13.8892556,23.3910183 12.1492377,23.3665654 C10.9962735,23.3505699 9.84275785,23.3636237 8.6311435,23.3636237 L8.6311435,32.452386 Z M8.57230942,15.9056686 C11.0801121,15.9056686 13.4612377,15.9098973 15.8423632,15.9019914 C16.3005336,15.9003367 16.7691839,15.9041977 17.214852,15.8144757 C18.8962197,15.4769152 20.1624395,14.6148121 20.6027758,12.8622919 C21.3049238,10.0682246 19.5240897,7.65437259 16.63313,7.51114838 C15.2889552,7.44477618 13.9392646,7.49276273 12.592148,7.49147573 C11.2856637,7.48982102 9.97881166,7.49110802 8.63169507,7.49110802 C8.60485202,7.78049815 8.5745157,7.9570004 8.57433184,8.13350264 C8.57120628,10.6716417 8.57230942,13.2097807 8.57230942,15.9056686 Z M154.807175,40.8397358 C153.792103,40.6510991 152.766735,40.506404 151.764166,40.2659197 C143.914413,38.3845161 139.914614,31.6281573 140.600399,24.1626641 C141.174951,17.9117269 144.326067,13.3417896 150.328063,11.2261529 C158.707507,8.2723143 168.425242,12.2603457 169.858955,23.4099556 C170.048143,24.8830138 170.038951,26.3816282 170.12904,28.0006686 L148.48913,28.0006686 C148.990874,30.7474847 150.376049,32.6744847 152.791372,33.6987493 C156.716341,35.363386 160.393287,34.5336417 163.860085,32.3023591 C164.064901,32.170534 164.253906,32.0138883 164.453022,31.8721349 C164.472695,31.8581618 164.511305,31.8702964 164.650117,31.8702964 C165.710785,33.4314219 166.805834,35.0436596 168.036386,36.8553816 C166.920193,37.5516461 165.890413,38.3063771 164.765578,38.871552 C162.696457,39.9112605 160.471794,40.4624623 158.160166,40.65496 C157.896883,40.676839 157.640404,40.7761215 157.380798,40.839552 L154.807175,40.8397358 Z M162.65987,22.7247224 C162.810448,19.1249959 159.380789,16.3759735 155.038466,16.5473278 C151.426422,16.6898165 148.215552,19.7486372 148.600915,22.7247224 L162.65987,22.7247224 Z M185.878924,40.8397358 C184.63017,40.588404 183.361009,40.4107986 182.135973,40.0728704 C176.285843,38.458978 172.250009,33.5117672 171.719215,27.4652784 C171.217839,21.7618659 172.87126,16.9282784 177.449655,13.3302067 C184.38748,7.8779421 198.022462,9.11474479 200.731036,22.0150363 C200.925188,22.9392829 201.039179,23.8881663 201.097646,24.8313502 C201.159973,25.8328165 201.111619,26.8416372 201.111619,28.000117 L179.613278,28.000117 C179.800444,29.6127224 180.426659,30.9092784 181.465632,31.9817134 C183.843448,34.43583 186.810709,34.8976775 190.016798,34.3350766 C192.060179,33.9763726 193.946179,33.2003143 195.643543,31.7460094 L199.104274,36.8193457 C198.203561,37.4222112 197.387054,38.0598255 196.490386,38.5503547 C194.261861,39.769691 191.84948,40.4131887 189.323843,40.6494443 C189.030224,40.676839 188.743408,40.7744668 188.453283,40.8393681 C187.594857,40.8397358 186.736982,40.8397358 185.878924,40.8397358 Z M179.664574,22.7195744 L193.737686,22.7195744 C193.918417,19.2303457 190.569839,16.4588928 186.361915,16.5410766 C182.627973,16.6136999 179.395776,19.5668031 179.664574,22.7195744 Z M43.573991,40.8397358 C42.6543408,40.6514668 41.7286233,40.488386 40.8159596,40.2706999 C35.1627399,38.9233995 31.8233543,34.6917582 31.8183901,28.8749062 C31.8139776,23.2992739 31.8174709,17.7234578 31.8174709,12.1478255 L31.8174709,11.1485654 L39.4589148,11.1485654 L39.4589148,12.2132784 C39.4589148,17.4827896 39.4743587,22.752117 39.4519283,28.0214443 C39.4414484,30.4115789 40.1726457,32.4356551 42.4373901,33.4757313 C44.8920583,34.6029556 47.4057444,34.5617717 49.6765561,32.944386 C51.3399058,31.7601663 51.8100269,29.9473412 51.8135202,27.9995654 C51.8236323,22.7607582 51.8171973,17.5219511 51.8171973,12.2833278 L51.8171973,11.1312829 L59.3755381,11.1312829 L59.3759058,12.1640049 C59.3759058,17.6785968 59.3784798,23.1930049 59.3749865,28.7075968 C59.3711256,35.3619152 55.2293901,39.9360811 48.5918027,40.6334488 C48.2641704,40.6680138 47.9433408,40.7689511 47.6192018,40.8390004 C46.2706143,40.8397358 44.9222108,40.8397358 43.573991,40.8397358 Z M115.726453,40.0123816 L115.726453,0.0506192305 L143.521511,0.0506192305 L143.521511,3.92704972 C143.521511,4.78492416 143.463964,5.64776273 143.537691,6.49938605 C143.610865,7.34733224 143.270363,7.5118838 142.490076,7.50747125 C137.005821,7.47621564 131.521197,7.49092416 126.036758,7.49092416 L124.302072,7.49092416 L124.302072,15.9056686 L125.337184,15.9056686 C129.473587,15.9056686 133.610175,15.929386 137.746027,15.8861798 C138.582206,15.8775385 138.77783,16.1432112 138.758709,16.9328748 C138.707413,19.0383995 138.741058,21.1459466 138.741058,23.3570049 L124.239744,23.3570049 L124.239744,40.0123816 L115.726453,40.0123816 Z M203.047996,39.9967538 L203.047996,38.9454623 C203.047996,30.0023143 203.047812,21.0597179 203.048363,12.1165699 C203.048363,10.9426461 203.04965,10.9323502 204.261265,10.9435654 C208.455215,10.9821753 212.665897,10.8034668 216.837785,11.1265026 C222.782785,11.5865116 227.435825,14.2640138 229.638426,20.1323457 C231.877063,26.0955475 230.170874,32.9011798 225.622265,36.6296058 C222.942556,38.8261394 219.789049,39.9077672 216.392852,40.0302156 C212.08013,40.1863098 207.757848,40.0794892 203.439978,40.0826147 C203.352094,40.0827986 203.264395,40.0456596 203.047996,39.9967538 Z M210.335332,33.8636481 C211.800117,33.8634847 213.171502,33.8638524 214.542888,33.8634847 C219.477413,33.86183 222.584404,31.0810004 223.137444,26.1711125 C223.534206,22.6458479 221.62743,19.1395206 218.590857,17.8946282 C215.915928,16.7984757 213.121493,17.3813008 210.335883,17.2263098 C210.335332,22.8245565 210.335332,28.2674443 210.335332,33.8636481 Z M74.7799552,17.6760228 L61.8329641,17.6760228 L61.8329641,11.1185968 L85.239,11.1185968 C85.239,12.3557672 85.1768565,13.5990049 85.2572018,14.8334174 C85.3311121,15.9713053 84.9849103,16.8503233 84.266583,17.743682 C80.3737892,22.5879331 76.5424036,27.4809062 72.6909776,32.3580677 C72.4843229,32.6196955 72.2877803,32.8892291 71.9658475,33.3143053 L85.3943587,33.3143053 L85.3943587,39.997673 L61.7619955,39.997673 C61.7619955,38.1721618 61.7351525,36.347386 61.7873677,34.5246327 C61.7963767,34.2117089 62.1107713,33.8855475 62.3323184,33.6036955 C66.2835785,28.5713591 70.2427444,23.5454578 74.1978655,18.5160632 C74.362417,18.3062829 74.5028834,18.0771977 74.7799552,17.6760228 Z M87.4859103,17.6833771 C87.4859103,15.6140721 87.4840717,13.7172246 87.4886682,11.8201932 C87.4890359,11.6109645 87.5236009,11.4017358 87.5482377,11.1303636 L110.881834,11.1303636 C110.881834,12.8933636 110.901139,14.6280497 110.861426,16.3614488 C110.855359,16.6227089 110.597592,16.8979421 110.413184,17.1323591 C106.395368,22.2310677 102.371117,27.3246282 98.3503587,32.4209466 C98.1517937,32.6726461 97.9745561,32.9414443 97.6653094,33.3720363 L98.8366592,33.3720363 C102.634583,33.3720363 106.432874,33.3880318 110.231166,33.358247 C110.936807,33.3529152 111.200274,33.5262919 111.179682,34.278265 C111.128018,36.1699645 111.162583,38.0642381 111.162583,40.014404 L87.5087085,40.014404 C87.5087085,38.1252784 87.4936323,36.2674085 87.5278296,34.4106417 C87.5318744,34.1778793 87.7762197,33.934821 87.9426099,33.7230183 C91.8006547,28.8103726 95.6638475,23.9017717 99.5255695,18.9916999 C99.8204753,18.6164488 100.10913,18.2362336 100.535677,17.6831932 L87.4859103,17.6833771 Z" id="Shape"></path>
                    </g>
                </g>
            </g>
        </g>
    </g>
</svg>