<?xml version="1.0" encoding="UTF-8"?>
<svg width="207px" height="53px" viewBox="0 0 207 53" version="1.1" xmlns="http://www.w3.org/2000/svg" xmlns:xlink="http://www.w3.org/1999/xlink">
    <!-- Generator: Sketch 49.3 (51167) - http://www.bohemiancoding.com/sketch -->
    <title>FBG</title>
    <desc>Created with Sketch.</desc>
    <defs></defs>
    <g id="Page-1" stroke="none" stroke-width="1" fill="none" fill-rule="evenodd">
        <g id="mainPageQuartz-Copy-2" transform="translate(-1059.000000, -9324.000000)" fill="#FFFFFF" fill-rule="nonzero">
            <g id="partners" transform="translate(0.000000, 8660.000000)">
                <g id="Group-5" transform="translate(1016.000000, 626.000000)">
                    <g id="FBG" transform="translate(43.355609, 38.469945)">
                        <path d="M195.305021,51.1185669 L206.257891,51.1357192 C206.230432,51.8972822 205.657216,51.4513219 205.399785,51.4547524 C202.02571,51.4924875 198.648203,51.4787656 195.274129,51.4787656 L195.305021,51.1185669 Z" id="Shape"></path>
                        <path d="M205.94554,21.6875996 C205.94554,18.5066146 205.962702,15.3256295 206.000459,12.1446444 C206.000459,11.5413542 205.787648,10.8866471 206.26819,10.3484848 L206.26819,21.6601773 L205.94554,21.6875996 Z" id="Shape"></path>
                        <path d="M15.7548338,51.4819122 C15.7548338,49.4252408 15.8440769,47.3685695 15.7548338,45.3118981 C15.6964826,44.1258843 16.1324007,43.9167893 17.2033175,43.9236449 C23.8931151,43.9682061 30.5897776,43.9510672 37.2761428,43.9442116 C41.8206744,43.9442116 45.0368572,40.9997438 45.0677491,36.8452676 C45.0986409,32.6907914 41.8275392,29.6469178 37.2006294,29.6229233 C34.5679589,29.6229233 34.5679589,29.6229233 34.5713914,26.9046893 C34.5713914,25.3621858 34.0599599,23.5111816 34.7395802,22.3663012 C35.4192005,21.2214208 37.4477641,22.1023617 38.858491,21.8692722 C42.456766,21.3391328 45.1016869,18.2238126 45.0368572,14.5920834 C44.9746279,10.8752001 42.0374051,7.84302372 38.3196002,7.65767307 C35.6388757,7.5068505 32.9444216,7.55826729 30.2602647,7.61653964 C29.1859155,7.64053414 28.7499974,7.41430029 28.8014838,6.22485868 C28.8941593,4.16818731 28.8014838,2.11151594 28.7843217,0.0548445699 L41.1410541,0.0548445699 C43.5780763,0.966635544 45.94645,1.93669887 47.9269596,3.74656968 C50.857333,6.40272412 52.6050321,10.1169569 52.7822457,14.065086 C52.9594593,18.0132151 51.5515306,21.868707 48.8708767,24.7760345 C48.1260403,25.5815641 48.1123106,25.9243426 48.8537146,26.750439 C56.4805644,35.2479195 52.5813289,48.1638157 41.5186209,51.197406 C41.3778915,51.2351116 41.2646214,51.3790786 41.1376217,51.4716288 L15.7548338,51.4819122 Z" id="Shape"></path>
                        <path d="M21.2467149,0.0651279268 C21.2467149,2.17664387 21.2089582,4.29158759 21.2913364,6.39967575 C21.3325255,7.40744472 20.9721208,7.65767307 20.0316362,7.61653964 C18.5488283,7.54798393 17.0591556,7.57197843 15.5694828,7.61653964 C11.1313565,7.71937321 8.18633522,10.7015467 8.14171369,15.0891123 C8.14171369,16.8578497 8.23782161,18.6334426 8.10738943,20.3953244 C8.00784909,21.7664387 8.53301022,21.9755336 9.75495376,21.9618225 C14.9035923,21.8966945 20.0522308,21.9995281 25.2008693,21.8932667 C26.7008393,21.8624167 27.037217,22.3354511 26.9170821,23.7099931 C26.812044,25.2484255 26.812044,26.7922158 26.9170821,28.3306481 C26.9788658,29.3829783 26.6562178,29.6811957 25.5887334,29.6709123 C20.2169872,29.6160677 14.845241,29.6709123 9.45633272,29.6332067 C8.60165873,29.6332067 8.08336245,29.6880512 8.10738943,30.7849426 C8.17260552,37.6885029 8.1691731,44.5954909 8.18976765,51.4990511 L0.638431175,51.4990511 C0.638431175,39.3418381 0.632710465,27.1846251 0.621269046,15.0274122 C0.621269046,14.389844 0.943917059,13.6562979 0.295188608,13.1078522 L0.295188608,12.0795165 C0.930187357,11.784727 0.799755181,11.1231643 0.957646762,10.6227076 C2.33061703,6.20086418 5.13147638,3.02330692 9.36365723,1.12431368 C10.2148988,0.743829479 11.0798701,0.438756559 11.9654359,0.0959779973 L21.2467149,0.0651279268 Z" id="Shape"></path>
                        <path d="M53.8547588,51.4819122 C55.1659454,49.0824623 57.0297525,46.9880853 57.9462102,44.3521181 C58.1555881,43.7454001 58.7116411,43.9613506 59.1269646,43.9579228 C61.18642,43.9373561 63.2458754,43.9579228 65.3053308,43.9579228 C69.7365924,43.9270727 72.7502621,40.948327 72.7914512,36.567617 C72.7914512,34.7406072 72.709073,32.9067419 72.822343,31.08316 C72.9012888,29.8217349 72.4207492,29.5886455 71.2708866,29.6092122 C67.2686783,29.6777679 63.2630375,29.5886455 59.2573968,29.6640567 C58.0972369,29.6846235 57.8089131,29.3212782 57.863832,28.2243868 C57.9496426,26.510494 57.929048,24.7966012 57.863832,23.0827084 C57.8329401,22.2189064 58.0457505,21.8966945 58.9862352,21.9001223 C65.7915911,21.9389706 72.5969471,21.9389706 79.402303,21.9001223 C80.3153283,21.9001223 80.5555981,22.2017675 80.5487332,23.0827084 C80.5109765,27.9364528 80.6311114,32.793625 80.5041117,37.6439417 C80.3496525,43.8756559 75.8566073,49.3601129 69.6782411,51.1357059 C69.4208092,51.2111171 69.0947288,51.1357059 68.967729,51.4784844 L53.8547588,51.4819122 Z" id="Shape"></path>
                        <path d="M153.395103,0.0651279268 C153.528968,0.531306771 153.933994,0.363345276 154.23948,0.407906489 C157.431636,0.956352188 159.044876,2.46457786 159.367524,5.24793978 C159.676442,7.87362357 158.564336,9.55323852 155.650207,10.8592248 C159.734793,12.7033735 160.956737,15.0411233 159.624956,18.5271813 C158.670741,21.026037 156.573529,22.0783672 154.133075,22.2634676 C151.181189,22.4897014 148.201843,22.3423067 145.236227,22.3971512 C144.487959,22.3971512 144.429607,22.0543727 144.43304,21.4545102 C144.467364,14.4458312 144.491391,7.4371522 144.505121,0.428473202 C146.265955,0.428473202 148.030222,0.493601129 149.784191,0.407906489 C150.752135,0.35991749 151.809323,0.850090833 152.691456,0.0651279268 L153.395103,0.0651279268 Z M150.683487,12.5594065 C149.128598,12.0726609 148.744166,13.0050186 148.94668,14.5578055 C148.972285,14.9561613 148.972285,15.3557469 148.94668,15.7541027 C148.94668,19.2093106 149.358571,19.5246669 152.856212,18.7019983 C155.028938,18.1946861 155.945396,16.8269996 155.433964,14.8560229 C155.049532,13.2929526 153.67313,12.5902566 150.683487,12.5594065 Z M148.93295,6.53335939 C149.516462,7.31489451 147.714439,9.36471031 150.429487,9.27558788 C153.429427,9.17275432 154.891641,8.32609127 154.853884,6.44080918 C154.816127,4.55552709 153.642238,3.99679803 150.693784,3.78427532 C148.208708,3.5991749 149.121733,5.26165092 148.94668,6.53678717 L148.93295,6.53335939 Z" id="Shape"></path>
                        <path d="M205.94554,21.6875996 C203.454389,22.5340593 200.827643,22.9117901 198.198556,22.8016299 C189.761653,22.4382847 185.368148,16.6796048 187.214793,8.43235262 C188.175873,4.12705388 190.777651,1.41224767 195.088778,0.363345276 C195.305021,0.311928491 195.541858,0.322211848 195.634534,0.0617001411 L203.18587,0.0617001411 C205.763622,1.09003583 205.763622,1.09003583 205.149217,4.51782145 C203.236415,3.79477572 201.204721,3.43665763 199.159635,3.46206347 C194.227239,3.63345276 191.024786,7.43486701 191.608298,12.4497174 C192.174648,17.2863229 196.032695,20.0971071 200.875848,19.1921717 C201.308333,19.1099048 201.881548,19.1201882 201.884981,18.5066146 C201.884981,16.8578497 202.228223,15.0788289 201.682468,13.6185923 C201.339225,12.7650736 199.496012,13.3375138 198.33242,13.3203749 C196.513235,13.2929526 197.453719,11.9663996 197.302692,11.2122868 C197.151666,10.4581739 197.08645,9.66292766 198.407933,9.70748887 C201.030307,9.79318351 203.656112,9.70748887 206.278486,9.68349437 L206.278486,10.3690515 C205.797946,10.9072138 206.017621,11.5619209 206.010756,12.1652112 C205.94554,15.3256295 205.94554,18.5100423 205.94554,21.6875996 Z" id="Shape"></path>
                        <path d="M68.9574317,0.0651279268 C69.2388906,0.634140339 69.8567273,0.459323273 70.2995102,0.620429197 C76.3028227,2.81078421 79.6254107,7.10579959 80.5109765,13.3752195 C80.6448411,14.3315717 80.5109765,14.8731618 79.3267897,14.8080339 C77.5590905,14.7120559 75.7845264,14.7566171 74.0133947,14.8080339 C73.2342341,14.8080339 72.8532349,14.7189114 72.6953433,13.7796982 C72.0843715,10.0879731 69.3247013,7.75022328 65.57306,7.64396193 C63.4586858,7.58226179 61.3443116,7.61996743 59.2299374,7.64396193 C58.5846413,7.64396193 58.0423181,7.66452864 57.7436971,6.88299352 C56.8046711,4.5528495 55.48083,2.39654984 53.8272994,0.503884486 C53.7658487,0.453447747 53.7329125,0.37623622 53.7390653,0.297039661 C53.7452182,0.217843101 53.7896858,0.146628923 53.8581912,0.106261354 L68.9574317,0.0651279268 Z" id="Shape"></path>
                        <path d="M174.3329,51.4819122 C174.796277,49.007051 176.014788,46.7995571 176.86603,44.465235 C178.129163,40.9928882 179.567349,37.5856693 180.861373,34.1236058 C181.228643,33.1364036 181.698885,32.7182137 182.817856,32.7524916 C185.670202,32.8141917 185.659905,32.7524916 186.67247,35.3404697 C188.577466,40.2113531 190.499625,45.0788087 192.394324,49.9531198 C192.583107,50.4364376 193.029322,50.9368943 192.524756,51.4956233 L188.749088,51.4956233 C188.371521,50.429582 187.949332,49.3738241 187.626684,48.2906438 C187.358955,47.3891362 186.878416,47.0532132 185.910472,47.10463 C184.194259,47.1937524 182.495208,47.1697579 180.792725,47.10463 C179.972375,47.0772077 179.598241,47.375425 179.316782,48.1329657 C178.898026,49.2812738 178.630297,50.5324156 177.77219,51.4784844 L174.3329,51.4819122 Z M183.456287,36.5847559 C182.941423,38.0655593 182.553559,39.189873 182.15883,40.3141867 C180.655428,44.6160576 180.651995,44.5954909 185.223986,44.1704455 C185.97912,44.098462 186.061498,43.9167893 185.814364,43.2483712 C185.048933,41.1779886 184.321259,39.0767561 183.456287,36.5813281 L183.456287,36.5847559 Z" id="Shape"></path>
                        <path d="M120.443817,51.4819122 C120.934654,48.8973618 122.187489,46.5870343 123.097082,44.1533066 C124.349917,40.8009322 125.71259,37.4862635 126.955128,34.1270336 C127.318965,33.1398314 127.772046,32.7113582 128.897881,32.7353527 C131.733065,32.7970528 131.73993,32.7353527 132.755928,35.3164752 C134.666645,40.1839308 136.573929,45.0536716 138.477781,49.9256975 C138.67343,50.4261542 139.057861,50.9128998 138.639105,51.4784844 L134.863437,51.4784844 C134.479005,50.4124431 134.060249,49.3601129 133.727304,48.2769327 C133.45271,47.3891362 132.982468,47.0326465 132.011091,47.0840633 C130.294878,47.1766135 128.59926,47.1491912 126.896777,47.0840633 C126.076427,47.056641 125.685131,47.3548583 125.407104,48.1123989 C124.988348,49.2641349 124.720619,50.5118489 123.88654,51.4647733 L120.443817,51.4819122 Z M129.553475,36.615606 C129.038611,38.0621315 128.551206,39.2104397 128.228558,40.3861702 C127.90591,41.5619006 126.512345,43.1489654 127.435668,43.9647783 C128.194234,44.6503355 130.047744,44.1156009 131.417282,44.1361676 C132.103767,44.1361676 132.134659,43.8893671 131.914983,43.2997879 C131.118661,41.188272 130.401284,39.0356226 129.556907,36.6121782 L129.553475,36.615606 Z" id="Shape"></path>
                        <path d="M141.038371,51.4819122 C141.038371,45.7163768 141.069263,39.9542692 141.007479,34.1921615 C141.007479,33.0712756 141.271776,32.6736525 142.414774,32.7524916 C144.350662,32.8861752 146.307144,32.7901972 148.229303,33.0027199 C151.661728,33.3763486 153.453454,35.2856252 153.477481,38.3877711 C153.501508,41.7024398 151.672026,43.6974111 148.2396,44.2527123 C147.110332,44.434385 145.538281,43.71455 144.947904,44.801158 C144.443337,45.7300879 144.87239,47.1423356 144.803742,48.3386328 C144.745391,49.3875352 145.146984,50.4947099 144.460499,51.4819122 L141.038371,51.4819122 Z M144.814039,38.5831549 C144.814039,39.1487396 144.855228,39.7211797 144.814039,40.2970477 C144.738526,41.0820106 144.968498,41.4487837 145.843767,41.3768002 C146.636657,41.3116723 147.426115,41.332239 148.167519,40.9723215 C149.540489,40.3107589 149.808218,39.1555951 149.4993,37.8324699 C149.156058,36.3893721 147.491331,35.511859 145.641254,35.7963652 C144.038311,36.0431658 145.143552,37.3320132 144.841498,38.0895538 C144.803823,38.2500697 144.79338,38.4157606 144.810607,38.5797271 L144.814039,38.5831549 Z" id="Shape"></path>
                        <path d="M111.51951,51.4819122 C111.365063,51.3358753 111.193311,51.2092499 111.008079,51.1048558 C106.202683,49.1098846 104.417821,45.7232324 105.258766,40.2627699 C105.962413,35.6832483 109.034434,32.9718699 113.918776,32.5502522 C115.456946,32.4157541 117.006808,32.538556 118.504496,32.9135975 C119.14636,33.0712756 119.451846,33.2940817 119.451846,34.0447668 C119.451846,36.1391438 119.403792,36.2145551 117.39239,35.7175261 C114.443937,34.9874078 111.780374,35.7175261 110.325026,37.8701755 C108.608813,40.3998813 108.492111,43.1489654 109.981783,45.7952159 C111.413105,48.3626273 113.867289,48.9727731 116.620095,48.6197112 C117.515958,48.5065943 118.394659,48.2769327 119.383197,48.0644099 C119.139495,49.2709905 120.358006,50.8066384 118.391226,51.4921956 L111.51951,51.4819122 Z" id="Shape"></path>
                        <path d="M166.781563,51.4819122 C166.802158,46.6315956 166.802158,41.7812789 166.857077,36.93439 C166.857077,36.0603047 166.640834,35.6798205 165.714079,35.7620874 C164.921189,35.8340709 164.114569,35.7620874 163.311381,35.7620874 C161.708438,35.7620874 161.001359,34.6857627 161.595168,33.2015315 C161.801114,32.6770803 162.195843,32.7627749 162.573409,32.7627749 C166.69232,32.7627749 170.811231,32.793625 174.930142,32.7387804 C176.327139,32.7216415 175.915248,33.6505714 175.95987,34.3669786 C176.004491,35.0833858 176.121194,35.9471878 174.909547,35.7620874 C174.85259,35.7545375 174.794883,35.7545375 174.737926,35.7620874 C173.39928,35.9163377 171.610986,35.1176637 170.83869,36.1322882 C170.200259,36.9720957 170.656772,38.6551384 170.65334,39.9611247 C170.65334,43.2129507 170.65334,46.4647767 170.65334,49.7166026 C170.65334,50.333604 170.735718,50.9643166 170.244881,51.4647733 L166.781563,51.4819122 Z" id="Shape"></path>
                        <path d="M195.305021,51.1185669 C195.305021,45.3701704 195.305021,39.621774 195.23294,33.8733775 C195.23294,32.9238809 195.576182,32.7627749 196.427424,32.745636 C199.029203,32.6907914 199.029203,32.6565136 199.029203,35.1793638 C199.029203,38.9944892 199.132175,42.8096146 198.981149,46.6178844 C198.919365,48.2323714 199.471985,48.4551775 200.886145,48.4380386 C202.671006,48.4174719 204.503921,48.0301321 206.257891,48.7328281 L206.257891,51.1322781 L195.305021,51.1185669 Z" id="Shape"></path>
                        <path d="M155.797801,51.4819122 C155.797801,45.7266602 155.880179,39.9714081 155.75318,34.2195838 C155.715423,32.505691 156.64561,32.7422082 157.658176,32.7730583 C158.605525,32.8004806 159.662713,32.3754352 159.621523,34.1441725 C159.501388,39.381829 159.573469,44.626341 159.583767,49.8674252 C159.583767,50.4330098 159.614659,50.9917389 159.240524,51.4647733 L155.797801,51.4819122 Z" id="Shape"></path>
                        <path d="M105.375468,0.431900988 L117.63266,0.431900988 C117.824876,3.83226432 117.824876,3.83226432 114.543477,3.83226432 L113.856992,3.83226432 C109.542433,3.83226432 109.573325,3.83226432 109.772405,8.20611877 C109.810162,9.05278182 110.081324,9.27558788 110.867349,9.25502117 C112.635048,9.21388774 114.409612,9.32357688 116.173879,9.21731553 C117.677282,9.1281931 117.316877,10.1359621 117.265391,10.8900749 C117.213904,11.6441877 117.869498,12.8439127 116.177312,12.7582181 C114.485126,12.6725234 112.744886,12.7890681 111.028673,12.7170846 C110.077891,12.679379 109.731216,12.9261796 109.762108,13.9373763 C109.834189,16.3368263 109.720919,18.7362762 109.813594,21.1185872 C109.858216,22.225762 109.470352,22.4177179 108.464651,22.4142902 C105.26563,22.4142902 105.258766,22.4451402 105.269063,19.2298773 C105.317117,12.9638852 105.352585,6.6978931 105.375468,0.431900988 Z" id="Shape"></path>
                        <path d="M172.307769,11.3768205 C172.307769,8.1272797 172.345525,4.86402779 172.287174,1.62819817 C172.270012,0.651279268 172.565201,0.366773061 173.533145,0.377056418 C174.442737,0.377056418 174.679575,0.668418196 174.67271,1.55621467 C174.636097,8.0552962 174.636097,14.5543777 174.67271,21.0534593 C174.67271,21.968678 174.394683,22.208623 173.515983,22.2223342 C172.537741,22.2394731 172.26658,21.920689 172.283742,20.9506257 C172.342093,17.7627851 172.307769,14.5680889 172.307769,11.3768205 Z" id="Shape"></path>
                        <path d="M132.223902,11.3802483 C132.223902,14.5749445 132.20674,17.7662129 132.223902,20.9609091 C132.223902,21.7561553 132.151821,22.225762 131.14612,22.225762 C130.140419,22.225762 129.893285,21.920689 129.90015,20.9506257 C129.941339,14.5063887 129.931041,8.06557956 129.90015,1.6213426 C129.90015,0.822668548 129.975663,0.373628632 130.977931,0.380484204 C131.980199,0.387339775 132.241064,0.654707053 132.223902,1.63162595 C132.189577,4.87773894 132.227334,8.13070749 132.223902,11.3802483 Z" id="Shape"></path>
                        <path d="M0.309005411,13.0907133 C0.954962149,13.6357312 0.63198378,14.3727051 0.63541972,15.0102732 C0.658325987,27.1674862 0.664052554,39.3246992 0.652599421,51.4819122 C-0.0586401801,51.1734115 0.329621051,50.5564101 0.329621051,50.110798 C0.304424157,37.7707697 0.297552277,25.4307415 0.309005411,13.0907133 Z" id="Shape"></path>
                        <polygon id="Shape" points="117.697876 0.0651279268 117.642957 0.439048457 105.375468 0.439048457 105.330847 0.0719888539"></polygon>
                        <path d="M152.708618,0.0651332827 C151.826485,0.857570369 150.769298,0.367014077 149.801354,0.40817964 C148.043952,0.49394123 146.283117,0.432192885 144.522283,0.428762422 L144.470796,0.0582723555 L152.708618,0.0651332827 Z" id="Shape"></path>
                    </g>
                </g>
            </g>
        </g>
    </g>
</svg>