<?xml version="1.0" encoding="UTF-8"?>
<svg width="207px" height="38px" viewBox="0 0 207 38" version="1.1" xmlns="http://www.w3.org/2000/svg" xmlns:xlink="http://www.w3.org/1999/xlink">
    <!-- Generator: Sketch 49.3 (51167) - http://www.bohemiancoding.com/sketch -->
    <title>opentoken</title>
    <desc>Created with Sketch.</desc>
    <defs></defs>
    <g id="Page-1" stroke="none" stroke-width="1" fill="none" fill-rule="evenodd">
        <g id="mainPageQuartz-Copy-2" transform="translate(-1471.000000, -9331.000000)" fill-rule="nonzero">
            <g id="partners" transform="translate(0.000000, 8660.000000)">
                <g id="Group-10" transform="translate(1428.000000, 626.000000)">
                    <g id="opentoken" transform="translate(43.355609, 45.464481)">
                        <path d="M0.850961611,12.4310644 C3.19797929,4.57568078 10.6479563,-0.479294172 19.1391433,0.036035266 C27.004917,0.514071127 33.8054265,6.64038886 35.1249797,14.4347466 C36.6060406,23.1716148 30.7539599,31.8135539 21.8882123,33.8240167 C20.5136778,34.1325363 19.8607739,34.5631076 19.7370658,36.0311185 C19.585867,37.7839166 18.0670064,36.7532577 17.1804316,36.9159934 C16.1495307,37.1058516 16.5206551,36.2752219 16.6306178,35.797186 C16.9020884,34.6410851 16.46911,34.3461268 15.2904467,34.139317 C7.8679603,32.8509934 2.91963605,28.7147966 0.747871523,21.4934038 C-0.015632296,18.7099164 -0.141490732,15.535629 0.850961611,12.4310644 Z M18.441567,22.788508 C20.5411685,17.648775 21.6236144,16.8113646 26.9361903,16.6588 C28.2935432,16.6181161 28.4378693,17.1131036 28.087363,18.2759851 C27.1251888,21.4493296 25.0393327,23.653041 22.1665556,25.1990293 C19.534322,26.6161852 19.5686853,26.5890626 19.7611202,29.5725489 C19.8332832,30.7184788 20.1837895,31.0303887 21.3383985,30.752382 C27.300442,29.3216648 31.9257506,23.7920443 32.1113128,17.7809976 C32.3930923,8.72204856 24.5857363,2.06005944 15.2457743,3.38567662 C8.59646359,4.33157736 3.18079761,10.6647049 3.32856007,17.3266941 C3.4831952,24.3073737 9.09816869,30.4540334 15.8883692,31.0744629 C16.2698025,31.1083662 16.8642887,31.2778825 16.8505433,30.7354304 C16.8035784,29.4981098 16.6773273,28.2649593 16.4725463,27.0433662 C16.3385292,26.165272 15.4416455,26.2635914 14.8471593,26.0262686 C8.54835488,23.622528 5.82677655,18.9947341 7.01918524,12.749755 C7.2150564,11.7326574 7.43498193,11.2478409 8.75797139,11.4512604 C14.6822151,12.3564772 17.5962283,15.1806182 18.3178589,21.0289292 C18.3831493,21.5679909 18.3968947,22.1138333 18.441567,22.788508 Z" id="Shape" fill="#2CF0DB"></path>
                        <path d="M67.4300023,25.1028746 C67.4300023,27.4835835 67.3167323,29.5241911 67.467759,31.5375906 C67.5775966,33.0102291 66.9254357,33.1088585 65.7172219,33.1564727 C64.3442516,33.2108889 64.0010091,32.7823613 64.0319009,31.4559663 C64.1039818,25.3341435 64.0319009,19.2123206 64.0902521,13.0904978 C64.0902521,12.4102953 63.4655507,11.2267429 65.0376016,11.264154 C66.1840318,11.2913621 67.6737045,10.8220224 67.0627328,13.4850153 C69.0054857,11.1043064 71.1541842,10.8594335 73.3989905,11.0294841 C75.9218234,11.2199408 77.2604694,12.3898892 77.7341442,14.8488214 C78.2905178,17.6946224 78.2835233,20.6204291 77.7135496,23.4635865 C77.257037,25.745666 76.1517959,26.820386 73.8211789,27.1162741 C71.5729401,27.4053602 69.3521607,27.3271369 67.4300023,25.1028746 Z M74.7445014,19.1340974 L74.6998799,19.1340974 C74.6998799,18.4538948 74.7342041,17.7736923 74.6998799,17.0934897 C74.5591504,14.6923748 73.9722056,14.1346087 71.5798049,14.0665885 C68.8338644,13.9917662 67.677137,14.7808011 67.5055157,17.0254695 C67.4042087,18.4876222 67.4122396,19.9551986 67.5295426,21.4161769 C67.6428127,22.9500336 68.4940543,23.8206928 70.1347537,24.0111495 C73.7902871,24.4362761 74.6175017,23.7798807 74.7513663,20.1339951 C74.7547987,19.8142999 74.7445014,19.4741986 74.7445014,19.1374984 L74.7445014,19.1340974 Z" id="Shape" fill="#FFFFFF"></path>
                        <path d="M181.283562,20.2700356 C180.198915,20.2700356 179.107404,20.1986143 178.033055,20.2972437 C177.404921,20.3550609 176.344301,19.7428786 176.227599,20.8754159 C176.110896,22.0079531 175.990761,23.3139419 177.425515,23.9363273 C178.062323,24.1916054 178.747256,24.3076165 179.433484,24.2764285 C181.202328,24.2560225 182.971171,24.2220123 184.740014,24.1743982 C185.289203,24.1743982 186.013444,23.8853121 185.85212,24.8546007 C185.731985,25.5756154 186.473389,26.7489648 185.086689,26.8952083 C182.193155,27.2353096 179.282458,27.5311977 176.395788,26.8509951 C174.57317,26.4224675 173.402712,25.3205394 173.100659,23.3989673 C172.645432,20.6044139 172.645432,17.7556082 173.100659,14.9610548 C173.443902,13.0054725 174.600629,11.8151181 176.488463,11.3627834 C178.6029,10.8352223 180.813742,10.8142373 182.937991,11.3015651 C184.884176,11.7538998 185.886445,12.8252188 186.215957,14.739989 C186.430934,16.2519668 186.536464,17.7772466 186.531741,19.304148 C186.552335,20.0557718 186.284606,20.2938427 185.553499,20.2734366 C184.13934,20.2428275 182.711451,20.2700356 181.283562,20.2700356 Z M179.756132,17.8893267 C180.665725,17.8893267 181.571886,17.8893267 182.481478,17.8893267 C182.804126,17.8893267 183.167963,17.9335399 183.336152,17.5492254 C183.751476,16.6479571 182.790397,14.3930857 181.774399,14.1482128 C180.397172,13.7620372 178.935441,13.7880697 177.57311,14.223035 C176.093734,14.739989 176.080004,16.1650133 176.231031,17.3689718 C176.364896,18.4606968 177.428948,17.7770933 178.060514,17.8995298 C178.625093,17.9460709 179.192861,17.939238 179.756132,17.8791237 L179.756132,17.8893267 Z" id="Shape" fill="#FFFFFF"></path>
                        <path d="M91.8242515,20.2700356 C90.7387044,20.2216827 89.6513059,20.2319008 88.5668796,20.3006447 C87.9112863,20.372066 86.7854507,19.6646553 86.6721806,20.9570402 C86.5589106,22.249425 86.6069645,23.6778503 88.3128801,24.0791698 C89.8300122,24.4498802 91.3814686,24.2968346 92.9226278,24.2832306 C93.6091129,24.2832306 94.295598,24.2254133 94.9820832,24.1982052 C95.6033522,24.1743982 96.4648911,23.7730787 96.3344589,24.9940422 C96.2486482,25.8034832 96.7669445,26.8918073 95.2292178,26.9734316 C92.6617634,27.1060711 90.1080387,27.4529744 87.5337195,26.9904367 C85.0761027,26.548305 83.9125104,25.4497779 83.5280787,23.0384599 C83.1143365,20.402966 83.1247631,17.719152 83.5589705,15.0868923 C83.8816185,13.0666907 85.062373,11.8185191 87.0325853,11.3457783 C89.1528939,10.8298472 91.3661601,10.8170294 93.4924104,11.3083672 C95.2807042,11.7266917 96.3378913,12.8014117 96.6914311,14.6345576 C97.7589155,20.1782083 97.6971319,20.2700356 91.8242515,20.2700356 Z M90.2830924,17.8893267 C91.1926852,17.8893267 92.102278,17.8893267 93.0118708,17.8893267 C93.327654,17.8893267 93.6640317,17.9403419 93.8253557,17.4914082 C94.2200847,16.3894801 93.2006542,14.3216644 92.0404944,14.0665885 C90.8116239,13.8056192 89.5395905,13.8183973 88.3163125,14.1039996 C87.1561526,14.3658776 86.376992,15.8623232 86.6584509,17.2431343 C86.909018,18.4811029 87.925016,17.7362811 88.5840417,17.8723217 C89.1453912,17.93011 89.7112132,17.9312495 90.2727951,17.8757227 L90.2830924,17.8893267 Z" id="Shape" fill="#FFFFFF"></path>
                        <path d="M58.4061552,19.1817115 C58.3203446,20.5217105 58.2963176,21.9399328 58.1281287,23.34115 C57.8741292,25.483788 56.79978,26.5687111 54.6648112,26.9564265 C52.3562666,27.381748 49.9883697,27.381748 47.679825,26.9564265 C45.6787208,26.5891172 44.6936147,25.6130265 44.3812639,23.599627 C43.9183046,20.5764236 43.9183046,17.5013144 44.3812639,14.478111 C44.6524256,12.6653712 45.7542342,11.6892806 47.5013389,11.3491793 C49.9153003,10.8677635 52.4018765,10.8677635 54.815838,11.3491793 C56.8752934,11.7607019 57.839805,12.8150158 58.1349936,14.9032376 C58.1830475,15.2433388 58.1899124,15.5834401 58.2070745,15.9235414 C58.2791555,16.9574492 58.3512364,18.0253672 58.4061552,19.1817115 Z M47.4532849,19.032067 C47.5082037,23.8444999 46.9727453,24.5519106 52.7632474,24.2390174 C54.0298125,24.1709971 54.7506219,23.4975966 54.8844865,22.2290189 C55.1125505,20.1457736 55.1125505,18.0441978 54.8844865,15.9609525 C54.7986758,15.1923237 54.5412439,14.4202938 53.7414887,14.223035 C52.0252759,13.8047105 50.171766,13.5836447 48.5379314,14.3386695 C46.9933399,15.0528821 47.6214738,16.7193784 47.4601498,18.0151642 C47.4350133,18.3581168 47.4315741,18.7022925 47.4498525,19.045671 L47.4532849,19.032067 Z" id="Shape" fill="#FFFFFF"></path>
                        <path d="M149.471841,19.1579044 C149.504829,20.5728288 149.41872,21.9880156 149.214409,23.3887642 C148.816247,25.5790164 147.87233,26.5891172 145.720199,26.9632286 C143.466082,27.3656511 141.15752,27.3656511 138.903402,26.9632286 C136.69292,26.5619091 135.65976,25.4463769 135.398895,23.2051095 C135.08162,20.504755 135.08162,17.7770438 135.398895,15.0766892 C135.670057,12.7844067 136.600244,11.7402958 138.862213,11.3049662 C141.166359,10.8577587 143.536188,10.8577587 145.840334,11.3049662 C147.989033,11.7164887 148.836842,12.6245591 149.221274,14.7637961 C149.430276,16.2188206 149.5141,17.6888131 149.471841,19.1579044 Z M146.090901,19.1306963 C146.090901,13.9985682 145.500524,13.4646092 140.71229,13.9951672 C139.397671,14.1414107 138.731781,14.7978062 138.618511,16.0357748 C138.434629,18.0723154 138.434629,20.121057 138.618511,22.1575976 C138.735213,23.4703885 139.473185,24.1982052 140.83929,24.2696265 C146.255658,24.5451085 146.080604,23.861505 146.090901,19.6612543 C146.094334,19.4707976 146.094334,19.300747 146.094334,19.1306963 L146.090901,19.1306963 Z" id="Shape" fill="#FFFFFF"></path>
                        <path d="M168.765505,11.4478087 C167.004671,13.6482639 165.353674,15.7909019 163.616867,17.8485146 C162.971571,18.6069404 163.002463,19.0932852 163.616867,19.851711 C165.401728,22.0963794 167.097347,24.412469 168.919965,26.823787 C166.640834,27.1944974 164.849108,27.1638883 163.647759,24.9974432 C162.892625,23.6370382 161.680979,22.5010999 160.767954,21.1985121 C160.3917,20.6065842 159.659552,20.3410063 158.986525,20.5523196 C158.142148,20.7359743 158.550607,21.4773951 158.530012,21.9671409 C158.444699,23.2683573 158.444699,24.5736881 158.530012,25.8749045 C158.650147,27.2353096 157.754284,27.0210458 157.002583,26.9530255 C156.250881,26.8850053 155.228019,27.5073906 155.241748,25.9327217 C155.289802,19.0195966 155.289802,12.1042041 155.241748,5.18654434 C155.241748,3.69349977 156.1788,4.11862636 156.957961,4.07781421 C157.8195,4.03360104 158.605525,3.88395648 158.564336,5.29537675 C158.454499,8.92085627 158.519715,12.5497368 158.540309,16.1786173 C158.540309,16.6445561 158.276013,17.3145556 158.945336,17.5050123 C159.607962,17.7594038 160.360309,17.5352047 160.771386,16.9608503 C161.7256,15.6888715 162.896057,14.5529333 163.695813,13.1959292 C164.849108,11.1825297 166.537861,10.98187 168.765505,11.4478087 Z" id="Shape" fill="#FFFFFF"></path>
                        <path d="M106.082548,13.2435434 C108.076787,10.998875 111.557267,10.2948654 114.155613,11.5022249 C115.18142,11.9304098 115.916308,12.8470227 116.105231,13.933949 C116.791716,18.0355703 116.448473,22.1814047 116.393554,26.3034321 C116.393554,27.7012483 114.927909,26.7421627 114.162478,26.9564265 C113.397047,27.1706903 113.064102,26.8305891 113.077831,25.9735339 C113.125885,23.1438913 113.108723,20.3142488 113.077831,17.4710022 C113.050372,14.750192 112.511481,14.1652178 110.170567,14.0937966 C107.335383,14.0053702 106.261034,14.8488214 106.164926,17.4744032 C106.061953,20.2462285 106.027629,23.0214549 106.116872,25.7932802 C106.168358,27.4053602 105.087144,26.9054113 104.297686,26.9632286 C103.422418,27.0278478 102.694744,27.1264772 102.729068,25.742265 C102.835473,21.443385 102.766825,17.1377029 102.770257,12.8354219 C102.770257,12.0293819 102.481933,11.1077074 103.957876,11.2233419 C105.090577,11.3117682 106.192385,11.1315145 105.897197,12.8116148 C105.883467,12.9034421 105.976143,13.0054725 106.082548,13.2435434 Z" id="Shape" fill="#FFFFFF"></path>
                        <path d="M205.907784,15.6446583 C205.928378,19.3744356 205.948973,23.1053465 205.969567,26.8373911 C202.646979,27.2353096 202.650412,27.2353096 202.650412,23.9635354 C202.650412,21.7562781 202.681303,19.5422189 202.626385,17.3451647 C202.564601,14.7637961 202.01198,14.1754209 199.753444,14.0903955 C197.007504,13.9849642 195.874803,14.7161819 195.720344,17.0696827 C195.531561,19.9435384 195.514399,22.8514042 195.593344,25.7150569 C195.631101,27.0516549 194.954913,27.0312488 194.038456,26.9666296 C193.211241,26.9088124 192.233,27.347543 192.270756,25.7626711 C192.370297,21.4093748 192.311945,17.0492766 192.298216,12.6959803 C192.298216,11.8661333 192.198675,11.0941034 193.475538,11.2471489 C194.440049,11.3627834 195.682587,10.9410578 195.435453,12.6619702 C195.454515,12.8529932 195.503139,13.0399707 195.579615,13.2163353 C197.700854,10.6111596 200.433065,10.6349667 203.233924,11.3627834 C205.39292,11.9273515 205.698406,13.8081115 205.907784,15.6446583 Z" id="Shape" fill="#FFFFFF"></path>
                        <path d="M124.253809,20.4536903 C124.253809,18.8688184 124.171431,17.2737434 124.281269,15.6922725 C124.370512,14.4032887 123.938026,13.9169439 122.647434,14.1039996 C121.617706,14.2536442 120.993005,14.1278067 120.979275,12.7435945 C120.965545,11.3593824 121.559355,11.0839003 122.695488,11.267555 C124.044431,11.4852198 124.435728,10.8594335 124.264107,9.64527197 C124.240074,9.30558751 124.240074,8.96465262 124.264107,8.62496817 C124.264107,6.69659397 125.070727,6.12522384 126.982588,6.63197473 C127.323276,6.67286258 127.570394,6.97329919 127.542073,7.31217727 C127.542073,7.71009575 127.542073,8.10461323 127.542073,8.50253171 C127.542073,11.1417176 127.542073,11.2233419 130.161014,11.2233419 C131.276552,11.2233419 131.376093,11.7198897 131.286849,12.5531378 C131.211336,13.2537464 131.647254,14.2740502 130.23996,14.1074006 C129.845231,14.0597864 129.43334,14.1482128 129.042043,14.1074006 C127.833829,13.9271469 127.487154,14.4066897 127.514614,15.6004452 C127.596992,18.8858234 127.46656,22.1746027 127.57983,25.463382 C127.624451,26.7897769 127.195398,27.0380508 125.959725,27.0278478 C124.724052,27.0176448 124.102783,26.816985 124.22635,25.3885597 C124.363647,23.7492716 124.253809,22.1065824 124.253809,20.4536903 Z" id="Shape" fill="#FFFFFF"></path>
                    </g>
                </g>
            </g>
        </g>
    </g>
</svg>