<?xml version="1.0" encoding="UTF-8"?>
<svg width="175px" height="41px" viewBox="0 0 175 41" version="1.1" xmlns="http://www.w3.org/2000/svg" xmlns:xlink="http://www.w3.org/1999/xlink">
    <!-- Generator: Sketch 49.1 (51147) - http://www.bohemiancoding.com/sketch -->
    <title>PH</title>
    <desc>Created with Sketch.</desc>
    <defs></defs>
    <g id="Page-1" stroke="none" stroke-width="1" fill="none" fill-rule="evenodd">
        <g id="mainPageQuartz" transform="translate(-982.000000, -2216.000000)" fill-rule="nonzero">
            <g id="mainPage">
                <g id="press" transform="translate(287.000000, 2216.000000)">
                    <g id="PH" transform="translate(695.000000, 0.000000)">
                        <path d="M41,20.5 C41,31.82625 31.82625,41 20.5,41 C9.17375,41 0,31.82625 0,20.5 C0,9.17375 9.17375,0 20.5,0 C31.82625,0 41,9.17375 41,20.5" id="Fill-1" fill="#949494"></path>
                        <path d="M23.4853125,20.5 L17.604375,20.5 L17.604375,14.35 L23.4853125,14.35 C25.1977031,14.35 26.59875,15.73375 26.59875,17.425 C26.59875,19.11625 25.1977031,20.5 23.4853125,20.5 M23.4853125,10.25 L13.453125,10.25 L13.453125,30.75 L17.604375,30.75 L17.604375,24.6 L23.4853125,24.6 C27.4981875,24.6 30.75,21.3883333 30.75,17.425 C30.75,13.4616667 27.4981875,10.25 23.4853125,10.25" id="Fill-3" fill="#FFFFFF"></path>
                        <path d="M62.3970777,18.5508984 C62.3970777,17.3881641 61.5182456,16.6834766 60.3809335,16.6834766 L57.3308693,16.6834766 L57.3308693,20.4007031 L60.3809335,20.4007031 C61.5182456,20.4007031 62.3970777,19.6960156 62.3970777,18.5508984 Z M54.453125,28.1875 L54.453125,14.09375 L60.7945016,14.09375 C63.7411739,14.09375 65.34375,16.1197266 65.34375,18.5508984 C65.34375,20.9644531 63.7239419,22.9904297 60.7945016,22.9904297 L57.3481013,22.9904297 L57.3481013,28.1875 L54.453125,28.1875 Z" id="Fill-5" fill="#949494"></path>
                        <path d="M67.265625,27.5297345 L67.265625,17.5368416 L69.8705761,17.5368416 L69.8705761,18.8566576 C70.582596,18.0167747 71.7982398,17.296875 73.03125,17.296875 L73.03125,19.7993834 C72.8402203,19.7651024 72.6144578,19.747962 72.31923,19.747962 C71.450913,19.747962 70.3047346,20.2278951 69.8879424,20.8620924 L69.8879424,27.546875 L67.265625,27.546875 L67.265625,27.5297345 Z" id="Fill-7" fill="#949494"></path>
                        <path d="M81.2827554,22.4132904 C81.2827554,20.9024026 80.3973733,19.5803758 78.796875,19.5803758 C77.2134032,19.5803758 76.3280212,20.9024026 76.3280212,22.4132904 C76.3280212,23.9585165 77.2134032,25.2633742 78.796875,25.2633742 C80.3973733,25.2633742 81.2827554,23.9413474 81.2827554,22.4132904 M73.671875,22.4132904 C73.671875,19.6490526 75.5958783,17.296875 78.7798484,17.296875 C81.9978717,17.296875 83.921875,19.6490526 83.921875,22.4132904 C83.921875,25.1775283 81.9978717,27.546875 78.7798484,27.546875 C75.5958783,27.546875 73.671875,25.1775283 73.671875,22.4132904" id="Fill-9" fill="#949494"></path>
                        <path d="M92.3064281,24.6992969 L92.3064281,21.1582422 C91.8915155,20.4887891 90.9953044,20.013125 90.1820758,20.013125 C88.7547766,20.013125 87.7755829,21.1934766 87.7755829,22.9199609 C87.7755829,24.6640625 88.7547766,25.8444141 90.1820758,25.8444141 C90.9953044,25.8444141 91.8915155,25.36875 92.3064281,24.6992969 Z M92.3064281,28.1875 L92.3064281,26.6548047 C91.5595855,27.6589844 90.5471988,28.1875 89.3854437,28.1875 C87.0121438,28.1875 85.203125,26.2848438 85.203125,22.9199609 C85.203125,19.6607812 86.9789508,17.6700391 89.3854437,17.6700391 C90.4974093,17.6700391 91.5595855,18.1633203 92.3064281,19.2027344 L92.3064281,14.09375 L94.8125,14.09375 L94.8125,28.1875 L92.3064281,28.1875 Z" id="Fill-11" fill="#949494"></path>
                        <path d="M103.812383,27.546875 L103.812383,26.0348681 C103.158586,26.7732901 102.018633,27.546875 100.459579,27.546875 C98.3640771,27.546875 97.375,26.3513347 97.375,24.399791 L97.375,17.296875 L99.8896028,17.296875 L99.8896028,23.3624839 C99.8896028,24.7514205 100.576928,25.2085388 101.649825,25.2085388 C102.622138,25.2085388 103.393283,24.6459316 103.829147,24.0657429 L103.829147,17.296875 L106.34375,17.296875 L106.34375,27.546875 L103.812383,27.546875 Z" id="Fill-13" fill="#949494"></path>
                        <path d="M108.90625,22.3962072 C108.90625,19.4187448 111.0676,17.296875 114.045837,17.296875 C116.037002,17.296875 117.228297,18.1695795 117.875,19.0593959 L116.207187,20.6336864 C115.747687,19.9492122 115.049929,19.5898633 114.164967,19.5898633 C112.616283,19.5898633 111.544118,20.7192456 111.544118,22.4133191 C111.544118,24.1073925 112.633302,25.2538867 114.164967,25.2538867 C115.049929,25.2538867 115.747687,24.8432022 116.207187,24.1929518 L117.875,25.7672423 C117.228297,26.6570586 116.037002,27.546875 114.045837,27.546875 C111.0676,27.5126513 108.90625,25.3907815 108.90625,22.3962072" id="Fill-15" fill="#949494"></path>
                        <path d="M120.100329,24.3073902 L120.100329,19.4386402 L118.515625,19.4386402 L118.515625,17.2838894 L120.100329,17.2838894 L120.100329,14.734375 L122.629112,14.734375 L122.629112,17.3003378 L124.567845,17.3003378 L124.567845,19.4550887 L122.629112,19.4550887 L122.629112,23.6658995 C122.629112,24.2744932 122.949424,24.7186022 123.505757,24.7186022 C123.876645,24.7186022 124.247533,24.5870144 124.382401,24.4225296 L124.921875,26.2976563 C124.550987,26.6266258 123.876645,26.90625 122.814556,26.90625 C121.027549,26.8898015 120.100329,26.0015836 120.100329,24.3073902" id="Fill-17" fill="#949494"></path>
                        <polygon id="Fill-19" fill="#949494" points="140.590457 28.1875 140.590457 22.1095703 134.203236 22.1095703 134.203236 28.1875 131.328125 28.1875 131.328125 14.09375 134.203236 14.09375 134.203236 19.5374609 140.590457 19.5374609 140.590457 14.09375 143.5 14.09375 143.5 28.1875"></polygon>
                        <path d="M152.499883,27.546875 L152.499883,26.0348681 C151.846086,26.7732901 150.706133,27.546875 149.147079,27.546875 C147.051577,27.546875 146.0625,26.3513347 146.0625,24.399791 L146.0625,17.296875 L148.577103,17.296875 L148.577103,23.3624839 C148.577103,24.7514205 149.264428,25.2085388 150.337325,25.2085388 C151.309638,25.2085388 152.080783,24.6459316 152.516647,24.0657429 L152.516647,17.296875 L155.03125,17.296875 L155.03125,27.546875 L152.499883,27.546875 Z" id="Fill-21" fill="#949494"></path>
                        <path d="M164.047897,27.546875 L164.047897,21.4003088 C164.047897,20.0439437 163.360572,19.5803758 162.287675,19.5803758 C161.298598,19.5803758 160.544217,20.1469588 160.108353,20.7135417 L160.108353,27.546875 L157.59375,27.546875 L157.59375,17.5372435 L160.108353,17.5372435 L160.108353,18.7905936 C160.728621,18.0694881 161.902103,17.296875 163.444393,17.296875 C165.556659,17.296875 166.5625,18.5158867 166.5625,20.4044964 L166.5625,27.546875 L164.047897,27.546875 Z" id="Fill-23" fill="#949494"></path>
                        <path d="M170.069079,24.3073902 L170.069079,19.4386402 L168.484375,19.4386402 L168.484375,17.2838894 L170.069079,17.2838894 L170.069079,14.734375 L172.597862,14.734375 L172.597862,17.3003378 L174.536595,17.3003378 L174.536595,19.4550887 L172.597862,19.4550887 L172.597862,23.6658995 C172.597862,24.2744932 172.918174,24.7186022 173.474507,24.7186022 C173.845395,24.7186022 174.216283,24.5870144 174.351151,24.4225296 L174.890625,26.2976563 C174.519737,26.6266258 173.845395,26.90625 172.783306,26.90625 C170.996299,26.8898015 170.069079,26.0015836 170.069079,24.3073902" id="Fill-25" fill="#949494"></path>
                    </g>
                </g>
            </g>
        </g>
    </g>
</svg>