<?xml version="1.0" encoding="UTF-8"?>
<svg width="134px" height="93px" viewBox="0 0 134 93" version="1.1" xmlns="http://www.w3.org/2000/svg" xmlns:xlink="http://www.w3.org/1999/xlink">
    <!-- Generator: Sketch 49.3 (51167) - http://www.bohemiancoding.com/sketch -->
    <title>YOYOW</title>
    <desc>Created with Sketch.</desc>
    <defs>
        <filter x="-6.0%" y="-9.8%" width="111.9%" height="127.3%" filterUnits="objectBoundingBox" id="filter-1">
            <feOffset dx="0" dy="5" in="SourceAlpha" result="shadowOffsetOuter1"></feOffset>
            <feGaussianBlur stdDeviation="5" in="shadowOffsetOuter1" result="shadowBlurOuter1"></feGaussianBlur>
            <feColorMatrix values="0 0 0 0 0   0 0 0 0 0   0 0 0 0 0  0 0 0 0.5 0" type="matrix" in="shadowBlurOuter1" result="shadowMatrixOuter1"></feColorMatrix>
            <feMerge>
                <feMergeNode in="shadowMatrixOuter1"></feMergeNode>
                <feMergeNode in="SourceGraphic"></feMergeNode>
            </feMerge>
        </filter>
    </defs>
    <g id="Page-1" stroke="none" stroke-width="1" fill="none" fill-rule="evenodd">
        <g id="mainPageQuartz-Copy-2" transform="translate(-684.000000, -9101.000000)" fill-rule="nonzero">
            <g id="partners" transform="translate(0.000000, 8660.000000)">
                <g id="Group-12" filter="url(#filter-1)" transform="translate(604.000000, 418.000000)">
                    <g id="YOYOW" transform="translate(89.508353, 27.978142)">
                        <path d="M40.3496436,72.6845843 C36.4876833,70.9612059 34.9928891,68.4469285 35.4829855,64.4973162 C35.8897656,61.2409609 38.1736152,59.1270151 41.3641434,59.0537837 C44.6820966,58.9805523 47.0541636,61.0700877 47.5883687,64.3899101 C48.2401971,68.4664569 46.2357024,70.9660879 42.814829,72.6894664 L40.3496436,72.6845843 Z M45.6328837,65.8496556 C45.6720915,63.0375707 44.0106644,61.0066205 41.6336964,60.9675637 C39.1391053,60.9089786 37.4874802,62.7251168 37.4139657,65.6153152 C37.3453522,68.2321165 39.3743516,71.0393193 41.3102327,70.9856163 C43.5450727,70.8977387 45.5789731,68.4762211 45.6328837,65.8643019 L45.6328837,65.8496556 Z" id="Shape" fill="#3C97CF"></path>
                        <path d="M70.1475099,27.7888671 C65.6680281,28.2429017 64.6388254,27.6912253 63.2861591,23.9954817 C62.9136858,23.0190633 62.8254685,22.8481901 61.6884446,23.2387575 C58.4734117,24.3518744 55.1701614,24.5813327 51.9894352,22.9409499 C51.0092422,22.4527407 50.4015226,22.5503825 50.4554332,23.800198 C50.5681554,26.612283 49.1615784,28.2233733 46.4611468,28.735993 C45.0643718,28.9996259 45.5789731,29.8295815 45.8338233,30.5570132 C47.54426,35.4976902 46.568968,39.789049 42.8344328,43.4896747 C40.1879118,46.1162401 33.601015,47.6345707 30.2830618,46.0674192 C25.9653118,44.0315869 23.152158,40.7996421 22.7894866,35.8150262 C22.6247114,33.7024568 23.0487048,31.5855852 24.0147278,29.6977651 C24.7547735,28.2331375 24.8380899,27.7449283 22.9414165,27.8181597 C20.0008376,27.8962732 18.8344079,26.8417413 18.412925,23.9124862 C18.2119854,22.5259721 17.7561957,22.9604782 16.8397152,23.2192291 C12.1690957,24.5227476 7.68471289,24.4397521 3.79824776,20.9978773 C0.308760786,17.9075131 -1.01449972,11.7219027 0.936084287,7.54283199 C3.2121958,2.69977419 8.3476135,-0.145309729 13.6785929,0.483327099 C17.1815764,0.98223051 20.2814104,3.004617 22.1404184,6.00397147 C23.9994263,9.00332595 24.4257152,12.6700452 23.3040879,16.0132615 C22.7845856,17.6634085 22.2601824,18.7960538 24.7106648,19.5283676 C27.1611472,20.2606814 27.1611472,22.8823648 27.185652,25.4210526 C30.6163274,23.1704082 34.169527,22.4917974 37.9677747,23.4682158 C38.6096152,23.5658426 39.227757,23.781028 39.7909336,24.1028877 C40.4476629,24.5618044 41.1239961,24.5129835 41.3494405,23.6879099 C42.2365151,20.451083 44.481157,19.44049 48.3039096,20.0556335 C45.4270432,17.053147 44.9908574,13.9481366 45.4123403,10.6331962 C46.1180793,5.04320094 50.1319695,1.19611252 55.8562964,0.649318223 C62.4235893,0.0244104595 67.5009889,3.65668684 68.9761793,10.0180526 C69.5394532,12.4990959 69.1365924,15.100628 67.8489574,17.2972516 C67.496088,17.9465698 66.9814866,18.8692852 68.1185105,19.0255122 C71.9020554,19.5430139 72.5293789,22.0182345 72.1520046,25.5577511 C75.719907,23.1411156 79.34172,22.4283302 83.242888,23.4975083 C83.4781343,23.5609755 83.7917961,23.4682158 83.9633299,23.5951502 C85.9237158,25.0597778 86.7862856,24.22494 87.3940053,22.1305226 C87.8841017,20.4608472 89.2857777,19.8066469 91.059927,19.9775201 C92.8340762,20.1483933 92.8438782,19.2452063 92.172446,18.058858 C88.9819179,12.4395702 90.9276009,7.03997653 94.0250107,3.74944658 C97.3723697,0.195283676 103.719119,-0.771370521 108.237809,1.85519492 C111.353556,3.52401251 113.514015,6.54025479 114.08466,10.0180526 C115.025645,15.031961 113.246595,18.6642374 109.712999,21.6325492 C105.978464,24.7668522 101.636209,24.6203895 97.2988552,22.8872469 C95.8873774,22.3209242 95.5492108,22.8042513 95.5933195,24.117534 C95.6815368,26.7587457 94.1720397,28.1940808 91.750963,28.6432332 C90.4080986,28.8922199 90.7217604,29.4194858 90.9962144,30.3031445 C92.0058132,33.5546177 92.2116537,36.7328595 90.6286421,39.9794506 C88.0899423,45.1739964 82.7870983,48.0983695 76.0874793,46.0674192 C70.9316643,44.5051498 66.8295567,39.1446129 68.1724211,32.9150636 C68.5062038,31.099173 69.1759436,29.360913 70.1475099,27.7888671 Z M50.5436505,22.2476928 L50.4015226,22.096348 C50.3574139,22.1402868 50.2789984,22.1891077 50.2740975,22.2330465 C50.2885556,22.295535 50.3351874,22.3457034 50.3966216,22.364863 C50.4260274,22.3697451 50.479938,22.2916316 50.5240467,22.2476928 L50.5436505,22.2476928 Z" id="Shape" fill="#2389C8"></path>
                        <path d="M83.5369459,62.89599 C82.272497,65.4883808 81.9735381,67.8952521 81.2530963,70.1605428 C80.9737413,71.0442014 80.9835432,72.1963751 79.5573625,72.1475542 C78.2929135,72.1036154 78.2978145,71.0930223 78.087073,70.2581846 C77.2735128,67.2801086 76.4403488,64.3069146 75.6708973,61.3141922 C75.4944626,60.6355815 74.7250111,59.6249884 76.0286678,59.3076525 C77.2245032,59.014727 77.4597495,60.0155558 77.675392,60.9431533 C78.1718405,63.4144948 78.9291637,65.826633 79.9347368,68.1393567 C80.5881987,65.7536412 81.2530963,63.3695529 81.9294295,60.9870921 C82.1744777,60.1083155 82.3705163,59.283242 83.5908565,59.229539 C84.9729286,59.1709539 85.1542643,60.079023 85.4042135,61.0554414 C85.9580226,63.2279723 86.5461383,65.390739 87.2469763,68.0270686 C88.6094445,65.659254 88.5996426,63.3256141 89.3102825,61.2360788 C89.4082351,60.7626435 89.5375772,60.2961953 89.6974587,59.8398005 C89.9830725,59.3180105 90.6249729,59.1048676 91.1677482,59.3515913 C91.8048736,59.546875 91.7313592,60.0302021 91.5990331,60.5379396 C90.6874536,63.9944607 89.7709732,67.4509818 88.8887995,70.917267 C88.6780581,71.7374585 88.2908818,72.1768467 87.3842033,72.1866109 C86.3451988,72.1866109 85.9678245,71.5958778 85.761984,70.7219833 C85.1640663,68.2125881 84.6837717,65.7031929 83.5369459,62.89599 Z" id="Shape" fill="#3C97CF"></path>
                        <path d="M61.7080485,65.8350094 C61.7080485,61.6949954 64.0605116,59.0586658 67.765641,59.0489016 C71.4707705,59.0391374 74.0045693,61.8170477 74.0045693,65.7324854 C73.9751635,69.8676173 71.5540869,72.3233095 67.5352957,72.2940169 C64.0899174,72.2549602 61.7080485,69.6186306 61.7080485,65.8350094 Z M71.8677486,65.6934287 C71.8432438,62.7934661 70.2455292,60.9382712 67.7803439,60.9626816 C65.3151586,60.9870921 63.7762556,62.8471691 63.7762556,65.761778 C63.7762556,68.5592166 65.5013953,70.5852848 67.8538584,70.5608743 C70.2063215,70.5364639 71.8922534,68.4811032 71.8677486,65.6934287 Z" id="Shape" fill="#3C97CF"></path>
                        <path d="M27.2493646,69.0327796 C27.6708476,65.7959526 24.9851188,64.009107 23.7402737,61.5485327 C23.3972062,60.8699219 22.0396389,60.1669006 23.1962667,59.3955301 C24.12745,58.7755045 24.9361092,59.6347526 25.5536307,60.5086471 C26.4701112,61.8121656 27.0239202,64.1750981 28.3716855,64.1555697 C29.7194509,64.1360414 30.2291512,61.7584626 31.1995423,60.4842366 C31.5916194,59.971617 31.8905783,59.3320629 32.6404259,59.3027704 C33.0332955,59.2471967 33.4336882,59.3190925 33.7823507,59.5078182 C34.1499231,59.8007438 33.890172,60.2450141 33.6549256,60.5818785 C32.9540877,61.5582968 32.2973584,62.6030645 31.5377088,63.5501903 C30.0233107,65.4395599 28.9794052,67.4314534 29.3322746,69.9847875 C29.4449968,70.809861 29.8223711,72.1817288 28.1952508,72.0889691 C26.773971,72.0108556 27.3669877,70.7903326 27.2542655,70.0043158 C27.2304369,69.680959 27.2287994,69.3563587 27.2493646,69.0327796 Z" id="Shape" fill="#3C97CF"></path>
                        <path d="M54.6947678,72.1133795 C53.7684854,72.1524363 53.3175966,71.6788734 53.4597246,70.9270312 C54.238978,66.8602487 51.7443869,64.0579279 49.7251894,61.0554414 C49.4066267,60.5672322 48.4852453,60.079023 49.2056871,59.4638794 C49.926129,58.8487358 50.754392,59.1465434 51.3621117,59.864211 C51.5679522,60.1083155 51.7198821,60.4061232 51.9012178,60.6697561 C54.6408571,64.6242506 54.6408571,64.6242506 57.2922791,60.7771621 C57.5061175,60.4344382 57.7452932,60.108062 58.00782,59.8007438 C58.56653,59.2100106 59.3751892,58.9610239 59.9682059,59.4199406 C60.7768651,60.0302021 59.8407809,60.5330575 59.5516239,61.0066205 C58.9391576,62.0559959 58.2460504,63.0565599 57.4785158,63.9993428 C55.920009,65.815481 55.1456565,67.8171387 55.4544173,70.2337742 C55.5965453,70.9563238 55.8366926,71.9327421 54.6947678,72.1133795 Z" id="Shape" fill="#3C97CF"></path>
                    </g>
                </g>
            </g>
        </g>
    </g>
</svg>