<?xml version="1.0" encoding="UTF-8"?>
<svg width="52px" height="73px" viewBox="0 0 52 73" version="1.1" xmlns="http://www.w3.org/2000/svg" xmlns:xlink="http://www.w3.org/1999/xlink">
    <!-- Generator: Sketch 49.3 (51167) - http://www.bohemiancoding.com/sketch -->
    <title>zipper</title>
    <desc>Created with Sketch.</desc>
    <defs></defs>
    <g id="Page-1" stroke="none" stroke-width="1" fill="none" fill-rule="evenodd">
        <g id="mainPageQuartz-Copy-2" transform="translate(-312.000000, -9315.000000)" fill-rule="nonzero">
            <g id="partners" transform="translate(0.000000, 8660.000000)">
                <g id="Group-7" transform="translate(191.000000, 627.000000)">
                    <g id="zipper" transform="translate(120.976134, 27.978142)">
                        <path d="M34.8023096,72.6015887 C34.8023096,69.9213203 34.841364,67.2312876 34.7290827,64.5607834 C34.6705012,63.2230902 35.148917,62.8471691 36.4035381,62.9643393 C37.4589532,63.0179243 38.5164073,63.0179243 39.5718224,62.9643393 C40.1722831,62.9643393 40.7776255,62.9643393 40.7288076,63.7942949 C40.6897532,64.4973162 40.1234651,64.4192027 39.6450493,64.4289669 C39.4832735,64.4040904 39.3186458,64.4040904 39.1568699,64.4289669 C38.2635016,64.756067 36.6134552,63.5453082 36.5499919,65.5323197 C36.4865286,67.5193311 38.1609839,66.4501529 39.0641158,66.6991396 C39.5230045,66.826074 40.1137015,66.7333143 40.1576377,67.3777504 C40.2113374,68.2028239 39.5669406,68.1979418 38.9860071,68.1979418 C38.4978277,68.1979418 38.0096483,68.1979418 37.5214689,68.1979418 C36.593928,68.1442388 36.476765,68.686151 36.5060557,69.4331111 C36.5353465,70.1800711 36.5060557,70.7610401 37.4824146,70.6926908 C38.0487027,70.6536341 38.6247544,70.7415117 39.1861607,70.6926908 C41.3097411,70.438822 41.1388783,71.3127165 40.1625195,72.6113529 L34.8023096,72.6015887 Z" id="Shape" fill="#FFFFFF"></path>
                        <path d="M44.0777183,72.6015887 C44.0240186,69.8432068 43.9800824,67.0799428 43.9068555,64.3020325 C43.9068555,63.4476664 44.0533093,62.8862258 45.102895,62.9594572 C46.3965705,63.052217 47.7244184,62.8715796 48.9692759,63.3353783 C50.6779038,63.9749323 51.4394637,66.1767558 50.0774431,67.2410518 C48.4273968,68.5299241 49.1450205,69.3354692 50.0188616,70.4339399 C50.4045233,70.9221491 51.0245112,71.3175986 50.9024663,72.084087 C48.754477,72.5332394 48.3590517,70.6194594 47.3973382,69.4721678 C47.0458491,69.0523079 46.7773504,68.4566927 46.098781,68.632448 C45.3225758,68.8326138 45.5471383,69.5258708 45.6106016,70.0238442 C45.7326465,71.0881402 45.5569019,71.976681 44.5707795,72.5771783 L44.0777183,72.6015887 Z M45.5764291,65.6934287 C45.5032021,66.557559 45.4934386,67.358222 46.7236507,67.2556981 C47.7000095,67.1727025 48.8081767,67.0945891 48.920458,65.8887124 C49.0473846,64.5705475 47.9440992,64.5021983 46.9677404,64.3850281 C45.9913815,64.2678579 45.4299752,64.6388968 45.5764291,65.6934287 Z" id="Shape" fill="#FFFFFF"></path>
                        <path d="M25.0387216,72.6015887 C25.0680123,70.0043158 25.1998208,67.4021609 25.0924213,64.7902417 C25.028958,63.2182081 25.6050097,62.7153526 27.0451389,62.949693 C27.1264303,62.9545291 27.2079372,62.9545291 27.2892286,62.949693 C29.2419462,63.0278065 31.5852074,62.9057542 31.7804791,65.5567301 C31.9611055,67.9977761 29.886343,68.5348062 27.9189801,68.6178017 C26.7424677,68.6666227 26.8693943,69.3452334 26.8986851,70.0824293 C26.9426212,71.0588477 26.9767938,71.9962093 25.9955532,72.5869425 L25.0387216,72.6015887 Z M27.8115806,64.4045564 C26.8352218,64.1653339 26.8986851,65.0245821 26.8742761,65.869184 C26.8498672,66.7137859 26.9572666,67.3338116 28.0166159,67.1873488 C28.9246296,67.0750607 29.8961066,66.9237158 29.9693335,65.815481 C30.052324,64.6193685 29.0466745,64.5266087 27.826226,64.4045564 L27.8115806,64.4045564 Z" id="Shape" fill="#FFFFFF"></path>
                        <path d="M10.3933395,72.6015887 C10.3933395,69.9359666 10.4226303,67.2752265 10.451921,64.6096043 C10.451921,63.9212293 10.2224767,63.003396 11.3208804,62.9594572 C12.419284,62.9155184 12.2630666,63.8235875 12.2679484,64.5266087 C12.2679484,66.5477948 12.1849579,68.5689808 12.3070027,70.5804027 C12.3655843,71.5226464 11.8676413,72.0108556 11.3745801,72.5967066 L10.3933395,72.6015887 Z" id="Shape" fill="#FFFFFF"></path>
                        <path d="M51.4394637,23.7172025 C51.4394637,27.4910595 51.4394637,30.9524627 51.4394637,34.4187479 C51.4394637,35.7808516 50.2824785,35.8833755 49.4867461,36.2251219 C35.1895986,42.6662285 20.8859421,49.0894341 6.57577656,55.4947387 C4.94525735,56.2270525 3.29521097,56.9203095 1.69398253,57.6965621 C0.610224254,58.218946 0.229444319,57.9309026 0.229444319,56.7640826 C0.258735084,53.3466183 0.288025848,49.9291539 0.229444319,46.5116896 C0.195271761,45.0031232 1.32784798,44.8810709 2.25050705,44.4905035 C16.6908538,38.3878887 31.1360823,32.2917832 45.5861926,26.2021873 C47.4119836,25.4356988 49.2621835,24.6399178 51.4394637,23.7172025 Z" id="Shape" fill="#04CBC3"></path>
                        <path d="M50.0286252,22.5015616 C45.3469847,24.4934551 41.241396,26.2217156 37.1553344,27.9987971 C36.3010204,28.3698361 35.6175692,28.1501419 34.841364,27.8230418 C23.8540729,23.1590166 12.8619,18.5112651 1.86484532,13.8797873 C0.790850633,13.4257527 0.165980997,12.9033689 0.200153555,11.580322 C0.292907642,7.92851726 0.234326113,4.25718414 0.234326113,0.170873217 L50.0286252,22.5015616 Z" id="Shape" fill="#05CCC3"></path>
                        <path d="M51.4101729,45.3595159 C51.4101729,49.4848836 51.4101729,53.2831511 51.4101729,57.0765365 C51.4101729,58.2287102 50.8097123,58.3702908 49.8724078,58.3702908 C41.1242329,58.3702908 32.376058,58.3702908 23.4619021,57.9260205 L51.4101729,45.3595159 Z" id="Shape" fill="#0ACCC4"></path>
                        <path d="M7.45938128,72.0938512 L0.571169901,72.1280258 C0.463770433,69.7602112 2.65081416,68.6715047 3.50024632,66.8504845 C3.83709011,66.1425811 4.91596659,65.605551 4.59376818,64.8390626 C4.24227901,63.9944607 3.12922997,64.6340147 2.42136984,64.433849 C1.7135097,64.2336832 0.507706579,65.0392284 0.541879137,63.6966531 C0.576051695,62.3540778 1.80626379,63.003396 2.49459675,63.0278065 C4.14464313,63.0863916 6.58065835,62.2124972 7.24946413,63.4427843 C7.98173324,64.7902417 5.74098978,66.1474632 4.92573018,67.5779162 C4.37896924,68.5543345 3.65646373,69.3940544 2.73380466,70.6926908 C4.19834286,70.6926908 5.25769217,70.7317475 6.32680506,70.6926908 C7.39591795,70.6536341 7.87921556,70.9807342 7.45938128,72.0938512 Z" id="Shape" fill="#FFFFFF"></path>
                        <path d="M15.5436322,67.514449 C15.5436322,67.107608 15.5436322,66.7023943 15.5436322,66.2988081 C15.5436322,62.6567675 15.714495,62.5103048 19.3660769,63.0912737 C20.8306151,63.3256141 22.065709,63.8919368 22.1584631,65.6006689 C22.2512172,67.3094011 21.1821043,68.2174702 19.6882753,68.3981076 C17.9601202,68.6129196 16.7591989,68.9888407 17.2473783,71.0979044 C17.3987139,71.7765152 17.0765155,72.1622005 16.3198374,72.13779 C15.4411145,72.1084975 15.548514,71.4835897 15.5436322,70.9270312 C15.5338686,69.7895038 15.5436322,68.6519764 15.5436322,67.514449 Z M17.2229693,65.761778 C17.183915,66.5770873 17.159506,67.3240474 18.2774368,67.2264055 C19.2879682,67.1531742 20.3717265,66.9823009 20.430308,65.761778 C20.4888895,64.541255 19.4539492,64.4973162 18.5361719,64.3752639 C17.3743049,64.2434474 17.1155699,64.8341805 17.2180875,65.761778 L17.2229693,65.761778 Z" id="Shape" fill="#FFFFFF"></path>
                    </g>
                </g>
            </g>
        </g>
    </g>
</svg>